%TF.GenerationSoftware,KiCad,Pcbnew,8.0.3*%
%TF.CreationDate,2025-10-09T18:02:22+02:00*%
%TF.ProjectId,LAN8742A-breakout,4c414e38-3734-4324-912d-627265616b6f,+ (Unreleased)*%
%TF.SameCoordinates,Original*%
%TF.FileFunction,Legend,Bot*%
%TF.FilePolarity,Positive*%
%FSLAX46Y46*%
G04 Gerber Fmt 4.6, Leading zero omitted, Abs format (unit mm)*
G04 Created by KiCad (PCBNEW 8.0.3) date 2025-10-09 18:02:22*
%MOMM*%
%LPD*%
G01*
G04 APERTURE LIST*
G04 Aperture macros list*
%AMRoundRect*
0 Rectangle with rounded corners*
0 $1 Rounding radius*
0 $2 $3 $4 $5 $6 $7 $8 $9 X,Y pos of 4 corners*
0 Add a 4 corners polygon primitive as box body*
4,1,4,$2,$3,$4,$5,$6,$7,$8,$9,$2,$3,0*
0 Add four circle primitives for the rounded corners*
1,1,$1+$1,$2,$3*
1,1,$1+$1,$4,$5*
1,1,$1+$1,$6,$7*
1,1,$1+$1,$8,$9*
0 Add four rect primitives between the rounded corners*
20,1,$1+$1,$2,$3,$4,$5,0*
20,1,$1+$1,$4,$5,$6,$7,0*
20,1,$1+$1,$6,$7,$8,$9,0*
20,1,$1+$1,$8,$9,$2,$3,0*%
G04 Aperture macros list end*
%ADD10C,0.150000*%
%ADD11C,0.300000*%
%ADD12C,0.000000*%
%ADD13C,3.300000*%
%ADD14RoundRect,0.050000X-0.850000X-0.850000X0.850000X-0.850000X0.850000X0.850000X-0.850000X0.850000X0*%
%ADD15O,1.800000X1.800000*%
%ADD16C,2.100000*%
%ADD17RoundRect,0.050000X-0.850000X0.850000X-0.850000X-0.850000X0.850000X-0.850000X0.850000X0.850000X0*%
%ADD18RoundRect,0.050000X0.850000X0.850000X-0.850000X0.850000X-0.850000X-0.850000X0.850000X-0.850000X0*%
%ADD19C,3.400000*%
%ADD20RoundRect,0.050000X0.800000X0.800000X-0.800000X0.800000X-0.800000X-0.800000X0.800000X-0.800000X0*%
%ADD21C,1.700000*%
%ADD22C,1.900000*%
%ADD23C,2.600000*%
G04 APERTURE END LIST*
D10*
X65014002Y24039909D02*
X64014002Y24039909D01*
X64394954Y24039909D02*
X64347335Y23944671D01*
X64347335Y23944671D02*
X64347335Y23754195D01*
X64347335Y23754195D02*
X64394954Y23658957D01*
X64394954Y23658957D02*
X64442573Y23611338D01*
X64442573Y23611338D02*
X64537811Y23563719D01*
X64537811Y23563719D02*
X64823525Y23563719D01*
X64823525Y23563719D02*
X64918763Y23611338D01*
X64918763Y23611338D02*
X64966383Y23658957D01*
X64966383Y23658957D02*
X65014002Y23754195D01*
X65014002Y23754195D02*
X65014002Y23944671D01*
X65014002Y23944671D02*
X64966383Y24039909D01*
X64347335Y23230385D02*
X65014002Y22992290D01*
X64347335Y22754195D02*
X65014002Y22992290D01*
X65014002Y22992290D02*
X65252097Y23087528D01*
X65252097Y23087528D02*
X65299716Y23135147D01*
X65299716Y23135147D02*
X65347335Y23230385D01*
X64014002Y21754194D02*
X64014002Y21182766D01*
X65014002Y21468480D02*
X64014002Y21468480D01*
X65014002Y20849432D02*
X64347335Y20849432D01*
X64537811Y20849432D02*
X64442573Y20801813D01*
X64442573Y20801813D02*
X64394954Y20754194D01*
X64394954Y20754194D02*
X64347335Y20658956D01*
X64347335Y20658956D02*
X64347335Y20563718D01*
X65014002Y20087527D02*
X64966383Y20182765D01*
X64966383Y20182765D02*
X64918763Y20230384D01*
X64918763Y20230384D02*
X64823525Y20278003D01*
X64823525Y20278003D02*
X64537811Y20278003D01*
X64537811Y20278003D02*
X64442573Y20230384D01*
X64442573Y20230384D02*
X64394954Y20182765D01*
X64394954Y20182765D02*
X64347335Y20087527D01*
X64347335Y20087527D02*
X64347335Y19944670D01*
X64347335Y19944670D02*
X64394954Y19849432D01*
X64394954Y19849432D02*
X64442573Y19801813D01*
X64442573Y19801813D02*
X64537811Y19754194D01*
X64537811Y19754194D02*
X64823525Y19754194D01*
X64823525Y19754194D02*
X64918763Y19801813D01*
X64918763Y19801813D02*
X64966383Y19849432D01*
X64966383Y19849432D02*
X65014002Y19944670D01*
X65014002Y19944670D02*
X65014002Y20087527D01*
X64347335Y19325622D02*
X65347335Y19325622D01*
X64394954Y19325622D02*
X64347335Y19230384D01*
X64347335Y19230384D02*
X64347335Y19039908D01*
X64347335Y19039908D02*
X64394954Y18944670D01*
X64394954Y18944670D02*
X64442573Y18897051D01*
X64442573Y18897051D02*
X64537811Y18849432D01*
X64537811Y18849432D02*
X64823525Y18849432D01*
X64823525Y18849432D02*
X64918763Y18897051D01*
X64918763Y18897051D02*
X64966383Y18944670D01*
X64966383Y18944670D02*
X65014002Y19039908D01*
X65014002Y19039908D02*
X65014002Y19230384D01*
X65014002Y19230384D02*
X64966383Y19325622D01*
X65014002Y18420860D02*
X64347335Y18420860D01*
X64014002Y18420860D02*
X64061621Y18468479D01*
X64061621Y18468479D02*
X64109240Y18420860D01*
X64109240Y18420860D02*
X64061621Y18373241D01*
X64061621Y18373241D02*
X64014002Y18420860D01*
X64014002Y18420860D02*
X64109240Y18420860D01*
X65014002Y17944670D02*
X64014002Y17944670D01*
X64633049Y17849432D02*
X65014002Y17563718D01*
X64347335Y17563718D02*
X64728287Y17944670D01*
X64966383Y16754194D02*
X65014002Y16849432D01*
X65014002Y16849432D02*
X65014002Y17039908D01*
X65014002Y17039908D02*
X64966383Y17135146D01*
X64966383Y17135146D02*
X64871144Y17182765D01*
X64871144Y17182765D02*
X64490192Y17182765D01*
X64490192Y17182765D02*
X64394954Y17135146D01*
X64394954Y17135146D02*
X64347335Y17039908D01*
X64347335Y17039908D02*
X64347335Y16849432D01*
X64347335Y16849432D02*
X64394954Y16754194D01*
X64394954Y16754194D02*
X64490192Y16706575D01*
X64490192Y16706575D02*
X64585430Y16706575D01*
X64585430Y16706575D02*
X64680668Y17182765D01*
X64347335Y16278003D02*
X65204478Y16278003D01*
X65204478Y16278003D02*
X65299716Y16325622D01*
X65299716Y16325622D02*
X65347335Y16420860D01*
X65347335Y16420860D02*
X65347335Y16468479D01*
X64014002Y16278003D02*
X64061621Y16325622D01*
X64061621Y16325622D02*
X64109240Y16278003D01*
X64109240Y16278003D02*
X64061621Y16230384D01*
X64061621Y16230384D02*
X64014002Y16278003D01*
X64014002Y16278003D02*
X64109240Y16278003D01*
D11*
X84588207Y36624463D02*
X84731065Y36695892D01*
X84731065Y36695892D02*
X84945350Y36695892D01*
X84945350Y36695892D02*
X85159636Y36624463D01*
X85159636Y36624463D02*
X85302493Y36481606D01*
X85302493Y36481606D02*
X85373922Y36338749D01*
X85373922Y36338749D02*
X85445350Y36053035D01*
X85445350Y36053035D02*
X85445350Y35838749D01*
X85445350Y35838749D02*
X85373922Y35553035D01*
X85373922Y35553035D02*
X85302493Y35410178D01*
X85302493Y35410178D02*
X85159636Y35267320D01*
X85159636Y35267320D02*
X84945350Y35195892D01*
X84945350Y35195892D02*
X84802493Y35195892D01*
X84802493Y35195892D02*
X84588207Y35267320D01*
X84588207Y35267320D02*
X84516779Y35338749D01*
X84516779Y35338749D02*
X84516779Y35838749D01*
X84516779Y35838749D02*
X84802493Y35838749D01*
X83659636Y36695892D02*
X83659636Y36338749D01*
X84016779Y36481606D02*
X83659636Y36338749D01*
X83659636Y36338749D02*
X83302493Y36481606D01*
X83873922Y36053035D02*
X83659636Y36338749D01*
X83659636Y36338749D02*
X83445350Y36053035D01*
X82516779Y36695892D02*
X82516779Y36338749D01*
X82873922Y36481606D02*
X82516779Y36338749D01*
X82516779Y36338749D02*
X82159636Y36481606D01*
X82731065Y36053035D02*
X82516779Y36338749D01*
X82516779Y36338749D02*
X82302493Y36053035D01*
X81373922Y36695892D02*
X81373922Y36338749D01*
X81731065Y36481606D02*
X81373922Y36338749D01*
X81373922Y36338749D02*
X81016779Y36481606D01*
X81588208Y36053035D02*
X81373922Y36338749D01*
X81373922Y36338749D02*
X81159636Y36053035D01*
D12*
%TO.C,G\u002A\u002A\u002A*%
G36*
X81061635Y38446889D02*
G01*
X81020799Y38406053D01*
X80979963Y38446889D01*
X81020799Y38487725D01*
X81061635Y38446889D01*
G37*
G36*
X83593468Y23092548D02*
G01*
X83552632Y23051712D01*
X83511796Y23092548D01*
X83552632Y23133384D01*
X83593468Y23092548D01*
G37*
G36*
X84736877Y58293191D02*
G01*
X84696041Y58252355D01*
X84655205Y58293191D01*
X84696041Y58334027D01*
X84736877Y58293191D01*
G37*
G36*
X86778677Y24480973D02*
G01*
X86737841Y24440137D01*
X86697005Y24480973D01*
X86737841Y24521809D01*
X86778677Y24480973D01*
G37*
G36*
X86697005Y24276793D02*
G01*
X86691111Y24233556D01*
X86642557Y24222345D01*
X86632783Y24234315D01*
X86642557Y24331241D01*
X86667123Y24344018D01*
X86697005Y24276793D01*
G37*
G36*
X75719575Y46552187D02*
G01*
X75735155Y46476729D01*
X75702159Y46313977D01*
X75636450Y46124060D01*
X75606430Y46314834D01*
X75600297Y46461141D01*
X75641110Y46568684D01*
X75719575Y46552187D01*
G37*
G36*
X75711696Y43787975D02*
G01*
X75794475Y43705427D01*
X75777957Y43603618D01*
X75752528Y43581444D01*
X75639767Y43561262D01*
X75589610Y43673899D01*
X75598256Y43730184D01*
X75666462Y43796407D01*
X75711696Y43787975D01*
G37*
G36*
X75722207Y45732834D02*
G01*
X75739727Y45679461D01*
X75709568Y45535460D01*
X75685654Y45481749D01*
X75644341Y45433493D01*
X75610587Y45538330D01*
X75600621Y45652992D01*
X75641457Y45750983D01*
X75722207Y45732834D01*
G37*
G36*
X75693587Y46924063D02*
G01*
X75752954Y46813452D01*
X75750616Y46795218D01*
X75671282Y46736600D01*
X75632251Y46752183D01*
X75589610Y46863928D01*
X75601362Y46922265D01*
X75671282Y46940780D01*
X75693587Y46924063D01*
G37*
G36*
X75646289Y44368111D02*
G01*
X75683158Y44295990D01*
X75811363Y44148947D01*
X75870019Y44081021D01*
X75881025Y43968752D01*
X75823729Y43912575D01*
X75717646Y43925847D01*
X75629760Y44044126D01*
X75596057Y44233923D01*
X75597204Y44265008D01*
X75615615Y44384369D01*
X75646289Y44368111D01*
G37*
G36*
X75767815Y29276594D02*
G01*
X75807344Y29207164D01*
X75843349Y29008222D01*
X75841003Y28767165D01*
X75803119Y28551560D01*
X75732512Y28428972D01*
X75670829Y28432996D01*
X75630139Y28556267D01*
X75605676Y28821369D01*
X75598073Y29070717D01*
X75616327Y29272955D01*
X75671356Y29337225D01*
X75767815Y29276594D01*
G37*
G36*
X75912148Y45428286D02*
G01*
X75994806Y45384337D01*
X75961324Y45300015D01*
X75827705Y45223471D01*
X75706466Y45144210D01*
X75703709Y44985076D01*
X75719442Y44858474D01*
X75690213Y44740022D01*
X75677205Y44734093D01*
X75634419Y44805466D01*
X75604376Y44985018D01*
X75608554Y45187461D01*
X75699977Y45367939D01*
X75895880Y45428597D01*
X75912148Y45428286D01*
G37*
G36*
X89594757Y37732779D02*
G01*
X89437616Y37484243D01*
X89246940Y37253610D01*
X89057930Y37083773D01*
X88905786Y37017629D01*
X88754867Y36974653D01*
X88600815Y36798823D01*
X88520496Y36513964D01*
X88497496Y36410533D01*
X88396189Y36160204D01*
X88248474Y35901944D01*
X88157966Y35759396D01*
X88047062Y35552145D01*
X88003758Y35420930D01*
X88001389Y35400435D01*
X87939814Y35341750D01*
X87773254Y35311253D01*
X87472889Y35302516D01*
X87211444Y35294411D01*
X87016521Y35272048D01*
X86942021Y35240428D01*
X86940848Y35232368D01*
X86877146Y35124402D01*
X86746149Y34967100D01*
X86573052Y34743132D01*
X86356730Y34395430D01*
X86141465Y33993819D01*
X85955419Y33591192D01*
X85826757Y33240443D01*
X85773092Y33072976D01*
X85681891Y32837028D01*
X85606518Y32695857D01*
X85569073Y32629171D01*
X85628344Y32606632D01*
X85819546Y32629552D01*
X85825766Y32630548D01*
X86032678Y32648351D01*
X86151728Y32593918D01*
X86251661Y32436546D01*
X86260100Y32419853D01*
X86328555Y32236653D01*
X86331487Y32120552D01*
X86320853Y32089459D01*
X86372951Y31993172D01*
X86415171Y31946000D01*
X86369311Y31830243D01*
X86328958Y31765152D01*
X86301585Y31612916D01*
X86301777Y31611976D01*
X86274824Y31471821D01*
X86179534Y31287614D01*
X86077183Y31086068D01*
X86024174Y30879254D01*
X85975913Y30687522D01*
X85865345Y30471259D01*
X85862201Y30466647D01*
X85759501Y30292736D01*
X85716941Y30174989D01*
X85700109Y30119933D01*
X85600817Y29999133D01*
X85574635Y29970515D01*
X85490148Y29797748D01*
X85428853Y29560355D01*
X85416800Y29498838D01*
X85327898Y29235959D01*
X85207956Y29038344D01*
X85105904Y28880157D01*
X85087949Y28741339D01*
X85077363Y28640250D01*
X84993680Y28440389D01*
X84853266Y28199186D01*
X84728034Y27994137D01*
X84616499Y27774055D01*
X84573533Y27634552D01*
X84561742Y27557538D01*
X84471442Y27391166D01*
X84457716Y27376645D01*
X84422226Y27279674D01*
X84523860Y27173597D01*
X84633517Y27099368D01*
X84760170Y27032265D01*
X84796277Y26983638D01*
X84748367Y26830096D01*
X84702809Y26713575D01*
X84736656Y26604582D01*
X84742745Y26600057D01*
X84796482Y26479526D01*
X84818549Y26277757D01*
X84818774Y26257059D01*
X84844595Y26059869D01*
X84900221Y25951069D01*
X84936724Y25914672D01*
X84981893Y25770196D01*
X84984166Y25747235D01*
X85048743Y25583932D01*
X85174523Y25387074D01*
X85245484Y25273681D01*
X85367705Y24991942D01*
X85453294Y24685153D01*
X85486158Y24530598D01*
X85578499Y24175071D01*
X85677349Y23868433D01*
X85712224Y23767570D01*
X85759900Y23565864D01*
X85782169Y23325045D01*
X85782052Y23250631D01*
X85781664Y23004016D01*
X85761016Y22561680D01*
X85747360Y22362320D01*
X85738768Y22236894D01*
X85702728Y21841595D01*
X85662911Y21511562D01*
X85648763Y21431884D01*
X85624594Y21295764D01*
X85567276Y21072816D01*
X85453070Y20643137D01*
X85324064Y20169747D01*
X85198677Y19719969D01*
X85095325Y19361125D01*
X85062061Y19241628D01*
X85004618Y18989306D01*
X84981893Y18814659D01*
X84968098Y18715433D01*
X84900221Y18600587D01*
X84845406Y18508250D01*
X84818549Y18325525D01*
X84791075Y18146550D01*
X84698638Y17942403D01*
X84620407Y17784260D01*
X84576130Y17551733D01*
X84529511Y17335382D01*
X84410188Y17111940D01*
X84295349Y16922864D01*
X84246844Y16756011D01*
X84230822Y16672297D01*
X84130138Y16542427D01*
X84075264Y16503661D01*
X83997845Y16395442D01*
X83980322Y16321056D01*
X83842389Y15983950D01*
X83623831Y15639403D01*
X83587600Y15590118D01*
X83458117Y15381452D01*
X83390890Y15219518D01*
X83334429Y15038153D01*
X83160523Y14792146D01*
X82919674Y14665100D01*
X82765179Y14613729D01*
X82695076Y14547613D01*
X82676033Y14511317D01*
X82558581Y14476150D01*
X82445603Y14448831D01*
X82275771Y14343736D01*
X82272782Y14341061D01*
X82126063Y14262412D01*
X81991379Y14259343D01*
X81917761Y14318952D01*
X81954238Y14428338D01*
X82005839Y14518466D01*
X81943018Y14577434D01*
X81932489Y14581201D01*
X81883193Y14638342D01*
X81955731Y14756095D01*
X82012717Y14821674D01*
X82089766Y14853996D01*
X82179485Y14754921D01*
X82259051Y14666650D01*
X82326870Y14663276D01*
X82336229Y14790249D01*
X82281630Y15032621D01*
X82276956Y15048310D01*
X82226867Y15269203D01*
X82250067Y15426794D01*
X82357642Y15604466D01*
X82376585Y15631814D01*
X82486756Y15827330D01*
X82531732Y15974452D01*
X82539950Y16032796D01*
X82618125Y16153344D01*
X82672752Y16211484D01*
X82791016Y16409536D01*
X82937062Y16710322D01*
X83096677Y17081907D01*
X83255648Y17492354D01*
X83399764Y17909730D01*
X83388729Y17984307D01*
X83251372Y18140324D01*
X82965574Y18352054D01*
X82586580Y18603758D01*
X82170018Y18874648D01*
X81849838Y19070582D01*
X81603881Y19201565D01*
X81409985Y19277604D01*
X81245989Y19308706D01*
X81089732Y19304875D01*
X80919054Y19276119D01*
X80682605Y19237623D01*
X80321227Y19196862D01*
X79959063Y19171215D01*
X79952518Y19170919D01*
X79549788Y19135499D01*
X79228240Y19073898D01*
X79015243Y18993358D01*
X78938163Y18901119D01*
X78968911Y18814071D01*
X79134799Y18658575D01*
X79424592Y18492881D01*
X79815754Y18329062D01*
X80285751Y18179190D01*
X80420120Y18143754D01*
X80810114Y18053716D01*
X81239627Y17968140D01*
X81659167Y17895828D01*
X82019240Y17845583D01*
X82270354Y17826208D01*
X82521825Y17790576D01*
X82784960Y17697948D01*
X82879401Y17644238D01*
X82983278Y17534286D01*
X82974938Y17391678D01*
X82938165Y17278098D01*
X82909528Y17206473D01*
X82887911Y17195580D01*
X82671315Y17127440D01*
X82358339Y17067267D01*
X82006783Y17024352D01*
X81674446Y17007982D01*
X81650404Y17008081D01*
X81322040Y17022668D01*
X80932035Y17058128D01*
X80517806Y17108870D01*
X80116766Y17169302D01*
X79766332Y17233832D01*
X79503918Y17296870D01*
X79366941Y17352824D01*
X79360158Y17358242D01*
X79285883Y17375555D01*
X79264851Y17250462D01*
X79280128Y17145719D01*
X79348298Y16927727D01*
X79451463Y16676181D01*
X79567887Y16438185D01*
X79675836Y16260844D01*
X79753575Y16191262D01*
X79760600Y16190168D01*
X79825551Y16103977D01*
X79879626Y15922221D01*
X79950445Y15726453D01*
X80107925Y15575115D01*
X80222287Y15486398D01*
X80311017Y15278429D01*
X80355221Y15114285D01*
X80453943Y14962158D01*
X80513443Y14891231D01*
X80571603Y14708602D01*
X80571642Y14704037D01*
X80638313Y14548772D01*
X80795632Y14488700D01*
X80989674Y14544932D01*
X81118392Y14617296D01*
X81204295Y14621712D01*
X81224979Y14516986D01*
X81236694Y14476150D01*
X81242439Y14456122D01*
X81356225Y14394478D01*
X81425701Y14377046D01*
X81441290Y14274130D01*
X81439304Y14192836D01*
X81533961Y14076075D01*
X81602600Y14018036D01*
X81606655Y13932209D01*
X81605501Y13931104D01*
X81515676Y13943287D01*
X81393944Y14060338D01*
X81338206Y14124341D01*
X81203953Y14200672D01*
X81118400Y14151128D01*
X81119664Y13986036D01*
X81154515Y13890429D01*
X81214087Y13822611D01*
X81214593Y13822598D01*
X81255874Y13749780D01*
X81282946Y13577595D01*
X81300076Y13332741D01*
X80574980Y13332741D01*
X79849884Y13332741D01*
X79509867Y13659429D01*
X79358968Y13797608D01*
X79190260Y13933530D01*
X79094842Y13986118D01*
X79054156Y14007603D01*
X79011475Y14129044D01*
X79007860Y14153490D01*
X78978153Y14133677D01*
X78931057Y13986118D01*
X78927361Y13970985D01*
X78891741Y13722169D01*
X78900137Y13516503D01*
X78913259Y13428217D01*
X78878788Y13364051D01*
X78753496Y13337788D01*
X78501153Y13332741D01*
X78061031Y13332741D01*
X78064299Y14541271D01*
X78873286Y14541271D01*
X78884073Y14374060D01*
X78912432Y14360206D01*
X78925267Y14476150D01*
X78913883Y14588500D01*
X78884073Y14578240D01*
X78873286Y14541271D01*
X78064299Y14541271D01*
X78084494Y22010394D01*
X78087762Y23044665D01*
X78091041Y23836600D01*
X80262796Y23836600D01*
X80303665Y23502491D01*
X80395770Y23146233D01*
X80528088Y22816428D01*
X80689596Y22561680D01*
X80747509Y22473663D01*
X80855250Y22200159D01*
X80944303Y21826632D01*
X80982610Y21644653D01*
X81073382Y21311624D01*
X81179995Y21000649D01*
X81285947Y20757657D01*
X81374737Y20628575D01*
X81443476Y20578190D01*
X81549508Y20534331D01*
X81651566Y20584808D01*
X81804772Y20744478D01*
X81833157Y20776910D01*
X82025108Y21037075D01*
X82197058Y21330634D01*
X82249278Y21446184D01*
X83708532Y21446184D01*
X83773364Y21362525D01*
X83850697Y21305414D01*
X84033406Y21213162D01*
X84134231Y21254610D01*
X84165172Y21431884D01*
X84110034Y21545592D01*
X83962060Y21579307D01*
X83773364Y21511902D01*
X83708532Y21446184D01*
X82249278Y21446184D01*
X82320865Y21604588D01*
X82368388Y21805937D01*
X82374313Y21853182D01*
X82445880Y22046350D01*
X82572568Y22268058D01*
X82600840Y22311844D01*
X84001828Y22311844D01*
X84004166Y22293610D01*
X84083500Y22234992D01*
X84122531Y22250575D01*
X84165172Y22362320D01*
X84153420Y22420657D01*
X84083500Y22439172D01*
X84061196Y22422456D01*
X84001828Y22311844D01*
X82600840Y22311844D01*
X82624273Y22348137D01*
X82733314Y22550724D01*
X82776748Y22687815D01*
X82805056Y22755604D01*
X82934258Y22806696D01*
X83040426Y22826758D01*
X83214277Y22929204D01*
X83337152Y23028300D01*
X83408462Y23045283D01*
X83388801Y22969252D01*
X83386186Y22964267D01*
X83403325Y22844073D01*
X83502393Y22677592D01*
X83666949Y22468394D01*
X83659119Y22780471D01*
X83658382Y22821492D01*
X83664193Y23055263D01*
X83683633Y23215056D01*
X83689198Y23250631D01*
X83637364Y23311638D01*
X83459016Y23313057D01*
X83320128Y23311707D01*
X83167090Y23377966D01*
X83016141Y23558073D01*
X82838200Y23794903D01*
X82589081Y24031095D01*
X82318777Y24154906D01*
X81985266Y24192184D01*
X81826196Y24198225D01*
X81617753Y24225046D01*
X81517843Y24265448D01*
X81517343Y24266231D01*
X81407247Y24310786D01*
X81190594Y24327768D01*
X80920497Y24320597D01*
X80650070Y24292693D01*
X80432428Y24247476D01*
X80320684Y24188366D01*
X80284185Y24099955D01*
X80262796Y23836600D01*
X78091041Y23836600D01*
X78092580Y24208287D01*
X78098404Y25326729D01*
X78105116Y26388174D01*
X78112602Y27380807D01*
X78120744Y28292810D01*
X78129427Y29112368D01*
X78138534Y29827664D01*
X78147950Y30426882D01*
X78157558Y30898204D01*
X78167242Y31229816D01*
X78176886Y31409900D01*
X78189824Y31560486D01*
X78205950Y31860943D01*
X78203900Y32077253D01*
X78183344Y32170362D01*
X78151293Y32254527D01*
X78159294Y32428573D01*
X78195656Y32767765D01*
X78210370Y33235808D01*
X78201724Y33781824D01*
X78169494Y34363288D01*
X78155623Y34545637D01*
X78127526Y34885095D01*
X78101508Y35117868D01*
X78071040Y35283675D01*
X78029596Y35422235D01*
X77970648Y35573267D01*
X77909051Y35779470D01*
X77876426Y36031482D01*
X77871660Y36208831D01*
X77844438Y36504678D01*
X77799909Y36755128D01*
X77745923Y36920903D01*
X77690328Y36962730D01*
X77643935Y36977082D01*
X77660635Y37122950D01*
X77674953Y37277358D01*
X77631710Y37384968D01*
X77591037Y37433673D01*
X77553599Y37587207D01*
X77564382Y37753266D01*
X77624663Y37847961D01*
X77642409Y37860520D01*
X77693063Y37988012D01*
X77720626Y38197783D01*
X77723445Y38429108D01*
X77699865Y38621263D01*
X77648234Y38713521D01*
X77611688Y38731672D01*
X77585535Y38806260D01*
X77592664Y38829769D01*
X77610891Y38986280D01*
X77626938Y39248536D01*
X77637984Y39575169D01*
X77642199Y39716428D01*
X77650646Y39863048D01*
X79591539Y39863048D01*
X79605099Y39760876D01*
X79698545Y39529406D01*
X79849811Y39301826D01*
X80022157Y39128410D01*
X80178841Y39059432D01*
X80250774Y39049367D01*
X80368247Y38976425D01*
X80390257Y38950556D01*
X80490555Y38937307D01*
X80533110Y38944742D01*
X80627838Y38871226D01*
X80677439Y38811727D01*
X80835660Y38709256D01*
X80908201Y38661989D01*
X80929192Y38532122D01*
X80894185Y38474424D01*
X80808061Y38452178D01*
X80794900Y38455472D01*
X80752178Y38380989D01*
X80734947Y38201190D01*
X80728365Y38046270D01*
X80687689Y37947541D01*
X80592021Y37949489D01*
X80541386Y37961842D01*
X80364733Y37944135D01*
X80268567Y37842989D01*
X80294069Y37693748D01*
X80441348Y37582781D01*
X80718041Y37523618D01*
X80911880Y37519842D01*
X81067891Y37568881D01*
X81185226Y37702030D01*
X81258724Y37860907D01*
X81272806Y38192385D01*
X81267828Y38227972D01*
X81266282Y38423563D01*
X81309086Y38530066D01*
X81333944Y38551988D01*
X81341789Y38660290D01*
X81330363Y38720130D01*
X81388324Y38855249D01*
X81430018Y38930481D01*
X81425727Y39064983D01*
X81409911Y39109590D01*
X81460216Y39216730D01*
X81493309Y39270066D01*
X83870402Y39270066D01*
X83895149Y39132320D01*
X83928326Y38873140D01*
X83958498Y38568484D01*
X83982676Y38314336D01*
X84021540Y37974732D01*
X84058844Y37711841D01*
X84069920Y37643171D01*
X84095961Y37436978D01*
X84098835Y37323899D01*
X84097652Y37308093D01*
X84165172Y37262645D01*
X84211224Y37235282D01*
X84246844Y37106561D01*
X84249907Y37075918D01*
X84341917Y36902235D01*
X84522972Y36723528D01*
X84740178Y36583936D01*
X84940643Y36527597D01*
X85074337Y36519243D01*
X85246196Y36483728D01*
X85255374Y36480924D01*
X85399627Y36506653D01*
X85579564Y36612164D01*
X85607810Y36633975D01*
X85743435Y36724540D01*
X85798613Y36735607D01*
X85799096Y36729014D01*
X85859104Y36713218D01*
X85990963Y36779793D01*
X86153886Y36899195D01*
X86307085Y37041879D01*
X86409771Y37178299D01*
X86419540Y37198422D01*
X86493066Y37468118D01*
X86528552Y37833693D01*
X86526071Y38238089D01*
X86485696Y38624249D01*
X86407503Y38935113D01*
X86351443Y39064615D01*
X86159178Y39339917D01*
X85883615Y39528472D01*
X85500439Y39643314D01*
X84985336Y39697478D01*
X84631129Y39708694D01*
X84371381Y39698001D01*
X84191401Y39659011D01*
X84175560Y39650987D01*
X84048617Y39586688D01*
X84041016Y39581665D01*
X83886378Y39433184D01*
X83870402Y39270066D01*
X81493309Y39270066D01*
X81510573Y39297891D01*
X81554619Y39463554D01*
X81579180Y39650987D01*
X81576751Y39800316D01*
X81539824Y39851667D01*
X81472570Y39868912D01*
X81335644Y39957822D01*
X81249890Y40024366D01*
X81000676Y40170799D01*
X80728598Y40238728D01*
X80365625Y40248543D01*
X80240661Y40243959D01*
X79915468Y40213305D01*
X79717195Y40148721D01*
X79618375Y40036528D01*
X79591539Y39863048D01*
X77650646Y39863048D01*
X77658957Y40007294D01*
X77682309Y40209022D01*
X77708565Y40284510D01*
X77733518Y40333819D01*
X77778126Y40511428D01*
X77831795Y40782433D01*
X77888053Y41108837D01*
X77940429Y41452641D01*
X77982450Y41775848D01*
X78007644Y42040458D01*
X78019182Y42164393D01*
X78050750Y42437270D01*
X78095733Y42792222D01*
X78148539Y43183867D01*
X78186770Y43460232D01*
X78260237Y43995426D01*
X78336837Y44557464D01*
X78405095Y45062323D01*
X78442577Y45332121D01*
X78541868Y45987484D01*
X78654876Y46668733D01*
X78774729Y47338285D01*
X78894561Y47958555D01*
X79007500Y48491957D01*
X79106678Y48900909D01*
X79188686Y49206074D01*
X79297718Y49613228D01*
X79390908Y49962645D01*
X79459648Y50214558D01*
X79573955Y50617707D01*
X79684497Y50993135D01*
X79769120Y51278159D01*
X79836531Y51514620D01*
X79870693Y51646511D01*
X79882539Y51697914D01*
X79937915Y51881937D01*
X79938214Y51882766D01*
X79984316Y52020860D01*
X80061783Y52262596D01*
X80154011Y52556167D01*
X80250171Y52852745D01*
X80338109Y53102687D01*
X80398310Y53250380D01*
X80461815Y53384198D01*
X80553747Y53597050D01*
X80650394Y53830272D01*
X80840112Y54250036D01*
X81048725Y54650639D01*
X81314447Y55107982D01*
X81385229Y55224384D01*
X81593096Y55552999D01*
X81788046Y55844487D01*
X81935599Y56046741D01*
X82090254Y56229258D01*
X82472602Y56629455D01*
X82911541Y57040057D01*
X83355526Y57414048D01*
X83753009Y57704410D01*
X84280074Y58048175D01*
X85223105Y58046364D01*
X85263869Y58046266D01*
X85723153Y58038294D01*
X86062519Y58006660D01*
X86322231Y57935108D01*
X86542552Y57807379D01*
X86763745Y57607215D01*
X87026075Y57318361D01*
X87088236Y57246772D01*
X87539814Y56682676D01*
X87918620Y56113524D01*
X88246002Y55499866D01*
X88543307Y54802251D01*
X88831882Y53981230D01*
X88881380Y53825499D01*
X88975746Y53505783D01*
X89041077Y53251842D01*
X89065494Y53108076D01*
X89078001Y53018298D01*
X89147166Y52902838D01*
X89166278Y52881485D01*
X89210975Y52733941D01*
X89228838Y52509536D01*
X89229399Y52468358D01*
X89257254Y52159610D01*
X89314155Y51881398D01*
X89359034Y51678651D01*
X89412559Y51294262D01*
X89462056Y50787011D01*
X89506792Y50179454D01*
X89546030Y49494143D01*
X89579036Y48753631D01*
X89605073Y47980472D01*
X89623407Y47197220D01*
X89633302Y46426426D01*
X89634023Y45690646D01*
X89624834Y45012432D01*
X89605000Y44414337D01*
X89573785Y43918915D01*
X89525363Y43226448D01*
X89506410Y42496966D01*
X89529861Y41809546D01*
X89596220Y41101230D01*
X89607441Y40995576D01*
X89633813Y40657493D01*
X89657426Y40238030D01*
X89677285Y39772106D01*
X89692395Y39294640D01*
X89701763Y38840551D01*
X89704394Y38444759D01*
X89699293Y38142184D01*
X89685465Y37967743D01*
X89683164Y37956322D01*
X89634667Y37833693D01*
X89594757Y37732779D01*
G37*
%TD*%
%LPC*%
D13*
%TO.C,H2*%
X100293981Y57000000D03*
%TD*%
D14*
%TO.C,J4*%
X101690981Y31000000D03*
D15*
X101690981Y28460000D03*
%TD*%
D13*
%TO.C,H4*%
X66293981Y13000000D03*
%TD*%
D16*
%TO.C,SW1*%
X65793981Y38500000D03*
X65793981Y45000000D03*
X70293981Y38500000D03*
X70293981Y45000000D03*
%TD*%
D17*
%TO.C,J2*%
X94739181Y14622000D03*
D15*
X94739181Y12082000D03*
X92199181Y14622000D03*
X92199181Y12082000D03*
X89659181Y14622000D03*
X89659181Y12082000D03*
X87119181Y14622000D03*
X87119181Y12082000D03*
X84579181Y14622000D03*
X84579181Y12082000D03*
X82039181Y14622000D03*
X82039181Y12082000D03*
X79499181Y14622000D03*
X79499181Y12082000D03*
X76959181Y14622000D03*
X76959181Y12082000D03*
X74419181Y14622000D03*
X74419181Y12082000D03*
X71879181Y14622000D03*
X71879181Y12082000D03*
%TD*%
D18*
%TO.C,J3*%
X101690981Y18920000D03*
D15*
X101690981Y21460000D03*
X101690981Y24000000D03*
%TD*%
D13*
%TO.C,H1*%
X66293981Y57000000D03*
%TD*%
%TO.C,H3*%
X100293981Y13000000D03*
%TD*%
D19*
%TO.C,J1*%
X89013981Y53296400D03*
X77583981Y53296400D03*
D20*
X87743981Y46946400D03*
D21*
X86473981Y44406400D03*
X85203981Y46946400D03*
X83933981Y44406400D03*
X82663981Y46946400D03*
X81393981Y44406400D03*
X80123981Y46946400D03*
X78853981Y44406400D03*
D22*
X89923981Y58186400D03*
X87383981Y58186400D03*
X79203981Y58186400D03*
X76663981Y58186400D03*
D23*
X91033981Y50246400D03*
X75553981Y50246400D03*
%TD*%
%LPD*%
M02*
