%TF.GenerationSoftware,KiCad,Pcbnew,8.0.3*%
%TF.CreationDate,Date%
%TF.ProjectId,LAN8742A-breakout,4c414e38-3734-4324-912d-627265616b6f,+ (Unreleased)*%
%TF.SameCoordinates,Original*%
%TF.FileFunction,Copper,L3,Inr*%
%TF.FilePolarity,Positive*%
%FSLAX46Y46*%
G04 Gerber Fmt 4.6, Leading zero omitted, Abs format (unit mm)*
G04 Created by KiCad*
%MOMM*%
%LPD*%
G01*
G04 APERTURE LIST*
%TA.AperFunction,ComponentPad*%
%ADD10R,1.700000X1.700000*%
%TD*%
%TA.AperFunction,ComponentPad*%
%ADD11O,1.700000X1.700000*%
%TD*%
%TA.AperFunction,HeatsinkPad*%
%ADD12C,0.500000*%
%TD*%
%TA.AperFunction,ComponentPad*%
%ADD13C,2.000000*%
%TD*%
%TA.AperFunction,ComponentPad*%
%ADD14C,3.300000*%
%TD*%
%TA.AperFunction,ComponentPad*%
%ADD15R,1.600000X1.600000*%
%TD*%
%TA.AperFunction,ComponentPad*%
%ADD16C,1.600000*%
%TD*%
%TA.AperFunction,ComponentPad*%
%ADD17C,1.800000*%
%TD*%
%TA.AperFunction,ComponentPad*%
%ADD18C,2.500000*%
%TD*%
%TA.AperFunction,ViaPad*%
%ADD19C,0.550000*%
%TD*%
G04 APERTURE END LIST*
D10*
%TO.N,/Project Architecture/LAN8742A breakout/LED1*%
%TO.C,J4*%
X101690981Y31000000D03*
D11*
%TO.N,/Project Architecture/LAN8742A breakout/LED2*%
X101690981Y28460000D03*
%TD*%
D12*
%TO.N,GND*%
%TO.C,U1*%
X82983084Y26978368D03*
X82275977Y26271261D03*
X81568870Y25564154D03*
X83690191Y26271261D03*
X82983084Y25564154D03*
X82275977Y24857047D03*
X84397298Y25564154D03*
X83690191Y24857047D03*
X82983084Y24149940D03*
%TD*%
D13*
%TO.N,GND*%
%TO.C,SW1*%
X65793981Y38500000D03*
X65793981Y45000000D03*
%TO.N,Net-(R6-Pad1)*%
X70293981Y38500000D03*
X70293981Y45000000D03*
%TD*%
D10*
%TO.N,/Project Architecture/LAN8742A breakout/TXD1*%
%TO.C,J2*%
X94739181Y14622000D03*
D11*
%TO.N,GND*%
X94739181Y12082000D03*
%TO.N,/Project Architecture/LAN8742A breakout/TXD0*%
X92199181Y14622000D03*
%TO.N,GND*%
X92199181Y12082000D03*
%TO.N,/Project Architecture/LAN8742A breakout/TXEN*%
X89659181Y14622000D03*
%TO.N,GND*%
X89659181Y12082000D03*
%TO.N,/Project Architecture/LAN8742A breakout/REFCLKO*%
X87119181Y14622000D03*
%TO.N,GND*%
X87119181Y12082000D03*
%TO.N,/Project Architecture/LAN8742A breakout/MDC*%
X84579181Y14622000D03*
%TO.N,GND*%
X84579181Y12082000D03*
%TO.N,/Project Architecture/LAN8742A breakout/MDIO*%
X82039181Y14622000D03*
%TO.N,GND*%
X82039181Y12082000D03*
%TO.N,/Project Architecture/LAN8742A breakout/CRS_DV*%
X79499181Y14622000D03*
%TO.N,GND*%
X79499181Y12082000D03*
%TO.N,/Project Architecture/LAN8742A breakout/RXER*%
X76959181Y14622000D03*
%TO.N,GND*%
X76959181Y12082000D03*
%TO.N,/Project Architecture/LAN8742A breakout/RXD0*%
X74419181Y14622000D03*
%TO.N,GND*%
X74419181Y12082000D03*
%TO.N,/Project Architecture/LAN8742A breakout/RXD1*%
X71879181Y14622000D03*
%TO.N,GND*%
X71879181Y12082000D03*
%TD*%
D10*
%TO.N,+3.3V*%
%TO.C,J3*%
X101690981Y18920000D03*
D11*
%TO.N,GND*%
X101690981Y21460000D03*
%TO.N,/Project Architecture/LAN8742A breakout/nRST*%
X101690981Y24000000D03*
%TD*%
D14*
%TO.N,*%
%TO.C,J1*%
X89013981Y53296400D03*
X77583981Y53296400D03*
D15*
%TO.N,/Project Architecture/LAN8742A breakout/TX_P*%
X87743981Y46946400D03*
D16*
%TO.N,/Project Architecture/LAN8742A breakout/TX_N*%
X86473981Y44406400D03*
%TO.N,/Project Architecture/LAN8742A breakout/RX_P*%
X85203981Y46946400D03*
%TO.N,+3V3_PHYA*%
X83933981Y44406400D03*
X82663981Y46946400D03*
%TO.N,/Project Architecture/LAN8742A breakout/RX_N*%
X81393981Y44406400D03*
%TO.N,unconnected-(J1-NC-Pad7)*%
X80123981Y46946400D03*
%TO.N,GND*%
X78853981Y44406400D03*
D17*
%TO.N,/Project Architecture/LAN8742A breakout/LED1*%
X89923981Y58186400D03*
%TO.N,Net-(J1-Pad10)*%
X87383981Y58186400D03*
%TO.N,Net-(J1-Pad11)*%
X79203981Y58186400D03*
%TO.N,/Project Architecture/LAN8742A breakout/LED2*%
X76663981Y58186400D03*
D18*
%TO.N,Net-(JP5-B)*%
X91033981Y50246400D03*
%TO.N,Net-(JP4-B)*%
X75553981Y50246400D03*
%TD*%
D19*
%TO.N,GND*%
X100002962Y42945879D03*
X97534169Y41433407D03*
X97545651Y37143655D03*
X100116249Y37104902D03*
%TO.N,+3V3_PHYA*%
X76171968Y28414813D03*
X71344081Y47998400D03*
X90675181Y36416000D03*
X90217981Y22852400D03*
X78330781Y38041600D03*
X73758781Y20668000D03*
X80448982Y23258978D03*
X79448381Y32809200D03*
X76882981Y23335000D03*
X98259981Y40327600D03*
X73758781Y21988800D03*
X96821981Y22446000D03*
%TO.N,GND*%
X80998981Y18621400D03*
X73378981Y51641400D03*
X75918981Y16081400D03*
X96238981Y26241400D03*
X75918981Y44021400D03*
X101318981Y49101400D03*
X70838981Y26241400D03*
X86078981Y38941400D03*
X96238981Y44021400D03*
X86078981Y21161400D03*
X86078981Y31321400D03*
X101318981Y51641400D03*
X78458981Y41481400D03*
X86078981Y33861400D03*
X98778981Y16081400D03*
X70838981Y36401400D03*
X78458981Y46561400D03*
X68298981Y21161400D03*
X70838981Y33861400D03*
X65758981Y16081400D03*
X70838981Y16081400D03*
X80998981Y16081400D03*
X73378981Y38941400D03*
X65758981Y46561400D03*
X88618981Y31321400D03*
X96238981Y41481400D03*
X65758981Y23701400D03*
X101318981Y46561400D03*
X93698981Y44021400D03*
X88618981Y33861400D03*
X83538981Y16081400D03*
X68298981Y54181400D03*
X93698981Y31321400D03*
X68298981Y11001400D03*
X91158981Y21161400D03*
X98778981Y21161400D03*
X65758981Y28781400D03*
X93698981Y33861400D03*
X83538981Y18621400D03*
X93698981Y18621400D03*
X88618981Y49101400D03*
X65758981Y36401400D03*
X91158981Y31321400D03*
X86078981Y16081400D03*
X73378981Y46561400D03*
X83538981Y38941400D03*
X93698981Y46561400D03*
X101318981Y16081400D03*
X68298981Y18621400D03*
X96238981Y11001400D03*
X88618981Y16081400D03*
X91158981Y54181400D03*
X91158981Y38941400D03*
X70838981Y18621400D03*
X93698981Y38941400D03*
X83538981Y51641400D03*
X91158981Y46561400D03*
X73378981Y31321400D03*
X70838981Y56721400D03*
X93698981Y41481400D03*
X65758981Y54181400D03*
X91158981Y41481400D03*
X70838981Y23701400D03*
X96238981Y46561400D03*
X65758981Y51641400D03*
X88618981Y38941400D03*
X86078981Y36401400D03*
X93698981Y54181400D03*
X93698981Y21161400D03*
X78458981Y18621400D03*
X65758981Y33861400D03*
X75918981Y38941400D03*
X73378981Y36401400D03*
X96238981Y38941400D03*
X75918981Y46561400D03*
X70838981Y51641400D03*
X80998981Y38941400D03*
X75918981Y41481400D03*
X73378981Y41481400D03*
X93698981Y26241400D03*
X98778981Y11001400D03*
X80998981Y33861400D03*
X96238981Y13541400D03*
X96238981Y51641400D03*
X65758981Y21161400D03*
X88618981Y18621400D03*
X83538981Y54181400D03*
X73378981Y54181400D03*
X78458981Y36401400D03*
X65758981Y31321400D03*
X91158981Y44021400D03*
X78458981Y16081400D03*
X80998981Y51641400D03*
X70838981Y54181400D03*
X101318981Y26241400D03*
X93698981Y51641400D03*
X96238981Y33861400D03*
X80998981Y54181400D03*
X65758981Y18621400D03*
X73378981Y44021400D03*
X91158981Y33861400D03*
X68298981Y16081400D03*
X91158981Y16081400D03*
X68298981Y51641400D03*
X96238981Y49101400D03*
X88618981Y44021400D03*
X96238981Y16081400D03*
X101318981Y54181400D03*
X65758981Y26241400D03*
X73378981Y16081400D03*
X80998981Y41481400D03*
X65758981Y41481400D03*
%TO.N,/Project Architecture/LAN8742A breakout/nRST*%
X98128981Y24020800D03*
X85466454Y22774473D03*
X68119981Y46703000D03*
%TO.N,/Project Architecture/LAN8742A breakout/RX_N*%
X82388660Y42467321D03*
%TO.N,/Project Architecture/LAN8742A breakout/TX_N*%
X87594981Y42385000D03*
%TO.N,Net-(JP1-A)*%
X80832920Y28173939D03*
X96948981Y31463000D03*
%TO.N,Net-(JP2-B)*%
X97355568Y30675413D03*
X81671068Y28579913D03*
%TD*%
%TA.AperFunction,Conductor*%
%TO.N,GND*%
G36*
X73953256Y12274993D02*
G01*
X73919181Y12147826D01*
X73919181Y12016174D01*
X73953256Y11889007D01*
X73986169Y11832000D01*
X72312193Y11832000D01*
X72345106Y11889007D01*
X72379181Y12016174D01*
X72379181Y12147826D01*
X72345106Y12274993D01*
X72312193Y12332000D01*
X73986169Y12332000D01*
X73953256Y12274993D01*
G37*
%TD.AperFunction*%
%TA.AperFunction,Conductor*%
G36*
X76493256Y12274993D02*
G01*
X76459181Y12147826D01*
X76459181Y12016174D01*
X76493256Y11889007D01*
X76526169Y11832000D01*
X74852193Y11832000D01*
X74885106Y11889007D01*
X74919181Y12016174D01*
X74919181Y12147826D01*
X74885106Y12274993D01*
X74852193Y12332000D01*
X76526169Y12332000D01*
X76493256Y12274993D01*
G37*
%TD.AperFunction*%
%TA.AperFunction,Conductor*%
G36*
X79033256Y12274993D02*
G01*
X78999181Y12147826D01*
X78999181Y12016174D01*
X79033256Y11889007D01*
X79066169Y11832000D01*
X77392193Y11832000D01*
X77425106Y11889007D01*
X77459181Y12016174D01*
X77459181Y12147826D01*
X77425106Y12274993D01*
X77392193Y12332000D01*
X79066169Y12332000D01*
X79033256Y12274993D01*
G37*
%TD.AperFunction*%
%TA.AperFunction,Conductor*%
G36*
X81573256Y12274993D02*
G01*
X81539181Y12147826D01*
X81539181Y12016174D01*
X81573256Y11889007D01*
X81606169Y11832000D01*
X79932193Y11832000D01*
X79965106Y11889007D01*
X79999181Y12016174D01*
X79999181Y12147826D01*
X79965106Y12274993D01*
X79932193Y12332000D01*
X81606169Y12332000D01*
X81573256Y12274993D01*
G37*
%TD.AperFunction*%
%TA.AperFunction,Conductor*%
G36*
X84113256Y12274993D02*
G01*
X84079181Y12147826D01*
X84079181Y12016174D01*
X84113256Y11889007D01*
X84146169Y11832000D01*
X82472193Y11832000D01*
X82505106Y11889007D01*
X82539181Y12016174D01*
X82539181Y12147826D01*
X82505106Y12274993D01*
X82472193Y12332000D01*
X84146169Y12332000D01*
X84113256Y12274993D01*
G37*
%TD.AperFunction*%
%TA.AperFunction,Conductor*%
G36*
X86653256Y12274993D02*
G01*
X86619181Y12147826D01*
X86619181Y12016174D01*
X86653256Y11889007D01*
X86686169Y11832000D01*
X85012193Y11832000D01*
X85045106Y11889007D01*
X85079181Y12016174D01*
X85079181Y12147826D01*
X85045106Y12274993D01*
X85012193Y12332000D01*
X86686169Y12332000D01*
X86653256Y12274993D01*
G37*
%TD.AperFunction*%
%TA.AperFunction,Conductor*%
G36*
X89193256Y12274993D02*
G01*
X89159181Y12147826D01*
X89159181Y12016174D01*
X89193256Y11889007D01*
X89226169Y11832000D01*
X87552193Y11832000D01*
X87585106Y11889007D01*
X87619181Y12016174D01*
X87619181Y12147826D01*
X87585106Y12274993D01*
X87552193Y12332000D01*
X89226169Y12332000D01*
X89193256Y12274993D01*
G37*
%TD.AperFunction*%
%TA.AperFunction,Conductor*%
G36*
X91733256Y12274993D02*
G01*
X91699181Y12147826D01*
X91699181Y12016174D01*
X91733256Y11889007D01*
X91766169Y11832000D01*
X90092193Y11832000D01*
X90125106Y11889007D01*
X90159181Y12016174D01*
X90159181Y12147826D01*
X90125106Y12274993D01*
X90092193Y12332000D01*
X91766169Y12332000D01*
X91733256Y12274993D01*
G37*
%TD.AperFunction*%
%TA.AperFunction,Conductor*%
G36*
X94273256Y12274993D02*
G01*
X94239181Y12147826D01*
X94239181Y12016174D01*
X94273256Y11889007D01*
X94306169Y11832000D01*
X92632193Y11832000D01*
X92665106Y11889007D01*
X92699181Y12016174D01*
X92699181Y12147826D01*
X92665106Y12274993D01*
X92632193Y12332000D01*
X94306169Y12332000D01*
X94273256Y12274993D01*
G37*
%TD.AperFunction*%
%TA.AperFunction,Conductor*%
G36*
X100297455Y59749306D02*
G01*
X100594889Y59732604D01*
X100608686Y59731050D01*
X100898941Y59681735D01*
X100912496Y59678641D01*
X101195400Y59597139D01*
X101208525Y59592546D01*
X101480513Y59479886D01*
X101493041Y59473853D01*
X101750717Y59331443D01*
X101762484Y59324050D01*
X102002606Y59153676D01*
X102013460Y59145020D01*
X102121559Y59048418D01*
X102232996Y58948832D01*
X102242828Y58938999D01*
X102439001Y58719483D01*
X102447671Y58708611D01*
X102618033Y58468509D01*
X102625431Y58456736D01*
X102767842Y58199066D01*
X102773874Y58186540D01*
X102850127Y58002450D01*
X102886540Y57914543D01*
X102891133Y57901417D01*
X102972636Y57618512D01*
X102975730Y57604956D01*
X103025045Y57314715D01*
X103026602Y57300897D01*
X103043286Y57003812D01*
X103043481Y56996859D01*
X103043481Y22275361D01*
X103023796Y22208322D01*
X102970992Y22162567D01*
X102901834Y22152623D01*
X102838278Y22181648D01*
X102817906Y22204237D01*
X102729090Y22331078D01*
X102729089Y22331080D01*
X102562063Y22498106D01*
X102368559Y22633601D01*
X102154473Y22733430D01*
X102154467Y22733433D01*
X102032330Y22766159D01*
X101972670Y22802524D01*
X101942141Y22865371D01*
X101950436Y22934747D01*
X101994921Y22988625D01*
X102028425Y23004593D01*
X102094935Y23024768D01*
X102277431Y23122315D01*
X102437391Y23253590D01*
X102568666Y23413550D01*
X102666213Y23596046D01*
X102726281Y23794066D01*
X102746564Y24000000D01*
X102726281Y24205934D01*
X102666213Y24403954D01*
X102568666Y24586450D01*
X102516683Y24649791D01*
X102437391Y24746411D01*
X102277433Y24877683D01*
X102277434Y24877683D01*
X102277431Y24877685D01*
X102094935Y24975232D01*
X101896915Y25035300D01*
X101896913Y25035301D01*
X101896915Y25035301D01*
X101690981Y25055583D01*
X101485048Y25035301D01*
X101287024Y24975231D01*
X101198390Y24927854D01*
X101104531Y24877685D01*
X101104529Y24877684D01*
X101104528Y24877683D01*
X100944570Y24746411D01*
X100813298Y24586453D01*
X100715750Y24403957D01*
X100655680Y24205933D01*
X100635398Y24000000D01*
X100655680Y23794068D01*
X100684804Y23698058D01*
X100715749Y23596046D01*
X100813296Y23413550D01*
X100813298Y23413548D01*
X100944570Y23253590D01*
X101010291Y23199655D01*
X101104531Y23122315D01*
X101287027Y23024768D01*
X101353532Y23004595D01*
X101411970Y22966298D01*
X101440427Y22902486D01*
X101429868Y22833419D01*
X101383644Y22781025D01*
X101349631Y22766159D01*
X101227495Y22733433D01*
X101227488Y22733430D01*
X101013403Y22633601D01*
X101013401Y22633600D01*
X100819907Y22498114D01*
X100819901Y22498109D01*
X100652872Y22331080D01*
X100652867Y22331074D01*
X100517381Y22137580D01*
X100517380Y22137578D01*
X100417551Y21923493D01*
X100417548Y21923487D01*
X100360345Y21710001D01*
X100360345Y21710000D01*
X101257969Y21710000D01*
X101225056Y21652993D01*
X101190981Y21525826D01*
X101190981Y21394174D01*
X101225056Y21267007D01*
X101257969Y21210000D01*
X100360345Y21210000D01*
X100417548Y20996514D01*
X100417551Y20996508D01*
X100517380Y20782422D01*
X100652875Y20588918D01*
X100819898Y20421895D01*
X101013402Y20286400D01*
X101183929Y20206882D01*
X101236368Y20160710D01*
X101255520Y20093516D01*
X101235304Y20026635D01*
X101182139Y19981300D01*
X101131524Y19970500D01*
X100821228Y19970500D01*
X100762751Y19958869D01*
X100762750Y19958868D01*
X100696428Y19914553D01*
X100652113Y19848231D01*
X100652112Y19848230D01*
X100640481Y19789753D01*
X100640481Y18050248D01*
X100652112Y17991771D01*
X100652113Y17991770D01*
X100696428Y17925448D01*
X100762750Y17881133D01*
X100762751Y17881132D01*
X100821228Y17869501D01*
X100821231Y17869500D01*
X100821233Y17869500D01*
X102560731Y17869500D01*
X102560732Y17869501D01*
X102575549Y17872448D01*
X102619210Y17881132D01*
X102619210Y17881133D01*
X102619212Y17881133D01*
X102685533Y17925448D01*
X102729848Y17991769D01*
X102729848Y17991771D01*
X102729849Y17991771D01*
X102741480Y18050248D01*
X102741481Y18050250D01*
X102741481Y19789751D01*
X102741480Y19789753D01*
X102729849Y19848230D01*
X102729848Y19848231D01*
X102685533Y19914553D01*
X102619211Y19958868D01*
X102619210Y19958869D01*
X102560733Y19970500D01*
X102560729Y19970500D01*
X102250438Y19970500D01*
X102183399Y19990185D01*
X102137644Y20042989D01*
X102127700Y20112147D01*
X102156725Y20175703D01*
X102198033Y20206882D01*
X102368559Y20286400D01*
X102562063Y20421895D01*
X102729086Y20588918D01*
X102817906Y20715764D01*
X102872483Y20759389D01*
X102941982Y20766581D01*
X103004336Y20735059D01*
X103039750Y20674829D01*
X103043481Y20644640D01*
X103043481Y13003481D01*
X103043286Y12996528D01*
X103026583Y12699108D01*
X103025026Y12685290D01*
X102975711Y12395049D01*
X102972617Y12381492D01*
X102891114Y12098589D01*
X102886521Y12085465D01*
X102773859Y11813473D01*
X102767830Y11800954D01*
X102625412Y11543269D01*
X102618020Y11531505D01*
X102447656Y11291402D01*
X102438987Y11280531D01*
X102242811Y11061010D01*
X102232977Y11051177D01*
X102013457Y10855004D01*
X102002586Y10846334D01*
X101762482Y10675972D01*
X101750707Y10668574D01*
X101493033Y10526165D01*
X101480505Y10520132D01*
X101208519Y10407473D01*
X101195394Y10402880D01*
X100912492Y10321379D01*
X100898935Y10318285D01*
X100608694Y10268972D01*
X100594876Y10267415D01*
X100323349Y10252169D01*
X100297116Y10250695D01*
X100290166Y10250500D01*
X66297464Y10250500D01*
X66290512Y10250695D01*
X66251882Y10252865D01*
X65993089Y10267400D01*
X65979272Y10268957D01*
X65689032Y10318272D01*
X65675475Y10321366D01*
X65392574Y10402870D01*
X65379449Y10407463D01*
X65107456Y10520127D01*
X65094931Y10526159D01*
X64837255Y10668574D01*
X64825495Y10675964D01*
X64585378Y10846337D01*
X64574515Y10855001D01*
X64355001Y11051172D01*
X64345168Y11061004D01*
X64221399Y11199502D01*
X64148982Y11280538D01*
X64140324Y11291395D01*
X63992505Y11499727D01*
X63969958Y11531505D01*
X63962560Y11543279D01*
X63820150Y11800951D01*
X63814117Y11813480D01*
X63701459Y12085463D01*
X63696866Y12098587D01*
X63636380Y12308537D01*
X63615361Y12381494D01*
X63612268Y12395049D01*
X63562952Y12685300D01*
X63561398Y12699099D01*
X63544676Y12996872D01*
X63544481Y13003824D01*
X63544481Y13118005D01*
X64493481Y13118005D01*
X64493481Y12881996D01*
X64493482Y12881980D01*
X64524287Y12647990D01*
X64585375Y12420007D01*
X64675695Y12201955D01*
X64675700Y12201944D01*
X64701328Y12157556D01*
X64793708Y11997550D01*
X64793710Y11997547D01*
X64793711Y11997546D01*
X64937387Y11810303D01*
X64937393Y11810296D01*
X65104276Y11643413D01*
X65104283Y11643407D01*
X65214287Y11558999D01*
X65291531Y11499727D01*
X65393845Y11440656D01*
X65495924Y11381720D01*
X65495929Y11381718D01*
X65495932Y11381716D01*
X65713988Y11291394D01*
X65941967Y11230307D01*
X66175970Y11199500D01*
X66175977Y11199500D01*
X66411985Y11199500D01*
X66411992Y11199500D01*
X66645995Y11230307D01*
X66873974Y11291394D01*
X67092030Y11381716D01*
X67296431Y11499727D01*
X67483680Y11643408D01*
X67650573Y11810301D01*
X67794254Y11997550D01*
X67912265Y12201951D01*
X67966134Y12332001D01*
X70548545Y12332001D01*
X70548545Y12332000D01*
X71446169Y12332000D01*
X71413256Y12274993D01*
X71379181Y12147826D01*
X71379181Y12016174D01*
X71413256Y11889007D01*
X71446169Y11832000D01*
X70548545Y11832000D01*
X70605748Y11618514D01*
X70605751Y11618508D01*
X70705580Y11404422D01*
X70841075Y11210918D01*
X71008098Y11043895D01*
X71201602Y10908400D01*
X71415688Y10808571D01*
X71415697Y10808567D01*
X71629181Y10751366D01*
X71629181Y11648988D01*
X71686188Y11616075D01*
X71813355Y11582000D01*
X71945007Y11582000D01*
X72072174Y11616075D01*
X72129181Y11648988D01*
X72129181Y10751367D01*
X72342664Y10808567D01*
X72342673Y10808571D01*
X72556759Y10908400D01*
X72750263Y11043895D01*
X72917286Y11210918D01*
X73047606Y11397032D01*
X73102183Y11440656D01*
X73171682Y11447849D01*
X73234036Y11416327D01*
X73250756Y11397032D01*
X73381075Y11210918D01*
X73548098Y11043895D01*
X73741602Y10908400D01*
X73955688Y10808571D01*
X73955697Y10808567D01*
X74169181Y10751366D01*
X74169181Y11648988D01*
X74226188Y11616075D01*
X74353355Y11582000D01*
X74485007Y11582000D01*
X74612174Y11616075D01*
X74669181Y11648988D01*
X74669181Y10751367D01*
X74882664Y10808567D01*
X74882673Y10808571D01*
X75096759Y10908400D01*
X75290263Y11043895D01*
X75457286Y11210918D01*
X75587606Y11397032D01*
X75642183Y11440656D01*
X75711682Y11447849D01*
X75774036Y11416327D01*
X75790756Y11397032D01*
X75921075Y11210918D01*
X76088098Y11043895D01*
X76281602Y10908400D01*
X76495688Y10808571D01*
X76495697Y10808567D01*
X76709181Y10751366D01*
X76709181Y11648988D01*
X76766188Y11616075D01*
X76893355Y11582000D01*
X77025007Y11582000D01*
X77152174Y11616075D01*
X77209181Y11648988D01*
X77209181Y10751367D01*
X77422664Y10808567D01*
X77422673Y10808571D01*
X77636759Y10908400D01*
X77830263Y11043895D01*
X77997286Y11210918D01*
X78127606Y11397032D01*
X78182183Y11440656D01*
X78251682Y11447849D01*
X78314036Y11416327D01*
X78330756Y11397032D01*
X78461075Y11210918D01*
X78628098Y11043895D01*
X78821602Y10908400D01*
X79035688Y10808571D01*
X79035697Y10808567D01*
X79249181Y10751366D01*
X79249181Y11648988D01*
X79306188Y11616075D01*
X79433355Y11582000D01*
X79565007Y11582000D01*
X79692174Y11616075D01*
X79749181Y11648988D01*
X79749181Y10751367D01*
X79962664Y10808567D01*
X79962673Y10808571D01*
X80176759Y10908400D01*
X80370263Y11043895D01*
X80537286Y11210918D01*
X80667606Y11397032D01*
X80722183Y11440656D01*
X80791682Y11447849D01*
X80854036Y11416327D01*
X80870756Y11397032D01*
X81001075Y11210918D01*
X81168098Y11043895D01*
X81361602Y10908400D01*
X81575688Y10808571D01*
X81575697Y10808567D01*
X81789181Y10751366D01*
X81789181Y11648988D01*
X81846188Y11616075D01*
X81973355Y11582000D01*
X82105007Y11582000D01*
X82232174Y11616075D01*
X82289181Y11648988D01*
X82289181Y10751367D01*
X82502664Y10808567D01*
X82502673Y10808571D01*
X82716759Y10908400D01*
X82910263Y11043895D01*
X83077286Y11210918D01*
X83207606Y11397032D01*
X83262183Y11440656D01*
X83331682Y11447849D01*
X83394036Y11416327D01*
X83410756Y11397032D01*
X83541075Y11210918D01*
X83708098Y11043895D01*
X83901602Y10908400D01*
X84115688Y10808571D01*
X84115697Y10808567D01*
X84329181Y10751366D01*
X84329181Y11648988D01*
X84386188Y11616075D01*
X84513355Y11582000D01*
X84645007Y11582000D01*
X84772174Y11616075D01*
X84829181Y11648988D01*
X84829181Y10751367D01*
X85042664Y10808567D01*
X85042673Y10808571D01*
X85256759Y10908400D01*
X85450263Y11043895D01*
X85617286Y11210918D01*
X85747606Y11397032D01*
X85802183Y11440656D01*
X85871682Y11447849D01*
X85934036Y11416327D01*
X85950756Y11397032D01*
X86081075Y11210918D01*
X86248098Y11043895D01*
X86441602Y10908400D01*
X86655688Y10808571D01*
X86655697Y10808567D01*
X86869181Y10751366D01*
X86869181Y11648988D01*
X86926188Y11616075D01*
X87053355Y11582000D01*
X87185007Y11582000D01*
X87312174Y11616075D01*
X87369181Y11648988D01*
X87369181Y10751367D01*
X87582664Y10808567D01*
X87582673Y10808571D01*
X87796759Y10908400D01*
X87990263Y11043895D01*
X88157286Y11210918D01*
X88287606Y11397032D01*
X88342183Y11440656D01*
X88411682Y11447849D01*
X88474036Y11416327D01*
X88490756Y11397032D01*
X88621075Y11210918D01*
X88788098Y11043895D01*
X88981602Y10908400D01*
X89195688Y10808571D01*
X89195697Y10808567D01*
X89409181Y10751366D01*
X89409181Y11648988D01*
X89466188Y11616075D01*
X89593355Y11582000D01*
X89725007Y11582000D01*
X89852174Y11616075D01*
X89909181Y11648988D01*
X89909181Y10751367D01*
X90122664Y10808567D01*
X90122673Y10808571D01*
X90336759Y10908400D01*
X90530263Y11043895D01*
X90697286Y11210918D01*
X90827606Y11397032D01*
X90882183Y11440656D01*
X90951682Y11447849D01*
X91014036Y11416327D01*
X91030756Y11397032D01*
X91161075Y11210918D01*
X91328098Y11043895D01*
X91521602Y10908400D01*
X91735688Y10808571D01*
X91735697Y10808567D01*
X91949181Y10751366D01*
X91949181Y11648988D01*
X92006188Y11616075D01*
X92133355Y11582000D01*
X92265007Y11582000D01*
X92392174Y11616075D01*
X92449181Y11648988D01*
X92449181Y10751367D01*
X92662664Y10808567D01*
X92662673Y10808571D01*
X92876759Y10908400D01*
X93070263Y11043895D01*
X93237286Y11210918D01*
X93367606Y11397032D01*
X93422183Y11440656D01*
X93491682Y11447849D01*
X93554036Y11416327D01*
X93570756Y11397032D01*
X93701075Y11210918D01*
X93868098Y11043895D01*
X94061602Y10908400D01*
X94275688Y10808571D01*
X94275697Y10808567D01*
X94489181Y10751366D01*
X94489181Y11648988D01*
X94546188Y11616075D01*
X94673355Y11582000D01*
X94805007Y11582000D01*
X94932174Y11616075D01*
X94989181Y11648988D01*
X94989181Y10751367D01*
X95202664Y10808567D01*
X95202673Y10808571D01*
X95416759Y10908400D01*
X95610263Y11043895D01*
X95777286Y11210918D01*
X95912781Y11404422D01*
X96012610Y11618508D01*
X96012613Y11618514D01*
X96069817Y11832000D01*
X95172193Y11832000D01*
X95205106Y11889007D01*
X95239181Y12016174D01*
X95239181Y12147826D01*
X95205106Y12274993D01*
X95172193Y12332000D01*
X96069817Y12332000D01*
X96069816Y12332001D01*
X96012613Y12545487D01*
X96012610Y12545493D01*
X95912781Y12759578D01*
X95912780Y12759580D01*
X95777294Y12953074D01*
X95777289Y12953080D01*
X95612364Y13118005D01*
X98493481Y13118005D01*
X98493481Y12881996D01*
X98493482Y12881980D01*
X98524287Y12647990D01*
X98585375Y12420007D01*
X98675695Y12201955D01*
X98675700Y12201944D01*
X98701328Y12157556D01*
X98793708Y11997550D01*
X98793710Y11997547D01*
X98793711Y11997546D01*
X98937387Y11810303D01*
X98937393Y11810296D01*
X99104276Y11643413D01*
X99104283Y11643407D01*
X99214287Y11558999D01*
X99291531Y11499727D01*
X99393845Y11440656D01*
X99495924Y11381720D01*
X99495929Y11381718D01*
X99495932Y11381716D01*
X99713988Y11291394D01*
X99941967Y11230307D01*
X100175970Y11199500D01*
X100175977Y11199500D01*
X100411985Y11199500D01*
X100411992Y11199500D01*
X100645995Y11230307D01*
X100873974Y11291394D01*
X101092030Y11381716D01*
X101296431Y11499727D01*
X101483680Y11643408D01*
X101650573Y11810301D01*
X101794254Y11997550D01*
X101912265Y12201951D01*
X102002587Y12420007D01*
X102063674Y12647986D01*
X102094481Y12881989D01*
X102094481Y13118011D01*
X102063674Y13352014D01*
X102002587Y13579993D01*
X101912265Y13798049D01*
X101912263Y13798052D01*
X101912261Y13798057D01*
X101867497Y13875590D01*
X101794254Y14002450D01*
X101650573Y14189699D01*
X101650568Y14189705D01*
X101483685Y14356588D01*
X101483678Y14356594D01*
X101296435Y14500270D01*
X101296434Y14500271D01*
X101296431Y14500273D01*
X101214938Y14547323D01*
X101092037Y14618281D01*
X101092026Y14618286D01*
X100873974Y14708606D01*
X100645991Y14769694D01*
X100412001Y14800499D01*
X100411998Y14800500D01*
X100411992Y14800500D01*
X100175970Y14800500D01*
X100175964Y14800500D01*
X100175960Y14800499D01*
X99941970Y14769694D01*
X99713987Y14708606D01*
X99495935Y14618286D01*
X99495924Y14618281D01*
X99291526Y14500270D01*
X99104283Y14356594D01*
X99104276Y14356588D01*
X98937393Y14189705D01*
X98937387Y14189698D01*
X98793711Y14002455D01*
X98675700Y13798057D01*
X98675695Y13798046D01*
X98585375Y13579994D01*
X98524287Y13352011D01*
X98493482Y13118021D01*
X98493481Y13118005D01*
X95612364Y13118005D01*
X95610263Y13120106D01*
X95416759Y13255601D01*
X95246233Y13335118D01*
X95193794Y13381290D01*
X95174642Y13448484D01*
X95194858Y13515365D01*
X95248023Y13560700D01*
X95298638Y13571500D01*
X95608931Y13571500D01*
X95608932Y13571501D01*
X95623749Y13574448D01*
X95667410Y13583132D01*
X95667410Y13583133D01*
X95667412Y13583133D01*
X95733733Y13627448D01*
X95778048Y13693769D01*
X95778048Y13693771D01*
X95778049Y13693771D01*
X95789680Y13752248D01*
X95789681Y13752250D01*
X95789681Y15491751D01*
X95789680Y15491753D01*
X95778049Y15550230D01*
X95778048Y15550231D01*
X95733733Y15616553D01*
X95667411Y15660868D01*
X95667410Y15660869D01*
X95608933Y15672500D01*
X95608929Y15672500D01*
X93869433Y15672500D01*
X93869428Y15672500D01*
X93810951Y15660869D01*
X93810950Y15660868D01*
X93744628Y15616553D01*
X93700313Y15550231D01*
X93700312Y15550230D01*
X93688681Y15491753D01*
X93688681Y13752248D01*
X93700312Y13693771D01*
X93700313Y13693770D01*
X93744628Y13627448D01*
X93810950Y13583133D01*
X93810951Y13583132D01*
X93869428Y13571501D01*
X93869431Y13571500D01*
X94179724Y13571500D01*
X94246763Y13551815D01*
X94292518Y13499011D01*
X94302462Y13429853D01*
X94273437Y13366297D01*
X94232129Y13335118D01*
X94061603Y13255601D01*
X94061601Y13255600D01*
X93868107Y13120114D01*
X93868101Y13120109D01*
X93701072Y12953080D01*
X93701071Y12953078D01*
X93570756Y12766969D01*
X93516179Y12723345D01*
X93446680Y12716152D01*
X93384326Y12747674D01*
X93367606Y12766969D01*
X93237290Y12953078D01*
X93237289Y12953080D01*
X93070263Y13120106D01*
X92876759Y13255601D01*
X92662673Y13355430D01*
X92662667Y13355433D01*
X92540530Y13388159D01*
X92480870Y13424524D01*
X92450341Y13487371D01*
X92458636Y13556747D01*
X92503121Y13610625D01*
X92536625Y13626593D01*
X92603135Y13646768D01*
X92785631Y13744315D01*
X92945591Y13875590D01*
X93076866Y14035550D01*
X93174413Y14218046D01*
X93234481Y14416066D01*
X93254764Y14622000D01*
X93234481Y14827934D01*
X93174413Y15025954D01*
X93076866Y15208450D01*
X93024883Y15271791D01*
X92945591Y15368411D01*
X92795302Y15491748D01*
X92785631Y15499685D01*
X92603135Y15597232D01*
X92405115Y15657300D01*
X92405113Y15657301D01*
X92405115Y15657301D01*
X92199181Y15677583D01*
X91993248Y15657301D01*
X91795224Y15597231D01*
X91707295Y15550231D01*
X91612731Y15499685D01*
X91612729Y15499684D01*
X91612728Y15499683D01*
X91452770Y15368411D01*
X91321498Y15208453D01*
X91223950Y15025957D01*
X91163880Y14827933D01*
X91143598Y14622000D01*
X91163880Y14416068D01*
X91163881Y14416066D01*
X91223949Y14218046D01*
X91321496Y14035550D01*
X91321498Y14035548D01*
X91452770Y13875590D01*
X91547246Y13798057D01*
X91612731Y13744315D01*
X91795227Y13646768D01*
X91861732Y13626595D01*
X91920170Y13588298D01*
X91948627Y13524486D01*
X91938068Y13455419D01*
X91891844Y13403025D01*
X91857831Y13388159D01*
X91735695Y13355433D01*
X91735688Y13355430D01*
X91521603Y13255601D01*
X91521601Y13255600D01*
X91328107Y13120114D01*
X91328101Y13120109D01*
X91161072Y12953080D01*
X91161071Y12953078D01*
X91030756Y12766969D01*
X90976179Y12723345D01*
X90906680Y12716152D01*
X90844326Y12747674D01*
X90827606Y12766969D01*
X90697290Y12953078D01*
X90697289Y12953080D01*
X90530263Y13120106D01*
X90336759Y13255601D01*
X90122673Y13355430D01*
X90122667Y13355433D01*
X90000530Y13388159D01*
X89940870Y13424524D01*
X89910341Y13487371D01*
X89918636Y13556747D01*
X89963121Y13610625D01*
X89996625Y13626593D01*
X90063135Y13646768D01*
X90245631Y13744315D01*
X90405591Y13875590D01*
X90536866Y14035550D01*
X90634413Y14218046D01*
X90694481Y14416066D01*
X90714764Y14622000D01*
X90694481Y14827934D01*
X90634413Y15025954D01*
X90536866Y15208450D01*
X90484883Y15271791D01*
X90405591Y15368411D01*
X90255302Y15491748D01*
X90245631Y15499685D01*
X90063135Y15597232D01*
X89865115Y15657300D01*
X89865113Y15657301D01*
X89865115Y15657301D01*
X89659181Y15677583D01*
X89453248Y15657301D01*
X89255224Y15597231D01*
X89167295Y15550231D01*
X89072731Y15499685D01*
X89072729Y15499684D01*
X89072728Y15499683D01*
X88912770Y15368411D01*
X88781498Y15208453D01*
X88683950Y15025957D01*
X88623880Y14827933D01*
X88603598Y14622000D01*
X88623880Y14416068D01*
X88623881Y14416066D01*
X88683949Y14218046D01*
X88781496Y14035550D01*
X88781498Y14035548D01*
X88912770Y13875590D01*
X89007246Y13798057D01*
X89072731Y13744315D01*
X89255227Y13646768D01*
X89321732Y13626595D01*
X89380170Y13588298D01*
X89408627Y13524486D01*
X89398068Y13455419D01*
X89351844Y13403025D01*
X89317831Y13388159D01*
X89195695Y13355433D01*
X89195688Y13355430D01*
X88981603Y13255601D01*
X88981601Y13255600D01*
X88788107Y13120114D01*
X88788101Y13120109D01*
X88621072Y12953080D01*
X88621071Y12953078D01*
X88490756Y12766969D01*
X88436179Y12723345D01*
X88366680Y12716152D01*
X88304326Y12747674D01*
X88287606Y12766969D01*
X88157290Y12953078D01*
X88157289Y12953080D01*
X87990263Y13120106D01*
X87796759Y13255601D01*
X87582673Y13355430D01*
X87582667Y13355433D01*
X87460530Y13388159D01*
X87400870Y13424524D01*
X87370341Y13487371D01*
X87378636Y13556747D01*
X87423121Y13610625D01*
X87456625Y13626593D01*
X87523135Y13646768D01*
X87705631Y13744315D01*
X87865591Y13875590D01*
X87996866Y14035550D01*
X88094413Y14218046D01*
X88154481Y14416066D01*
X88174764Y14622000D01*
X88154481Y14827934D01*
X88094413Y15025954D01*
X87996866Y15208450D01*
X87944883Y15271791D01*
X87865591Y15368411D01*
X87715302Y15491748D01*
X87705631Y15499685D01*
X87523135Y15597232D01*
X87325115Y15657300D01*
X87325113Y15657301D01*
X87325115Y15657301D01*
X87119181Y15677583D01*
X86913248Y15657301D01*
X86715224Y15597231D01*
X86627295Y15550231D01*
X86532731Y15499685D01*
X86532729Y15499684D01*
X86532728Y15499683D01*
X86372770Y15368411D01*
X86241498Y15208453D01*
X86143950Y15025957D01*
X86083880Y14827933D01*
X86063598Y14622000D01*
X86083880Y14416068D01*
X86083881Y14416066D01*
X86143949Y14218046D01*
X86241496Y14035550D01*
X86241498Y14035548D01*
X86372770Y13875590D01*
X86467246Y13798057D01*
X86532731Y13744315D01*
X86715227Y13646768D01*
X86781732Y13626595D01*
X86840170Y13588298D01*
X86868627Y13524486D01*
X86858068Y13455419D01*
X86811844Y13403025D01*
X86777831Y13388159D01*
X86655695Y13355433D01*
X86655688Y13355430D01*
X86441603Y13255601D01*
X86441601Y13255600D01*
X86248107Y13120114D01*
X86248101Y13120109D01*
X86081072Y12953080D01*
X86081071Y12953078D01*
X85950756Y12766969D01*
X85896179Y12723345D01*
X85826680Y12716152D01*
X85764326Y12747674D01*
X85747606Y12766969D01*
X85617290Y12953078D01*
X85617289Y12953080D01*
X85450263Y13120106D01*
X85256759Y13255601D01*
X85042673Y13355430D01*
X85042667Y13355433D01*
X84920530Y13388159D01*
X84860870Y13424524D01*
X84830341Y13487371D01*
X84838636Y13556747D01*
X84883121Y13610625D01*
X84916625Y13626593D01*
X84983135Y13646768D01*
X85165631Y13744315D01*
X85325591Y13875590D01*
X85456866Y14035550D01*
X85554413Y14218046D01*
X85614481Y14416066D01*
X85634764Y14622000D01*
X85614481Y14827934D01*
X85554413Y15025954D01*
X85456866Y15208450D01*
X85404883Y15271791D01*
X85325591Y15368411D01*
X85175302Y15491748D01*
X85165631Y15499685D01*
X84983135Y15597232D01*
X84785115Y15657300D01*
X84785113Y15657301D01*
X84785115Y15657301D01*
X84579181Y15677583D01*
X84373248Y15657301D01*
X84175224Y15597231D01*
X84087295Y15550231D01*
X83992731Y15499685D01*
X83992729Y15499684D01*
X83992728Y15499683D01*
X83832770Y15368411D01*
X83701498Y15208453D01*
X83603950Y15025957D01*
X83543880Y14827933D01*
X83523598Y14622000D01*
X83543880Y14416068D01*
X83543881Y14416066D01*
X83603949Y14218046D01*
X83701496Y14035550D01*
X83701498Y14035548D01*
X83832770Y13875590D01*
X83927246Y13798057D01*
X83992731Y13744315D01*
X84175227Y13646768D01*
X84241732Y13626595D01*
X84300170Y13588298D01*
X84328627Y13524486D01*
X84318068Y13455419D01*
X84271844Y13403025D01*
X84237831Y13388159D01*
X84115695Y13355433D01*
X84115688Y13355430D01*
X83901603Y13255601D01*
X83901601Y13255600D01*
X83708107Y13120114D01*
X83708101Y13120109D01*
X83541072Y12953080D01*
X83541071Y12953078D01*
X83410756Y12766969D01*
X83356179Y12723345D01*
X83286680Y12716152D01*
X83224326Y12747674D01*
X83207606Y12766969D01*
X83077290Y12953078D01*
X83077289Y12953080D01*
X82910263Y13120106D01*
X82716759Y13255601D01*
X82502673Y13355430D01*
X82502667Y13355433D01*
X82380530Y13388159D01*
X82320870Y13424524D01*
X82290341Y13487371D01*
X82298636Y13556747D01*
X82343121Y13610625D01*
X82376625Y13626593D01*
X82443135Y13646768D01*
X82625631Y13744315D01*
X82785591Y13875590D01*
X82916866Y14035550D01*
X83014413Y14218046D01*
X83074481Y14416066D01*
X83094764Y14622000D01*
X83074481Y14827934D01*
X83014413Y15025954D01*
X82916866Y15208450D01*
X82864883Y15271791D01*
X82785591Y15368411D01*
X82635302Y15491748D01*
X82625631Y15499685D01*
X82443135Y15597232D01*
X82245115Y15657300D01*
X82245113Y15657301D01*
X82245115Y15657301D01*
X82039181Y15677583D01*
X81833248Y15657301D01*
X81635224Y15597231D01*
X81547295Y15550231D01*
X81452731Y15499685D01*
X81452729Y15499684D01*
X81452728Y15499683D01*
X81292770Y15368411D01*
X81161498Y15208453D01*
X81063950Y15025957D01*
X81003880Y14827933D01*
X80983598Y14622000D01*
X81003880Y14416068D01*
X81003881Y14416066D01*
X81063949Y14218046D01*
X81161496Y14035550D01*
X81161498Y14035548D01*
X81292770Y13875590D01*
X81387246Y13798057D01*
X81452731Y13744315D01*
X81635227Y13646768D01*
X81701732Y13626595D01*
X81760170Y13588298D01*
X81788627Y13524486D01*
X81778068Y13455419D01*
X81731844Y13403025D01*
X81697831Y13388159D01*
X81575695Y13355433D01*
X81575688Y13355430D01*
X81361603Y13255601D01*
X81361601Y13255600D01*
X81168107Y13120114D01*
X81168101Y13120109D01*
X81001072Y12953080D01*
X81001071Y12953078D01*
X80870756Y12766969D01*
X80816179Y12723345D01*
X80746680Y12716152D01*
X80684326Y12747674D01*
X80667606Y12766969D01*
X80537290Y12953078D01*
X80537289Y12953080D01*
X80370263Y13120106D01*
X80176759Y13255601D01*
X79962673Y13355430D01*
X79962667Y13355433D01*
X79840530Y13388159D01*
X79780870Y13424524D01*
X79750341Y13487371D01*
X79758636Y13556747D01*
X79803121Y13610625D01*
X79836625Y13626593D01*
X79903135Y13646768D01*
X80085631Y13744315D01*
X80245591Y13875590D01*
X80376866Y14035550D01*
X80474413Y14218046D01*
X80534481Y14416066D01*
X80554764Y14622000D01*
X80534481Y14827934D01*
X80474413Y15025954D01*
X80376866Y15208450D01*
X80324883Y15271791D01*
X80245591Y15368411D01*
X80095302Y15491748D01*
X80085631Y15499685D01*
X79903135Y15597232D01*
X79705115Y15657300D01*
X79705113Y15657301D01*
X79705115Y15657301D01*
X79499181Y15677583D01*
X79293248Y15657301D01*
X79095224Y15597231D01*
X79007295Y15550231D01*
X78912731Y15499685D01*
X78912729Y15499684D01*
X78912728Y15499683D01*
X78752770Y15368411D01*
X78621498Y15208453D01*
X78523950Y15025957D01*
X78463880Y14827933D01*
X78443598Y14622000D01*
X78463880Y14416068D01*
X78463881Y14416066D01*
X78523949Y14218046D01*
X78621496Y14035550D01*
X78621498Y14035548D01*
X78752770Y13875590D01*
X78847246Y13798057D01*
X78912731Y13744315D01*
X79095227Y13646768D01*
X79161732Y13626595D01*
X79220170Y13588298D01*
X79248627Y13524486D01*
X79238068Y13455419D01*
X79191844Y13403025D01*
X79157831Y13388159D01*
X79035695Y13355433D01*
X79035688Y13355430D01*
X78821603Y13255601D01*
X78821601Y13255600D01*
X78628107Y13120114D01*
X78628101Y13120109D01*
X78461072Y12953080D01*
X78461071Y12953078D01*
X78330756Y12766969D01*
X78276179Y12723345D01*
X78206680Y12716152D01*
X78144326Y12747674D01*
X78127606Y12766969D01*
X77997290Y12953078D01*
X77997289Y12953080D01*
X77830263Y13120106D01*
X77636759Y13255601D01*
X77422673Y13355430D01*
X77422667Y13355433D01*
X77300530Y13388159D01*
X77240870Y13424524D01*
X77210341Y13487371D01*
X77218636Y13556747D01*
X77263121Y13610625D01*
X77296625Y13626593D01*
X77363135Y13646768D01*
X77545631Y13744315D01*
X77705591Y13875590D01*
X77836866Y14035550D01*
X77934413Y14218046D01*
X77994481Y14416066D01*
X78014764Y14622000D01*
X77994481Y14827934D01*
X77934413Y15025954D01*
X77836866Y15208450D01*
X77784883Y15271791D01*
X77705591Y15368411D01*
X77555302Y15491748D01*
X77545631Y15499685D01*
X77363135Y15597232D01*
X77165115Y15657300D01*
X77165113Y15657301D01*
X77165115Y15657301D01*
X76959181Y15677583D01*
X76753248Y15657301D01*
X76555224Y15597231D01*
X76467295Y15550231D01*
X76372731Y15499685D01*
X76372729Y15499684D01*
X76372728Y15499683D01*
X76212770Y15368411D01*
X76081498Y15208453D01*
X75983950Y15025957D01*
X75923880Y14827933D01*
X75903598Y14622000D01*
X75923880Y14416068D01*
X75923881Y14416066D01*
X75983949Y14218046D01*
X76081496Y14035550D01*
X76081498Y14035548D01*
X76212770Y13875590D01*
X76307246Y13798057D01*
X76372731Y13744315D01*
X76555227Y13646768D01*
X76621732Y13626595D01*
X76680170Y13588298D01*
X76708627Y13524486D01*
X76698068Y13455419D01*
X76651844Y13403025D01*
X76617831Y13388159D01*
X76495695Y13355433D01*
X76495688Y13355430D01*
X76281603Y13255601D01*
X76281601Y13255600D01*
X76088107Y13120114D01*
X76088101Y13120109D01*
X75921072Y12953080D01*
X75921071Y12953078D01*
X75790756Y12766969D01*
X75736179Y12723345D01*
X75666680Y12716152D01*
X75604326Y12747674D01*
X75587606Y12766969D01*
X75457290Y12953078D01*
X75457289Y12953080D01*
X75290263Y13120106D01*
X75096759Y13255601D01*
X74882673Y13355430D01*
X74882667Y13355433D01*
X74760530Y13388159D01*
X74700870Y13424524D01*
X74670341Y13487371D01*
X74678636Y13556747D01*
X74723121Y13610625D01*
X74756625Y13626593D01*
X74823135Y13646768D01*
X75005631Y13744315D01*
X75165591Y13875590D01*
X75296866Y14035550D01*
X75394413Y14218046D01*
X75454481Y14416066D01*
X75474764Y14622000D01*
X75454481Y14827934D01*
X75394413Y15025954D01*
X75296866Y15208450D01*
X75244883Y15271791D01*
X75165591Y15368411D01*
X75015302Y15491748D01*
X75005631Y15499685D01*
X74823135Y15597232D01*
X74625115Y15657300D01*
X74625113Y15657301D01*
X74625115Y15657301D01*
X74419181Y15677583D01*
X74213248Y15657301D01*
X74015224Y15597231D01*
X73927295Y15550231D01*
X73832731Y15499685D01*
X73832729Y15499684D01*
X73832728Y15499683D01*
X73672770Y15368411D01*
X73541498Y15208453D01*
X73443950Y15025957D01*
X73383880Y14827933D01*
X73363598Y14622000D01*
X73383880Y14416068D01*
X73383881Y14416066D01*
X73443949Y14218046D01*
X73541496Y14035550D01*
X73541498Y14035548D01*
X73672770Y13875590D01*
X73767246Y13798057D01*
X73832731Y13744315D01*
X74015227Y13646768D01*
X74081732Y13626595D01*
X74140170Y13588298D01*
X74168627Y13524486D01*
X74158068Y13455419D01*
X74111844Y13403025D01*
X74077831Y13388159D01*
X73955695Y13355433D01*
X73955688Y13355430D01*
X73741603Y13255601D01*
X73741601Y13255600D01*
X73548107Y13120114D01*
X73548101Y13120109D01*
X73381072Y12953080D01*
X73381071Y12953078D01*
X73250756Y12766969D01*
X73196179Y12723345D01*
X73126680Y12716152D01*
X73064326Y12747674D01*
X73047606Y12766969D01*
X72917290Y12953078D01*
X72917289Y12953080D01*
X72750263Y13120106D01*
X72556759Y13255601D01*
X72342673Y13355430D01*
X72342667Y13355433D01*
X72220530Y13388159D01*
X72160870Y13424524D01*
X72130341Y13487371D01*
X72138636Y13556747D01*
X72183121Y13610625D01*
X72216625Y13626593D01*
X72283135Y13646768D01*
X72465631Y13744315D01*
X72625591Y13875590D01*
X72756866Y14035550D01*
X72854413Y14218046D01*
X72914481Y14416066D01*
X72934764Y14622000D01*
X72914481Y14827934D01*
X72854413Y15025954D01*
X72756866Y15208450D01*
X72704883Y15271791D01*
X72625591Y15368411D01*
X72475302Y15491748D01*
X72465631Y15499685D01*
X72283135Y15597232D01*
X72085115Y15657300D01*
X72085113Y15657301D01*
X72085115Y15657301D01*
X71879181Y15677583D01*
X71673248Y15657301D01*
X71475224Y15597231D01*
X71387295Y15550231D01*
X71292731Y15499685D01*
X71292729Y15499684D01*
X71292728Y15499683D01*
X71132770Y15368411D01*
X71001498Y15208453D01*
X70903950Y15025957D01*
X70843880Y14827933D01*
X70823598Y14622000D01*
X70843880Y14416068D01*
X70843881Y14416066D01*
X70903949Y14218046D01*
X71001496Y14035550D01*
X71001498Y14035548D01*
X71132770Y13875590D01*
X71227246Y13798057D01*
X71292731Y13744315D01*
X71475227Y13646768D01*
X71541732Y13626595D01*
X71600170Y13588298D01*
X71628627Y13524486D01*
X71618068Y13455419D01*
X71571844Y13403025D01*
X71537831Y13388159D01*
X71415695Y13355433D01*
X71415688Y13355430D01*
X71201603Y13255601D01*
X71201601Y13255600D01*
X71008107Y13120114D01*
X71008101Y13120109D01*
X70841072Y12953080D01*
X70841067Y12953074D01*
X70705581Y12759580D01*
X70705580Y12759578D01*
X70605751Y12545493D01*
X70605748Y12545487D01*
X70548545Y12332001D01*
X67966134Y12332001D01*
X68002587Y12420007D01*
X68063674Y12647986D01*
X68094481Y12881989D01*
X68094481Y13118011D01*
X68063674Y13352014D01*
X68002587Y13579993D01*
X67912265Y13798049D01*
X67912263Y13798052D01*
X67912261Y13798057D01*
X67867497Y13875590D01*
X67794254Y14002450D01*
X67650573Y14189699D01*
X67650568Y14189705D01*
X67483685Y14356588D01*
X67483678Y14356594D01*
X67296435Y14500270D01*
X67296434Y14500271D01*
X67296431Y14500273D01*
X67214938Y14547323D01*
X67092037Y14618281D01*
X67092026Y14618286D01*
X66873974Y14708606D01*
X66645991Y14769694D01*
X66412001Y14800499D01*
X66411998Y14800500D01*
X66411992Y14800500D01*
X66175970Y14800500D01*
X66175964Y14800500D01*
X66175960Y14800499D01*
X65941970Y14769694D01*
X65713987Y14708606D01*
X65495935Y14618286D01*
X65495924Y14618281D01*
X65291526Y14500270D01*
X65104283Y14356594D01*
X65104276Y14356588D01*
X64937393Y14189705D01*
X64937387Y14189698D01*
X64793711Y14002455D01*
X64675700Y13798057D01*
X64675695Y13798046D01*
X64585375Y13579994D01*
X64524287Y13352011D01*
X64493482Y13118021D01*
X64493481Y13118005D01*
X63544481Y13118005D01*
X63544481Y20668000D01*
X73278391Y20668000D01*
X73297849Y20532663D01*
X73297851Y20532655D01*
X73354648Y20408286D01*
X73354653Y20408279D01*
X73444190Y20304947D01*
X73444194Y20304943D01*
X73504760Y20266021D01*
X73559220Y20231022D01*
X73624817Y20211761D01*
X73690413Y20192500D01*
X73690414Y20192500D01*
X73827148Y20192500D01*
X73958342Y20231022D01*
X74073370Y20304945D01*
X74162911Y20408282D01*
X74219712Y20532658D01*
X74239171Y20668000D01*
X74219712Y20803342D01*
X74207458Y20830173D01*
X74162913Y20927715D01*
X74162908Y20927722D01*
X74073371Y21031054D01*
X74073367Y21031058D01*
X73958340Y21104979D01*
X73827149Y21143500D01*
X73827148Y21143500D01*
X73690414Y21143500D01*
X73690413Y21143500D01*
X73559221Y21104979D01*
X73444194Y21031058D01*
X73444190Y21031054D01*
X73354653Y20927722D01*
X73354648Y20927715D01*
X73297851Y20803346D01*
X73297849Y20803338D01*
X73278391Y20668000D01*
X63544481Y20668000D01*
X63544481Y21988800D01*
X73278391Y21988800D01*
X73297849Y21853463D01*
X73297851Y21853455D01*
X73354648Y21729086D01*
X73354653Y21729079D01*
X73444190Y21625747D01*
X73444194Y21625743D01*
X73504760Y21586821D01*
X73559220Y21551822D01*
X73624817Y21532561D01*
X73690413Y21513300D01*
X73690414Y21513300D01*
X73827148Y21513300D01*
X73958342Y21551822D01*
X74073370Y21625745D01*
X74162911Y21729082D01*
X74219712Y21853458D01*
X74239171Y21988800D01*
X74219712Y22124142D01*
X74191335Y22186279D01*
X74162913Y22248515D01*
X74162908Y22248522D01*
X74073371Y22351854D01*
X74073367Y22351858D01*
X73958340Y22425779D01*
X73827149Y22464300D01*
X73827148Y22464300D01*
X73690414Y22464300D01*
X73690413Y22464300D01*
X73559221Y22425779D01*
X73444194Y22351858D01*
X73444190Y22351854D01*
X73354653Y22248522D01*
X73354648Y22248515D01*
X73297851Y22124146D01*
X73297849Y22124138D01*
X73278391Y21988800D01*
X63544481Y21988800D01*
X63544481Y22774473D01*
X84986064Y22774473D01*
X85005522Y22639136D01*
X85005524Y22639128D01*
X85062321Y22514759D01*
X85062326Y22514752D01*
X85151863Y22411420D01*
X85151867Y22411416D01*
X85205577Y22376900D01*
X85266893Y22337495D01*
X85332490Y22318234D01*
X85398086Y22298973D01*
X85398087Y22298973D01*
X85534821Y22298973D01*
X85666015Y22337495D01*
X85781043Y22411418D01*
X85870584Y22514755D01*
X85927385Y22639131D01*
X85946844Y22774473D01*
X85935640Y22852400D01*
X89737591Y22852400D01*
X89757049Y22717063D01*
X89757051Y22717055D01*
X89813848Y22592686D01*
X89813853Y22592679D01*
X89903390Y22489347D01*
X89903394Y22489343D01*
X89942363Y22464300D01*
X90018420Y22415422D01*
X90084017Y22396161D01*
X90149613Y22376900D01*
X90149614Y22376900D01*
X90286348Y22376900D01*
X90417542Y22415422D01*
X90465123Y22446000D01*
X96341591Y22446000D01*
X96361049Y22310663D01*
X96361051Y22310655D01*
X96417848Y22186286D01*
X96417853Y22186279D01*
X96507390Y22082947D01*
X96507394Y22082943D01*
X96567960Y22044021D01*
X96622420Y22009022D01*
X96688017Y21989761D01*
X96753613Y21970500D01*
X96753614Y21970500D01*
X96890348Y21970500D01*
X97021542Y22009022D01*
X97136570Y22082945D01*
X97226111Y22186282D01*
X97282912Y22310658D01*
X97302371Y22446000D01*
X97282912Y22581342D01*
X97270658Y22608173D01*
X97226113Y22705715D01*
X97226108Y22705722D01*
X97136571Y22809054D01*
X97136567Y22809058D01*
X97021540Y22882979D01*
X96890349Y22921500D01*
X96890348Y22921500D01*
X96753614Y22921500D01*
X96753613Y22921500D01*
X96622421Y22882979D01*
X96507394Y22809058D01*
X96507390Y22809054D01*
X96417853Y22705722D01*
X96417848Y22705715D01*
X96361051Y22581346D01*
X96361049Y22581338D01*
X96341591Y22446000D01*
X90465123Y22446000D01*
X90532570Y22489345D01*
X90622111Y22592682D01*
X90678912Y22717058D01*
X90698371Y22852400D01*
X90678912Y22987742D01*
X90657699Y23034191D01*
X90622113Y23112115D01*
X90622108Y23112122D01*
X90532571Y23215454D01*
X90532567Y23215458D01*
X90417540Y23289379D01*
X90286349Y23327900D01*
X90286348Y23327900D01*
X90149614Y23327900D01*
X90149613Y23327900D01*
X90018421Y23289379D01*
X89903394Y23215458D01*
X89903390Y23215454D01*
X89813853Y23112122D01*
X89813848Y23112115D01*
X89757051Y22987746D01*
X89757049Y22987738D01*
X89737591Y22852400D01*
X85935640Y22852400D01*
X85927385Y22909815D01*
X85891795Y22987746D01*
X85870586Y23034188D01*
X85870581Y23034195D01*
X85781044Y23137527D01*
X85781040Y23137531D01*
X85684370Y23199655D01*
X85666015Y23211451D01*
X85666014Y23211452D01*
X85666013Y23211452D01*
X85534822Y23249973D01*
X85534821Y23249973D01*
X85398087Y23249973D01*
X85398086Y23249973D01*
X85266894Y23211452D01*
X85151867Y23137531D01*
X85151863Y23137527D01*
X85062326Y23034195D01*
X85062321Y23034188D01*
X85005524Y22909819D01*
X85005522Y22909811D01*
X84986064Y22774473D01*
X63544481Y22774473D01*
X63544481Y23335000D01*
X76402591Y23335000D01*
X76422049Y23199663D01*
X76422051Y23199655D01*
X76478848Y23075286D01*
X76478853Y23075279D01*
X76568390Y22971947D01*
X76568394Y22971943D01*
X76611227Y22944417D01*
X76683420Y22898022D01*
X76734652Y22882979D01*
X76814613Y22859500D01*
X76814614Y22859500D01*
X76951348Y22859500D01*
X77082542Y22898022D01*
X77197570Y22971945D01*
X77287111Y23075282D01*
X77343912Y23199658D01*
X77352441Y23258978D01*
X79968592Y23258978D01*
X79988050Y23123641D01*
X79988052Y23123633D01*
X80044849Y22999264D01*
X80044854Y22999257D01*
X80134391Y22895925D01*
X80134395Y22895921D01*
X80181933Y22865371D01*
X80249421Y22822000D01*
X80293508Y22809055D01*
X80380614Y22783478D01*
X80380615Y22783478D01*
X80517349Y22783478D01*
X80648543Y22822000D01*
X80763571Y22895923D01*
X80853112Y22999260D01*
X80855549Y23004595D01*
X80887832Y23075286D01*
X80909913Y23123636D01*
X80929372Y23258978D01*
X80909913Y23394320D01*
X80875193Y23470346D01*
X80853114Y23518693D01*
X80853109Y23518700D01*
X80763572Y23622032D01*
X80763568Y23622036D01*
X80648541Y23695957D01*
X80517350Y23734478D01*
X80517349Y23734478D01*
X80380615Y23734478D01*
X80380614Y23734478D01*
X80249422Y23695957D01*
X80134395Y23622036D01*
X80134391Y23622032D01*
X80044854Y23518700D01*
X80044849Y23518693D01*
X79988052Y23394324D01*
X79988050Y23394316D01*
X79968592Y23258978D01*
X77352441Y23258978D01*
X77363371Y23335000D01*
X77343912Y23470342D01*
X77321829Y23518696D01*
X77287113Y23594715D01*
X77287108Y23594722D01*
X77197571Y23698054D01*
X77197567Y23698058D01*
X77099497Y23761082D01*
X77082542Y23771978D01*
X77082541Y23771979D01*
X77082540Y23771979D01*
X76951349Y23810500D01*
X76951348Y23810500D01*
X76814614Y23810500D01*
X76814613Y23810500D01*
X76683421Y23771979D01*
X76568394Y23698058D01*
X76568390Y23698054D01*
X76478853Y23594722D01*
X76478848Y23594715D01*
X76422051Y23470346D01*
X76422049Y23470338D01*
X76402591Y23335000D01*
X63544481Y23335000D01*
X63544481Y23899940D01*
X82275972Y23899940D01*
X82303080Y23822471D01*
X82392999Y23679365D01*
X82512508Y23559856D01*
X82655610Y23469938D01*
X82733083Y23442830D01*
X82733084Y23442830D01*
X83233084Y23442830D01*
X83310557Y23469938D01*
X83453659Y23559856D01*
X83573168Y23679365D01*
X83663087Y23822471D01*
X83690195Y23899940D01*
X83233084Y23899940D01*
X83233084Y23442830D01*
X82733084Y23442830D01*
X82733084Y23899940D01*
X82275972Y23899940D01*
X63544481Y23899940D01*
X63544481Y24020800D01*
X97648591Y24020800D01*
X97668049Y23885463D01*
X97668051Y23885455D01*
X97724848Y23761086D01*
X97724853Y23761079D01*
X97814390Y23657747D01*
X97814394Y23657743D01*
X97869957Y23622036D01*
X97929420Y23583822D01*
X97995017Y23564561D01*
X98060613Y23545300D01*
X98060614Y23545300D01*
X98197348Y23545300D01*
X98328542Y23583822D01*
X98443570Y23657745D01*
X98533111Y23761082D01*
X98589912Y23885458D01*
X98609371Y24020800D01*
X98589912Y24156142D01*
X98560408Y24220747D01*
X98533113Y24280515D01*
X98533108Y24280522D01*
X98443571Y24383854D01*
X98443567Y24383858D01*
X98328540Y24457779D01*
X98197349Y24496300D01*
X98197348Y24496300D01*
X98060614Y24496300D01*
X98060613Y24496300D01*
X97929421Y24457779D01*
X97814394Y24383858D01*
X97814390Y24383854D01*
X97724853Y24280522D01*
X97724848Y24280515D01*
X97668051Y24156146D01*
X97668049Y24156138D01*
X97648591Y24020800D01*
X63544481Y24020800D01*
X63544481Y24607047D01*
X81568865Y24607047D01*
X81595973Y24529578D01*
X81685892Y24386472D01*
X81805401Y24266963D01*
X81948503Y24177045D01*
X82025976Y24149937D01*
X82025977Y24149937D01*
X82025977Y24174804D01*
X82858084Y24174804D01*
X82858084Y24125076D01*
X82877114Y24079133D01*
X82912277Y24043970D01*
X82958220Y24024940D01*
X83007948Y24024940D01*
X83053891Y24043970D01*
X83089054Y24079133D01*
X83108084Y24125076D01*
X83108084Y24149937D01*
X83940191Y24149937D01*
X84017664Y24177045D01*
X84160766Y24266963D01*
X84280275Y24386472D01*
X84370194Y24529578D01*
X84397302Y24607047D01*
X83940191Y24607047D01*
X83940191Y24149937D01*
X83108084Y24149937D01*
X83108084Y24174804D01*
X83089054Y24220747D01*
X83053891Y24255910D01*
X83007948Y24274940D01*
X82958220Y24274940D01*
X82912277Y24255910D01*
X82877114Y24220747D01*
X82858084Y24174804D01*
X82025977Y24174804D01*
X82025977Y24399940D01*
X82525977Y24399940D01*
X82733084Y24399940D01*
X83233084Y24399940D01*
X83440191Y24399940D01*
X83440191Y24607047D01*
X83233084Y24607047D01*
X83233084Y24399940D01*
X82733084Y24399940D01*
X82733084Y24607047D01*
X82525977Y24607047D01*
X82525977Y24399940D01*
X82025977Y24399940D01*
X82025977Y24607047D01*
X81568865Y24607047D01*
X63544481Y24607047D01*
X63544481Y25314154D01*
X80861758Y25314154D01*
X80888866Y25236685D01*
X80978785Y25093579D01*
X81098294Y24974070D01*
X81241396Y24884152D01*
X81318869Y24857044D01*
X81318870Y24857044D01*
X81318870Y24881911D01*
X82150977Y24881911D01*
X82150977Y24832183D01*
X82170007Y24786240D01*
X82205170Y24751077D01*
X82251113Y24732047D01*
X82300841Y24732047D01*
X82346784Y24751077D01*
X82381947Y24786240D01*
X82400977Y24832183D01*
X82400977Y24881911D01*
X83565191Y24881911D01*
X83565191Y24832183D01*
X83584221Y24786240D01*
X83619384Y24751077D01*
X83665327Y24732047D01*
X83715055Y24732047D01*
X83760998Y24751077D01*
X83796161Y24786240D01*
X83815191Y24832183D01*
X83815191Y24857044D01*
X84647298Y24857044D01*
X84724771Y24884152D01*
X84867873Y24974070D01*
X84987382Y25093579D01*
X85077301Y25236685D01*
X85104409Y25314154D01*
X84647298Y25314154D01*
X84647298Y24857044D01*
X83815191Y24857044D01*
X83815191Y24881911D01*
X83796161Y24927854D01*
X83760998Y24963017D01*
X83715055Y24982047D01*
X83665327Y24982047D01*
X83619384Y24963017D01*
X83584221Y24927854D01*
X83565191Y24881911D01*
X82400977Y24881911D01*
X82381947Y24927854D01*
X82346784Y24963017D01*
X82300841Y24982047D01*
X82251113Y24982047D01*
X82205170Y24963017D01*
X82170007Y24927854D01*
X82150977Y24881911D01*
X81318870Y24881911D01*
X81318870Y25107047D01*
X81818870Y25107047D01*
X82025977Y25107047D01*
X82525977Y25107047D01*
X82733084Y25107047D01*
X83233084Y25107047D01*
X83440191Y25107047D01*
X83940191Y25107047D01*
X84147298Y25107047D01*
X84147298Y25314154D01*
X83940191Y25314154D01*
X83940191Y25107047D01*
X83440191Y25107047D01*
X83440191Y25314154D01*
X83233084Y25314154D01*
X83233084Y25107047D01*
X82733084Y25107047D01*
X82733084Y25314154D01*
X82525977Y25314154D01*
X82525977Y25107047D01*
X82025977Y25107047D01*
X82025977Y25314154D01*
X81818870Y25314154D01*
X81818870Y25107047D01*
X81318870Y25107047D01*
X81318870Y25314154D01*
X80861758Y25314154D01*
X63544481Y25314154D01*
X63544481Y25589018D01*
X81443870Y25589018D01*
X81443870Y25539290D01*
X81462900Y25493347D01*
X81498063Y25458184D01*
X81544006Y25439154D01*
X81593734Y25439154D01*
X81639677Y25458184D01*
X81674840Y25493347D01*
X81693870Y25539290D01*
X81693870Y25589018D01*
X82858084Y25589018D01*
X82858084Y25539290D01*
X82877114Y25493347D01*
X82912277Y25458184D01*
X82958220Y25439154D01*
X83007948Y25439154D01*
X83053891Y25458184D01*
X83089054Y25493347D01*
X83108084Y25539290D01*
X83108084Y25589018D01*
X84272298Y25589018D01*
X84272298Y25539290D01*
X84291328Y25493347D01*
X84326491Y25458184D01*
X84372434Y25439154D01*
X84422162Y25439154D01*
X84468105Y25458184D01*
X84503268Y25493347D01*
X84522298Y25539290D01*
X84522298Y25589018D01*
X84503268Y25634961D01*
X84468105Y25670124D01*
X84422162Y25689154D01*
X84372434Y25689154D01*
X84326491Y25670124D01*
X84291328Y25634961D01*
X84272298Y25589018D01*
X83108084Y25589018D01*
X83089054Y25634961D01*
X83053891Y25670124D01*
X83007948Y25689154D01*
X82958220Y25689154D01*
X82912277Y25670124D01*
X82877114Y25634961D01*
X82858084Y25589018D01*
X81693870Y25589018D01*
X81674840Y25634961D01*
X81639677Y25670124D01*
X81593734Y25689154D01*
X81544006Y25689154D01*
X81498063Y25670124D01*
X81462900Y25634961D01*
X81443870Y25589018D01*
X63544481Y25589018D01*
X63544481Y25814155D01*
X80861758Y25814155D01*
X80861758Y25814154D01*
X81318870Y25814154D01*
X81818870Y25814154D01*
X82025977Y25814154D01*
X82525977Y25814154D01*
X82733084Y25814154D01*
X83233084Y25814154D01*
X83440191Y25814154D01*
X83940191Y25814154D01*
X84147298Y25814154D01*
X84647298Y25814154D01*
X85104410Y25814154D01*
X85104409Y25814155D01*
X85077301Y25891624D01*
X84987382Y26034730D01*
X84867873Y26154239D01*
X84724767Y26244158D01*
X84647298Y26271266D01*
X84647298Y25814154D01*
X84147298Y25814154D01*
X84147298Y26021261D01*
X83940191Y26021261D01*
X83940191Y25814154D01*
X83440191Y25814154D01*
X83440191Y26021261D01*
X83233084Y26021261D01*
X83233084Y25814154D01*
X82733084Y25814154D01*
X82733084Y26021261D01*
X82525977Y26021261D01*
X82525977Y25814154D01*
X82025977Y25814154D01*
X82025977Y26021261D01*
X81818870Y26021261D01*
X81818870Y25814154D01*
X81318870Y25814154D01*
X81318870Y26271266D01*
X81318869Y26271266D01*
X81241400Y26244158D01*
X81098294Y26154239D01*
X80978785Y26034730D01*
X80888866Y25891624D01*
X80861758Y25814155D01*
X63544481Y25814155D01*
X63544481Y26296125D01*
X82150977Y26296125D01*
X82150977Y26246397D01*
X82170007Y26200454D01*
X82205170Y26165291D01*
X82251113Y26146261D01*
X82300841Y26146261D01*
X82346784Y26165291D01*
X82381947Y26200454D01*
X82400977Y26246397D01*
X82400977Y26296125D01*
X83565191Y26296125D01*
X83565191Y26246397D01*
X83584221Y26200454D01*
X83619384Y26165291D01*
X83665327Y26146261D01*
X83715055Y26146261D01*
X83760998Y26165291D01*
X83796161Y26200454D01*
X83815191Y26246397D01*
X83815191Y26296125D01*
X83796161Y26342068D01*
X83760998Y26377231D01*
X83715055Y26396261D01*
X83665327Y26396261D01*
X83619384Y26377231D01*
X83584221Y26342068D01*
X83565191Y26296125D01*
X82400977Y26296125D01*
X82381947Y26342068D01*
X82346784Y26377231D01*
X82300841Y26396261D01*
X82251113Y26396261D01*
X82205170Y26377231D01*
X82170007Y26342068D01*
X82150977Y26296125D01*
X63544481Y26296125D01*
X63544481Y26521262D01*
X81568865Y26521262D01*
X81568865Y26521261D01*
X82025977Y26521261D01*
X82525977Y26521261D01*
X82733084Y26521261D01*
X83233084Y26521261D01*
X83440191Y26521261D01*
X83940191Y26521261D01*
X84397303Y26521261D01*
X84397302Y26521262D01*
X84370194Y26598731D01*
X84280275Y26741837D01*
X84160766Y26861346D01*
X84017660Y26951265D01*
X83940191Y26978373D01*
X83940191Y26521261D01*
X83440191Y26521261D01*
X83440191Y26728368D01*
X83233084Y26728368D01*
X83233084Y26521261D01*
X82733084Y26521261D01*
X82733084Y26728368D01*
X82525977Y26728368D01*
X82525977Y26521261D01*
X82025977Y26521261D01*
X82025977Y26978373D01*
X82025976Y26978373D01*
X81948507Y26951265D01*
X81805401Y26861346D01*
X81685892Y26741837D01*
X81595973Y26598731D01*
X81568865Y26521262D01*
X63544481Y26521262D01*
X63544481Y27003232D01*
X82858084Y27003232D01*
X82858084Y26953504D01*
X82877114Y26907561D01*
X82912277Y26872398D01*
X82958220Y26853368D01*
X83007948Y26853368D01*
X83053891Y26872398D01*
X83089054Y26907561D01*
X83108084Y26953504D01*
X83108084Y27003232D01*
X83089054Y27049175D01*
X83053891Y27084338D01*
X83007948Y27103368D01*
X82958220Y27103368D01*
X82912277Y27084338D01*
X82877114Y27049175D01*
X82858084Y27003232D01*
X63544481Y27003232D01*
X63544481Y27228369D01*
X82275972Y27228369D01*
X82275972Y27228368D01*
X82733084Y27228368D01*
X83233084Y27228368D01*
X83690196Y27228368D01*
X83690195Y27228369D01*
X83663087Y27305838D01*
X83573168Y27448944D01*
X83453659Y27568453D01*
X83310553Y27658372D01*
X83233084Y27685480D01*
X83233084Y27228368D01*
X82733084Y27228368D01*
X82733084Y27685480D01*
X82733083Y27685480D01*
X82655614Y27658372D01*
X82512508Y27568453D01*
X82392999Y27448944D01*
X82303080Y27305838D01*
X82275972Y27228369D01*
X63544481Y27228369D01*
X63544481Y28414813D01*
X75691578Y28414813D01*
X75711036Y28279476D01*
X75711038Y28279468D01*
X75767835Y28155099D01*
X75767840Y28155092D01*
X75857377Y28051760D01*
X75857381Y28051756D01*
X75917947Y28012834D01*
X75972407Y27977835D01*
X76038004Y27958574D01*
X76103600Y27939313D01*
X76103601Y27939313D01*
X76240335Y27939313D01*
X76371529Y27977835D01*
X76486557Y28051758D01*
X76576098Y28155095D01*
X76584704Y28173939D01*
X80352530Y28173939D01*
X80371988Y28038602D01*
X80371990Y28038594D01*
X80428787Y27914225D01*
X80428792Y27914218D01*
X80518329Y27810886D01*
X80518333Y27810882D01*
X80578899Y27771960D01*
X80633359Y27736961D01*
X80698956Y27717700D01*
X80764552Y27698439D01*
X80764553Y27698439D01*
X80901287Y27698439D01*
X81032481Y27736961D01*
X81147509Y27810884D01*
X81237050Y27914221D01*
X81293851Y28038597D01*
X81295300Y28048679D01*
X81324320Y28112232D01*
X81383096Y28150010D01*
X81452966Y28150014D01*
X81469556Y28143826D01*
X81471508Y28142934D01*
X81602700Y28104413D01*
X81602701Y28104413D01*
X81739435Y28104413D01*
X81870629Y28142935D01*
X81985657Y28216858D01*
X82075198Y28320195D01*
X82131999Y28444571D01*
X82134217Y28460000D01*
X100635398Y28460000D01*
X100655680Y28254068D01*
X100655681Y28254066D01*
X100715749Y28056046D01*
X100813296Y27873550D01*
X100813298Y27873548D01*
X100944570Y27713590D01*
X101041190Y27634298D01*
X101104531Y27582315D01*
X101287027Y27484768D01*
X101485047Y27424700D01*
X101485046Y27424700D01*
X101503510Y27422882D01*
X101690981Y27404417D01*
X101896915Y27424700D01*
X102094935Y27484768D01*
X102277431Y27582315D01*
X102437391Y27713590D01*
X102568666Y27873550D01*
X102666213Y28056046D01*
X102726281Y28254066D01*
X102746564Y28460000D01*
X102726281Y28665934D01*
X102666213Y28863954D01*
X102568666Y29046450D01*
X102516683Y29109791D01*
X102437391Y29206411D01*
X102277433Y29337683D01*
X102277434Y29337683D01*
X102277431Y29337685D01*
X102094935Y29435232D01*
X101896915Y29495300D01*
X101896913Y29495301D01*
X101896915Y29495301D01*
X101690981Y29515583D01*
X101485048Y29495301D01*
X101287024Y29435231D01*
X101176879Y29376357D01*
X101104531Y29337685D01*
X101104529Y29337684D01*
X101104528Y29337683D01*
X100944570Y29206411D01*
X100813298Y29046453D01*
X100715750Y28863957D01*
X100655680Y28665933D01*
X100635398Y28460000D01*
X82134217Y28460000D01*
X82151458Y28579913D01*
X82131999Y28715255D01*
X82103405Y28777867D01*
X82075200Y28839628D01*
X82075195Y28839635D01*
X81985658Y28942967D01*
X81985654Y28942971D01*
X81870627Y29016892D01*
X81739436Y29055413D01*
X81739435Y29055413D01*
X81602701Y29055413D01*
X81602700Y29055413D01*
X81471508Y29016892D01*
X81356481Y28942971D01*
X81356477Y28942967D01*
X81266940Y28839635D01*
X81266935Y28839628D01*
X81210138Y28715259D01*
X81210136Y28715251D01*
X81208687Y28705171D01*
X81179662Y28641615D01*
X81120884Y28603841D01*
X81051014Y28603841D01*
X81034436Y28610024D01*
X81032477Y28610919D01*
X80901288Y28649439D01*
X80901287Y28649439D01*
X80764553Y28649439D01*
X80764552Y28649439D01*
X80633360Y28610918D01*
X80518333Y28536997D01*
X80518329Y28536993D01*
X80428792Y28433661D01*
X80428787Y28433654D01*
X80371990Y28309285D01*
X80371988Y28309277D01*
X80352530Y28173939D01*
X76584704Y28173939D01*
X76632899Y28279471D01*
X76652358Y28414813D01*
X76632899Y28550155D01*
X76605149Y28610919D01*
X76576100Y28674528D01*
X76576095Y28674535D01*
X76486558Y28777867D01*
X76486554Y28777871D01*
X76390455Y28839628D01*
X76371529Y28851791D01*
X76371528Y28851792D01*
X76371527Y28851792D01*
X76240336Y28890313D01*
X76240335Y28890313D01*
X76103601Y28890313D01*
X76103600Y28890313D01*
X75972408Y28851792D01*
X75857381Y28777871D01*
X75857377Y28777867D01*
X75767840Y28674535D01*
X75767835Y28674528D01*
X75711038Y28550159D01*
X75711036Y28550151D01*
X75691578Y28414813D01*
X63544481Y28414813D01*
X63544481Y31463000D01*
X96468591Y31463000D01*
X96488049Y31327663D01*
X96488051Y31327655D01*
X96544848Y31203286D01*
X96544853Y31203279D01*
X96634390Y31099947D01*
X96634394Y31099943D01*
X96716604Y31047112D01*
X96730053Y31038468D01*
X96749422Y31026021D01*
X96826844Y31003288D01*
X96885623Y30965514D01*
X96914648Y30901959D01*
X96904705Y30832802D01*
X96894638Y30810759D01*
X96894636Y30810751D01*
X96875178Y30675413D01*
X96894636Y30540076D01*
X96894638Y30540068D01*
X96951435Y30415699D01*
X96951440Y30415692D01*
X97040977Y30312360D01*
X97040981Y30312356D01*
X97101547Y30273434D01*
X97156007Y30238435D01*
X97221604Y30219174D01*
X97287200Y30199913D01*
X97287201Y30199913D01*
X97423935Y30199913D01*
X97555129Y30238435D01*
X97670157Y30312358D01*
X97759698Y30415695D01*
X97816499Y30540071D01*
X97835958Y30675413D01*
X97816499Y30810755D01*
X97804245Y30837586D01*
X97759700Y30935128D01*
X97759695Y30935135D01*
X97670158Y31038467D01*
X97670154Y31038471D01*
X97555127Y31112393D01*
X97477703Y31135126D01*
X97418925Y31172900D01*
X97389900Y31236456D01*
X97399843Y31305612D01*
X97409912Y31327658D01*
X97429371Y31463000D01*
X97409912Y31598342D01*
X97397658Y31625173D01*
X97353113Y31722715D01*
X97353108Y31722722D01*
X97263571Y31826054D01*
X97263567Y31826058D01*
X97195574Y31869753D01*
X100640481Y31869753D01*
X100640481Y30130248D01*
X100652112Y30071771D01*
X100652113Y30071770D01*
X100696428Y30005448D01*
X100762750Y29961133D01*
X100762751Y29961132D01*
X100821228Y29949501D01*
X100821231Y29949500D01*
X100821233Y29949500D01*
X102560731Y29949500D01*
X102560732Y29949501D01*
X102575549Y29952448D01*
X102619210Y29961132D01*
X102619210Y29961133D01*
X102619212Y29961133D01*
X102685533Y30005448D01*
X102729848Y30071769D01*
X102729848Y30071771D01*
X102729849Y30071771D01*
X102741480Y30130248D01*
X102741481Y30130250D01*
X102741481Y31869751D01*
X102741480Y31869753D01*
X102729849Y31928230D01*
X102729848Y31928231D01*
X102685533Y31994553D01*
X102619211Y32038868D01*
X102619210Y32038869D01*
X102560733Y32050500D01*
X102560729Y32050500D01*
X100821233Y32050500D01*
X100821228Y32050500D01*
X100762751Y32038869D01*
X100762750Y32038868D01*
X100696428Y31994553D01*
X100652113Y31928231D01*
X100652112Y31928230D01*
X100640481Y31869753D01*
X97195574Y31869753D01*
X97148540Y31899979D01*
X97017349Y31938500D01*
X97017348Y31938500D01*
X96880614Y31938500D01*
X96880613Y31938500D01*
X96749421Y31899979D01*
X96634394Y31826058D01*
X96634390Y31826054D01*
X96544853Y31722722D01*
X96544848Y31722715D01*
X96488051Y31598346D01*
X96488049Y31598338D01*
X96468591Y31463000D01*
X63544481Y31463000D01*
X63544481Y32809200D01*
X78967991Y32809200D01*
X78987449Y32673863D01*
X78987451Y32673855D01*
X79044248Y32549486D01*
X79044253Y32549479D01*
X79133790Y32446147D01*
X79133794Y32446143D01*
X79194360Y32407221D01*
X79248820Y32372222D01*
X79314417Y32352961D01*
X79380013Y32333700D01*
X79380014Y32333700D01*
X79516748Y32333700D01*
X79647942Y32372222D01*
X79762970Y32446145D01*
X79852511Y32549482D01*
X79909312Y32673858D01*
X79928771Y32809200D01*
X79909312Y32944542D01*
X79897058Y32971373D01*
X79852513Y33068915D01*
X79852508Y33068922D01*
X79762971Y33172254D01*
X79762967Y33172258D01*
X79647940Y33246179D01*
X79516749Y33284700D01*
X79516748Y33284700D01*
X79380014Y33284700D01*
X79380013Y33284700D01*
X79248821Y33246179D01*
X79133794Y33172258D01*
X79133790Y33172254D01*
X79044253Y33068922D01*
X79044248Y33068915D01*
X78987451Y32944546D01*
X78987449Y32944538D01*
X78967991Y32809200D01*
X63544481Y32809200D01*
X63544481Y36416000D01*
X90194791Y36416000D01*
X90214249Y36280663D01*
X90214251Y36280655D01*
X90271048Y36156286D01*
X90271053Y36156279D01*
X90360590Y36052947D01*
X90360594Y36052943D01*
X90421160Y36014021D01*
X90475620Y35979022D01*
X90541217Y35959761D01*
X90606813Y35940500D01*
X90606814Y35940500D01*
X90743548Y35940500D01*
X90874742Y35979022D01*
X90989770Y36052945D01*
X91079311Y36156282D01*
X91136112Y36280658D01*
X91155571Y36416000D01*
X91136112Y36551342D01*
X91123858Y36578173D01*
X91079313Y36675715D01*
X91079308Y36675722D01*
X90989771Y36779054D01*
X90989767Y36779058D01*
X90874740Y36852979D01*
X90743549Y36891500D01*
X90743548Y36891500D01*
X90606814Y36891500D01*
X90606813Y36891500D01*
X90475621Y36852979D01*
X90360594Y36779058D01*
X90360590Y36779054D01*
X90271053Y36675722D01*
X90271048Y36675715D01*
X90214251Y36551346D01*
X90214249Y36551338D01*
X90194791Y36416000D01*
X63544481Y36416000D01*
X63544481Y38500006D01*
X64288840Y38500006D01*
X64288840Y38499995D01*
X64309366Y38252271D01*
X64309368Y38252262D01*
X64370393Y38011283D01*
X64470247Y37783636D01*
X64570545Y37630118D01*
X65270193Y38329766D01*
X65281463Y38287708D01*
X65353871Y38162292D01*
X65456273Y38059890D01*
X65581689Y37987482D01*
X65623746Y37976213D01*
X64923923Y37276391D01*
X64970749Y37239945D01*
X64970751Y37239944D01*
X65189366Y37121636D01*
X65189377Y37121631D01*
X65424487Y37040917D01*
X65669688Y37000000D01*
X65918274Y37000000D01*
X66163474Y37040917D01*
X66398584Y37121631D01*
X66398595Y37121636D01*
X66617209Y37239943D01*
X66617212Y37239945D01*
X66664037Y37276391D01*
X65964215Y37976213D01*
X66006273Y37987482D01*
X66131689Y38059890D01*
X66234091Y38162292D01*
X66306499Y38287708D01*
X66317768Y38329765D01*
X67017415Y37630118D01*
X67117712Y37783631D01*
X67217568Y38011283D01*
X67278593Y38252262D01*
X67278595Y38252271D01*
X67299122Y38499995D01*
X67299122Y38500001D01*
X69088338Y38500001D01*
X69088338Y38500000D01*
X69108865Y38278465D01*
X69108866Y38278463D01*
X69169750Y38064477D01*
X69169756Y38064462D01*
X69268919Y37865317D01*
X69268924Y37865309D01*
X69403001Y37687762D01*
X69567418Y37537877D01*
X69567420Y37537875D01*
X69756576Y37420755D01*
X69756577Y37420755D01*
X69756580Y37420753D01*
X69964041Y37340382D01*
X70182738Y37299500D01*
X70182740Y37299500D01*
X70405222Y37299500D01*
X70405224Y37299500D01*
X70623921Y37340382D01*
X70831382Y37420753D01*
X71020543Y37537876D01*
X71174849Y37678545D01*
X71184960Y37687762D01*
X71319037Y37865309D01*
X71319039Y37865311D01*
X71406821Y38041600D01*
X77850391Y38041600D01*
X77869849Y37906263D01*
X77869851Y37906255D01*
X77926648Y37781886D01*
X77926653Y37781879D01*
X78016190Y37678547D01*
X78016194Y37678543D01*
X78076760Y37639621D01*
X78131220Y37604622D01*
X78196817Y37585361D01*
X78262413Y37566100D01*
X78262414Y37566100D01*
X78399148Y37566100D01*
X78530342Y37604622D01*
X78645370Y37678545D01*
X78734911Y37781882D01*
X78791712Y37906258D01*
X78811171Y38041600D01*
X78791712Y38176942D01*
X78779458Y38203773D01*
X78734913Y38301315D01*
X78734908Y38301322D01*
X78645371Y38404654D01*
X78645367Y38404658D01*
X78530340Y38478579D01*
X78399149Y38517100D01*
X78399148Y38517100D01*
X78262414Y38517100D01*
X78262413Y38517100D01*
X78131221Y38478579D01*
X78016194Y38404658D01*
X78016190Y38404654D01*
X77926653Y38301322D01*
X77926648Y38301315D01*
X77869851Y38176946D01*
X77869849Y38176938D01*
X77850391Y38041600D01*
X71406821Y38041600D01*
X71418210Y38064472D01*
X71479096Y38278464D01*
X71499624Y38500000D01*
X71499623Y38500006D01*
X71479096Y38721536D01*
X71479095Y38721538D01*
X71471640Y38747739D01*
X71418210Y38935528D01*
X71418205Y38935539D01*
X71319042Y39134684D01*
X71319037Y39134692D01*
X71184960Y39312239D01*
X71020543Y39462124D01*
X71020541Y39462126D01*
X70831385Y39579246D01*
X70831379Y39579248D01*
X70623921Y39659618D01*
X70405224Y39700500D01*
X70182738Y39700500D01*
X69964041Y39659618D01*
X69832845Y39608793D01*
X69756582Y39579248D01*
X69756576Y39579246D01*
X69567420Y39462126D01*
X69567418Y39462124D01*
X69403001Y39312239D01*
X69268924Y39134692D01*
X69268919Y39134684D01*
X69169756Y38935539D01*
X69169750Y38935524D01*
X69108866Y38721538D01*
X69108865Y38721536D01*
X69088338Y38500001D01*
X67299122Y38500001D01*
X67299122Y38500006D01*
X67278595Y38747730D01*
X67278593Y38747739D01*
X67217568Y38988718D01*
X67117712Y39216370D01*
X67017415Y39369884D01*
X66317768Y38670236D01*
X66306499Y38712292D01*
X66234091Y38837708D01*
X66131689Y38940110D01*
X66006273Y39012518D01*
X65964216Y39023788D01*
X66664038Y39723610D01*
X66664037Y39723611D01*
X66617210Y39760057D01*
X66398595Y39878365D01*
X66398584Y39878370D01*
X66163474Y39959084D01*
X65918274Y40000000D01*
X65669688Y40000000D01*
X65424487Y39959084D01*
X65189377Y39878370D01*
X65189371Y39878368D01*
X64970742Y39760051D01*
X64923923Y39723612D01*
X64923923Y39723610D01*
X65623746Y39023788D01*
X65581689Y39012518D01*
X65456273Y38940110D01*
X65353871Y38837708D01*
X65281463Y38712292D01*
X65270193Y38670236D01*
X64570545Y39369884D01*
X64470248Y39216368D01*
X64370393Y38988718D01*
X64309368Y38747739D01*
X64309366Y38747730D01*
X64288840Y38500006D01*
X63544481Y38500006D01*
X63544481Y40327600D01*
X97779591Y40327600D01*
X97799049Y40192263D01*
X97799051Y40192255D01*
X97855848Y40067886D01*
X97855853Y40067879D01*
X97945390Y39964547D01*
X97945394Y39964543D01*
X98005960Y39925621D01*
X98060420Y39890622D01*
X98102164Y39878365D01*
X98191613Y39852100D01*
X98191614Y39852100D01*
X98328348Y39852100D01*
X98459542Y39890622D01*
X98574570Y39964545D01*
X98664111Y40067882D01*
X98720912Y40192258D01*
X98740371Y40327600D01*
X98720912Y40462942D01*
X98708658Y40489773D01*
X98664113Y40587315D01*
X98664108Y40587322D01*
X98574571Y40690654D01*
X98574567Y40690658D01*
X98459540Y40764579D01*
X98328349Y40803100D01*
X98328348Y40803100D01*
X98191614Y40803100D01*
X98191613Y40803100D01*
X98060421Y40764579D01*
X97945394Y40690658D01*
X97945390Y40690654D01*
X97855853Y40587322D01*
X97855848Y40587315D01*
X97799051Y40462946D01*
X97799049Y40462938D01*
X97779591Y40327600D01*
X63544481Y40327600D01*
X63544481Y42467321D01*
X81908270Y42467321D01*
X81927728Y42331984D01*
X81927730Y42331976D01*
X81984527Y42207607D01*
X81984532Y42207600D01*
X82074069Y42104268D01*
X82074073Y42104264D01*
X82134639Y42065342D01*
X82189099Y42030343D01*
X82217707Y42021943D01*
X82320292Y41991821D01*
X82320293Y41991821D01*
X82457027Y41991821D01*
X82588221Y42030343D01*
X82703249Y42104266D01*
X82792790Y42207603D01*
X82849591Y42331979D01*
X82857214Y42385000D01*
X87114591Y42385000D01*
X87134049Y42249663D01*
X87134051Y42249655D01*
X87190848Y42125286D01*
X87190853Y42125279D01*
X87280390Y42021947D01*
X87280394Y42021943D01*
X87327266Y41991821D01*
X87395420Y41948022D01*
X87461017Y41928761D01*
X87526613Y41909500D01*
X87526614Y41909500D01*
X87663348Y41909500D01*
X87794542Y41948022D01*
X87909570Y42021945D01*
X87999111Y42125282D01*
X88055912Y42249658D01*
X88075371Y42385000D01*
X88055912Y42520342D01*
X88018317Y42602663D01*
X87999113Y42644715D01*
X87999108Y42644722D01*
X87909571Y42748054D01*
X87909567Y42748058D01*
X87794540Y42821979D01*
X87663349Y42860500D01*
X87663348Y42860500D01*
X87526614Y42860500D01*
X87526613Y42860500D01*
X87395421Y42821979D01*
X87280394Y42748058D01*
X87280390Y42748054D01*
X87190853Y42644722D01*
X87190848Y42644715D01*
X87134051Y42520346D01*
X87134049Y42520338D01*
X87114591Y42385000D01*
X82857214Y42385000D01*
X82869050Y42467321D01*
X82849591Y42602663D01*
X82830383Y42644722D01*
X82792792Y42727036D01*
X82792787Y42727043D01*
X82703250Y42830375D01*
X82703246Y42830379D01*
X82588219Y42904300D01*
X82457028Y42942821D01*
X82457027Y42942821D01*
X82320293Y42942821D01*
X82320292Y42942821D01*
X82189100Y42904300D01*
X82074073Y42830379D01*
X82074069Y42830375D01*
X81984532Y42727043D01*
X81984527Y42727036D01*
X81927730Y42602667D01*
X81927728Y42602659D01*
X81908270Y42467321D01*
X63544481Y42467321D01*
X63544481Y45000006D01*
X64288840Y45000006D01*
X64288840Y44999995D01*
X64309366Y44752271D01*
X64309368Y44752262D01*
X64370393Y44511283D01*
X64470247Y44283636D01*
X64570545Y44130118D01*
X65270193Y44829766D01*
X65281463Y44787708D01*
X65353871Y44662292D01*
X65456273Y44559890D01*
X65581689Y44487482D01*
X65623746Y44476213D01*
X64923923Y43776391D01*
X64970749Y43739945D01*
X64970751Y43739944D01*
X65189366Y43621636D01*
X65189377Y43621631D01*
X65424487Y43540917D01*
X65669688Y43500000D01*
X65918274Y43500000D01*
X66163474Y43540917D01*
X66398584Y43621631D01*
X66398595Y43621636D01*
X66617209Y43739943D01*
X66617212Y43739945D01*
X66664037Y43776391D01*
X65964215Y44476213D01*
X66006273Y44487482D01*
X66131689Y44559890D01*
X66234091Y44662292D01*
X66306499Y44787708D01*
X66317768Y44829765D01*
X67017415Y44130118D01*
X67117712Y44283631D01*
X67217568Y44511283D01*
X67278593Y44752262D01*
X67278595Y44752271D01*
X67299122Y44999995D01*
X67299122Y45000001D01*
X69088338Y45000001D01*
X69088338Y45000000D01*
X69108865Y44778465D01*
X69108866Y44778463D01*
X69169750Y44564477D01*
X69169756Y44564462D01*
X69268919Y44365317D01*
X69268924Y44365309D01*
X69403001Y44187762D01*
X69567418Y44037877D01*
X69567420Y44037875D01*
X69756576Y43920755D01*
X69756577Y43920755D01*
X69756580Y43920753D01*
X69964041Y43840382D01*
X70182738Y43799500D01*
X70182740Y43799500D01*
X70405222Y43799500D01*
X70405224Y43799500D01*
X70623921Y43840382D01*
X70831382Y43920753D01*
X71020543Y44037876D01*
X71184962Y44187764D01*
X71319039Y44365311D01*
X71339501Y44406403D01*
X77549015Y44406403D01*
X77549015Y44406398D01*
X77568839Y44179801D01*
X77568841Y44179790D01*
X77627711Y43960083D01*
X77627716Y43960069D01*
X77723844Y43753922D01*
X77774955Y43680928D01*
X78371019Y44276992D01*
X78388057Y44213408D01*
X78453883Y44099394D01*
X78546975Y44006302D01*
X78660989Y43940476D01*
X78724572Y43923439D01*
X78128507Y43327375D01*
X78201494Y43276268D01*
X78201502Y43276264D01*
X78407649Y43180136D01*
X78407663Y43180131D01*
X78627370Y43121261D01*
X78627381Y43121259D01*
X78853979Y43101434D01*
X78853983Y43101434D01*
X79080580Y43121259D01*
X79080591Y43121261D01*
X79300298Y43180131D01*
X79300312Y43180136D01*
X79506459Y43276264D01*
X79579452Y43327376D01*
X78983389Y43923439D01*
X79046973Y43940476D01*
X79160987Y44006302D01*
X79254079Y44099394D01*
X79319905Y44213408D01*
X79336942Y44276992D01*
X79933005Y43680929D01*
X79984117Y43753922D01*
X80080245Y43960069D01*
X80080250Y43960083D01*
X80139120Y44179790D01*
X80139122Y44179801D01*
X80150775Y44312998D01*
X80176227Y44378067D01*
X80214799Y44405998D01*
X80332440Y44405998D01*
X80363364Y44388470D01*
X80395872Y44326624D01*
X80397706Y44314345D01*
X80407956Y44210271D01*
X80414784Y44187762D01*
X80455710Y44052847D01*
X80465169Y44021667D01*
X80558067Y43847868D01*
X80558071Y43847861D01*
X80683097Y43695517D01*
X80835441Y43570491D01*
X80835448Y43570487D01*
X81009247Y43477589D01*
X81009250Y43477589D01*
X81009254Y43477586D01*
X81197849Y43420376D01*
X81393981Y43401059D01*
X81590113Y43420376D01*
X81778708Y43477586D01*
X81952519Y43570490D01*
X82104864Y43695517D01*
X82229891Y43847862D01*
X82322795Y44021673D01*
X82380005Y44210268D01*
X82399322Y44406400D01*
X82928640Y44406400D01*
X82947956Y44210271D01*
X82954784Y44187762D01*
X82995710Y44052847D01*
X83005169Y44021667D01*
X83098067Y43847868D01*
X83098071Y43847861D01*
X83223097Y43695517D01*
X83375441Y43570491D01*
X83375448Y43570487D01*
X83549247Y43477589D01*
X83549250Y43477589D01*
X83549254Y43477586D01*
X83737849Y43420376D01*
X83933981Y43401059D01*
X84130113Y43420376D01*
X84318708Y43477586D01*
X84492519Y43570490D01*
X84644864Y43695517D01*
X84769891Y43847862D01*
X84862795Y44021673D01*
X84920005Y44210268D01*
X84939322Y44406400D01*
X85468640Y44406400D01*
X85487956Y44210271D01*
X85494784Y44187762D01*
X85535710Y44052847D01*
X85545169Y44021667D01*
X85638067Y43847868D01*
X85638071Y43847861D01*
X85763097Y43695517D01*
X85915441Y43570491D01*
X85915448Y43570487D01*
X86089247Y43477589D01*
X86089250Y43477589D01*
X86089254Y43477586D01*
X86277849Y43420376D01*
X86473981Y43401059D01*
X86670113Y43420376D01*
X86858708Y43477586D01*
X87032519Y43570490D01*
X87184864Y43695517D01*
X87309891Y43847862D01*
X87402795Y44021673D01*
X87460005Y44210268D01*
X87479322Y44406400D01*
X87460005Y44602532D01*
X87402795Y44791127D01*
X87402792Y44791131D01*
X87402792Y44791134D01*
X87309894Y44964933D01*
X87309890Y44964940D01*
X87184864Y45117284D01*
X87032520Y45242310D01*
X87032513Y45242314D01*
X86858714Y45335212D01*
X86858708Y45335214D01*
X86670113Y45392424D01*
X86670110Y45392425D01*
X86473981Y45411741D01*
X86277851Y45392425D01*
X86089247Y45335212D01*
X85915448Y45242314D01*
X85915441Y45242310D01*
X85763097Y45117284D01*
X85638071Y44964940D01*
X85638067Y44964933D01*
X85545169Y44791134D01*
X85487956Y44602530D01*
X85468640Y44406400D01*
X84939322Y44406400D01*
X84920005Y44602532D01*
X84862795Y44791127D01*
X84862792Y44791131D01*
X84862792Y44791134D01*
X84769894Y44964933D01*
X84769890Y44964940D01*
X84644864Y45117284D01*
X84492520Y45242310D01*
X84492513Y45242314D01*
X84318714Y45335212D01*
X84318708Y45335214D01*
X84130113Y45392424D01*
X84130110Y45392425D01*
X83933981Y45411741D01*
X83737851Y45392425D01*
X83549247Y45335212D01*
X83375448Y45242314D01*
X83375441Y45242310D01*
X83223097Y45117284D01*
X83098071Y44964940D01*
X83098067Y44964933D01*
X83005169Y44791134D01*
X82947956Y44602530D01*
X82928640Y44406400D01*
X82399322Y44406400D01*
X82380005Y44602532D01*
X82322795Y44791127D01*
X82322792Y44791131D01*
X82322792Y44791134D01*
X82229894Y44964933D01*
X82229890Y44964940D01*
X82104864Y45117284D01*
X81952520Y45242310D01*
X81952513Y45242314D01*
X81778714Y45335212D01*
X81778708Y45335214D01*
X81590113Y45392424D01*
X81590110Y45392425D01*
X81393981Y45411741D01*
X81197851Y45392425D01*
X81009247Y45335212D01*
X80835448Y45242314D01*
X80835441Y45242310D01*
X80683097Y45117284D01*
X80558071Y44964940D01*
X80558067Y44964933D01*
X80465169Y44791134D01*
X80407956Y44602530D01*
X80397706Y44498455D01*
X80371545Y44433668D01*
X80332440Y44405998D01*
X80214799Y44405998D01*
X80216012Y44406876D01*
X80184306Y44425308D01*
X80152474Y44487506D01*
X80150775Y44499803D01*
X80139122Y44633000D01*
X80139120Y44633011D01*
X80080250Y44852718D01*
X80080245Y44852732D01*
X79984117Y45058879D01*
X79984113Y45058887D01*
X79933006Y45131874D01*
X79336942Y44535810D01*
X79319905Y44599392D01*
X79254079Y44713406D01*
X79160987Y44806498D01*
X79046973Y44872324D01*
X78983390Y44889362D01*
X79579453Y45485426D01*
X79506459Y45536537D01*
X79300312Y45632665D01*
X79300298Y45632670D01*
X79080591Y45691540D01*
X79080580Y45691542D01*
X78853983Y45711366D01*
X78853979Y45711366D01*
X78627381Y45691542D01*
X78627370Y45691540D01*
X78407663Y45632670D01*
X78407654Y45632666D01*
X78201497Y45536534D01*
X78201493Y45536532D01*
X78128507Y45485427D01*
X78128507Y45485426D01*
X78724572Y44889362D01*
X78660989Y44872324D01*
X78546975Y44806498D01*
X78453883Y44713406D01*
X78388057Y44599392D01*
X78371019Y44535810D01*
X77774955Y45131874D01*
X77774954Y45131874D01*
X77723849Y45058888D01*
X77723847Y45058884D01*
X77627715Y44852727D01*
X77627711Y44852718D01*
X77568841Y44633011D01*
X77568839Y44633000D01*
X77549015Y44406403D01*
X71339501Y44406403D01*
X71418210Y44564472D01*
X71479096Y44778464D01*
X71499624Y45000000D01*
X71499623Y45000006D01*
X71479096Y45221536D01*
X71479095Y45221538D01*
X71471640Y45247739D01*
X71418210Y45435528D01*
X71418205Y45435539D01*
X71319042Y45634684D01*
X71319037Y45634692D01*
X71184960Y45812239D01*
X71020543Y45962124D01*
X71020541Y45962126D01*
X70831385Y46079246D01*
X70831379Y46079248D01*
X70623921Y46159618D01*
X70405224Y46200500D01*
X70182738Y46200500D01*
X69964041Y46159618D01*
X69878946Y46126652D01*
X69756582Y46079248D01*
X69756576Y46079246D01*
X69567420Y45962126D01*
X69567418Y45962124D01*
X69403001Y45812239D01*
X69268924Y45634692D01*
X69268919Y45634684D01*
X69169756Y45435539D01*
X69169750Y45435524D01*
X69108866Y45221538D01*
X69108865Y45221536D01*
X69088338Y45000001D01*
X67299122Y45000001D01*
X67299122Y45000006D01*
X67278595Y45247730D01*
X67278593Y45247739D01*
X67217568Y45488718D01*
X67117712Y45716370D01*
X67017415Y45869884D01*
X66317768Y45170236D01*
X66306499Y45212292D01*
X66234091Y45337708D01*
X66131689Y45440110D01*
X66006273Y45512518D01*
X65964216Y45523788D01*
X66664038Y46223610D01*
X66664037Y46223611D01*
X66617210Y46260057D01*
X66398595Y46378365D01*
X66398584Y46378370D01*
X66163474Y46459084D01*
X65918274Y46500000D01*
X65669688Y46500000D01*
X65424487Y46459084D01*
X65189377Y46378370D01*
X65189371Y46378368D01*
X64970742Y46260051D01*
X64923923Y46223612D01*
X64923923Y46223610D01*
X65623746Y45523788D01*
X65581689Y45512518D01*
X65456273Y45440110D01*
X65353871Y45337708D01*
X65281463Y45212292D01*
X65270193Y45170236D01*
X64570545Y45869884D01*
X64470248Y45716368D01*
X64370393Y45488718D01*
X64309368Y45247739D01*
X64309366Y45247730D01*
X64288840Y45000006D01*
X63544481Y45000006D01*
X63544481Y46703000D01*
X67639591Y46703000D01*
X67659049Y46567663D01*
X67659051Y46567655D01*
X67715848Y46443286D01*
X67715853Y46443279D01*
X67805390Y46339947D01*
X67805394Y46339943D01*
X67865960Y46301021D01*
X67920420Y46266022D01*
X67986017Y46246761D01*
X68051613Y46227500D01*
X68051614Y46227500D01*
X68188348Y46227500D01*
X68319542Y46266022D01*
X68434570Y46339945D01*
X68524111Y46443282D01*
X68580912Y46567658D01*
X68600371Y46703000D01*
X68580912Y46838342D01*
X68568658Y46865173D01*
X68531564Y46946400D01*
X79118640Y46946400D01*
X79137956Y46750271D01*
X79137957Y46750268D01*
X79193352Y46567655D01*
X79195169Y46561667D01*
X79288067Y46387868D01*
X79288071Y46387861D01*
X79413097Y46235517D01*
X79565441Y46110491D01*
X79565448Y46110487D01*
X79739247Y46017589D01*
X79739250Y46017589D01*
X79739254Y46017586D01*
X79927849Y45960376D01*
X80123981Y45941059D01*
X80320113Y45960376D01*
X80508708Y46017586D01*
X80682519Y46110490D01*
X80834864Y46235517D01*
X80959891Y46387862D01*
X81052795Y46561673D01*
X81110005Y46750268D01*
X81129322Y46946400D01*
X81658640Y46946400D01*
X81677956Y46750271D01*
X81677957Y46750268D01*
X81733352Y46567655D01*
X81735169Y46561667D01*
X81828067Y46387868D01*
X81828071Y46387861D01*
X81953097Y46235517D01*
X82105441Y46110491D01*
X82105448Y46110487D01*
X82279247Y46017589D01*
X82279250Y46017589D01*
X82279254Y46017586D01*
X82467849Y45960376D01*
X82663981Y45941059D01*
X82860113Y45960376D01*
X83048708Y46017586D01*
X83222519Y46110490D01*
X83374864Y46235517D01*
X83499891Y46387862D01*
X83592795Y46561673D01*
X83650005Y46750268D01*
X83669322Y46946400D01*
X84198640Y46946400D01*
X84217956Y46750271D01*
X84217957Y46750268D01*
X84273352Y46567655D01*
X84275169Y46561667D01*
X84368067Y46387868D01*
X84368071Y46387861D01*
X84493097Y46235517D01*
X84645441Y46110491D01*
X84645448Y46110487D01*
X84819247Y46017589D01*
X84819250Y46017589D01*
X84819254Y46017586D01*
X85007849Y45960376D01*
X85203981Y45941059D01*
X85400113Y45960376D01*
X85588708Y46017586D01*
X85762519Y46110490D01*
X85914864Y46235517D01*
X86039891Y46387862D01*
X86132795Y46561673D01*
X86190005Y46750268D01*
X86209322Y46946400D01*
X86190005Y47142532D01*
X86132795Y47331127D01*
X86132792Y47331131D01*
X86132792Y47331134D01*
X86039894Y47504933D01*
X86039890Y47504940D01*
X85914864Y47657284D01*
X85782207Y47766153D01*
X86743481Y47766153D01*
X86743481Y46126648D01*
X86755112Y46068171D01*
X86755113Y46068170D01*
X86799428Y46001848D01*
X86865750Y45957533D01*
X86865751Y45957532D01*
X86924228Y45945901D01*
X86924231Y45945900D01*
X86924233Y45945900D01*
X88563731Y45945900D01*
X88563732Y45945901D01*
X88578549Y45948848D01*
X88622210Y45957532D01*
X88622210Y45957533D01*
X88622212Y45957533D01*
X88688533Y46001848D01*
X88732848Y46068169D01*
X88732848Y46068171D01*
X88732849Y46068171D01*
X88744480Y46126648D01*
X88744481Y46126650D01*
X88744481Y47766151D01*
X88744480Y47766153D01*
X88732849Y47824630D01*
X88732848Y47824631D01*
X88688533Y47890953D01*
X88622211Y47935268D01*
X88622210Y47935269D01*
X88563733Y47946900D01*
X88563729Y47946900D01*
X86924233Y47946900D01*
X86924228Y47946900D01*
X86865751Y47935269D01*
X86865750Y47935268D01*
X86799428Y47890953D01*
X86755113Y47824631D01*
X86755112Y47824630D01*
X86743481Y47766153D01*
X85782207Y47766153D01*
X85762520Y47782310D01*
X85762513Y47782314D01*
X85588714Y47875212D01*
X85588708Y47875214D01*
X85400113Y47932424D01*
X85400110Y47932425D01*
X85203981Y47951741D01*
X85007851Y47932425D01*
X84819247Y47875212D01*
X84645448Y47782314D01*
X84645441Y47782310D01*
X84493097Y47657284D01*
X84368071Y47504940D01*
X84368067Y47504933D01*
X84275169Y47331134D01*
X84217956Y47142530D01*
X84198640Y46946400D01*
X83669322Y46946400D01*
X83650005Y47142532D01*
X83592795Y47331127D01*
X83592792Y47331131D01*
X83592792Y47331134D01*
X83499894Y47504933D01*
X83499890Y47504940D01*
X83374864Y47657284D01*
X83222520Y47782310D01*
X83222513Y47782314D01*
X83048714Y47875212D01*
X83048708Y47875214D01*
X82860113Y47932424D01*
X82860110Y47932425D01*
X82663981Y47951741D01*
X82467851Y47932425D01*
X82279247Y47875212D01*
X82105448Y47782314D01*
X82105441Y47782310D01*
X81953097Y47657284D01*
X81828071Y47504940D01*
X81828067Y47504933D01*
X81735169Y47331134D01*
X81677956Y47142530D01*
X81658640Y46946400D01*
X81129322Y46946400D01*
X81110005Y47142532D01*
X81052795Y47331127D01*
X81052792Y47331131D01*
X81052792Y47331134D01*
X80959894Y47504933D01*
X80959890Y47504940D01*
X80834864Y47657284D01*
X80682520Y47782310D01*
X80682513Y47782314D01*
X80508714Y47875212D01*
X80508708Y47875214D01*
X80320113Y47932424D01*
X80320110Y47932425D01*
X80123981Y47951741D01*
X79927851Y47932425D01*
X79739247Y47875212D01*
X79565448Y47782314D01*
X79565441Y47782310D01*
X79413097Y47657284D01*
X79288071Y47504940D01*
X79288067Y47504933D01*
X79195169Y47331134D01*
X79137956Y47142530D01*
X79118640Y46946400D01*
X68531564Y46946400D01*
X68524113Y46962715D01*
X68524108Y46962722D01*
X68434571Y47066054D01*
X68434567Y47066058D01*
X68319540Y47139979D01*
X68188349Y47178500D01*
X68188348Y47178500D01*
X68051614Y47178500D01*
X68051613Y47178500D01*
X67920421Y47139979D01*
X67805394Y47066058D01*
X67805390Y47066054D01*
X67715853Y46962722D01*
X67715848Y46962715D01*
X67659051Y46838346D01*
X67659049Y46838338D01*
X67639591Y46703000D01*
X63544481Y46703000D01*
X63544481Y47998400D01*
X70863691Y47998400D01*
X70883149Y47863063D01*
X70883151Y47863055D01*
X70939948Y47738686D01*
X70939953Y47738679D01*
X71029490Y47635347D01*
X71029494Y47635343D01*
X71090060Y47596421D01*
X71144520Y47561422D01*
X71210117Y47542161D01*
X71275713Y47522900D01*
X71275714Y47522900D01*
X71412448Y47522900D01*
X71543642Y47561422D01*
X71658670Y47635345D01*
X71748211Y47738682D01*
X71805012Y47863058D01*
X71824471Y47998400D01*
X71805012Y48133742D01*
X71792758Y48160573D01*
X71748213Y48258115D01*
X71748208Y48258122D01*
X71658671Y48361454D01*
X71658667Y48361458D01*
X71543640Y48435379D01*
X71412449Y48473900D01*
X71412448Y48473900D01*
X71275714Y48473900D01*
X71275713Y48473900D01*
X71144521Y48435379D01*
X71029494Y48361458D01*
X71029490Y48361454D01*
X70939953Y48258122D01*
X70939948Y48258115D01*
X70883151Y48133746D01*
X70883149Y48133738D01*
X70863691Y47998400D01*
X63544481Y47998400D01*
X63544481Y50246406D01*
X74098510Y50246406D01*
X74098510Y50246395D01*
X74118360Y50006841D01*
X74177370Y49773811D01*
X74273932Y49553671D01*
X74405408Y49352434D01*
X74405410Y49352431D01*
X74568217Y49175575D01*
X74568220Y49175573D01*
X74568223Y49175570D01*
X74757905Y49027934D01*
X74757911Y49027930D01*
X74757914Y49027928D01*
X74969325Y48913518D01*
X74969328Y48913517D01*
X75196680Y48835467D01*
X75196682Y48835467D01*
X75196684Y48835466D01*
X75433789Y48795900D01*
X75433790Y48795900D01*
X75674172Y48795900D01*
X75674173Y48795900D01*
X75911278Y48835466D01*
X76138637Y48913518D01*
X76350048Y49027928D01*
X76539745Y49175575D01*
X76702552Y49352431D01*
X76834030Y49553672D01*
X76930591Y49773809D01*
X76989601Y50006837D01*
X77009452Y50246400D01*
X77009452Y50246406D01*
X89578510Y50246406D01*
X89578510Y50246395D01*
X89598360Y50006841D01*
X89657370Y49773811D01*
X89753932Y49553671D01*
X89885408Y49352434D01*
X89885410Y49352431D01*
X90048217Y49175575D01*
X90048220Y49175573D01*
X90048223Y49175570D01*
X90237905Y49027934D01*
X90237911Y49027930D01*
X90237914Y49027928D01*
X90449325Y48913518D01*
X90449328Y48913517D01*
X90676680Y48835467D01*
X90676682Y48835467D01*
X90676684Y48835466D01*
X90913789Y48795900D01*
X90913790Y48795900D01*
X91154172Y48795900D01*
X91154173Y48795900D01*
X91391278Y48835466D01*
X91618637Y48913518D01*
X91830048Y49027928D01*
X92019745Y49175575D01*
X92182552Y49352431D01*
X92314030Y49553672D01*
X92410591Y49773809D01*
X92469601Y50006837D01*
X92489452Y50246400D01*
X92469601Y50485963D01*
X92410591Y50718991D01*
X92314030Y50939128D01*
X92182552Y51140369D01*
X92019745Y51317225D01*
X92019740Y51317229D01*
X92019738Y51317231D01*
X91830056Y51464867D01*
X91830050Y51464871D01*
X91618638Y51579282D01*
X91618633Y51579284D01*
X91391281Y51657334D01*
X91213449Y51687009D01*
X91154173Y51696900D01*
X90913789Y51696900D01*
X90866368Y51688987D01*
X90676680Y51657334D01*
X90449328Y51579284D01*
X90449323Y51579282D01*
X90237911Y51464871D01*
X90237905Y51464867D01*
X90048223Y51317231D01*
X90048220Y51317228D01*
X89885411Y51140371D01*
X89885408Y51140367D01*
X89753932Y50939130D01*
X89657370Y50718990D01*
X89598360Y50485960D01*
X89578510Y50246406D01*
X77009452Y50246406D01*
X76989601Y50485963D01*
X76930591Y50718991D01*
X76834030Y50939128D01*
X76702552Y51140369D01*
X76539745Y51317225D01*
X76539740Y51317229D01*
X76539738Y51317231D01*
X76350056Y51464867D01*
X76350050Y51464871D01*
X76138638Y51579282D01*
X76138633Y51579284D01*
X75911281Y51657334D01*
X75733449Y51687009D01*
X75674173Y51696900D01*
X75433789Y51696900D01*
X75386368Y51688987D01*
X75196680Y51657334D01*
X74969328Y51579284D01*
X74969323Y51579282D01*
X74757911Y51464871D01*
X74757905Y51464867D01*
X74568223Y51317231D01*
X74568220Y51317228D01*
X74405411Y51140371D01*
X74405408Y51140367D01*
X74273932Y50939130D01*
X74177370Y50718990D01*
X74118360Y50485960D01*
X74098510Y50246406D01*
X63544481Y50246406D01*
X63544481Y53421235D01*
X75679481Y53421235D01*
X75679481Y53171566D01*
X75706621Y52965420D01*
X75712068Y52924053D01*
X75712069Y52924051D01*
X75776683Y52682905D01*
X75872217Y52452263D01*
X75872225Y52452247D01*
X75997045Y52236054D01*
X75997056Y52236038D01*
X76149028Y52037984D01*
X76149034Y52037977D01*
X76325557Y51861454D01*
X76325563Y51861449D01*
X76523627Y51709469D01*
X76523634Y51709465D01*
X76739827Y51584645D01*
X76739843Y51584637D01*
X76864274Y51533097D01*
X76970486Y51489102D01*
X77211634Y51424487D01*
X77459154Y51391900D01*
X77459161Y51391900D01*
X77708801Y51391900D01*
X77708808Y51391900D01*
X77956328Y51424487D01*
X78197476Y51489102D01*
X78378788Y51564205D01*
X78428118Y51584637D01*
X78428121Y51584639D01*
X78428127Y51584641D01*
X78644335Y51709469D01*
X78842399Y51861449D01*
X79018932Y52037982D01*
X79170912Y52236046D01*
X79295740Y52452254D01*
X79391279Y52682905D01*
X79455894Y52924053D01*
X79488481Y53171573D01*
X79488481Y53421227D01*
X79488480Y53421235D01*
X87109481Y53421235D01*
X87109481Y53171566D01*
X87136621Y52965420D01*
X87142068Y52924053D01*
X87142069Y52924051D01*
X87206683Y52682905D01*
X87302217Y52452263D01*
X87302225Y52452247D01*
X87427045Y52236054D01*
X87427056Y52236038D01*
X87579028Y52037984D01*
X87579034Y52037977D01*
X87755557Y51861454D01*
X87755563Y51861449D01*
X87953627Y51709469D01*
X87953634Y51709465D01*
X88169827Y51584645D01*
X88169843Y51584637D01*
X88294274Y51533097D01*
X88400486Y51489102D01*
X88641634Y51424487D01*
X88889154Y51391900D01*
X88889161Y51391900D01*
X89138801Y51391900D01*
X89138808Y51391900D01*
X89386328Y51424487D01*
X89627476Y51489102D01*
X89808788Y51564205D01*
X89858118Y51584637D01*
X89858121Y51584639D01*
X89858127Y51584641D01*
X90074335Y51709469D01*
X90272399Y51861449D01*
X90448932Y52037982D01*
X90600912Y52236046D01*
X90725740Y52452254D01*
X90821279Y52682905D01*
X90885894Y52924053D01*
X90918481Y53171573D01*
X90918481Y53421227D01*
X90885894Y53668747D01*
X90821279Y53909895D01*
X90777284Y54016107D01*
X90725744Y54140538D01*
X90725736Y54140554D01*
X90600916Y54356747D01*
X90600912Y54356754D01*
X90448932Y54554818D01*
X90448927Y54554824D01*
X90272404Y54731347D01*
X90272397Y54731353D01*
X90074343Y54883325D01*
X90074341Y54883327D01*
X90074335Y54883331D01*
X90074330Y54883334D01*
X90074327Y54883336D01*
X89858134Y55008156D01*
X89858118Y55008164D01*
X89627476Y55103698D01*
X89386328Y55168313D01*
X89344961Y55173760D01*
X89138815Y55200900D01*
X89138808Y55200900D01*
X88889154Y55200900D01*
X88889146Y55200900D01*
X88653549Y55169882D01*
X88641634Y55168313D01*
X88539708Y55141003D01*
X88400485Y55103698D01*
X88169843Y55008164D01*
X88169827Y55008156D01*
X87953634Y54883336D01*
X87953618Y54883325D01*
X87755564Y54731353D01*
X87755557Y54731347D01*
X87579034Y54554824D01*
X87579028Y54554817D01*
X87427056Y54356763D01*
X87427045Y54356747D01*
X87302225Y54140554D01*
X87302217Y54140538D01*
X87206683Y53909896D01*
X87142069Y53668750D01*
X87142067Y53668739D01*
X87109481Y53421235D01*
X79488480Y53421235D01*
X79455894Y53668747D01*
X79391279Y53909895D01*
X79347284Y54016107D01*
X79295744Y54140538D01*
X79295736Y54140554D01*
X79170916Y54356747D01*
X79170912Y54356754D01*
X79018932Y54554818D01*
X79018927Y54554824D01*
X78842404Y54731347D01*
X78842397Y54731353D01*
X78644343Y54883325D01*
X78644341Y54883327D01*
X78644335Y54883331D01*
X78644330Y54883334D01*
X78644327Y54883336D01*
X78428134Y55008156D01*
X78428118Y55008164D01*
X78197476Y55103698D01*
X77956328Y55168313D01*
X77914961Y55173760D01*
X77708815Y55200900D01*
X77708808Y55200900D01*
X77459154Y55200900D01*
X77459146Y55200900D01*
X77223549Y55169882D01*
X77211634Y55168313D01*
X77109708Y55141003D01*
X76970485Y55103698D01*
X76739843Y55008164D01*
X76739827Y55008156D01*
X76523634Y54883336D01*
X76523618Y54883325D01*
X76325564Y54731353D01*
X76325557Y54731347D01*
X76149034Y54554824D01*
X76149028Y54554817D01*
X75997056Y54356763D01*
X75997045Y54356747D01*
X75872225Y54140554D01*
X75872217Y54140538D01*
X75776683Y53909896D01*
X75712069Y53668750D01*
X75712067Y53668739D01*
X75679481Y53421235D01*
X63544481Y53421235D01*
X63544481Y56996520D01*
X63544676Y57003472D01*
X63551108Y57118005D01*
X64493481Y57118005D01*
X64493481Y56881996D01*
X64493482Y56881980D01*
X64524287Y56647990D01*
X64585375Y56420007D01*
X64675695Y56201955D01*
X64675700Y56201944D01*
X64746658Y56079043D01*
X64793708Y55997550D01*
X64793710Y55997547D01*
X64793711Y55997546D01*
X64937387Y55810303D01*
X64937393Y55810296D01*
X65104276Y55643413D01*
X65104282Y55643408D01*
X65291531Y55499727D01*
X65422899Y55423882D01*
X65495924Y55381720D01*
X65495929Y55381718D01*
X65495932Y55381716D01*
X65713988Y55291394D01*
X65941967Y55230307D01*
X66175970Y55199500D01*
X66175977Y55199500D01*
X66411985Y55199500D01*
X66411992Y55199500D01*
X66645995Y55230307D01*
X66873974Y55291394D01*
X67092030Y55381716D01*
X67296431Y55499727D01*
X67483680Y55643408D01*
X67650573Y55810301D01*
X67794254Y55997550D01*
X67912265Y56201951D01*
X68002587Y56420007D01*
X68063674Y56647986D01*
X68094481Y56881989D01*
X68094481Y57118011D01*
X68063674Y57352014D01*
X68002587Y57579993D01*
X67912265Y57798049D01*
X67912263Y57798052D01*
X67912261Y57798057D01*
X67870099Y57871082D01*
X67794254Y58002450D01*
X67668391Y58166478D01*
X67653104Y58186401D01*
X75558766Y58186401D01*
X75558766Y58186400D01*
X75577583Y57983318D01*
X75633398Y57787153D01*
X75633403Y57787140D01*
X75724308Y57604579D01*
X75847218Y57441819D01*
X75997939Y57304420D01*
X75997941Y57304418D01*
X76003628Y57300897D01*
X76171344Y57197052D01*
X76361525Y57123376D01*
X76562005Y57085900D01*
X76562007Y57085900D01*
X76765955Y57085900D01*
X76765957Y57085900D01*
X76966437Y57123376D01*
X77156618Y57197052D01*
X77330022Y57304419D01*
X77480745Y57441821D01*
X77603654Y57604579D01*
X77694563Y57787150D01*
X77750378Y57983317D01*
X77769196Y58186400D01*
X77769196Y58186401D01*
X78098766Y58186401D01*
X78098766Y58186400D01*
X78117583Y57983318D01*
X78173398Y57787153D01*
X78173403Y57787140D01*
X78264308Y57604579D01*
X78387218Y57441819D01*
X78537939Y57304420D01*
X78537941Y57304418D01*
X78543628Y57300897D01*
X78711344Y57197052D01*
X78901525Y57123376D01*
X79102005Y57085900D01*
X79102007Y57085900D01*
X79305955Y57085900D01*
X79305957Y57085900D01*
X79506437Y57123376D01*
X79696618Y57197052D01*
X79870022Y57304419D01*
X80020745Y57441821D01*
X80143654Y57604579D01*
X80234563Y57787150D01*
X80290378Y57983317D01*
X80309196Y58186400D01*
X80309196Y58186401D01*
X86278766Y58186401D01*
X86278766Y58186400D01*
X86297583Y57983318D01*
X86353398Y57787153D01*
X86353403Y57787140D01*
X86444308Y57604579D01*
X86567218Y57441819D01*
X86717939Y57304420D01*
X86717941Y57304418D01*
X86723628Y57300897D01*
X86891344Y57197052D01*
X87081525Y57123376D01*
X87282005Y57085900D01*
X87282007Y57085900D01*
X87485955Y57085900D01*
X87485957Y57085900D01*
X87686437Y57123376D01*
X87876618Y57197052D01*
X88050022Y57304419D01*
X88200745Y57441821D01*
X88323654Y57604579D01*
X88414563Y57787150D01*
X88470378Y57983317D01*
X88489196Y58186400D01*
X88489196Y58186401D01*
X88818766Y58186401D01*
X88818766Y58186400D01*
X88837583Y57983318D01*
X88893398Y57787153D01*
X88893403Y57787140D01*
X88984308Y57604579D01*
X89107218Y57441819D01*
X89257939Y57304420D01*
X89257941Y57304418D01*
X89263628Y57300897D01*
X89431344Y57197052D01*
X89621525Y57123376D01*
X89822005Y57085900D01*
X89822007Y57085900D01*
X90025955Y57085900D01*
X90025957Y57085900D01*
X90197705Y57118005D01*
X98493481Y57118005D01*
X98493481Y56881996D01*
X98493482Y56881980D01*
X98524287Y56647990D01*
X98585375Y56420007D01*
X98675695Y56201955D01*
X98675700Y56201944D01*
X98746658Y56079043D01*
X98793708Y55997550D01*
X98793710Y55997547D01*
X98793711Y55997546D01*
X98937387Y55810303D01*
X98937393Y55810296D01*
X99104276Y55643413D01*
X99104282Y55643408D01*
X99291531Y55499727D01*
X99422899Y55423882D01*
X99495924Y55381720D01*
X99495929Y55381718D01*
X99495932Y55381716D01*
X99713988Y55291394D01*
X99941967Y55230307D01*
X100175970Y55199500D01*
X100175977Y55199500D01*
X100411985Y55199500D01*
X100411992Y55199500D01*
X100645995Y55230307D01*
X100873974Y55291394D01*
X101092030Y55381716D01*
X101296431Y55499727D01*
X101483680Y55643408D01*
X101650573Y55810301D01*
X101794254Y55997550D01*
X101912265Y56201951D01*
X102002587Y56420007D01*
X102063674Y56647986D01*
X102094481Y56881989D01*
X102094481Y57118011D01*
X102063674Y57352014D01*
X102002587Y57579993D01*
X101912265Y57798049D01*
X101912263Y57798052D01*
X101912261Y57798057D01*
X101870099Y57871082D01*
X101794254Y58002450D01*
X101668391Y58166478D01*
X101650574Y58189698D01*
X101650568Y58189705D01*
X101483685Y58356588D01*
X101483678Y58356594D01*
X101296435Y58500270D01*
X101296434Y58500271D01*
X101296431Y58500273D01*
X101214938Y58547323D01*
X101092037Y58618281D01*
X101092026Y58618286D01*
X100873974Y58708606D01*
X100833377Y58719484D01*
X100645995Y58769693D01*
X100645994Y58769694D01*
X100645991Y58769694D01*
X100412001Y58800499D01*
X100411998Y58800500D01*
X100411992Y58800500D01*
X100175970Y58800500D01*
X100175964Y58800500D01*
X100175960Y58800499D01*
X99941970Y58769694D01*
X99713987Y58708606D01*
X99495935Y58618286D01*
X99495924Y58618281D01*
X99291526Y58500270D01*
X99104283Y58356594D01*
X99104276Y58356588D01*
X98937393Y58189705D01*
X98937387Y58189698D01*
X98793711Y58002455D01*
X98675700Y57798057D01*
X98675695Y57798046D01*
X98585375Y57579994D01*
X98524287Y57352011D01*
X98493482Y57118021D01*
X98493481Y57118005D01*
X90197705Y57118005D01*
X90226437Y57123376D01*
X90416618Y57197052D01*
X90590022Y57304419D01*
X90740745Y57441821D01*
X90863654Y57604579D01*
X90954563Y57787150D01*
X91010378Y57983317D01*
X91029196Y58186400D01*
X91028587Y58192967D01*
X91010378Y58389483D01*
X90991244Y58456732D01*
X90954563Y58585650D01*
X90938313Y58618284D01*
X90910253Y58674636D01*
X90863654Y58768221D01*
X90740745Y58930979D01*
X90740743Y58930982D01*
X90590022Y59068381D01*
X90590020Y59068383D01*
X90416623Y59175745D01*
X90416616Y59175749D01*
X90321527Y59212586D01*
X90226437Y59249424D01*
X90025957Y59286900D01*
X89822005Y59286900D01*
X89621525Y59249424D01*
X89621522Y59249424D01*
X89621522Y59249423D01*
X89431345Y59175749D01*
X89431338Y59175745D01*
X89257941Y59068383D01*
X89257939Y59068381D01*
X89107218Y58930982D01*
X88984308Y58768222D01*
X88893403Y58585661D01*
X88893398Y58585648D01*
X88837583Y58389483D01*
X88818766Y58186401D01*
X88489196Y58186401D01*
X88488587Y58192967D01*
X88470378Y58389483D01*
X88451244Y58456732D01*
X88414563Y58585650D01*
X88398313Y58618284D01*
X88370253Y58674636D01*
X88323654Y58768221D01*
X88200745Y58930979D01*
X88200743Y58930982D01*
X88050022Y59068381D01*
X88050020Y59068383D01*
X87876623Y59175745D01*
X87876616Y59175749D01*
X87781527Y59212586D01*
X87686437Y59249424D01*
X87485957Y59286900D01*
X87282005Y59286900D01*
X87081525Y59249424D01*
X87081522Y59249424D01*
X87081522Y59249423D01*
X86891345Y59175749D01*
X86891338Y59175745D01*
X86717941Y59068383D01*
X86717939Y59068381D01*
X86567218Y58930982D01*
X86444308Y58768222D01*
X86353403Y58585661D01*
X86353398Y58585648D01*
X86297583Y58389483D01*
X86278766Y58186401D01*
X80309196Y58186401D01*
X80308587Y58192967D01*
X80290378Y58389483D01*
X80271244Y58456732D01*
X80234563Y58585650D01*
X80218313Y58618284D01*
X80190253Y58674636D01*
X80143654Y58768221D01*
X80020745Y58930979D01*
X80020743Y58930982D01*
X79870022Y59068381D01*
X79870020Y59068383D01*
X79696623Y59175745D01*
X79696616Y59175749D01*
X79601527Y59212586D01*
X79506437Y59249424D01*
X79305957Y59286900D01*
X79102005Y59286900D01*
X78901525Y59249424D01*
X78901522Y59249424D01*
X78901522Y59249423D01*
X78711345Y59175749D01*
X78711338Y59175745D01*
X78537941Y59068383D01*
X78537939Y59068381D01*
X78387218Y58930982D01*
X78264308Y58768222D01*
X78173403Y58585661D01*
X78173398Y58585648D01*
X78117583Y58389483D01*
X78098766Y58186401D01*
X77769196Y58186401D01*
X77768587Y58192967D01*
X77750378Y58389483D01*
X77731244Y58456732D01*
X77694563Y58585650D01*
X77678313Y58618284D01*
X77650253Y58674636D01*
X77603654Y58768221D01*
X77480745Y58930979D01*
X77480743Y58930982D01*
X77330022Y59068381D01*
X77330020Y59068383D01*
X77156623Y59175745D01*
X77156616Y59175749D01*
X77061527Y59212586D01*
X76966437Y59249424D01*
X76765957Y59286900D01*
X76562005Y59286900D01*
X76361525Y59249424D01*
X76361522Y59249424D01*
X76361522Y59249423D01*
X76171345Y59175749D01*
X76171338Y59175745D01*
X75997941Y59068383D01*
X75997939Y59068381D01*
X75847218Y58930982D01*
X75724308Y58768222D01*
X75633403Y58585661D01*
X75633398Y58585648D01*
X75577583Y58389483D01*
X75558766Y58186401D01*
X67653104Y58186401D01*
X67650574Y58189698D01*
X67650568Y58189705D01*
X67483685Y58356588D01*
X67483678Y58356594D01*
X67296435Y58500270D01*
X67296434Y58500271D01*
X67296431Y58500273D01*
X67214938Y58547323D01*
X67092037Y58618281D01*
X67092026Y58618286D01*
X66873974Y58708606D01*
X66833377Y58719484D01*
X66645995Y58769693D01*
X66645994Y58769694D01*
X66645991Y58769694D01*
X66412001Y58800499D01*
X66411998Y58800500D01*
X66411992Y58800500D01*
X66175970Y58800500D01*
X66175964Y58800500D01*
X66175960Y58800499D01*
X65941970Y58769694D01*
X65713987Y58708606D01*
X65495935Y58618286D01*
X65495924Y58618281D01*
X65291526Y58500270D01*
X65104283Y58356594D01*
X65104276Y58356588D01*
X64937393Y58189705D01*
X64937387Y58189698D01*
X64793711Y58002455D01*
X64675700Y57798057D01*
X64675695Y57798046D01*
X64585375Y57579994D01*
X64524287Y57352011D01*
X64493482Y57118021D01*
X64493481Y57118005D01*
X63551108Y57118005D01*
X63551109Y57118021D01*
X63561379Y57300906D01*
X63562933Y57314701D01*
X63612252Y57604968D01*
X63615340Y57618500D01*
X63696849Y57901426D01*
X63701439Y57914539D01*
X63701441Y57914543D01*
X63814104Y58186541D01*
X63820127Y58199047D01*
X63962546Y58456738D01*
X63969941Y58468506D01*
X64140317Y58708630D01*
X64148959Y58719467D01*
X64345160Y58939017D01*
X64354980Y58948836D01*
X64574514Y59145025D01*
X64585354Y59153670D01*
X64825497Y59324062D01*
X64837234Y59331437D01*
X65094937Y59473866D01*
X65107430Y59479883D01*
X65379462Y59592564D01*
X65392547Y59597143D01*
X65675476Y59678654D01*
X65689019Y59681745D01*
X65979278Y59731064D01*
X65993081Y59732620D01*
X66290173Y59749306D01*
X66297126Y59749500D01*
X100249813Y59749500D01*
X100290504Y59749500D01*
X100297455Y59749306D01*
G37*
%TD.AperFunction*%
%TD*%
M02*
