%TF.GenerationSoftware,KiCad,Pcbnew,8.0.3*%
%TF.CreationDate,2025-10-09T18:02:22+02:00*%
%TF.ProjectId,LAN8742A-breakout,4c414e38-3734-4324-912d-627265616b6f,+ (Unreleased)*%
%TF.SameCoordinates,Original*%
%TF.FileFunction,Paste,Top*%
%TF.FilePolarity,Positive*%
%FSLAX46Y46*%
G04 Gerber Fmt 4.6, Leading zero omitted, Abs format (unit mm)*
G04 Created by KiCad (PCBNEW 8.0.3) date 2025-10-09 18:02:22*
%MOMM*%
%LPD*%
G01*
G04 APERTURE LIST*
G04 Aperture macros list*
%AMRoundRect*
0 Rectangle with rounded corners*
0 $1 Rounding radius*
0 $2 $3 $4 $5 $6 $7 $8 $9 X,Y pos of 4 corners*
0 Add a 4 corners polygon primitive as box body*
4,1,4,$2,$3,$4,$5,$6,$7,$8,$9,$2,$3,0*
0 Add four circle primitives for the rounded corners*
1,1,$1+$1,$2,$3*
1,1,$1+$1,$4,$5*
1,1,$1+$1,$6,$7*
1,1,$1+$1,$8,$9*
0 Add four rect primitives between the rounded corners*
20,1,$1+$1,$2,$3,$4,$5,0*
20,1,$1+$1,$4,$5,$6,$7,0*
20,1,$1+$1,$6,$7,$8,$9,0*
20,1,$1+$1,$8,$9,$2,$3,0*%
%AMFreePoly0*
4,1,25,0.266375,0.443630,0.297109,0.420047,0.420047,0.297109,0.458455,0.230584,0.463512,0.192175,0.463512,-0.192175,0.443630,-0.266375,0.420047,-0.297109,0.297109,-0.420047,0.230584,-0.458455,0.192175,-0.463512,-0.192175,-0.463512,-0.266375,-0.443630,-0.297109,-0.420047,-0.420047,-0.297109,-0.458455,-0.230584,-0.463512,-0.192175,-0.463512,0.192175,-0.443630,0.266375,-0.420047,0.297109,
-0.297109,0.420047,-0.230584,0.458455,-0.192175,0.463512,0.192175,0.463512,0.266375,0.443630,0.266375,0.443630,$1*%
G04 Aperture macros list end*
%ADD10RoundRect,0.237500X-0.008839X-0.344715X0.344715X0.008839X0.008839X0.344715X-0.344715X-0.008839X0*%
%ADD11RoundRect,0.237500X0.380070X-0.044194X-0.044194X0.380070X-0.380070X0.044194X0.044194X-0.380070X0*%
%ADD12RoundRect,0.237500X-0.044194X-0.380070X0.380070X0.044194X0.044194X0.380070X-0.380070X-0.044194X0*%
%ADD13RoundRect,0.237500X-0.237500X0.250000X-0.237500X-0.250000X0.237500X-0.250000X0.237500X0.250000X0*%
%ADD14RoundRect,0.237500X0.044194X0.380070X-0.380070X-0.044194X-0.044194X-0.380070X0.380070X0.044194X0*%
%ADD15RoundRect,0.237500X0.250000X0.237500X-0.250000X0.237500X-0.250000X-0.237500X0.250000X-0.237500X0*%
%ADD16RoundRect,0.500000X-1.237437X-1.944544X1.944544X1.237437X1.237437X1.944544X-1.944544X-1.237437X0*%
%ADD17FreePoly0,315.000000*%
%ADD18RoundRect,0.062500X-0.309359X0.220971X0.220971X-0.309359X0.309359X-0.220971X-0.220971X0.309359X0*%
%ADD19RoundRect,0.062500X-0.309359X-0.220971X-0.220971X-0.309359X0.309359X0.220971X0.220971X0.309359X0*%
%ADD20RoundRect,0.237500X-0.250000X-0.237500X0.250000X-0.237500X0.250000X0.237500X-0.250000X0.237500X0*%
%ADD21RoundRect,0.237500X0.237500X-0.300000X0.237500X0.300000X-0.237500X0.300000X-0.237500X-0.300000X0*%
%ADD22R,0.860000X0.800000*%
G04 APERTURE END LIST*
D10*
%TO.C,R1*%
X79486695Y34338934D03*
X80777165Y35629404D03*
%TD*%
D11*
%TO.C,C5*%
X75587861Y24122120D03*
X74368101Y25341880D03*
%TD*%
D12*
%TO.C,C11*%
X75485701Y30116520D03*
X76705461Y31336280D03*
%TD*%
D13*
%TO.C,R7*%
X94332781Y58207300D03*
X94332781Y56382300D03*
%TD*%
D14*
%TO.C,C10*%
X73505061Y28135880D03*
X72285301Y26916120D03*
%TD*%
D15*
%TO.C,R9*%
X84434004Y36396720D03*
X82609004Y36396720D03*
%TD*%
D14*
%TO.C,C7*%
X76881555Y27694812D03*
X75661795Y26475052D03*
%TD*%
D15*
%TO.C,R4*%
X102509681Y40353000D03*
X100684681Y40353000D03*
%TD*%
D12*
%TO.C,C4*%
X88872719Y24714343D03*
X90092479Y25934103D03*
%TD*%
D11*
%TO.C,C6*%
X74445441Y22996951D03*
X73225681Y24216711D03*
%TD*%
D16*
%TO.C,Y1*%
X68621000Y28789019D03*
X74984962Y35152981D03*
%TD*%
D14*
%TO.C,C8*%
X78052964Y26514034D03*
X76833204Y25294274D03*
%TD*%
D17*
%TO.C,U1*%
X82983084Y26370256D03*
X82176982Y25564154D03*
X83789186Y25564154D03*
X82983084Y24758052D03*
D18*
X82496948Y27818057D03*
X82143395Y27464503D03*
X81789841Y27110950D03*
X81436288Y26757397D03*
X81082735Y26403843D03*
X80729181Y26050290D03*
D19*
X80729181Y25078018D03*
X81082735Y24724465D03*
X81436288Y24370911D03*
X81789841Y24017358D03*
X82143395Y23663805D03*
X82496948Y23310251D03*
D18*
X83469220Y23310251D03*
X83822773Y23663805D03*
X84176327Y24017358D03*
X84529880Y24370911D03*
X84883433Y24724465D03*
X85236987Y25078018D03*
D19*
X85236987Y26050290D03*
X84883433Y26403843D03*
X84529880Y26757397D03*
X84176327Y27110950D03*
X83822773Y27464503D03*
X83469220Y27818057D03*
%TD*%
D12*
%TO.C,C3*%
X87779021Y25798240D03*
X88998781Y27018000D03*
%TD*%
D20*
%TO.C,R3*%
X100684681Y42004000D03*
X102509681Y42004000D03*
%TD*%
D15*
%TO.C,R6*%
X69845281Y47846000D03*
X68020281Y47846000D03*
%TD*%
%TO.C,R11*%
X89634779Y36397634D03*
X87809779Y36397634D03*
%TD*%
%TO.C,R2*%
X102509681Y33724141D03*
X100684681Y33724141D03*
%TD*%
D13*
%TO.C,R8*%
X72539581Y58156500D03*
X72539581Y56331500D03*
%TD*%
D21*
%TO.C,C9*%
X66392781Y47745500D03*
X66392781Y49470500D03*
%TD*%
D20*
%TO.C,R10*%
X79490409Y37961771D03*
X81315409Y37961771D03*
%TD*%
%TO.C,R5*%
X68020281Y49370000D03*
X69845281Y49370000D03*
%TD*%
%TO.C,R12*%
X84702692Y37933916D03*
X86527692Y37933916D03*
%TD*%
D22*
%TO.C,FB1*%
X95551981Y21554000D03*
X95551981Y22954000D03*
%TD*%
D14*
%TO.C,C1*%
X80261741Y31946160D03*
X79041981Y30726400D03*
%TD*%
%TO.C,C2*%
X81339747Y30875454D03*
X80119987Y29655694D03*
%TD*%
M02*
