%TF.GenerationSoftware,KiCad,Pcbnew,8.0.3*%
%TF.CreationDate,Date%
%TF.ProjectId,LAN8742A-breakout,4c414e38-3734-4324-912d-627265616b6f,+ (Unreleased)*%
%TF.SameCoordinates,Original*%
%TF.FileFunction,Soldermask,Bot*%
%TF.FilePolarity,Negative*%
%FSLAX46Y46*%
G04 Gerber Fmt 4.6, Leading zero omitted, Abs format (unit mm)*
G04 Created by KiCad*
%MOMM*%
%LPD*%
G01*
G04 APERTURE LIST*
G04 Aperture macros list*
%AMRoundRect*
0 Rectangle with rounded corners*
0 $1 Rounding radius*
0 $2 $3 $4 $5 $6 $7 $8 $9 X,Y pos of 4 corners*
0 Add a 4 corners polygon primitive as box body*
4,1,4,$2,$3,$4,$5,$6,$7,$8,$9,$2,$3,0*
0 Add four circle primitives for the rounded corners*
1,1,$1+$1,$2,$3*
1,1,$1+$1,$4,$5*
1,1,$1+$1,$6,$7*
1,1,$1+$1,$8,$9*
0 Add four rect primitives between the rounded corners*
20,1,$1+$1,$2,$3,$4,$5,0*
20,1,$1+$1,$4,$5,$6,$7,0*
20,1,$1+$1,$6,$7,$8,$9,0*
20,1,$1+$1,$8,$9,$2,$3,0*%
G04 Aperture macros list end*
%ADD10C,3.300000*%
%ADD11RoundRect,0.050000X-0.850000X-0.850000X0.850000X-0.850000X0.850000X0.850000X-0.850000X0.850000X0*%
%ADD12O,1.800000X1.800000*%
%ADD13C,2.100000*%
%ADD14RoundRect,0.050000X-0.850000X0.850000X-0.850000X-0.850000X0.850000X-0.850000X0.850000X0.850000X0*%
%ADD15RoundRect,0.050000X0.850000X0.850000X-0.850000X0.850000X-0.850000X-0.850000X0.850000X-0.850000X0*%
%ADD16C,3.400000*%
%ADD17RoundRect,0.050000X0.800000X0.800000X-0.800000X0.800000X-0.800000X-0.800000X0.800000X-0.800000X0*%
%ADD18C,1.700000*%
%ADD19C,1.900000*%
%ADD20C,2.600000*%
G04 APERTURE END LIST*
D10*
%TO.C,H2*%
X100293981Y57000000D03*
%TD*%
D11*
%TO.C,J4*%
X101690981Y31000000D03*
D12*
X101690981Y28460000D03*
%TD*%
D10*
%TO.C,H4*%
X66293981Y13000000D03*
%TD*%
D13*
%TO.C,SW1*%
X65793981Y38500000D03*
X65793981Y45000000D03*
X70293981Y38500000D03*
X70293981Y45000000D03*
%TD*%
D14*
%TO.C,J2*%
X94739181Y14622000D03*
D12*
X94739181Y12082000D03*
X92199181Y14622000D03*
X92199181Y12082000D03*
X89659181Y14622000D03*
X89659181Y12082000D03*
X87119181Y14622000D03*
X87119181Y12082000D03*
X84579181Y14622000D03*
X84579181Y12082000D03*
X82039181Y14622000D03*
X82039181Y12082000D03*
X79499181Y14622000D03*
X79499181Y12082000D03*
X76959181Y14622000D03*
X76959181Y12082000D03*
X74419181Y14622000D03*
X74419181Y12082000D03*
X71879181Y14622000D03*
X71879181Y12082000D03*
%TD*%
D15*
%TO.C,J3*%
X101690981Y18920000D03*
D12*
X101690981Y21460000D03*
X101690981Y24000000D03*
%TD*%
D10*
%TO.C,H1*%
X66293981Y57000000D03*
%TD*%
%TO.C,H3*%
X100293981Y13000000D03*
%TD*%
D16*
%TO.C,J1*%
X89013981Y53296400D03*
X77583981Y53296400D03*
D17*
X87743981Y46946400D03*
D18*
X86473981Y44406400D03*
X85203981Y46946400D03*
X83933981Y44406400D03*
X82663981Y46946400D03*
X81393981Y44406400D03*
X80123981Y46946400D03*
X78853981Y44406400D03*
D19*
X89923981Y58186400D03*
X87383981Y58186400D03*
X79203981Y58186400D03*
X76663981Y58186400D03*
D20*
X91033981Y50246400D03*
X75553981Y50246400D03*
%TD*%
M02*
