%TF.GenerationSoftware,KiCad,Pcbnew,8.0.3*%
%TF.CreationDate,Date%
%TF.ProjectId,LAN8742A-breakout,4c414e38-3734-4324-912d-627265616b6f,+ (Unreleased)*%
%TF.SameCoordinates,Original*%
%TF.FileFunction,Copper,L1,Top*%
%TF.FilePolarity,Positive*%
%FSLAX46Y46*%
G04 Gerber Fmt 4.6, Leading zero omitted, Abs format (unit mm)*
G04 Created by KiCad*
%MOMM*%
%LPD*%
G01*
G04 APERTURE LIST*
G04 Aperture macros list*
%AMRoundRect*
0 Rectangle with rounded corners*
0 $1 Rounding radius*
0 $2 $3 $4 $5 $6 $7 $8 $9 X,Y pos of 4 corners*
0 Add a 4 corners polygon primitive as box body*
4,1,4,$2,$3,$4,$5,$6,$7,$8,$9,$2,$3,0*
0 Add four circle primitives for the rounded corners*
1,1,$1+$1,$2,$3*
1,1,$1+$1,$4,$5*
1,1,$1+$1,$6,$7*
1,1,$1+$1,$8,$9*
0 Add four rect primitives between the rounded corners*
20,1,$1+$1,$2,$3,$4,$5,0*
20,1,$1+$1,$4,$5,$6,$7,0*
20,1,$1+$1,$6,$7,$8,$9,0*
20,1,$1+$1,$8,$9,$2,$3,0*%
%AMRotRect*
0 Rectangle, with rotation*
0 The origin of the aperture is its center*
0 $1 length*
0 $2 width*
0 $3 Rotation angle, in degrees counterclockwise*
0 Add horizontal line*
21,1,$1,$2,0,0,$3*%
%AMFreePoly0*
4,1,19,0.500000,-0.750000,0.000000,-0.750000,0.000000,-0.744911,-0.071157,-0.744911,-0.207708,-0.704816,-0.327430,-0.627875,-0.420627,-0.520320,-0.479746,-0.390866,-0.500000,-0.250000,-0.500000,0.250000,-0.479746,0.390866,-0.420627,0.520320,-0.327430,0.627875,-0.207708,0.704816,-0.071157,0.744911,0.000000,0.744911,0.000000,0.750000,0.500000,0.750000,0.500000,-0.750000,0.500000,-0.750000,
$1*%
%AMFreePoly1*
4,1,19,0.000000,0.744911,0.071157,0.744911,0.207708,0.704816,0.327430,0.627875,0.420627,0.520320,0.479746,0.390866,0.500000,0.250000,0.500000,-0.250000,0.479746,-0.390866,0.420627,-0.520320,0.327430,-0.627875,0.207708,-0.704816,0.071157,-0.744911,0.000000,-0.744911,0.000000,-0.750000,-0.500000,-0.750000,-0.500000,0.750000,0.000000,0.750000,0.000000,0.744911,0.000000,0.744911,
$1*%
G04 Aperture macros list end*
%TA.AperFunction,EtchedComponent*%
%ADD10C,0.000000*%
%TD*%
%TA.AperFunction,SMDPad,CuDef*%
%ADD11RoundRect,0.237500X-0.008839X-0.344715X0.344715X0.008839X0.008839X0.344715X-0.344715X-0.008839X0*%
%TD*%
%TA.AperFunction,SMDPad,CuDef*%
%ADD12RoundRect,0.237500X0.380070X-0.044194X-0.044194X0.380070X-0.380070X0.044194X0.044194X-0.380070X0*%
%TD*%
%TA.AperFunction,SMDPad,CuDef*%
%ADD13FreePoly0,180.000000*%
%TD*%
%TA.AperFunction,SMDPad,CuDef*%
%ADD14FreePoly1,180.000000*%
%TD*%
%TA.AperFunction,SMDPad,CuDef*%
%ADD15FreePoly0,0.000000*%
%TD*%
%TA.AperFunction,SMDPad,CuDef*%
%ADD16FreePoly1,0.000000*%
%TD*%
%TA.AperFunction,ComponentPad*%
%ADD17R,1.700000X1.700000*%
%TD*%
%TA.AperFunction,ComponentPad*%
%ADD18O,1.700000X1.700000*%
%TD*%
%TA.AperFunction,SMDPad,CuDef*%
%ADD19RoundRect,0.237500X-0.044194X-0.380070X0.380070X0.044194X0.044194X0.380070X-0.380070X-0.044194X0*%
%TD*%
%TA.AperFunction,SMDPad,CuDef*%
%ADD20RoundRect,0.237500X-0.237500X0.250000X-0.237500X-0.250000X0.237500X-0.250000X0.237500X0.250000X0*%
%TD*%
%TA.AperFunction,SMDPad,CuDef*%
%ADD21RoundRect,0.237500X0.044194X0.380070X-0.380070X-0.044194X-0.044194X-0.380070X0.380070X0.044194X0*%
%TD*%
%TA.AperFunction,SMDPad,CuDef*%
%ADD22RoundRect,0.237500X0.250000X0.237500X-0.250000X0.237500X-0.250000X-0.237500X0.250000X-0.237500X0*%
%TD*%
%TA.AperFunction,SMDPad,CuDef*%
%ADD23RoundRect,0.500000X-1.237437X-1.944544X1.944544X1.237437X1.237437X1.944544X-1.944544X-1.237437X0*%
%TD*%
%TA.AperFunction,SMDPad,CuDef*%
%ADD24RoundRect,0.062500X-0.309359X0.220971X0.220971X-0.309359X0.309359X-0.220971X-0.220971X0.309359X0*%
%TD*%
%TA.AperFunction,SMDPad,CuDef*%
%ADD25RoundRect,0.062500X-0.309359X-0.220971X-0.220971X-0.309359X0.309359X0.220971X0.220971X0.309359X0*%
%TD*%
%TA.AperFunction,HeatsinkPad*%
%ADD26C,0.500000*%
%TD*%
%TA.AperFunction,HeatsinkPad*%
%ADD27RotRect,2.500000X2.500000X315.000000*%
%TD*%
%TA.AperFunction,ComponentPad*%
%ADD28C,2.000000*%
%TD*%
%TA.AperFunction,SMDPad,CuDef*%
%ADD29RoundRect,0.237500X-0.250000X-0.237500X0.250000X-0.237500X0.250000X0.237500X-0.250000X0.237500X0*%
%TD*%
%TA.AperFunction,SMDPad,CuDef*%
%ADD30RoundRect,0.237500X0.237500X-0.300000X0.237500X0.300000X-0.237500X0.300000X-0.237500X-0.300000X0*%
%TD*%
%TA.AperFunction,SMDPad,CuDef*%
%ADD31R,0.860000X0.800000*%
%TD*%
%TA.AperFunction,ComponentPad*%
%ADD32C,3.300000*%
%TD*%
%TA.AperFunction,ComponentPad*%
%ADD33R,1.600000X1.600000*%
%TD*%
%TA.AperFunction,ComponentPad*%
%ADD34C,1.600000*%
%TD*%
%TA.AperFunction,ComponentPad*%
%ADD35C,1.800000*%
%TD*%
%TA.AperFunction,ComponentPad*%
%ADD36C,2.500000*%
%TD*%
%TA.AperFunction,ViaPad*%
%ADD37C,0.550000*%
%TD*%
%TA.AperFunction,Conductor*%
%ADD38C,0.200000*%
%TD*%
%TA.AperFunction,Conductor*%
%ADD39C,0.300000*%
%TD*%
%TA.AperFunction,Conductor*%
%ADD40C,0.500000*%
%TD*%
%TA.AperFunction,Conductor*%
%ADD41C,0.254000*%
%TD*%
%TA.AperFunction,Conductor*%
%ADD42C,0.340000*%
%TD*%
%TA.AperFunction,Conductor*%
%ADD43C,0.250000*%
%TD*%
G04 APERTURE END LIST*
D10*
%TA.AperFunction,EtchedComponent*%
%TO.C,JP4*%
G36*
X72582366Y49894193D02*
G01*
X72082366Y49894193D01*
X72082366Y50494193D01*
X72582366Y50494193D01*
X72582366Y49894193D01*
G37*
%TD.AperFunction*%
%TA.AperFunction,EtchedComponent*%
%TO.C,JP5*%
G36*
X94527259Y49971871D02*
G01*
X94027259Y49971871D01*
X94027259Y50571871D01*
X94527259Y50571871D01*
X94527259Y49971871D01*
G37*
%TD.AperFunction*%
%TA.AperFunction,EtchedComponent*%
%TO.C,JP2*%
G36*
X101847181Y35459361D02*
G01*
X101347181Y35459361D01*
X101347181Y36059361D01*
X101847181Y36059361D01*
X101847181Y35459361D01*
G37*
%TD.AperFunction*%
%TD*%
D11*
%TO.P,R1,1*%
%TO.N,Net-(U1-RBIAS)*%
X79486695Y34338934D03*
%TO.P,R1,2*%
%TO.N,GND*%
X80777165Y35629404D03*
%TD*%
D12*
%TO.P,C5,1*%
%TO.N,+3V3_PHYA*%
X75587861Y24122120D03*
%TO.P,C5,2*%
%TO.N,GND*%
X74368101Y25341880D03*
%TD*%
D13*
%TO.P,JP3,1,A*%
%TO.N,Net-(JP3-A)*%
X102247181Y38299361D03*
D14*
%TO.P,JP3,2,B*%
%TO.N,Net-(JP2-B)*%
X100947181Y38299361D03*
%TD*%
D15*
%TO.P,JP4,1,A*%
%TO.N,GND*%
X71682366Y50194193D03*
D16*
%TO.P,JP4,2,B*%
%TO.N,Net-(JP4-B)*%
X72982366Y50194193D03*
%TD*%
D17*
%TO.P,J4,1,Pin_1*%
%TO.N,/Project Architecture/LAN8742A breakout/LED1*%
X101690981Y31000000D03*
D18*
%TO.P,J4,2,Pin_2*%
%TO.N,/Project Architecture/LAN8742A breakout/LED2*%
X101690981Y28460000D03*
%TD*%
D19*
%TO.P,C11,1*%
%TO.N,Net-(U1-XTAL2)*%
X75485701Y30116520D03*
%TO.P,C11,2*%
%TO.N,GND*%
X76705461Y31336280D03*
%TD*%
D20*
%TO.P,R7,1*%
%TO.N,GND*%
X94332781Y58207300D03*
%TO.P,R7,2*%
%TO.N,Net-(J1-Pad10)*%
X94332781Y56382300D03*
%TD*%
D21*
%TO.P,C10,1*%
%TO.N,Net-(U1-XTAL1{slash}CLKIN)*%
X73505061Y28135880D03*
%TO.P,C10,2*%
%TO.N,GND*%
X72285301Y26916120D03*
%TD*%
D22*
%TO.P,R9,1*%
%TO.N,+3V3_PHYA*%
X84434004Y36396720D03*
%TO.P,R9,2*%
%TO.N,/Project Architecture/LAN8742A breakout/RX_N*%
X82609004Y36396720D03*
%TD*%
D21*
%TO.P,C7,1*%
%TO.N,+3V3_PHYA*%
X76881555Y27694812D03*
%TO.P,C7,2*%
%TO.N,GND*%
X75661795Y26475052D03*
%TD*%
D22*
%TO.P,R4,1*%
%TO.N,Net-(JP3-A)*%
X102509681Y40353000D03*
%TO.P,R4,2*%
%TO.N,+3V3_PHYA*%
X100684681Y40353000D03*
%TD*%
D19*
%TO.P,C4,1*%
%TO.N,+3V3_PHYA*%
X88872719Y24714343D03*
%TO.P,C4,2*%
%TO.N,GND*%
X90092479Y25934103D03*
%TD*%
D12*
%TO.P,C6,1*%
%TO.N,+3V3_PHYA*%
X74445441Y22996951D03*
%TO.P,C6,2*%
%TO.N,GND*%
X73225681Y24216711D03*
%TD*%
D23*
%TO.P,Y1,1,1*%
%TO.N,Net-(U1-XTAL1{slash}CLKIN)*%
X68621000Y28789019D03*
%TO.P,Y1,2,2*%
%TO.N,Net-(U1-XTAL2)*%
X74984962Y35152981D03*
%TD*%
D21*
%TO.P,C8,1*%
%TO.N,+3V3_PHYA*%
X78052964Y26514034D03*
%TO.P,C8,2*%
%TO.N,GND*%
X76833204Y25294274D03*
%TD*%
D13*
%TO.P,JP5,1,A*%
%TO.N,GND*%
X94927259Y50271871D03*
D14*
%TO.P,JP5,2,B*%
%TO.N,Net-(JP5-B)*%
X93627259Y50271871D03*
%TD*%
D24*
%TO.P,U1,1,VDD2A*%
%TO.N,+3V3_PHYA*%
X82496948Y27818057D03*
%TO.P,U1,2,LED2/~{INTSEL}*%
%TO.N,Net-(JP2-B)*%
X82143395Y27464503D03*
%TO.P,U1,3,LED1/REGOFF*%
%TO.N,Net-(JP1-A)*%
X81789841Y27110950D03*
%TO.P,U1,4,XTAL2*%
%TO.N,Net-(U1-XTAL2)*%
X81436288Y26757397D03*
%TO.P,U1,5,XTAL1/CLKIN*%
%TO.N,Net-(U1-XTAL1{slash}CLKIN)*%
X81082735Y26403843D03*
%TO.P,U1,6,VDDCR*%
%TO.N,+3V3_PHYA*%
X80729181Y26050290D03*
D25*
%TO.P,U1,7,RXD1/MODE1*%
%TO.N,/Project Architecture/LAN8742A breakout/RXD1*%
X80729181Y25078018D03*
%TO.P,U1,8,RXD0/MODE0*%
%TO.N,/Project Architecture/LAN8742A breakout/RXD0*%
X81082735Y24724465D03*
%TO.P,U1,9,VDDIO*%
%TO.N,+3V3_PHYA*%
X81436288Y24370911D03*
%TO.P,U1,10,RXER/PHYAD0*%
%TO.N,/Project Architecture/LAN8742A breakout/RXER*%
X81789841Y24017358D03*
%TO.P,U1,11,CRS_DV/MODE2*%
%TO.N,/Project Architecture/LAN8742A breakout/CRS_DV*%
X82143395Y23663805D03*
%TO.P,U1,12,MDIO*%
%TO.N,/Project Architecture/LAN8742A breakout/MDIO*%
X82496948Y23310251D03*
D24*
%TO.P,U1,13,MDC*%
%TO.N,/Project Architecture/LAN8742A breakout/MDC*%
X83469220Y23310251D03*
%TO.P,U1,14,~{INT}/REFCLKO*%
%TO.N,/Project Architecture/LAN8742A breakout/REFCLKO*%
X83822773Y23663805D03*
%TO.P,U1,15,~{RST}*%
%TO.N,/Project Architecture/LAN8742A breakout/nRST*%
X84176327Y24017358D03*
%TO.P,U1,16,TXEN*%
%TO.N,/Project Architecture/LAN8742A breakout/TXEN*%
X84529880Y24370911D03*
%TO.P,U1,17,TXD0*%
%TO.N,/Project Architecture/LAN8742A breakout/TXD0*%
X84883433Y24724465D03*
%TO.P,U1,18,TXD1*%
%TO.N,/Project Architecture/LAN8742A breakout/TXD1*%
X85236987Y25078018D03*
D25*
%TO.P,U1,19,VDD1A*%
%TO.N,+3V3_PHYA*%
X85236987Y26050290D03*
%TO.P,U1,20,TXN*%
%TO.N,/Project Architecture/LAN8742A breakout/TX_N*%
X84883433Y26403843D03*
%TO.P,U1,21,TXP*%
%TO.N,/Project Architecture/LAN8742A breakout/TX_P*%
X84529880Y26757397D03*
%TO.P,U1,22,RXN*%
%TO.N,/Project Architecture/LAN8742A breakout/RX_N*%
X84176327Y27110950D03*
%TO.P,U1,23,RXP*%
%TO.N,/Project Architecture/LAN8742A breakout/RX_P*%
X83822773Y27464503D03*
%TO.P,U1,24,RBIAS*%
%TO.N,Net-(U1-RBIAS)*%
X83469220Y27818057D03*
D26*
%TO.P,U1,25,VSS*%
%TO.N,GND*%
X82983084Y26978368D03*
X82275977Y26271261D03*
X81568870Y25564154D03*
X83690191Y26271261D03*
X82983084Y25564154D03*
D27*
X82983084Y25564154D03*
D26*
X82275977Y24857047D03*
X84397298Y25564154D03*
X83690191Y24857047D03*
X82983084Y24149940D03*
%TD*%
D28*
%TO.P,SW1,1,1*%
%TO.N,GND*%
X65793981Y38500000D03*
X65793981Y45000000D03*
%TO.P,SW1,2,2*%
%TO.N,Net-(R6-Pad1)*%
X70293981Y38500000D03*
X70293981Y45000000D03*
%TD*%
D19*
%TO.P,C3,1*%
%TO.N,+3V3_PHYA*%
X87779021Y25798240D03*
%TO.P,C3,2*%
%TO.N,GND*%
X88998781Y27018000D03*
%TD*%
D17*
%TO.P,J2,1,Pin_1*%
%TO.N,/Project Architecture/LAN8742A breakout/TXD1*%
X94739181Y14622000D03*
D18*
%TO.P,J2,2,Pin_2*%
%TO.N,GND*%
X94739181Y12082000D03*
%TO.P,J2,3,Pin_3*%
%TO.N,/Project Architecture/LAN8742A breakout/TXD0*%
X92199181Y14622000D03*
%TO.P,J2,4,Pin_4*%
%TO.N,GND*%
X92199181Y12082000D03*
%TO.P,J2,5,Pin_5*%
%TO.N,/Project Architecture/LAN8742A breakout/TXEN*%
X89659181Y14622000D03*
%TO.P,J2,6,Pin_6*%
%TO.N,GND*%
X89659181Y12082000D03*
%TO.P,J2,7,Pin_7*%
%TO.N,/Project Architecture/LAN8742A breakout/REFCLKO*%
X87119181Y14622000D03*
%TO.P,J2,8,Pin_8*%
%TO.N,GND*%
X87119181Y12082000D03*
%TO.P,J2,9,Pin_9*%
%TO.N,/Project Architecture/LAN8742A breakout/MDC*%
X84579181Y14622000D03*
%TO.P,J2,10,Pin_10*%
%TO.N,GND*%
X84579181Y12082000D03*
%TO.P,J2,11,Pin_11*%
%TO.N,/Project Architecture/LAN8742A breakout/MDIO*%
X82039181Y14622000D03*
%TO.P,J2,12,Pin_12*%
%TO.N,GND*%
X82039181Y12082000D03*
%TO.P,J2,13,Pin_13*%
%TO.N,/Project Architecture/LAN8742A breakout/CRS_DV*%
X79499181Y14622000D03*
%TO.P,J2,14,Pin_14*%
%TO.N,GND*%
X79499181Y12082000D03*
%TO.P,J2,15,Pin_15*%
%TO.N,/Project Architecture/LAN8742A breakout/RXER*%
X76959181Y14622000D03*
%TO.P,J2,16,Pin_16*%
%TO.N,GND*%
X76959181Y12082000D03*
%TO.P,J2,17,Pin_17*%
%TO.N,/Project Architecture/LAN8742A breakout/RXD0*%
X74419181Y14622000D03*
%TO.P,J2,18,Pin_18*%
%TO.N,GND*%
X74419181Y12082000D03*
%TO.P,J2,19,Pin_19*%
%TO.N,/Project Architecture/LAN8742A breakout/RXD1*%
X71879181Y14622000D03*
%TO.P,J2,20,Pin_20*%
%TO.N,GND*%
X71879181Y12082000D03*
%TD*%
D29*
%TO.P,R3,1*%
%TO.N,+3V3_PHYA*%
X100684681Y42004000D03*
%TO.P,R3,2*%
%TO.N,Net-(JP1-B)*%
X102509681Y42004000D03*
%TD*%
D22*
%TO.P,R6,1*%
%TO.N,Net-(R6-Pad1)*%
X69845281Y47846000D03*
%TO.P,R6,2*%
%TO.N,/Project Architecture/LAN8742A breakout/nRST*%
X68020281Y47846000D03*
%TD*%
%TO.P,R11,1*%
%TO.N,+3V3_PHYA*%
X89634779Y36397634D03*
%TO.P,R11,2*%
%TO.N,/Project Architecture/LAN8742A breakout/TX_N*%
X87809779Y36397634D03*
%TD*%
D17*
%TO.P,J3,1,Pin_1*%
%TO.N,+3.3V*%
X101690981Y18920000D03*
D18*
%TO.P,J3,2,Pin_2*%
%TO.N,GND*%
X101690981Y21460000D03*
%TO.P,J3,3,Pin_3*%
%TO.N,/Project Architecture/LAN8742A breakout/nRST*%
X101690981Y24000000D03*
%TD*%
D22*
%TO.P,R2,1*%
%TO.N,Net-(JP2-A)*%
X102509681Y33724141D03*
%TO.P,R2,2*%
%TO.N,GND*%
X100684681Y33724141D03*
%TD*%
D13*
%TO.P,JP2,1,A*%
%TO.N,Net-(JP2-A)*%
X102247181Y35759361D03*
D14*
%TO.P,JP2,2,B*%
%TO.N,Net-(JP2-B)*%
X100947181Y35759361D03*
%TD*%
D20*
%TO.P,R8,1*%
%TO.N,GND*%
X72539581Y58156500D03*
%TO.P,R8,2*%
%TO.N,Net-(J1-Pad11)*%
X72539581Y56331500D03*
%TD*%
D30*
%TO.P,C9,1*%
%TO.N,/Project Architecture/LAN8742A breakout/nRST*%
X66392781Y47745500D03*
%TO.P,C9,2*%
%TO.N,GND*%
X66392781Y49470500D03*
%TD*%
D29*
%TO.P,R10,1*%
%TO.N,+3V3_PHYA*%
X79490409Y37961771D03*
%TO.P,R10,2*%
%TO.N,/Project Architecture/LAN8742A breakout/RX_P*%
X81315409Y37961771D03*
%TD*%
%TO.P,R5,1*%
%TO.N,/Project Architecture/LAN8742A breakout/nRST*%
X68020281Y49370000D03*
%TO.P,R5,2*%
%TO.N,+3V3_PHYA*%
X69845281Y49370000D03*
%TD*%
%TO.P,R12,1*%
%TO.N,+3V3_PHYA*%
X84702692Y37933916D03*
%TO.P,R12,2*%
%TO.N,/Project Architecture/LAN8742A breakout/TX_P*%
X86527692Y37933916D03*
%TD*%
D15*
%TO.P,JP1,1,A*%
%TO.N,Net-(JP1-A)*%
X100947181Y44036000D03*
D16*
%TO.P,JP1,2,B*%
%TO.N,Net-(JP1-B)*%
X102247181Y44036000D03*
%TD*%
D31*
%TO.P,FB1,1*%
%TO.N,+3.3V*%
X95551981Y21554000D03*
%TO.P,FB1,2*%
%TO.N,+3V3_PHYA*%
X95551981Y22954000D03*
%TD*%
D32*
%TO.P,J1,*%
%TO.N,*%
X89013981Y53296400D03*
X77583981Y53296400D03*
D33*
%TO.P,J1,1,TD+*%
%TO.N,/Project Architecture/LAN8742A breakout/TX_P*%
X87743981Y46946400D03*
D34*
%TO.P,J1,2,TD-*%
%TO.N,/Project Architecture/LAN8742A breakout/TX_N*%
X86473981Y44406400D03*
%TO.P,J1,3,RD+*%
%TO.N,/Project Architecture/LAN8742A breakout/RX_P*%
X85203981Y46946400D03*
%TO.P,J1,4,4*%
%TO.N,+3V3_PHYA*%
X83933981Y44406400D03*
%TO.P,J1,5,5*%
X82663981Y46946400D03*
%TO.P,J1,6,RD-*%
%TO.N,/Project Architecture/LAN8742A breakout/RX_N*%
X81393981Y44406400D03*
%TO.P,J1,7,NC*%
%TO.N,unconnected-(J1-NC-Pad7)*%
X80123981Y46946400D03*
%TO.P,J1,8,CHSGND*%
%TO.N,GND*%
X78853981Y44406400D03*
D35*
%TO.P,J1,9,9*%
%TO.N,/Project Architecture/LAN8742A breakout/LED1*%
X89923981Y58186400D03*
%TO.P,J1,10,10*%
%TO.N,Net-(J1-Pad10)*%
X87383981Y58186400D03*
%TO.P,J1,11,11*%
%TO.N,Net-(J1-Pad11)*%
X79203981Y58186400D03*
%TO.P,J1,12,12*%
%TO.N,/Project Architecture/LAN8742A breakout/LED2*%
X76663981Y58186400D03*
D36*
%TO.P,J1,SH1,SH1*%
%TO.N,Net-(JP5-B)*%
X91033981Y50246400D03*
%TO.P,J1,SH2,SH2*%
%TO.N,Net-(JP4-B)*%
X75553981Y50246400D03*
%TD*%
D21*
%TO.P,C1,1*%
%TO.N,+3V3_PHYA*%
X80261741Y31946160D03*
%TO.P,C1,2*%
%TO.N,GND*%
X79041981Y30726400D03*
%TD*%
%TO.P,C2,1*%
%TO.N,+3V3_PHYA*%
X81339747Y30875454D03*
%TO.P,C2,2*%
%TO.N,GND*%
X80119987Y29655694D03*
%TD*%
D37*
%TO.N,GND*%
X100002962Y42945879D03*
X97534169Y41433407D03*
X97545651Y37143655D03*
X100116249Y37104902D03*
%TO.N,+3V3_PHYA*%
X76171968Y28414813D03*
X71344081Y47998400D03*
X90675181Y36416000D03*
X90217981Y22852400D03*
X78330781Y38041600D03*
X73758781Y20668000D03*
X80448982Y23258978D03*
X79448381Y32809200D03*
X76882981Y23335000D03*
X98259981Y40327600D03*
X73758781Y21988800D03*
X96821981Y22446000D03*
%TO.N,GND*%
X80998981Y18621400D03*
X73378981Y51641400D03*
X75918981Y16081400D03*
X96238981Y26241400D03*
X75918981Y44021400D03*
X101318981Y49101400D03*
X70838981Y26241400D03*
X86078981Y38941400D03*
X96238981Y44021400D03*
X86078981Y21161400D03*
X86078981Y31321400D03*
X101318981Y51641400D03*
X78458981Y41481400D03*
X86078981Y33861400D03*
X98778981Y16081400D03*
X70838981Y36401400D03*
X78458981Y46561400D03*
X68298981Y21161400D03*
X70838981Y33861400D03*
X65758981Y16081400D03*
X70838981Y16081400D03*
X80998981Y16081400D03*
X73378981Y38941400D03*
X65758981Y46561400D03*
X88618981Y31321400D03*
X96238981Y41481400D03*
X65758981Y23701400D03*
X101318981Y46561400D03*
X93698981Y44021400D03*
X88618981Y33861400D03*
X83538981Y16081400D03*
X68298981Y54181400D03*
X93698981Y31321400D03*
X68298981Y11001400D03*
X91158981Y21161400D03*
X98778981Y21161400D03*
X65758981Y28781400D03*
X93698981Y33861400D03*
X83538981Y18621400D03*
X93698981Y18621400D03*
X88618981Y49101400D03*
X65758981Y36401400D03*
X91158981Y31321400D03*
X86078981Y16081400D03*
X73378981Y46561400D03*
X83538981Y38941400D03*
X93698981Y46561400D03*
X101318981Y16081400D03*
X68298981Y18621400D03*
X96238981Y11001400D03*
X88618981Y16081400D03*
X91158981Y54181400D03*
X91158981Y38941400D03*
X70838981Y18621400D03*
X93698981Y38941400D03*
X83538981Y51641400D03*
X91158981Y46561400D03*
X73378981Y31321400D03*
X70838981Y56721400D03*
X93698981Y41481400D03*
X65758981Y54181400D03*
X91158981Y41481400D03*
X70838981Y23701400D03*
X96238981Y46561400D03*
X65758981Y51641400D03*
X88618981Y38941400D03*
X86078981Y36401400D03*
X93698981Y54181400D03*
X93698981Y21161400D03*
X78458981Y18621400D03*
X65758981Y33861400D03*
X75918981Y38941400D03*
X73378981Y36401400D03*
X96238981Y38941400D03*
X75918981Y46561400D03*
X70838981Y51641400D03*
X80998981Y38941400D03*
X75918981Y41481400D03*
X73378981Y41481400D03*
X93698981Y26241400D03*
X98778981Y11001400D03*
X80998981Y33861400D03*
X96238981Y13541400D03*
X96238981Y51641400D03*
X65758981Y21161400D03*
X88618981Y18621400D03*
X83538981Y54181400D03*
X73378981Y54181400D03*
X78458981Y36401400D03*
X65758981Y31321400D03*
X91158981Y44021400D03*
X78458981Y16081400D03*
X80998981Y51641400D03*
X70838981Y54181400D03*
X101318981Y26241400D03*
X93698981Y51641400D03*
X96238981Y33861400D03*
X80998981Y54181400D03*
X65758981Y18621400D03*
X73378981Y44021400D03*
X91158981Y33861400D03*
X68298981Y16081400D03*
X91158981Y16081400D03*
X68298981Y51641400D03*
X96238981Y49101400D03*
X88618981Y44021400D03*
X96238981Y16081400D03*
X101318981Y54181400D03*
X65758981Y26241400D03*
X73378981Y16081400D03*
X80998981Y41481400D03*
X65758981Y41481400D03*
%TO.N,/Project Architecture/LAN8742A breakout/nRST*%
X98128981Y24020800D03*
X85466454Y22774473D03*
X68119981Y46703000D03*
%TO.N,/Project Architecture/LAN8742A breakout/RX_N*%
X82388660Y42467321D03*
%TO.N,/Project Architecture/LAN8742A breakout/TX_N*%
X87594981Y42385000D03*
%TO.N,Net-(JP1-A)*%
X80832920Y28173939D03*
X96948981Y31463000D03*
%TO.N,Net-(JP2-B)*%
X97355568Y30675413D03*
X81671068Y28579913D03*
%TD*%
D38*
%TO.N,Net-(JP1-A)*%
X96893981Y42076000D02*
X98853981Y44036000D01*
X96893981Y31518000D02*
X96893981Y42076000D01*
X98853981Y44036000D02*
X101012981Y44036000D01*
X96948981Y31463000D02*
X96893981Y31518000D01*
D39*
%TO.N,+3V3_PHYA*%
X76171968Y28414813D02*
X76171968Y28404399D01*
D38*
X80448982Y23383605D02*
X81436288Y24370911D01*
X75587861Y24122120D02*
X76374981Y23335000D01*
X85236987Y26050290D02*
X86098077Y25189200D01*
X82724981Y28339173D02*
X82724981Y28046090D01*
X78052964Y26514034D02*
X78945998Y25621000D01*
X100750481Y42004000D02*
X100750481Y40353000D01*
D39*
X84702692Y37933916D02*
X84702692Y41110892D01*
D38*
X76881555Y27694812D02*
X76881555Y27685443D01*
D39*
X88862918Y24714343D02*
X87779021Y25798240D01*
D40*
X98259981Y40327600D02*
X100725081Y40327600D01*
D39*
X89653145Y36416000D02*
X89634779Y36397634D01*
D38*
X82089981Y28974173D02*
X82724981Y28339173D01*
D39*
X79448381Y32809200D02*
X79448381Y32766820D01*
D38*
X87169981Y25189200D02*
X87779021Y25798240D01*
D40*
X78330781Y38041600D02*
X79410580Y38041600D01*
D38*
X76374981Y23335000D02*
X76882981Y23335000D01*
X78945998Y25621000D02*
X80184981Y25621000D01*
D39*
X84434004Y37665228D02*
X84702692Y37933916D01*
D38*
X80448982Y23258978D02*
X80448982Y23383605D01*
X74445441Y22996951D02*
X74462692Y22996951D01*
D40*
X96313981Y22954000D02*
X96821981Y22446000D01*
D38*
X80184981Y25621000D02*
X80614271Y26050290D01*
D40*
X71344081Y47998400D02*
X69972481Y49370000D01*
D39*
X84702692Y41110892D02*
X83933981Y41879603D01*
X83933981Y41879603D02*
X83933981Y44406400D01*
D40*
X73758781Y21988800D02*
X73758781Y22310291D01*
X90217981Y22852400D02*
X90217981Y23369081D01*
X73758781Y22310291D02*
X74445441Y22996951D01*
X73758781Y20668000D02*
X73758781Y21988800D01*
D38*
X80614271Y26050290D02*
X80729181Y26050290D01*
D40*
X90217981Y23369081D02*
X88872719Y24714343D01*
D39*
X88872719Y24714343D02*
X88862918Y24714343D01*
X79448381Y32766820D02*
X81339747Y30875454D01*
D40*
X100725081Y40327600D02*
X100750481Y40353000D01*
D39*
X84434004Y36396720D02*
X84434004Y37665228D01*
X76171968Y28404399D02*
X76881555Y27694812D01*
D38*
X82724981Y28046090D02*
X82496948Y27818057D01*
X81498879Y30800147D02*
X82089981Y30209045D01*
X82089981Y30209045D02*
X82089981Y28974173D01*
D39*
X90675181Y36416000D02*
X89653145Y36416000D01*
D40*
X79410580Y38041600D02*
X79490409Y37961771D01*
D38*
X74462692Y22996951D02*
X75587861Y24122120D01*
X86098077Y25189200D02*
X87169981Y25189200D01*
X76881555Y27685443D02*
X78052964Y26514034D01*
D40*
X95551981Y22954000D02*
X96313981Y22954000D01*
D38*
%TO.N,/Project Architecture/LAN8742A breakout/nRST*%
X85466454Y22774473D02*
X84223569Y24017358D01*
X84223569Y24017358D02*
X84176327Y24017358D01*
X68147481Y47846000D02*
X68147481Y46730500D01*
D39*
X98149781Y24000000D02*
X98128981Y24020800D01*
D38*
X68147481Y46730500D02*
X68119981Y46703000D01*
X66620481Y47846000D02*
X66519981Y47745500D01*
X68147481Y47846000D02*
X66620481Y47846000D01*
X68147481Y47846000D02*
X68147481Y49370000D01*
D39*
X101690981Y24000000D02*
X98149781Y24000000D01*
D38*
%TO.N,Net-(U1-XTAL1{slash}CLKIN)*%
X73505061Y28135880D02*
X75079861Y28135880D01*
X72851922Y28789019D02*
X73505061Y28135880D01*
X78430178Y29056400D02*
X81082735Y26403843D01*
X75079861Y28135880D02*
X76000381Y29056400D01*
X68621000Y28789019D02*
X72851922Y28789019D01*
X76000381Y29056400D02*
X78430178Y29056400D01*
%TO.N,Net-(U1-XTAL2)*%
X79600885Y28592800D02*
X81436288Y26757397D01*
X76145821Y29456400D02*
X78737181Y29456400D01*
X75485701Y30116520D02*
X76145821Y29456400D01*
X74984962Y35152981D02*
X74984962Y30617259D01*
X78737181Y29456400D02*
X79600781Y28592800D01*
X79600781Y28592800D02*
X79600885Y28592800D01*
X74984962Y30617259D02*
X75485701Y30116520D01*
D40*
%TO.N,Net-(JP5-B)*%
X91033981Y50246400D02*
X93601788Y50246400D01*
X93601788Y50246400D02*
X93627259Y50271871D01*
D41*
%TO.N,/Project Architecture/LAN8742A breakout/RX_N*%
X82628381Y40112259D02*
X82421581Y40112259D01*
X82239981Y39839859D02*
X82239981Y34244738D01*
X82239981Y42318642D02*
X82239981Y41655859D01*
X82421581Y40566259D02*
X82628381Y40566259D01*
X84906981Y27841604D02*
X84176327Y27110950D01*
X82628381Y41020259D02*
X82421581Y41020259D01*
X82239981Y39930659D02*
X82239981Y39839859D01*
X82809981Y41292659D02*
X82809981Y41201859D01*
X82239981Y34244738D02*
X84906981Y31577738D01*
X84906981Y31577738D02*
X84906981Y27841604D01*
X82809981Y40384659D02*
X82809981Y40293859D01*
X82388660Y42467321D02*
X82239981Y42318642D01*
X82239981Y40838659D02*
X82239981Y40747859D01*
X82421581Y41474259D02*
X82628381Y41474259D01*
X82239981Y40747859D02*
G75*
G03*
X82421581Y40566281I181619J41D01*
G01*
X82809981Y41201859D02*
G75*
G02*
X82628381Y41020319I-181581J41D01*
G01*
X82628381Y40566259D02*
G75*
G02*
X82809959Y40384659I19J-181559D01*
G01*
X82809981Y40293859D02*
G75*
G02*
X82628381Y40112319I-181581J41D01*
G01*
X82628381Y41474259D02*
G75*
G02*
X82809959Y41292659I19J-181559D01*
G01*
X82421581Y40112259D02*
G75*
G03*
X82240041Y39930659I19J-181559D01*
G01*
X82421581Y41020259D02*
G75*
G03*
X82240041Y40838659I19J-181559D01*
G01*
X82239981Y41655859D02*
G75*
G03*
X82421581Y41474281I181619J41D01*
G01*
%TO.N,/Project Architecture/LAN8742A breakout/TX_P*%
X86694580Y40333400D02*
X86711380Y40333400D01*
X86512980Y41513800D02*
X86512980Y41423000D01*
X86892981Y38956000D02*
X86892981Y29158682D01*
X86892980Y40061000D02*
X86892980Y38956001D01*
X86694580Y41241400D02*
X86711380Y41241400D01*
X87743981Y46946400D02*
X87743981Y43594000D01*
X86892980Y41059800D02*
X86892980Y40969000D01*
X87743981Y43594000D02*
X86892980Y42742999D01*
X86711380Y41695400D02*
X86694580Y41695400D01*
X86892980Y40151800D02*
X86892980Y40061000D01*
X86512980Y40605800D02*
X86512980Y40515000D01*
X86892981Y29158682D02*
X84529880Y26795581D01*
X86711380Y40787400D02*
X86694580Y40787400D01*
X86892980Y42742999D02*
X86892980Y41877000D01*
X84529880Y26795581D02*
X84529880Y26757397D01*
X86892980Y38956001D02*
X86892981Y38956000D01*
X86892980Y40969000D02*
G75*
G02*
X86711380Y40787420I-181580J0D01*
G01*
X86892980Y41877000D02*
G75*
G02*
X86711380Y41695420I-181580J0D01*
G01*
X86512980Y41423000D02*
G75*
G03*
X86694580Y41241380I181620J0D01*
G01*
X86711380Y41241400D02*
G75*
G02*
X86893000Y41059800I20J-181600D01*
G01*
X86512980Y40515000D02*
G75*
G03*
X86694580Y40333380I181620J0D01*
G01*
X86694580Y40787400D02*
G75*
G03*
X86513000Y40605800I20J-181600D01*
G01*
X86694580Y41695400D02*
G75*
G03*
X86513000Y41513800I20J-181600D01*
G01*
X86711380Y40333400D02*
G75*
G02*
X86893000Y40151800I20J-181600D01*
G01*
D40*
%TO.N,Net-(JP4-B)*%
X72982366Y50194193D02*
X75501774Y50194193D01*
X75501774Y50194193D02*
X75553981Y50246400D01*
D39*
%TO.N,Net-(J1-Pad10)*%
X94332781Y56382300D02*
X89188081Y56382300D01*
X89188081Y56382300D02*
X87383981Y58186400D01*
%TO.N,Net-(J1-Pad11)*%
X79203981Y58186400D02*
X77349081Y56331500D01*
X77349081Y56331500D02*
X72539581Y56331500D01*
D41*
%TO.N,/Project Architecture/LAN8742A breakout/TX_N*%
X87446982Y39858181D02*
X87446982Y39767381D01*
X87735382Y40039781D02*
X87628582Y40039781D01*
X87628582Y41401781D02*
X87735382Y41401781D01*
X87446982Y38956001D02*
X87446981Y38956000D01*
X87446982Y42237001D02*
X87446982Y41583381D01*
X87735382Y40947781D02*
X87628582Y40947781D01*
X87594981Y42385000D02*
X87446982Y42237001D01*
X87446982Y40766181D02*
X87446982Y40675381D01*
X87446982Y39767381D02*
X87446982Y38956001D01*
X87446981Y38956000D02*
X87446981Y28929206D01*
X87628582Y40493781D02*
X87735382Y40493781D01*
X87446981Y28929206D02*
X84921618Y26403843D01*
X87916982Y41220181D02*
X87916982Y41129381D01*
X87916982Y40312181D02*
X87916982Y40221381D01*
X84921618Y26403843D02*
X84883433Y26403843D01*
X87916982Y40221381D02*
G75*
G02*
X87735382Y40039818I-181582J19D01*
G01*
X87628582Y40947781D02*
G75*
G03*
X87447019Y40766181I18J-181581D01*
G01*
X87446982Y41583381D02*
G75*
G03*
X87628582Y41401782I181618J19D01*
G01*
X87916982Y41129381D02*
G75*
G02*
X87735382Y40947818I-181582J19D01*
G01*
X87628582Y40039781D02*
G75*
G03*
X87447019Y39858181I18J-181581D01*
G01*
X87735382Y40493781D02*
G75*
G02*
X87916981Y40312181I18J-181581D01*
G01*
X87735382Y41401781D02*
G75*
G02*
X87916981Y41220181I18J-181581D01*
G01*
X87446982Y40675381D02*
G75*
G03*
X87628582Y40493782I181618J19D01*
G01*
%TO.N,/Project Architecture/LAN8742A breakout/RX_P*%
X84880162Y46946400D02*
X85203981Y46946400D01*
X84352981Y31348262D02*
X81685981Y34015262D01*
X81685981Y34015262D02*
X81685981Y42616000D01*
X82597981Y44664219D02*
X84880162Y46946400D01*
X83822773Y27464503D02*
X84352981Y27994711D01*
X84352981Y27994711D02*
X84352981Y31348262D01*
X81685981Y42616000D02*
X82597981Y43528000D01*
X82597981Y43528000D02*
X82597981Y44664219D01*
D42*
%TO.N,/Project Architecture/LAN8742A breakout/REFCLKO*%
X85119181Y20178800D02*
X87119181Y18178800D01*
D43*
X84498884Y22987694D02*
X83822773Y23663805D01*
D42*
X84743981Y22305392D02*
X85119181Y21930192D01*
X84743981Y22770954D02*
X84743981Y22305392D01*
X87119181Y18178800D02*
X87119181Y14622000D01*
D43*
X84527241Y22987694D02*
X84498884Y22987694D01*
D42*
X84527241Y22987694D02*
X84743981Y22770954D01*
X85119181Y21930192D02*
X85119181Y20178800D01*
D40*
%TO.N,+3.3V*%
X95551981Y21554000D02*
X95551981Y20414000D01*
X95551981Y20414000D02*
X97075981Y18890000D01*
X97075981Y18890000D02*
X101660981Y18890000D01*
X101660981Y18890000D02*
X101690981Y18920000D01*
D38*
%TO.N,Net-(JP1-A)*%
X80832920Y28173939D02*
X80832920Y28067871D01*
X80832920Y28067871D02*
X81789841Y27110950D01*
%TO.N,Net-(JP1-B)*%
X102312981Y44036000D02*
X102312981Y42266500D01*
X102312981Y42266500D02*
X102575481Y42004000D01*
%TO.N,Net-(JP2-B)*%
X99568942Y35759361D02*
X101012981Y35759361D01*
X81671068Y27936830D02*
X82143395Y27464503D01*
X97355568Y30675413D02*
X97355568Y31056414D01*
X101012981Y38299361D02*
X101012981Y35759361D01*
X97355568Y31056414D02*
X97523981Y31224827D01*
X97523981Y33714400D02*
X99568942Y35759361D01*
X81671068Y28579913D02*
X81671068Y27936830D01*
X97523981Y31224827D02*
X97523981Y33714400D01*
%TO.N,Net-(JP2-A)*%
X102312981Y33986641D02*
X102575481Y33724141D01*
X102312981Y35759361D02*
X102312981Y33986641D01*
%TO.N,Net-(JP3-A)*%
X102312981Y40090500D02*
X102575481Y40353000D01*
X102312981Y38299361D02*
X102312981Y40090500D01*
%TO.N,Net-(U1-RBIAS)*%
X79605707Y34074274D02*
X82597981Y31082000D01*
X82597981Y31082000D02*
X82597981Y29050000D01*
X82597981Y29050000D02*
X83124981Y28523000D01*
X83124981Y28523000D02*
X83124981Y28162296D01*
X79250181Y34074274D02*
X79605707Y34074274D01*
X83124981Y28162296D02*
X83469220Y27818057D01*
%TO.N,Net-(R6-Pad1)*%
X70293981Y45000000D02*
X70293981Y47397300D01*
D39*
X70293981Y38500000D02*
X70293981Y45000000D01*
D38*
X70293981Y47397300D02*
X69845281Y47846000D01*
D43*
%TO.N,/Project Architecture/LAN8742A breakout/TXD0*%
X84883433Y24724465D02*
X85314898Y24293000D01*
D42*
X92199181Y14622000D02*
X92199181Y17734109D01*
D43*
X85640290Y24293000D02*
X86058635Y23874655D01*
X85314898Y24293000D02*
X85640290Y24293000D01*
D42*
X92199181Y17734109D02*
X86058635Y23874655D01*
%TO.N,/Project Architecture/LAN8742A breakout/MDC*%
X84579181Y14622000D02*
X84579181Y21176000D01*
D39*
X84579181Y21734800D02*
X84579181Y21176000D01*
X84248981Y22065000D02*
X84579181Y21734800D01*
D43*
X84248981Y22065000D02*
X84248981Y22530490D01*
X84248981Y22530490D02*
X83469220Y23310251D01*
D39*
%TO.N,/Project Architecture/LAN8742A breakout/CRS_DV*%
X81455819Y22318162D02*
X81593981Y22456324D01*
D43*
X81593981Y23114391D02*
X82143395Y23663805D01*
D39*
X81593981Y22456324D02*
X81593981Y23114391D01*
D42*
X79499181Y20361524D02*
X81455819Y22318162D01*
X79499181Y14622000D02*
X79499181Y20361524D01*
D43*
%TO.N,/Project Architecture/LAN8742A breakout/MDIO*%
X82496948Y23310251D02*
X82093981Y22907284D01*
D39*
X82093981Y22907284D02*
X82093981Y21942000D01*
D42*
X82039181Y14622000D02*
X82093981Y14676800D01*
X82093981Y14676800D02*
X82093981Y21832400D01*
%TO.N,/Project Architecture/LAN8742A breakout/RXD1*%
X79901140Y24253841D02*
X79706822Y24253841D01*
D43*
X79901140Y24253841D02*
X80725317Y25078018D01*
D42*
X79706822Y24253841D02*
X71879181Y16426200D01*
D43*
X80725317Y25078018D02*
X80729181Y25078018D01*
D42*
X71879181Y16426200D02*
X71879181Y14622000D01*
%TO.N,/Project Architecture/LAN8742A breakout/RXD0*%
X74419181Y18202524D02*
X74419181Y14622000D01*
D43*
X79975498Y23758841D02*
X80117111Y23758841D01*
D42*
X79804819Y23588162D02*
X74419181Y18202524D01*
D43*
X79804819Y23588162D02*
X79975498Y23758841D01*
X80117111Y23758841D02*
X81082735Y24724465D01*
D42*
%TO.N,/Project Architecture/LAN8742A breakout/TXD1*%
X94739181Y14622000D02*
X94739181Y15957785D01*
D43*
X85953966Y24743000D02*
X86567473Y24129493D01*
X85236987Y25078018D02*
X85572005Y24743000D01*
D42*
X94739181Y15957785D02*
X86567473Y24129493D01*
D43*
X85572005Y24743000D02*
X85953966Y24743000D01*
D42*
%TO.N,/Project Architecture/LAN8742A breakout/TXEN*%
X89659181Y14622000D02*
X89659181Y19510433D01*
D43*
X84529880Y24370911D02*
X85057791Y23843000D01*
X85057791Y23843000D02*
X85326614Y23843000D01*
D42*
X89659181Y19510433D02*
X85684211Y23485403D01*
D43*
X85326614Y23843000D02*
X85684211Y23485403D01*
D42*
%TO.N,/Project Architecture/LAN8742A breakout/RXER*%
X76959181Y14622000D02*
X76959181Y18585200D01*
X76959181Y18585200D02*
X81073981Y22700000D01*
D39*
X81073981Y22700000D02*
X81073981Y23301498D01*
D43*
X81073981Y23301498D02*
X81789841Y24017358D01*
%TD*%
%TA.AperFunction,Conductor*%
%TO.N,GND*%
G36*
X73953256Y12274993D02*
G01*
X73919181Y12147826D01*
X73919181Y12016174D01*
X73953256Y11889007D01*
X73986169Y11832000D01*
X72312193Y11832000D01*
X72345106Y11889007D01*
X72379181Y12016174D01*
X72379181Y12147826D01*
X72345106Y12274993D01*
X72312193Y12332000D01*
X73986169Y12332000D01*
X73953256Y12274993D01*
G37*
%TD.AperFunction*%
%TA.AperFunction,Conductor*%
G36*
X76493256Y12274993D02*
G01*
X76459181Y12147826D01*
X76459181Y12016174D01*
X76493256Y11889007D01*
X76526169Y11832000D01*
X74852193Y11832000D01*
X74885106Y11889007D01*
X74919181Y12016174D01*
X74919181Y12147826D01*
X74885106Y12274993D01*
X74852193Y12332000D01*
X76526169Y12332000D01*
X76493256Y12274993D01*
G37*
%TD.AperFunction*%
%TA.AperFunction,Conductor*%
G36*
X79033256Y12274993D02*
G01*
X78999181Y12147826D01*
X78999181Y12016174D01*
X79033256Y11889007D01*
X79066169Y11832000D01*
X77392193Y11832000D01*
X77425106Y11889007D01*
X77459181Y12016174D01*
X77459181Y12147826D01*
X77425106Y12274993D01*
X77392193Y12332000D01*
X79066169Y12332000D01*
X79033256Y12274993D01*
G37*
%TD.AperFunction*%
%TA.AperFunction,Conductor*%
G36*
X81573256Y12274993D02*
G01*
X81539181Y12147826D01*
X81539181Y12016174D01*
X81573256Y11889007D01*
X81606169Y11832000D01*
X79932193Y11832000D01*
X79965106Y11889007D01*
X79999181Y12016174D01*
X79999181Y12147826D01*
X79965106Y12274993D01*
X79932193Y12332000D01*
X81606169Y12332000D01*
X81573256Y12274993D01*
G37*
%TD.AperFunction*%
%TA.AperFunction,Conductor*%
G36*
X84113256Y12274993D02*
G01*
X84079181Y12147826D01*
X84079181Y12016174D01*
X84113256Y11889007D01*
X84146169Y11832000D01*
X82472193Y11832000D01*
X82505106Y11889007D01*
X82539181Y12016174D01*
X82539181Y12147826D01*
X82505106Y12274993D01*
X82472193Y12332000D01*
X84146169Y12332000D01*
X84113256Y12274993D01*
G37*
%TD.AperFunction*%
%TA.AperFunction,Conductor*%
G36*
X86653256Y12274993D02*
G01*
X86619181Y12147826D01*
X86619181Y12016174D01*
X86653256Y11889007D01*
X86686169Y11832000D01*
X85012193Y11832000D01*
X85045106Y11889007D01*
X85079181Y12016174D01*
X85079181Y12147826D01*
X85045106Y12274993D01*
X85012193Y12332000D01*
X86686169Y12332000D01*
X86653256Y12274993D01*
G37*
%TD.AperFunction*%
%TA.AperFunction,Conductor*%
G36*
X89193256Y12274993D02*
G01*
X89159181Y12147826D01*
X89159181Y12016174D01*
X89193256Y11889007D01*
X89226169Y11832000D01*
X87552193Y11832000D01*
X87585106Y11889007D01*
X87619181Y12016174D01*
X87619181Y12147826D01*
X87585106Y12274993D01*
X87552193Y12332000D01*
X89226169Y12332000D01*
X89193256Y12274993D01*
G37*
%TD.AperFunction*%
%TA.AperFunction,Conductor*%
G36*
X91733256Y12274993D02*
G01*
X91699181Y12147826D01*
X91699181Y12016174D01*
X91733256Y11889007D01*
X91766169Y11832000D01*
X90092193Y11832000D01*
X90125106Y11889007D01*
X90159181Y12016174D01*
X90159181Y12147826D01*
X90125106Y12274993D01*
X90092193Y12332000D01*
X91766169Y12332000D01*
X91733256Y12274993D01*
G37*
%TD.AperFunction*%
%TA.AperFunction,Conductor*%
G36*
X94273256Y12274993D02*
G01*
X94239181Y12147826D01*
X94239181Y12016174D01*
X94273256Y11889007D01*
X94306169Y11832000D01*
X92632193Y11832000D01*
X92665106Y11889007D01*
X92699181Y12016174D01*
X92699181Y12147826D01*
X92665106Y12274993D01*
X92632193Y12332000D01*
X94306169Y12332000D01*
X94273256Y12274993D01*
G37*
%TD.AperFunction*%
%TA.AperFunction,Conductor*%
G36*
X73968015Y17888553D02*
G01*
X74023948Y17846681D01*
X74048365Y17781217D01*
X74048681Y17772371D01*
X74048681Y15689436D01*
X74028996Y15622397D01*
X73983135Y15580079D01*
X73832731Y15499685D01*
X73832729Y15499684D01*
X73832728Y15499683D01*
X73672770Y15368411D01*
X73541498Y15208453D01*
X73443950Y15025957D01*
X73383880Y14827933D01*
X73363598Y14622000D01*
X73383880Y14416068D01*
X73383881Y14416066D01*
X73443949Y14218046D01*
X73541496Y14035550D01*
X73541498Y14035548D01*
X73672770Y13875590D01*
X73767246Y13798057D01*
X73832731Y13744315D01*
X74015227Y13646768D01*
X74081732Y13626595D01*
X74140170Y13588298D01*
X74168627Y13524486D01*
X74158068Y13455419D01*
X74111844Y13403025D01*
X74077831Y13388159D01*
X73955695Y13355433D01*
X73955688Y13355430D01*
X73741603Y13255601D01*
X73741601Y13255600D01*
X73548107Y13120114D01*
X73548101Y13120109D01*
X73381072Y12953080D01*
X73381071Y12953078D01*
X73250756Y12766969D01*
X73196179Y12723345D01*
X73126680Y12716152D01*
X73064326Y12747674D01*
X73047606Y12766969D01*
X72917290Y12953078D01*
X72917289Y12953080D01*
X72750263Y13120106D01*
X72556759Y13255601D01*
X72342673Y13355430D01*
X72342667Y13355433D01*
X72220530Y13388159D01*
X72160870Y13424524D01*
X72130341Y13487371D01*
X72138636Y13556747D01*
X72183121Y13610625D01*
X72216625Y13626593D01*
X72283135Y13646768D01*
X72465631Y13744315D01*
X72625591Y13875590D01*
X72756866Y14035550D01*
X72854413Y14218046D01*
X72914481Y14416066D01*
X72934764Y14622000D01*
X72914481Y14827934D01*
X72854413Y15025954D01*
X72756866Y15208450D01*
X72704883Y15271791D01*
X72625591Y15368411D01*
X72475302Y15491748D01*
X72465631Y15499685D01*
X72315226Y15580079D01*
X72265383Y15629041D01*
X72249681Y15689436D01*
X72249681Y16221371D01*
X72269366Y16288410D01*
X72286000Y16309052D01*
X73837000Y17860052D01*
X73898323Y17893537D01*
X73968015Y17888553D01*
G37*
%TD.AperFunction*%
%TA.AperFunction,Conductor*%
G36*
X79953971Y23110836D02*
G01*
X80009904Y23068964D01*
X80023427Y23046172D01*
X80044852Y22999260D01*
X80044853Y22999259D01*
X80044854Y22999257D01*
X80134391Y22895925D01*
X80134395Y22895921D01*
X80181933Y22865371D01*
X80249119Y22822194D01*
X80249423Y22821999D01*
X80375568Y22784960D01*
X80434346Y22747186D01*
X80463372Y22683631D01*
X80453429Y22614472D01*
X80428315Y22578302D01*
X76662709Y18812696D01*
X76662705Y18812690D01*
X76638318Y18770452D01*
X76638319Y18770451D01*
X76613930Y18728209D01*
X76613930Y18728208D01*
X76588681Y18633977D01*
X76588681Y15689436D01*
X76568996Y15622397D01*
X76523135Y15580079D01*
X76372731Y15499685D01*
X76372729Y15499684D01*
X76372728Y15499683D01*
X76212770Y15368411D01*
X76081498Y15208453D01*
X75983950Y15025957D01*
X75923880Y14827933D01*
X75903598Y14622000D01*
X75923880Y14416068D01*
X75923881Y14416066D01*
X75983949Y14218046D01*
X76081496Y14035550D01*
X76081498Y14035548D01*
X76212770Y13875590D01*
X76307246Y13798057D01*
X76372731Y13744315D01*
X76555227Y13646768D01*
X76621732Y13626595D01*
X76680170Y13588298D01*
X76708627Y13524486D01*
X76698068Y13455419D01*
X76651844Y13403025D01*
X76617831Y13388159D01*
X76495695Y13355433D01*
X76495688Y13355430D01*
X76281603Y13255601D01*
X76281601Y13255600D01*
X76088107Y13120114D01*
X76088101Y13120109D01*
X75921072Y12953080D01*
X75921071Y12953078D01*
X75790756Y12766969D01*
X75736179Y12723345D01*
X75666680Y12716152D01*
X75604326Y12747674D01*
X75587606Y12766969D01*
X75457290Y12953078D01*
X75457289Y12953080D01*
X75290263Y13120106D01*
X75096759Y13255601D01*
X74882673Y13355430D01*
X74882667Y13355433D01*
X74760530Y13388159D01*
X74700870Y13424524D01*
X74670341Y13487371D01*
X74678636Y13556747D01*
X74723121Y13610625D01*
X74756625Y13626593D01*
X74823135Y13646768D01*
X75005631Y13744315D01*
X75165591Y13875590D01*
X75296866Y14035550D01*
X75394413Y14218046D01*
X75454481Y14416066D01*
X75474764Y14622000D01*
X75454481Y14827934D01*
X75394413Y15025954D01*
X75296866Y15208450D01*
X75244883Y15271791D01*
X75165591Y15368411D01*
X75015302Y15491748D01*
X75005631Y15499685D01*
X74855226Y15580079D01*
X74805383Y15629041D01*
X74789681Y15689436D01*
X74789681Y17997697D01*
X74809366Y18064736D01*
X74825995Y18085373D01*
X79822958Y23082337D01*
X79884279Y23115820D01*
X79953971Y23110836D01*
G37*
%TD.AperFunction*%
%TA.AperFunction,Conductor*%
G36*
X79048015Y20047554D02*
G01*
X79103948Y20005682D01*
X79128365Y19940218D01*
X79128681Y19931372D01*
X79128681Y15689436D01*
X79108996Y15622397D01*
X79063135Y15580079D01*
X78912731Y15499685D01*
X78912729Y15499684D01*
X78912728Y15499683D01*
X78752770Y15368411D01*
X78621498Y15208453D01*
X78523950Y15025957D01*
X78463880Y14827933D01*
X78443598Y14622000D01*
X78463880Y14416068D01*
X78463881Y14416066D01*
X78523949Y14218046D01*
X78621496Y14035550D01*
X78621498Y14035548D01*
X78752770Y13875590D01*
X78847246Y13798057D01*
X78912731Y13744315D01*
X79095227Y13646768D01*
X79161732Y13626595D01*
X79220170Y13588298D01*
X79248627Y13524486D01*
X79238068Y13455419D01*
X79191844Y13403025D01*
X79157831Y13388159D01*
X79035695Y13355433D01*
X79035688Y13355430D01*
X78821603Y13255601D01*
X78821601Y13255600D01*
X78628107Y13120114D01*
X78628101Y13120109D01*
X78461072Y12953080D01*
X78461071Y12953078D01*
X78330756Y12766969D01*
X78276179Y12723345D01*
X78206680Y12716152D01*
X78144326Y12747674D01*
X78127606Y12766969D01*
X77997290Y12953078D01*
X77997289Y12953080D01*
X77830263Y13120106D01*
X77636759Y13255601D01*
X77422673Y13355430D01*
X77422667Y13355433D01*
X77300530Y13388159D01*
X77240870Y13424524D01*
X77210341Y13487371D01*
X77218636Y13556747D01*
X77263121Y13610625D01*
X77296625Y13626593D01*
X77363135Y13646768D01*
X77545631Y13744315D01*
X77705591Y13875590D01*
X77836866Y14035550D01*
X77934413Y14218046D01*
X77994481Y14416066D01*
X78014764Y14622000D01*
X77994481Y14827934D01*
X77934413Y15025954D01*
X77836866Y15208450D01*
X77784883Y15271791D01*
X77705591Y15368411D01*
X77555302Y15491748D01*
X77545631Y15499685D01*
X77395226Y15580079D01*
X77345383Y15629041D01*
X77329681Y15689436D01*
X77329681Y18380372D01*
X77349366Y18447411D01*
X77366000Y18468053D01*
X78917000Y20019053D01*
X78978323Y20052538D01*
X79048015Y20047554D01*
G37*
%TD.AperFunction*%
%TA.AperFunction,Conductor*%
G36*
X81642815Y21878677D02*
G01*
X81698748Y21836805D01*
X81723165Y21771341D01*
X81723481Y21762495D01*
X81723481Y15715969D01*
X81703796Y15648930D01*
X81650992Y15603175D01*
X81635493Y15597314D01*
X81635232Y15597235D01*
X81613882Y15585823D01*
X81452731Y15499685D01*
X81452729Y15499684D01*
X81452728Y15499683D01*
X81292770Y15368411D01*
X81161498Y15208453D01*
X81063950Y15025957D01*
X81003880Y14827933D01*
X80983598Y14622000D01*
X81003880Y14416068D01*
X81003881Y14416066D01*
X81063949Y14218046D01*
X81161496Y14035550D01*
X81161498Y14035548D01*
X81292770Y13875590D01*
X81387246Y13798057D01*
X81452731Y13744315D01*
X81635227Y13646768D01*
X81701732Y13626595D01*
X81760170Y13588298D01*
X81788627Y13524486D01*
X81778068Y13455419D01*
X81731844Y13403025D01*
X81697831Y13388159D01*
X81575695Y13355433D01*
X81575688Y13355430D01*
X81361603Y13255601D01*
X81361601Y13255600D01*
X81168107Y13120114D01*
X81168101Y13120109D01*
X81001072Y12953080D01*
X81001071Y12953078D01*
X80870756Y12766969D01*
X80816179Y12723345D01*
X80746680Y12716152D01*
X80684326Y12747674D01*
X80667606Y12766969D01*
X80537290Y12953078D01*
X80537289Y12953080D01*
X80370263Y13120106D01*
X80176759Y13255601D01*
X79962673Y13355430D01*
X79962667Y13355433D01*
X79840530Y13388159D01*
X79780870Y13424524D01*
X79750341Y13487371D01*
X79758636Y13556747D01*
X79803121Y13610625D01*
X79836625Y13626593D01*
X79903135Y13646768D01*
X80085631Y13744315D01*
X80245591Y13875590D01*
X80376866Y14035550D01*
X80474413Y14218046D01*
X80534481Y14416066D01*
X80554764Y14622000D01*
X80534481Y14827934D01*
X80474413Y15025954D01*
X80376866Y15208450D01*
X80324883Y15271791D01*
X80245591Y15368411D01*
X80095302Y15491748D01*
X80085631Y15499685D01*
X79935226Y15580079D01*
X79885383Y15629041D01*
X79869681Y15689436D01*
X79869681Y20156695D01*
X79889366Y20223734D01*
X79906000Y20244376D01*
X81511800Y21850176D01*
X81573123Y21883661D01*
X81642815Y21878677D01*
G37*
%TD.AperFunction*%
%TA.AperFunction,Conductor*%
G36*
X83026417Y23276882D02*
G01*
X83070762Y23248384D01*
X83201687Y23117459D01*
X83201700Y23117444D01*
X83208754Y23110390D01*
X83208755Y23110389D01*
X83552985Y22766159D01*
X83887162Y22431983D01*
X83920647Y22370660D01*
X83923481Y22344302D01*
X83923481Y22220772D01*
X83919256Y22188680D01*
X83898482Y22111150D01*
X83898482Y22018851D01*
X83922365Y21929715D01*
X83922366Y21929714D01*
X83922367Y21929712D01*
X83966392Y21853458D01*
X83968512Y21849787D01*
X84192362Y21625938D01*
X84225847Y21564615D01*
X84228681Y21538257D01*
X84228681Y21315744D01*
X84224456Y21283652D01*
X84208681Y21224779D01*
X84208681Y15689436D01*
X84188996Y15622397D01*
X84143135Y15580079D01*
X83992731Y15499685D01*
X83992729Y15499684D01*
X83992728Y15499683D01*
X83832770Y15368411D01*
X83701498Y15208453D01*
X83603950Y15025957D01*
X83543880Y14827933D01*
X83523598Y14622000D01*
X83543880Y14416068D01*
X83543881Y14416066D01*
X83603949Y14218046D01*
X83701496Y14035550D01*
X83701498Y14035548D01*
X83832770Y13875590D01*
X83927246Y13798057D01*
X83992731Y13744315D01*
X84175227Y13646768D01*
X84241732Y13626595D01*
X84300170Y13588298D01*
X84328627Y13524486D01*
X84318068Y13455419D01*
X84271844Y13403025D01*
X84237831Y13388159D01*
X84115695Y13355433D01*
X84115688Y13355430D01*
X83901603Y13255601D01*
X83901601Y13255600D01*
X83708107Y13120114D01*
X83708101Y13120109D01*
X83541072Y12953080D01*
X83541071Y12953078D01*
X83410756Y12766969D01*
X83356179Y12723345D01*
X83286680Y12716152D01*
X83224326Y12747674D01*
X83207606Y12766969D01*
X83077290Y12953078D01*
X83077289Y12953080D01*
X82910263Y13120106D01*
X82716759Y13255601D01*
X82502673Y13355430D01*
X82502667Y13355433D01*
X82380530Y13388159D01*
X82320870Y13424524D01*
X82290341Y13487371D01*
X82298636Y13556747D01*
X82343121Y13610625D01*
X82376625Y13626593D01*
X82443135Y13646768D01*
X82625631Y13744315D01*
X82785591Y13875590D01*
X82916866Y14035550D01*
X83014413Y14218046D01*
X83074481Y14416066D01*
X83094764Y14622000D01*
X83074481Y14827934D01*
X83014413Y15025954D01*
X82916866Y15208450D01*
X82864883Y15271791D01*
X82785591Y15368411D01*
X82625632Y15499685D01*
X82530026Y15550789D01*
X82480182Y15599752D01*
X82464481Y15660146D01*
X82464481Y21881175D01*
X82464480Y21881179D01*
X82448706Y21940052D01*
X82444481Y21972144D01*
X82444481Y22746095D01*
X82464166Y22813134D01*
X82480800Y22833776D01*
X82618972Y22971948D01*
X82757413Y23110389D01*
X82757413Y23110391D01*
X82764474Y23117451D01*
X82764480Y23117459D01*
X82895402Y23248382D01*
X82956725Y23281866D01*
X83026417Y23276882D01*
G37*
%TD.AperFunction*%
%TA.AperFunction,Conductor*%
G36*
X85154884Y19618684D02*
G01*
X85161362Y19612652D01*
X86712362Y18061652D01*
X86745847Y18000329D01*
X86748681Y17973971D01*
X86748681Y15689436D01*
X86728996Y15622397D01*
X86683135Y15580079D01*
X86532731Y15499685D01*
X86532729Y15499684D01*
X86532728Y15499683D01*
X86372770Y15368411D01*
X86241498Y15208453D01*
X86143950Y15025957D01*
X86083880Y14827933D01*
X86063598Y14622000D01*
X86083880Y14416068D01*
X86083881Y14416066D01*
X86143949Y14218046D01*
X86241496Y14035550D01*
X86241498Y14035548D01*
X86372770Y13875590D01*
X86467246Y13798057D01*
X86532731Y13744315D01*
X86715227Y13646768D01*
X86781732Y13626595D01*
X86840170Y13588298D01*
X86868627Y13524486D01*
X86858068Y13455419D01*
X86811844Y13403025D01*
X86777831Y13388159D01*
X86655695Y13355433D01*
X86655688Y13355430D01*
X86441603Y13255601D01*
X86441601Y13255600D01*
X86248107Y13120114D01*
X86248101Y13120109D01*
X86081072Y12953080D01*
X86081071Y12953078D01*
X85950756Y12766969D01*
X85896179Y12723345D01*
X85826680Y12716152D01*
X85764326Y12747674D01*
X85747606Y12766969D01*
X85617290Y12953078D01*
X85617289Y12953080D01*
X85450263Y13120106D01*
X85256759Y13255601D01*
X85042673Y13355430D01*
X85042667Y13355433D01*
X84920530Y13388159D01*
X84860870Y13424524D01*
X84830341Y13487371D01*
X84838636Y13556747D01*
X84883121Y13610625D01*
X84916625Y13626593D01*
X84983135Y13646768D01*
X85165631Y13744315D01*
X85325591Y13875590D01*
X85456866Y14035550D01*
X85554413Y14218046D01*
X85614481Y14416066D01*
X85634764Y14622000D01*
X85614481Y14827934D01*
X85554413Y15025954D01*
X85456866Y15208450D01*
X85404883Y15271791D01*
X85325591Y15368411D01*
X85175302Y15491748D01*
X85165631Y15499685D01*
X85015226Y15580079D01*
X84965383Y15629041D01*
X84949681Y15689436D01*
X84949681Y19524971D01*
X84969366Y19592010D01*
X85022170Y19637765D01*
X85091328Y19647709D01*
X85154884Y19618684D01*
G37*
%TD.AperFunction*%
%TA.AperFunction,Conductor*%
G36*
X86057835Y22583805D02*
G01*
X86078478Y22567170D01*
X89252362Y19393286D01*
X89285847Y19331963D01*
X89288681Y19305605D01*
X89288681Y15689436D01*
X89268996Y15622397D01*
X89223135Y15580079D01*
X89072731Y15499685D01*
X89072729Y15499684D01*
X89072728Y15499683D01*
X88912770Y15368411D01*
X88781498Y15208453D01*
X88683950Y15025957D01*
X88623880Y14827933D01*
X88603598Y14622000D01*
X88623880Y14416068D01*
X88623881Y14416066D01*
X88683949Y14218046D01*
X88781496Y14035550D01*
X88781498Y14035548D01*
X88912770Y13875590D01*
X89007246Y13798057D01*
X89072731Y13744315D01*
X89255227Y13646768D01*
X89321732Y13626595D01*
X89380170Y13588298D01*
X89408627Y13524486D01*
X89398068Y13455419D01*
X89351844Y13403025D01*
X89317831Y13388159D01*
X89195695Y13355433D01*
X89195688Y13355430D01*
X88981603Y13255601D01*
X88981601Y13255600D01*
X88788107Y13120114D01*
X88788101Y13120109D01*
X88621072Y12953080D01*
X88621071Y12953078D01*
X88490756Y12766969D01*
X88436179Y12723345D01*
X88366680Y12716152D01*
X88304326Y12747674D01*
X88287606Y12766969D01*
X88157290Y12953078D01*
X88157289Y12953080D01*
X87990263Y13120106D01*
X87796759Y13255601D01*
X87582673Y13355430D01*
X87582667Y13355433D01*
X87460530Y13388159D01*
X87400870Y13424524D01*
X87370341Y13487371D01*
X87378636Y13556747D01*
X87423121Y13610625D01*
X87456625Y13626593D01*
X87523135Y13646768D01*
X87705631Y13744315D01*
X87865591Y13875590D01*
X87996866Y14035550D01*
X88094413Y14218046D01*
X88154481Y14416066D01*
X88174764Y14622000D01*
X88154481Y14827934D01*
X88094413Y15025954D01*
X87996866Y15208450D01*
X87944883Y15271791D01*
X87865591Y15368411D01*
X87715302Y15491748D01*
X87705631Y15499685D01*
X87555226Y15580079D01*
X87505383Y15629041D01*
X87489681Y15689436D01*
X87489681Y18227578D01*
X87483305Y18251371D01*
X87483304Y18251373D01*
X87464432Y18321807D01*
X87464432Y18321808D01*
X87464431Y18321810D01*
X87440043Y18364051D01*
X87440041Y18364053D01*
X87415655Y18406293D01*
X87415654Y18406294D01*
X87415651Y18406298D01*
X85526000Y20295949D01*
X85492515Y20357272D01*
X85489681Y20383630D01*
X85489681Y21978971D01*
X85486310Y21991550D01*
X85486309Y21991552D01*
X85464432Y22073198D01*
X85464431Y22073202D01*
X85441073Y22113658D01*
X85424600Y22181558D01*
X85447452Y22247585D01*
X85502373Y22290776D01*
X85530816Y22298397D01*
X85534820Y22298973D01*
X85534821Y22298973D01*
X85666015Y22337495D01*
X85781043Y22411418D01*
X85870584Y22514755D01*
X85878002Y22531001D01*
X85923756Y22583804D01*
X85990795Y22603489D01*
X86057835Y22583805D01*
G37*
%TD.AperFunction*%
%TA.AperFunction,Conductor*%
G36*
X90234884Y19173994D02*
G01*
X90241362Y19167962D01*
X91792362Y17616962D01*
X91825847Y17555639D01*
X91828681Y17529281D01*
X91828681Y15689436D01*
X91808996Y15622397D01*
X91763135Y15580079D01*
X91612731Y15499685D01*
X91612729Y15499684D01*
X91612728Y15499683D01*
X91452770Y15368411D01*
X91321498Y15208453D01*
X91223950Y15025957D01*
X91163880Y14827933D01*
X91143598Y14622000D01*
X91163880Y14416068D01*
X91163881Y14416066D01*
X91223949Y14218046D01*
X91321496Y14035550D01*
X91321498Y14035548D01*
X91452770Y13875590D01*
X91547246Y13798057D01*
X91612731Y13744315D01*
X91795227Y13646768D01*
X91861732Y13626595D01*
X91920170Y13588298D01*
X91948627Y13524486D01*
X91938068Y13455419D01*
X91891844Y13403025D01*
X91857831Y13388159D01*
X91735695Y13355433D01*
X91735688Y13355430D01*
X91521603Y13255601D01*
X91521601Y13255600D01*
X91328107Y13120114D01*
X91328101Y13120109D01*
X91161072Y12953080D01*
X91161071Y12953078D01*
X91030756Y12766969D01*
X90976179Y12723345D01*
X90906680Y12716152D01*
X90844326Y12747674D01*
X90827606Y12766969D01*
X90697290Y12953078D01*
X90697289Y12953080D01*
X90530263Y13120106D01*
X90336759Y13255601D01*
X90122673Y13355430D01*
X90122667Y13355433D01*
X90000530Y13388159D01*
X89940870Y13424524D01*
X89910341Y13487371D01*
X89918636Y13556747D01*
X89963121Y13610625D01*
X89996625Y13626593D01*
X90063135Y13646768D01*
X90245631Y13744315D01*
X90405591Y13875590D01*
X90536866Y14035550D01*
X90634413Y14218046D01*
X90694481Y14416066D01*
X90714764Y14622000D01*
X90694481Y14827934D01*
X90634413Y15025954D01*
X90536866Y15208450D01*
X90484883Y15271791D01*
X90405591Y15368411D01*
X90255302Y15491748D01*
X90245631Y15499685D01*
X90095226Y15580079D01*
X90045383Y15629041D01*
X90029681Y15689436D01*
X90029681Y19080281D01*
X90049366Y19147320D01*
X90102170Y19193075D01*
X90171328Y19203019D01*
X90234884Y19173994D01*
G37*
%TD.AperFunction*%
%TA.AperFunction,Conductor*%
G36*
X83213634Y27208683D02*
G01*
X83259389Y27155879D01*
X83261154Y27151825D01*
X83265671Y27140919D01*
X83290762Y27103368D01*
X83309130Y27075878D01*
X83434148Y26950861D01*
X83434150Y26950860D01*
X83437365Y26948221D01*
X83476699Y26890474D01*
X83478568Y26820630D01*
X83442381Y26760862D01*
X83379625Y26730146D01*
X83358699Y26728368D01*
X83233084Y26728368D01*
X83233084Y26521261D01*
X83440191Y26521261D01*
X83440191Y26646877D01*
X83459876Y26713916D01*
X83512680Y26759671D01*
X83581838Y26769615D01*
X83645394Y26740590D01*
X83660048Y26725537D01*
X83662682Y26722327D01*
X83787703Y26597307D01*
X83789245Y26596277D01*
X83852739Y26553851D01*
X83871600Y26550100D01*
X83933511Y26517716D01*
X83968086Y26457000D01*
X83969027Y26452677D01*
X83972780Y26433812D01*
X83972780Y26433811D01*
X83972780Y26433810D01*
X83972781Y26433809D01*
X84010585Y26377231D01*
X84016237Y26368772D01*
X84141257Y26243753D01*
X84144469Y26241117D01*
X84183806Y26183373D01*
X84185679Y26113529D01*
X84149494Y26053759D01*
X84086739Y26023040D01*
X84065808Y26021261D01*
X83940191Y26021261D01*
X83940191Y25814154D01*
X84147298Y25814154D01*
X84147298Y25939769D01*
X84166983Y26006808D01*
X84219787Y26052563D01*
X84288945Y26062507D01*
X84352501Y26033482D01*
X84367157Y26018427D01*
X84369790Y26015218D01*
X84494808Y25890201D01*
X84559845Y25846744D01*
X84559847Y25846744D01*
X84570751Y25842227D01*
X84625154Y25798386D01*
X84647219Y25732092D01*
X84647298Y25727666D01*
X84647298Y25400643D01*
X84627613Y25333604D01*
X84574809Y25287849D01*
X84570755Y25286084D01*
X84559848Y25281567D01*
X84494807Y25238108D01*
X84369792Y25113092D01*
X84367151Y25109873D01*
X84309404Y25070539D01*
X84239560Y25068670D01*
X84179792Y25104857D01*
X84149076Y25167613D01*
X84147298Y25188539D01*
X84147298Y25314154D01*
X83940191Y25314154D01*
X83940191Y25107047D01*
X84065806Y25107047D01*
X84132845Y25087362D01*
X84178600Y25034558D01*
X84188544Y24965400D01*
X84159519Y24901844D01*
X84144472Y24887194D01*
X84141254Y24884554D01*
X84016236Y24759535D01*
X83972782Y24694502D01*
X83969028Y24675631D01*
X83936640Y24613722D01*
X83875923Y24579150D01*
X83871608Y24578211D01*
X83852739Y24574457D01*
X83852738Y24574457D01*
X83787701Y24531001D01*
X83662684Y24405983D01*
X83660043Y24402764D01*
X83602296Y24363431D01*
X83532451Y24361562D01*
X83472684Y24397751D01*
X83441969Y24460507D01*
X83440191Y24481431D01*
X83440191Y24607047D01*
X83233084Y24607047D01*
X83233084Y24399940D01*
X83358698Y24399940D01*
X83425737Y24380255D01*
X83471492Y24327451D01*
X83481436Y24258293D01*
X83452411Y24194737D01*
X83437362Y24180086D01*
X83434150Y24177451D01*
X83309129Y24052429D01*
X83265673Y23987393D01*
X83261155Y23976485D01*
X83217313Y23922082D01*
X83151018Y23900019D01*
X83146595Y23899940D01*
X82819572Y23899940D01*
X82752533Y23919625D01*
X82706778Y23972429D01*
X82705009Y23976492D01*
X82700493Y23987395D01*
X82657039Y24052429D01*
X82534663Y24174804D01*
X82858084Y24174804D01*
X82858084Y24125076D01*
X82877114Y24079133D01*
X82912277Y24043970D01*
X82958220Y24024940D01*
X83007948Y24024940D01*
X83053891Y24043970D01*
X83089054Y24079133D01*
X83108084Y24125076D01*
X83108084Y24174804D01*
X83089054Y24220747D01*
X83053891Y24255910D01*
X83007948Y24274940D01*
X82958220Y24274940D01*
X82912277Y24255910D01*
X82877114Y24220747D01*
X82858084Y24174804D01*
X82534663Y24174804D01*
X82532021Y24177446D01*
X82528803Y24180087D01*
X82489469Y24237834D01*
X82487600Y24307678D01*
X82523787Y24367446D01*
X82586543Y24398162D01*
X82607469Y24399940D01*
X82733084Y24399940D01*
X82733084Y24607047D01*
X82525977Y24607047D01*
X82525977Y24481432D01*
X82506292Y24414393D01*
X82453488Y24368638D01*
X82384330Y24358694D01*
X82320774Y24387719D01*
X82306124Y24402766D01*
X82303483Y24405984D01*
X82178464Y24531002D01*
X82135108Y24559972D01*
X82113429Y24574457D01*
X82094560Y24578211D01*
X82032651Y24610597D01*
X81998079Y24671314D01*
X81997140Y24675631D01*
X81993387Y24694499D01*
X81968298Y24732047D01*
X81949932Y24759535D01*
X81827555Y24881911D01*
X82150977Y24881911D01*
X82150977Y24832183D01*
X82170007Y24786240D01*
X82205170Y24751077D01*
X82251113Y24732047D01*
X82300841Y24732047D01*
X82346784Y24751077D01*
X82381947Y24786240D01*
X82400977Y24832183D01*
X82400977Y24881911D01*
X83565191Y24881911D01*
X83565191Y24832183D01*
X83584221Y24786240D01*
X83619384Y24751077D01*
X83665327Y24732047D01*
X83715055Y24732047D01*
X83760998Y24751077D01*
X83796161Y24786240D01*
X83815191Y24832183D01*
X83815191Y24881911D01*
X83796161Y24927854D01*
X83760998Y24963017D01*
X83715055Y24982047D01*
X83665327Y24982047D01*
X83619384Y24963017D01*
X83584221Y24927854D01*
X83565191Y24881911D01*
X82400977Y24881911D01*
X82381947Y24927854D01*
X82346784Y24963017D01*
X82300841Y24982047D01*
X82251113Y24982047D01*
X82205170Y24963017D01*
X82170007Y24927854D01*
X82150977Y24881911D01*
X81827555Y24881911D01*
X81824910Y24884556D01*
X81821699Y24887191D01*
X81782362Y24944935D01*
X81780489Y25014779D01*
X81816674Y25074549D01*
X81879429Y25105268D01*
X81900360Y25107047D01*
X82025977Y25107047D01*
X82525977Y25107047D01*
X82733084Y25107047D01*
X83233084Y25107047D01*
X83440191Y25107047D01*
X83440191Y25314154D01*
X83233084Y25314154D01*
X83233084Y25107047D01*
X82733084Y25107047D01*
X82733084Y25314154D01*
X82525977Y25314154D01*
X82525977Y25107047D01*
X82025977Y25107047D01*
X82025977Y25314154D01*
X81818870Y25314154D01*
X81818870Y25188540D01*
X81799185Y25121501D01*
X81746381Y25075746D01*
X81677223Y25065802D01*
X81613667Y25094827D01*
X81599016Y25109876D01*
X81596380Y25113088D01*
X81471358Y25238109D01*
X81406322Y25281565D01*
X81395415Y25286083D01*
X81341012Y25329925D01*
X81318949Y25396220D01*
X81318870Y25400643D01*
X81318870Y25589018D01*
X81443870Y25589018D01*
X81443870Y25539290D01*
X81462900Y25493347D01*
X81498063Y25458184D01*
X81544006Y25439154D01*
X81593734Y25439154D01*
X81639677Y25458184D01*
X81674840Y25493347D01*
X81693870Y25539290D01*
X81693870Y25589018D01*
X82858084Y25589018D01*
X82858084Y25539290D01*
X82877114Y25493347D01*
X82912277Y25458184D01*
X82958220Y25439154D01*
X83007948Y25439154D01*
X83053891Y25458184D01*
X83089054Y25493347D01*
X83108084Y25539290D01*
X83108084Y25589018D01*
X84272298Y25589018D01*
X84272298Y25539290D01*
X84291328Y25493347D01*
X84326491Y25458184D01*
X84372434Y25439154D01*
X84422162Y25439154D01*
X84468105Y25458184D01*
X84503268Y25493347D01*
X84522298Y25539290D01*
X84522298Y25589018D01*
X84503268Y25634961D01*
X84468105Y25670124D01*
X84422162Y25689154D01*
X84372434Y25689154D01*
X84326491Y25670124D01*
X84291328Y25634961D01*
X84272298Y25589018D01*
X83108084Y25589018D01*
X83089054Y25634961D01*
X83053891Y25670124D01*
X83007948Y25689154D01*
X82958220Y25689154D01*
X82912277Y25670124D01*
X82877114Y25634961D01*
X82858084Y25589018D01*
X81693870Y25589018D01*
X81674840Y25634961D01*
X81639677Y25670124D01*
X81593734Y25689154D01*
X81544006Y25689154D01*
X81498063Y25670124D01*
X81462900Y25634961D01*
X81443870Y25589018D01*
X81318870Y25589018D01*
X81318870Y25727666D01*
X81338555Y25794705D01*
X81391359Y25840460D01*
X81395422Y25842229D01*
X81406320Y25846744D01*
X81406323Y25846744D01*
X81471360Y25890200D01*
X81596377Y26015218D01*
X81596379Y26015223D01*
X81599013Y26018430D01*
X81656756Y26057767D01*
X81726601Y26059641D01*
X81786371Y26023457D01*
X81817090Y25960703D01*
X81818870Y25939770D01*
X81818870Y25814154D01*
X82025977Y25814154D01*
X82525977Y25814154D01*
X82733084Y25814154D01*
X83233084Y25814154D01*
X83440191Y25814154D01*
X83440191Y26021261D01*
X83233084Y26021261D01*
X83233084Y25814154D01*
X82733084Y25814154D01*
X82733084Y26021261D01*
X82525977Y26021261D01*
X82525977Y25814154D01*
X82025977Y25814154D01*
X82025977Y26021261D01*
X81900362Y26021261D01*
X81833323Y26040946D01*
X81787568Y26093750D01*
X81777624Y26162908D01*
X81806649Y26226464D01*
X81821696Y26241114D01*
X81824906Y26243750D01*
X81824913Y26243754D01*
X81877284Y26296125D01*
X82150977Y26296125D01*
X82150977Y26246397D01*
X82170007Y26200454D01*
X82205170Y26165291D01*
X82251113Y26146261D01*
X82300841Y26146261D01*
X82346784Y26165291D01*
X82381947Y26200454D01*
X82400977Y26246397D01*
X82400977Y26296125D01*
X83565191Y26296125D01*
X83565191Y26246397D01*
X83584221Y26200454D01*
X83619384Y26165291D01*
X83665327Y26146261D01*
X83715055Y26146261D01*
X83760998Y26165291D01*
X83796161Y26200454D01*
X83815191Y26246397D01*
X83815191Y26296125D01*
X83796161Y26342068D01*
X83760998Y26377231D01*
X83715055Y26396261D01*
X83665327Y26396261D01*
X83619384Y26377231D01*
X83584221Y26342068D01*
X83565191Y26296125D01*
X82400977Y26296125D01*
X82381947Y26342068D01*
X82346784Y26377231D01*
X82300841Y26396261D01*
X82251113Y26396261D01*
X82205170Y26377231D01*
X82170007Y26342068D01*
X82150977Y26296125D01*
X81877284Y26296125D01*
X81949930Y26368772D01*
X81993387Y26433809D01*
X81997139Y26452672D01*
X82029521Y26514582D01*
X82090236Y26549158D01*
X82094534Y26550093D01*
X82113429Y26553851D01*
X82178466Y26597307D01*
X82303483Y26722325D01*
X82303485Y26722329D01*
X82306121Y26725539D01*
X82363865Y26764876D01*
X82433709Y26766749D01*
X82493479Y26730564D01*
X82524198Y26667809D01*
X82525977Y26646878D01*
X82525977Y26521261D01*
X82733084Y26521261D01*
X82733084Y26728368D01*
X82607470Y26728368D01*
X82540431Y26748053D01*
X82494676Y26800857D01*
X82484732Y26870015D01*
X82513757Y26933571D01*
X82528806Y26948222D01*
X82532017Y26950858D01*
X82532016Y26950858D01*
X82532020Y26950860D01*
X82584392Y27003232D01*
X82858084Y27003232D01*
X82858084Y26953504D01*
X82877114Y26907561D01*
X82912277Y26872398D01*
X82958220Y26853368D01*
X83007948Y26853368D01*
X83053891Y26872398D01*
X83089054Y26907561D01*
X83108084Y26953504D01*
X83108084Y27003232D01*
X83089054Y27049175D01*
X83053891Y27084338D01*
X83007948Y27103368D01*
X82958220Y27103368D01*
X82912277Y27084338D01*
X82877114Y27049175D01*
X82858084Y27003232D01*
X82584392Y27003232D01*
X82657037Y27075878D01*
X82700494Y27140915D01*
X82700494Y27140920D01*
X82705011Y27151821D01*
X82748852Y27206224D01*
X82815146Y27228289D01*
X82819572Y27228368D01*
X83146595Y27228368D01*
X83213634Y27208683D01*
G37*
%TD.AperFunction*%
%TA.AperFunction,Conductor*%
G36*
X81312159Y34651414D02*
G01*
X81352083Y34594074D01*
X81358481Y34554759D01*
X81358481Y34058378D01*
X81358481Y33972146D01*
X81380800Y33888852D01*
X81414495Y33830489D01*
X81423915Y33814174D01*
X81423917Y33814171D01*
X83989162Y31248926D01*
X84022647Y31187603D01*
X84025481Y31161245D01*
X84025481Y28451677D01*
X84005796Y28384638D01*
X83952992Y28338883D01*
X83883834Y28328939D01*
X83832591Y28348575D01*
X83792810Y28375156D01*
X83792806Y28375158D01*
X83690193Y28395568D01*
X83690189Y28395568D01*
X83575594Y28372774D01*
X83574821Y28376656D01*
X83527458Y28371566D01*
X83464980Y28402845D01*
X83429331Y28462935D01*
X83425481Y28493595D01*
X83425481Y28562559D01*
X83425481Y28562562D01*
X83420832Y28579913D01*
X83405003Y28638988D01*
X83365441Y28707511D01*
X82934800Y29138152D01*
X82901315Y29199475D01*
X82898481Y29225833D01*
X82898481Y31121561D01*
X82898057Y31123143D01*
X82878002Y31197989D01*
X82877998Y31197996D01*
X82838445Y31266505D01*
X82838439Y31266513D01*
X80190829Y33914123D01*
X80157344Y33975446D01*
X80162328Y34045138D01*
X80183029Y34080920D01*
X80197390Y34098252D01*
X80254677Y34217212D01*
X80274357Y34347773D01*
X80254677Y34478334D01*
X80253137Y34483326D01*
X80252187Y34553189D01*
X80289158Y34612476D01*
X80352313Y34642362D01*
X80421600Y34633361D01*
X80427280Y34630686D01*
X80514367Y34586949D01*
X80682127Y34547189D01*
X80854525Y34547189D01*
X81022285Y34586949D01*
X81178829Y34665569D01*
X81247572Y34678066D01*
X81312159Y34651414D01*
G37*
%TD.AperFunction*%
%TA.AperFunction,Conductor*%
G36*
X100297455Y59749306D02*
G01*
X100594889Y59732604D01*
X100608686Y59731050D01*
X100898941Y59681735D01*
X100912496Y59678641D01*
X101195400Y59597139D01*
X101208525Y59592546D01*
X101480513Y59479886D01*
X101493041Y59473853D01*
X101750717Y59331443D01*
X101762484Y59324050D01*
X102002606Y59153676D01*
X102013460Y59145020D01*
X102121559Y59048418D01*
X102232996Y58948832D01*
X102242828Y58938999D01*
X102439001Y58719483D01*
X102447671Y58708611D01*
X102618033Y58468509D01*
X102625431Y58456736D01*
X102767842Y58199066D01*
X102773874Y58186540D01*
X102850127Y58002450D01*
X102886540Y57914543D01*
X102891133Y57901417D01*
X102972636Y57618512D01*
X102975730Y57604956D01*
X103025045Y57314715D01*
X103026602Y57300897D01*
X103043286Y57003812D01*
X103043481Y56996859D01*
X103043481Y44776806D01*
X103023796Y44709767D01*
X102970992Y44664012D01*
X102901834Y44654068D01*
X102838278Y44683093D01*
X102825768Y44695603D01*
X102776665Y44752271D01*
X102733286Y44802334D01*
X102689080Y44840639D01*
X102689079Y44840640D01*
X102568131Y44918369D01*
X102568127Y44918371D01*
X102568126Y44918371D01*
X102514921Y44942669D01*
X102425078Y44969049D01*
X102376970Y44983175D01*
X102376958Y44983178D01*
X102319071Y44991500D01*
X102319070Y44991500D01*
X101747181Y44991500D01*
X101747176Y44991500D01*
X101701453Y44986349D01*
X101656824Y44964856D01*
X101587882Y44953505D01*
X101550840Y44969049D01*
X101548933Y44965087D01*
X101536345Y44971149D01*
X101447185Y44991500D01*
X101447181Y44991500D01*
X100875292Y44991500D01*
X100875290Y44991500D01*
X100817403Y44983178D01*
X100817391Y44983175D01*
X100679441Y44942669D01*
X100626236Y44918371D01*
X100626230Y44918369D01*
X100505282Y44840640D01*
X100505281Y44840639D01*
X100478978Y44817846D01*
X100465882Y44806498D01*
X100461073Y44802331D01*
X100366930Y44693685D01*
X100366919Y44693669D01*
X100335302Y44644473D01*
X100335293Y44644457D01*
X100275574Y44513690D01*
X100259093Y44457562D01*
X100259091Y44457557D01*
X100256978Y44442853D01*
X100227953Y44379297D01*
X100169175Y44341523D01*
X100134240Y44336500D01*
X98814419Y44336500D01*
X98737991Y44316022D01*
X98669470Y44276460D01*
X98669467Y44276458D01*
X96653522Y42260513D01*
X96653516Y42260505D01*
X96613963Y42191996D01*
X96613960Y42191991D01*
X96593481Y42115561D01*
X96593481Y31825091D01*
X96573796Y31758052D01*
X96563196Y31743890D01*
X96544851Y31722718D01*
X96544848Y31722715D01*
X96488051Y31598346D01*
X96488049Y31598338D01*
X96468591Y31463000D01*
X96488049Y31327663D01*
X96488051Y31327655D01*
X96544848Y31203286D01*
X96544853Y31203279D01*
X96634390Y31099947D01*
X96634394Y31099943D01*
X96749422Y31026021D01*
X96826844Y31003288D01*
X96885623Y30965514D01*
X96914648Y30901959D01*
X96904705Y30832802D01*
X96894638Y30810759D01*
X96894636Y30810751D01*
X96875178Y30675413D01*
X96894636Y30540076D01*
X96894638Y30540068D01*
X96951435Y30415699D01*
X96951440Y30415692D01*
X97040977Y30312360D01*
X97040981Y30312356D01*
X97073785Y30291275D01*
X97156007Y30238435D01*
X97221604Y30219174D01*
X97287200Y30199913D01*
X97287201Y30199913D01*
X97423935Y30199913D01*
X97555129Y30238435D01*
X97670157Y30312358D01*
X97759698Y30415695D01*
X97765003Y30427310D01*
X97798778Y30501268D01*
X97816499Y30540071D01*
X97835958Y30675413D01*
X97816499Y30810755D01*
X97792836Y30862570D01*
X97761528Y30931125D01*
X97751584Y31000283D01*
X97766933Y31044634D01*
X97775600Y31059644D01*
X97804002Y31108838D01*
X97824481Y31185265D01*
X97824481Y31869753D01*
X100640481Y31869753D01*
X100640481Y30130248D01*
X100652112Y30071771D01*
X100652113Y30071770D01*
X100696428Y30005448D01*
X100762750Y29961133D01*
X100762751Y29961132D01*
X100821228Y29949501D01*
X100821231Y29949500D01*
X100821233Y29949500D01*
X102560731Y29949500D01*
X102560732Y29949501D01*
X102575549Y29952448D01*
X102619210Y29961132D01*
X102619210Y29961133D01*
X102619212Y29961133D01*
X102685533Y30005448D01*
X102729848Y30071769D01*
X102729848Y30071771D01*
X102729849Y30071771D01*
X102741480Y30130248D01*
X102741481Y30130250D01*
X102741481Y31869751D01*
X102741480Y31869753D01*
X102729849Y31928230D01*
X102729848Y31928231D01*
X102685533Y31994553D01*
X102619211Y32038868D01*
X102619210Y32038869D01*
X102560733Y32050500D01*
X102560729Y32050500D01*
X100821233Y32050500D01*
X100821228Y32050500D01*
X100762751Y32038869D01*
X100762750Y32038868D01*
X100696428Y31994553D01*
X100652113Y31928231D01*
X100652112Y31928230D01*
X100640481Y31869753D01*
X97824481Y31869753D01*
X97824481Y33437487D01*
X99697182Y33437487D01*
X99707500Y33336489D01*
X99761727Y33172841D01*
X99761732Y33172830D01*
X99852233Y33026107D01*
X99852236Y33026103D01*
X99974142Y32904197D01*
X99974146Y32904194D01*
X100120869Y32813693D01*
X100120880Y32813688D01*
X100284528Y32759461D01*
X100385532Y32749142D01*
X100434680Y32749143D01*
X100434681Y32749143D01*
X100434681Y33474141D01*
X99697182Y33474141D01*
X99697182Y33437487D01*
X97824481Y33437487D01*
X97824481Y33538567D01*
X97844166Y33605606D01*
X97860800Y33626248D01*
X99657094Y35422542D01*
X99718417Y35456027D01*
X99744775Y35458861D01*
X100134240Y35458861D01*
X100201279Y35439176D01*
X100247034Y35386372D01*
X100256978Y35352508D01*
X100259091Y35337805D01*
X100259093Y35337800D01*
X100275574Y35281672D01*
X100335293Y35150905D01*
X100335302Y35150889D01*
X100358316Y35115079D01*
X100365642Y35103679D01*
X100366919Y35101693D01*
X100366930Y35101677D01*
X100428471Y35030656D01*
X100461076Y34993027D01*
X100505282Y34954722D01*
X100547708Y34927457D01*
X100593464Y34874654D01*
X100603408Y34805495D01*
X100574384Y34741939D01*
X100515606Y34704164D01*
X100480671Y34699141D01*
X100385542Y34699141D01*
X100385525Y34699140D01*
X100284528Y34688822D01*
X100120880Y34634595D01*
X100120869Y34634590D01*
X99974146Y34544089D01*
X99974142Y34544086D01*
X99852236Y34422180D01*
X99852233Y34422176D01*
X99761732Y34275453D01*
X99761727Y34275442D01*
X99707500Y34111794D01*
X99697181Y34010796D01*
X99697181Y33974141D01*
X100810681Y33974141D01*
X100877720Y33954456D01*
X100923475Y33901652D01*
X100934681Y33850141D01*
X100934681Y32749142D01*
X100983821Y32749142D01*
X100983835Y32749143D01*
X101084833Y32759461D01*
X101248481Y32813688D01*
X101248492Y32813693D01*
X101395215Y32904194D01*
X101395219Y32904197D01*
X101517125Y33026103D01*
X101517128Y33026107D01*
X101607629Y33172830D01*
X101607635Y33172843D01*
X101638287Y33265347D01*
X101678058Y33322792D01*
X101742574Y33349616D01*
X101811350Y33337302D01*
X101862550Y33289759D01*
X101865622Y33284289D01*
X101868063Y33279671D01*
X101868065Y33279666D01*
X101868068Y33279662D01*
X101946469Y33173431D01*
X101946470Y33173430D01*
X102052704Y33095026D01*
X102052705Y33095026D01*
X102052706Y33095025D01*
X102177332Y33051416D01*
X102177331Y33051416D01*
X102206921Y33048641D01*
X102206925Y33048641D01*
X102812441Y33048641D01*
X102842030Y33051416D01*
X102878525Y33064186D01*
X102948304Y33067749D01*
X103008932Y33033020D01*
X103041159Y32971027D01*
X103043481Y32947145D01*
X103043481Y22275361D01*
X103023796Y22208322D01*
X102970992Y22162567D01*
X102901834Y22152623D01*
X102838278Y22181648D01*
X102817906Y22204237D01*
X102729090Y22331078D01*
X102729089Y22331080D01*
X102562063Y22498106D01*
X102368559Y22633601D01*
X102154473Y22733430D01*
X102154467Y22733433D01*
X102032330Y22766159D01*
X101972670Y22802524D01*
X101942141Y22865371D01*
X101950436Y22934747D01*
X101994921Y22988625D01*
X102028425Y23004593D01*
X102094935Y23024768D01*
X102277431Y23122315D01*
X102437391Y23253590D01*
X102568666Y23413550D01*
X102666213Y23596046D01*
X102726281Y23794066D01*
X102746564Y24000000D01*
X102726281Y24205934D01*
X102666213Y24403954D01*
X102568666Y24586450D01*
X102500980Y24668926D01*
X102437391Y24746411D01*
X102309056Y24851731D01*
X102277431Y24877685D01*
X102094935Y24975232D01*
X101896915Y25035300D01*
X101896913Y25035301D01*
X101896915Y25035301D01*
X101690981Y25055583D01*
X101485048Y25035301D01*
X101287024Y24975231D01*
X101198390Y24927854D01*
X101104531Y24877685D01*
X101104529Y24877684D01*
X101104528Y24877683D01*
X100944570Y24746411D01*
X100813298Y24586453D01*
X100813296Y24586450D01*
X100783658Y24531002D01*
X100722212Y24416046D01*
X100673249Y24366202D01*
X100612854Y24350500D01*
X98528313Y24350500D01*
X98461274Y24370185D01*
X98447108Y24380789D01*
X98443567Y24383858D01*
X98328540Y24457779D01*
X98197349Y24496300D01*
X98197348Y24496300D01*
X98060614Y24496300D01*
X98060613Y24496300D01*
X97929421Y24457779D01*
X97814394Y24383858D01*
X97814390Y24383854D01*
X97724853Y24280522D01*
X97724848Y24280515D01*
X97668051Y24156146D01*
X97668049Y24156138D01*
X97648591Y24020800D01*
X97668049Y23885463D01*
X97668051Y23885455D01*
X97724848Y23761086D01*
X97724853Y23761079D01*
X97814390Y23657747D01*
X97814394Y23657743D01*
X97874960Y23618821D01*
X97929420Y23583822D01*
X97995017Y23564561D01*
X98060613Y23545300D01*
X98060614Y23545300D01*
X98197348Y23545300D01*
X98328542Y23583822D01*
X98400111Y23629817D01*
X98467149Y23649500D01*
X100612854Y23649500D01*
X100679893Y23629815D01*
X100722212Y23583954D01*
X100744119Y23542970D01*
X100813296Y23413550D01*
X100833879Y23388469D01*
X100944570Y23253590D01*
X101010291Y23199655D01*
X101104531Y23122315D01*
X101287027Y23024768D01*
X101353532Y23004595D01*
X101411970Y22966298D01*
X101440427Y22902486D01*
X101429868Y22833419D01*
X101383644Y22781025D01*
X101349631Y22766159D01*
X101227495Y22733433D01*
X101227488Y22733430D01*
X101013403Y22633601D01*
X101013401Y22633600D01*
X100819907Y22498114D01*
X100819901Y22498109D01*
X100652872Y22331080D01*
X100652867Y22331074D01*
X100517381Y22137580D01*
X100517380Y22137578D01*
X100417551Y21923493D01*
X100417548Y21923487D01*
X100360345Y21710001D01*
X100360345Y21710000D01*
X101257969Y21710000D01*
X101225056Y21652993D01*
X101190981Y21525826D01*
X101190981Y21394174D01*
X101225056Y21267007D01*
X101257969Y21210000D01*
X100360345Y21210000D01*
X100417548Y20996514D01*
X100417551Y20996508D01*
X100517380Y20782422D01*
X100652875Y20588918D01*
X100819898Y20421895D01*
X101013402Y20286400D01*
X101183929Y20206882D01*
X101236368Y20160710D01*
X101255520Y20093516D01*
X101235304Y20026635D01*
X101182139Y19981300D01*
X101131524Y19970500D01*
X100821228Y19970500D01*
X100762751Y19958869D01*
X100762750Y19958868D01*
X100696428Y19914553D01*
X100652113Y19848231D01*
X100652112Y19848230D01*
X100640481Y19789753D01*
X100640481Y19464500D01*
X100620796Y19397461D01*
X100567992Y19351706D01*
X100516481Y19340500D01*
X97313946Y19340500D01*
X97246907Y19360185D01*
X97226265Y19376819D01*
X96038800Y20564284D01*
X96005315Y20625607D01*
X96002481Y20651965D01*
X96002481Y20860280D01*
X96022166Y20927319D01*
X96057591Y20963383D01*
X96060209Y20965133D01*
X96060212Y20965133D01*
X96126533Y21009448D01*
X96170848Y21075769D01*
X96170848Y21075771D01*
X96170849Y21075771D01*
X96182480Y21134248D01*
X96182481Y21134250D01*
X96182481Y21973751D01*
X96182480Y21973753D01*
X96170849Y22032230D01*
X96170848Y22032231D01*
X96126533Y22098553D01*
X96050058Y22149652D01*
X96052072Y22152668D01*
X96014084Y22183281D01*
X95992020Y22249576D01*
X96009300Y22317275D01*
X96051343Y22356418D01*
X96050055Y22358346D01*
X96066897Y22369600D01*
X96098806Y22390922D01*
X96165479Y22411800D01*
X96232859Y22393318D01*
X96255377Y22375501D01*
X96379550Y22251328D01*
X96404663Y22215159D01*
X96417850Y22186284D01*
X96417853Y22186279D01*
X96507390Y22082947D01*
X96507394Y22082943D01*
X96556328Y22051496D01*
X96622420Y22009022D01*
X96681924Y21991550D01*
X96753613Y21970500D01*
X96753614Y21970500D01*
X96890348Y21970500D01*
X97021542Y22009022D01*
X97136570Y22082945D01*
X97226111Y22186282D01*
X97229460Y22193614D01*
X97254107Y22247585D01*
X97282912Y22310658D01*
X97302371Y22446000D01*
X97282912Y22581342D01*
X97267782Y22614472D01*
X97226113Y22705715D01*
X97226108Y22705722D01*
X97136571Y22809054D01*
X97136570Y22809055D01*
X97034333Y22874758D01*
X97013691Y22891393D01*
X96590597Y23314487D01*
X96590595Y23314489D01*
X96514985Y23358143D01*
X96487869Y23373799D01*
X96475761Y23377043D01*
X96463654Y23380287D01*
X96463651Y23380288D01*
X96408621Y23395033D01*
X96373290Y23404500D01*
X96373289Y23404500D01*
X96255657Y23404500D01*
X96188618Y23424185D01*
X96152556Y23459608D01*
X96126534Y23498552D01*
X96060211Y23542868D01*
X96060210Y23542869D01*
X96001733Y23554500D01*
X96001729Y23554500D01*
X95102233Y23554500D01*
X95102228Y23554500D01*
X95043751Y23542869D01*
X95043750Y23542868D01*
X94977428Y23498553D01*
X94933113Y23432231D01*
X94933112Y23432230D01*
X94921481Y23373753D01*
X94921481Y22534248D01*
X94933112Y22475771D01*
X94933113Y22475770D01*
X94977428Y22409448D01*
X95053904Y22358348D01*
X95051889Y22355334D01*
X95089885Y22324707D01*
X95111942Y22258410D01*
X95094654Y22190713D01*
X95052613Y22151583D01*
X95053904Y22149652D01*
X94977428Y22098553D01*
X94933113Y22032231D01*
X94933112Y22032230D01*
X94921481Y21973753D01*
X94921481Y21134248D01*
X94933112Y21075771D01*
X94933113Y21075770D01*
X94933114Y21075769D01*
X94977429Y21009448D01*
X95043750Y20965133D01*
X95043752Y20965133D01*
X95046371Y20963383D01*
X95091177Y20909771D01*
X95101481Y20860280D01*
X95101481Y20354689D01*
X95113794Y20308739D01*
X95114811Y20304943D01*
X95115445Y20302579D01*
X95115446Y20302574D01*
X95132180Y20240116D01*
X95150690Y20208057D01*
X95191492Y20137386D01*
X96799367Y18529511D01*
X96799368Y18529510D01*
X96799370Y18529509D01*
X96858674Y18495271D01*
X96858677Y18495268D01*
X96892918Y18475500D01*
X96902095Y18470201D01*
X97016672Y18439500D01*
X100516481Y18439500D01*
X100583520Y18419815D01*
X100629275Y18367011D01*
X100640481Y18315500D01*
X100640481Y18050248D01*
X100652112Y17991771D01*
X100652113Y17991770D01*
X100696428Y17925448D01*
X100762750Y17881133D01*
X100762751Y17881132D01*
X100821228Y17869501D01*
X100821231Y17869500D01*
X100821233Y17869500D01*
X102560731Y17869500D01*
X102560732Y17869501D01*
X102575549Y17872448D01*
X102619210Y17881132D01*
X102619210Y17881133D01*
X102619212Y17881133D01*
X102685533Y17925448D01*
X102729848Y17991769D01*
X102729848Y17991771D01*
X102729849Y17991771D01*
X102741480Y18050248D01*
X102741481Y18050250D01*
X102741481Y19789751D01*
X102741480Y19789753D01*
X102729849Y19848230D01*
X102729848Y19848231D01*
X102685533Y19914553D01*
X102619211Y19958868D01*
X102619210Y19958869D01*
X102560733Y19970500D01*
X102560729Y19970500D01*
X102250438Y19970500D01*
X102183399Y19990185D01*
X102137644Y20042989D01*
X102127700Y20112147D01*
X102156725Y20175703D01*
X102198033Y20206882D01*
X102368559Y20286400D01*
X102562063Y20421895D01*
X102729086Y20588918D01*
X102817906Y20715764D01*
X102872483Y20759389D01*
X102941982Y20766581D01*
X103004336Y20735059D01*
X103039750Y20674829D01*
X103043481Y20644640D01*
X103043481Y13003481D01*
X103043286Y12996528D01*
X103026583Y12699108D01*
X103025026Y12685290D01*
X102975711Y12395049D01*
X102972617Y12381492D01*
X102891114Y12098589D01*
X102886521Y12085465D01*
X102773859Y11813473D01*
X102767830Y11800954D01*
X102625412Y11543269D01*
X102618020Y11531505D01*
X102447656Y11291402D01*
X102438987Y11280531D01*
X102242811Y11061010D01*
X102232977Y11051177D01*
X102013457Y10855004D01*
X102002586Y10846334D01*
X101762482Y10675972D01*
X101750707Y10668574D01*
X101493033Y10526165D01*
X101480505Y10520132D01*
X101208519Y10407473D01*
X101195394Y10402880D01*
X100912492Y10321379D01*
X100898935Y10318285D01*
X100608694Y10268972D01*
X100594876Y10267415D01*
X100323349Y10252169D01*
X100297116Y10250695D01*
X100290166Y10250500D01*
X66297464Y10250500D01*
X66290512Y10250695D01*
X66251882Y10252865D01*
X65993089Y10267400D01*
X65979272Y10268957D01*
X65689032Y10318272D01*
X65675475Y10321366D01*
X65392574Y10402870D01*
X65379449Y10407463D01*
X65107456Y10520127D01*
X65094931Y10526159D01*
X64837255Y10668574D01*
X64825495Y10675964D01*
X64585378Y10846337D01*
X64574515Y10855001D01*
X64355001Y11051172D01*
X64345168Y11061004D01*
X64221399Y11199502D01*
X64148982Y11280538D01*
X64140324Y11291395D01*
X63992505Y11499727D01*
X63969958Y11531505D01*
X63962560Y11543279D01*
X63820150Y11800951D01*
X63814117Y11813480D01*
X63701459Y12085463D01*
X63696866Y12098587D01*
X63636380Y12308537D01*
X63615361Y12381494D01*
X63612268Y12395049D01*
X63562952Y12685300D01*
X63561398Y12699099D01*
X63544676Y12996872D01*
X63544481Y13003824D01*
X63544481Y13118005D01*
X64493481Y13118005D01*
X64493481Y12881996D01*
X64493482Y12881980D01*
X64524287Y12647990D01*
X64585375Y12420007D01*
X64675695Y12201955D01*
X64675700Y12201944D01*
X64701328Y12157556D01*
X64793708Y11997550D01*
X64793710Y11997547D01*
X64793711Y11997546D01*
X64937387Y11810303D01*
X64937393Y11810296D01*
X65104276Y11643413D01*
X65104283Y11643407D01*
X65214287Y11558999D01*
X65291531Y11499727D01*
X65393845Y11440656D01*
X65495924Y11381720D01*
X65495929Y11381718D01*
X65495932Y11381716D01*
X65713988Y11291394D01*
X65941967Y11230307D01*
X66175970Y11199500D01*
X66175977Y11199500D01*
X66411985Y11199500D01*
X66411992Y11199500D01*
X66645995Y11230307D01*
X66873974Y11291394D01*
X67092030Y11381716D01*
X67296431Y11499727D01*
X67483680Y11643408D01*
X67650573Y11810301D01*
X67794254Y11997550D01*
X67912265Y12201951D01*
X68002587Y12420007D01*
X68063674Y12647986D01*
X68094481Y12881989D01*
X68094481Y13118011D01*
X68063674Y13352014D01*
X68002587Y13579993D01*
X67912265Y13798049D01*
X67912263Y13798052D01*
X67912261Y13798057D01*
X67867497Y13875590D01*
X67794254Y14002450D01*
X67650573Y14189699D01*
X67650568Y14189705D01*
X67483685Y14356588D01*
X67483678Y14356594D01*
X67296435Y14500270D01*
X67296434Y14500271D01*
X67296431Y14500273D01*
X67214938Y14547323D01*
X67092037Y14618281D01*
X67092026Y14618286D01*
X66873974Y14708606D01*
X66645991Y14769694D01*
X66412001Y14800499D01*
X66411998Y14800500D01*
X66411992Y14800500D01*
X66175970Y14800500D01*
X66175964Y14800500D01*
X66175960Y14800499D01*
X65941970Y14769694D01*
X65713987Y14708606D01*
X65495935Y14618286D01*
X65495924Y14618281D01*
X65291526Y14500270D01*
X65104283Y14356594D01*
X65104276Y14356588D01*
X64937393Y14189705D01*
X64937387Y14189698D01*
X64793711Y14002455D01*
X64675700Y13798057D01*
X64675695Y13798046D01*
X64585375Y13579994D01*
X64524287Y13352011D01*
X64493482Y13118021D01*
X64493481Y13118005D01*
X63544481Y13118005D01*
X63544481Y23350507D01*
X72713028Y23350507D01*
X72783132Y23280403D01*
X72861850Y23216276D01*
X72861855Y23216273D01*
X73015916Y23138900D01*
X73183677Y23099141D01*
X73356073Y23099141D01*
X73473671Y23127012D01*
X73543443Y23123318D01*
X73600142Y23082489D01*
X73624882Y23024835D01*
X73643234Y22903077D01*
X73633761Y22833853D01*
X73608301Y22796915D01*
X73398291Y22586904D01*
X73398290Y22586902D01*
X73338982Y22484179D01*
X73338981Y22484174D01*
X73308281Y22369600D01*
X73308281Y22173959D01*
X73299359Y22132944D01*
X73300349Y22132653D01*
X73297849Y22124142D01*
X73278391Y21988800D01*
X73297849Y21853462D01*
X73300348Y21844953D01*
X73299357Y21844663D01*
X73308281Y21803644D01*
X73308281Y20853159D01*
X73299359Y20812144D01*
X73300349Y20811853D01*
X73297849Y20803342D01*
X73278391Y20668000D01*
X73297849Y20532663D01*
X73297851Y20532655D01*
X73354648Y20408286D01*
X73354653Y20408279D01*
X73444190Y20304947D01*
X73444194Y20304943D01*
X73504760Y20266021D01*
X73559220Y20231022D01*
X73584041Y20223734D01*
X73690413Y20192500D01*
X73690414Y20192500D01*
X73827148Y20192500D01*
X73958342Y20231022D01*
X74073370Y20304945D01*
X74162911Y20408282D01*
X74219712Y20532658D01*
X74239171Y20668000D01*
X74219712Y20803342D01*
X74217213Y20811853D01*
X74218202Y20812144D01*
X74209281Y20853159D01*
X74209281Y21803644D01*
X74218204Y21844663D01*
X74217214Y21844953D01*
X74219708Y21853451D01*
X74219712Y21853458D01*
X74239171Y21988800D01*
X74230156Y22051499D01*
X74240099Y22120655D01*
X74285854Y22173459D01*
X74352893Y22193144D01*
X74371372Y22191760D01*
X74489635Y22173934D01*
X74489636Y22173934D01*
X74551648Y22183281D01*
X74620196Y22193613D01*
X74739156Y22250901D01*
X74762044Y22269864D01*
X75172528Y22680348D01*
X75191491Y22703236D01*
X75248779Y22822196D01*
X75268458Y22952757D01*
X75265565Y22971948D01*
X75253050Y23054979D01*
X75248779Y23083318D01*
X75197646Y23189496D01*
X75186295Y23258434D01*
X75214017Y23322569D01*
X75221671Y23330960D01*
X75242195Y23351484D01*
X75303515Y23384967D01*
X75373207Y23379983D01*
X75383666Y23375525D01*
X75501494Y23318782D01*
X75566774Y23308943D01*
X75632054Y23299103D01*
X75632055Y23299103D01*
X75632056Y23299103D01*
X75664695Y23304023D01*
X75762616Y23318782D01*
X75820779Y23346792D01*
X75889715Y23358143D01*
X75953850Y23330422D01*
X75962258Y23322752D01*
X76190470Y23094540D01*
X76258993Y23054978D01*
X76335419Y23034500D01*
X76457559Y23034500D01*
X76524598Y23014815D01*
X76551271Y22991703D01*
X76568389Y22971948D01*
X76568394Y22971943D01*
X76611227Y22944417D01*
X76683420Y22898022D01*
X76738109Y22881964D01*
X76814613Y22859500D01*
X76814614Y22859500D01*
X76951348Y22859500D01*
X77082542Y22898022D01*
X77197570Y22971945D01*
X77287111Y23075282D01*
X77290781Y23083317D01*
X77312610Y23131116D01*
X77343912Y23199658D01*
X77363371Y23335000D01*
X77343912Y23470342D01*
X77310791Y23542867D01*
X77287113Y23594715D01*
X77287108Y23594722D01*
X77197571Y23698054D01*
X77197567Y23698058D01*
X77099497Y23761082D01*
X77082542Y23771978D01*
X77082541Y23771979D01*
X77082540Y23771979D01*
X76951349Y23810500D01*
X76951348Y23810500D01*
X76814614Y23810500D01*
X76814613Y23810500D01*
X76683422Y23771980D01*
X76572401Y23700633D01*
X76505362Y23680950D01*
X76438323Y23700636D01*
X76417683Y23717269D01*
X76387229Y23747723D01*
X76353744Y23809046D01*
X76358728Y23878738D01*
X76363177Y23889178D01*
X76391199Y23947365D01*
X76410878Y24077926D01*
X76410878Y24087219D01*
X76414246Y24087219D01*
X76421426Y24139838D01*
X76466801Y24192969D01*
X76533697Y24213135D01*
X76563184Y24209796D01*
X76702812Y24176704D01*
X76875208Y24176704D01*
X77042968Y24216463D01*
X77197030Y24293837D01*
X77197033Y24293839D01*
X77275741Y24357954D01*
X77275755Y24357967D01*
X77345856Y24428069D01*
X77345856Y24428070D01*
X76833204Y24940721D01*
X75696700Y26077225D01*
X75677832Y26105462D01*
X75661795Y26121499D01*
X74891097Y25350801D01*
X74829774Y25317316D01*
X74803416Y25314482D01*
X74694255Y25314482D01*
X74368101Y24988327D01*
X73590723Y24210950D01*
X73550497Y24184071D01*
X73543833Y24181311D01*
X73225681Y23863158D01*
X72713028Y23350507D01*
X63544481Y23350507D01*
X63544481Y24347104D01*
X72108111Y24347104D01*
X72108111Y24174707D01*
X72147869Y24006947D01*
X72225242Y23852886D01*
X72289367Y23774168D01*
X72359475Y23704060D01*
X72872128Y24216711D01*
X72315281Y24773558D01*
X72289371Y24747647D01*
X72225242Y24668926D01*
X72147870Y24514866D01*
X72108111Y24347104D01*
X63544481Y24347104D01*
X63544481Y25127111D01*
X72668834Y25127111D01*
X73225680Y24570265D01*
X74003058Y25347642D01*
X74043288Y25374523D01*
X74049950Y25377283D01*
X75138799Y26466131D01*
X75200122Y26499616D01*
X75226480Y26502450D01*
X75280844Y26502450D01*
X75280844Y26502451D01*
X74795589Y26987705D01*
X74725476Y26917591D01*
X74725468Y26917581D01*
X74661363Y26838888D01*
X74661356Y26838878D01*
X74583983Y26684817D01*
X74552761Y26553076D01*
X74518146Y26492383D01*
X74456214Y26460039D01*
X74417528Y26460747D01*
X74417279Y26458612D01*
X74410110Y26459450D01*
X74237709Y26459450D01*
X74069946Y26419691D01*
X73915887Y26342319D01*
X73837167Y26278193D01*
X73837161Y26278187D01*
X73431796Y25872821D01*
X73431788Y25872812D01*
X73367662Y25794095D01*
X73290290Y25640035D01*
X73250531Y25472273D01*
X73250531Y25458281D01*
X73230846Y25391242D01*
X73178042Y25345487D01*
X73126531Y25334281D01*
X73095289Y25334281D01*
X72927526Y25294522D01*
X72773467Y25217150D01*
X72694744Y25153021D01*
X72668834Y25127111D01*
X63544481Y25127111D01*
X63544481Y27636638D01*
X65975956Y27636638D01*
X65975956Y27466527D01*
X66016665Y27301358D01*
X66037869Y27260958D01*
X66095722Y27150730D01*
X66141094Y27096287D01*
X66928268Y26309113D01*
X66982711Y26263741D01*
X67133338Y26184685D01*
X67298507Y26143975D01*
X67468619Y26143975D01*
X67633788Y26184685D01*
X67784415Y26263741D01*
X67838858Y26309113D01*
X68487870Y26958125D01*
X71167731Y26958125D01*
X71167731Y26785728D01*
X71207490Y26617966D01*
X71284862Y26463907D01*
X71348987Y26385189D01*
X71374901Y26359275D01*
X71931748Y26916120D01*
X71419095Y27428773D01*
X71348982Y27358659D01*
X71348974Y27358649D01*
X71284869Y27279956D01*
X71284862Y27279946D01*
X71207489Y27125885D01*
X71167731Y26958125D01*
X68487870Y26958125D01*
X69981945Y28452200D01*
X70043268Y28485685D01*
X70069626Y28488519D01*
X72632608Y28488519D01*
X72699647Y28468834D01*
X72745402Y28416030D01*
X72755346Y28346872D01*
X72744328Y28310718D01*
X72701723Y28222250D01*
X72701723Y28222247D01*
X72684502Y28107996D01*
X72655045Y28044639D01*
X72596011Y28007266D01*
X72533292Y28005820D01*
X72415694Y28033690D01*
X72243297Y28033690D01*
X72075536Y27993932D01*
X71921475Y27916559D01*
X71842752Y27852430D01*
X71772648Y27782326D01*
X72551172Y27003802D01*
X72584657Y26942479D01*
X72579673Y26872787D01*
X72551172Y26828440D01*
X71728454Y26005722D01*
X71728454Y26005721D01*
X71754360Y25979816D01*
X71754370Y25979807D01*
X71833086Y25915682D01*
X71987146Y25838310D01*
X72154909Y25798550D01*
X72327305Y25798550D01*
X72495065Y25838309D01*
X72649126Y25915682D01*
X72727846Y25979808D01*
X72727852Y25979814D01*
X73221605Y26473568D01*
X73221613Y26473577D01*
X73285736Y26552290D01*
X73285739Y26552295D01*
X73363112Y26706356D01*
X73402871Y26874116D01*
X73402871Y27046513D01*
X73375000Y27164111D01*
X73378694Y27233883D01*
X73419523Y27290582D01*
X73477174Y27315321D01*
X73591428Y27332542D01*
X73710388Y27389830D01*
X73733275Y27408793D01*
X74123543Y27799061D01*
X74184866Y27832546D01*
X74211224Y27835380D01*
X75119421Y27835380D01*
X75119423Y27835380D01*
X75195850Y27855859D01*
X75264372Y27895420D01*
X75320321Y27951369D01*
X75565122Y28196172D01*
X75626445Y28229656D01*
X75696136Y28224672D01*
X75752070Y28182801D01*
X75765597Y28160001D01*
X75767835Y28155099D01*
X75767840Y28155092D01*
X75857377Y28051760D01*
X75857381Y28051756D01*
X75909225Y28018439D01*
X75972407Y27977835D01*
X75987704Y27973344D01*
X76007910Y27967410D01*
X76066688Y27929636D01*
X76095713Y27866080D01*
X76085769Y27796922D01*
X76084696Y27794633D01*
X76078217Y27781180D01*
X76078217Y27781179D01*
X76060996Y27666928D01*
X76031539Y27603571D01*
X75972505Y27566198D01*
X75909786Y27564752D01*
X75792188Y27592622D01*
X75619791Y27592622D01*
X75452030Y27552864D01*
X75297969Y27475491D01*
X75219246Y27411362D01*
X75149142Y27341258D01*
X76798298Y25692102D01*
X76817166Y25663865D01*
X77699409Y24781622D01*
X77769508Y24851722D01*
X77769516Y24851731D01*
X77833639Y24930444D01*
X77833642Y24930449D01*
X77911015Y25084510D01*
X77950774Y25252270D01*
X77950774Y25424667D01*
X77922903Y25542265D01*
X77926597Y25612037D01*
X77967426Y25668736D01*
X78025077Y25693475D01*
X78139331Y25710696D01*
X78257152Y25767436D01*
X78326089Y25778787D01*
X78390224Y25751065D01*
X78398631Y25743396D01*
X78761487Y25380540D01*
X78812996Y25350801D01*
X78825184Y25343764D01*
X78830010Y25340978D01*
X78906436Y25320500D01*
X78906438Y25320500D01*
X80208110Y25320500D01*
X80275149Y25300815D01*
X80320904Y25248011D01*
X80330848Y25178853D01*
X80301823Y25115297D01*
X80295791Y25108819D01*
X79847632Y24660660D01*
X79786309Y24627175D01*
X79759951Y24624341D01*
X79658043Y24624341D01*
X79631994Y24617362D01*
X79631995Y24617361D01*
X79563810Y24599091D01*
X79529110Y24579056D01*
X79529109Y24579055D01*
X79479330Y24550316D01*
X79479327Y24550314D01*
X71582709Y16653696D01*
X71582705Y16653690D01*
X71558318Y16611452D01*
X71558319Y16611451D01*
X71533930Y16569209D01*
X71533930Y16569208D01*
X71508681Y16474977D01*
X71508681Y15689436D01*
X71488996Y15622397D01*
X71443135Y15580079D01*
X71292731Y15499685D01*
X71292729Y15499684D01*
X71292728Y15499683D01*
X71132770Y15368411D01*
X71001498Y15208453D01*
X70903950Y15025957D01*
X70843880Y14827933D01*
X70823598Y14622000D01*
X70843880Y14416068D01*
X70843881Y14416066D01*
X70903949Y14218046D01*
X71001496Y14035550D01*
X71001498Y14035548D01*
X71132770Y13875590D01*
X71227246Y13798057D01*
X71292731Y13744315D01*
X71475227Y13646768D01*
X71541732Y13626595D01*
X71600170Y13588298D01*
X71628627Y13524486D01*
X71618068Y13455419D01*
X71571844Y13403025D01*
X71537831Y13388159D01*
X71415695Y13355433D01*
X71415688Y13355430D01*
X71201603Y13255601D01*
X71201601Y13255600D01*
X71008107Y13120114D01*
X71008101Y13120109D01*
X70841072Y12953080D01*
X70841067Y12953074D01*
X70705581Y12759580D01*
X70705580Y12759578D01*
X70605751Y12545493D01*
X70605748Y12545487D01*
X70548545Y12332001D01*
X70548545Y12332000D01*
X71446169Y12332000D01*
X71413256Y12274993D01*
X71379181Y12147826D01*
X71379181Y12016174D01*
X71413256Y11889007D01*
X71446169Y11832000D01*
X70548545Y11832000D01*
X70605748Y11618514D01*
X70605751Y11618508D01*
X70705580Y11404422D01*
X70841075Y11210918D01*
X71008098Y11043895D01*
X71201602Y10908400D01*
X71415688Y10808571D01*
X71415697Y10808567D01*
X71629181Y10751366D01*
X71629181Y11648988D01*
X71686188Y11616075D01*
X71813355Y11582000D01*
X71945007Y11582000D01*
X72072174Y11616075D01*
X72129181Y11648988D01*
X72129181Y10751367D01*
X72342664Y10808567D01*
X72342673Y10808571D01*
X72556759Y10908400D01*
X72750263Y11043895D01*
X72917286Y11210918D01*
X73047606Y11397032D01*
X73102183Y11440656D01*
X73171682Y11447849D01*
X73234036Y11416327D01*
X73250756Y11397032D01*
X73381075Y11210918D01*
X73548098Y11043895D01*
X73741602Y10908400D01*
X73955688Y10808571D01*
X73955697Y10808567D01*
X74169181Y10751366D01*
X74169181Y11648988D01*
X74226188Y11616075D01*
X74353355Y11582000D01*
X74485007Y11582000D01*
X74612174Y11616075D01*
X74669181Y11648988D01*
X74669181Y10751367D01*
X74882664Y10808567D01*
X74882673Y10808571D01*
X75096759Y10908400D01*
X75290263Y11043895D01*
X75457286Y11210918D01*
X75587606Y11397032D01*
X75642183Y11440656D01*
X75711682Y11447849D01*
X75774036Y11416327D01*
X75790756Y11397032D01*
X75921075Y11210918D01*
X76088098Y11043895D01*
X76281602Y10908400D01*
X76495688Y10808571D01*
X76495697Y10808567D01*
X76709181Y10751366D01*
X76709181Y11648988D01*
X76766188Y11616075D01*
X76893355Y11582000D01*
X77025007Y11582000D01*
X77152174Y11616075D01*
X77209181Y11648988D01*
X77209181Y10751367D01*
X77422664Y10808567D01*
X77422673Y10808571D01*
X77636759Y10908400D01*
X77830263Y11043895D01*
X77997286Y11210918D01*
X78127606Y11397032D01*
X78182183Y11440656D01*
X78251682Y11447849D01*
X78314036Y11416327D01*
X78330756Y11397032D01*
X78461075Y11210918D01*
X78628098Y11043895D01*
X78821602Y10908400D01*
X79035688Y10808571D01*
X79035697Y10808567D01*
X79249181Y10751366D01*
X79249181Y11648988D01*
X79306188Y11616075D01*
X79433355Y11582000D01*
X79565007Y11582000D01*
X79692174Y11616075D01*
X79749181Y11648988D01*
X79749181Y10751367D01*
X79962664Y10808567D01*
X79962673Y10808571D01*
X80176759Y10908400D01*
X80370263Y11043895D01*
X80537286Y11210918D01*
X80667606Y11397032D01*
X80722183Y11440656D01*
X80791682Y11447849D01*
X80854036Y11416327D01*
X80870756Y11397032D01*
X81001075Y11210918D01*
X81168098Y11043895D01*
X81361602Y10908400D01*
X81575688Y10808571D01*
X81575697Y10808567D01*
X81789181Y10751366D01*
X81789181Y11648988D01*
X81846188Y11616075D01*
X81973355Y11582000D01*
X82105007Y11582000D01*
X82232174Y11616075D01*
X82289181Y11648988D01*
X82289181Y10751367D01*
X82502664Y10808567D01*
X82502673Y10808571D01*
X82716759Y10908400D01*
X82910263Y11043895D01*
X83077286Y11210918D01*
X83207606Y11397032D01*
X83262183Y11440656D01*
X83331682Y11447849D01*
X83394036Y11416327D01*
X83410756Y11397032D01*
X83541075Y11210918D01*
X83708098Y11043895D01*
X83901602Y10908400D01*
X84115688Y10808571D01*
X84115697Y10808567D01*
X84329181Y10751366D01*
X84329181Y11648988D01*
X84386188Y11616075D01*
X84513355Y11582000D01*
X84645007Y11582000D01*
X84772174Y11616075D01*
X84829181Y11648988D01*
X84829181Y10751367D01*
X85042664Y10808567D01*
X85042673Y10808571D01*
X85256759Y10908400D01*
X85450263Y11043895D01*
X85617286Y11210918D01*
X85747606Y11397032D01*
X85802183Y11440656D01*
X85871682Y11447849D01*
X85934036Y11416327D01*
X85950756Y11397032D01*
X86081075Y11210918D01*
X86248098Y11043895D01*
X86441602Y10908400D01*
X86655688Y10808571D01*
X86655697Y10808567D01*
X86869181Y10751366D01*
X86869181Y11648988D01*
X86926188Y11616075D01*
X87053355Y11582000D01*
X87185007Y11582000D01*
X87312174Y11616075D01*
X87369181Y11648988D01*
X87369181Y10751367D01*
X87582664Y10808567D01*
X87582673Y10808571D01*
X87796759Y10908400D01*
X87990263Y11043895D01*
X88157286Y11210918D01*
X88287606Y11397032D01*
X88342183Y11440656D01*
X88411682Y11447849D01*
X88474036Y11416327D01*
X88490756Y11397032D01*
X88621075Y11210918D01*
X88788098Y11043895D01*
X88981602Y10908400D01*
X89195688Y10808571D01*
X89195697Y10808567D01*
X89409181Y10751366D01*
X89409181Y11648988D01*
X89466188Y11616075D01*
X89593355Y11582000D01*
X89725007Y11582000D01*
X89852174Y11616075D01*
X89909181Y11648988D01*
X89909181Y10751367D01*
X90122664Y10808567D01*
X90122673Y10808571D01*
X90336759Y10908400D01*
X90530263Y11043895D01*
X90697286Y11210918D01*
X90827606Y11397032D01*
X90882183Y11440656D01*
X90951682Y11447849D01*
X91014036Y11416327D01*
X91030756Y11397032D01*
X91161075Y11210918D01*
X91328098Y11043895D01*
X91521602Y10908400D01*
X91735688Y10808571D01*
X91735697Y10808567D01*
X91949181Y10751366D01*
X91949181Y11648988D01*
X92006188Y11616075D01*
X92133355Y11582000D01*
X92265007Y11582000D01*
X92392174Y11616075D01*
X92449181Y11648988D01*
X92449181Y10751367D01*
X92662664Y10808567D01*
X92662673Y10808571D01*
X92876759Y10908400D01*
X93070263Y11043895D01*
X93237286Y11210918D01*
X93367606Y11397032D01*
X93422183Y11440656D01*
X93491682Y11447849D01*
X93554036Y11416327D01*
X93570756Y11397032D01*
X93701075Y11210918D01*
X93868098Y11043895D01*
X94061602Y10908400D01*
X94275688Y10808571D01*
X94275697Y10808567D01*
X94489181Y10751366D01*
X94489181Y11648988D01*
X94546188Y11616075D01*
X94673355Y11582000D01*
X94805007Y11582000D01*
X94932174Y11616075D01*
X94989181Y11648988D01*
X94989181Y10751367D01*
X95202664Y10808567D01*
X95202673Y10808571D01*
X95416759Y10908400D01*
X95610263Y11043895D01*
X95777286Y11210918D01*
X95912781Y11404422D01*
X96012610Y11618508D01*
X96012613Y11618514D01*
X96069817Y11832000D01*
X95172193Y11832000D01*
X95205106Y11889007D01*
X95239181Y12016174D01*
X95239181Y12147826D01*
X95205106Y12274993D01*
X95172193Y12332000D01*
X96069817Y12332000D01*
X96069816Y12332001D01*
X96012613Y12545487D01*
X96012610Y12545493D01*
X95912781Y12759578D01*
X95912780Y12759580D01*
X95777294Y12953074D01*
X95777289Y12953080D01*
X95612364Y13118005D01*
X98493481Y13118005D01*
X98493481Y12881996D01*
X98493482Y12881980D01*
X98524287Y12647990D01*
X98585375Y12420007D01*
X98675695Y12201955D01*
X98675700Y12201944D01*
X98701328Y12157556D01*
X98793708Y11997550D01*
X98793710Y11997547D01*
X98793711Y11997546D01*
X98937387Y11810303D01*
X98937393Y11810296D01*
X99104276Y11643413D01*
X99104283Y11643407D01*
X99214287Y11558999D01*
X99291531Y11499727D01*
X99393845Y11440656D01*
X99495924Y11381720D01*
X99495929Y11381718D01*
X99495932Y11381716D01*
X99713988Y11291394D01*
X99941967Y11230307D01*
X100175970Y11199500D01*
X100175977Y11199500D01*
X100411985Y11199500D01*
X100411992Y11199500D01*
X100645995Y11230307D01*
X100873974Y11291394D01*
X101092030Y11381716D01*
X101296431Y11499727D01*
X101483680Y11643408D01*
X101650573Y11810301D01*
X101794254Y11997550D01*
X101912265Y12201951D01*
X102002587Y12420007D01*
X102063674Y12647986D01*
X102094481Y12881989D01*
X102094481Y13118011D01*
X102063674Y13352014D01*
X102002587Y13579993D01*
X101912265Y13798049D01*
X101912263Y13798052D01*
X101912261Y13798057D01*
X101867497Y13875590D01*
X101794254Y14002450D01*
X101650573Y14189699D01*
X101650568Y14189705D01*
X101483685Y14356588D01*
X101483678Y14356594D01*
X101296435Y14500270D01*
X101296434Y14500271D01*
X101296431Y14500273D01*
X101214938Y14547323D01*
X101092037Y14618281D01*
X101092026Y14618286D01*
X100873974Y14708606D01*
X100645991Y14769694D01*
X100412001Y14800499D01*
X100411998Y14800500D01*
X100411992Y14800500D01*
X100175970Y14800500D01*
X100175964Y14800500D01*
X100175960Y14800499D01*
X99941970Y14769694D01*
X99713987Y14708606D01*
X99495935Y14618286D01*
X99495924Y14618281D01*
X99291526Y14500270D01*
X99104283Y14356594D01*
X99104276Y14356588D01*
X98937393Y14189705D01*
X98937387Y14189698D01*
X98793711Y14002455D01*
X98675700Y13798057D01*
X98675695Y13798046D01*
X98585375Y13579994D01*
X98524287Y13352011D01*
X98493482Y13118021D01*
X98493481Y13118005D01*
X95612364Y13118005D01*
X95610263Y13120106D01*
X95416759Y13255601D01*
X95246233Y13335118D01*
X95193794Y13381290D01*
X95174642Y13448484D01*
X95194858Y13515365D01*
X95248023Y13560700D01*
X95298638Y13571500D01*
X95608931Y13571500D01*
X95608932Y13571501D01*
X95623749Y13574448D01*
X95667410Y13583132D01*
X95667410Y13583133D01*
X95667412Y13583133D01*
X95733733Y13627448D01*
X95778048Y13693769D01*
X95778048Y13693771D01*
X95778049Y13693771D01*
X95789680Y13752248D01*
X95789681Y13752250D01*
X95789681Y15491751D01*
X95789680Y15491753D01*
X95778049Y15550230D01*
X95778048Y15550231D01*
X95733733Y15616553D01*
X95667411Y15660868D01*
X95667410Y15660869D01*
X95608933Y15672500D01*
X95608929Y15672500D01*
X95233681Y15672500D01*
X95166642Y15692185D01*
X95120887Y15744989D01*
X95109681Y15796500D01*
X95109681Y16006560D01*
X95109681Y16006562D01*
X95084432Y16100793D01*
X95035655Y16185277D01*
X94966673Y16254259D01*
X86794966Y24425967D01*
X86794965Y24425968D01*
X86710480Y24474744D01*
X86704416Y24476369D01*
X86648831Y24508462D01*
X86480274Y24677019D01*
X86446789Y24738342D01*
X86451773Y24808034D01*
X86493645Y24863967D01*
X86559109Y24888384D01*
X86567955Y24888700D01*
X87209541Y24888700D01*
X87209543Y24888700D01*
X87285970Y24909179D01*
X87354492Y24948740D01*
X87404623Y24998871D01*
X87465946Y25032356D01*
X87535638Y25027372D01*
X87546101Y25022913D01*
X87604266Y24994902D01*
X87647888Y24988327D01*
X87734826Y24975223D01*
X87734827Y24975223D01*
X87734828Y24975223D01*
X87780101Y24982047D01*
X87865388Y24994902D01*
X87933454Y25027681D01*
X88002391Y25039032D01*
X88066525Y25011311D01*
X88105491Y24953316D01*
X88106917Y24883460D01*
X88098973Y24862160D01*
X88069381Y24800711D01*
X88069380Y24800709D01*
X88049702Y24670150D01*
X88049702Y24670149D01*
X88069380Y24539590D01*
X88069381Y24539586D01*
X88126665Y24420635D01*
X88126667Y24420631D01*
X88126668Y24420630D01*
X88126669Y24420628D01*
X88145632Y24397740D01*
X88556116Y23987256D01*
X88579004Y23968293D01*
X88579005Y23968293D01*
X88579006Y23968292D01*
X88579010Y23968290D01*
X88697961Y23911006D01*
X88697962Y23911006D01*
X88697964Y23911005D01*
X88731170Y23906000D01*
X88828524Y23891326D01*
X88828525Y23891326D01*
X88959086Y23911005D01*
X88959087Y23911006D01*
X88966593Y23912137D01*
X89035818Y23902664D01*
X89072756Y23877203D01*
X89731162Y23218797D01*
X89764647Y23157474D01*
X89767481Y23131116D01*
X89767481Y23037559D01*
X89758559Y22996544D01*
X89759549Y22996253D01*
X89757049Y22987742D01*
X89737591Y22852400D01*
X89757049Y22717063D01*
X89757051Y22717055D01*
X89813848Y22592686D01*
X89813853Y22592679D01*
X89903390Y22489347D01*
X89903394Y22489343D01*
X89963960Y22450421D01*
X90018420Y22415422D01*
X90038766Y22409448D01*
X90149613Y22376900D01*
X90149614Y22376900D01*
X90286348Y22376900D01*
X90417542Y22415422D01*
X90532570Y22489345D01*
X90622111Y22592682D01*
X90627047Y22603489D01*
X90663646Y22683631D01*
X90678912Y22717058D01*
X90698371Y22852400D01*
X90678912Y22987742D01*
X90676413Y22996253D01*
X90677402Y22996544D01*
X90668481Y23037559D01*
X90668481Y23428388D01*
X90668481Y23428390D01*
X90640134Y23534181D01*
X90640134Y23534182D01*
X90640134Y23534183D01*
X90640131Y23534189D01*
X90637780Y23542968D01*
X90607904Y23594715D01*
X90578473Y23645692D01*
X90578469Y23645697D01*
X90145033Y24079133D01*
X89709858Y24514307D01*
X89676374Y24575629D01*
X89674925Y24620468D01*
X89682229Y24668926D01*
X89693277Y24742230D01*
X89722733Y24805584D01*
X89781767Y24842958D01*
X89844488Y24844404D01*
X89962087Y24816533D01*
X90134483Y24816533D01*
X90302243Y24856292D01*
X90456305Y24933666D01*
X90456308Y24933668D01*
X90535016Y24997783D01*
X90535030Y24997796D01*
X90605131Y25067898D01*
X90605131Y25067899D01*
X90092479Y25580550D01*
X89810964Y25862065D01*
X89781426Y25881802D01*
X89729124Y25934104D01*
X90446032Y25934104D01*
X90446032Y25934103D01*
X90958683Y25421451D01*
X91028783Y25491551D01*
X91028791Y25491560D01*
X91092914Y25570273D01*
X91092917Y25570278D01*
X91170290Y25724339D01*
X91210049Y25892099D01*
X91210049Y26064496D01*
X91170289Y26232258D01*
X91092917Y26386317D01*
X91028791Y26465037D01*
X91002878Y26490950D01*
X91002877Y26490950D01*
X90446032Y25934104D01*
X89729124Y25934104D01*
X88640327Y27022901D01*
X89357234Y27022901D01*
X90092479Y26287656D01*
X90092480Y26287656D01*
X90649325Y26844502D01*
X90623409Y26870417D01*
X90544693Y26934542D01*
X90390633Y27011914D01*
X90215846Y27053338D01*
X90216147Y27054610D01*
X90158821Y27078985D01*
X90119511Y27136747D01*
X90116868Y27146210D01*
X90076592Y27316154D01*
X89999219Y27470214D01*
X89935093Y27548934D01*
X89909180Y27574847D01*
X89357234Y27022901D01*
X88640327Y27022901D01*
X88132575Y27530653D01*
X88062462Y27460539D01*
X88062454Y27460529D01*
X87998349Y27381836D01*
X87998342Y27381826D01*
X87920969Y27227765D01*
X87881211Y27060005D01*
X87881211Y26887607D01*
X87909081Y26770009D01*
X87905387Y26700237D01*
X87864557Y26643539D01*
X87806905Y26618799D01*
X87692654Y26601578D01*
X87573692Y26544290D01*
X87550800Y26525322D01*
X87051939Y26026461D01*
X87032971Y26003569D01*
X86975683Y25884607D01*
X86975682Y25884606D01*
X86956004Y25754047D01*
X86956004Y25754046D01*
X86974372Y25632181D01*
X86964899Y25562957D01*
X86919504Y25509843D01*
X86852600Y25489703D01*
X86851757Y25489700D01*
X86273910Y25489700D01*
X86206871Y25509385D01*
X86186229Y25526019D01*
X85765714Y25946534D01*
X85732229Y26007857D01*
X85737213Y26077549D01*
X85750295Y26103108D01*
X85750627Y26103606D01*
X85750629Y26103607D01*
X85794086Y26168643D01*
X85794087Y26168645D01*
X85814498Y26271259D01*
X85814498Y26271264D01*
X85794087Y26373874D01*
X85794086Y26373877D01*
X85794086Y26373878D01*
X85750630Y26438915D01*
X85750628Y26438918D01*
X85672918Y26516628D01*
X85639433Y26577951D01*
X85644417Y26647643D01*
X85672916Y26691988D01*
X86865135Y27884206D01*
X88486128Y27884206D01*
X88998781Y27371553D01*
X88998782Y27371553D01*
X89555627Y27928399D01*
X89529711Y27954314D01*
X89450995Y28018439D01*
X89296935Y28095811D01*
X89129173Y28135570D01*
X88956777Y28135570D01*
X88789016Y28095812D01*
X88634955Y28018439D01*
X88556232Y27954310D01*
X88486128Y27884206D01*
X86865135Y27884206D01*
X87440930Y28460000D01*
X100635398Y28460000D01*
X100655680Y28254068D01*
X100673243Y28196171D01*
X100715749Y28056046D01*
X100813296Y27873550D01*
X100827811Y27855863D01*
X100944570Y27713590D01*
X101001429Y27666928D01*
X101104531Y27582315D01*
X101287027Y27484768D01*
X101485047Y27424700D01*
X101485046Y27424700D01*
X101503510Y27422882D01*
X101690981Y27404417D01*
X101896915Y27424700D01*
X102094935Y27484768D01*
X102277431Y27582315D01*
X102437391Y27713590D01*
X102568666Y27873550D01*
X102666213Y28056046D01*
X102726281Y28254066D01*
X102746564Y28460000D01*
X102726281Y28665934D01*
X102666213Y28863954D01*
X102568666Y29046450D01*
X102459547Y29179413D01*
X102437391Y29206411D01*
X102277433Y29337683D01*
X102277434Y29337683D01*
X102277431Y29337685D01*
X102094935Y29435232D01*
X101896915Y29495300D01*
X101896913Y29495301D01*
X101896915Y29495301D01*
X101690981Y29515583D01*
X101485048Y29495301D01*
X101287024Y29435231D01*
X101201344Y29389433D01*
X101104531Y29337685D01*
X101104529Y29337684D01*
X101104528Y29337683D01*
X100944570Y29206411D01*
X100813298Y29046453D01*
X100813296Y29046450D01*
X100797497Y29016892D01*
X100715750Y28863957D01*
X100655680Y28665933D01*
X100635398Y28460000D01*
X87440930Y28460000D01*
X87709046Y28728116D01*
X87752162Y28802796D01*
X87774481Y28886090D01*
X87774481Y28972322D01*
X87774481Y35598134D01*
X87794166Y35665173D01*
X87846970Y35710928D01*
X87898481Y35722134D01*
X88112539Y35722134D01*
X88142128Y35724909D01*
X88266754Y35768518D01*
X88372990Y35846923D01*
X88451395Y35953159D01*
X88495004Y36077785D01*
X88497779Y36107374D01*
X88497779Y36687895D01*
X88946779Y36687895D01*
X88946779Y36107374D01*
X88949553Y36077785D01*
X88993163Y35953158D01*
X89071567Y35846924D01*
X89071568Y35846923D01*
X89177802Y35768519D01*
X89177803Y35768519D01*
X89177804Y35768518D01*
X89302430Y35724909D01*
X89302429Y35724909D01*
X89332019Y35722134D01*
X89332023Y35722134D01*
X89937539Y35722134D01*
X89967128Y35724909D01*
X90091754Y35768518D01*
X90197990Y35846923D01*
X90263088Y35935128D01*
X90281913Y35960635D01*
X90284101Y35959021D01*
X90322721Y35998726D01*
X90390782Y36014523D01*
X90450688Y35995045D01*
X90475620Y35979022D01*
X90538240Y35960635D01*
X90606813Y35940500D01*
X90606814Y35940500D01*
X90743548Y35940500D01*
X90874742Y35979022D01*
X90989770Y36052945D01*
X91079311Y36156282D01*
X91136112Y36280658D01*
X91155571Y36416000D01*
X91136112Y36551342D01*
X91112923Y36602118D01*
X91079313Y36675715D01*
X91079308Y36675722D01*
X90989771Y36779054D01*
X90989767Y36779058D01*
X90891655Y36842109D01*
X90874742Y36852978D01*
X90874741Y36852979D01*
X90874740Y36852979D01*
X90743549Y36891500D01*
X90743548Y36891500D01*
X90606814Y36891500D01*
X90606813Y36891500D01*
X90475621Y36852979D01*
X90432831Y36825480D01*
X90365791Y36805796D01*
X90298752Y36825482D01*
X90266023Y36856163D01*
X90197990Y36948345D01*
X90197989Y36948346D01*
X90091755Y37026750D01*
X89967127Y37070360D01*
X89967128Y37070360D01*
X89937539Y37073134D01*
X89937535Y37073134D01*
X89332023Y37073134D01*
X89332019Y37073134D01*
X89302429Y37070360D01*
X89177802Y37026750D01*
X89071568Y36948346D01*
X89071567Y36948345D01*
X88993163Y36842111D01*
X88949553Y36717484D01*
X88946779Y36687895D01*
X88497779Y36687895D01*
X88495004Y36717484D01*
X88470556Y36787350D01*
X88451395Y36842109D01*
X88448738Y36845709D01*
X88372990Y36948345D01*
X88372989Y36948346D01*
X88266755Y37026750D01*
X88142127Y37070360D01*
X88142128Y37070360D01*
X88112539Y37073134D01*
X88112535Y37073134D01*
X87898481Y37073134D01*
X87831442Y37092819D01*
X87785687Y37145623D01*
X87774481Y37197134D01*
X87774481Y38902883D01*
X87774482Y38902896D01*
X87774482Y39609258D01*
X87794167Y39676297D01*
X87846971Y39722052D01*
X87870899Y39730152D01*
X87904554Y39737829D01*
X88007918Y39787593D01*
X88097616Y39859110D01*
X88169151Y39948794D01*
X88218937Y40052147D01*
X88241911Y40152754D01*
X88244476Y40163985D01*
X88244476Y40168823D01*
X88244482Y40168894D01*
X88244482Y40221415D01*
X88244484Y40242450D01*
X88244487Y40273218D01*
X88244486Y40273221D01*
X88244487Y40282576D01*
X88244482Y40282656D01*
X88244482Y40327601D01*
X88244486Y40369510D01*
X88244485Y40369511D01*
X88244486Y40369514D01*
X88218964Y40481373D01*
X88184080Y40553820D01*
X88169187Y40584748D01*
X88169186Y40584749D01*
X88122344Y40643489D01*
X88095936Y40708176D01*
X88108693Y40776871D01*
X88122352Y40798122D01*
X88146556Y40828467D01*
X88169151Y40856794D01*
X88218937Y40960147D01*
X88235483Y41032604D01*
X88244476Y41071985D01*
X88244476Y41076823D01*
X88244482Y41076894D01*
X88244482Y41129415D01*
X88244483Y41144433D01*
X88244487Y41181218D01*
X88244486Y41181221D01*
X88244487Y41190576D01*
X88244482Y41190656D01*
X88244482Y41231622D01*
X88244486Y41277510D01*
X88244485Y41277511D01*
X88244486Y41277514D01*
X88218964Y41389373D01*
X88188187Y41453289D01*
X88169188Y41492746D01*
X88157138Y41507856D01*
X88097653Y41582451D01*
X88007950Y41653986D01*
X88007948Y41653987D01*
X88007947Y41653988D01*
X87904577Y41703763D01*
X87870897Y41711448D01*
X87809916Y41745553D01*
X87777055Y41807213D01*
X87774482Y41832341D01*
X87774482Y41867421D01*
X87794167Y41934460D01*
X87831441Y41971736D01*
X87909570Y42021945D01*
X87999111Y42125282D01*
X88055912Y42249658D01*
X88075371Y42385000D01*
X88055912Y42520342D01*
X88030303Y42576418D01*
X87999113Y42644715D01*
X87999108Y42644722D01*
X87909571Y42748054D01*
X87909567Y42748058D01*
X87818717Y42806442D01*
X87794542Y42821978D01*
X87794541Y42821979D01*
X87794540Y42821979D01*
X87717221Y42844682D01*
X87658443Y42882456D01*
X87629418Y42946012D01*
X87639362Y43015171D01*
X87664475Y43051340D01*
X87728203Y43115068D01*
X88006046Y43392910D01*
X88049162Y43467590D01*
X88071481Y43550884D01*
X88071481Y43637116D01*
X88071481Y45821900D01*
X88091166Y45888939D01*
X88143970Y45934694D01*
X88195481Y45945900D01*
X88563731Y45945900D01*
X88563732Y45945901D01*
X88578549Y45948848D01*
X88622210Y45957532D01*
X88622210Y45957533D01*
X88622212Y45957533D01*
X88688533Y46001848D01*
X88732848Y46068169D01*
X88732848Y46068171D01*
X88732849Y46068171D01*
X88744480Y46126648D01*
X88744481Y46126650D01*
X88744481Y47766151D01*
X88744480Y47766153D01*
X88732849Y47824630D01*
X88732848Y47824631D01*
X88688533Y47890953D01*
X88622211Y47935268D01*
X88622210Y47935269D01*
X88563733Y47946900D01*
X88563729Y47946900D01*
X86924233Y47946900D01*
X86924228Y47946900D01*
X86865751Y47935269D01*
X86865750Y47935268D01*
X86799428Y47890953D01*
X86755113Y47824631D01*
X86755112Y47824630D01*
X86743481Y47766153D01*
X86743481Y46126648D01*
X86755112Y46068171D01*
X86755113Y46068170D01*
X86799428Y46001848D01*
X86865750Y45957533D01*
X86865751Y45957532D01*
X86924228Y45945901D01*
X86924231Y45945900D01*
X86924233Y45945900D01*
X87292481Y45945900D01*
X87359520Y45926215D01*
X87405275Y45873411D01*
X87416481Y45821900D01*
X87416481Y45181615D01*
X87396796Y45114576D01*
X87343992Y45068821D01*
X87274834Y45058877D01*
X87211278Y45087902D01*
X87196629Y45102948D01*
X87189750Y45111329D01*
X87184864Y45117283D01*
X87106476Y45181615D01*
X87032520Y45242310D01*
X87032513Y45242314D01*
X86858714Y45335212D01*
X86858708Y45335214D01*
X86670113Y45392424D01*
X86670110Y45392425D01*
X86473981Y45411741D01*
X86277851Y45392425D01*
X86089247Y45335212D01*
X85915448Y45242314D01*
X85915441Y45242310D01*
X85763097Y45117284D01*
X85638071Y44964940D01*
X85638067Y44964933D01*
X85545169Y44791134D01*
X85487956Y44602530D01*
X85468640Y44406400D01*
X85487956Y44210271D01*
X85494784Y44187762D01*
X85535710Y44052847D01*
X85545169Y44021667D01*
X85638067Y43847868D01*
X85638071Y43847861D01*
X85763097Y43695517D01*
X85915441Y43570491D01*
X85915448Y43570487D01*
X86089247Y43477589D01*
X86089250Y43477589D01*
X86089254Y43477586D01*
X86277849Y43420376D01*
X86473981Y43401059D01*
X86670113Y43420376D01*
X86823807Y43467000D01*
X86893673Y43467623D01*
X86952786Y43430376D01*
X86982377Y43367082D01*
X86973052Y43297837D01*
X86947483Y43260658D01*
X86691890Y43005064D01*
X86630916Y42944091D01*
X86630914Y42944088D01*
X86587799Y42869410D01*
X86587799Y42869409D01*
X86570139Y42803500D01*
X86565480Y42786114D01*
X86565480Y42094616D01*
X86545795Y42027577D01*
X86495290Y41982900D01*
X86421987Y41947592D01*
X86421985Y41947591D01*
X86421984Y41947590D01*
X86332302Y41876062D01*
X86332298Y41876058D01*
X86260777Y41786365D01*
X86211005Y41683003D01*
X86185481Y41571168D01*
X86185480Y41571158D01*
X86185480Y41371841D01*
X86185500Y41371539D01*
X86185500Y41365645D01*
X86185501Y41365635D01*
X86210712Y41255173D01*
X86211025Y41253803D01*
X86222959Y41229020D01*
X86260794Y41150447D01*
X86307619Y41091724D01*
X86334024Y41027036D01*
X86321264Y40958342D01*
X86307620Y40937110D01*
X86260777Y40878365D01*
X86211005Y40775003D01*
X86185481Y40663168D01*
X86185480Y40663158D01*
X86185480Y40463841D01*
X86185500Y40463539D01*
X86185500Y40457645D01*
X86185501Y40457635D01*
X86211024Y40345806D01*
X86211025Y40345803D01*
X86260795Y40242446D01*
X86332314Y40152754D01*
X86421998Y40081225D01*
X86495292Y40045921D01*
X86547147Y39999095D01*
X86565480Y39934206D01*
X86565480Y38902896D01*
X86565481Y38902883D01*
X86565481Y38733416D01*
X86545796Y38666377D01*
X86492992Y38620622D01*
X86441481Y38609416D01*
X86224932Y38609416D01*
X86195342Y38606642D01*
X86070715Y38563032D01*
X85964481Y38484628D01*
X85964480Y38484627D01*
X85886076Y38378393D01*
X85842466Y38253766D01*
X85839692Y38224177D01*
X85839692Y37643656D01*
X85842466Y37614067D01*
X85886076Y37489440D01*
X85964480Y37383206D01*
X85964481Y37383205D01*
X86070715Y37304801D01*
X86070716Y37304801D01*
X86070717Y37304800D01*
X86195343Y37261191D01*
X86195342Y37261191D01*
X86224932Y37258416D01*
X86224936Y37258416D01*
X86441481Y37258416D01*
X86508520Y37238731D01*
X86554275Y37185927D01*
X86565481Y37134416D01*
X86565481Y29345699D01*
X86545796Y29278660D01*
X86529162Y29258018D01*
X85446162Y28175018D01*
X85384839Y28141533D01*
X85315147Y28146517D01*
X85259214Y28188389D01*
X85234797Y28253853D01*
X85234481Y28262699D01*
X85234481Y31620853D01*
X85234481Y31620854D01*
X85212162Y31704148D01*
X85169046Y31778828D01*
X85108071Y31839803D01*
X82603800Y34344074D01*
X82570315Y34405397D01*
X82567481Y34431755D01*
X82567481Y35597220D01*
X82587166Y35664259D01*
X82639970Y35710014D01*
X82691481Y35721220D01*
X82911764Y35721220D01*
X82941353Y35723995D01*
X82943965Y35724909D01*
X83065979Y35767604D01*
X83172215Y35846009D01*
X83250620Y35952245D01*
X83294229Y36076871D01*
X83297004Y36106464D01*
X83297004Y36686976D01*
X83296918Y36687890D01*
X83294229Y36716570D01*
X83256118Y36825482D01*
X83250620Y36841195D01*
X83249945Y36842109D01*
X83172215Y36947431D01*
X83172214Y36947432D01*
X83065980Y37025836D01*
X82941352Y37069446D01*
X82941353Y37069446D01*
X82911764Y37072220D01*
X82911760Y37072220D01*
X82691481Y37072220D01*
X82624442Y37091905D01*
X82578687Y37144709D01*
X82567481Y37196220D01*
X82567481Y39660813D01*
X82587166Y39727852D01*
X82639970Y39773607D01*
X82678998Y39782081D01*
X82678779Y39784034D01*
X82685696Y39784814D01*
X82685702Y39784813D01*
X82797539Y39810325D01*
X82900895Y39860080D01*
X82900896Y39860080D01*
X82915944Y39872077D01*
X82990592Y39931588D01*
X83062129Y40021260D01*
X83111919Y40124601D01*
X83137468Y40236430D01*
X83137469Y40242269D01*
X83137481Y40242436D01*
X83137481Y40293933D01*
X83137485Y40313120D01*
X83137492Y40345656D01*
X83137491Y40345659D01*
X83137493Y40355273D01*
X83137481Y40355439D01*
X83137481Y40435873D01*
X83137468Y40436054D01*
X83137470Y40441954D01*
X83111959Y40553820D01*
X83108785Y40560413D01*
X83062191Y40657200D01*
X83062189Y40657203D01*
X83049713Y40672850D01*
X83015322Y40715983D01*
X82988920Y40780669D01*
X83001682Y40849364D01*
X83015344Y40870615D01*
X83021527Y40878365D01*
X83062129Y40929260D01*
X83111919Y41032601D01*
X83137468Y41144430D01*
X83137469Y41150269D01*
X83137481Y41150436D01*
X83137481Y41203464D01*
X83137486Y41227004D01*
X83137492Y41253656D01*
X83137491Y41253659D01*
X83137493Y41263272D01*
X83137481Y41263438D01*
X83137481Y41343873D01*
X83137468Y41344054D01*
X83137470Y41349954D01*
X83111959Y41461820D01*
X83097071Y41492746D01*
X83062191Y41565200D01*
X83062189Y41565203D01*
X83048437Y41582451D01*
X82990659Y41654915D01*
X82990657Y41654917D01*
X82990656Y41654918D01*
X82900952Y41726458D01*
X82797577Y41776240D01*
X82685719Y41801764D01*
X82678792Y41802544D01*
X82679113Y41805397D01*
X82624442Y41821450D01*
X82578687Y41874254D01*
X82567481Y41925765D01*
X82567481Y41949305D01*
X82587166Y42016344D01*
X82624440Y42053620D01*
X82703249Y42104266D01*
X82792790Y42207603D01*
X82849591Y42331979D01*
X82869050Y42467321D01*
X82849591Y42602663D01*
X82837337Y42629494D01*
X82792792Y42727036D01*
X82792787Y42727043D01*
X82703250Y42830375D01*
X82703249Y42830376D01*
X82680988Y42844682D01*
X82625873Y42880102D01*
X82580119Y42932905D01*
X82570175Y43002063D01*
X82599200Y43065619D01*
X82605200Y43072066D01*
X82860046Y43326910D01*
X82903162Y43401590D01*
X82925481Y43484884D01*
X82925481Y43571116D01*
X82925481Y43711607D01*
X82945166Y43778646D01*
X82997970Y43824401D01*
X83067128Y43834345D01*
X83130684Y43805320D01*
X83145334Y43790272D01*
X83223097Y43695517D01*
X83313122Y43621636D01*
X83375443Y43570490D01*
X83517936Y43494326D01*
X83567778Y43445365D01*
X83583481Y43384969D01*
X83583481Y41833458D01*
X83599010Y41775501D01*
X83607365Y41744320D01*
X83607368Y41744313D01*
X83653508Y41664395D01*
X83653512Y41664390D01*
X84315873Y41002029D01*
X84349358Y40940706D01*
X84352192Y40914348D01*
X84352192Y38688272D01*
X84332507Y38621233D01*
X84279703Y38575478D01*
X84269148Y38571231D01*
X84245715Y38563032D01*
X84139481Y38484628D01*
X84139480Y38484627D01*
X84061076Y38378393D01*
X84017466Y38253766D01*
X84014692Y38224177D01*
X84014692Y37643656D01*
X84017466Y37614067D01*
X84061077Y37489439D01*
X84065418Y37481225D01*
X84063529Y37480227D01*
X84083245Y37426267D01*
X84083504Y37418250D01*
X84083504Y37151076D01*
X84063819Y37084037D01*
X84011015Y37038282D01*
X84000460Y37034035D01*
X83977027Y37025836D01*
X83870793Y36947432D01*
X83870792Y36947431D01*
X83792388Y36841197D01*
X83748778Y36716570D01*
X83746004Y36686981D01*
X83746004Y36106460D01*
X83748778Y36076871D01*
X83792388Y35952244D01*
X83870792Y35846010D01*
X83870793Y35846009D01*
X83977027Y35767605D01*
X83977028Y35767605D01*
X83977029Y35767604D01*
X84101655Y35723995D01*
X84101654Y35723995D01*
X84131244Y35721220D01*
X84131248Y35721220D01*
X84736764Y35721220D01*
X84766353Y35723995D01*
X84768965Y35724909D01*
X84890979Y35767604D01*
X84997215Y35846009D01*
X85075620Y35952245D01*
X85119229Y36076871D01*
X85122004Y36106464D01*
X85122004Y36686976D01*
X85121918Y36687890D01*
X85119229Y36716570D01*
X85081118Y36825482D01*
X85075620Y36841195D01*
X85074945Y36842109D01*
X84997215Y36947431D01*
X84997214Y36947432D01*
X84883503Y37031354D01*
X84884637Y37032891D01*
X84842894Y37073513D01*
X84827114Y37141577D01*
X84850637Y37207368D01*
X84905996Y37249997D01*
X84950907Y37258416D01*
X85005452Y37258416D01*
X85035041Y37261191D01*
X85050459Y37266586D01*
X85159667Y37304800D01*
X85265903Y37383205D01*
X85344308Y37489441D01*
X85387917Y37614067D01*
X85390326Y37639758D01*
X85390692Y37643656D01*
X85390692Y38224177D01*
X85387917Y38253766D01*
X85344307Y38378393D01*
X85265903Y38484627D01*
X85265902Y38484628D01*
X85159668Y38563032D01*
X85159669Y38563032D01*
X85136236Y38571231D01*
X85079461Y38611953D01*
X85053714Y38676906D01*
X85053192Y38688272D01*
X85053192Y41157034D01*
X85053192Y41157036D01*
X85029306Y41246180D01*
X85020813Y41260890D01*
X84983162Y41326104D01*
X84320800Y41988466D01*
X84287315Y42049789D01*
X84284481Y42076147D01*
X84284481Y43384969D01*
X84304166Y43452008D01*
X84350025Y43494326D01*
X84492519Y43570490D01*
X84644864Y43695517D01*
X84769891Y43847862D01*
X84862795Y44021673D01*
X84920005Y44210268D01*
X84939322Y44406400D01*
X84920005Y44602532D01*
X84862795Y44791127D01*
X84862792Y44791131D01*
X84862792Y44791134D01*
X84769894Y44964933D01*
X84769890Y44964940D01*
X84644864Y45117284D01*
X84492520Y45242310D01*
X84492513Y45242314D01*
X84318714Y45335212D01*
X84318708Y45335214D01*
X84130113Y45392424D01*
X84130110Y45392425D01*
X84080805Y45397281D01*
X84016018Y45423443D01*
X83975660Y45480478D01*
X83972544Y45550278D01*
X84005278Y45608363D01*
X84490739Y46093824D01*
X84552060Y46127307D01*
X84621752Y46122323D01*
X84639896Y46113036D01*
X84640070Y46113361D01*
X84819247Y46017589D01*
X84819250Y46017589D01*
X84819254Y46017586D01*
X85007849Y45960376D01*
X85203981Y45941059D01*
X85400113Y45960376D01*
X85588708Y46017586D01*
X85762519Y46110490D01*
X85914864Y46235517D01*
X86039891Y46387862D01*
X86132795Y46561673D01*
X86190005Y46750268D01*
X86209322Y46946400D01*
X86190005Y47142532D01*
X86132795Y47331127D01*
X86132792Y47331131D01*
X86132792Y47331134D01*
X86039894Y47504933D01*
X86039890Y47504940D01*
X85914864Y47657284D01*
X85762520Y47782310D01*
X85762513Y47782314D01*
X85588714Y47875212D01*
X85588708Y47875214D01*
X85400113Y47932424D01*
X85400110Y47932425D01*
X85203981Y47951741D01*
X85007851Y47932425D01*
X84819247Y47875212D01*
X84645448Y47782314D01*
X84645441Y47782310D01*
X84493097Y47657284D01*
X84368071Y47504940D01*
X84368067Y47504933D01*
X84275169Y47331134D01*
X84217956Y47142530D01*
X84198640Y46946400D01*
X84212470Y46805978D01*
X84199451Y46737332D01*
X84176748Y46706143D01*
X83643622Y46173017D01*
X83582299Y46139532D01*
X83512607Y46144516D01*
X83456674Y46186388D01*
X83432257Y46251852D01*
X83447109Y46320125D01*
X83460086Y46339361D01*
X83499891Y46387862D01*
X83592795Y46561673D01*
X83650005Y46750268D01*
X83669322Y46946400D01*
X83650005Y47142532D01*
X83592795Y47331127D01*
X83592792Y47331131D01*
X83592792Y47331134D01*
X83499894Y47504933D01*
X83499890Y47504940D01*
X83374864Y47657284D01*
X83222520Y47782310D01*
X83222513Y47782314D01*
X83048714Y47875212D01*
X83048708Y47875214D01*
X82860113Y47932424D01*
X82860110Y47932425D01*
X82663981Y47951741D01*
X82467851Y47932425D01*
X82279247Y47875212D01*
X82105448Y47782314D01*
X82105441Y47782310D01*
X81953097Y47657284D01*
X81828071Y47504940D01*
X81828067Y47504933D01*
X81735169Y47331134D01*
X81677956Y47142530D01*
X81658640Y46946400D01*
X81677956Y46750271D01*
X81677957Y46750268D01*
X81733352Y46567655D01*
X81735169Y46561667D01*
X81828067Y46387868D01*
X81828071Y46387861D01*
X81953097Y46235517D01*
X82105441Y46110491D01*
X82105448Y46110487D01*
X82279247Y46017589D01*
X82279250Y46017589D01*
X82279254Y46017586D01*
X82467849Y45960376D01*
X82663981Y45941059D01*
X82860113Y45960376D01*
X83048708Y46017586D01*
X83222519Y46110490D01*
X83271019Y46150294D01*
X83335327Y46177607D01*
X83404195Y46165817D01*
X83455756Y46118666D01*
X83473640Y46051123D01*
X83452168Y45984635D01*
X83437365Y45966760D01*
X82419104Y44948498D01*
X82357781Y44915013D01*
X82288089Y44919997D01*
X82234037Y44960461D01*
X82233756Y44960229D01*
X82232814Y44961376D01*
X82232156Y44961869D01*
X82230564Y44964118D01*
X82104864Y45117284D01*
X81952520Y45242310D01*
X81952513Y45242314D01*
X81778714Y45335212D01*
X81778708Y45335214D01*
X81590113Y45392424D01*
X81590110Y45392425D01*
X81393981Y45411741D01*
X81197851Y45392425D01*
X81009247Y45335212D01*
X80835448Y45242314D01*
X80835441Y45242310D01*
X80683097Y45117284D01*
X80558071Y44964940D01*
X80558067Y44964933D01*
X80465169Y44791134D01*
X80407956Y44602530D01*
X80397706Y44498455D01*
X80371545Y44433668D01*
X80332440Y44405998D01*
X80363364Y44388470D01*
X80395872Y44326624D01*
X80397706Y44314345D01*
X80407956Y44210271D01*
X80414784Y44187762D01*
X80455710Y44052847D01*
X80465169Y44021667D01*
X80558067Y43847868D01*
X80558071Y43847861D01*
X80683097Y43695517D01*
X80835441Y43570491D01*
X80835448Y43570487D01*
X81009247Y43477589D01*
X81009250Y43477589D01*
X81009254Y43477586D01*
X81197849Y43420376D01*
X81393981Y43401059D01*
X81590113Y43420376D01*
X81743807Y43467000D01*
X81813673Y43467623D01*
X81872786Y43430376D01*
X81902377Y43367082D01*
X81893052Y43297837D01*
X81867483Y43260658D01*
X81484891Y42878065D01*
X81423917Y42817092D01*
X81423915Y42817089D01*
X81380800Y42742411D01*
X81380800Y42742410D01*
X81363200Y42676725D01*
X81358481Y42659115D01*
X81358481Y38761271D01*
X81338796Y38694232D01*
X81285992Y38648477D01*
X81234481Y38637271D01*
X81012649Y38637271D01*
X80983059Y38634497D01*
X80858432Y38590887D01*
X80752198Y38512483D01*
X80752197Y38512482D01*
X80673793Y38406248D01*
X80630183Y38281621D01*
X80627409Y38252032D01*
X80627409Y37671511D01*
X80630183Y37641922D01*
X80673793Y37517295D01*
X80752197Y37411061D01*
X80752198Y37411060D01*
X80858432Y37332656D01*
X80858433Y37332656D01*
X80858434Y37332655D01*
X80983060Y37289046D01*
X80983059Y37289046D01*
X81012649Y37286271D01*
X81012653Y37286271D01*
X81234481Y37286271D01*
X81301520Y37266586D01*
X81347275Y37213782D01*
X81358481Y37162271D01*
X81358481Y36712929D01*
X81338796Y36645890D01*
X81285992Y36600135D01*
X81216834Y36590191D01*
X81178830Y36602118D01*
X81039961Y36671860D01*
X80872203Y36711619D01*
X80699805Y36711619D01*
X80532042Y36671859D01*
X80377987Y36594489D01*
X80377985Y36594489D01*
X80299265Y36530362D01*
X80299257Y36530355D01*
X80264512Y36495611D01*
X80264512Y36495610D01*
X81043037Y35717085D01*
X81076522Y35655762D01*
X81071538Y35586070D01*
X81043037Y35541723D01*
X80864846Y35363533D01*
X80803523Y35330048D01*
X80733831Y35335032D01*
X80689484Y35363533D01*
X79910959Y36142058D01*
X79876207Y36107303D01*
X79876205Y36107301D01*
X79812084Y36028590D01*
X79812079Y36028582D01*
X79734710Y35874527D01*
X79694950Y35706765D01*
X79694950Y35534366D01*
X79734710Y35366605D01*
X79778446Y35279519D01*
X79790943Y35210776D01*
X79764290Y35146190D01*
X79706951Y35106265D01*
X79637129Y35103679D01*
X79631091Y35105375D01*
X79626094Y35106917D01*
X79495534Y35126596D01*
X79364973Y35106917D01*
X79364970Y35106915D01*
X79246012Y35049630D01*
X79223121Y35030662D01*
X79223114Y35030656D01*
X78794973Y34602515D01*
X78794967Y34602508D01*
X78775999Y34579617D01*
X78718714Y34460659D01*
X78718712Y34460656D01*
X78699033Y34330095D01*
X78718712Y34199535D01*
X78718714Y34199532D01*
X78775998Y34080577D01*
X78775999Y34080575D01*
X78776000Y34080574D01*
X78794964Y34057687D01*
X79205448Y33647203D01*
X79228335Y33628239D01*
X79347295Y33570952D01*
X79477856Y33551272D01*
X79608417Y33570952D01*
X79608417Y33570953D01*
X79612251Y33571530D01*
X79681475Y33562057D01*
X79718414Y33536596D01*
X79842325Y33412685D01*
X79875810Y33351362D01*
X79870826Y33281670D01*
X79828954Y33225737D01*
X79763490Y33201320D01*
X79695217Y33216172D01*
X79687606Y33220688D01*
X79647940Y33246179D01*
X79516749Y33284700D01*
X79516748Y33284700D01*
X79380014Y33284700D01*
X79380013Y33284700D01*
X79248821Y33246179D01*
X79133794Y33172258D01*
X79133790Y33172254D01*
X79044253Y33068922D01*
X79044248Y33068915D01*
X78987451Y32944546D01*
X78987449Y32944538D01*
X78967991Y32809200D01*
X78987449Y32673863D01*
X78987451Y32673855D01*
X79044248Y32549486D01*
X79044253Y32549479D01*
X79133790Y32446147D01*
X79133794Y32446143D01*
X79194360Y32407221D01*
X79248820Y32372222D01*
X79309527Y32354397D01*
X79357866Y32340203D01*
X79410612Y32308907D01*
X79470490Y32249029D01*
X79503975Y32187706D01*
X79498991Y32118014D01*
X79494530Y32107548D01*
X79458403Y32032528D01*
X79458403Y32032527D01*
X79441182Y31918276D01*
X79411725Y31854919D01*
X79352691Y31817546D01*
X79289972Y31816100D01*
X79172374Y31843970D01*
X78999977Y31843970D01*
X78832216Y31804212D01*
X78678155Y31726839D01*
X78599432Y31662710D01*
X78529328Y31592606D01*
X79313572Y30808362D01*
X79335572Y30793662D01*
X80385859Y29743375D01*
X80419344Y29682052D01*
X80414360Y29612360D01*
X80385859Y29568013D01*
X80207668Y29389822D01*
X80146345Y29356337D01*
X80076653Y29361321D01*
X80032306Y29389822D01*
X79848395Y29573733D01*
X79826395Y29588433D01*
X78175775Y31239053D01*
X78105662Y31168939D01*
X78105654Y31168929D01*
X78041549Y31090236D01*
X78041542Y31090226D01*
X78010829Y31029071D01*
X77966664Y30981762D01*
X77969423Y30955781D01*
X77964573Y30937868D01*
X77924411Y30768405D01*
X77924411Y30596008D01*
X77964170Y30428246D01*
X78041542Y30274187D01*
X78105668Y30195467D01*
X78105674Y30195461D01*
X78332555Y29968581D01*
X78366040Y29907258D01*
X78361056Y29837567D01*
X78319185Y29781633D01*
X78253720Y29757216D01*
X78244874Y29756900D01*
X76354792Y29756900D01*
X76287753Y29776585D01*
X76241998Y29829389D01*
X76232054Y29898547D01*
X76243072Y29934702D01*
X76246298Y29941401D01*
X76289039Y30030153D01*
X76306259Y30144407D01*
X76335715Y30207761D01*
X76394748Y30245135D01*
X76457470Y30246581D01*
X76575069Y30218710D01*
X76747465Y30218710D01*
X76915225Y30258469D01*
X77069287Y30335843D01*
X77069290Y30335845D01*
X77147998Y30399960D01*
X77148012Y30399973D01*
X77218113Y30470075D01*
X77218113Y30470076D01*
X76705461Y30982727D01*
X76351907Y31336281D01*
X77059014Y31336281D01*
X77059014Y31336280D01*
X77571665Y30823628D01*
X77641765Y30893728D01*
X77641773Y30893737D01*
X77705896Y30972450D01*
X77705898Y30972454D01*
X77736611Y31033608D01*
X77780777Y31080921D01*
X77778019Y31106902D01*
X77782866Y31124803D01*
X77823031Y31294276D01*
X77823031Y31466673D01*
X77783271Y31634435D01*
X77705899Y31788494D01*
X77641773Y31867214D01*
X77615860Y31893127D01*
X77615859Y31893127D01*
X77059014Y31336281D01*
X76351907Y31336281D01*
X75839255Y31848933D01*
X75769142Y31778819D01*
X75769134Y31778809D01*
X75705029Y31700116D01*
X75705022Y31700106D01*
X75627649Y31546045D01*
X75587891Y31378285D01*
X75587891Y31205887D01*
X75615761Y31088289D01*
X75612067Y31018517D01*
X75571237Y30961819D01*
X75513584Y30937079D01*
X75427943Y30924171D01*
X75358718Y30933644D01*
X75305605Y30979039D01*
X75285465Y31045943D01*
X75285462Y31046786D01*
X75285462Y32202486D01*
X76192808Y32202486D01*
X76705461Y31689833D01*
X76705462Y31689833D01*
X77262307Y32246679D01*
X77236391Y32272594D01*
X77157675Y32336719D01*
X77003615Y32414091D01*
X76835853Y32453850D01*
X76663457Y32453850D01*
X76495696Y32414092D01*
X76341635Y32336719D01*
X76262912Y32272590D01*
X76192808Y32202486D01*
X75285462Y32202486D01*
X75285462Y33704355D01*
X75305147Y33771394D01*
X75321781Y33792036D01*
X76382437Y34852692D01*
X77464868Y35935123D01*
X77510240Y35989566D01*
X77589296Y36140193D01*
X77630006Y36305362D01*
X77630006Y36475474D01*
X77589296Y36640643D01*
X77510240Y36791270D01*
X77464868Y36845713D01*
X76677694Y37632887D01*
X76623251Y37678259D01*
X76547937Y37717787D01*
X76472623Y37757316D01*
X76307455Y37798025D01*
X76137343Y37798025D01*
X75972174Y37757316D01*
X75821545Y37678258D01*
X75767108Y37632891D01*
X75767093Y37632877D01*
X72505066Y34370850D01*
X72505052Y34370835D01*
X72459685Y34316398D01*
X72380627Y34165769D01*
X72348378Y34034923D01*
X72339918Y34000600D01*
X72339918Y33830488D01*
X72343940Y33814171D01*
X72380627Y33665320D01*
X72390136Y33647203D01*
X72459684Y33514692D01*
X72505056Y33460249D01*
X73292230Y32673075D01*
X73346673Y32627703D01*
X73497300Y32548647D01*
X73662469Y32507937D01*
X73832581Y32507937D01*
X73997750Y32548647D01*
X74148377Y32627703D01*
X74202820Y32673075D01*
X74472781Y32943036D01*
X74534104Y32976521D01*
X74603796Y32971537D01*
X74659729Y32929665D01*
X74684146Y32864201D01*
X74684462Y32855355D01*
X74684462Y30577697D01*
X74689512Y30558851D01*
X74704941Y30501269D01*
X74704942Y30501268D01*
X74734827Y30449505D01*
X74738208Y30443650D01*
X74754681Y30375750D01*
X74742541Y30327849D01*
X74682363Y30202890D01*
X74682362Y30202886D01*
X74662684Y30072327D01*
X74662684Y30072326D01*
X74682362Y29941767D01*
X74682363Y29941763D01*
X74739647Y29822812D01*
X74739649Y29822808D01*
X74739650Y29822807D01*
X74739651Y29822805D01*
X74758614Y29799917D01*
X75169098Y29389433D01*
X75191986Y29370470D01*
X75191987Y29370470D01*
X75191988Y29370469D01*
X75191992Y29370467D01*
X75310943Y29313183D01*
X75310944Y29313183D01*
X75310946Y29313182D01*
X75376226Y29303343D01*
X75441506Y29293503D01*
X75441507Y29293503D01*
X75505735Y29303184D01*
X75574959Y29293711D01*
X75628073Y29248317D01*
X75648213Y29181413D01*
X75628985Y29114241D01*
X75611897Y29092888D01*
X74991709Y28472699D01*
X74930386Y28439214D01*
X74904028Y28436380D01*
X74299613Y28436380D01*
X74232574Y28456065D01*
X74211932Y28472699D01*
X73821664Y28862967D01*
X73811814Y28871128D01*
X73798776Y28881930D01*
X73798774Y28881931D01*
X73798773Y28881932D01*
X73798769Y28881934D01*
X73679818Y28939218D01*
X73679814Y28939219D01*
X73549256Y28958897D01*
X73549254Y28958897D01*
X73418695Y28939219D01*
X73418691Y28939218D01*
X73300875Y28882480D01*
X73231934Y28871128D01*
X73167800Y28898850D01*
X73159393Y28906519D01*
X73036434Y29029478D01*
X73036433Y29029479D01*
X73007038Y29046450D01*
X73007037Y29046451D01*
X72967911Y29069040D01*
X72891484Y29089519D01*
X72891482Y29089519D01*
X70918626Y29089519D01*
X70851587Y29109204D01*
X70805832Y29162008D01*
X70795888Y29231166D01*
X70824913Y29294722D01*
X70830945Y29301200D01*
X70964977Y29435232D01*
X71100906Y29571161D01*
X71146278Y29625604D01*
X71225334Y29776231D01*
X71266044Y29941400D01*
X71266044Y30111512D01*
X71225334Y30276681D01*
X71146278Y30427308D01*
X71100906Y30481751D01*
X70313732Y31268925D01*
X70259289Y31314297D01*
X70183975Y31353825D01*
X70108661Y31393354D01*
X69943493Y31434063D01*
X69773381Y31434063D01*
X69608212Y31393354D01*
X69457583Y31314296D01*
X69403146Y31268929D01*
X69403131Y31268915D01*
X66141104Y28006888D01*
X66141090Y28006873D01*
X66095723Y27952436D01*
X66016665Y27801807D01*
X65975956Y27636638D01*
X63544481Y27636638D01*
X63544481Y38500006D01*
X64288840Y38500006D01*
X64288840Y38499995D01*
X64309366Y38252271D01*
X64309368Y38252262D01*
X64370393Y38011283D01*
X64470247Y37783636D01*
X64570545Y37630118D01*
X65270193Y38329766D01*
X65281463Y38287708D01*
X65353871Y38162292D01*
X65456273Y38059890D01*
X65581689Y37987482D01*
X65623746Y37976213D01*
X64923923Y37276391D01*
X64970749Y37239945D01*
X64970751Y37239944D01*
X65189366Y37121636D01*
X65189377Y37121631D01*
X65424487Y37040917D01*
X65669688Y37000000D01*
X65918274Y37000000D01*
X66163474Y37040917D01*
X66398584Y37121631D01*
X66398595Y37121636D01*
X66617209Y37239943D01*
X66617212Y37239945D01*
X66664037Y37276391D01*
X65964215Y37976213D01*
X66006273Y37987482D01*
X66131689Y38059890D01*
X66234091Y38162292D01*
X66306499Y38287708D01*
X66317768Y38329765D01*
X67017415Y37630118D01*
X67117712Y37783631D01*
X67217568Y38011283D01*
X67278593Y38252262D01*
X67278595Y38252271D01*
X67299122Y38499995D01*
X67299122Y38500006D01*
X67278595Y38747730D01*
X67278593Y38747739D01*
X67217568Y38988718D01*
X67117712Y39216370D01*
X67017415Y39369884D01*
X66317768Y38670236D01*
X66306499Y38712292D01*
X66234091Y38837708D01*
X66131689Y38940110D01*
X66006273Y39012518D01*
X65964216Y39023788D01*
X66664038Y39723610D01*
X66664037Y39723611D01*
X66617210Y39760057D01*
X66398595Y39878365D01*
X66398584Y39878370D01*
X66163474Y39959084D01*
X65918274Y40000000D01*
X65669688Y40000000D01*
X65424487Y39959084D01*
X65189377Y39878370D01*
X65189371Y39878368D01*
X64970742Y39760051D01*
X64923923Y39723612D01*
X64923923Y39723610D01*
X65623746Y39023788D01*
X65581689Y39012518D01*
X65456273Y38940110D01*
X65353871Y38837708D01*
X65281463Y38712292D01*
X65270193Y38670236D01*
X64570545Y39369884D01*
X64470248Y39216368D01*
X64370393Y38988718D01*
X64309368Y38747739D01*
X64309366Y38747730D01*
X64288840Y38500006D01*
X63544481Y38500006D01*
X63544481Y45000006D01*
X64288840Y45000006D01*
X64288840Y44999995D01*
X64309366Y44752271D01*
X64309368Y44752262D01*
X64370393Y44511283D01*
X64470247Y44283636D01*
X64570545Y44130118D01*
X65270193Y44829766D01*
X65281463Y44787708D01*
X65353871Y44662292D01*
X65456273Y44559890D01*
X65581689Y44487482D01*
X65623746Y44476213D01*
X64923923Y43776391D01*
X64970749Y43739945D01*
X64970751Y43739944D01*
X65189366Y43621636D01*
X65189377Y43621631D01*
X65424487Y43540917D01*
X65669688Y43500000D01*
X65918274Y43500000D01*
X66163474Y43540917D01*
X66398584Y43621631D01*
X66398595Y43621636D01*
X66617209Y43739943D01*
X66617212Y43739945D01*
X66664037Y43776391D01*
X65964215Y44476213D01*
X66006273Y44487482D01*
X66131689Y44559890D01*
X66234091Y44662292D01*
X66306499Y44787708D01*
X66317768Y44829765D01*
X67017415Y44130118D01*
X67117712Y44283631D01*
X67217568Y44511283D01*
X67278593Y44752262D01*
X67278595Y44752271D01*
X67299122Y44999995D01*
X67299122Y45000001D01*
X69088338Y45000001D01*
X69088338Y45000000D01*
X69108865Y44778465D01*
X69108866Y44778463D01*
X69169750Y44564477D01*
X69169756Y44564462D01*
X69268919Y44365317D01*
X69268924Y44365309D01*
X69403001Y44187762D01*
X69567418Y44037877D01*
X69567420Y44037875D01*
X69618413Y44006302D01*
X69756580Y43920753D01*
X69864275Y43879033D01*
X69919676Y43836461D01*
X69943267Y43770694D01*
X69943481Y43763406D01*
X69943481Y39736596D01*
X69923796Y39669557D01*
X69870992Y39623802D01*
X69864276Y39620970D01*
X69756588Y39579251D01*
X69756576Y39579246D01*
X69567420Y39462126D01*
X69567418Y39462124D01*
X69403001Y39312239D01*
X69268924Y39134692D01*
X69268919Y39134684D01*
X69169756Y38935539D01*
X69169750Y38935524D01*
X69108866Y38721538D01*
X69108865Y38721536D01*
X69088338Y38500001D01*
X69088338Y38500000D01*
X69108865Y38278465D01*
X69108866Y38278463D01*
X69169750Y38064477D01*
X69169756Y38064462D01*
X69268919Y37865317D01*
X69268924Y37865309D01*
X69403001Y37687762D01*
X69567418Y37537877D01*
X69567420Y37537875D01*
X69756576Y37420755D01*
X69756577Y37420755D01*
X69756580Y37420753D01*
X69964041Y37340382D01*
X70182738Y37299500D01*
X70182740Y37299500D01*
X70405222Y37299500D01*
X70405224Y37299500D01*
X70623921Y37340382D01*
X70831382Y37420753D01*
X71020543Y37537876D01*
X71173739Y37677533D01*
X71184960Y37687762D01*
X71187322Y37690889D01*
X71319039Y37865311D01*
X71406821Y38041600D01*
X77850391Y38041600D01*
X77869849Y37906263D01*
X77869851Y37906255D01*
X77926648Y37781886D01*
X77926653Y37781879D01*
X78016190Y37678547D01*
X78016194Y37678543D01*
X78076545Y37639759D01*
X78131220Y37604622D01*
X78177272Y37591100D01*
X78262413Y37566100D01*
X78262414Y37566100D01*
X78399148Y37566100D01*
X78467183Y37586077D01*
X78502118Y37591100D01*
X78735069Y37591100D01*
X78802108Y37571415D01*
X78844698Y37525043D01*
X78848792Y37517296D01*
X78927197Y37411061D01*
X78927198Y37411060D01*
X79033432Y37332656D01*
X79033433Y37332656D01*
X79033434Y37332655D01*
X79158060Y37289046D01*
X79158059Y37289046D01*
X79187649Y37286271D01*
X79187653Y37286271D01*
X79793169Y37286271D01*
X79822758Y37289046D01*
X79852633Y37299500D01*
X79947384Y37332655D01*
X80053620Y37411060D01*
X80132025Y37517296D01*
X80175634Y37641922D01*
X80178409Y37671515D01*
X80178409Y38252027D01*
X80178386Y38252271D01*
X80175634Y38281621D01*
X80132582Y38404654D01*
X80132025Y38406246D01*
X80068662Y38492100D01*
X80053620Y38512482D01*
X80053619Y38512483D01*
X79947385Y38590887D01*
X79822757Y38634497D01*
X79822758Y38634497D01*
X79793169Y38637271D01*
X79793165Y38637271D01*
X79187653Y38637271D01*
X79187649Y38637271D01*
X79158059Y38634497D01*
X79033434Y38590888D01*
X78995691Y38563032D01*
X78933456Y38517100D01*
X78932411Y38516329D01*
X78866782Y38492359D01*
X78858778Y38492100D01*
X78502118Y38492100D01*
X78467183Y38497123D01*
X78457388Y38499999D01*
X78452746Y38501363D01*
X78399149Y38517100D01*
X78399148Y38517100D01*
X78262414Y38517100D01*
X78262413Y38517100D01*
X78131221Y38478579D01*
X78016194Y38404658D01*
X78016190Y38404654D01*
X77926653Y38301322D01*
X77926648Y38301315D01*
X77869851Y38176946D01*
X77869849Y38176938D01*
X77850391Y38041600D01*
X71406821Y38041600D01*
X71418210Y38064472D01*
X71479096Y38278464D01*
X71499624Y38500000D01*
X71499623Y38500006D01*
X71479096Y38721536D01*
X71479095Y38721538D01*
X71475715Y38733416D01*
X71418210Y38935528D01*
X71418205Y38935539D01*
X71319042Y39134684D01*
X71319037Y39134692D01*
X71184960Y39312239D01*
X71020543Y39462124D01*
X71020541Y39462126D01*
X70831385Y39579246D01*
X70831373Y39579251D01*
X70723686Y39620970D01*
X70668285Y39663543D01*
X70644695Y39729310D01*
X70644481Y39736596D01*
X70644481Y43763406D01*
X70664166Y43830445D01*
X70716970Y43876200D01*
X70723676Y43879029D01*
X70831382Y43920753D01*
X71020543Y44037876D01*
X71184962Y44187764D01*
X71319039Y44365311D01*
X71339501Y44406403D01*
X77549015Y44406403D01*
X77549015Y44406398D01*
X77568839Y44179801D01*
X77568841Y44179790D01*
X77627711Y43960083D01*
X77627716Y43960069D01*
X77723844Y43753922D01*
X77774955Y43680928D01*
X78371019Y44276992D01*
X78388057Y44213408D01*
X78453883Y44099394D01*
X78546975Y44006302D01*
X78660989Y43940476D01*
X78724572Y43923439D01*
X78128507Y43327375D01*
X78201494Y43276268D01*
X78201502Y43276264D01*
X78407649Y43180136D01*
X78407663Y43180131D01*
X78627370Y43121261D01*
X78627381Y43121259D01*
X78853979Y43101434D01*
X78853983Y43101434D01*
X79080580Y43121259D01*
X79080591Y43121261D01*
X79300298Y43180131D01*
X79300312Y43180136D01*
X79506459Y43276264D01*
X79579452Y43327376D01*
X78983389Y43923439D01*
X79046973Y43940476D01*
X79160987Y44006302D01*
X79254079Y44099394D01*
X79319905Y44213408D01*
X79336942Y44276992D01*
X79933005Y43680929D01*
X79984117Y43753922D01*
X80080245Y43960069D01*
X80080250Y43960083D01*
X80139120Y44179790D01*
X80139122Y44179801D01*
X80150775Y44312998D01*
X80176227Y44378067D01*
X80216012Y44406876D01*
X80184306Y44425308D01*
X80152474Y44487506D01*
X80150775Y44499803D01*
X80139122Y44633000D01*
X80139120Y44633011D01*
X80080250Y44852718D01*
X80080245Y44852732D01*
X79984117Y45058879D01*
X79984113Y45058887D01*
X79933006Y45131874D01*
X79336942Y44535810D01*
X79319905Y44599392D01*
X79254079Y44713406D01*
X79160987Y44806498D01*
X79046973Y44872324D01*
X78983390Y44889362D01*
X79579453Y45485426D01*
X79506459Y45536537D01*
X79300312Y45632665D01*
X79300298Y45632670D01*
X79080591Y45691540D01*
X79080580Y45691542D01*
X78853983Y45711366D01*
X78853979Y45711366D01*
X78627381Y45691542D01*
X78627370Y45691540D01*
X78407663Y45632670D01*
X78407654Y45632666D01*
X78201497Y45536534D01*
X78201493Y45536532D01*
X78128507Y45485427D01*
X78128507Y45485426D01*
X78724572Y44889362D01*
X78660989Y44872324D01*
X78546975Y44806498D01*
X78453883Y44713406D01*
X78388057Y44599392D01*
X78371019Y44535810D01*
X77774955Y45131874D01*
X77774954Y45131874D01*
X77723849Y45058888D01*
X77723847Y45058884D01*
X77627715Y44852727D01*
X77627711Y44852718D01*
X77568841Y44633011D01*
X77568839Y44633000D01*
X77549015Y44406403D01*
X71339501Y44406403D01*
X71418210Y44564472D01*
X71479096Y44778464D01*
X71499624Y45000000D01*
X71499623Y45000006D01*
X71479096Y45221536D01*
X71479095Y45221538D01*
X71471640Y45247739D01*
X71418210Y45435528D01*
X71418205Y45435539D01*
X71319042Y45634684D01*
X71319037Y45634692D01*
X71184960Y45812239D01*
X71020543Y45962124D01*
X71020541Y45962126D01*
X70831385Y46079246D01*
X70831370Y46079253D01*
X70673687Y46140340D01*
X70618285Y46182913D01*
X70594695Y46248679D01*
X70594481Y46255966D01*
X70594481Y46946400D01*
X79118640Y46946400D01*
X79137956Y46750271D01*
X79137957Y46750268D01*
X79193352Y46567655D01*
X79195169Y46561667D01*
X79288067Y46387868D01*
X79288071Y46387861D01*
X79413097Y46235517D01*
X79565441Y46110491D01*
X79565448Y46110487D01*
X79739247Y46017589D01*
X79739250Y46017589D01*
X79739254Y46017586D01*
X79927849Y45960376D01*
X80123981Y45941059D01*
X80320113Y45960376D01*
X80508708Y46017586D01*
X80682519Y46110490D01*
X80834864Y46235517D01*
X80959891Y46387862D01*
X81052795Y46561673D01*
X81110005Y46750268D01*
X81129322Y46946400D01*
X81110005Y47142532D01*
X81052795Y47331127D01*
X81052792Y47331131D01*
X81052792Y47331134D01*
X80959894Y47504933D01*
X80959890Y47504940D01*
X80834864Y47657284D01*
X80682520Y47782310D01*
X80682513Y47782314D01*
X80508714Y47875212D01*
X80508708Y47875214D01*
X80320113Y47932424D01*
X80320110Y47932425D01*
X80123981Y47951741D01*
X79927851Y47932425D01*
X79739247Y47875212D01*
X79565448Y47782314D01*
X79565441Y47782310D01*
X79413097Y47657284D01*
X79288071Y47504940D01*
X79288067Y47504933D01*
X79195169Y47331134D01*
X79137956Y47142530D01*
X79118640Y46946400D01*
X70594481Y46946400D01*
X70594481Y47436860D01*
X70594481Y47436862D01*
X70580094Y47490553D01*
X70576240Y47504939D01*
X70576239Y47504943D01*
X70575371Y47508180D01*
X70574003Y47513288D01*
X70549894Y47555046D01*
X70533281Y47617046D01*
X70533281Y47872735D01*
X70552966Y47939774D01*
X70605770Y47985529D01*
X70674928Y47995473D01*
X70738484Y47966448D01*
X70744962Y47960416D01*
X70901650Y47803728D01*
X70926763Y47767559D01*
X70939950Y47738684D01*
X70939953Y47738679D01*
X71029490Y47635347D01*
X71029494Y47635343D01*
X71057966Y47617046D01*
X71144520Y47561422D01*
X71210117Y47542161D01*
X71275713Y47522900D01*
X71275714Y47522900D01*
X71412448Y47522900D01*
X71543642Y47561422D01*
X71658670Y47635345D01*
X71748211Y47738682D01*
X71805012Y47863058D01*
X71824471Y47998400D01*
X71805012Y48133742D01*
X71766081Y48218989D01*
X71748213Y48258115D01*
X71748208Y48258122D01*
X71658671Y48361454D01*
X71658670Y48361455D01*
X71556433Y48427158D01*
X71535791Y48443793D01*
X70569600Y49409984D01*
X70536115Y49471307D01*
X70533281Y49497665D01*
X70533281Y49660261D01*
X70530506Y49689850D01*
X70493996Y49794188D01*
X70486897Y49814475D01*
X70408492Y49920711D01*
X70408491Y49920712D01*
X70302257Y49999116D01*
X70177629Y50042726D01*
X70177630Y50042726D01*
X70148041Y50045500D01*
X70148037Y50045500D01*
X69542525Y50045500D01*
X69542521Y50045500D01*
X69512931Y50042726D01*
X69388304Y49999116D01*
X69282070Y49920712D01*
X69282069Y49920711D01*
X69203665Y49814477D01*
X69160055Y49689850D01*
X69157281Y49660261D01*
X69157281Y49079740D01*
X69160055Y49050151D01*
X69203665Y48925524D01*
X69282069Y48819290D01*
X69282070Y48819289D01*
X69388304Y48740885D01*
X69388303Y48740885D01*
X69433581Y48725041D01*
X69490357Y48684319D01*
X69516103Y48619365D01*
X69502646Y48550804D01*
X69454258Y48500402D01*
X69433581Y48490959D01*
X69388304Y48475116D01*
X69282070Y48396712D01*
X69282069Y48396711D01*
X69203665Y48290477D01*
X69160055Y48165850D01*
X69157281Y48136261D01*
X69157281Y47555740D01*
X69160055Y47526151D01*
X69203665Y47401524D01*
X69282069Y47295290D01*
X69282070Y47295289D01*
X69388304Y47216885D01*
X69388305Y47216885D01*
X69388306Y47216884D01*
X69512932Y47173275D01*
X69512931Y47173275D01*
X69542521Y47170500D01*
X69542525Y47170500D01*
X69869481Y47170500D01*
X69936520Y47150815D01*
X69982275Y47098011D01*
X69993481Y47046500D01*
X69993481Y46255966D01*
X69973796Y46188927D01*
X69920992Y46143172D01*
X69914275Y46140340D01*
X69756591Y46079253D01*
X69756576Y46079246D01*
X69567420Y45962126D01*
X69567418Y45962124D01*
X69403001Y45812239D01*
X69268924Y45634692D01*
X69268919Y45634684D01*
X69169756Y45435539D01*
X69169750Y45435524D01*
X69108866Y45221538D01*
X69108865Y45221536D01*
X69088338Y45000001D01*
X67299122Y45000001D01*
X67299122Y45000006D01*
X67278595Y45247730D01*
X67278593Y45247739D01*
X67217568Y45488718D01*
X67117712Y45716370D01*
X67017415Y45869884D01*
X66317768Y45170236D01*
X66306499Y45212292D01*
X66234091Y45337708D01*
X66131689Y45440110D01*
X66006273Y45512518D01*
X65964216Y45523788D01*
X66664038Y46223610D01*
X66664037Y46223611D01*
X66617210Y46260057D01*
X66398595Y46378365D01*
X66398584Y46378370D01*
X66163474Y46459084D01*
X65918274Y46500000D01*
X65669688Y46500000D01*
X65424487Y46459084D01*
X65189377Y46378370D01*
X65189371Y46378368D01*
X64970742Y46260051D01*
X64923923Y46223612D01*
X64923923Y46223610D01*
X65623746Y45523788D01*
X65581689Y45512518D01*
X65456273Y45440110D01*
X65353871Y45337708D01*
X65281463Y45212292D01*
X65270193Y45170236D01*
X64570545Y45869884D01*
X64470248Y45716368D01*
X64370393Y45488718D01*
X64309368Y45247739D01*
X64309366Y45247730D01*
X64288840Y45000006D01*
X63544481Y45000006D01*
X63544481Y49220500D01*
X65417782Y49220500D01*
X65417782Y49121346D01*
X65428100Y49020348D01*
X65482327Y48856700D01*
X65482332Y48856689D01*
X65572833Y48709966D01*
X65572836Y48709962D01*
X65694741Y48588057D01*
X65797601Y48524612D01*
X65844325Y48472664D01*
X65855548Y48403701D01*
X65832275Y48345440D01*
X65763664Y48252475D01*
X65720055Y48127850D01*
X65717281Y48098261D01*
X65717281Y47392740D01*
X65720055Y47363151D01*
X65763665Y47238524D01*
X65842069Y47132290D01*
X65842070Y47132289D01*
X65948304Y47053885D01*
X65948305Y47053885D01*
X65948306Y47053884D01*
X66072932Y47010275D01*
X66072931Y47010275D01*
X66102521Y47007500D01*
X66102525Y47007500D01*
X66683041Y47007500D01*
X66712630Y47010275D01*
X66727922Y47015626D01*
X66837256Y47053884D01*
X66943492Y47132289D01*
X67021897Y47238525D01*
X67065506Y47363151D01*
X67068281Y47392744D01*
X67068281Y47421500D01*
X67087966Y47488539D01*
X67140770Y47534294D01*
X67192281Y47545500D01*
X67240303Y47545500D01*
X67307342Y47525815D01*
X67353097Y47473011D01*
X67357344Y47462455D01*
X67378664Y47401525D01*
X67378665Y47401524D01*
X67457069Y47295290D01*
X67457070Y47295289D01*
X67563306Y47216884D01*
X67673870Y47178196D01*
X67677058Y47177080D01*
X67733834Y47136359D01*
X67759581Y47071406D01*
X67746125Y47002844D01*
X67729819Y46978840D01*
X67715853Y46962723D01*
X67715848Y46962715D01*
X67659051Y46838346D01*
X67659049Y46838338D01*
X67639591Y46703000D01*
X67659049Y46567663D01*
X67659051Y46567655D01*
X67715848Y46443286D01*
X67715853Y46443279D01*
X67805390Y46339947D01*
X67805394Y46339943D01*
X67865960Y46301021D01*
X67920420Y46266022D01*
X67954668Y46255966D01*
X68051613Y46227500D01*
X68051614Y46227500D01*
X68188348Y46227500D01*
X68319542Y46266022D01*
X68434570Y46339945D01*
X68524111Y46443282D01*
X68580912Y46567658D01*
X68600371Y46703000D01*
X68580912Y46838342D01*
X68568658Y46865173D01*
X68524113Y46962715D01*
X68524110Y46962719D01*
X68478267Y47015626D01*
X68449243Y47079183D01*
X68447981Y47096828D01*
X68447981Y47132680D01*
X68467666Y47199719D01*
X68498348Y47232450D01*
X68530963Y47256522D01*
X68583492Y47295289D01*
X68661897Y47401525D01*
X68705506Y47526151D01*
X68706270Y47534294D01*
X68708281Y47555740D01*
X68708281Y48136261D01*
X68705506Y48165850D01*
X68661896Y48290477D01*
X68583492Y48396711D01*
X68583491Y48396712D01*
X68498348Y48459550D01*
X68456097Y48515197D01*
X68447981Y48559320D01*
X68447981Y48656680D01*
X68467666Y48723719D01*
X68498348Y48756450D01*
X68550897Y48795233D01*
X68583492Y48819289D01*
X68661897Y48925525D01*
X68705506Y49050151D01*
X68708281Y49079744D01*
X68708281Y49660256D01*
X68707986Y49663399D01*
X68705506Y49689850D01*
X68668996Y49794188D01*
X68661897Y49814475D01*
X68583492Y49920711D01*
X68583491Y49920712D01*
X68477257Y49999116D01*
X68352629Y50042726D01*
X68352630Y50042726D01*
X68323041Y50045500D01*
X68323037Y50045500D01*
X67717525Y50045500D01*
X67717521Y50045500D01*
X67687931Y50042726D01*
X67563306Y49999117D01*
X67514580Y49963155D01*
X67448950Y49939185D01*
X67380780Y49954501D01*
X67331713Y50004242D01*
X67323241Y50023923D01*
X67303235Y50084299D01*
X67303229Y50084312D01*
X67212728Y50231035D01*
X67212725Y50231039D01*
X67090819Y50352945D01*
X67090815Y50352948D01*
X66944092Y50443449D01*
X66944081Y50443454D01*
X66853585Y50473441D01*
X72273816Y50473441D01*
X72273816Y50414949D01*
X72275604Y50402513D01*
X72276866Y50384866D01*
X72276866Y50003520D01*
X72275604Y49985874D01*
X72273816Y49973440D01*
X72273816Y49914948D01*
X72275604Y49902512D01*
X72276866Y49884865D01*
X72276866Y49444189D01*
X72282017Y49398465D01*
X72321699Y49316067D01*
X72321700Y49316066D01*
X72393203Y49259044D01*
X72468569Y49241842D01*
X72482361Y49238694D01*
X72482366Y49238693D01*
X73054252Y49238693D01*
X73054255Y49238693D01*
X73112151Y49247017D01*
X73250106Y49287524D01*
X73303311Y49311822D01*
X73309917Y49316067D01*
X73354159Y49344500D01*
X73424265Y49389554D01*
X73468471Y49427859D01*
X73537568Y49507603D01*
X73562616Y49536509D01*
X73562618Y49536512D01*
X73562625Y49536520D01*
X73594247Y49585725D01*
X73610686Y49621723D01*
X73633285Y49671205D01*
X73679040Y49724008D01*
X73746079Y49743693D01*
X74109568Y49743693D01*
X74176607Y49724008D01*
X74222362Y49671204D01*
X74223113Y49669528D01*
X74225801Y49663399D01*
X74273932Y49553671D01*
X74381191Y49389501D01*
X74405410Y49352431D01*
X74568217Y49175575D01*
X74568220Y49175573D01*
X74568223Y49175570D01*
X74757905Y49027934D01*
X74757911Y49027930D01*
X74757914Y49027928D01*
X74969325Y48913518D01*
X74969328Y48913517D01*
X75196680Y48835467D01*
X75196682Y48835467D01*
X75196684Y48835466D01*
X75433789Y48795900D01*
X75433790Y48795900D01*
X75674172Y48795900D01*
X75674173Y48795900D01*
X75911278Y48835466D01*
X76138637Y48913518D01*
X76350048Y49027928D01*
X76539745Y49175575D01*
X76702552Y49352431D01*
X76834030Y49553672D01*
X76930591Y49773809D01*
X76989601Y50006837D01*
X77008179Y50231035D01*
X77009452Y50246395D01*
X77009452Y50246406D01*
X89578510Y50246406D01*
X89578510Y50246395D01*
X89598360Y50006841D01*
X89657370Y49773811D01*
X89753932Y49553671D01*
X89861191Y49389501D01*
X89885410Y49352431D01*
X90048217Y49175575D01*
X90048220Y49175573D01*
X90048223Y49175570D01*
X90237905Y49027934D01*
X90237911Y49027930D01*
X90237914Y49027928D01*
X90449325Y48913518D01*
X90449328Y48913517D01*
X90676680Y48835467D01*
X90676682Y48835467D01*
X90676684Y48835466D01*
X90913789Y48795900D01*
X90913790Y48795900D01*
X91154172Y48795900D01*
X91154173Y48795900D01*
X91391278Y48835466D01*
X91618637Y48913518D01*
X91830048Y49027928D01*
X92019745Y49175575D01*
X92182552Y49352431D01*
X92314030Y49553672D01*
X92387738Y49721711D01*
X92432694Y49775196D01*
X92499430Y49795886D01*
X92501294Y49795900D01*
X92875178Y49795900D01*
X92942217Y49776215D01*
X92987972Y49723412D01*
X93015374Y49663410D01*
X93015380Y49663399D01*
X93046997Y49614203D01*
X93047008Y49614187D01*
X93099445Y49553672D01*
X93141154Y49505537D01*
X93185359Y49467233D01*
X93185360Y49467232D01*
X93306308Y49389503D01*
X93306310Y49389503D01*
X93306314Y49389500D01*
X93359519Y49365202D01*
X93497474Y49324695D01*
X93555370Y49316371D01*
X93555373Y49316371D01*
X94127262Y49316371D01*
X94127262Y49316372D01*
X94172987Y49321523D01*
X94255386Y49361205D01*
X94312408Y49432708D01*
X94332759Y49521871D01*
X94332759Y49962543D01*
X94334021Y49980190D01*
X94334838Y49985874D01*
X94335809Y49992625D01*
X94335809Y50051116D01*
X94334020Y50063553D01*
X94332759Y50081198D01*
X94332759Y50462544D01*
X94334021Y50480191D01*
X94334838Y50485876D01*
X94335809Y50492626D01*
X94335809Y50551117D01*
X94334021Y50563554D01*
X94332759Y50581200D01*
X94332759Y51021874D01*
X94332758Y51021876D01*
X94330918Y51038205D01*
X94327607Y51067599D01*
X94323315Y51076511D01*
X94287925Y51149998D01*
X94216422Y51207020D01*
X94127263Y51227371D01*
X94127259Y51227371D01*
X93555370Y51227371D01*
X93555368Y51227371D01*
X93497481Y51219049D01*
X93497469Y51219046D01*
X93359519Y51178540D01*
X93306314Y51154242D01*
X93306308Y51154240D01*
X93185360Y51076511D01*
X93185359Y51076510D01*
X93141151Y51038202D01*
X93047008Y50929556D01*
X93046997Y50929540D01*
X93015380Y50880344D01*
X93015371Y50880328D01*
X92964708Y50769389D01*
X92918954Y50716585D01*
X92851914Y50696900D01*
X92501294Y50696900D01*
X92434255Y50716585D01*
X92388500Y50769389D01*
X92387738Y50771090D01*
X92373892Y50802655D01*
X92314030Y50939128D01*
X92300049Y50960527D01*
X92182553Y51140367D01*
X92182552Y51140369D01*
X92019745Y51317225D01*
X92019740Y51317229D01*
X92019738Y51317231D01*
X91830056Y51464867D01*
X91830050Y51464871D01*
X91618638Y51579282D01*
X91618633Y51579284D01*
X91391281Y51657334D01*
X91213449Y51687009D01*
X91154173Y51696900D01*
X90913789Y51696900D01*
X90866368Y51688987D01*
X90676680Y51657334D01*
X90449328Y51579284D01*
X90449323Y51579282D01*
X90237911Y51464871D01*
X90237905Y51464867D01*
X90048223Y51317231D01*
X90048220Y51317228D01*
X89885411Y51140371D01*
X89885408Y51140367D01*
X89753932Y50939130D01*
X89657370Y50718990D01*
X89598360Y50485960D01*
X89578510Y50246406D01*
X77009452Y50246406D01*
X76993123Y50443454D01*
X76989601Y50485963D01*
X76930591Y50718991D01*
X76834030Y50939128D01*
X76820049Y50960527D01*
X76702553Y51140367D01*
X76702552Y51140369D01*
X76539745Y51317225D01*
X76539740Y51317229D01*
X76539738Y51317231D01*
X76350056Y51464867D01*
X76350050Y51464871D01*
X76138638Y51579282D01*
X76138633Y51579284D01*
X75911281Y51657334D01*
X75733449Y51687009D01*
X75674173Y51696900D01*
X75433789Y51696900D01*
X75386368Y51688987D01*
X75196680Y51657334D01*
X74969328Y51579284D01*
X74969323Y51579282D01*
X74757911Y51464871D01*
X74757905Y51464867D01*
X74568223Y51317231D01*
X74568220Y51317228D01*
X74405411Y51140371D01*
X74405408Y51140367D01*
X74273932Y50939130D01*
X74177323Y50718883D01*
X74132367Y50665397D01*
X74065631Y50644707D01*
X74063767Y50644693D01*
X73746079Y50644693D01*
X73679040Y50664378D01*
X73633285Y50717181D01*
X73594250Y50802655D01*
X73594244Y50802666D01*
X73585641Y50816052D01*
X73562625Y50851866D01*
X73562621Y50851871D01*
X73562616Y50851878D01*
X73482620Y50944198D01*
X73468471Y50960527D01*
X73424265Y50998832D01*
X73424264Y50998833D01*
X73303316Y51076562D01*
X73303312Y51076564D01*
X73303311Y51076564D01*
X73250106Y51100862D01*
X73115550Y51140371D01*
X73112155Y51141368D01*
X73112143Y51141371D01*
X73054256Y51149693D01*
X73054255Y51149693D01*
X72482366Y51149693D01*
X72482361Y51149693D01*
X72436637Y51144542D01*
X72354239Y51104860D01*
X72297217Y51033357D01*
X72276866Y50944198D01*
X72276866Y50503522D01*
X72275604Y50485876D01*
X72273816Y50473441D01*
X66853585Y50473441D01*
X66780433Y50497681D01*
X66679435Y50508000D01*
X66642781Y50508000D01*
X66642781Y49344500D01*
X66623096Y49277461D01*
X66570292Y49231706D01*
X66518781Y49220500D01*
X65417782Y49220500D01*
X63544481Y49220500D01*
X63544481Y49819655D01*
X65417781Y49819655D01*
X65417781Y49720500D01*
X66142781Y49720500D01*
X66142781Y50508000D01*
X66106142Y50508000D01*
X66106124Y50507999D01*
X66005128Y50497681D01*
X65841480Y50443454D01*
X65841469Y50443449D01*
X65694746Y50352948D01*
X65694742Y50352945D01*
X65572836Y50231039D01*
X65572833Y50231035D01*
X65482332Y50084312D01*
X65482327Y50084301D01*
X65428100Y49920653D01*
X65417781Y49819655D01*
X63544481Y49819655D01*
X63544481Y53421235D01*
X75679481Y53421235D01*
X75679481Y53171566D01*
X75706621Y52965420D01*
X75712068Y52924053D01*
X75712069Y52924051D01*
X75776683Y52682905D01*
X75872217Y52452263D01*
X75872225Y52452247D01*
X75997045Y52236054D01*
X75997056Y52236038D01*
X76149028Y52037984D01*
X76149034Y52037977D01*
X76325557Y51861454D01*
X76325563Y51861449D01*
X76523627Y51709469D01*
X76523634Y51709465D01*
X76739827Y51584645D01*
X76739843Y51584637D01*
X76864274Y51533097D01*
X76970486Y51489102D01*
X77211634Y51424487D01*
X77459154Y51391900D01*
X77459161Y51391900D01*
X77708801Y51391900D01*
X77708808Y51391900D01*
X77956328Y51424487D01*
X78197476Y51489102D01*
X78378788Y51564205D01*
X78428118Y51584637D01*
X78428121Y51584639D01*
X78428127Y51584641D01*
X78644335Y51709469D01*
X78842399Y51861449D01*
X79018932Y52037982D01*
X79170912Y52236046D01*
X79295740Y52452254D01*
X79391279Y52682905D01*
X79455894Y52924053D01*
X79488481Y53171573D01*
X79488481Y53421227D01*
X79488480Y53421235D01*
X87109481Y53421235D01*
X87109481Y53171566D01*
X87136621Y52965420D01*
X87142068Y52924053D01*
X87142069Y52924051D01*
X87206683Y52682905D01*
X87302217Y52452263D01*
X87302225Y52452247D01*
X87427045Y52236054D01*
X87427056Y52236038D01*
X87579028Y52037984D01*
X87579034Y52037977D01*
X87755557Y51861454D01*
X87755563Y51861449D01*
X87953627Y51709469D01*
X87953634Y51709465D01*
X88169827Y51584645D01*
X88169843Y51584637D01*
X88294274Y51533097D01*
X88400486Y51489102D01*
X88641634Y51424487D01*
X88889154Y51391900D01*
X88889161Y51391900D01*
X89138801Y51391900D01*
X89138808Y51391900D01*
X89386328Y51424487D01*
X89627476Y51489102D01*
X89808788Y51564205D01*
X89858118Y51584637D01*
X89858121Y51584639D01*
X89858127Y51584641D01*
X90074335Y51709469D01*
X90272399Y51861449D01*
X90448932Y52037982D01*
X90600912Y52236046D01*
X90725740Y52452254D01*
X90821279Y52682905D01*
X90885894Y52924053D01*
X90918481Y53171573D01*
X90918481Y53421227D01*
X90885894Y53668747D01*
X90821279Y53909895D01*
X90777284Y54016107D01*
X90725744Y54140538D01*
X90725736Y54140554D01*
X90600916Y54356747D01*
X90600912Y54356754D01*
X90448932Y54554818D01*
X90448927Y54554824D01*
X90272404Y54731347D01*
X90272397Y54731353D01*
X90074343Y54883325D01*
X90074341Y54883327D01*
X90074335Y54883331D01*
X90074330Y54883334D01*
X90074327Y54883336D01*
X89858134Y55008156D01*
X89858118Y55008164D01*
X89627476Y55103698D01*
X89386328Y55168313D01*
X89344961Y55173760D01*
X89138815Y55200900D01*
X89138808Y55200900D01*
X88889154Y55200900D01*
X88889146Y55200900D01*
X88653549Y55169882D01*
X88641634Y55168313D01*
X88539708Y55141003D01*
X88400485Y55103698D01*
X88169843Y55008164D01*
X88169827Y55008156D01*
X87953634Y54883336D01*
X87953618Y54883325D01*
X87755564Y54731353D01*
X87755557Y54731347D01*
X87579034Y54554824D01*
X87579028Y54554817D01*
X87427056Y54356763D01*
X87427045Y54356747D01*
X87302225Y54140554D01*
X87302217Y54140538D01*
X87206683Y53909896D01*
X87142069Y53668750D01*
X87142067Y53668739D01*
X87109481Y53421235D01*
X79488480Y53421235D01*
X79455894Y53668747D01*
X79391279Y53909895D01*
X79347284Y54016107D01*
X79295744Y54140538D01*
X79295736Y54140554D01*
X79170916Y54356747D01*
X79170912Y54356754D01*
X79018932Y54554818D01*
X79018927Y54554824D01*
X78842404Y54731347D01*
X78842397Y54731353D01*
X78644343Y54883325D01*
X78644341Y54883327D01*
X78644335Y54883331D01*
X78644330Y54883334D01*
X78644327Y54883336D01*
X78428134Y55008156D01*
X78428118Y55008164D01*
X78197476Y55103698D01*
X77956328Y55168313D01*
X77914961Y55173760D01*
X77708815Y55200900D01*
X77708808Y55200900D01*
X77459154Y55200900D01*
X77459146Y55200900D01*
X77223549Y55169882D01*
X77211634Y55168313D01*
X77109708Y55141003D01*
X76970485Y55103698D01*
X76739843Y55008164D01*
X76739827Y55008156D01*
X76523634Y54883336D01*
X76523618Y54883325D01*
X76325564Y54731353D01*
X76325557Y54731347D01*
X76149034Y54554824D01*
X76149028Y54554817D01*
X75997056Y54356763D01*
X75997045Y54356747D01*
X75872225Y54140554D01*
X75872217Y54140538D01*
X75776683Y53909896D01*
X75712069Y53668750D01*
X75712067Y53668739D01*
X75679481Y53421235D01*
X63544481Y53421235D01*
X63544481Y56996520D01*
X63544676Y57003472D01*
X63549667Y57092355D01*
X63551107Y57118005D01*
X64493481Y57118005D01*
X64493481Y56881996D01*
X64493482Y56881980D01*
X64524287Y56647990D01*
X64585375Y56420007D01*
X64675695Y56201955D01*
X64675700Y56201944D01*
X64733501Y56101832D01*
X64793708Y55997550D01*
X64793710Y55997547D01*
X64793711Y55997546D01*
X64937387Y55810303D01*
X64937393Y55810296D01*
X65104276Y55643413D01*
X65104282Y55643408D01*
X65291531Y55499727D01*
X65422899Y55423882D01*
X65495924Y55381720D01*
X65495929Y55381718D01*
X65495932Y55381716D01*
X65713988Y55291394D01*
X65941967Y55230307D01*
X66175970Y55199500D01*
X66175977Y55199500D01*
X66411985Y55199500D01*
X66411992Y55199500D01*
X66645995Y55230307D01*
X66873974Y55291394D01*
X67092030Y55381716D01*
X67296431Y55499727D01*
X67483680Y55643408D01*
X67650573Y55810301D01*
X67794254Y55997550D01*
X67912265Y56201951D01*
X68002587Y56420007D01*
X68063674Y56647986D01*
X68094481Y56881989D01*
X68094481Y57118011D01*
X68063674Y57352014D01*
X68002587Y57579993D01*
X67912265Y57798049D01*
X67912263Y57798052D01*
X67912261Y57798057D01*
X67870099Y57871082D01*
X67849651Y57906500D01*
X71564582Y57906500D01*
X71564582Y57857346D01*
X71574900Y57756348D01*
X71629127Y57592700D01*
X71629132Y57592689D01*
X71719633Y57445966D01*
X71719636Y57445962D01*
X71841542Y57324056D01*
X71841546Y57324053D01*
X71988269Y57233552D01*
X71988282Y57233546D01*
X72080786Y57202894D01*
X72138231Y57163122D01*
X72165055Y57098607D01*
X72152741Y57029831D01*
X72105198Y56978630D01*
X72099731Y56975561D01*
X72095104Y56973116D01*
X71988870Y56894712D01*
X71988869Y56894711D01*
X71910465Y56788477D01*
X71866855Y56663850D01*
X71864081Y56634261D01*
X71864081Y56028743D01*
X71866855Y55999151D01*
X71910465Y55874524D01*
X71988869Y55768290D01*
X71988870Y55768289D01*
X72095104Y55689885D01*
X72095105Y55689885D01*
X72095106Y55689884D01*
X72219732Y55646275D01*
X72219731Y55646275D01*
X72249321Y55643500D01*
X72249325Y55643500D01*
X72829841Y55643500D01*
X72859430Y55646275D01*
X72984056Y55689884D01*
X73090292Y55768289D01*
X73168697Y55874525D01*
X73176896Y55897957D01*
X73217618Y55954731D01*
X73282571Y55980478D01*
X73293937Y55981000D01*
X77395223Y55981000D01*
X77395225Y55981000D01*
X77484369Y56004886D01*
X77525692Y56028744D01*
X77564293Y56051030D01*
X78653470Y57140209D01*
X78714791Y57173692D01*
X78784482Y57168708D01*
X78785943Y57168152D01*
X78901517Y57123379D01*
X78901525Y57123376D01*
X79102005Y57085900D01*
X79102007Y57085900D01*
X79305955Y57085900D01*
X79305957Y57085900D01*
X79506437Y57123376D01*
X79696618Y57197052D01*
X79870022Y57304419D01*
X80020745Y57441821D01*
X80143654Y57604579D01*
X80234563Y57787150D01*
X80290378Y57983317D01*
X80309196Y58186400D01*
X80309196Y58186401D01*
X86278766Y58186401D01*
X86278766Y58186400D01*
X86297583Y57983318D01*
X86353398Y57787153D01*
X86353403Y57787140D01*
X86444308Y57604579D01*
X86567218Y57441819D01*
X86717939Y57304420D01*
X86717941Y57304418D01*
X86723628Y57300897D01*
X86891344Y57197052D01*
X87081525Y57123376D01*
X87282005Y57085900D01*
X87282007Y57085900D01*
X87485955Y57085900D01*
X87485957Y57085900D01*
X87686437Y57123376D01*
X87802018Y57168153D01*
X87871639Y57174015D01*
X87933380Y57141306D01*
X87934492Y57140207D01*
X88972869Y56101830D01*
X89011470Y56079544D01*
X89052793Y56055686D01*
X89141937Y56031800D01*
X89141938Y56031800D01*
X89234225Y56031800D01*
X93578425Y56031800D01*
X93645464Y56012115D01*
X93691219Y55959311D01*
X93695466Y55948756D01*
X93703665Y55925324D01*
X93782069Y55819090D01*
X93782070Y55819089D01*
X93888304Y55740685D01*
X93888305Y55740685D01*
X93888306Y55740684D01*
X94012932Y55697075D01*
X94012931Y55697075D01*
X94042521Y55694300D01*
X94042525Y55694300D01*
X94623041Y55694300D01*
X94652630Y55697075D01*
X94777256Y55740684D01*
X94883492Y55819089D01*
X94961897Y55925325D01*
X95005506Y56049951D01*
X95008281Y56079544D01*
X95008281Y56685056D01*
X95005506Y56714649D01*
X94992266Y56752485D01*
X94961896Y56839277D01*
X94883492Y56945511D01*
X94883491Y56945512D01*
X94787000Y57016725D01*
X94777256Y57023916D01*
X94777251Y57023918D01*
X94772633Y57026359D01*
X94722562Y57075090D01*
X94712615Y57118005D01*
X98493481Y57118005D01*
X98493481Y56881996D01*
X98493482Y56881980D01*
X98524287Y56647990D01*
X98585375Y56420007D01*
X98675695Y56201955D01*
X98675700Y56201944D01*
X98733501Y56101832D01*
X98793708Y55997550D01*
X98793710Y55997547D01*
X98793711Y55997546D01*
X98937387Y55810303D01*
X98937393Y55810296D01*
X99104276Y55643413D01*
X99104282Y55643408D01*
X99291531Y55499727D01*
X99422899Y55423882D01*
X99495924Y55381720D01*
X99495929Y55381718D01*
X99495932Y55381716D01*
X99713988Y55291394D01*
X99941967Y55230307D01*
X100175970Y55199500D01*
X100175977Y55199500D01*
X100411985Y55199500D01*
X100411992Y55199500D01*
X100645995Y55230307D01*
X100873974Y55291394D01*
X101092030Y55381716D01*
X101296431Y55499727D01*
X101483680Y55643408D01*
X101650573Y55810301D01*
X101794254Y55997550D01*
X101912265Y56201951D01*
X102002587Y56420007D01*
X102063674Y56647986D01*
X102094481Y56881989D01*
X102094481Y57118011D01*
X102063674Y57352014D01*
X102002587Y57579993D01*
X101912265Y57798049D01*
X101912263Y57798052D01*
X101912261Y57798057D01*
X101870099Y57871082D01*
X101794254Y58002450D01*
X101668391Y58166478D01*
X101650574Y58189698D01*
X101650568Y58189705D01*
X101483685Y58356588D01*
X101483678Y58356594D01*
X101296435Y58500270D01*
X101296434Y58500271D01*
X101296431Y58500273D01*
X101198778Y58556653D01*
X101092037Y58618281D01*
X101092026Y58618286D01*
X100873974Y58708606D01*
X100830287Y58720312D01*
X100645995Y58769693D01*
X100645994Y58769694D01*
X100645991Y58769694D01*
X100412001Y58800499D01*
X100411998Y58800500D01*
X100411992Y58800500D01*
X100175970Y58800500D01*
X100175964Y58800500D01*
X100175960Y58800499D01*
X99941970Y58769694D01*
X99713987Y58708606D01*
X99495935Y58618286D01*
X99495924Y58618281D01*
X99291526Y58500270D01*
X99104283Y58356594D01*
X99104276Y58356588D01*
X98937393Y58189705D01*
X98937387Y58189698D01*
X98793711Y58002455D01*
X98675700Y57798057D01*
X98675695Y57798046D01*
X98585375Y57579994D01*
X98524287Y57352011D01*
X98493482Y57118021D01*
X98493481Y57118005D01*
X94712615Y57118005D01*
X94706785Y57143155D01*
X94730312Y57208945D01*
X94785672Y57251571D01*
X94791575Y57253694D01*
X94884079Y57284346D01*
X94884092Y57284352D01*
X95030815Y57374853D01*
X95030819Y57374856D01*
X95152725Y57496762D01*
X95152728Y57496766D01*
X95243229Y57643489D01*
X95243234Y57643500D01*
X95297461Y57807148D01*
X95307780Y57908146D01*
X95307781Y57908159D01*
X95307781Y57957300D01*
X93357782Y57957300D01*
X93357782Y57908146D01*
X93368100Y57807148D01*
X93422327Y57643500D01*
X93422332Y57643489D01*
X93512833Y57496766D01*
X93512836Y57496762D01*
X93634742Y57374856D01*
X93634746Y57374853D01*
X93781469Y57284352D01*
X93781482Y57284346D01*
X93873986Y57253694D01*
X93931431Y57213922D01*
X93958255Y57149407D01*
X93945941Y57080631D01*
X93898398Y57029430D01*
X93892931Y57026361D01*
X93888304Y57023916D01*
X93782070Y56945512D01*
X93782069Y56945511D01*
X93703665Y56839277D01*
X93695466Y56815844D01*
X93654744Y56759069D01*
X93589791Y56733322D01*
X93578425Y56732800D01*
X89384625Y56732800D01*
X89317586Y56752485D01*
X89296944Y56769119D01*
X88432557Y57633506D01*
X88399072Y57694829D01*
X88404056Y57764521D01*
X88409239Y57776459D01*
X88414563Y57787150D01*
X88470378Y57983317D01*
X88489196Y58186400D01*
X88489196Y58186401D01*
X88818766Y58186401D01*
X88818766Y58186400D01*
X88837583Y57983318D01*
X88893398Y57787153D01*
X88893403Y57787140D01*
X88984308Y57604579D01*
X89107218Y57441819D01*
X89257939Y57304420D01*
X89257941Y57304418D01*
X89263628Y57300897D01*
X89431344Y57197052D01*
X89621525Y57123376D01*
X89822005Y57085900D01*
X89822007Y57085900D01*
X90025955Y57085900D01*
X90025957Y57085900D01*
X90226437Y57123376D01*
X90416618Y57197052D01*
X90590022Y57304419D01*
X90740745Y57441821D01*
X90863654Y57604579D01*
X90954563Y57787150D01*
X91010378Y57983317D01*
X91029196Y58186400D01*
X91028587Y58192967D01*
X91010378Y58389483D01*
X90991244Y58456732D01*
X90977096Y58506455D01*
X93357781Y58506455D01*
X93357781Y58457300D01*
X94082781Y58457300D01*
X94582781Y58457300D01*
X95307780Y58457300D01*
X95307780Y58506440D01*
X95307779Y58506455D01*
X95297461Y58607453D01*
X95243234Y58771101D01*
X95243229Y58771112D01*
X95152728Y58917835D01*
X95152725Y58917839D01*
X95030819Y59039745D01*
X95030815Y59039748D01*
X94884092Y59130249D01*
X94884081Y59130254D01*
X94720433Y59184481D01*
X94619435Y59194800D01*
X94582781Y59194800D01*
X94582781Y58457300D01*
X94082781Y58457300D01*
X94082781Y59194800D01*
X94046142Y59194800D01*
X94046124Y59194799D01*
X93945128Y59184481D01*
X93781480Y59130254D01*
X93781469Y59130249D01*
X93634746Y59039748D01*
X93634742Y59039745D01*
X93512836Y58917839D01*
X93512833Y58917835D01*
X93422332Y58771112D01*
X93422327Y58771101D01*
X93368100Y58607453D01*
X93357781Y58506455D01*
X90977096Y58506455D01*
X90954563Y58585650D01*
X90943706Y58607453D01*
X90910253Y58674636D01*
X90863654Y58768221D01*
X90740745Y58930979D01*
X90740743Y58930982D01*
X90590022Y59068381D01*
X90590020Y59068383D01*
X90416623Y59175745D01*
X90416616Y59175749D01*
X90321527Y59212586D01*
X90226437Y59249424D01*
X90025957Y59286900D01*
X89822005Y59286900D01*
X89621525Y59249424D01*
X89621522Y59249424D01*
X89621522Y59249423D01*
X89431345Y59175749D01*
X89431338Y59175745D01*
X89257941Y59068383D01*
X89257939Y59068381D01*
X89107218Y58930982D01*
X88984308Y58768222D01*
X88893403Y58585661D01*
X88893398Y58585648D01*
X88837583Y58389483D01*
X88818766Y58186401D01*
X88489196Y58186401D01*
X88488587Y58192967D01*
X88470378Y58389483D01*
X88451244Y58456732D01*
X88414563Y58585650D01*
X88403706Y58607453D01*
X88370253Y58674636D01*
X88323654Y58768221D01*
X88200745Y58930979D01*
X88200743Y58930982D01*
X88050022Y59068381D01*
X88050020Y59068383D01*
X87876623Y59175745D01*
X87876616Y59175749D01*
X87781527Y59212586D01*
X87686437Y59249424D01*
X87485957Y59286900D01*
X87282005Y59286900D01*
X87081525Y59249424D01*
X87081522Y59249424D01*
X87081522Y59249423D01*
X86891345Y59175749D01*
X86891338Y59175745D01*
X86717941Y59068383D01*
X86717939Y59068381D01*
X86567218Y58930982D01*
X86444308Y58768222D01*
X86353403Y58585661D01*
X86353398Y58585648D01*
X86297583Y58389483D01*
X86278766Y58186401D01*
X80309196Y58186401D01*
X80308587Y58192967D01*
X80290378Y58389483D01*
X80271244Y58456732D01*
X80234563Y58585650D01*
X80223706Y58607453D01*
X80190253Y58674636D01*
X80143654Y58768221D01*
X80020745Y58930979D01*
X80020743Y58930982D01*
X79870022Y59068381D01*
X79870020Y59068383D01*
X79696623Y59175745D01*
X79696616Y59175749D01*
X79601527Y59212586D01*
X79506437Y59249424D01*
X79305957Y59286900D01*
X79102005Y59286900D01*
X78901525Y59249424D01*
X78901522Y59249424D01*
X78901522Y59249423D01*
X78711345Y59175749D01*
X78711338Y59175745D01*
X78537941Y59068383D01*
X78537939Y59068381D01*
X78387218Y58930982D01*
X78264308Y58768222D01*
X78173403Y58585661D01*
X78173398Y58585648D01*
X78117583Y58389483D01*
X78098766Y58186401D01*
X78098766Y58186400D01*
X78117583Y57983318D01*
X78173399Y57787147D01*
X78178722Y57776459D01*
X78190983Y57707674D01*
X78164110Y57643179D01*
X78155403Y57633506D01*
X77240218Y56718319D01*
X77178895Y56684834D01*
X77152537Y56682000D01*
X73293937Y56682000D01*
X73226898Y56701685D01*
X73181143Y56754489D01*
X73176896Y56765044D01*
X73168696Y56788477D01*
X73090292Y56894711D01*
X73090291Y56894712D01*
X72984060Y56973113D01*
X72984056Y56973116D01*
X72984051Y56973118D01*
X72979433Y56975559D01*
X72929362Y57024290D01*
X72913585Y57092355D01*
X72937112Y57158145D01*
X72992472Y57200771D01*
X72998375Y57202894D01*
X73090879Y57233546D01*
X73090892Y57233552D01*
X73237615Y57324053D01*
X73237619Y57324056D01*
X73359525Y57445962D01*
X73359528Y57445966D01*
X73450029Y57592689D01*
X73450034Y57592700D01*
X73504261Y57756348D01*
X73514580Y57857346D01*
X73514581Y57857359D01*
X73514581Y57906500D01*
X71564582Y57906500D01*
X67849651Y57906500D01*
X67794254Y58002450D01*
X67668391Y58166478D01*
X67653104Y58186401D01*
X75558766Y58186401D01*
X75558766Y58186400D01*
X75577583Y57983318D01*
X75633398Y57787153D01*
X75633403Y57787140D01*
X75724308Y57604579D01*
X75847218Y57441819D01*
X75997939Y57304420D01*
X75997941Y57304418D01*
X76003628Y57300897D01*
X76171344Y57197052D01*
X76361525Y57123376D01*
X76562005Y57085900D01*
X76562007Y57085900D01*
X76765955Y57085900D01*
X76765957Y57085900D01*
X76966437Y57123376D01*
X77156618Y57197052D01*
X77330022Y57304419D01*
X77480745Y57441821D01*
X77603654Y57604579D01*
X77694563Y57787150D01*
X77750378Y57983317D01*
X77769196Y58186400D01*
X77768587Y58192967D01*
X77750378Y58389483D01*
X77731244Y58456732D01*
X77694563Y58585650D01*
X77683706Y58607453D01*
X77650253Y58674636D01*
X77603654Y58768221D01*
X77480745Y58930979D01*
X77480743Y58930982D01*
X77330022Y59068381D01*
X77330020Y59068383D01*
X77156623Y59175745D01*
X77156616Y59175749D01*
X77061527Y59212586D01*
X76966437Y59249424D01*
X76765957Y59286900D01*
X76562005Y59286900D01*
X76361525Y59249424D01*
X76361522Y59249424D01*
X76361522Y59249423D01*
X76171345Y59175749D01*
X76171338Y59175745D01*
X75997941Y59068383D01*
X75997939Y59068381D01*
X75847218Y58930982D01*
X75724308Y58768222D01*
X75633403Y58585661D01*
X75633398Y58585648D01*
X75577583Y58389483D01*
X75558766Y58186401D01*
X67653104Y58186401D01*
X67650574Y58189698D01*
X67650568Y58189705D01*
X67483685Y58356588D01*
X67483678Y58356594D01*
X67354579Y58455655D01*
X71564581Y58455655D01*
X71564581Y58406500D01*
X72289581Y58406500D01*
X72789581Y58406500D01*
X73514580Y58406500D01*
X73514580Y58455640D01*
X73514579Y58455655D01*
X73504261Y58556653D01*
X73450034Y58720301D01*
X73450029Y58720312D01*
X73359528Y58867035D01*
X73359525Y58867039D01*
X73237619Y58988945D01*
X73237615Y58988948D01*
X73090892Y59079449D01*
X73090881Y59079454D01*
X72927233Y59133681D01*
X72826235Y59144000D01*
X72789581Y59144000D01*
X72789581Y58406500D01*
X72289581Y58406500D01*
X72289581Y59144000D01*
X72252942Y59144000D01*
X72252924Y59143999D01*
X72151928Y59133681D01*
X71988280Y59079454D01*
X71988269Y59079449D01*
X71841546Y58988948D01*
X71841542Y58988945D01*
X71719636Y58867039D01*
X71719633Y58867035D01*
X71629132Y58720312D01*
X71629127Y58720301D01*
X71574900Y58556653D01*
X71564581Y58455655D01*
X67354579Y58455655D01*
X67296435Y58500270D01*
X67296434Y58500271D01*
X67296431Y58500273D01*
X67198778Y58556653D01*
X67092037Y58618281D01*
X67092026Y58618286D01*
X66873974Y58708606D01*
X66830287Y58720312D01*
X66645995Y58769693D01*
X66645994Y58769694D01*
X66645991Y58769694D01*
X66412001Y58800499D01*
X66411998Y58800500D01*
X66411992Y58800500D01*
X66175970Y58800500D01*
X66175964Y58800500D01*
X66175960Y58800499D01*
X65941970Y58769694D01*
X65713987Y58708606D01*
X65495935Y58618286D01*
X65495924Y58618281D01*
X65291526Y58500270D01*
X65104283Y58356594D01*
X65104276Y58356588D01*
X64937393Y58189705D01*
X64937387Y58189698D01*
X64793711Y58002455D01*
X64675700Y57798057D01*
X64675695Y57798046D01*
X64585375Y57579994D01*
X64524287Y57352011D01*
X64493482Y57118021D01*
X64493481Y57118005D01*
X63551107Y57118005D01*
X63561379Y57300906D01*
X63562933Y57314701D01*
X63612252Y57604968D01*
X63615340Y57618500D01*
X63696849Y57901426D01*
X63701439Y57914539D01*
X63719151Y57957300D01*
X63814104Y58186541D01*
X63820127Y58199047D01*
X63962546Y58456738D01*
X63969941Y58468506D01*
X64140317Y58708630D01*
X64148959Y58719467D01*
X64345160Y58939017D01*
X64354980Y58948836D01*
X64574514Y59145025D01*
X64585354Y59153670D01*
X64825497Y59324062D01*
X64837234Y59331437D01*
X65094937Y59473866D01*
X65107430Y59479883D01*
X65379462Y59592564D01*
X65392547Y59597143D01*
X65675476Y59678654D01*
X65689019Y59681745D01*
X65979278Y59731064D01*
X65993081Y59732620D01*
X66290173Y59749306D01*
X66297126Y59749500D01*
X100249813Y59749500D01*
X100290504Y59749500D01*
X100297455Y59749306D01*
G37*
%TD.AperFunction*%
%TA.AperFunction,Conductor*%
G36*
X100201279Y43715815D02*
G01*
X100247034Y43663011D01*
X100256978Y43629147D01*
X100259091Y43614444D01*
X100259093Y43614439D01*
X100271997Y43570491D01*
X100275574Y43558311D01*
X100335293Y43427544D01*
X100335302Y43427528D01*
X100343886Y43414172D01*
X100362653Y43384969D01*
X100366919Y43378332D01*
X100366930Y43378316D01*
X100411474Y43326910D01*
X100461076Y43269666D01*
X100505281Y43231362D01*
X100505282Y43231361D01*
X100626230Y43153632D01*
X100626232Y43153632D01*
X100626236Y43153629D01*
X100679441Y43129331D01*
X100817396Y43088824D01*
X100875292Y43080500D01*
X100875295Y43080500D01*
X101447184Y43080500D01*
X101447184Y43080501D01*
X101492909Y43085652D01*
X101501905Y43089985D01*
X101537535Y43107143D01*
X101606476Y43118496D01*
X101643517Y43102945D01*
X101645429Y43106913D01*
X101658016Y43100852D01*
X101658017Y43100852D01*
X101658018Y43100851D01*
X101724609Y43085652D01*
X101747176Y43080501D01*
X101747181Y43080500D01*
X101888481Y43080500D01*
X101955520Y43060815D01*
X102001275Y43008011D01*
X102012481Y42956500D01*
X102012481Y42666027D01*
X101992796Y42598988D01*
X101962114Y42566257D01*
X101946470Y42554712D01*
X101946469Y42554711D01*
X101868065Y42448477D01*
X101824455Y42323850D01*
X101821681Y42294261D01*
X101821681Y41713740D01*
X101824455Y41684151D01*
X101868065Y41559524D01*
X101946469Y41453290D01*
X101946470Y41453289D01*
X102052704Y41374885D01*
X102052705Y41374885D01*
X102052706Y41374884D01*
X102177332Y41331275D01*
X102177331Y41331275D01*
X102206921Y41328500D01*
X102206925Y41328500D01*
X102812441Y41328500D01*
X102842030Y41331275D01*
X102878525Y41344045D01*
X102948304Y41347608D01*
X103008932Y41312879D01*
X103041159Y41250886D01*
X103043481Y41227004D01*
X103043481Y41129997D01*
X103023796Y41062958D01*
X102970992Y41017203D01*
X102901834Y41007259D01*
X102878528Y41012955D01*
X102842030Y41025726D01*
X102812441Y41028500D01*
X102812437Y41028500D01*
X102206925Y41028500D01*
X102206921Y41028500D01*
X102177331Y41025726D01*
X102052704Y40982116D01*
X101946470Y40903712D01*
X101946469Y40903711D01*
X101868065Y40797477D01*
X101824455Y40672850D01*
X101821681Y40643261D01*
X101821681Y40062740D01*
X101824455Y40033151D01*
X101868065Y39908524D01*
X101946467Y39802292D01*
X101946469Y39802291D01*
X101946470Y39802289D01*
X101946473Y39802287D01*
X101962112Y39790745D01*
X102004364Y39735099D01*
X102012481Y39690973D01*
X102012481Y39378861D01*
X101992796Y39311822D01*
X101939992Y39266067D01*
X101888481Y39254861D01*
X101747176Y39254861D01*
X101701453Y39249710D01*
X101656824Y39228217D01*
X101587882Y39216866D01*
X101550840Y39232410D01*
X101548933Y39228448D01*
X101536345Y39234510D01*
X101447185Y39254861D01*
X101447181Y39254861D01*
X100875292Y39254861D01*
X100875290Y39254861D01*
X100817403Y39246539D01*
X100817391Y39246536D01*
X100679441Y39206030D01*
X100626236Y39181732D01*
X100626230Y39181730D01*
X100505282Y39104001D01*
X100505281Y39104000D01*
X100461073Y39065692D01*
X100366930Y38957046D01*
X100366919Y38957030D01*
X100335302Y38907834D01*
X100335293Y38907818D01*
X100275574Y38777051D01*
X100259093Y38720923D01*
X100259091Y38720918D01*
X100238631Y38578607D01*
X100238631Y38520116D01*
X100239729Y38512482D01*
X100240419Y38507681D01*
X100241681Y38490034D01*
X100241681Y38108688D01*
X100240419Y38091042D01*
X100238631Y38078608D01*
X100238631Y38020116D01*
X100259091Y37877805D01*
X100259093Y37877800D01*
X100275574Y37821672D01*
X100335293Y37690905D01*
X100335302Y37690889D01*
X100366919Y37641693D01*
X100366930Y37641677D01*
X100423663Y37576204D01*
X100461076Y37533027D01*
X100505281Y37494723D01*
X100505282Y37494722D01*
X100626230Y37416993D01*
X100626233Y37416992D01*
X100626236Y37416990D01*
X100639219Y37411061D01*
X100639992Y37410708D01*
X100692796Y37364953D01*
X100712481Y37297914D01*
X100712481Y36760810D01*
X100692796Y36693771D01*
X100639997Y36648018D01*
X100626246Y36641738D01*
X100626230Y36641730D01*
X100505282Y36564001D01*
X100505281Y36564000D01*
X100461073Y36525692D01*
X100366930Y36417046D01*
X100366919Y36417030D01*
X100335302Y36367834D01*
X100335293Y36367818D01*
X100275574Y36237051D01*
X100259093Y36180923D01*
X100259091Y36180918D01*
X100256978Y36166214D01*
X100227953Y36102658D01*
X100169175Y36064884D01*
X100134240Y36059861D01*
X99529380Y36059861D01*
X99452952Y36039383D01*
X99384431Y35999821D01*
X99384428Y35999819D01*
X97406162Y34021552D01*
X97344839Y33988067D01*
X97275147Y33993051D01*
X97219214Y34034923D01*
X97194797Y34100387D01*
X97194481Y34109233D01*
X97194481Y40327601D01*
X97779591Y40327601D01*
X97799049Y40192263D01*
X97799051Y40192255D01*
X97855848Y40067886D01*
X97855853Y40067879D01*
X97945390Y39964547D01*
X97945394Y39964543D01*
X97992601Y39934206D01*
X98060420Y39890622D01*
X98102164Y39878365D01*
X98191613Y39852100D01*
X98191614Y39852100D01*
X98328348Y39852100D01*
X98396383Y39872077D01*
X98431318Y39877100D01*
X100003659Y39877100D01*
X100070698Y39857415D01*
X100103430Y39826733D01*
X100121468Y39802291D01*
X100121472Y39802287D01*
X100227704Y39723885D01*
X100227705Y39723885D01*
X100227706Y39723884D01*
X100352332Y39680275D01*
X100352331Y39680275D01*
X100381921Y39677500D01*
X100381925Y39677500D01*
X100987441Y39677500D01*
X101017030Y39680275D01*
X101141656Y39723884D01*
X101247892Y39802289D01*
X101326297Y39908525D01*
X101369906Y40033151D01*
X101371687Y40052146D01*
X101372681Y40062740D01*
X101372681Y40643261D01*
X101369906Y40672850D01*
X101333507Y40776871D01*
X101326297Y40797475D01*
X101325819Y40798122D01*
X101247892Y40903711D01*
X101247891Y40903712D01*
X101141657Y40982116D01*
X101141654Y40982118D01*
X101134020Y40984789D01*
X101077246Y41025514D01*
X101051502Y41090468D01*
X101050981Y41101828D01*
X101050981Y41255173D01*
X101070666Y41322212D01*
X101123470Y41367967D01*
X101134022Y41372213D01*
X101141656Y41374884D01*
X101247892Y41453289D01*
X101326297Y41559525D01*
X101369906Y41684151D01*
X101372681Y41713744D01*
X101372681Y42294256D01*
X101369906Y42323849D01*
X101367062Y42331976D01*
X101326296Y42448477D01*
X101247892Y42554711D01*
X101247891Y42554712D01*
X101141657Y42633116D01*
X101017029Y42676726D01*
X101017030Y42676726D01*
X100987441Y42679500D01*
X100987437Y42679500D01*
X100381925Y42679500D01*
X100381921Y42679500D01*
X100352331Y42676726D01*
X100227704Y42633116D01*
X100121470Y42554712D01*
X100121469Y42554711D01*
X100043065Y42448477D01*
X99999455Y42323850D01*
X99996681Y42294261D01*
X99996681Y41713740D01*
X99999455Y41684151D01*
X100043065Y41559524D01*
X100121469Y41453290D01*
X100121470Y41453289D01*
X100227704Y41374885D01*
X100227705Y41374885D01*
X100227706Y41374884D01*
X100352332Y41331275D01*
X100352338Y41331275D01*
X100352438Y41331252D01*
X100352511Y41331212D01*
X100359455Y41328782D01*
X100359052Y41327633D01*
X100413734Y41297717D01*
X100447169Y41236366D01*
X100449981Y41210107D01*
X100449981Y41146894D01*
X100430296Y41079855D01*
X100377492Y41034100D01*
X100352453Y41025753D01*
X100352340Y41025729D01*
X100227704Y40982116D01*
X100121472Y40903713D01*
X100121471Y40903712D01*
X100121470Y40903711D01*
X100065936Y40828466D01*
X100010291Y40786216D01*
X99966168Y40778100D01*
X98431318Y40778100D01*
X98396383Y40783123D01*
X98385849Y40786216D01*
X98361768Y40793287D01*
X98328349Y40803100D01*
X98328348Y40803100D01*
X98191614Y40803100D01*
X98191613Y40803100D01*
X98060421Y40764579D01*
X97945394Y40690658D01*
X97945390Y40690654D01*
X97855853Y40587322D01*
X97855848Y40587315D01*
X97799051Y40462946D01*
X97799049Y40462938D01*
X97779591Y40327601D01*
X97194481Y40327601D01*
X97194481Y41900167D01*
X97214166Y41967206D01*
X97230800Y41987848D01*
X98942133Y43699181D01*
X99003456Y43732666D01*
X99029814Y43735500D01*
X100134240Y43735500D01*
X100201279Y43715815D01*
G37*
%TD.AperFunction*%
%TD*%
M02*
