%TF.GenerationSoftware,KiCad,Pcbnew,8.0.3*%
%TF.CreationDate,2025-10-09T18:02:22+02:00*%
%TF.ProjectId,LAN8742A-breakout,4c414e38-3734-4324-912d-627265616b6f,+ (Unreleased)*%
%TF.SameCoordinates,Original*%
%TF.FileFunction,Legend,Top*%
%TF.FilePolarity,Positive*%
%FSLAX46Y46*%
G04 Gerber Fmt 4.6, Leading zero omitted, Abs format (unit mm)*
G04 Created by KiCad (PCBNEW 8.0.3) date 2025-10-09 18:02:22*
%MOMM*%
%LPD*%
G01*
G04 APERTURE LIST*
G04 Aperture macros list*
%AMRoundRect*
0 Rectangle with rounded corners*
0 $1 Rounding radius*
0 $2 $3 $4 $5 $6 $7 $8 $9 X,Y pos of 4 corners*
0 Add a 4 corners polygon primitive as box body*
4,1,4,$2,$3,$4,$5,$6,$7,$8,$9,$2,$3,0*
0 Add four circle primitives for the rounded corners*
1,1,$1+$1,$2,$3*
1,1,$1+$1,$4,$5*
1,1,$1+$1,$6,$7*
1,1,$1+$1,$8,$9*
0 Add four rect primitives between the rounded corners*
20,1,$1+$1,$2,$3,$4,$5,0*
20,1,$1+$1,$4,$5,$6,$7,0*
20,1,$1+$1,$6,$7,$8,$9,0*
20,1,$1+$1,$8,$9,$2,$3,0*%
%AMFreePoly0*
4,1,35,0.535355,0.785355,0.550000,0.750000,0.550000,-0.750000,0.535355,-0.785355,0.500000,-0.800000,0.000000,-0.800000,-0.012286,-0.794911,-0.071157,-0.794911,-0.085244,-0.792886,-0.221795,-0.752791,-0.234740,-0.746879,-0.354462,-0.669938,-0.365217,-0.660618,-0.458414,-0.553063,-0.466109,-0.541091,-0.525228,-0.411637,-0.529237,-0.397982,-0.549491,-0.257116,-0.550000,-0.250000,-0.550000,0.250000,
-0.549491,0.257116,-0.529237,0.397982,-0.525228,0.411637,-0.466109,0.541091,-0.458414,0.553063,-0.365217,0.660618,-0.354462,0.669938,-0.234740,0.746879,-0.221795,0.752791,-0.085244,0.792886,-0.071157,0.794911,-0.012286,0.794911,0.000000,0.800000,0.500000,0.800000,0.535355,0.785355,0.535355,0.785355,$1*%
%AMFreePoly1*
4,1,35,0.012286,0.794911,0.071157,0.794911,0.085244,0.792886,0.221795,0.752791,0.234740,0.746879,0.354462,0.669938,0.365217,0.660618,0.458414,0.553063,0.466109,0.541091,0.525228,0.411637,0.529237,0.397982,0.549491,0.257116,0.550000,0.250000,0.550000,-0.250000,0.549491,-0.257116,0.529237,-0.397982,0.525228,-0.411637,0.466109,-0.541091,0.458414,-0.553063,0.365217,-0.660618,
0.354462,-0.669938,0.234740,-0.746879,0.221795,-0.752791,0.085244,-0.792886,0.071157,-0.794911,0.012286,-0.794911,0.000000,-0.800000,-0.500000,-0.800000,-0.535355,-0.785355,-0.550000,-0.750000,-0.550000,0.750000,-0.535355,0.785355,-0.500000,0.800000,0.000000,0.800000,0.012286,0.794911,0.012286,0.794911,$1*%
G04 Aperture macros list end*
%ADD10C,0.150000*%
%ADD11C,0.100000*%
%ADD12C,0.120000*%
%ADD13C,0.250000*%
%ADD14RoundRect,0.262500X-0.008839X-0.380070X0.380070X0.008839X0.008839X0.380070X-0.380070X-0.008839X0*%
%ADD15RoundRect,0.262500X0.415425X-0.044194X-0.044194X0.415425X-0.415425X0.044194X0.044194X-0.415425X0*%
%ADD16FreePoly0,180.000000*%
%ADD17FreePoly1,180.000000*%
%ADD18C,3.300000*%
%ADD19FreePoly0,0.000000*%
%ADD20FreePoly1,0.000000*%
%ADD21RoundRect,0.050000X-0.850000X-0.850000X0.850000X-0.850000X0.850000X0.850000X-0.850000X0.850000X0*%
%ADD22O,1.800000X1.800000*%
%ADD23RoundRect,0.262500X-0.044194X-0.415425X0.415425X0.044194X0.044194X0.415425X-0.415425X-0.044194X0*%
%ADD24RoundRect,0.262500X-0.262500X0.275000X-0.262500X-0.275000X0.262500X-0.275000X0.262500X0.275000X0*%
%ADD25RoundRect,0.262500X0.044194X0.415425X-0.415425X-0.044194X-0.044194X-0.415425X0.415425X0.044194X0*%
%ADD26RoundRect,0.262500X0.275000X0.262500X-0.275000X0.262500X-0.275000X-0.262500X0.275000X-0.262500X0*%
%ADD27RoundRect,0.525000X-1.237437X-1.979899X1.979899X1.237437X1.237437X1.979899X-1.979899X-1.237437X0*%
%ADD28RoundRect,0.087500X-0.344715X0.220971X0.220971X-0.344715X0.344715X-0.220971X-0.220971X0.344715X0*%
%ADD29RoundRect,0.087500X-0.344715X-0.220971X-0.220971X-0.344715X0.344715X0.220971X0.220971X0.344715X0*%
%ADD30RoundRect,0.050000X-1.767767X0.000000X0.000000X-1.767767X1.767767X0.000000X0.000000X1.767767X0*%
%ADD31C,2.100000*%
%ADD32RoundRect,0.050000X-0.850000X0.850000X-0.850000X-0.850000X0.850000X-0.850000X0.850000X0.850000X0*%
%ADD33RoundRect,0.262500X-0.275000X-0.262500X0.275000X-0.262500X0.275000X0.262500X-0.275000X0.262500X0*%
%ADD34RoundRect,0.050000X0.850000X0.850000X-0.850000X0.850000X-0.850000X-0.850000X0.850000X-0.850000X0*%
%ADD35RoundRect,0.262500X0.262500X-0.325000X0.262500X0.325000X-0.262500X0.325000X-0.262500X-0.325000X0*%
%ADD36RoundRect,0.050000X-0.430000X0.400000X-0.430000X-0.400000X0.430000X-0.400000X0.430000X0.400000X0*%
%ADD37C,3.400000*%
%ADD38RoundRect,0.050000X0.800000X0.800000X-0.800000X0.800000X-0.800000X-0.800000X0.800000X-0.800000X0*%
%ADD39C,1.700000*%
%ADD40C,1.900000*%
%ADD41C,2.600000*%
G04 APERTURE END LIST*
D10*
X74890750Y17258208D02*
X74414559Y16924875D01*
X74890750Y16686780D02*
X73890750Y16686780D01*
X73890750Y16686780D02*
X73890750Y17067732D01*
X73890750Y17067732D02*
X73938369Y17162970D01*
X73938369Y17162970D02*
X73985988Y17210589D01*
X73985988Y17210589D02*
X74081226Y17258208D01*
X74081226Y17258208D02*
X74224083Y17258208D01*
X74224083Y17258208D02*
X74319321Y17210589D01*
X74319321Y17210589D02*
X74366940Y17162970D01*
X74366940Y17162970D02*
X74414559Y17067732D01*
X74414559Y17067732D02*
X74414559Y16686780D01*
X73890750Y17591542D02*
X74890750Y18258208D01*
X73890750Y18258208D02*
X74890750Y17591542D01*
X74890750Y18639161D02*
X73890750Y18639161D01*
X73890750Y18639161D02*
X73890750Y18877256D01*
X73890750Y18877256D02*
X73938369Y19020113D01*
X73938369Y19020113D02*
X74033607Y19115351D01*
X74033607Y19115351D02*
X74128845Y19162970D01*
X74128845Y19162970D02*
X74319321Y19210589D01*
X74319321Y19210589D02*
X74462178Y19210589D01*
X74462178Y19210589D02*
X74652654Y19162970D01*
X74652654Y19162970D02*
X74747892Y19115351D01*
X74747892Y19115351D02*
X74843131Y19020113D01*
X74843131Y19020113D02*
X74890750Y18877256D01*
X74890750Y18877256D02*
X74890750Y18639161D01*
X73890750Y19829637D02*
X73890750Y19924875D01*
X73890750Y19924875D02*
X73938369Y20020113D01*
X73938369Y20020113D02*
X73985988Y20067732D01*
X73985988Y20067732D02*
X74081226Y20115351D01*
X74081226Y20115351D02*
X74271702Y20162970D01*
X74271702Y20162970D02*
X74509797Y20162970D01*
X74509797Y20162970D02*
X74700273Y20115351D01*
X74700273Y20115351D02*
X74795511Y20067732D01*
X74795511Y20067732D02*
X74843131Y20020113D01*
X74843131Y20020113D02*
X74890750Y19924875D01*
X74890750Y19924875D02*
X74890750Y19829637D01*
X74890750Y19829637D02*
X74843131Y19734399D01*
X74843131Y19734399D02*
X74795511Y19686780D01*
X74795511Y19686780D02*
X74700273Y19639161D01*
X74700273Y19639161D02*
X74509797Y19591542D01*
X74509797Y19591542D02*
X74271702Y19591542D01*
X74271702Y19591542D02*
X74081226Y19639161D01*
X74081226Y19639161D02*
X73985988Y19686780D01*
X73985988Y19686780D02*
X73938369Y19734399D01*
X73938369Y19734399D02*
X73890750Y19829637D01*
X67504188Y35784181D02*
X67170855Y36260372D01*
X66932760Y35784181D02*
X66932760Y36784181D01*
X66932760Y36784181D02*
X67313712Y36784181D01*
X67313712Y36784181D02*
X67408950Y36736562D01*
X67408950Y36736562D02*
X67456569Y36688943D01*
X67456569Y36688943D02*
X67504188Y36593705D01*
X67504188Y36593705D02*
X67504188Y36450848D01*
X67504188Y36450848D02*
X67456569Y36355610D01*
X67456569Y36355610D02*
X67408950Y36307991D01*
X67408950Y36307991D02*
X67313712Y36260372D01*
X67313712Y36260372D02*
X66932760Y36260372D01*
X67885141Y35831800D02*
X68027998Y35784181D01*
X68027998Y35784181D02*
X68266093Y35784181D01*
X68266093Y35784181D02*
X68361331Y35831800D01*
X68361331Y35831800D02*
X68408950Y35879420D01*
X68408950Y35879420D02*
X68456569Y35974658D01*
X68456569Y35974658D02*
X68456569Y36069896D01*
X68456569Y36069896D02*
X68408950Y36165134D01*
X68408950Y36165134D02*
X68361331Y36212753D01*
X68361331Y36212753D02*
X68266093Y36260372D01*
X68266093Y36260372D02*
X68075617Y36307991D01*
X68075617Y36307991D02*
X67980379Y36355610D01*
X67980379Y36355610D02*
X67932760Y36403229D01*
X67932760Y36403229D02*
X67885141Y36498467D01*
X67885141Y36498467D02*
X67885141Y36593705D01*
X67885141Y36593705D02*
X67932760Y36688943D01*
X67932760Y36688943D02*
X67980379Y36736562D01*
X67980379Y36736562D02*
X68075617Y36784181D01*
X68075617Y36784181D02*
X68313712Y36784181D01*
X68313712Y36784181D02*
X68456569Y36736562D01*
X68742284Y36784181D02*
X69313712Y36784181D01*
X69027998Y35784181D02*
X69027998Y36784181D01*
X96127046Y18829384D02*
X96888951Y18829384D01*
X96507998Y18448431D02*
X96507998Y19210336D01*
X97269903Y19448431D02*
X97888950Y19448431D01*
X97888950Y19448431D02*
X97555617Y19067479D01*
X97555617Y19067479D02*
X97698474Y19067479D01*
X97698474Y19067479D02*
X97793712Y19019860D01*
X97793712Y19019860D02*
X97841331Y18972241D01*
X97841331Y18972241D02*
X97888950Y18877003D01*
X97888950Y18877003D02*
X97888950Y18638908D01*
X97888950Y18638908D02*
X97841331Y18543670D01*
X97841331Y18543670D02*
X97793712Y18496050D01*
X97793712Y18496050D02*
X97698474Y18448431D01*
X97698474Y18448431D02*
X97412760Y18448431D01*
X97412760Y18448431D02*
X97317522Y18496050D01*
X97317522Y18496050D02*
X97269903Y18543670D01*
X98174665Y19448431D02*
X98507998Y18448431D01*
X98507998Y18448431D02*
X98841331Y19448431D01*
X99079427Y19448431D02*
X99698474Y19448431D01*
X99698474Y19448431D02*
X99365141Y19067479D01*
X99365141Y19067479D02*
X99507998Y19067479D01*
X99507998Y19067479D02*
X99603236Y19019860D01*
X99603236Y19019860D02*
X99650855Y18972241D01*
X99650855Y18972241D02*
X99698474Y18877003D01*
X99698474Y18877003D02*
X99698474Y18638908D01*
X99698474Y18638908D02*
X99650855Y18543670D01*
X99650855Y18543670D02*
X99603236Y18496050D01*
X99603236Y18496050D02*
X99507998Y18448431D01*
X99507998Y18448431D02*
X99222284Y18448431D01*
X99222284Y18448431D02*
X99127046Y18496050D01*
X99127046Y18496050D02*
X99079427Y18543670D01*
X79875511Y17258208D02*
X79923131Y17210589D01*
X79923131Y17210589D02*
X79970750Y17067732D01*
X79970750Y17067732D02*
X79970750Y16972494D01*
X79970750Y16972494D02*
X79923131Y16829637D01*
X79923131Y16829637D02*
X79827892Y16734399D01*
X79827892Y16734399D02*
X79732654Y16686780D01*
X79732654Y16686780D02*
X79542178Y16639161D01*
X79542178Y16639161D02*
X79399321Y16639161D01*
X79399321Y16639161D02*
X79208845Y16686780D01*
X79208845Y16686780D02*
X79113607Y16734399D01*
X79113607Y16734399D02*
X79018369Y16829637D01*
X79018369Y16829637D02*
X78970750Y16972494D01*
X78970750Y16972494D02*
X78970750Y17067732D01*
X78970750Y17067732D02*
X79018369Y17210589D01*
X79018369Y17210589D02*
X79065988Y17258208D01*
X79970750Y18258208D02*
X79494559Y17924875D01*
X79970750Y17686780D02*
X78970750Y17686780D01*
X78970750Y17686780D02*
X78970750Y18067732D01*
X78970750Y18067732D02*
X79018369Y18162970D01*
X79018369Y18162970D02*
X79065988Y18210589D01*
X79065988Y18210589D02*
X79161226Y18258208D01*
X79161226Y18258208D02*
X79304083Y18258208D01*
X79304083Y18258208D02*
X79399321Y18210589D01*
X79399321Y18210589D02*
X79446940Y18162970D01*
X79446940Y18162970D02*
X79494559Y18067732D01*
X79494559Y18067732D02*
X79494559Y17686780D01*
X79923131Y18639161D02*
X79970750Y18782018D01*
X79970750Y18782018D02*
X79970750Y19020113D01*
X79970750Y19020113D02*
X79923131Y19115351D01*
X79923131Y19115351D02*
X79875511Y19162970D01*
X79875511Y19162970D02*
X79780273Y19210589D01*
X79780273Y19210589D02*
X79685035Y19210589D01*
X79685035Y19210589D02*
X79589797Y19162970D01*
X79589797Y19162970D02*
X79542178Y19115351D01*
X79542178Y19115351D02*
X79494559Y19020113D01*
X79494559Y19020113D02*
X79446940Y18829637D01*
X79446940Y18829637D02*
X79399321Y18734399D01*
X79399321Y18734399D02*
X79351702Y18686780D01*
X79351702Y18686780D02*
X79256464Y18639161D01*
X79256464Y18639161D02*
X79161226Y18639161D01*
X79161226Y18639161D02*
X79065988Y18686780D01*
X79065988Y18686780D02*
X79018369Y18734399D01*
X79018369Y18734399D02*
X78970750Y18829637D01*
X78970750Y18829637D02*
X78970750Y19067732D01*
X78970750Y19067732D02*
X79018369Y19210589D01*
X80065988Y19401065D02*
X80065988Y20162970D01*
X79970750Y20401066D02*
X78970750Y20401066D01*
X78970750Y20401066D02*
X78970750Y20639161D01*
X78970750Y20639161D02*
X79018369Y20782018D01*
X79018369Y20782018D02*
X79113607Y20877256D01*
X79113607Y20877256D02*
X79208845Y20924875D01*
X79208845Y20924875D02*
X79399321Y20972494D01*
X79399321Y20972494D02*
X79542178Y20972494D01*
X79542178Y20972494D02*
X79732654Y20924875D01*
X79732654Y20924875D02*
X79827892Y20877256D01*
X79827892Y20877256D02*
X79923131Y20782018D01*
X79923131Y20782018D02*
X79970750Y20639161D01*
X79970750Y20639161D02*
X79970750Y20401066D01*
X78970750Y21258209D02*
X79970750Y21591542D01*
X79970750Y21591542D02*
X78970750Y21924875D01*
X92078760Y37816181D02*
X92078760Y38816181D01*
X92554950Y37816181D02*
X92554950Y38816181D01*
X92554950Y38816181D02*
X93126378Y37816181D01*
X93126378Y37816181D02*
X93126378Y38816181D01*
X93459712Y38816181D02*
X94031140Y38816181D01*
X93745426Y37816181D02*
X93745426Y38816181D01*
X94316855Y37863800D02*
X94459712Y37816181D01*
X94459712Y37816181D02*
X94697807Y37816181D01*
X94697807Y37816181D02*
X94793045Y37863800D01*
X94793045Y37863800D02*
X94840664Y37911420D01*
X94840664Y37911420D02*
X94888283Y38006658D01*
X94888283Y38006658D02*
X94888283Y38101896D01*
X94888283Y38101896D02*
X94840664Y38197134D01*
X94840664Y38197134D02*
X94793045Y38244753D01*
X94793045Y38244753D02*
X94697807Y38292372D01*
X94697807Y38292372D02*
X94507331Y38339991D01*
X94507331Y38339991D02*
X94412093Y38387610D01*
X94412093Y38387610D02*
X94364474Y38435229D01*
X94364474Y38435229D02*
X94316855Y38530467D01*
X94316855Y38530467D02*
X94316855Y38625705D01*
X94316855Y38625705D02*
X94364474Y38720943D01*
X94364474Y38720943D02*
X94412093Y38768562D01*
X94412093Y38768562D02*
X94507331Y38816181D01*
X94507331Y38816181D02*
X94745426Y38816181D01*
X94745426Y38816181D02*
X94888283Y38768562D01*
X95316855Y38339991D02*
X95650188Y38339991D01*
X95793045Y37816181D02*
X95316855Y37816181D01*
X95316855Y37816181D02*
X95316855Y38816181D01*
X95316855Y38816181D02*
X95793045Y38816181D01*
X96697807Y37816181D02*
X96221617Y37816181D01*
X96221617Y37816181D02*
X96221617Y38816181D01*
X97031141Y38197134D02*
X97793046Y38197134D01*
X97602569Y38006658D02*
X97793046Y38197134D01*
X97793046Y38197134D02*
X97602569Y38387610D01*
X98269236Y37816181D02*
X98269236Y38816181D01*
X98269236Y38816181D02*
X98650188Y38816181D01*
X98650188Y38816181D02*
X98745426Y38768562D01*
X98745426Y38768562D02*
X98793045Y38720943D01*
X98793045Y38720943D02*
X98840664Y38625705D01*
X98840664Y38625705D02*
X98840664Y38482848D01*
X98840664Y38482848D02*
X98793045Y38387610D01*
X98793045Y38387610D02*
X98745426Y38339991D01*
X98745426Y38339991D02*
X98650188Y38292372D01*
X98650188Y38292372D02*
X98269236Y38292372D01*
X99269236Y38816181D02*
X99269236Y38006658D01*
X99269236Y38006658D02*
X99316855Y37911420D01*
X99316855Y37911420D02*
X99364474Y37863800D01*
X99364474Y37863800D02*
X99459712Y37816181D01*
X99459712Y37816181D02*
X99650188Y37816181D01*
X99650188Y37816181D02*
X99745426Y37863800D01*
X99745426Y37863800D02*
X99793045Y37911420D01*
X99793045Y37911420D02*
X99840664Y38006658D01*
X99840664Y38006658D02*
X99840664Y38816181D01*
X85050750Y16686780D02*
X84050750Y16686780D01*
X84050750Y16686780D02*
X84765035Y17020113D01*
X84765035Y17020113D02*
X84050750Y17353446D01*
X84050750Y17353446D02*
X85050750Y17353446D01*
X85050750Y17829637D02*
X84050750Y17829637D01*
X84050750Y17829637D02*
X84050750Y18067732D01*
X84050750Y18067732D02*
X84098369Y18210589D01*
X84098369Y18210589D02*
X84193607Y18305827D01*
X84193607Y18305827D02*
X84288845Y18353446D01*
X84288845Y18353446D02*
X84479321Y18401065D01*
X84479321Y18401065D02*
X84622178Y18401065D01*
X84622178Y18401065D02*
X84812654Y18353446D01*
X84812654Y18353446D02*
X84907892Y18305827D01*
X84907892Y18305827D02*
X85003131Y18210589D01*
X85003131Y18210589D02*
X85050750Y18067732D01*
X85050750Y18067732D02*
X85050750Y17829637D01*
X84050750Y19020113D02*
X84050750Y19115351D01*
X84050750Y19115351D02*
X84098369Y19210589D01*
X84098369Y19210589D02*
X84145988Y19258208D01*
X84145988Y19258208D02*
X84241226Y19305827D01*
X84241226Y19305827D02*
X84431702Y19353446D01*
X84431702Y19353446D02*
X84669797Y19353446D01*
X84669797Y19353446D02*
X84860273Y19305827D01*
X84860273Y19305827D02*
X84955511Y19258208D01*
X84955511Y19258208D02*
X85003131Y19210589D01*
X85003131Y19210589D02*
X85050750Y19115351D01*
X85050750Y19115351D02*
X85050750Y19020113D01*
X85050750Y19020113D02*
X85003131Y18924875D01*
X85003131Y18924875D02*
X84955511Y18877256D01*
X84955511Y18877256D02*
X84860273Y18829637D01*
X84860273Y18829637D02*
X84669797Y18782018D01*
X84669797Y18782018D02*
X84431702Y18782018D01*
X84431702Y18782018D02*
X84241226Y18829637D01*
X84241226Y18829637D02*
X84145988Y18877256D01*
X84145988Y18877256D02*
X84098369Y18924875D01*
X84098369Y18924875D02*
X84050750Y19020113D01*
X97984188Y23528431D02*
X97650855Y24004622D01*
X97412760Y23528431D02*
X97412760Y24528431D01*
X97412760Y24528431D02*
X97793712Y24528431D01*
X97793712Y24528431D02*
X97888950Y24480812D01*
X97888950Y24480812D02*
X97936569Y24433193D01*
X97936569Y24433193D02*
X97984188Y24337955D01*
X97984188Y24337955D02*
X97984188Y24195098D01*
X97984188Y24195098D02*
X97936569Y24099860D01*
X97936569Y24099860D02*
X97888950Y24052241D01*
X97888950Y24052241D02*
X97793712Y24004622D01*
X97793712Y24004622D02*
X97412760Y24004622D01*
X98365141Y23576050D02*
X98507998Y23528431D01*
X98507998Y23528431D02*
X98746093Y23528431D01*
X98746093Y23528431D02*
X98841331Y23576050D01*
X98841331Y23576050D02*
X98888950Y23623670D01*
X98888950Y23623670D02*
X98936569Y23718908D01*
X98936569Y23718908D02*
X98936569Y23814146D01*
X98936569Y23814146D02*
X98888950Y23909384D01*
X98888950Y23909384D02*
X98841331Y23957003D01*
X98841331Y23957003D02*
X98746093Y24004622D01*
X98746093Y24004622D02*
X98555617Y24052241D01*
X98555617Y24052241D02*
X98460379Y24099860D01*
X98460379Y24099860D02*
X98412760Y24147479D01*
X98412760Y24147479D02*
X98365141Y24242717D01*
X98365141Y24242717D02*
X98365141Y24337955D01*
X98365141Y24337955D02*
X98412760Y24433193D01*
X98412760Y24433193D02*
X98460379Y24480812D01*
X98460379Y24480812D02*
X98555617Y24528431D01*
X98555617Y24528431D02*
X98793712Y24528431D01*
X98793712Y24528431D02*
X98936569Y24480812D01*
X99222284Y24528431D02*
X99793712Y24528431D01*
X99507998Y23528431D02*
X99507998Y24528431D01*
X72350750Y17258208D02*
X71874559Y16924875D01*
X72350750Y16686780D02*
X71350750Y16686780D01*
X71350750Y16686780D02*
X71350750Y17067732D01*
X71350750Y17067732D02*
X71398369Y17162970D01*
X71398369Y17162970D02*
X71445988Y17210589D01*
X71445988Y17210589D02*
X71541226Y17258208D01*
X71541226Y17258208D02*
X71684083Y17258208D01*
X71684083Y17258208D02*
X71779321Y17210589D01*
X71779321Y17210589D02*
X71826940Y17162970D01*
X71826940Y17162970D02*
X71874559Y17067732D01*
X71874559Y17067732D02*
X71874559Y16686780D01*
X71350750Y17591542D02*
X72350750Y18258208D01*
X71350750Y18258208D02*
X72350750Y17591542D01*
X72350750Y18639161D02*
X71350750Y18639161D01*
X71350750Y18639161D02*
X71350750Y18877256D01*
X71350750Y18877256D02*
X71398369Y19020113D01*
X71398369Y19020113D02*
X71493607Y19115351D01*
X71493607Y19115351D02*
X71588845Y19162970D01*
X71588845Y19162970D02*
X71779321Y19210589D01*
X71779321Y19210589D02*
X71922178Y19210589D01*
X71922178Y19210589D02*
X72112654Y19162970D01*
X72112654Y19162970D02*
X72207892Y19115351D01*
X72207892Y19115351D02*
X72303131Y19020113D01*
X72303131Y19020113D02*
X72350750Y18877256D01*
X72350750Y18877256D02*
X72350750Y18639161D01*
X72350750Y20162970D02*
X72350750Y19591542D01*
X72350750Y19877256D02*
X71350750Y19877256D01*
X71350750Y19877256D02*
X71493607Y19782018D01*
X71493607Y19782018D02*
X71588845Y19686780D01*
X71588845Y19686780D02*
X71636464Y19591542D01*
X64948321Y16766113D02*
X64948321Y16385161D01*
X64948321Y16385161D02*
X64148321Y16385161D01*
X64719749Y16994684D02*
X64719749Y17375637D01*
X64948321Y16918494D02*
X64148321Y17185161D01*
X64148321Y17185161D02*
X64948321Y17451827D01*
X64948321Y17718494D02*
X64148321Y17718494D01*
X64148321Y17718494D02*
X64948321Y18175637D01*
X64948321Y18175637D02*
X64148321Y18175637D01*
X64491178Y18670874D02*
X64453083Y18594684D01*
X64453083Y18594684D02*
X64414987Y18556589D01*
X64414987Y18556589D02*
X64338797Y18518493D01*
X64338797Y18518493D02*
X64300702Y18518493D01*
X64300702Y18518493D02*
X64224511Y18556589D01*
X64224511Y18556589D02*
X64186416Y18594684D01*
X64186416Y18594684D02*
X64148321Y18670874D01*
X64148321Y18670874D02*
X64148321Y18823255D01*
X64148321Y18823255D02*
X64186416Y18899446D01*
X64186416Y18899446D02*
X64224511Y18937541D01*
X64224511Y18937541D02*
X64300702Y18975636D01*
X64300702Y18975636D02*
X64338797Y18975636D01*
X64338797Y18975636D02*
X64414987Y18937541D01*
X64414987Y18937541D02*
X64453083Y18899446D01*
X64453083Y18899446D02*
X64491178Y18823255D01*
X64491178Y18823255D02*
X64491178Y18670874D01*
X64491178Y18670874D02*
X64529273Y18594684D01*
X64529273Y18594684D02*
X64567368Y18556589D01*
X64567368Y18556589D02*
X64643559Y18518493D01*
X64643559Y18518493D02*
X64795940Y18518493D01*
X64795940Y18518493D02*
X64872130Y18556589D01*
X64872130Y18556589D02*
X64910226Y18594684D01*
X64910226Y18594684D02*
X64948321Y18670874D01*
X64948321Y18670874D02*
X64948321Y18823255D01*
X64948321Y18823255D02*
X64910226Y18899446D01*
X64910226Y18899446D02*
X64872130Y18937541D01*
X64872130Y18937541D02*
X64795940Y18975636D01*
X64795940Y18975636D02*
X64643559Y18975636D01*
X64643559Y18975636D02*
X64567368Y18937541D01*
X64567368Y18937541D02*
X64529273Y18899446D01*
X64529273Y18899446D02*
X64491178Y18823255D01*
X64148321Y19242303D02*
X64148321Y19775637D01*
X64148321Y19775637D02*
X64948321Y19432779D01*
X64414987Y20423256D02*
X64948321Y20423256D01*
X64110226Y20232780D02*
X64681654Y20042303D01*
X64681654Y20042303D02*
X64681654Y20537542D01*
X64224511Y20804208D02*
X64186416Y20842304D01*
X64186416Y20842304D02*
X64148321Y20918494D01*
X64148321Y20918494D02*
X64148321Y21108970D01*
X64148321Y21108970D02*
X64186416Y21185161D01*
X64186416Y21185161D02*
X64224511Y21223256D01*
X64224511Y21223256D02*
X64300702Y21261351D01*
X64300702Y21261351D02*
X64376892Y21261351D01*
X64376892Y21261351D02*
X64491178Y21223256D01*
X64491178Y21223256D02*
X64948321Y20766113D01*
X64948321Y20766113D02*
X64948321Y21261351D01*
X64719749Y21566113D02*
X64719749Y21947066D01*
X64948321Y21489923D02*
X64148321Y21756590D01*
X64148321Y21756590D02*
X64948321Y22023256D01*
X64529273Y23166113D02*
X64567368Y23280399D01*
X64567368Y23280399D02*
X64605464Y23318494D01*
X64605464Y23318494D02*
X64681654Y23356590D01*
X64681654Y23356590D02*
X64795940Y23356590D01*
X64795940Y23356590D02*
X64872130Y23318494D01*
X64872130Y23318494D02*
X64910226Y23280399D01*
X64910226Y23280399D02*
X64948321Y23204209D01*
X64948321Y23204209D02*
X64948321Y22899447D01*
X64948321Y22899447D02*
X64148321Y22899447D01*
X64148321Y22899447D02*
X64148321Y23166113D01*
X64148321Y23166113D02*
X64186416Y23242304D01*
X64186416Y23242304D02*
X64224511Y23280399D01*
X64224511Y23280399D02*
X64300702Y23318494D01*
X64300702Y23318494D02*
X64376892Y23318494D01*
X64376892Y23318494D02*
X64453083Y23280399D01*
X64453083Y23280399D02*
X64491178Y23242304D01*
X64491178Y23242304D02*
X64529273Y23166113D01*
X64529273Y23166113D02*
X64529273Y22899447D01*
X64948321Y23699447D02*
X64414987Y23699447D01*
X64567368Y23699447D02*
X64491178Y23737542D01*
X64491178Y23737542D02*
X64453083Y23775637D01*
X64453083Y23775637D02*
X64414987Y23851828D01*
X64414987Y23851828D02*
X64414987Y23928018D01*
X64910226Y24499447D02*
X64948321Y24423256D01*
X64948321Y24423256D02*
X64948321Y24270875D01*
X64948321Y24270875D02*
X64910226Y24194685D01*
X64910226Y24194685D02*
X64834035Y24156589D01*
X64834035Y24156589D02*
X64529273Y24156589D01*
X64529273Y24156589D02*
X64453083Y24194685D01*
X64453083Y24194685D02*
X64414987Y24270875D01*
X64414987Y24270875D02*
X64414987Y24423256D01*
X64414987Y24423256D02*
X64453083Y24499447D01*
X64453083Y24499447D02*
X64529273Y24537542D01*
X64529273Y24537542D02*
X64605464Y24537542D01*
X64605464Y24537542D02*
X64681654Y24156589D01*
X64948321Y25223256D02*
X64529273Y25223256D01*
X64529273Y25223256D02*
X64453083Y25185161D01*
X64453083Y25185161D02*
X64414987Y25108970D01*
X64414987Y25108970D02*
X64414987Y24956589D01*
X64414987Y24956589D02*
X64453083Y24880399D01*
X64910226Y25223256D02*
X64948321Y25147065D01*
X64948321Y25147065D02*
X64948321Y24956589D01*
X64948321Y24956589D02*
X64910226Y24880399D01*
X64910226Y24880399D02*
X64834035Y24842303D01*
X64834035Y24842303D02*
X64757845Y24842303D01*
X64757845Y24842303D02*
X64681654Y24880399D01*
X64681654Y24880399D02*
X64643559Y24956589D01*
X64643559Y24956589D02*
X64643559Y25147065D01*
X64643559Y25147065D02*
X64605464Y25223256D01*
X64948321Y25604209D02*
X64148321Y25604209D01*
X64643559Y25680399D02*
X64948321Y25908971D01*
X64414987Y25908971D02*
X64719749Y25604209D01*
X64948321Y26366113D02*
X64910226Y26289923D01*
X64910226Y26289923D02*
X64872130Y26251828D01*
X64872130Y26251828D02*
X64795940Y26213732D01*
X64795940Y26213732D02*
X64567368Y26213732D01*
X64567368Y26213732D02*
X64491178Y26251828D01*
X64491178Y26251828D02*
X64453083Y26289923D01*
X64453083Y26289923D02*
X64414987Y26366113D01*
X64414987Y26366113D02*
X64414987Y26480399D01*
X64414987Y26480399D02*
X64453083Y26556590D01*
X64453083Y26556590D02*
X64491178Y26594685D01*
X64491178Y26594685D02*
X64567368Y26632780D01*
X64567368Y26632780D02*
X64795940Y26632780D01*
X64795940Y26632780D02*
X64872130Y26594685D01*
X64872130Y26594685D02*
X64910226Y26556590D01*
X64910226Y26556590D02*
X64948321Y26480399D01*
X64948321Y26480399D02*
X64948321Y26366113D01*
X64414987Y27318495D02*
X64948321Y27318495D01*
X64414987Y26975638D02*
X64834035Y26975638D01*
X64834035Y26975638D02*
X64910226Y27013733D01*
X64910226Y27013733D02*
X64948321Y27089923D01*
X64948321Y27089923D02*
X64948321Y27204209D01*
X64948321Y27204209D02*
X64910226Y27280400D01*
X64910226Y27280400D02*
X64872130Y27318495D01*
X64414987Y27585162D02*
X64414987Y27889924D01*
X64148321Y27699448D02*
X64834035Y27699448D01*
X64834035Y27699448D02*
X64910226Y27737543D01*
X64910226Y27737543D02*
X64948321Y27813733D01*
X64948321Y27813733D02*
X64948321Y27889924D01*
X66236276Y16804208D02*
X66236276Y16347065D01*
X66236276Y16575637D02*
X65436276Y16575637D01*
X65436276Y16575637D02*
X65550561Y16499446D01*
X65550561Y16499446D02*
X65626752Y16423256D01*
X65626752Y16423256D02*
X65664847Y16347065D01*
X66160085Y17147066D02*
X66198181Y17185161D01*
X66198181Y17185161D02*
X66236276Y17147066D01*
X66236276Y17147066D02*
X66198181Y17108970D01*
X66198181Y17108970D02*
X66160085Y17147066D01*
X66160085Y17147066D02*
X66236276Y17147066D01*
X65436276Y17680399D02*
X65436276Y17756589D01*
X65436276Y17756589D02*
X65474371Y17832780D01*
X65474371Y17832780D02*
X65512466Y17870875D01*
X65512466Y17870875D02*
X65588657Y17908970D01*
X65588657Y17908970D02*
X65741038Y17947065D01*
X65741038Y17947065D02*
X65931514Y17947065D01*
X65931514Y17947065D02*
X66083895Y17908970D01*
X66083895Y17908970D02*
X66160085Y17870875D01*
X66160085Y17870875D02*
X66198181Y17832780D01*
X66198181Y17832780D02*
X66236276Y17756589D01*
X66236276Y17756589D02*
X66236276Y17680399D01*
X66236276Y17680399D02*
X66198181Y17604208D01*
X66198181Y17604208D02*
X66160085Y17566113D01*
X66160085Y17566113D02*
X66083895Y17528018D01*
X66083895Y17528018D02*
X65931514Y17489922D01*
X65931514Y17489922D02*
X65741038Y17489922D01*
X65741038Y17489922D02*
X65588657Y17528018D01*
X65588657Y17528018D02*
X65512466Y17566113D01*
X65512466Y17566113D02*
X65474371Y17604208D01*
X65474371Y17604208D02*
X65436276Y17680399D01*
X66160085Y18289923D02*
X66198181Y18328018D01*
X66198181Y18328018D02*
X66236276Y18289923D01*
X66236276Y18289923D02*
X66198181Y18251827D01*
X66198181Y18251827D02*
X66160085Y18289923D01*
X66160085Y18289923D02*
X66236276Y18289923D01*
X65436276Y18823256D02*
X65436276Y18899446D01*
X65436276Y18899446D02*
X65474371Y18975637D01*
X65474371Y18975637D02*
X65512466Y19013732D01*
X65512466Y19013732D02*
X65588657Y19051827D01*
X65588657Y19051827D02*
X65741038Y19089922D01*
X65741038Y19089922D02*
X65931514Y19089922D01*
X65931514Y19089922D02*
X66083895Y19051827D01*
X66083895Y19051827D02*
X66160085Y19013732D01*
X66160085Y19013732D02*
X66198181Y18975637D01*
X66198181Y18975637D02*
X66236276Y18899446D01*
X66236276Y18899446D02*
X66236276Y18823256D01*
X66236276Y18823256D02*
X66198181Y18747065D01*
X66198181Y18747065D02*
X66160085Y18708970D01*
X66160085Y18708970D02*
X66083895Y18670875D01*
X66083895Y18670875D02*
X65931514Y18632779D01*
X65931514Y18632779D02*
X65741038Y18632779D01*
X65741038Y18632779D02*
X65588657Y18670875D01*
X65588657Y18670875D02*
X65512466Y18708970D01*
X65512466Y18708970D02*
X65474371Y18747065D01*
X65474371Y18747065D02*
X65436276Y18823256D01*
X96872950Y30528431D02*
X96396760Y30528431D01*
X96396760Y30528431D02*
X96396760Y31528431D01*
X97206284Y31052241D02*
X97539617Y31052241D01*
X97682474Y30528431D02*
X97206284Y30528431D01*
X97206284Y30528431D02*
X97206284Y31528431D01*
X97206284Y31528431D02*
X97682474Y31528431D01*
X98111046Y30528431D02*
X98111046Y31528431D01*
X98111046Y31528431D02*
X98349141Y31528431D01*
X98349141Y31528431D02*
X98491998Y31480812D01*
X98491998Y31480812D02*
X98587236Y31385574D01*
X98587236Y31385574D02*
X98634855Y31290336D01*
X98634855Y31290336D02*
X98682474Y31099860D01*
X98682474Y31099860D02*
X98682474Y30957003D01*
X98682474Y30957003D02*
X98634855Y30766527D01*
X98634855Y30766527D02*
X98587236Y30671289D01*
X98587236Y30671289D02*
X98491998Y30576050D01*
X98491998Y30576050D02*
X98349141Y30528431D01*
X98349141Y30528431D02*
X98111046Y30528431D01*
X99634855Y30528431D02*
X99063427Y30528431D01*
X99349141Y30528431D02*
X99349141Y31528431D01*
X99349141Y31528431D02*
X99253903Y31385574D01*
X99253903Y31385574D02*
X99158665Y31290336D01*
X99158665Y31290336D02*
X99063427Y31242717D01*
X91670750Y16543923D02*
X91670750Y17115351D01*
X92670750Y16829637D02*
X91670750Y16829637D01*
X91670750Y17353447D02*
X92670750Y18020113D01*
X91670750Y18020113D02*
X92670750Y17353447D01*
X92670750Y18401066D02*
X91670750Y18401066D01*
X91670750Y18401066D02*
X91670750Y18639161D01*
X91670750Y18639161D02*
X91718369Y18782018D01*
X91718369Y18782018D02*
X91813607Y18877256D01*
X91813607Y18877256D02*
X91908845Y18924875D01*
X91908845Y18924875D02*
X92099321Y18972494D01*
X92099321Y18972494D02*
X92242178Y18972494D01*
X92242178Y18972494D02*
X92432654Y18924875D01*
X92432654Y18924875D02*
X92527892Y18877256D01*
X92527892Y18877256D02*
X92623131Y18782018D01*
X92623131Y18782018D02*
X92670750Y18639161D01*
X92670750Y18639161D02*
X92670750Y18401066D01*
X91670750Y19591542D02*
X91670750Y19686780D01*
X91670750Y19686780D02*
X91718369Y19782018D01*
X91718369Y19782018D02*
X91765988Y19829637D01*
X91765988Y19829637D02*
X91861226Y19877256D01*
X91861226Y19877256D02*
X92051702Y19924875D01*
X92051702Y19924875D02*
X92289797Y19924875D01*
X92289797Y19924875D02*
X92480273Y19877256D01*
X92480273Y19877256D02*
X92575511Y19829637D01*
X92575511Y19829637D02*
X92623131Y19782018D01*
X92623131Y19782018D02*
X92670750Y19686780D01*
X92670750Y19686780D02*
X92670750Y19591542D01*
X92670750Y19591542D02*
X92623131Y19496304D01*
X92623131Y19496304D02*
X92575511Y19448685D01*
X92575511Y19448685D02*
X92480273Y19401066D01*
X92480273Y19401066D02*
X92289797Y19353447D01*
X92289797Y19353447D02*
X92051702Y19353447D01*
X92051702Y19353447D02*
X91861226Y19401066D01*
X91861226Y19401066D02*
X91765988Y19448685D01*
X91765988Y19448685D02*
X91718369Y19496304D01*
X91718369Y19496304D02*
X91670750Y19591542D01*
X94210750Y16543923D02*
X94210750Y17115351D01*
X95210750Y16829637D02*
X94210750Y16829637D01*
X94210750Y17353447D02*
X95210750Y18020113D01*
X94210750Y18020113D02*
X95210750Y17353447D01*
X95210750Y18401066D02*
X94210750Y18401066D01*
X94210750Y18401066D02*
X94210750Y18639161D01*
X94210750Y18639161D02*
X94258369Y18782018D01*
X94258369Y18782018D02*
X94353607Y18877256D01*
X94353607Y18877256D02*
X94448845Y18924875D01*
X94448845Y18924875D02*
X94639321Y18972494D01*
X94639321Y18972494D02*
X94782178Y18972494D01*
X94782178Y18972494D02*
X94972654Y18924875D01*
X94972654Y18924875D02*
X95067892Y18877256D01*
X95067892Y18877256D02*
X95163131Y18782018D01*
X95163131Y18782018D02*
X95210750Y18639161D01*
X95210750Y18639161D02*
X95210750Y18401066D01*
X95210750Y19924875D02*
X95210750Y19353447D01*
X95210750Y19639161D02*
X94210750Y19639161D01*
X94210750Y19639161D02*
X94353607Y19543923D01*
X94353607Y19543923D02*
X94448845Y19448685D01*
X94448845Y19448685D02*
X94496464Y19353447D01*
X92078760Y35022181D02*
X92078760Y36022181D01*
X92554950Y35022181D02*
X92554950Y36022181D01*
X92554950Y36022181D02*
X93126378Y35022181D01*
X93126378Y35022181D02*
X93126378Y36022181D01*
X93459712Y36022181D02*
X94031140Y36022181D01*
X93745426Y35022181D02*
X93745426Y36022181D01*
X94316855Y35069800D02*
X94459712Y35022181D01*
X94459712Y35022181D02*
X94697807Y35022181D01*
X94697807Y35022181D02*
X94793045Y35069800D01*
X94793045Y35069800D02*
X94840664Y35117420D01*
X94840664Y35117420D02*
X94888283Y35212658D01*
X94888283Y35212658D02*
X94888283Y35307896D01*
X94888283Y35307896D02*
X94840664Y35403134D01*
X94840664Y35403134D02*
X94793045Y35450753D01*
X94793045Y35450753D02*
X94697807Y35498372D01*
X94697807Y35498372D02*
X94507331Y35545991D01*
X94507331Y35545991D02*
X94412093Y35593610D01*
X94412093Y35593610D02*
X94364474Y35641229D01*
X94364474Y35641229D02*
X94316855Y35736467D01*
X94316855Y35736467D02*
X94316855Y35831705D01*
X94316855Y35831705D02*
X94364474Y35926943D01*
X94364474Y35926943D02*
X94412093Y35974562D01*
X94412093Y35974562D02*
X94507331Y36022181D01*
X94507331Y36022181D02*
X94745426Y36022181D01*
X94745426Y36022181D02*
X94888283Y35974562D01*
X95316855Y35545991D02*
X95650188Y35545991D01*
X95793045Y35022181D02*
X95316855Y35022181D01*
X95316855Y35022181D02*
X95316855Y36022181D01*
X95316855Y36022181D02*
X95793045Y36022181D01*
X96697807Y35022181D02*
X96221617Y35022181D01*
X96221617Y35022181D02*
X96221617Y36022181D01*
X97031141Y35403134D02*
X97793046Y35403134D01*
X97602569Y35212658D02*
X97793046Y35403134D01*
X97793046Y35403134D02*
X97602569Y35593610D01*
X98269236Y35022181D02*
X98269236Y36022181D01*
X98269236Y36022181D02*
X98650188Y36022181D01*
X98650188Y36022181D02*
X98745426Y35974562D01*
X98745426Y35974562D02*
X98793045Y35926943D01*
X98793045Y35926943D02*
X98840664Y35831705D01*
X98840664Y35831705D02*
X98840664Y35688848D01*
X98840664Y35688848D02*
X98793045Y35593610D01*
X98793045Y35593610D02*
X98745426Y35545991D01*
X98745426Y35545991D02*
X98650188Y35498372D01*
X98650188Y35498372D02*
X98269236Y35498372D01*
X99269236Y35022181D02*
X99269236Y36022181D01*
X99269236Y36022181D02*
X99507331Y36022181D01*
X99507331Y36022181D02*
X99650188Y35974562D01*
X99650188Y35974562D02*
X99745426Y35879324D01*
X99745426Y35879324D02*
X99793045Y35784086D01*
X99793045Y35784086D02*
X99840664Y35593610D01*
X99840664Y35593610D02*
X99840664Y35450753D01*
X99840664Y35450753D02*
X99793045Y35260277D01*
X99793045Y35260277D02*
X99745426Y35165039D01*
X99745426Y35165039D02*
X99650188Y35069800D01*
X99650188Y35069800D02*
X99507331Y35022181D01*
X99507331Y35022181D02*
X99269236Y35022181D01*
X96872950Y27988431D02*
X96396760Y27988431D01*
X96396760Y27988431D02*
X96396760Y28988431D01*
X97206284Y28512241D02*
X97539617Y28512241D01*
X97682474Y27988431D02*
X97206284Y27988431D01*
X97206284Y27988431D02*
X97206284Y28988431D01*
X97206284Y28988431D02*
X97682474Y28988431D01*
X98111046Y27988431D02*
X98111046Y28988431D01*
X98111046Y28988431D02*
X98349141Y28988431D01*
X98349141Y28988431D02*
X98491998Y28940812D01*
X98491998Y28940812D02*
X98587236Y28845574D01*
X98587236Y28845574D02*
X98634855Y28750336D01*
X98634855Y28750336D02*
X98682474Y28559860D01*
X98682474Y28559860D02*
X98682474Y28417003D01*
X98682474Y28417003D02*
X98634855Y28226527D01*
X98634855Y28226527D02*
X98587236Y28131289D01*
X98587236Y28131289D02*
X98491998Y28036050D01*
X98491998Y28036050D02*
X98349141Y27988431D01*
X98349141Y27988431D02*
X98111046Y27988431D01*
X99063427Y28893193D02*
X99111046Y28940812D01*
X99111046Y28940812D02*
X99206284Y28988431D01*
X99206284Y28988431D02*
X99444379Y28988431D01*
X99444379Y28988431D02*
X99539617Y28940812D01*
X99539617Y28940812D02*
X99587236Y28893193D01*
X99587236Y28893193D02*
X99634855Y28797955D01*
X99634855Y28797955D02*
X99634855Y28702717D01*
X99634855Y28702717D02*
X99587236Y28559860D01*
X99587236Y28559860D02*
X99015808Y27988431D01*
X99015808Y27988431D02*
X99634855Y27988431D01*
X77430750Y17258208D02*
X76954559Y16924875D01*
X77430750Y16686780D02*
X76430750Y16686780D01*
X76430750Y16686780D02*
X76430750Y17067732D01*
X76430750Y17067732D02*
X76478369Y17162970D01*
X76478369Y17162970D02*
X76525988Y17210589D01*
X76525988Y17210589D02*
X76621226Y17258208D01*
X76621226Y17258208D02*
X76764083Y17258208D01*
X76764083Y17258208D02*
X76859321Y17210589D01*
X76859321Y17210589D02*
X76906940Y17162970D01*
X76906940Y17162970D02*
X76954559Y17067732D01*
X76954559Y17067732D02*
X76954559Y16686780D01*
X76430750Y17591542D02*
X77430750Y18258208D01*
X76430750Y18258208D02*
X77430750Y17591542D01*
X76906940Y18639161D02*
X76906940Y18972494D01*
X77430750Y19115351D02*
X77430750Y18639161D01*
X77430750Y18639161D02*
X76430750Y18639161D01*
X76430750Y18639161D02*
X76430750Y19115351D01*
X77430750Y20115351D02*
X76954559Y19782018D01*
X77430750Y19543923D02*
X76430750Y19543923D01*
X76430750Y19543923D02*
X76430750Y19924875D01*
X76430750Y19924875D02*
X76478369Y20020113D01*
X76478369Y20020113D02*
X76525988Y20067732D01*
X76525988Y20067732D02*
X76621226Y20115351D01*
X76621226Y20115351D02*
X76764083Y20115351D01*
X76764083Y20115351D02*
X76859321Y20067732D01*
X76859321Y20067732D02*
X76906940Y20020113D01*
X76906940Y20020113D02*
X76954559Y19924875D01*
X76954559Y19924875D02*
X76954559Y19543923D01*
X87495511Y17258208D02*
X87543131Y17210589D01*
X87543131Y17210589D02*
X87590750Y17067732D01*
X87590750Y17067732D02*
X87590750Y16972494D01*
X87590750Y16972494D02*
X87543131Y16829637D01*
X87543131Y16829637D02*
X87447892Y16734399D01*
X87447892Y16734399D02*
X87352654Y16686780D01*
X87352654Y16686780D02*
X87162178Y16639161D01*
X87162178Y16639161D02*
X87019321Y16639161D01*
X87019321Y16639161D02*
X86828845Y16686780D01*
X86828845Y16686780D02*
X86733607Y16734399D01*
X86733607Y16734399D02*
X86638369Y16829637D01*
X86638369Y16829637D02*
X86590750Y16972494D01*
X86590750Y16972494D02*
X86590750Y17067732D01*
X86590750Y17067732D02*
X86638369Y17210589D01*
X86638369Y17210589D02*
X86685988Y17258208D01*
X87590750Y18162970D02*
X87590750Y17686780D01*
X87590750Y17686780D02*
X86590750Y17686780D01*
X87590750Y18496304D02*
X86590750Y18496304D01*
X87590750Y19067732D02*
X87019321Y18639161D01*
X86590750Y19067732D02*
X87162178Y18496304D01*
X82510750Y16686780D02*
X81510750Y16686780D01*
X81510750Y16686780D02*
X82225035Y17020113D01*
X82225035Y17020113D02*
X81510750Y17353446D01*
X81510750Y17353446D02*
X82510750Y17353446D01*
X82510750Y17829637D02*
X81510750Y17829637D01*
X81510750Y17829637D02*
X81510750Y18067732D01*
X81510750Y18067732D02*
X81558369Y18210589D01*
X81558369Y18210589D02*
X81653607Y18305827D01*
X81653607Y18305827D02*
X81748845Y18353446D01*
X81748845Y18353446D02*
X81939321Y18401065D01*
X81939321Y18401065D02*
X82082178Y18401065D01*
X82082178Y18401065D02*
X82272654Y18353446D01*
X82272654Y18353446D02*
X82367892Y18305827D01*
X82367892Y18305827D02*
X82463131Y18210589D01*
X82463131Y18210589D02*
X82510750Y18067732D01*
X82510750Y18067732D02*
X82510750Y17829637D01*
X82510750Y18829637D02*
X81510750Y18829637D01*
X81510750Y19496303D02*
X81510750Y19686779D01*
X81510750Y19686779D02*
X81558369Y19782017D01*
X81558369Y19782017D02*
X81653607Y19877255D01*
X81653607Y19877255D02*
X81844083Y19924874D01*
X81844083Y19924874D02*
X82177416Y19924874D01*
X82177416Y19924874D02*
X82367892Y19877255D01*
X82367892Y19877255D02*
X82463131Y19782017D01*
X82463131Y19782017D02*
X82510750Y19686779D01*
X82510750Y19686779D02*
X82510750Y19496303D01*
X82510750Y19496303D02*
X82463131Y19401065D01*
X82463131Y19401065D02*
X82367892Y19305827D01*
X82367892Y19305827D02*
X82177416Y19258208D01*
X82177416Y19258208D02*
X81844083Y19258208D01*
X81844083Y19258208D02*
X81653607Y19305827D01*
X81653607Y19305827D02*
X81558369Y19401065D01*
X81558369Y19401065D02*
X81510750Y19496303D01*
X97603236Y21940812D02*
X97507998Y21988431D01*
X97507998Y21988431D02*
X97365141Y21988431D01*
X97365141Y21988431D02*
X97222284Y21940812D01*
X97222284Y21940812D02*
X97127046Y21845574D01*
X97127046Y21845574D02*
X97079427Y21750336D01*
X97079427Y21750336D02*
X97031808Y21559860D01*
X97031808Y21559860D02*
X97031808Y21417003D01*
X97031808Y21417003D02*
X97079427Y21226527D01*
X97079427Y21226527D02*
X97127046Y21131289D01*
X97127046Y21131289D02*
X97222284Y21036050D01*
X97222284Y21036050D02*
X97365141Y20988431D01*
X97365141Y20988431D02*
X97460379Y20988431D01*
X97460379Y20988431D02*
X97603236Y21036050D01*
X97603236Y21036050D02*
X97650855Y21083670D01*
X97650855Y21083670D02*
X97650855Y21417003D01*
X97650855Y21417003D02*
X97460379Y21417003D01*
X98079427Y20988431D02*
X98079427Y21988431D01*
X98079427Y21988431D02*
X98650855Y20988431D01*
X98650855Y20988431D02*
X98650855Y21988431D01*
X99127046Y20988431D02*
X99127046Y21988431D01*
X99127046Y21988431D02*
X99365141Y21988431D01*
X99365141Y21988431D02*
X99507998Y21940812D01*
X99507998Y21940812D02*
X99603236Y21845574D01*
X99603236Y21845574D02*
X99650855Y21750336D01*
X99650855Y21750336D02*
X99698474Y21559860D01*
X99698474Y21559860D02*
X99698474Y21417003D01*
X99698474Y21417003D02*
X99650855Y21226527D01*
X99650855Y21226527D02*
X99603236Y21131289D01*
X99603236Y21131289D02*
X99507998Y21036050D01*
X99507998Y21036050D02*
X99365141Y20988431D01*
X99365141Y20988431D02*
X99127046Y20988431D01*
X89130750Y16543923D02*
X89130750Y17115351D01*
X90130750Y16829637D02*
X89130750Y16829637D01*
X89130750Y17353447D02*
X90130750Y18020113D01*
X89130750Y18020113D02*
X90130750Y17353447D01*
X89606940Y18401066D02*
X89606940Y18734399D01*
X90130750Y18877256D02*
X90130750Y18401066D01*
X90130750Y18401066D02*
X89130750Y18401066D01*
X89130750Y18401066D02*
X89130750Y18877256D01*
X90130750Y19305828D02*
X89130750Y19305828D01*
X89130750Y19305828D02*
X90130750Y19877256D01*
X90130750Y19877256D02*
X89130750Y19877256D01*
X95073635Y43537612D02*
X94740302Y44013803D01*
X94502207Y43537612D02*
X94502207Y44537612D01*
X94502207Y44537612D02*
X94883159Y44537612D01*
X94883159Y44537612D02*
X94978397Y44489993D01*
X94978397Y44489993D02*
X95026016Y44442374D01*
X95026016Y44442374D02*
X95073635Y44347136D01*
X95073635Y44347136D02*
X95073635Y44204279D01*
X95073635Y44204279D02*
X95026016Y44109041D01*
X95026016Y44109041D02*
X94978397Y44061422D01*
X94978397Y44061422D02*
X94883159Y44013803D01*
X94883159Y44013803D02*
X94502207Y44013803D01*
X95502207Y44061422D02*
X95835540Y44061422D01*
X95978397Y43537612D02*
X95502207Y43537612D01*
X95502207Y43537612D02*
X95502207Y44537612D01*
X95502207Y44537612D02*
X95978397Y44537612D01*
X96930778Y44489993D02*
X96835540Y44537612D01*
X96835540Y44537612D02*
X96692683Y44537612D01*
X96692683Y44537612D02*
X96549826Y44489993D01*
X96549826Y44489993D02*
X96454588Y44394755D01*
X96454588Y44394755D02*
X96406969Y44299517D01*
X96406969Y44299517D02*
X96359350Y44109041D01*
X96359350Y44109041D02*
X96359350Y43966184D01*
X96359350Y43966184D02*
X96406969Y43775708D01*
X96406969Y43775708D02*
X96454588Y43680470D01*
X96454588Y43680470D02*
X96549826Y43585231D01*
X96549826Y43585231D02*
X96692683Y43537612D01*
X96692683Y43537612D02*
X96787921Y43537612D01*
X96787921Y43537612D02*
X96930778Y43585231D01*
X96930778Y43585231D02*
X96978397Y43632851D01*
X96978397Y43632851D02*
X96978397Y43966184D01*
X96978397Y43966184D02*
X96787921Y43966184D01*
X97597445Y44537612D02*
X97787921Y44537612D01*
X97787921Y44537612D02*
X97883159Y44489993D01*
X97883159Y44489993D02*
X97978397Y44394755D01*
X97978397Y44394755D02*
X98026016Y44204279D01*
X98026016Y44204279D02*
X98026016Y43870946D01*
X98026016Y43870946D02*
X97978397Y43680470D01*
X97978397Y43680470D02*
X97883159Y43585231D01*
X97883159Y43585231D02*
X97787921Y43537612D01*
X97787921Y43537612D02*
X97597445Y43537612D01*
X97597445Y43537612D02*
X97502207Y43585231D01*
X97502207Y43585231D02*
X97406969Y43680470D01*
X97406969Y43680470D02*
X97359350Y43870946D01*
X97359350Y43870946D02*
X97359350Y44204279D01*
X97359350Y44204279D02*
X97406969Y44394755D01*
X97406969Y44394755D02*
X97502207Y44489993D01*
X97502207Y44489993D02*
X97597445Y44537612D01*
X98787921Y44061422D02*
X98454588Y44061422D01*
X98454588Y43537612D02*
X98454588Y44537612D01*
X98454588Y44537612D02*
X98930778Y44537612D01*
X99645064Y44061422D02*
X99311731Y44061422D01*
X99311731Y43537612D02*
X99311731Y44537612D01*
X99311731Y44537612D02*
X99787921Y44537612D01*
X79482249Y35733204D02*
X78909830Y35834219D01*
X79078188Y35329143D02*
X78371082Y36036250D01*
X78371082Y36036250D02*
X78640456Y36305624D01*
X78640456Y36305624D02*
X78741471Y36339296D01*
X78741471Y36339296D02*
X78808814Y36339296D01*
X78808814Y36339296D02*
X78909830Y36305624D01*
X78909830Y36305624D02*
X79010845Y36204609D01*
X79010845Y36204609D02*
X79044517Y36103593D01*
X79044517Y36103593D02*
X79044517Y36036250D01*
X79044517Y36036250D02*
X79010845Y35935235D01*
X79010845Y35935235D02*
X78741471Y35665861D01*
X80155684Y36406639D02*
X79751623Y36002578D01*
X79953654Y36204609D02*
X79246547Y36911715D01*
X79246547Y36911715D02*
X79280219Y36743357D01*
X79280219Y36743357D02*
X79280219Y36608670D01*
X79280219Y36608670D02*
X79246547Y36507654D01*
X76892392Y22581888D02*
X76892392Y22514544D01*
X76892392Y22514544D02*
X76825048Y22379857D01*
X76825048Y22379857D02*
X76757705Y22312514D01*
X76757705Y22312514D02*
X76623018Y22245170D01*
X76623018Y22245170D02*
X76488331Y22245170D01*
X76488331Y22245170D02*
X76387316Y22278842D01*
X76387316Y22278842D02*
X76218957Y22379857D01*
X76218957Y22379857D02*
X76117942Y22480872D01*
X76117942Y22480872D02*
X76016926Y22649231D01*
X76016926Y22649231D02*
X75983255Y22750246D01*
X75983255Y22750246D02*
X75983255Y22884933D01*
X75983255Y22884933D02*
X76050598Y23019620D01*
X76050598Y23019620D02*
X76117942Y23086964D01*
X76117942Y23086964D02*
X76252629Y23154307D01*
X76252629Y23154307D02*
X76319972Y23154307D01*
X76892392Y23861414D02*
X76555674Y23524697D01*
X76555674Y23524697D02*
X76858720Y23154307D01*
X76858720Y23154307D02*
X76858720Y23221651D01*
X76858720Y23221651D02*
X76892392Y23322666D01*
X76892392Y23322666D02*
X77060751Y23491025D01*
X77060751Y23491025D02*
X77161766Y23524697D01*
X77161766Y23524697D02*
X77229109Y23524697D01*
X77229109Y23524697D02*
X77330125Y23491025D01*
X77330125Y23491025D02*
X77498483Y23322666D01*
X77498483Y23322666D02*
X77532155Y23221651D01*
X77532155Y23221651D02*
X77532155Y23154307D01*
X77532155Y23154307D02*
X77498483Y23053292D01*
X77498483Y23053292D02*
X77330125Y22884933D01*
X77330125Y22884933D02*
X77229109Y22851262D01*
X77229109Y22851262D02*
X77161766Y22851262D01*
X101358859Y26851017D02*
X101358859Y26136732D01*
X101358859Y26136732D02*
X101311240Y25993875D01*
X101311240Y25993875D02*
X101216002Y25898636D01*
X101216002Y25898636D02*
X101073145Y25851017D01*
X101073145Y25851017D02*
X100977907Y25851017D01*
X102263621Y26517684D02*
X102263621Y25851017D01*
X102025526Y26898636D02*
X101787431Y26184351D01*
X101787431Y26184351D02*
X102406478Y26184351D01*
X77993669Y32300678D02*
X77993669Y32233334D01*
X77993669Y32233334D02*
X77926325Y32098647D01*
X77926325Y32098647D02*
X77858982Y32031304D01*
X77858982Y32031304D02*
X77724295Y31963960D01*
X77724295Y31963960D02*
X77589608Y31963960D01*
X77589608Y31963960D02*
X77488593Y31997632D01*
X77488593Y31997632D02*
X77320234Y32098647D01*
X77320234Y32098647D02*
X77219219Y32199662D01*
X77219219Y32199662D02*
X77118203Y32368021D01*
X77118203Y32368021D02*
X77084532Y32469036D01*
X77084532Y32469036D02*
X77084532Y32603723D01*
X77084532Y32603723D02*
X77151875Y32738410D01*
X77151875Y32738410D02*
X77219219Y32805754D01*
X77219219Y32805754D02*
X77353906Y32873097D01*
X77353906Y32873097D02*
X77421249Y32873097D01*
X78734447Y32906769D02*
X78330386Y32502708D01*
X78532417Y32704739D02*
X77825310Y33411845D01*
X77825310Y33411845D02*
X77858982Y33243487D01*
X77858982Y33243487D02*
X77858982Y33108800D01*
X77858982Y33108800D02*
X77825310Y33007784D01*
X79407883Y33580204D02*
X79003822Y33176143D01*
X79205852Y33378174D02*
X78498745Y34085281D01*
X78498745Y34085281D02*
X78532417Y33916922D01*
X78532417Y33916922D02*
X78532417Y33782235D01*
X78532417Y33782235D02*
X78498745Y33681220D01*
X94115314Y54249181D02*
X93781981Y54725372D01*
X93543886Y54249181D02*
X93543886Y55249181D01*
X93543886Y55249181D02*
X93924838Y55249181D01*
X93924838Y55249181D02*
X94020076Y55201562D01*
X94020076Y55201562D02*
X94067695Y55153943D01*
X94067695Y55153943D02*
X94115314Y55058705D01*
X94115314Y55058705D02*
X94115314Y54915848D01*
X94115314Y54915848D02*
X94067695Y54820610D01*
X94067695Y54820610D02*
X94020076Y54772991D01*
X94020076Y54772991D02*
X93924838Y54725372D01*
X93924838Y54725372D02*
X93543886Y54725372D01*
X94448648Y55249181D02*
X95115314Y55249181D01*
X95115314Y55249181D02*
X94686743Y54249181D01*
X70459674Y24531170D02*
X70459674Y24463826D01*
X70459674Y24463826D02*
X70392330Y24329139D01*
X70392330Y24329139D02*
X70324987Y24261796D01*
X70324987Y24261796D02*
X70190300Y24194452D01*
X70190300Y24194452D02*
X70055613Y24194452D01*
X70055613Y24194452D02*
X69954598Y24228124D01*
X69954598Y24228124D02*
X69786239Y24329139D01*
X69786239Y24329139D02*
X69685224Y24430154D01*
X69685224Y24430154D02*
X69584208Y24598513D01*
X69584208Y24598513D02*
X69550537Y24699528D01*
X69550537Y24699528D02*
X69550537Y24834215D01*
X69550537Y24834215D02*
X69617880Y24968902D01*
X69617880Y24968902D02*
X69685224Y25036246D01*
X69685224Y25036246D02*
X69819911Y25103589D01*
X69819911Y25103589D02*
X69887254Y25103589D01*
X71200452Y25137261D02*
X70796391Y24733200D01*
X70998422Y24935231D02*
X70291315Y25642337D01*
X70291315Y25642337D02*
X70324987Y25473979D01*
X70324987Y25473979D02*
X70324987Y25339292D01*
X70324987Y25339292D02*
X70291315Y25238276D01*
X70931079Y26282101D02*
X70998422Y26349444D01*
X70998422Y26349444D02*
X71099437Y26383116D01*
X71099437Y26383116D02*
X71166781Y26383116D01*
X71166781Y26383116D02*
X71267796Y26349444D01*
X71267796Y26349444D02*
X71436155Y26248429D01*
X71436155Y26248429D02*
X71604514Y26080070D01*
X71604514Y26080070D02*
X71705529Y25911712D01*
X71705529Y25911712D02*
X71739201Y25810696D01*
X71739201Y25810696D02*
X71739201Y25743353D01*
X71739201Y25743353D02*
X71705529Y25642338D01*
X71705529Y25642338D02*
X71638185Y25574994D01*
X71638185Y25574994D02*
X71537170Y25541322D01*
X71537170Y25541322D02*
X71469827Y25541322D01*
X71469827Y25541322D02*
X71368811Y25574994D01*
X71368811Y25574994D02*
X71200453Y25676009D01*
X71200453Y25676009D02*
X71032094Y25844368D01*
X71032094Y25844368D02*
X70931079Y26012727D01*
X70931079Y26012727D02*
X70897407Y26113742D01*
X70897407Y26113742D02*
X70897407Y26181086D01*
X70897407Y26181086D02*
X70931079Y26282101D01*
X82748810Y37485182D02*
X82415477Y37961373D01*
X82177382Y37485182D02*
X82177382Y38485182D01*
X82177382Y38485182D02*
X82558334Y38485182D01*
X82558334Y38485182D02*
X82653572Y38437563D01*
X82653572Y38437563D02*
X82701191Y38389944D01*
X82701191Y38389944D02*
X82748810Y38294706D01*
X82748810Y38294706D02*
X82748810Y38151849D01*
X82748810Y38151849D02*
X82701191Y38056611D01*
X82701191Y38056611D02*
X82653572Y38008992D01*
X82653572Y38008992D02*
X82558334Y37961373D01*
X82558334Y37961373D02*
X82177382Y37961373D01*
X83225001Y37485182D02*
X83415477Y37485182D01*
X83415477Y37485182D02*
X83510715Y37532801D01*
X83510715Y37532801D02*
X83558334Y37580421D01*
X83558334Y37580421D02*
X83653572Y37723278D01*
X83653572Y37723278D02*
X83701191Y37913754D01*
X83701191Y37913754D02*
X83701191Y38294706D01*
X83701191Y38294706D02*
X83653572Y38389944D01*
X83653572Y38389944D02*
X83605953Y38437563D01*
X83605953Y38437563D02*
X83510715Y38485182D01*
X83510715Y38485182D02*
X83320239Y38485182D01*
X83320239Y38485182D02*
X83225001Y38437563D01*
X83225001Y38437563D02*
X83177382Y38389944D01*
X83177382Y38389944D02*
X83129763Y38294706D01*
X83129763Y38294706D02*
X83129763Y38056611D01*
X83129763Y38056611D02*
X83177382Y37961373D01*
X83177382Y37961373D02*
X83225001Y37913754D01*
X83225001Y37913754D02*
X83320239Y37866135D01*
X83320239Y37866135D02*
X83510715Y37866135D01*
X83510715Y37866135D02*
X83605953Y37913754D01*
X83605953Y37913754D02*
X83653572Y37961373D01*
X83653572Y37961373D02*
X83701191Y38056611D01*
X78416392Y28423888D02*
X78416392Y28356544D01*
X78416392Y28356544D02*
X78349048Y28221857D01*
X78349048Y28221857D02*
X78281705Y28154514D01*
X78281705Y28154514D02*
X78147018Y28087170D01*
X78147018Y28087170D02*
X78012331Y28087170D01*
X78012331Y28087170D02*
X77911316Y28120842D01*
X77911316Y28120842D02*
X77742957Y28221857D01*
X77742957Y28221857D02*
X77641942Y28322872D01*
X77641942Y28322872D02*
X77540926Y28491231D01*
X77540926Y28491231D02*
X77507255Y28592246D01*
X77507255Y28592246D02*
X77507255Y28726933D01*
X77507255Y28726933D02*
X77574598Y28861620D01*
X77574598Y28861620D02*
X77641942Y28928964D01*
X77641942Y28928964D02*
X77776629Y28996307D01*
X77776629Y28996307D02*
X77843972Y28996307D01*
X78012331Y29299353D02*
X78483735Y29770758D01*
X78483735Y29770758D02*
X78887796Y28760605D01*
X87861816Y22959670D02*
X87861816Y22892326D01*
X87861816Y22892326D02*
X87794472Y22757639D01*
X87794472Y22757639D02*
X87727129Y22690296D01*
X87727129Y22690296D02*
X87592442Y22622952D01*
X87592442Y22622952D02*
X87457755Y22622952D01*
X87457755Y22622952D02*
X87356740Y22656624D01*
X87356740Y22656624D02*
X87188381Y22757639D01*
X87188381Y22757639D02*
X87087366Y22858654D01*
X87087366Y22858654D02*
X86986350Y23027013D01*
X86986350Y23027013D02*
X86952679Y23128028D01*
X86952679Y23128028D02*
X86952679Y23262715D01*
X86952679Y23262715D02*
X87020022Y23397402D01*
X87020022Y23397402D02*
X87087366Y23464746D01*
X87087366Y23464746D02*
X87222053Y23532089D01*
X87222053Y23532089D02*
X87289396Y23532089D01*
X88063846Y23969822D02*
X88535251Y23498418D01*
X87626114Y24070837D02*
X87962831Y23397402D01*
X87962831Y23397402D02*
X88400564Y23835135D01*
X75622392Y21311888D02*
X75622392Y21244544D01*
X75622392Y21244544D02*
X75555048Y21109857D01*
X75555048Y21109857D02*
X75487705Y21042514D01*
X75487705Y21042514D02*
X75353018Y20975170D01*
X75353018Y20975170D02*
X75218331Y20975170D01*
X75218331Y20975170D02*
X75117316Y21008842D01*
X75117316Y21008842D02*
X74948957Y21109857D01*
X74948957Y21109857D02*
X74847942Y21210872D01*
X74847942Y21210872D02*
X74746926Y21379231D01*
X74746926Y21379231D02*
X74713255Y21480246D01*
X74713255Y21480246D02*
X74713255Y21614933D01*
X74713255Y21614933D02*
X74780598Y21749620D01*
X74780598Y21749620D02*
X74847942Y21816964D01*
X74847942Y21816964D02*
X74982629Y21884307D01*
X74982629Y21884307D02*
X75049972Y21884307D01*
X75588720Y22557742D02*
X75454033Y22423055D01*
X75454033Y22423055D02*
X75420361Y22322040D01*
X75420361Y22322040D02*
X75420361Y22254697D01*
X75420361Y22254697D02*
X75454033Y22086338D01*
X75454033Y22086338D02*
X75555048Y21917979D01*
X75555048Y21917979D02*
X75824422Y21648605D01*
X75824422Y21648605D02*
X75925438Y21614933D01*
X75925438Y21614933D02*
X75992781Y21614933D01*
X75992781Y21614933D02*
X76093796Y21648605D01*
X76093796Y21648605D02*
X76228483Y21783292D01*
X76228483Y21783292D02*
X76262155Y21884307D01*
X76262155Y21884307D02*
X76262155Y21951651D01*
X76262155Y21951651D02*
X76228483Y22052666D01*
X76228483Y22052666D02*
X76060125Y22221025D01*
X76060125Y22221025D02*
X75959109Y22254697D01*
X75959109Y22254697D02*
X75891766Y22254697D01*
X75891766Y22254697D02*
X75790751Y22221025D01*
X75790751Y22221025D02*
X75656064Y22086338D01*
X75656064Y22086338D02*
X75622392Y21985323D01*
X75622392Y21985323D02*
X75622392Y21917979D01*
X75622392Y21917979D02*
X75656064Y21816964D01*
D11*
X64975989Y30504556D02*
X65312706Y30167839D01*
X64369897Y30639243D02*
X64975989Y30504556D01*
X64975989Y30504556D02*
X64841302Y31110648D01*
X66154500Y31009633D02*
X65750439Y30605572D01*
X65952469Y30807602D02*
X65245363Y31514709D01*
X65245363Y31514709D02*
X65279034Y31346350D01*
X65279034Y31346350D02*
X65279034Y31211663D01*
X65279034Y31211663D02*
X65245363Y31110648D01*
D10*
X79432392Y27407887D02*
X79432392Y27340543D01*
X79432392Y27340543D02*
X79365048Y27205856D01*
X79365048Y27205856D02*
X79297705Y27138513D01*
X79297705Y27138513D02*
X79163018Y27071169D01*
X79163018Y27071169D02*
X79028331Y27071169D01*
X79028331Y27071169D02*
X78927316Y27104841D01*
X78927316Y27104841D02*
X78758957Y27205856D01*
X78758957Y27205856D02*
X78657942Y27306871D01*
X78657942Y27306871D02*
X78556926Y27475230D01*
X78556926Y27475230D02*
X78523255Y27576245D01*
X78523255Y27576245D02*
X78523255Y27710932D01*
X78523255Y27710932D02*
X78590598Y27845619D01*
X78590598Y27845619D02*
X78657942Y27912963D01*
X78657942Y27912963D02*
X78792629Y27980306D01*
X78792629Y27980306D02*
X78859972Y27980306D01*
X79499735Y28148665D02*
X79398720Y28114993D01*
X79398720Y28114993D02*
X79331377Y28114993D01*
X79331377Y28114993D02*
X79230361Y28148665D01*
X79230361Y28148665D02*
X79196690Y28182337D01*
X79196690Y28182337D02*
X79163018Y28283352D01*
X79163018Y28283352D02*
X79163018Y28350696D01*
X79163018Y28350696D02*
X79196690Y28451711D01*
X79196690Y28451711D02*
X79331377Y28586398D01*
X79331377Y28586398D02*
X79432392Y28620070D01*
X79432392Y28620070D02*
X79499735Y28620070D01*
X79499735Y28620070D02*
X79600751Y28586398D01*
X79600751Y28586398D02*
X79634422Y28552726D01*
X79634422Y28552726D02*
X79668094Y28451711D01*
X79668094Y28451711D02*
X79668094Y28384367D01*
X79668094Y28384367D02*
X79634422Y28283352D01*
X79634422Y28283352D02*
X79499735Y28148665D01*
X79499735Y28148665D02*
X79466064Y28047650D01*
X79466064Y28047650D02*
X79466064Y27980306D01*
X79466064Y27980306D02*
X79499735Y27879291D01*
X79499735Y27879291D02*
X79634422Y27744604D01*
X79634422Y27744604D02*
X79735438Y27710932D01*
X79735438Y27710932D02*
X79802781Y27710932D01*
X79802781Y27710932D02*
X79903796Y27744604D01*
X79903796Y27744604D02*
X80038483Y27879291D01*
X80038483Y27879291D02*
X80072155Y27980306D01*
X80072155Y27980306D02*
X80072155Y28047650D01*
X80072155Y28047650D02*
X80038483Y28148665D01*
X80038483Y28148665D02*
X79903796Y28283352D01*
X79903796Y28283352D02*
X79802781Y28317024D01*
X79802781Y28317024D02*
X79735438Y28317024D01*
X79735438Y28317024D02*
X79634422Y28283352D01*
X85184503Y28843070D02*
X84612083Y28270650D01*
X84612083Y28270650D02*
X84578411Y28169635D01*
X84578411Y28169635D02*
X84578411Y28102291D01*
X84578411Y28102291D02*
X84612083Y28001276D01*
X84612083Y28001276D02*
X84746770Y27866589D01*
X84746770Y27866589D02*
X84847785Y27832917D01*
X84847785Y27832917D02*
X84915129Y27832917D01*
X84915129Y27832917D02*
X85016144Y27866589D01*
X85016144Y27866589D02*
X85588564Y28439009D01*
X85588564Y27024795D02*
X85184503Y27428856D01*
X85386533Y27226826D02*
X86093640Y27933932D01*
X86093640Y27933932D02*
X85925281Y27900261D01*
X85925281Y27900261D02*
X85790594Y27900261D01*
X85790594Y27900261D02*
X85689579Y27933932D01*
X68273181Y40670668D02*
X68320800Y40813525D01*
X68320800Y40813525D02*
X68320800Y41051620D01*
X68320800Y41051620D02*
X68273181Y41146858D01*
X68273181Y41146858D02*
X68225561Y41194477D01*
X68225561Y41194477D02*
X68130323Y41242096D01*
X68130323Y41242096D02*
X68035085Y41242096D01*
X68035085Y41242096D02*
X67939847Y41194477D01*
X67939847Y41194477D02*
X67892228Y41146858D01*
X67892228Y41146858D02*
X67844609Y41051620D01*
X67844609Y41051620D02*
X67796990Y40861144D01*
X67796990Y40861144D02*
X67749371Y40765906D01*
X67749371Y40765906D02*
X67701752Y40718287D01*
X67701752Y40718287D02*
X67606514Y40670668D01*
X67606514Y40670668D02*
X67511276Y40670668D01*
X67511276Y40670668D02*
X67416038Y40718287D01*
X67416038Y40718287D02*
X67368419Y40765906D01*
X67368419Y40765906D02*
X67320800Y40861144D01*
X67320800Y40861144D02*
X67320800Y41099239D01*
X67320800Y41099239D02*
X67368419Y41242096D01*
X67320800Y41575430D02*
X68320800Y41813525D01*
X68320800Y41813525D02*
X67606514Y42004001D01*
X67606514Y42004001D02*
X68320800Y42194477D01*
X68320800Y42194477D02*
X67320800Y42432572D01*
X68320800Y43337334D02*
X68320800Y42765906D01*
X68320800Y43051620D02*
X67320800Y43051620D01*
X67320800Y43051620D02*
X67463657Y42956382D01*
X67463657Y42956382D02*
X67558895Y42861144D01*
X67558895Y42861144D02*
X67606514Y42765906D01*
X86770256Y24131610D02*
X86770256Y24064266D01*
X86770256Y24064266D02*
X86702912Y23929579D01*
X86702912Y23929579D02*
X86635569Y23862236D01*
X86635569Y23862236D02*
X86500882Y23794892D01*
X86500882Y23794892D02*
X86366195Y23794892D01*
X86366195Y23794892D02*
X86265180Y23828564D01*
X86265180Y23828564D02*
X86096821Y23929579D01*
X86096821Y23929579D02*
X85995806Y24030594D01*
X85995806Y24030594D02*
X85894790Y24198953D01*
X85894790Y24198953D02*
X85861119Y24299968D01*
X85861119Y24299968D02*
X85861119Y24434655D01*
X85861119Y24434655D02*
X85928462Y24569342D01*
X85928462Y24569342D02*
X85995806Y24636686D01*
X85995806Y24636686D02*
X86130493Y24704029D01*
X86130493Y24704029D02*
X86197836Y24704029D01*
X86366195Y25007075D02*
X86803928Y25444808D01*
X86803928Y25444808D02*
X86837599Y24939732D01*
X86837599Y24939732D02*
X86938615Y25040747D01*
X86938615Y25040747D02*
X87039630Y25074419D01*
X87039630Y25074419D02*
X87106973Y25074419D01*
X87106973Y25074419D02*
X87207989Y25040747D01*
X87207989Y25040747D02*
X87376347Y24872388D01*
X87376347Y24872388D02*
X87410019Y24771373D01*
X87410019Y24771373D02*
X87410019Y24704029D01*
X87410019Y24704029D02*
X87376347Y24603014D01*
X87376347Y24603014D02*
X87174317Y24400984D01*
X87174317Y24400984D02*
X87073302Y24367312D01*
X87073302Y24367312D02*
X87005958Y24367312D01*
X96799985Y15184164D02*
X96799985Y14469879D01*
X96799985Y14469879D02*
X96752366Y14327022D01*
X96752366Y14327022D02*
X96657128Y14231783D01*
X96657128Y14231783D02*
X96514271Y14184164D01*
X96514271Y14184164D02*
X96419033Y14184164D01*
X97228557Y15088926D02*
X97276176Y15136545D01*
X97276176Y15136545D02*
X97371414Y15184164D01*
X97371414Y15184164D02*
X97609509Y15184164D01*
X97609509Y15184164D02*
X97704747Y15136545D01*
X97704747Y15136545D02*
X97752366Y15088926D01*
X97752366Y15088926D02*
X97799985Y14993688D01*
X97799985Y14993688D02*
X97799985Y14898450D01*
X97799985Y14898450D02*
X97752366Y14755593D01*
X97752366Y14755593D02*
X97180938Y14184164D01*
X97180938Y14184164D02*
X97799985Y14184164D01*
X68766114Y45961181D02*
X68432781Y46437372D01*
X68194686Y45961181D02*
X68194686Y46961181D01*
X68194686Y46961181D02*
X68575638Y46961181D01*
X68575638Y46961181D02*
X68670876Y46913562D01*
X68670876Y46913562D02*
X68718495Y46865943D01*
X68718495Y46865943D02*
X68766114Y46770705D01*
X68766114Y46770705D02*
X68766114Y46627848D01*
X68766114Y46627848D02*
X68718495Y46532610D01*
X68718495Y46532610D02*
X68670876Y46484991D01*
X68670876Y46484991D02*
X68575638Y46437372D01*
X68575638Y46437372D02*
X68194686Y46437372D01*
X69623257Y46961181D02*
X69432781Y46961181D01*
X69432781Y46961181D02*
X69337543Y46913562D01*
X69337543Y46913562D02*
X69289924Y46865943D01*
X69289924Y46865943D02*
X69194686Y46723086D01*
X69194686Y46723086D02*
X69147067Y46532610D01*
X69147067Y46532610D02*
X69147067Y46151658D01*
X69147067Y46151658D02*
X69194686Y46056420D01*
X69194686Y46056420D02*
X69242305Y46008800D01*
X69242305Y46008800D02*
X69337543Y45961181D01*
X69337543Y45961181D02*
X69528019Y45961181D01*
X69528019Y45961181D02*
X69623257Y46008800D01*
X69623257Y46008800D02*
X69670876Y46056420D01*
X69670876Y46056420D02*
X69718495Y46151658D01*
X69718495Y46151658D02*
X69718495Y46389753D01*
X69718495Y46389753D02*
X69670876Y46484991D01*
X69670876Y46484991D02*
X69623257Y46532610D01*
X69623257Y46532610D02*
X69528019Y46580229D01*
X69528019Y46580229D02*
X69337543Y46580229D01*
X69337543Y46580229D02*
X69242305Y46532610D01*
X69242305Y46532610D02*
X69194686Y46484991D01*
X69194686Y46484991D02*
X69147067Y46389753D01*
X88091311Y37485182D02*
X87757978Y37961373D01*
X87519883Y37485182D02*
X87519883Y38485182D01*
X87519883Y38485182D02*
X87900835Y38485182D01*
X87900835Y38485182D02*
X87996073Y38437563D01*
X87996073Y38437563D02*
X88043692Y38389944D01*
X88043692Y38389944D02*
X88091311Y38294706D01*
X88091311Y38294706D02*
X88091311Y38151849D01*
X88091311Y38151849D02*
X88043692Y38056611D01*
X88043692Y38056611D02*
X87996073Y38008992D01*
X87996073Y38008992D02*
X87900835Y37961373D01*
X87900835Y37961373D02*
X87519883Y37961373D01*
X89043692Y37485182D02*
X88472264Y37485182D01*
X88757978Y37485182D02*
X88757978Y38485182D01*
X88757978Y38485182D02*
X88662740Y38342325D01*
X88662740Y38342325D02*
X88567502Y38247087D01*
X88567502Y38247087D02*
X88472264Y38199468D01*
X89996073Y37485182D02*
X89424645Y37485182D01*
X89710359Y37485182D02*
X89710359Y38485182D01*
X89710359Y38485182D02*
X89615121Y38342325D01*
X89615121Y38342325D02*
X89519883Y38247087D01*
X89519883Y38247087D02*
X89424645Y38199468D01*
X101357647Y17135181D02*
X101357647Y16420896D01*
X101357647Y16420896D02*
X101310028Y16278039D01*
X101310028Y16278039D02*
X101214790Y16182800D01*
X101214790Y16182800D02*
X101071933Y16135181D01*
X101071933Y16135181D02*
X100976695Y16135181D01*
X101738600Y17135181D02*
X102357647Y17135181D01*
X102357647Y17135181D02*
X102024314Y16754229D01*
X102024314Y16754229D02*
X102167171Y16754229D01*
X102167171Y16754229D02*
X102262409Y16706610D01*
X102262409Y16706610D02*
X102310028Y16658991D01*
X102310028Y16658991D02*
X102357647Y16563753D01*
X102357647Y16563753D02*
X102357647Y16325658D01*
X102357647Y16325658D02*
X102310028Y16230420D01*
X102310028Y16230420D02*
X102262409Y16182800D01*
X102262409Y16182800D02*
X102167171Y16135181D01*
X102167171Y16135181D02*
X101881457Y16135181D01*
X101881457Y16135181D02*
X101786219Y16182800D01*
X101786219Y16182800D02*
X101738600Y16230420D01*
X72372914Y54350781D02*
X72039581Y54826972D01*
X71801486Y54350781D02*
X71801486Y55350781D01*
X71801486Y55350781D02*
X72182438Y55350781D01*
X72182438Y55350781D02*
X72277676Y55303162D01*
X72277676Y55303162D02*
X72325295Y55255543D01*
X72325295Y55255543D02*
X72372914Y55160305D01*
X72372914Y55160305D02*
X72372914Y55017448D01*
X72372914Y55017448D02*
X72325295Y54922210D01*
X72325295Y54922210D02*
X72277676Y54874591D01*
X72277676Y54874591D02*
X72182438Y54826972D01*
X72182438Y54826972D02*
X71801486Y54826972D01*
X72944343Y54922210D02*
X72849105Y54969829D01*
X72849105Y54969829D02*
X72801486Y55017448D01*
X72801486Y55017448D02*
X72753867Y55112686D01*
X72753867Y55112686D02*
X72753867Y55160305D01*
X72753867Y55160305D02*
X72801486Y55255543D01*
X72801486Y55255543D02*
X72849105Y55303162D01*
X72849105Y55303162D02*
X72944343Y55350781D01*
X72944343Y55350781D02*
X73134819Y55350781D01*
X73134819Y55350781D02*
X73230057Y55303162D01*
X73230057Y55303162D02*
X73277676Y55255543D01*
X73277676Y55255543D02*
X73325295Y55160305D01*
X73325295Y55160305D02*
X73325295Y55112686D01*
X73325295Y55112686D02*
X73277676Y55017448D01*
X73277676Y55017448D02*
X73230057Y54969829D01*
X73230057Y54969829D02*
X73134819Y54922210D01*
X73134819Y54922210D02*
X72944343Y54922210D01*
X72944343Y54922210D02*
X72849105Y54874591D01*
X72849105Y54874591D02*
X72801486Y54826972D01*
X72801486Y54826972D02*
X72753867Y54731734D01*
X72753867Y54731734D02*
X72753867Y54541258D01*
X72753867Y54541258D02*
X72801486Y54446020D01*
X72801486Y54446020D02*
X72849105Y54398400D01*
X72849105Y54398400D02*
X72944343Y54350781D01*
X72944343Y54350781D02*
X73134819Y54350781D01*
X73134819Y54350781D02*
X73230057Y54398400D01*
X73230057Y54398400D02*
X73277676Y54446020D01*
X73277676Y54446020D02*
X73325295Y54541258D01*
X73325295Y54541258D02*
X73325295Y54731734D01*
X73325295Y54731734D02*
X73277676Y54826972D01*
X73277676Y54826972D02*
X73230057Y54874591D01*
X73230057Y54874591D02*
X73134819Y54922210D01*
X65322361Y48441334D02*
X65369981Y48393715D01*
X65369981Y48393715D02*
X65417600Y48250858D01*
X65417600Y48250858D02*
X65417600Y48155620D01*
X65417600Y48155620D02*
X65369981Y48012763D01*
X65369981Y48012763D02*
X65274742Y47917525D01*
X65274742Y47917525D02*
X65179504Y47869906D01*
X65179504Y47869906D02*
X64989028Y47822287D01*
X64989028Y47822287D02*
X64846171Y47822287D01*
X64846171Y47822287D02*
X64655695Y47869906D01*
X64655695Y47869906D02*
X64560457Y47917525D01*
X64560457Y47917525D02*
X64465219Y48012763D01*
X64465219Y48012763D02*
X64417600Y48155620D01*
X64417600Y48155620D02*
X64417600Y48250858D01*
X64417600Y48250858D02*
X64465219Y48393715D01*
X64465219Y48393715D02*
X64512838Y48441334D01*
X65417600Y48917525D02*
X65417600Y49108001D01*
X65417600Y49108001D02*
X65369981Y49203239D01*
X65369981Y49203239D02*
X65322361Y49250858D01*
X65322361Y49250858D02*
X65179504Y49346096D01*
X65179504Y49346096D02*
X64989028Y49393715D01*
X64989028Y49393715D02*
X64608076Y49393715D01*
X64608076Y49393715D02*
X64512838Y49346096D01*
X64512838Y49346096D02*
X64465219Y49298477D01*
X64465219Y49298477D02*
X64417600Y49203239D01*
X64417600Y49203239D02*
X64417600Y49012763D01*
X64417600Y49012763D02*
X64465219Y48917525D01*
X64465219Y48917525D02*
X64512838Y48869906D01*
X64512838Y48869906D02*
X64608076Y48822287D01*
X64608076Y48822287D02*
X64846171Y48822287D01*
X64846171Y48822287D02*
X64941409Y48869906D01*
X64941409Y48869906D02*
X64989028Y48917525D01*
X64989028Y48917525D02*
X65036647Y49012763D01*
X65036647Y49012763D02*
X65036647Y49203239D01*
X65036647Y49203239D02*
X64989028Y49298477D01*
X64989028Y49298477D02*
X64941409Y49346096D01*
X64941409Y49346096D02*
X64846171Y49393715D01*
X79760051Y38936952D02*
X79426718Y39413143D01*
X79188623Y38936952D02*
X79188623Y39936952D01*
X79188623Y39936952D02*
X79569575Y39936952D01*
X79569575Y39936952D02*
X79664813Y39889333D01*
X79664813Y39889333D02*
X79712432Y39841714D01*
X79712432Y39841714D02*
X79760051Y39746476D01*
X79760051Y39746476D02*
X79760051Y39603619D01*
X79760051Y39603619D02*
X79712432Y39508381D01*
X79712432Y39508381D02*
X79664813Y39460762D01*
X79664813Y39460762D02*
X79569575Y39413143D01*
X79569575Y39413143D02*
X79188623Y39413143D01*
X80712432Y38936952D02*
X80141004Y38936952D01*
X80426718Y38936952D02*
X80426718Y39936952D01*
X80426718Y39936952D02*
X80331480Y39794095D01*
X80331480Y39794095D02*
X80236242Y39698857D01*
X80236242Y39698857D02*
X80141004Y39651238D01*
X81331480Y39936952D02*
X81426718Y39936952D01*
X81426718Y39936952D02*
X81521956Y39889333D01*
X81521956Y39889333D02*
X81569575Y39841714D01*
X81569575Y39841714D02*
X81617194Y39746476D01*
X81617194Y39746476D02*
X81664813Y39556000D01*
X81664813Y39556000D02*
X81664813Y39317905D01*
X81664813Y39317905D02*
X81617194Y39127429D01*
X81617194Y39127429D02*
X81569575Y39032191D01*
X81569575Y39032191D02*
X81521956Y38984571D01*
X81521956Y38984571D02*
X81426718Y38936952D01*
X81426718Y38936952D02*
X81331480Y38936952D01*
X81331480Y38936952D02*
X81236242Y38984571D01*
X81236242Y38984571D02*
X81188623Y39032191D01*
X81188623Y39032191D02*
X81141004Y39127429D01*
X81141004Y39127429D02*
X81093385Y39317905D01*
X81093385Y39317905D02*
X81093385Y39556000D01*
X81093385Y39556000D02*
X81141004Y39746476D01*
X81141004Y39746476D02*
X81188623Y39841714D01*
X81188623Y39841714D02*
X81236242Y39889333D01*
X81236242Y39889333D02*
X81331480Y39936952D01*
X68766114Y50345181D02*
X68432781Y50821372D01*
X68194686Y50345181D02*
X68194686Y51345181D01*
X68194686Y51345181D02*
X68575638Y51345181D01*
X68575638Y51345181D02*
X68670876Y51297562D01*
X68670876Y51297562D02*
X68718495Y51249943D01*
X68718495Y51249943D02*
X68766114Y51154705D01*
X68766114Y51154705D02*
X68766114Y51011848D01*
X68766114Y51011848D02*
X68718495Y50916610D01*
X68718495Y50916610D02*
X68670876Y50868991D01*
X68670876Y50868991D02*
X68575638Y50821372D01*
X68575638Y50821372D02*
X68194686Y50821372D01*
X69670876Y51345181D02*
X69194686Y51345181D01*
X69194686Y51345181D02*
X69147067Y50868991D01*
X69147067Y50868991D02*
X69194686Y50916610D01*
X69194686Y50916610D02*
X69289924Y50964229D01*
X69289924Y50964229D02*
X69528019Y50964229D01*
X69528019Y50964229D02*
X69623257Y50916610D01*
X69623257Y50916610D02*
X69670876Y50868991D01*
X69670876Y50868991D02*
X69718495Y50773753D01*
X69718495Y50773753D02*
X69718495Y50535658D01*
X69718495Y50535658D02*
X69670876Y50440420D01*
X69670876Y50440420D02*
X69623257Y50392800D01*
X69623257Y50392800D02*
X69528019Y50345181D01*
X69528019Y50345181D02*
X69289924Y50345181D01*
X69289924Y50345181D02*
X69194686Y50392800D01*
X69194686Y50392800D02*
X69147067Y50440420D01*
X84972334Y38909097D02*
X84639001Y39385288D01*
X84400906Y38909097D02*
X84400906Y39909097D01*
X84400906Y39909097D02*
X84781858Y39909097D01*
X84781858Y39909097D02*
X84877096Y39861478D01*
X84877096Y39861478D02*
X84924715Y39813859D01*
X84924715Y39813859D02*
X84972334Y39718621D01*
X84972334Y39718621D02*
X84972334Y39575764D01*
X84972334Y39575764D02*
X84924715Y39480526D01*
X84924715Y39480526D02*
X84877096Y39432907D01*
X84877096Y39432907D02*
X84781858Y39385288D01*
X84781858Y39385288D02*
X84400906Y39385288D01*
X85924715Y38909097D02*
X85353287Y38909097D01*
X85639001Y38909097D02*
X85639001Y39909097D01*
X85639001Y39909097D02*
X85543763Y39766240D01*
X85543763Y39766240D02*
X85448525Y39671002D01*
X85448525Y39671002D02*
X85353287Y39623383D01*
X86305668Y39813859D02*
X86353287Y39861478D01*
X86353287Y39861478D02*
X86448525Y39909097D01*
X86448525Y39909097D02*
X86686620Y39909097D01*
X86686620Y39909097D02*
X86781858Y39861478D01*
X86781858Y39861478D02*
X86829477Y39813859D01*
X86829477Y39813859D02*
X86877096Y39718621D01*
X86877096Y39718621D02*
X86877096Y39623383D01*
X86877096Y39623383D02*
X86829477Y39480526D01*
X86829477Y39480526D02*
X86258049Y38909097D01*
X86258049Y38909097D02*
X86877096Y38909097D01*
X93958990Y21420667D02*
X93958990Y21087334D01*
X94482800Y21087334D02*
X93482800Y21087334D01*
X93482800Y21087334D02*
X93482800Y21563524D01*
X93958990Y22277810D02*
X94006609Y22420667D01*
X94006609Y22420667D02*
X94054228Y22468286D01*
X94054228Y22468286D02*
X94149466Y22515905D01*
X94149466Y22515905D02*
X94292323Y22515905D01*
X94292323Y22515905D02*
X94387561Y22468286D01*
X94387561Y22468286D02*
X94435181Y22420667D01*
X94435181Y22420667D02*
X94482800Y22325429D01*
X94482800Y22325429D02*
X94482800Y21944477D01*
X94482800Y21944477D02*
X93482800Y21944477D01*
X93482800Y21944477D02*
X93482800Y22277810D01*
X93482800Y22277810D02*
X93530419Y22373048D01*
X93530419Y22373048D02*
X93578038Y22420667D01*
X93578038Y22420667D02*
X93673276Y22468286D01*
X93673276Y22468286D02*
X93768514Y22468286D01*
X93768514Y22468286D02*
X93863752Y22420667D01*
X93863752Y22420667D02*
X93911371Y22373048D01*
X93911371Y22373048D02*
X93958990Y22277810D01*
X93958990Y22277810D02*
X93958990Y21944477D01*
X94482800Y23468286D02*
X94482800Y22896858D01*
X94482800Y23182572D02*
X93482800Y23182572D01*
X93482800Y23182572D02*
X93625657Y23087334D01*
X93625657Y23087334D02*
X93720895Y22992096D01*
X93720895Y22992096D02*
X93768514Y22896858D01*
X75660647Y42041181D02*
X75660647Y41326896D01*
X75660647Y41326896D02*
X75613028Y41184039D01*
X75613028Y41184039D02*
X75517790Y41088800D01*
X75517790Y41088800D02*
X75374933Y41041181D01*
X75374933Y41041181D02*
X75279695Y41041181D01*
X76660647Y41041181D02*
X76089219Y41041181D01*
X76374933Y41041181D02*
X76374933Y42041181D01*
X76374933Y42041181D02*
X76279695Y41898324D01*
X76279695Y41898324D02*
X76184457Y41803086D01*
X76184457Y41803086D02*
X76089219Y41755467D01*
X81718392Y32741888D02*
X81718392Y32674544D01*
X81718392Y32674544D02*
X81651048Y32539857D01*
X81651048Y32539857D02*
X81583705Y32472514D01*
X81583705Y32472514D02*
X81449018Y32405170D01*
X81449018Y32405170D02*
X81314331Y32405170D01*
X81314331Y32405170D02*
X81213316Y32438842D01*
X81213316Y32438842D02*
X81044957Y32539857D01*
X81044957Y32539857D02*
X80943942Y32640872D01*
X80943942Y32640872D02*
X80842926Y32809231D01*
X80842926Y32809231D02*
X80809255Y32910246D01*
X80809255Y32910246D02*
X80809255Y33044933D01*
X80809255Y33044933D02*
X80876598Y33179620D01*
X80876598Y33179620D02*
X80943942Y33246964D01*
X80943942Y33246964D02*
X81078629Y33314307D01*
X81078629Y33314307D02*
X81145972Y33314307D01*
X82459170Y33347979D02*
X82055109Y32943918D01*
X82257140Y33145949D02*
X81550033Y33853055D01*
X81550033Y33853055D02*
X81583705Y33684697D01*
X81583705Y33684697D02*
X81583705Y33550010D01*
X81583705Y33550010D02*
X81550033Y33448994D01*
X82734392Y31725888D02*
X82734392Y31658544D01*
X82734392Y31658544D02*
X82667048Y31523857D01*
X82667048Y31523857D02*
X82599705Y31456514D01*
X82599705Y31456514D02*
X82465018Y31389170D01*
X82465018Y31389170D02*
X82330331Y31389170D01*
X82330331Y31389170D02*
X82229316Y31422842D01*
X82229316Y31422842D02*
X82060957Y31523857D01*
X82060957Y31523857D02*
X81959942Y31624872D01*
X81959942Y31624872D02*
X81858926Y31793231D01*
X81858926Y31793231D02*
X81825255Y31894246D01*
X81825255Y31894246D02*
X81825255Y32028933D01*
X81825255Y32028933D02*
X81892598Y32163620D01*
X81892598Y32163620D02*
X81959942Y32230964D01*
X81959942Y32230964D02*
X82094629Y32298307D01*
X82094629Y32298307D02*
X82161972Y32298307D01*
X82431346Y32567681D02*
X82431346Y32635025D01*
X82431346Y32635025D02*
X82465018Y32736040D01*
X82465018Y32736040D02*
X82633377Y32904399D01*
X82633377Y32904399D02*
X82734392Y32938071D01*
X82734392Y32938071D02*
X82801735Y32938071D01*
X82801735Y32938071D02*
X82902751Y32904399D01*
X82902751Y32904399D02*
X82970094Y32837055D01*
X82970094Y32837055D02*
X83037438Y32702368D01*
X83037438Y32702368D02*
X83037438Y31894246D01*
X83037438Y31894246D02*
X83475170Y32331979D01*
D12*
%TO.C,R1*%
X79582350Y35173515D02*
X79942584Y35533749D01*
X80321276Y34434589D02*
X80681510Y34794823D01*
%TO.C,C5*%
X74720783Y24267949D02*
X74513930Y24474802D01*
X75442032Y24989198D02*
X75235179Y25196051D01*
%TO.C,JP3*%
X100197181Y37999361D02*
X100197181Y38599361D01*
X100897181Y39299361D02*
X102297181Y39299361D01*
X102297181Y37299361D02*
X100897181Y37299361D01*
X102997181Y38599361D02*
X102997181Y37999361D01*
X100197181Y38599361D02*
G75*
G02*
X100897181Y39299361I700000J0D01*
G01*
X100897181Y37299361D02*
G75*
G02*
X100197181Y37999361I0J700000D01*
G01*
X102297181Y39299361D02*
G75*
G02*
X102997181Y38599361I1J-699999D01*
G01*
X102997181Y37999361D02*
G75*
G02*
X102297181Y37299361I-699999J-1D01*
G01*
%TO.C,JP4*%
X70932366Y49894193D02*
X70932366Y50494193D01*
X71632366Y51194193D02*
X73032366Y51194193D01*
X73032366Y49194193D02*
X71632366Y49194193D01*
X73732366Y50494193D02*
X73732366Y49894193D01*
X70932366Y50494193D02*
G75*
G02*
X71632366Y51194193I699999J1D01*
G01*
X71632366Y49194193D02*
G75*
G02*
X70932366Y49894193I-1J699999D01*
G01*
X73032366Y51194193D02*
G75*
G02*
X73732366Y50494193I0J-700000D01*
G01*
X73732366Y49894193D02*
G75*
G02*
X73032366Y49194193I-700000J0D01*
G01*
%TO.C,J4*%
X100360981Y32330000D02*
X101690981Y32330000D01*
X100360981Y31000000D02*
X100360981Y32330000D01*
X100360981Y29730000D02*
X100360981Y27130000D01*
X100360981Y29730000D02*
X103020981Y29730000D01*
X100360981Y27130000D02*
X103020981Y27130000D01*
X103020981Y29730000D02*
X103020981Y27130000D01*
%TO.C,C11*%
X75631530Y30983598D02*
X75838383Y31190451D01*
X76352779Y30262349D02*
X76559632Y30469202D01*
%TO.C,R7*%
X93810281Y57549524D02*
X93810281Y57040076D01*
X94855281Y57549524D02*
X94855281Y57040076D01*
%TO.C,C10*%
X72637983Y27990051D02*
X72431130Y27783198D01*
X73359232Y27268802D02*
X73152379Y27061949D01*
%TO.C,R9*%
X83776228Y36919220D02*
X83266780Y36919220D01*
X83776228Y35874220D02*
X83266780Y35874220D01*
%TO.C,C7*%
X76014477Y27548983D02*
X75807624Y27342130D01*
X76735726Y26827734D02*
X76528873Y26620881D01*
%TO.C,R4*%
X101851905Y40875500D02*
X101342457Y40875500D01*
X101851905Y39830500D02*
X101342457Y39830500D01*
%TO.C,C4*%
X89018548Y25581421D02*
X89225401Y25788274D01*
X89739797Y24860172D02*
X89946650Y25067025D01*
%TO.C,C6*%
X73578363Y23142780D02*
X73371510Y23349633D01*
X74299612Y23864029D02*
X74092759Y24070882D01*
D11*
%TO.C,Y1*%
X64982936Y29216819D02*
X74557162Y38791045D01*
X66153187Y28045258D02*
X64982936Y29216819D01*
X69048800Y25150955D02*
X67878550Y26322516D01*
X75727412Y37619484D02*
X74557162Y38791045D01*
X77452775Y35896742D02*
X78623026Y34725181D01*
X78623026Y34725181D02*
X69048800Y25150955D01*
D12*
%TO.C,C8*%
X77185886Y26368205D02*
X76979033Y26161352D01*
X77907135Y25646956D02*
X77700282Y25440103D01*
%TO.C,JP5*%
X92877259Y49971871D02*
X92877259Y50571871D01*
X93577259Y51271871D02*
X94977259Y51271871D01*
X94977259Y49271871D02*
X93577259Y49271871D01*
X95677259Y50571871D02*
X95677259Y49971871D01*
X92877259Y50571871D02*
G75*
G02*
X93577259Y51271871I700000J0D01*
G01*
X93577259Y49271871D02*
G75*
G02*
X92877259Y49971871I0J700000D01*
G01*
X94977259Y51271871D02*
G75*
G02*
X95677259Y50571871I1J-699999D01*
G01*
X95677259Y49971871D02*
G75*
G02*
X94977259Y49271871I-699999J-1D01*
G01*
%TO.C,U1*%
X79999093Y25564154D02*
X80334969Y25900030D01*
X80334969Y25228278D02*
X79999093Y25564154D01*
X82647208Y28212269D02*
X82813378Y28378439D01*
X82647208Y22916039D02*
X82983084Y22580163D01*
X82983084Y22580163D02*
X83318960Y22916039D01*
X83318960Y28212269D02*
X83195216Y28336013D01*
X85631199Y25900030D02*
X85967075Y25564154D01*
X85967075Y25564154D02*
X85631199Y25228278D01*
X83386135Y28611784D02*
X82983084Y28548145D01*
X83046724Y28951195D01*
X83386135Y28611784D01*
G36*
X83386135Y28611784D02*
G01*
X82983084Y28548145D01*
X83046724Y28951195D01*
X83386135Y28611784D01*
G37*
%TO.C,SW1*%
X64793981Y44000000D02*
X64793981Y39500000D01*
X67293981Y38250000D02*
X68793981Y38250000D01*
X68793981Y45250000D02*
X67293981Y45250000D01*
X71293981Y39500000D02*
X71293981Y44000000D01*
%TO.C,C3*%
X87924850Y26665318D02*
X88131703Y26872171D01*
X88646099Y25944069D02*
X88852952Y26150922D01*
%TO.C,J2*%
X70549181Y15952000D02*
X70549181Y10752000D01*
X93469181Y15952000D02*
X70549181Y15952000D01*
X93469181Y15952000D02*
X93469181Y13352000D01*
X93469181Y13352000D02*
X96069181Y13352000D01*
X94739181Y15952000D02*
X96069181Y15952000D01*
X96069181Y15952000D02*
X96069181Y14622000D01*
X96069181Y13352000D02*
X96069181Y10752000D01*
X96069181Y10752000D02*
X70549181Y10752000D01*
%TO.C,R3*%
X101342457Y42526500D02*
X101851905Y42526500D01*
X101342457Y41481500D02*
X101851905Y41481500D01*
%TO.C,R6*%
X69187505Y48368500D02*
X68678057Y48368500D01*
X69187505Y47323500D02*
X68678057Y47323500D01*
%TO.C,R11*%
X88977003Y36920134D02*
X88467555Y36920134D01*
X88977003Y35875134D02*
X88467555Y35875134D01*
%TO.C,J3*%
X100360981Y20190000D02*
X100360981Y25330000D01*
X103020981Y25330000D02*
X100360981Y25330000D01*
X103020981Y20190000D02*
X100360981Y20190000D01*
X103020981Y20190000D02*
X103020981Y25330000D01*
X103020981Y18920000D02*
X103020981Y17590000D01*
X103020981Y17590000D02*
X101690981Y17590000D01*
%TO.C,R2*%
X101851905Y34246641D02*
X101342457Y34246641D01*
X101851905Y33201641D02*
X101342457Y33201641D01*
%TO.C,JP2*%
X100197181Y35459361D02*
X100197181Y36059361D01*
X100897181Y36759361D02*
X102297181Y36759361D01*
X102297181Y34759361D02*
X100897181Y34759361D01*
X102997181Y36059361D02*
X102997181Y35459361D01*
X100197181Y36059361D02*
G75*
G02*
X100897181Y36759361I700000J0D01*
G01*
X100897181Y34759361D02*
G75*
G02*
X100197181Y35459361I0J700000D01*
G01*
X102297181Y36759361D02*
G75*
G02*
X102997181Y36059361I1J-699999D01*
G01*
X102997181Y35459361D02*
G75*
G02*
X102297181Y34759361I-699999J-1D01*
G01*
%TO.C,R8*%
X72017081Y57498724D02*
X72017081Y56989276D01*
X73062081Y57498724D02*
X73062081Y56989276D01*
%TO.C,C9*%
X65882781Y48461733D02*
X65882781Y48754267D01*
X66902781Y48461733D02*
X66902781Y48754267D01*
%TO.C,R10*%
X80148185Y38484271D02*
X80657633Y38484271D01*
X80148185Y37439271D02*
X80657633Y37439271D01*
%TO.C,R5*%
X68678057Y49892500D02*
X69187505Y49892500D01*
X68678057Y48847500D02*
X69187505Y48847500D01*
%TO.C,R12*%
X85360468Y38456416D02*
X85869916Y38456416D01*
X85360468Y37411416D02*
X85869916Y37411416D01*
%TO.C,JP1*%
X100197181Y43736000D02*
X100197181Y44336000D01*
X100897181Y45036000D02*
X102297181Y45036000D01*
X102297181Y43036000D02*
X100897181Y43036000D01*
X102997181Y44336000D02*
X102997181Y43736000D01*
X100197181Y44336000D02*
G75*
G02*
X100897181Y45036000I699999J1D01*
G01*
X100897181Y43036000D02*
G75*
G02*
X100197181Y43736000I-1J699999D01*
G01*
X102297181Y45036000D02*
G75*
G02*
X102997181Y44336000I0J-700000D01*
G01*
X102997181Y43736000D02*
G75*
G02*
X102297181Y43036000I-700000J0D01*
G01*
D10*
%TO.C,FB1*%
X94901981Y23524000D02*
X94901981Y22764000D01*
X94901981Y23524000D02*
X95051981Y23674000D01*
X94901981Y20974000D02*
X94901981Y21744000D01*
X95041981Y20824000D02*
X94901981Y20984000D01*
X95051981Y23674000D02*
X96071981Y23674000D01*
X96051981Y20824000D02*
X95041981Y20824000D01*
X96071981Y23674000D02*
X96201981Y23524000D01*
X96201981Y23524000D02*
X96201981Y22764000D01*
X96201981Y20984000D02*
X96051981Y20824000D01*
X96201981Y20974000D02*
X96201981Y21744000D01*
D13*
%TO.C,J1*%
X75243981Y51916400D02*
X75243981Y64216400D01*
X75243981Y42616400D02*
X75243981Y48616400D01*
X91343981Y64216400D02*
X75243981Y64216400D01*
X91343981Y51916400D02*
X91343981Y64216400D01*
X91343981Y42616400D02*
X75243981Y42616400D01*
X91343981Y42616400D02*
X91343981Y48616400D01*
D12*
%TO.C,C1*%
X79394663Y31800331D02*
X79187810Y31593478D01*
X80115912Y31079082D02*
X79909059Y30872229D01*
%TO.C,C2*%
X80472669Y30729625D02*
X80265816Y30522772D01*
X81193918Y30008376D02*
X80987065Y29801523D01*
%TD*%
%LPC*%
D14*
%TO.C,R1*%
X79486695Y34338934D03*
X80777165Y35629404D03*
%TD*%
D15*
%TO.C,C5*%
X75587861Y24122120D03*
X74368101Y25341880D03*
%TD*%
D16*
%TO.C,JP3*%
X102247181Y38299361D03*
D17*
X100947181Y38299361D03*
%TD*%
D18*
%TO.C,H2*%
X100293981Y57000000D03*
%TD*%
D19*
%TO.C,JP4*%
X71682366Y50194193D03*
D20*
X72982366Y50194193D03*
%TD*%
D21*
%TO.C,J4*%
X101690981Y31000000D03*
D22*
X101690981Y28460000D03*
%TD*%
D23*
%TO.C,C11*%
X75485701Y30116520D03*
X76705461Y31336280D03*
%TD*%
D24*
%TO.C,R7*%
X94332781Y58207300D03*
X94332781Y56382300D03*
%TD*%
D25*
%TO.C,C10*%
X73505061Y28135880D03*
X72285301Y26916120D03*
%TD*%
D26*
%TO.C,R9*%
X84434004Y36396720D03*
X82609004Y36396720D03*
%TD*%
D25*
%TO.C,C7*%
X76881555Y27694812D03*
X75661795Y26475052D03*
%TD*%
D18*
%TO.C,H4*%
X66293981Y13000000D03*
%TD*%
D26*
%TO.C,R4*%
X102509681Y40353000D03*
X100684681Y40353000D03*
%TD*%
D23*
%TO.C,C4*%
X88872719Y24714343D03*
X90092479Y25934103D03*
%TD*%
D15*
%TO.C,C6*%
X74445441Y22996951D03*
X73225681Y24216711D03*
%TD*%
D27*
%TO.C,Y1*%
X68621000Y28789019D03*
X74984962Y35152981D03*
%TD*%
D25*
%TO.C,C8*%
X78052964Y26514034D03*
X76833204Y25294274D03*
%TD*%
D16*
%TO.C,JP5*%
X94927259Y50271871D03*
D17*
X93627259Y50271871D03*
%TD*%
D28*
%TO.C,U1*%
X82496948Y27818057D03*
X82143395Y27464503D03*
X81789841Y27110950D03*
X81436288Y26757397D03*
X81082735Y26403843D03*
X80729181Y26050290D03*
D29*
X80729181Y25078018D03*
X81082735Y24724465D03*
X81436288Y24370911D03*
X81789841Y24017358D03*
X82143395Y23663805D03*
X82496948Y23310251D03*
D28*
X83469220Y23310251D03*
X83822773Y23663805D03*
X84176327Y24017358D03*
X84529880Y24370911D03*
X84883433Y24724465D03*
X85236987Y25078018D03*
D29*
X85236987Y26050290D03*
X84883433Y26403843D03*
X84529880Y26757397D03*
X84176327Y27110950D03*
X83822773Y27464503D03*
X83469220Y27818057D03*
D30*
X82983084Y25564154D03*
%TD*%
D31*
%TO.C,SW1*%
X65793981Y38500000D03*
X65793981Y45000000D03*
X70293981Y38500000D03*
X70293981Y45000000D03*
%TD*%
D23*
%TO.C,C3*%
X87779021Y25798240D03*
X88998781Y27018000D03*
%TD*%
D32*
%TO.C,J2*%
X94739181Y14622000D03*
D22*
X94739181Y12082000D03*
X92199181Y14622000D03*
X92199181Y12082000D03*
X89659181Y14622000D03*
X89659181Y12082000D03*
X87119181Y14622000D03*
X87119181Y12082000D03*
X84579181Y14622000D03*
X84579181Y12082000D03*
X82039181Y14622000D03*
X82039181Y12082000D03*
X79499181Y14622000D03*
X79499181Y12082000D03*
X76959181Y14622000D03*
X76959181Y12082000D03*
X74419181Y14622000D03*
X74419181Y12082000D03*
X71879181Y14622000D03*
X71879181Y12082000D03*
%TD*%
D33*
%TO.C,R3*%
X100684681Y42004000D03*
X102509681Y42004000D03*
%TD*%
D26*
%TO.C,R6*%
X69845281Y47846000D03*
X68020281Y47846000D03*
%TD*%
%TO.C,R11*%
X89634779Y36397634D03*
X87809779Y36397634D03*
%TD*%
D34*
%TO.C,J3*%
X101690981Y18920000D03*
D22*
X101690981Y21460000D03*
X101690981Y24000000D03*
%TD*%
D26*
%TO.C,R2*%
X102509681Y33724141D03*
X100684681Y33724141D03*
%TD*%
D16*
%TO.C,JP2*%
X102247181Y35759361D03*
D17*
X100947181Y35759361D03*
%TD*%
D24*
%TO.C,R8*%
X72539581Y58156500D03*
X72539581Y56331500D03*
%TD*%
D18*
%TO.C,H1*%
X66293981Y57000000D03*
%TD*%
D35*
%TO.C,C9*%
X66392781Y47745500D03*
X66392781Y49470500D03*
%TD*%
D33*
%TO.C,R10*%
X79490409Y37961771D03*
X81315409Y37961771D03*
%TD*%
%TO.C,R5*%
X68020281Y49370000D03*
X69845281Y49370000D03*
%TD*%
%TO.C,R12*%
X84702692Y37933916D03*
X86527692Y37933916D03*
%TD*%
D18*
%TO.C,H3*%
X100293981Y13000000D03*
%TD*%
D19*
%TO.C,JP1*%
X100947181Y44036000D03*
D20*
X102247181Y44036000D03*
%TD*%
D36*
%TO.C,FB1*%
X95551981Y21554000D03*
X95551981Y22954000D03*
%TD*%
D37*
%TO.C,J1*%
X89013981Y53296400D03*
X77583981Y53296400D03*
D38*
X87743981Y46946400D03*
D39*
X86473981Y44406400D03*
X85203981Y46946400D03*
X83933981Y44406400D03*
X82663981Y46946400D03*
X81393981Y44406400D03*
X80123981Y46946400D03*
X78853981Y44406400D03*
D40*
X89923981Y58186400D03*
X87383981Y58186400D03*
X79203981Y58186400D03*
X76663981Y58186400D03*
D41*
X91033981Y50246400D03*
X75553981Y50246400D03*
%TD*%
D25*
%TO.C,C1*%
X80261741Y31946160D03*
X79041981Y30726400D03*
%TD*%
%TO.C,C2*%
X81339747Y30875454D03*
X80119987Y29655694D03*
%TD*%
%LPD*%
M02*
