M48
; DRILL file {KiCad 8.0.3} date 2025-10-09T18:02:22+0200
; FORMAT={-:-/ absolute / inch / decimal}
; #@! TF.CreationDate,2025-10-09T18:02:22+02:00
; #@! TF.GenerationSoftware,Kicad,Pcbnew,8.0.3
; #@! TF.FileFunction,Plated,1,4,PTH
FMAT,2
INCH
; #@! TA.AperFunction,Plated,PTH,ViaDrill
T1C0.0098
; #@! TA.AperFunction,Plated,PTH,ComponentDrill
T2C0.0098
; #@! TA.AperFunction,Plated,PTH,ComponentDrill
T3C0.0394
; #@! TA.AperFunction,Plated,PTH,ComponentDrill
T4C0.0394
; #@! TA.AperFunction,Plated,PTH,ComponentDrill
T5C0.0433
; #@! TA.AperFunction,Plated,PTH,ComponentDrill
T6C0.0433
; #@! TA.AperFunction,Plated,PTH,ComponentDrill
T7C0.0709
; #@! TA.AperFunction,Plated,PTH,ComponentDrill
T8C0.1299
%
G90
G05
T1
X2.5889Y2.1331
X2.5889Y2.0331
X2.5889Y1.8331
X2.5889Y1.6331
X2.5889Y1.4331
X2.5889Y1.3331
X2.5889Y1.2331
X2.5889Y1.1331
X2.5889Y1.0331
X2.5889Y0.9331
X2.5889Y0.8331
X2.5889Y0.7331
X2.5889Y0.6331
X2.6819Y1.8387
X2.6889Y2.1331
X2.6889Y2.0331
X2.6889Y0.8331
X2.6889Y0.7331
X2.6889Y0.6331
X2.6889Y0.4331
X2.7889Y2.2331
X2.7889Y2.1331
X2.7889Y2.0331
X2.7889Y1.4331
X2.7889Y1.3331
X2.7889Y1.0331
X2.7889Y0.9331
X2.7889Y0.7331
X2.7889Y0.6331
X2.8088Y1.8897
X2.8889Y2.1331
X2.8889Y2.0331
X2.8889Y1.8331
X2.8889Y1.7331
X2.8889Y1.6331
X2.8889Y1.5331
X2.8889Y1.4331
X2.8889Y1.2331
X2.8889Y0.6331
X2.9039Y0.8657
X2.9039Y0.8137
X2.9889Y1.8331
X2.9889Y1.7331
X2.9889Y1.6331
X2.9889Y1.5331
X2.9889Y0.6331
X2.9989Y1.1187
X3.0269Y0.9187
X3.0839Y1.4977
X3.0889Y1.8331
X3.0889Y1.6331
X3.0889Y1.4331
X3.0889Y0.7331
X3.0889Y0.6331
X3.1279Y1.2917
X3.1673Y0.9157
X3.1824Y1.1092
X3.1889Y2.1331
X3.1889Y2.0331
X3.1889Y1.6331
X3.1889Y1.5331
X3.1889Y1.3331
X3.1889Y0.7331
X3.1889Y0.6331
X3.2154Y1.1252
X3.2436Y1.6719
X3.2889Y2.1331
X3.2889Y2.0331
X3.2889Y1.5331
X3.2889Y0.7331
X3.2889Y0.6331
X3.3648Y0.8966
X3.3889Y1.5331
X3.3889Y1.4331
X3.3889Y1.3331
X3.3889Y1.2331
X3.3889Y0.8331
X3.3889Y0.6331
X3.4486Y1.6687
X3.4889Y1.9331
X3.4889Y1.7331
X3.4889Y1.5331
X3.4889Y1.3331
X3.4889Y1.2331
X3.4889Y0.7331
X3.4889Y0.6331
X3.5519Y0.8997
X3.5699Y1.4337
X3.5889Y2.1331
X3.5889Y1.8331
X3.5889Y1.7331
X3.5889Y1.6331
X3.5889Y1.5331
X3.5889Y1.3331
X3.5889Y1.2331
X3.5889Y0.8331
X3.5889Y0.6331
X3.6889Y2.1331
X3.6889Y2.0331
X3.6889Y1.8331
X3.6889Y1.7331
X3.6889Y1.6331
X3.6889Y1.5331
X3.6889Y1.3331
X3.6889Y1.2331
X3.6889Y1.0331
X3.6889Y0.8331
X3.6889Y0.7331
X3.7889Y2.0331
X3.7889Y1.9331
X3.7889Y1.8331
X3.7889Y1.7331
X3.7889Y1.6331
X3.7889Y1.5331
X3.7889Y1.3331
X3.7889Y1.0331
X3.7889Y0.6331
X3.7889Y0.5331
X3.7889Y0.4331
X3.8119Y0.8837
X3.8169Y1.2387
X3.8329Y1.2077
X3.8399Y1.6312
X3.8404Y1.4623
X3.8633Y0.9457
X3.8685Y1.5877
X3.8889Y0.8331
X3.8889Y0.6331
X3.8889Y0.4331
X3.9371Y1.6908
X3.9416Y1.4608
X3.9889Y2.1331
X3.9889Y2.0331
X3.9889Y1.9331
X3.9889Y1.8331
X3.9889Y1.0331
X3.9889Y0.6331
T2
X3.2114Y1.0065
X3.2392Y1.0343
X3.2392Y0.9786
X3.2671Y1.0621
X3.2671Y1.0065
X3.2671Y0.9508
X3.2949Y1.0343
X3.2949Y0.9786
X3.3227Y1.0065
T3
X3.1045Y1.7483
X3.1545Y1.8483
X3.2045Y1.7483
X3.2545Y1.8483
X3.3045Y1.7483
X3.3545Y1.8483
X3.4045Y1.7483
X3.4545Y1.8483
T4
X2.8299Y0.5757
X2.8299Y0.4757
X2.9299Y0.5757
X2.9299Y0.4757
X3.0299Y0.5757
X3.0299Y0.4757
X3.1299Y0.5757
X3.1299Y0.4757
X3.2299Y0.5757
X3.2299Y0.4757
X3.3299Y0.5757
X3.3299Y0.4757
X3.4299Y0.5757
X3.4299Y0.4757
X3.5299Y0.5757
X3.5299Y0.4757
X3.6299Y0.5757
X3.6299Y0.4757
X3.7299Y0.5757
X3.7299Y0.4757
X4.0036Y1.2205
X4.0036Y1.1205
X4.0036Y0.9449
X4.0036Y0.8449
X4.0036Y0.7449
T5
X2.5903Y1.7717
X2.5903Y1.5157
X2.7675Y1.7717
X2.7675Y1.5157
T6
X3.0183Y2.2908
X3.1183Y2.2908
X3.4403Y2.2908
X3.5403Y2.2908
T7
X2.9746Y1.9782
X3.584Y1.9782
T8
X3.0545Y2.0983
X3.5045Y2.0983
M30
