M48
; DRILL file {KiCad 8.0.8+1} date 2025-10-08T16:03:36+0000
; FORMAT={-:-/ absolute / metric / decimal}
; #@! TF.CreationDate,2025-10-08T16:03:36+00:00
; #@! TF.GenerationSoftware,Kicad,Pcbnew,8.0.8+1
; #@! TF.FileFunction,Plated,1,4,PTH
FMAT,2
METRIC
; #@! TA.AperFunction,Plated,PTH,ComponentDrill
T1C0.200
; #@! TA.AperFunction,Plated,PTH,ViaDrill
T2C0.250
; #@! TA.AperFunction,Plated,PTH,ComponentDrill
T3C1.000
; #@! TA.AperFunction,Plated,PTH,ComponentDrill
T4C1.000
; #@! TA.AperFunction,Plated,PTH,ComponentDrill
T5C1.100
; #@! TA.AperFunction,Plated,PTH,ComponentDrill
T6C1.100
; #@! TA.AperFunction,Plated,PTH,ComponentDrill
T7C1.800
; #@! TA.AperFunction,Plated,PTH,ComponentDrill
T8C3.300
%
G90
G05
T1
X145.569Y-80.436
X146.276Y-79.729
X146.276Y-81.143
X146.983Y-79.022
X146.983Y-80.436
X146.983Y-81.85
X147.69Y-79.729
X147.69Y-81.143
X148.397Y-80.436
T2
X132.12Y-59.297
X140.883Y-82.665
X144.449Y-82.741
X144.833Y-77.826
X145.671Y-77.42
X146.389Y-63.533
X149.466Y-83.226
X151.595Y-63.615
X161.524Y-74.096
X161.858Y-74.822
T3
X142.854Y-61.594
X144.124Y-59.054
X145.394Y-61.594
X146.664Y-59.054
X147.934Y-61.594
X149.204Y-59.054
X150.474Y-61.594
X151.744Y-59.054
T4
X135.879Y-91.378
X135.879Y-93.918
X138.419Y-91.378
X138.419Y-93.918
X140.959Y-91.378
X140.959Y-93.918
X143.499Y-91.378
X143.499Y-93.918
X146.039Y-91.378
X146.039Y-93.918
X148.579Y-91.378
X148.579Y-93.918
X151.119Y-91.378
X151.119Y-93.918
X153.659Y-91.378
X153.659Y-93.918
X156.199Y-91.378
X156.199Y-93.918
X158.739Y-91.378
X158.739Y-93.918
X165.691Y-75.0
X165.691Y-77.54
X165.691Y-82.0
X165.691Y-84.54
X165.691Y-87.08
T5
X129.794Y-61.0
X129.794Y-67.5
X134.294Y-61.0
X134.294Y-67.5
T6
X140.664Y-47.814
X143.204Y-47.814
X151.384Y-47.814
X153.924Y-47.814
T7
X139.554Y-55.754
X155.034Y-55.754
T8
X141.584Y-52.704
X153.014Y-52.704
M30
