M48
; DRILL file {KiCad 8.0.8+1} date 2025-10-08T17:07:19+0000
; FORMAT={-:-/ absolute / metric / decimal}
; #@! TF.CreationDate,2025-10-08T17:07:19+00:00
; #@! TF.GenerationSoftware,Kicad,Pcbnew,8.0.8+1
; #@! TF.FileFunction,Plated,1,4,PTH
FMAT,2
METRIC
; #@! TA.AperFunction,Plated,PTH,ViaDrill
T1C0.250
; #@! TA.AperFunction,Plated,PTH,ComponentDrill
T2C0.250
; #@! TA.AperFunction,Plated,PTH,ComponentDrill
T3C1.000
; #@! TA.AperFunction,Plated,PTH,ComponentDrill
T4C1.000
; #@! TA.AperFunction,Plated,PTH,ComponentDrill
T5C1.100
; #@! TA.AperFunction,Plated,PTH,ComponentDrill
T6C1.100
; #@! TA.AperFunction,Plated,PTH,ComponentDrill
T7C1.800
; #@! TA.AperFunction,Plated,PTH,ComponentDrill
T8C3.300
%
G90
G05
T1
X129.759Y-51.819
X129.759Y-54.359
X129.759Y-59.439
X129.759Y-64.519
X129.759Y-69.599
X129.759Y-72.139
X129.759Y-74.679
X129.759Y-77.219
X129.759Y-79.759
X129.759Y-82.299
X129.759Y-84.839
X129.759Y-87.379
X129.759Y-89.919
X132.12Y-59.297
X132.299Y-51.819
X132.299Y-54.359
X132.299Y-84.839
X132.299Y-87.379
X132.299Y-89.919
X132.299Y-94.999
X134.839Y-49.279
X134.839Y-51.819
X134.839Y-54.359
X134.839Y-69.599
X134.839Y-72.139
X134.839Y-79.759
X134.839Y-82.299
X134.839Y-87.379
X134.839Y-89.919
X135.344Y-58.002
X137.379Y-51.819
X137.379Y-54.359
X137.379Y-59.439
X137.379Y-61.979
X137.379Y-64.519
X137.379Y-67.059
X137.379Y-69.599
X137.379Y-74.679
X137.379Y-89.919
X137.759Y-84.011
X137.759Y-85.332
X139.919Y-59.439
X139.919Y-61.979
X139.919Y-64.519
X139.919Y-67.059
X139.919Y-89.919
X140.172Y-77.585
X140.883Y-82.665
X142.331Y-67.958
X142.459Y-59.439
X142.459Y-64.519
X142.459Y-69.599
X142.459Y-87.379
X142.459Y-89.919
X143.448Y-73.191
X144.449Y-82.741
X144.833Y-77.826
X144.999Y-51.819
X144.999Y-54.359
X144.999Y-64.519
X144.999Y-67.059
X144.999Y-72.139
X144.999Y-87.379
X144.999Y-89.919
X145.671Y-77.42
X146.389Y-63.533
X147.539Y-51.819
X147.539Y-54.359
X147.539Y-67.059
X147.539Y-87.379
X147.539Y-89.919
X149.466Y-83.226
X150.079Y-67.059
X150.079Y-69.599
X150.079Y-72.139
X150.079Y-74.679
X150.079Y-84.839
X150.079Y-89.919
X151.595Y-63.615
X152.619Y-56.899
X152.619Y-61.979
X152.619Y-67.059
X152.619Y-72.139
X152.619Y-74.679
X152.619Y-87.379
X152.619Y-89.919
X154.218Y-83.148
X154.675Y-69.584
X155.159Y-51.819
X155.159Y-59.439
X155.159Y-61.979
X155.159Y-64.519
X155.159Y-67.059
X155.159Y-72.139
X155.159Y-74.679
X155.159Y-84.839
X155.159Y-89.919
X157.699Y-51.819
X157.699Y-54.359
X157.699Y-59.439
X157.699Y-61.979
X157.699Y-64.519
X157.699Y-67.059
X157.699Y-72.139
X157.699Y-74.679
X157.699Y-79.759
X157.699Y-84.839
X157.699Y-87.379
X160.239Y-54.359
X160.239Y-56.899
X160.239Y-59.439
X160.239Y-61.979
X160.239Y-64.519
X160.239Y-67.059
X160.239Y-72.139
X160.239Y-79.759
X160.239Y-89.919
X160.239Y-92.459
X160.239Y-94.999
X160.822Y-83.554
X160.949Y-74.537
X161.356Y-75.325
X162.129Y-81.979
X162.26Y-65.672
X162.779Y-84.839
X162.779Y-89.919
X162.779Y-94.999
X165.319Y-51.819
X165.319Y-54.359
X165.319Y-56.899
X165.319Y-59.439
X165.319Y-79.759
X165.319Y-89.919
T2
X145.569Y-80.436
X146.276Y-79.729
X146.276Y-81.143
X146.983Y-79.022
X146.983Y-80.436
X146.983Y-81.85
X147.69Y-79.729
X147.69Y-81.143
X148.397Y-80.436
T3
X142.854Y-61.594
X144.124Y-59.054
X145.394Y-61.594
X146.664Y-59.054
X147.934Y-61.594
X149.204Y-59.054
X150.474Y-61.594
X151.744Y-59.054
T4
X135.879Y-91.378
X135.879Y-93.918
X138.419Y-91.378
X138.419Y-93.918
X140.959Y-91.378
X140.959Y-93.918
X143.499Y-91.378
X143.499Y-93.918
X146.039Y-91.378
X146.039Y-93.918
X148.579Y-91.378
X148.579Y-93.918
X151.119Y-91.378
X151.119Y-93.918
X153.659Y-91.378
X153.659Y-93.918
X156.199Y-91.378
X156.199Y-93.918
X158.739Y-91.378
X158.739Y-93.918
X165.691Y-75.0
X165.691Y-77.54
X165.691Y-82.0
X165.691Y-84.54
X165.691Y-87.08
T5
X129.794Y-61.0
X129.794Y-67.5
X134.294Y-61.0
X134.294Y-67.5
T6
X140.664Y-47.814
X143.204Y-47.814
X151.384Y-47.814
X153.924Y-47.814
T7
X139.554Y-55.754
X155.034Y-55.754
T8
X141.584Y-52.704
X153.014Y-52.704
M30
