%TF.GenerationSoftware,KiCad,Pcbnew,8.0.8+1*%
%TF.CreationDate,Date%
%TF.ProjectId,LAN8742A-breakout,4c414e38-3734-4324-912d-627265616b6f,+ (Unreleased)*%
%TF.SameCoordinates,Original*%
%TF.FileFunction,Legend,Bot*%
%TF.FilePolarity,Positive*%
%FSLAX46Y46*%
G04 Gerber Fmt 4.6, Leading zero omitted, Abs format (unit mm)*
G04 Created by KiCad*
%MOMM*%
%LPD*%
G01*
G04 APERTURE LIST*
G04 Aperture macros list*
%AMRoundRect*
0 Rectangle with rounded corners*
0 $1 Rounding radius*
0 $2 $3 $4 $5 $6 $7 $8 $9 X,Y pos of 4 corners*
0 Add a 4 corners polygon primitive as box body*
4,1,4,$2,$3,$4,$5,$6,$7,$8,$9,$2,$3,0*
0 Add four circle primitives for the rounded corners*
1,1,$1+$1,$2,$3*
1,1,$1+$1,$4,$5*
1,1,$1+$1,$6,$7*
1,1,$1+$1,$8,$9*
0 Add four rect primitives between the rounded corners*
20,1,$1+$1,$2,$3,$4,$5,0*
20,1,$1+$1,$4,$5,$6,$7,0*
20,1,$1+$1,$6,$7,$8,$9,0*
20,1,$1+$1,$8,$9,$2,$3,0*%
G04 Aperture macros list end*
%ADD10C,3.300000*%
%ADD11RoundRect,0.050000X-0.850000X-0.850000X0.850000X-0.850000X0.850000X0.850000X-0.850000X0.850000X0*%
%ADD12O,1.800000X1.800000*%
%ADD13C,2.100000*%
%ADD14RoundRect,0.050000X-0.850000X0.850000X-0.850000X-0.850000X0.850000X-0.850000X0.850000X0.850000X0*%
%ADD15RoundRect,0.050000X0.850000X0.850000X-0.850000X0.850000X-0.850000X-0.850000X0.850000X-0.850000X0*%
%ADD16C,3.400000*%
%ADD17RoundRect,0.050000X0.800000X0.800000X-0.800000X0.800000X-0.800000X-0.800000X0.800000X-0.800000X0*%
%ADD18C,1.700000*%
%ADD19C,1.900000*%
%ADD20C,2.600000*%
G04 APERTURE END LIST*
%LPC*%
D10*
%TO.C,H2*%
X164293981Y-49000000D03*
%TD*%
D11*
%TO.C,J4*%
X165690981Y-75000000D03*
D12*
X165690981Y-77540000D03*
%TD*%
D10*
%TO.C,H4*%
X130293981Y-93000000D03*
%TD*%
D13*
%TO.C,SW1*%
X129793981Y-67500000D03*
X129793981Y-61000000D03*
X134293981Y-67500000D03*
X134293981Y-61000000D03*
%TD*%
D14*
%TO.C,J2*%
X158739181Y-91378000D03*
D12*
X158739181Y-93918000D03*
X156199181Y-91378000D03*
X156199181Y-93918000D03*
X153659181Y-91378000D03*
X153659181Y-93918000D03*
X151119181Y-91378000D03*
X151119181Y-93918000D03*
X148579181Y-91378000D03*
X148579181Y-93918000D03*
X146039181Y-91378000D03*
X146039181Y-93918000D03*
X143499181Y-91378000D03*
X143499181Y-93918000D03*
X140959181Y-91378000D03*
X140959181Y-93918000D03*
X138419181Y-91378000D03*
X138419181Y-93918000D03*
X135879181Y-91378000D03*
X135879181Y-93918000D03*
%TD*%
D15*
%TO.C,J3*%
X165690981Y-87080000D03*
D12*
X165690981Y-84540000D03*
X165690981Y-82000000D03*
%TD*%
D10*
%TO.C,H1*%
X130293981Y-49000000D03*
%TD*%
%TO.C,H3*%
X164293981Y-93000000D03*
%TD*%
D16*
%TO.C,J1*%
X153013981Y-52703600D03*
X141583981Y-52703600D03*
D17*
X151743981Y-59053600D03*
D18*
X150473981Y-61593600D03*
X149203981Y-59053600D03*
X147933981Y-61593600D03*
X146663981Y-59053600D03*
X145393981Y-61593600D03*
X144123981Y-59053600D03*
X142853981Y-61593600D03*
D19*
X153923981Y-47813600D03*
X151383981Y-47813600D03*
X143203981Y-47813600D03*
X140663981Y-47813600D03*
D20*
X155033981Y-55753600D03*
X139553981Y-55753600D03*
%TD*%
%LPD*%
M02*
