%TF.GenerationSoftware,KiCad,Pcbnew,8.0.8+1*%
%TF.CreationDate,Date%
%TF.ProjectId,LAN8742A-breakout,4c414e38-3734-4324-912d-627265616b6f,+ (Unreleased)*%
%TF.SameCoordinates,Original*%
%TF.FileFunction,Legend,Bot*%
%TF.FilePolarity,Positive*%
%FSLAX46Y46*%
G04 Gerber Fmt 4.6, Leading zero omitted, Abs format (unit mm)*
G04 Created by KiCad*
%MOMM*%
%LPD*%
G01*
G04 APERTURE LIST*
G04 Aperture macros list*
%AMRoundRect*
0 Rectangle with rounded corners*
0 $1 Rounding radius*
0 $2 $3 $4 $5 $6 $7 $8 $9 X,Y pos of 4 corners*
0 Add a 4 corners polygon primitive as box body*
4,1,4,$2,$3,$4,$5,$6,$7,$8,$9,$2,$3,0*
0 Add four circle primitives for the rounded corners*
1,1,$1+$1,$2,$3*
1,1,$1+$1,$4,$5*
1,1,$1+$1,$6,$7*
1,1,$1+$1,$8,$9*
0 Add four rect primitives between the rounded corners*
20,1,$1+$1,$2,$3,$4,$5,0*
20,1,$1+$1,$4,$5,$6,$7,0*
20,1,$1+$1,$6,$7,$8,$9,0*
20,1,$1+$1,$8,$9,$2,$3,0*%
G04 Aperture macros list end*
%ADD10C,0.150000*%
%ADD11C,0.300000*%
%ADD12C,0.000000*%
%ADD13C,3.300000*%
%ADD14RoundRect,0.050000X-0.850000X-0.850000X0.850000X-0.850000X0.850000X0.850000X-0.850000X0.850000X0*%
%ADD15O,1.800000X1.800000*%
%ADD16C,2.100000*%
%ADD17RoundRect,0.050000X-0.850000X0.850000X-0.850000X-0.850000X0.850000X-0.850000X0.850000X0.850000X0*%
%ADD18RoundRect,0.050000X0.850000X0.850000X-0.850000X0.850000X-0.850000X-0.850000X0.850000X-0.850000X0*%
%ADD19C,3.400000*%
%ADD20RoundRect,0.050000X0.800000X0.800000X-0.800000X0.800000X-0.800000X-0.800000X0.800000X-0.800000X0*%
%ADD21C,1.700000*%
%ADD22C,1.900000*%
%ADD23C,2.600000*%
G04 APERTURE END LIST*
D10*
X129014002Y-81960091D02*
X128014002Y-81960091D01*
X128394954Y-81960091D02*
X128347335Y-82055329D01*
X128347335Y-82055329D02*
X128347335Y-82245805D01*
X128347335Y-82245805D02*
X128394954Y-82341043D01*
X128394954Y-82341043D02*
X128442573Y-82388662D01*
X128442573Y-82388662D02*
X128537811Y-82436281D01*
X128537811Y-82436281D02*
X128823525Y-82436281D01*
X128823525Y-82436281D02*
X128918763Y-82388662D01*
X128918763Y-82388662D02*
X128966383Y-82341043D01*
X128966383Y-82341043D02*
X129014002Y-82245805D01*
X129014002Y-82245805D02*
X129014002Y-82055329D01*
X129014002Y-82055329D02*
X128966383Y-81960091D01*
X128347335Y-82769615D02*
X129014002Y-83007710D01*
X128347335Y-83245805D02*
X129014002Y-83007710D01*
X129014002Y-83007710D02*
X129252097Y-82912472D01*
X129252097Y-82912472D02*
X129299716Y-82864853D01*
X129299716Y-82864853D02*
X129347335Y-82769615D01*
X128014002Y-84245806D02*
X128014002Y-84817234D01*
X129014002Y-84531520D02*
X128014002Y-84531520D01*
X129014002Y-85150568D02*
X128347335Y-85150568D01*
X128537811Y-85150568D02*
X128442573Y-85198187D01*
X128442573Y-85198187D02*
X128394954Y-85245806D01*
X128394954Y-85245806D02*
X128347335Y-85341044D01*
X128347335Y-85341044D02*
X128347335Y-85436282D01*
X129014002Y-85912473D02*
X128966383Y-85817235D01*
X128966383Y-85817235D02*
X128918763Y-85769616D01*
X128918763Y-85769616D02*
X128823525Y-85721997D01*
X128823525Y-85721997D02*
X128537811Y-85721997D01*
X128537811Y-85721997D02*
X128442573Y-85769616D01*
X128442573Y-85769616D02*
X128394954Y-85817235D01*
X128394954Y-85817235D02*
X128347335Y-85912473D01*
X128347335Y-85912473D02*
X128347335Y-86055330D01*
X128347335Y-86055330D02*
X128394954Y-86150568D01*
X128394954Y-86150568D02*
X128442573Y-86198187D01*
X128442573Y-86198187D02*
X128537811Y-86245806D01*
X128537811Y-86245806D02*
X128823525Y-86245806D01*
X128823525Y-86245806D02*
X128918763Y-86198187D01*
X128918763Y-86198187D02*
X128966383Y-86150568D01*
X128966383Y-86150568D02*
X129014002Y-86055330D01*
X129014002Y-86055330D02*
X129014002Y-85912473D01*
X128347335Y-86674378D02*
X129347335Y-86674378D01*
X128394954Y-86674378D02*
X128347335Y-86769616D01*
X128347335Y-86769616D02*
X128347335Y-86960092D01*
X128347335Y-86960092D02*
X128394954Y-87055330D01*
X128394954Y-87055330D02*
X128442573Y-87102949D01*
X128442573Y-87102949D02*
X128537811Y-87150568D01*
X128537811Y-87150568D02*
X128823525Y-87150568D01*
X128823525Y-87150568D02*
X128918763Y-87102949D01*
X128918763Y-87102949D02*
X128966383Y-87055330D01*
X128966383Y-87055330D02*
X129014002Y-86960092D01*
X129014002Y-86960092D02*
X129014002Y-86769616D01*
X129014002Y-86769616D02*
X128966383Y-86674378D01*
X129014002Y-87579140D02*
X128347335Y-87579140D01*
X128014002Y-87579140D02*
X128061621Y-87531521D01*
X128061621Y-87531521D02*
X128109240Y-87579140D01*
X128109240Y-87579140D02*
X128061621Y-87626759D01*
X128061621Y-87626759D02*
X128014002Y-87579140D01*
X128014002Y-87579140D02*
X128109240Y-87579140D01*
X129014002Y-88055330D02*
X128014002Y-88055330D01*
X128633049Y-88150568D02*
X129014002Y-88436282D01*
X128347335Y-88436282D02*
X128728287Y-88055330D01*
X128966383Y-89245806D02*
X129014002Y-89150568D01*
X129014002Y-89150568D02*
X129014002Y-88960092D01*
X129014002Y-88960092D02*
X128966383Y-88864854D01*
X128966383Y-88864854D02*
X128871144Y-88817235D01*
X128871144Y-88817235D02*
X128490192Y-88817235D01*
X128490192Y-88817235D02*
X128394954Y-88864854D01*
X128394954Y-88864854D02*
X128347335Y-88960092D01*
X128347335Y-88960092D02*
X128347335Y-89150568D01*
X128347335Y-89150568D02*
X128394954Y-89245806D01*
X128394954Y-89245806D02*
X128490192Y-89293425D01*
X128490192Y-89293425D02*
X128585430Y-89293425D01*
X128585430Y-89293425D02*
X128680668Y-88817235D01*
X128347335Y-89721997D02*
X129204478Y-89721997D01*
X129204478Y-89721997D02*
X129299716Y-89674378D01*
X129299716Y-89674378D02*
X129347335Y-89579140D01*
X129347335Y-89579140D02*
X129347335Y-89531521D01*
X128014002Y-89721997D02*
X128061621Y-89674378D01*
X128061621Y-89674378D02*
X128109240Y-89721997D01*
X128109240Y-89721997D02*
X128061621Y-89769616D01*
X128061621Y-89769616D02*
X128014002Y-89721997D01*
X128014002Y-89721997D02*
X128109240Y-89721997D01*
D11*
X148588207Y-69375537D02*
X148731065Y-69304108D01*
X148731065Y-69304108D02*
X148945350Y-69304108D01*
X148945350Y-69304108D02*
X149159636Y-69375537D01*
X149159636Y-69375537D02*
X149302493Y-69518394D01*
X149302493Y-69518394D02*
X149373922Y-69661251D01*
X149373922Y-69661251D02*
X149445350Y-69946965D01*
X149445350Y-69946965D02*
X149445350Y-70161251D01*
X149445350Y-70161251D02*
X149373922Y-70446965D01*
X149373922Y-70446965D02*
X149302493Y-70589822D01*
X149302493Y-70589822D02*
X149159636Y-70732680D01*
X149159636Y-70732680D02*
X148945350Y-70804108D01*
X148945350Y-70804108D02*
X148802493Y-70804108D01*
X148802493Y-70804108D02*
X148588207Y-70732680D01*
X148588207Y-70732680D02*
X148516779Y-70661251D01*
X148516779Y-70661251D02*
X148516779Y-70161251D01*
X148516779Y-70161251D02*
X148802493Y-70161251D01*
X147659636Y-69304108D02*
X147659636Y-69661251D01*
X148016779Y-69518394D02*
X147659636Y-69661251D01*
X147659636Y-69661251D02*
X147302493Y-69518394D01*
X147873922Y-69946965D02*
X147659636Y-69661251D01*
X147659636Y-69661251D02*
X147445350Y-69946965D01*
X146516779Y-69304108D02*
X146516779Y-69661251D01*
X146873922Y-69518394D02*
X146516779Y-69661251D01*
X146516779Y-69661251D02*
X146159636Y-69518394D01*
X146731065Y-69946965D02*
X146516779Y-69661251D01*
X146516779Y-69661251D02*
X146302493Y-69946965D01*
X145373922Y-69304108D02*
X145373922Y-69661251D01*
X145731065Y-69518394D02*
X145373922Y-69661251D01*
X145373922Y-69661251D02*
X145016779Y-69518394D01*
X145588208Y-69946965D02*
X145373922Y-69661251D01*
X145373922Y-69661251D02*
X145159636Y-69946965D01*
D12*
%TO.C,G\u002A\u002A\u002A*%
G36*
X145061635Y-67553111D02*
G01*
X145020799Y-67593947D01*
X144979963Y-67553111D01*
X145020799Y-67512275D01*
X145061635Y-67553111D01*
G37*
G36*
X147593468Y-82907452D02*
G01*
X147552632Y-82948288D01*
X147511796Y-82907452D01*
X147552632Y-82866616D01*
X147593468Y-82907452D01*
G37*
G36*
X148736877Y-47706809D02*
G01*
X148696041Y-47747645D01*
X148655205Y-47706809D01*
X148696041Y-47665973D01*
X148736877Y-47706809D01*
G37*
G36*
X150778677Y-81519027D02*
G01*
X150737841Y-81559863D01*
X150697005Y-81519027D01*
X150737841Y-81478191D01*
X150778677Y-81519027D01*
G37*
G36*
X150697005Y-81723207D02*
G01*
X150691111Y-81766444D01*
X150642557Y-81777655D01*
X150632783Y-81765685D01*
X150642557Y-81668759D01*
X150667123Y-81655982D01*
X150697005Y-81723207D01*
G37*
G36*
X139719575Y-59447813D02*
G01*
X139735155Y-59523271D01*
X139702159Y-59686023D01*
X139636450Y-59875940D01*
X139606430Y-59685166D01*
X139600297Y-59538859D01*
X139641110Y-59431316D01*
X139719575Y-59447813D01*
G37*
G36*
X139711696Y-62212025D02*
G01*
X139794475Y-62294573D01*
X139777957Y-62396382D01*
X139752528Y-62418556D01*
X139639767Y-62438738D01*
X139589610Y-62326101D01*
X139598256Y-62269816D01*
X139666462Y-62203593D01*
X139711696Y-62212025D01*
G37*
G36*
X139722207Y-60267166D02*
G01*
X139739727Y-60320539D01*
X139709568Y-60464540D01*
X139685654Y-60518251D01*
X139644341Y-60566507D01*
X139610587Y-60461670D01*
X139600621Y-60347008D01*
X139641457Y-60249017D01*
X139722207Y-60267166D01*
G37*
G36*
X139693587Y-59075937D02*
G01*
X139752954Y-59186548D01*
X139750616Y-59204782D01*
X139671282Y-59263400D01*
X139632251Y-59247817D01*
X139589610Y-59136072D01*
X139601362Y-59077735D01*
X139671282Y-59059220D01*
X139693587Y-59075937D01*
G37*
G36*
X139646289Y-61631889D02*
G01*
X139683158Y-61704010D01*
X139811363Y-61851053D01*
X139870019Y-61918979D01*
X139881025Y-62031248D01*
X139823729Y-62087425D01*
X139717646Y-62074153D01*
X139629760Y-61955874D01*
X139596057Y-61766077D01*
X139597204Y-61734992D01*
X139615615Y-61615631D01*
X139646289Y-61631889D01*
G37*
G36*
X139767815Y-76723406D02*
G01*
X139807344Y-76792836D01*
X139843349Y-76991778D01*
X139841003Y-77232835D01*
X139803119Y-77448440D01*
X139732512Y-77571028D01*
X139670829Y-77567004D01*
X139630139Y-77443733D01*
X139605676Y-77178631D01*
X139598073Y-76929283D01*
X139616327Y-76727045D01*
X139671356Y-76662775D01*
X139767815Y-76723406D01*
G37*
G36*
X139912148Y-60571714D02*
G01*
X139994806Y-60615663D01*
X139961324Y-60699985D01*
X139827705Y-60776529D01*
X139706466Y-60855790D01*
X139703709Y-61014924D01*
X139719442Y-61141526D01*
X139690213Y-61259978D01*
X139677205Y-61265907D01*
X139634419Y-61194534D01*
X139604376Y-61014982D01*
X139608554Y-60812539D01*
X139699977Y-60632061D01*
X139895880Y-60571403D01*
X139912148Y-60571714D01*
G37*
G36*
X153594757Y-68267221D02*
G01*
X153437616Y-68515757D01*
X153246940Y-68746390D01*
X153057930Y-68916227D01*
X152905786Y-68982371D01*
X152754867Y-69025347D01*
X152600815Y-69201177D01*
X152520496Y-69486036D01*
X152497496Y-69589467D01*
X152396189Y-69839796D01*
X152248474Y-70098056D01*
X152157966Y-70240604D01*
X152047062Y-70447855D01*
X152003758Y-70579070D01*
X152001389Y-70599565D01*
X151939814Y-70658250D01*
X151773254Y-70688747D01*
X151472889Y-70697484D01*
X151211444Y-70705589D01*
X151016521Y-70727952D01*
X150942021Y-70759572D01*
X150940848Y-70767632D01*
X150877146Y-70875598D01*
X150746149Y-71032900D01*
X150573052Y-71256868D01*
X150356730Y-71604570D01*
X150141465Y-72006181D01*
X149955419Y-72408808D01*
X149826757Y-72759557D01*
X149773092Y-72927024D01*
X149681891Y-73162972D01*
X149606518Y-73304143D01*
X149569073Y-73370829D01*
X149628344Y-73393368D01*
X149819546Y-73370448D01*
X149825766Y-73369452D01*
X150032678Y-73351649D01*
X150151728Y-73406082D01*
X150251661Y-73563454D01*
X150260100Y-73580147D01*
X150328555Y-73763347D01*
X150331487Y-73879448D01*
X150320853Y-73910541D01*
X150372951Y-74006828D01*
X150415171Y-74054000D01*
X150369311Y-74169757D01*
X150328958Y-74234848D01*
X150301585Y-74387084D01*
X150301777Y-74388024D01*
X150274824Y-74528179D01*
X150179534Y-74712386D01*
X150077183Y-74913932D01*
X150024174Y-75120746D01*
X149975913Y-75312478D01*
X149865345Y-75528741D01*
X149862201Y-75533353D01*
X149759501Y-75707264D01*
X149716941Y-75825011D01*
X149700109Y-75880067D01*
X149600817Y-76000867D01*
X149574635Y-76029485D01*
X149490148Y-76202252D01*
X149428853Y-76439645D01*
X149416800Y-76501162D01*
X149327898Y-76764041D01*
X149207956Y-76961656D01*
X149105904Y-77119843D01*
X149087949Y-77258661D01*
X149077363Y-77359750D01*
X148993680Y-77559611D01*
X148853266Y-77800814D01*
X148728034Y-78005863D01*
X148616499Y-78225945D01*
X148573533Y-78365448D01*
X148561742Y-78442462D01*
X148471442Y-78608834D01*
X148457716Y-78623355D01*
X148422226Y-78720326D01*
X148523860Y-78826403D01*
X148633517Y-78900632D01*
X148760170Y-78967735D01*
X148796277Y-79016362D01*
X148748367Y-79169904D01*
X148702809Y-79286425D01*
X148736656Y-79395418D01*
X148742745Y-79399943D01*
X148796482Y-79520474D01*
X148818549Y-79722243D01*
X148818774Y-79742941D01*
X148844595Y-79940131D01*
X148900221Y-80048931D01*
X148936724Y-80085328D01*
X148981893Y-80229804D01*
X148984166Y-80252765D01*
X149048743Y-80416068D01*
X149174523Y-80612926D01*
X149245484Y-80726319D01*
X149367705Y-81008058D01*
X149453294Y-81314847D01*
X149486158Y-81469402D01*
X149578499Y-81824929D01*
X149677349Y-82131567D01*
X149712224Y-82232430D01*
X149759900Y-82434136D01*
X149782169Y-82674955D01*
X149782052Y-82749369D01*
X149781664Y-82995984D01*
X149761016Y-83438320D01*
X149747360Y-83637680D01*
X149738768Y-83763106D01*
X149702728Y-84158405D01*
X149662911Y-84488438D01*
X149648763Y-84568116D01*
X149624594Y-84704236D01*
X149567276Y-84927184D01*
X149453070Y-85356863D01*
X149324064Y-85830253D01*
X149198677Y-86280031D01*
X149095325Y-86638875D01*
X149062061Y-86758372D01*
X149004618Y-87010694D01*
X148981893Y-87185341D01*
X148968098Y-87284567D01*
X148900221Y-87399413D01*
X148845406Y-87491750D01*
X148818549Y-87674475D01*
X148791075Y-87853450D01*
X148698638Y-88057597D01*
X148620407Y-88215740D01*
X148576130Y-88448267D01*
X148529511Y-88664618D01*
X148410188Y-88888060D01*
X148295349Y-89077136D01*
X148246844Y-89243989D01*
X148230822Y-89327703D01*
X148130138Y-89457573D01*
X148075264Y-89496339D01*
X147997845Y-89604558D01*
X147980322Y-89678944D01*
X147842389Y-90016050D01*
X147623831Y-90360597D01*
X147587600Y-90409882D01*
X147458117Y-90618548D01*
X147390890Y-90780482D01*
X147334429Y-90961847D01*
X147160523Y-91207854D01*
X146919674Y-91334900D01*
X146765179Y-91386271D01*
X146695076Y-91452387D01*
X146676033Y-91488683D01*
X146558581Y-91523850D01*
X146445603Y-91551169D01*
X146275771Y-91656264D01*
X146272782Y-91658939D01*
X146126063Y-91737588D01*
X145991379Y-91740657D01*
X145917761Y-91681048D01*
X145954238Y-91571662D01*
X146005839Y-91481534D01*
X145943018Y-91422566D01*
X145932489Y-91418799D01*
X145883193Y-91361658D01*
X145955731Y-91243905D01*
X146012717Y-91178326D01*
X146089766Y-91146004D01*
X146179485Y-91245079D01*
X146259051Y-91333350D01*
X146326870Y-91336724D01*
X146336229Y-91209751D01*
X146281630Y-90967379D01*
X146276956Y-90951690D01*
X146226867Y-90730797D01*
X146250067Y-90573206D01*
X146357642Y-90395534D01*
X146376585Y-90368186D01*
X146486756Y-90172670D01*
X146531732Y-90025548D01*
X146539950Y-89967204D01*
X146618125Y-89846656D01*
X146672752Y-89788516D01*
X146791016Y-89590464D01*
X146937062Y-89289678D01*
X147096677Y-88918093D01*
X147255648Y-88507646D01*
X147399764Y-88090270D01*
X147388729Y-88015693D01*
X147251372Y-87859676D01*
X146965574Y-87647946D01*
X146586580Y-87396242D01*
X146170018Y-87125352D01*
X145849838Y-86929418D01*
X145603881Y-86798435D01*
X145409985Y-86722396D01*
X145245989Y-86691294D01*
X145089732Y-86695125D01*
X144919054Y-86723881D01*
X144682605Y-86762377D01*
X144321227Y-86803138D01*
X143959063Y-86828785D01*
X143952518Y-86829081D01*
X143549788Y-86864501D01*
X143228240Y-86926102D01*
X143015243Y-87006642D01*
X142938163Y-87098881D01*
X142968911Y-87185929D01*
X143134799Y-87341425D01*
X143424592Y-87507119D01*
X143815754Y-87670938D01*
X144285751Y-87820810D01*
X144420120Y-87856246D01*
X144810114Y-87946284D01*
X145239627Y-88031860D01*
X145659167Y-88104172D01*
X146019240Y-88154417D01*
X146270354Y-88173792D01*
X146521825Y-88209424D01*
X146784960Y-88302052D01*
X146879401Y-88355762D01*
X146983278Y-88465714D01*
X146974938Y-88608322D01*
X146938165Y-88721902D01*
X146909528Y-88793527D01*
X146887911Y-88804420D01*
X146671315Y-88872560D01*
X146358339Y-88932733D01*
X146006783Y-88975648D01*
X145674446Y-88992018D01*
X145650404Y-88991919D01*
X145322040Y-88977332D01*
X144932035Y-88941872D01*
X144517806Y-88891130D01*
X144116766Y-88830698D01*
X143766332Y-88766168D01*
X143503918Y-88703130D01*
X143366941Y-88647176D01*
X143360158Y-88641758D01*
X143285883Y-88624445D01*
X143264851Y-88749538D01*
X143280128Y-88854281D01*
X143348298Y-89072273D01*
X143451463Y-89323819D01*
X143567887Y-89561815D01*
X143675836Y-89739156D01*
X143753575Y-89808738D01*
X143760600Y-89809832D01*
X143825551Y-89896023D01*
X143879626Y-90077779D01*
X143950445Y-90273547D01*
X144107925Y-90424885D01*
X144222287Y-90513602D01*
X144311017Y-90721571D01*
X144355221Y-90885715D01*
X144453943Y-91037842D01*
X144513443Y-91108769D01*
X144571603Y-91291398D01*
X144571642Y-91295963D01*
X144638313Y-91451228D01*
X144795632Y-91511300D01*
X144989674Y-91455068D01*
X145118392Y-91382704D01*
X145204295Y-91378288D01*
X145224979Y-91483014D01*
X145236694Y-91523850D01*
X145242439Y-91543878D01*
X145356225Y-91605522D01*
X145425701Y-91622954D01*
X145441290Y-91725870D01*
X145439304Y-91807164D01*
X145533961Y-91923925D01*
X145602600Y-91981964D01*
X145606655Y-92067791D01*
X145605501Y-92068896D01*
X145515676Y-92056713D01*
X145393944Y-91939662D01*
X145338206Y-91875659D01*
X145203953Y-91799328D01*
X145118400Y-91848872D01*
X145119664Y-92013964D01*
X145154515Y-92109571D01*
X145214087Y-92177389D01*
X145214593Y-92177402D01*
X145255874Y-92250220D01*
X145282946Y-92422405D01*
X145300076Y-92667259D01*
X144574980Y-92667259D01*
X143849884Y-92667259D01*
X143509867Y-92340571D01*
X143358968Y-92202392D01*
X143190260Y-92066470D01*
X143094842Y-92013882D01*
X143054156Y-91992397D01*
X143011475Y-91870956D01*
X143007860Y-91846510D01*
X142978153Y-91866323D01*
X142931057Y-92013882D01*
X142927361Y-92029015D01*
X142891741Y-92277831D01*
X142900137Y-92483497D01*
X142913259Y-92571783D01*
X142878788Y-92635949D01*
X142753496Y-92662212D01*
X142501153Y-92667259D01*
X142061031Y-92667259D01*
X142064299Y-91458729D01*
X142873286Y-91458729D01*
X142884073Y-91625940D01*
X142912432Y-91639794D01*
X142925267Y-91523850D01*
X142913883Y-91411500D01*
X142884073Y-91421760D01*
X142873286Y-91458729D01*
X142064299Y-91458729D01*
X142084494Y-83989606D01*
X142087762Y-82955335D01*
X142091041Y-82163400D01*
X144262796Y-82163400D01*
X144303665Y-82497509D01*
X144395770Y-82853767D01*
X144528088Y-83183572D01*
X144689596Y-83438320D01*
X144747509Y-83526337D01*
X144855250Y-83799841D01*
X144944303Y-84173368D01*
X144982610Y-84355347D01*
X145073382Y-84688376D01*
X145179995Y-84999351D01*
X145285947Y-85242343D01*
X145374737Y-85371425D01*
X145443476Y-85421810D01*
X145549508Y-85465669D01*
X145651566Y-85415192D01*
X145804772Y-85255522D01*
X145833157Y-85223090D01*
X146025108Y-84962925D01*
X146197058Y-84669366D01*
X146249278Y-84553816D01*
X147708532Y-84553816D01*
X147773364Y-84637475D01*
X147850697Y-84694586D01*
X148033406Y-84786838D01*
X148134231Y-84745390D01*
X148165172Y-84568116D01*
X148110034Y-84454408D01*
X147962060Y-84420693D01*
X147773364Y-84488098D01*
X147708532Y-84553816D01*
X146249278Y-84553816D01*
X146320865Y-84395412D01*
X146368388Y-84194063D01*
X146374313Y-84146818D01*
X146445880Y-83953650D01*
X146572568Y-83731942D01*
X146600840Y-83688156D01*
X148001828Y-83688156D01*
X148004166Y-83706390D01*
X148083500Y-83765008D01*
X148122531Y-83749425D01*
X148165172Y-83637680D01*
X148153420Y-83579343D01*
X148083500Y-83560828D01*
X148061196Y-83577544D01*
X148001828Y-83688156D01*
X146600840Y-83688156D01*
X146624273Y-83651863D01*
X146733314Y-83449276D01*
X146776748Y-83312185D01*
X146805056Y-83244396D01*
X146934258Y-83193304D01*
X147040426Y-83173242D01*
X147214277Y-83070796D01*
X147337152Y-82971700D01*
X147408462Y-82954717D01*
X147388801Y-83030748D01*
X147386186Y-83035733D01*
X147403325Y-83155927D01*
X147502393Y-83322408D01*
X147666949Y-83531606D01*
X147659119Y-83219529D01*
X147658382Y-83178508D01*
X147664193Y-82944737D01*
X147683633Y-82784944D01*
X147689198Y-82749369D01*
X147637364Y-82688362D01*
X147459016Y-82686943D01*
X147320128Y-82688293D01*
X147167090Y-82622034D01*
X147016141Y-82441927D01*
X146838200Y-82205097D01*
X146589081Y-81968905D01*
X146318777Y-81845094D01*
X145985266Y-81807816D01*
X145826196Y-81801775D01*
X145617753Y-81774954D01*
X145517843Y-81734552D01*
X145517343Y-81733769D01*
X145407247Y-81689214D01*
X145190594Y-81672232D01*
X144920497Y-81679403D01*
X144650070Y-81707307D01*
X144432428Y-81752524D01*
X144320684Y-81811634D01*
X144284185Y-81900045D01*
X144262796Y-82163400D01*
X142091041Y-82163400D01*
X142092580Y-81791713D01*
X142098404Y-80673271D01*
X142105116Y-79611826D01*
X142112602Y-78619193D01*
X142120744Y-77707190D01*
X142129427Y-76887632D01*
X142138534Y-76172336D01*
X142147950Y-75573118D01*
X142157558Y-75101796D01*
X142167242Y-74770184D01*
X142176886Y-74590100D01*
X142189824Y-74439514D01*
X142205950Y-74139057D01*
X142203900Y-73922747D01*
X142183344Y-73829638D01*
X142151293Y-73745473D01*
X142159294Y-73571427D01*
X142195656Y-73232235D01*
X142210370Y-72764192D01*
X142201724Y-72218176D01*
X142169494Y-71636712D01*
X142155623Y-71454363D01*
X142127526Y-71114905D01*
X142101508Y-70882132D01*
X142071040Y-70716325D01*
X142029596Y-70577765D01*
X141970648Y-70426733D01*
X141909051Y-70220530D01*
X141876426Y-69968518D01*
X141871660Y-69791169D01*
X141844438Y-69495322D01*
X141799909Y-69244872D01*
X141745923Y-69079097D01*
X141690328Y-69037270D01*
X141643935Y-69022918D01*
X141660635Y-68877050D01*
X141674953Y-68722642D01*
X141631710Y-68615032D01*
X141591037Y-68566327D01*
X141553599Y-68412793D01*
X141564382Y-68246734D01*
X141624663Y-68152039D01*
X141642409Y-68139480D01*
X141693063Y-68011988D01*
X141720626Y-67802217D01*
X141723445Y-67570892D01*
X141699865Y-67378737D01*
X141648234Y-67286479D01*
X141611688Y-67268328D01*
X141585535Y-67193740D01*
X141592664Y-67170231D01*
X141610891Y-67013720D01*
X141626938Y-66751464D01*
X141637984Y-66424831D01*
X141642199Y-66283572D01*
X141650646Y-66136952D01*
X143591539Y-66136952D01*
X143605099Y-66239124D01*
X143698545Y-66470594D01*
X143849811Y-66698174D01*
X144022157Y-66871590D01*
X144178841Y-66940568D01*
X144250774Y-66950633D01*
X144368247Y-67023575D01*
X144390257Y-67049444D01*
X144490555Y-67062693D01*
X144533110Y-67055258D01*
X144627838Y-67128774D01*
X144677439Y-67188273D01*
X144835660Y-67290744D01*
X144908201Y-67338011D01*
X144929192Y-67467878D01*
X144894185Y-67525576D01*
X144808061Y-67547822D01*
X144794900Y-67544528D01*
X144752178Y-67619011D01*
X144734947Y-67798810D01*
X144728365Y-67953730D01*
X144687689Y-68052459D01*
X144592021Y-68050511D01*
X144541386Y-68038158D01*
X144364733Y-68055865D01*
X144268567Y-68157011D01*
X144294069Y-68306252D01*
X144441348Y-68417219D01*
X144718041Y-68476382D01*
X144911880Y-68480158D01*
X145067891Y-68431119D01*
X145185226Y-68297970D01*
X145258724Y-68139093D01*
X145272806Y-67807615D01*
X145267828Y-67772028D01*
X145266282Y-67576437D01*
X145309086Y-67469934D01*
X145333944Y-67448012D01*
X145341789Y-67339710D01*
X145330363Y-67279870D01*
X145388324Y-67144751D01*
X145430018Y-67069519D01*
X145425727Y-66935017D01*
X145409911Y-66890410D01*
X145460216Y-66783270D01*
X145493309Y-66729934D01*
X147870402Y-66729934D01*
X147895149Y-66867680D01*
X147928326Y-67126860D01*
X147958498Y-67431516D01*
X147982676Y-67685664D01*
X148021540Y-68025268D01*
X148058844Y-68288159D01*
X148069920Y-68356829D01*
X148095961Y-68563022D01*
X148098835Y-68676101D01*
X148097652Y-68691907D01*
X148165172Y-68737355D01*
X148211224Y-68764718D01*
X148246844Y-68893439D01*
X148249907Y-68924082D01*
X148341917Y-69097765D01*
X148522972Y-69276472D01*
X148740178Y-69416064D01*
X148940643Y-69472403D01*
X149074337Y-69480757D01*
X149246196Y-69516272D01*
X149255374Y-69519076D01*
X149399627Y-69493347D01*
X149579564Y-69387836D01*
X149607810Y-69366025D01*
X149743435Y-69275460D01*
X149798613Y-69264393D01*
X149799096Y-69270986D01*
X149859104Y-69286782D01*
X149990963Y-69220207D01*
X150153886Y-69100805D01*
X150307085Y-68958121D01*
X150409771Y-68821701D01*
X150419540Y-68801578D01*
X150493066Y-68531882D01*
X150528552Y-68166307D01*
X150526071Y-67761911D01*
X150485696Y-67375751D01*
X150407503Y-67064887D01*
X150351443Y-66935385D01*
X150159178Y-66660083D01*
X149883615Y-66471528D01*
X149500439Y-66356686D01*
X148985336Y-66302522D01*
X148631129Y-66291306D01*
X148371381Y-66301999D01*
X148191401Y-66340989D01*
X148175560Y-66349013D01*
X148048617Y-66413312D01*
X148041016Y-66418335D01*
X147886378Y-66566816D01*
X147870402Y-66729934D01*
X145493309Y-66729934D01*
X145510573Y-66702109D01*
X145554619Y-66536446D01*
X145579180Y-66349013D01*
X145576751Y-66199684D01*
X145539824Y-66148333D01*
X145472570Y-66131088D01*
X145335644Y-66042178D01*
X145249890Y-65975634D01*
X145000676Y-65829201D01*
X144728598Y-65761272D01*
X144365625Y-65751457D01*
X144240661Y-65756041D01*
X143915468Y-65786695D01*
X143717195Y-65851279D01*
X143618375Y-65963472D01*
X143591539Y-66136952D01*
X141650646Y-66136952D01*
X141658957Y-65992706D01*
X141682309Y-65790978D01*
X141708565Y-65715490D01*
X141733518Y-65666181D01*
X141778126Y-65488572D01*
X141831795Y-65217567D01*
X141888053Y-64891163D01*
X141940429Y-64547359D01*
X141982450Y-64224152D01*
X142007644Y-63959542D01*
X142019182Y-63835607D01*
X142050750Y-63562730D01*
X142095733Y-63207778D01*
X142148539Y-62816133D01*
X142186770Y-62539768D01*
X142260237Y-62004574D01*
X142336837Y-61442536D01*
X142405095Y-60937677D01*
X142442577Y-60667879D01*
X142541868Y-60012516D01*
X142654876Y-59331267D01*
X142774729Y-58661715D01*
X142894561Y-58041445D01*
X143007500Y-57508043D01*
X143106678Y-57099091D01*
X143188686Y-56793926D01*
X143297718Y-56386772D01*
X143390908Y-56037355D01*
X143459648Y-55785442D01*
X143573955Y-55382293D01*
X143684497Y-55006865D01*
X143769120Y-54721841D01*
X143836531Y-54485380D01*
X143870693Y-54353489D01*
X143882539Y-54302086D01*
X143937915Y-54118063D01*
X143938214Y-54117234D01*
X143984316Y-53979140D01*
X144061783Y-53737404D01*
X144154011Y-53443833D01*
X144250171Y-53147255D01*
X144338109Y-52897313D01*
X144398310Y-52749620D01*
X144461815Y-52615802D01*
X144553747Y-52402950D01*
X144650394Y-52169728D01*
X144840112Y-51749964D01*
X145048725Y-51349361D01*
X145314447Y-50892018D01*
X145385229Y-50775616D01*
X145593096Y-50447001D01*
X145788046Y-50155513D01*
X145935599Y-49953259D01*
X146090254Y-49770742D01*
X146472602Y-49370545D01*
X146911541Y-48959943D01*
X147355526Y-48585952D01*
X147753009Y-48295590D01*
X148280074Y-47951825D01*
X149223105Y-47953636D01*
X149263869Y-47953734D01*
X149723153Y-47961706D01*
X150062519Y-47993340D01*
X150322231Y-48064892D01*
X150542552Y-48192621D01*
X150763745Y-48392785D01*
X151026075Y-48681639D01*
X151088236Y-48753228D01*
X151539814Y-49317324D01*
X151918620Y-49886476D01*
X152246002Y-50500134D01*
X152543307Y-51197749D01*
X152831882Y-52018770D01*
X152881380Y-52174501D01*
X152975746Y-52494217D01*
X153041077Y-52748158D01*
X153065494Y-52891924D01*
X153078001Y-52981702D01*
X153147166Y-53097162D01*
X153166278Y-53118515D01*
X153210975Y-53266059D01*
X153228838Y-53490464D01*
X153229399Y-53531642D01*
X153257254Y-53840390D01*
X153314155Y-54118602D01*
X153359034Y-54321349D01*
X153412559Y-54705738D01*
X153462056Y-55212989D01*
X153506792Y-55820546D01*
X153546030Y-56505857D01*
X153579036Y-57246369D01*
X153605073Y-58019528D01*
X153623407Y-58802780D01*
X153633302Y-59573574D01*
X153634023Y-60309354D01*
X153624834Y-60987568D01*
X153605000Y-61585663D01*
X153573785Y-62081085D01*
X153525363Y-62773552D01*
X153506410Y-63503034D01*
X153529861Y-64190454D01*
X153596220Y-64898770D01*
X153607441Y-65004424D01*
X153633813Y-65342507D01*
X153657426Y-65761970D01*
X153677285Y-66227894D01*
X153692395Y-66705360D01*
X153701763Y-67159449D01*
X153704394Y-67555241D01*
X153699293Y-67857816D01*
X153685465Y-68032257D01*
X153683164Y-68043678D01*
X153634667Y-68166307D01*
X153594757Y-68267221D01*
G37*
%TD*%
%LPC*%
D13*
%TO.C,H2*%
X164293981Y-49000000D03*
%TD*%
D14*
%TO.C,J4*%
X165690981Y-75000000D03*
D15*
X165690981Y-77540000D03*
%TD*%
D13*
%TO.C,H4*%
X130293981Y-93000000D03*
%TD*%
D16*
%TO.C,SW1*%
X129793981Y-67500000D03*
X129793981Y-61000000D03*
X134293981Y-67500000D03*
X134293981Y-61000000D03*
%TD*%
D17*
%TO.C,J2*%
X158739181Y-91378000D03*
D15*
X158739181Y-93918000D03*
X156199181Y-91378000D03*
X156199181Y-93918000D03*
X153659181Y-91378000D03*
X153659181Y-93918000D03*
X151119181Y-91378000D03*
X151119181Y-93918000D03*
X148579181Y-91378000D03*
X148579181Y-93918000D03*
X146039181Y-91378000D03*
X146039181Y-93918000D03*
X143499181Y-91378000D03*
X143499181Y-93918000D03*
X140959181Y-91378000D03*
X140959181Y-93918000D03*
X138419181Y-91378000D03*
X138419181Y-93918000D03*
X135879181Y-91378000D03*
X135879181Y-93918000D03*
%TD*%
D18*
%TO.C,J3*%
X165690981Y-87080000D03*
D15*
X165690981Y-84540000D03*
X165690981Y-82000000D03*
%TD*%
D13*
%TO.C,H1*%
X130293981Y-49000000D03*
%TD*%
%TO.C,H3*%
X164293981Y-93000000D03*
%TD*%
D19*
%TO.C,J1*%
X153013981Y-52703600D03*
X141583981Y-52703600D03*
D20*
X151743981Y-59053600D03*
D21*
X150473981Y-61593600D03*
X149203981Y-59053600D03*
X147933981Y-61593600D03*
X146663981Y-59053600D03*
X145393981Y-61593600D03*
X144123981Y-59053600D03*
X142853981Y-61593600D03*
D22*
X153923981Y-47813600D03*
X151383981Y-47813600D03*
X143203981Y-47813600D03*
X140663981Y-47813600D03*
D23*
X155033981Y-55753600D03*
X139553981Y-55753600D03*
%TD*%
%LPD*%
M02*
