%TF.GenerationSoftware,KiCad,Pcbnew,8.0.8+1*%
%TF.CreationDate,Date%
%TF.ProjectId,LAN8742A-breakout,4c414e38-3734-4324-912d-627265616b6f,+ (Unreleased)*%
%TF.SameCoordinates,Original*%
%TF.FileFunction,Copper,L4,Bot*%
%TF.FilePolarity,Positive*%
%FSLAX46Y46*%
G04 Gerber Fmt 4.6, Leading zero omitted, Abs format (unit mm)*
G04 Created by KiCad*
%MOMM*%
%LPD*%
G01*
G04 APERTURE LIST*
G04 Aperture macros list*
%AMRotRect*
0 Rectangle, with rotation*
0 The origin of the aperture is its center*
0 $1 length*
0 $2 width*
0 $3 Rotation angle, in degrees counterclockwise*
0 Add horizontal line*
21,1,$1,$2,0,0,$3*%
G04 Aperture macros list end*
%TA.AperFunction,ComponentPad*%
%ADD10R,1.700000X1.700000*%
%TD*%
%TA.AperFunction,ComponentPad*%
%ADD11O,1.700000X1.700000*%
%TD*%
%TA.AperFunction,HeatsinkPad*%
%ADD12C,0.500000*%
%TD*%
%TA.AperFunction,HeatsinkPad*%
%ADD13RotRect,2.500000X2.500000X315.000000*%
%TD*%
%TA.AperFunction,ComponentPad*%
%ADD14C,2.000000*%
%TD*%
%TA.AperFunction,ComponentPad*%
%ADD15C,3.300000*%
%TD*%
%TA.AperFunction,ComponentPad*%
%ADD16R,1.600000X1.600000*%
%TD*%
%TA.AperFunction,ComponentPad*%
%ADD17C,1.600000*%
%TD*%
%TA.AperFunction,ComponentPad*%
%ADD18C,1.800000*%
%TD*%
%TA.AperFunction,ComponentPad*%
%ADD19C,2.500000*%
%TD*%
%TA.AperFunction,ViaPad*%
%ADD20C,0.550000*%
%TD*%
%TA.AperFunction,Conductor*%
%ADD21C,0.200000*%
%TD*%
%TA.AperFunction,Conductor*%
%ADD22C,0.254000*%
%TD*%
G04 APERTURE END LIST*
D10*
%TO.P,J4,1,Pin_1*%
%TO.N,/Project Architecture/LAN8742A breakout/LED1*%
X165690981Y-75000000D03*
D11*
%TO.P,J4,2,Pin_2*%
%TO.N,/Project Architecture/LAN8742A breakout/LED2*%
X165690981Y-77540000D03*
%TD*%
D12*
%TO.P,U1,25,VSS*%
%TO.N,GND*%
X146983084Y-79021632D03*
X146275977Y-79728739D03*
X145568870Y-80435846D03*
X147690191Y-79728739D03*
X146983084Y-80435846D03*
D13*
X146983084Y-80435846D03*
D12*
X146275977Y-81142953D03*
X148397298Y-80435846D03*
X147690191Y-81142953D03*
X146983084Y-81850060D03*
%TD*%
D14*
%TO.P,SW1,1,1*%
%TO.N,GND*%
X129793981Y-67500000D03*
X129793981Y-61000000D03*
%TO.P,SW1,2,2*%
%TO.N,Net-(R6-Pad1)*%
X134293981Y-67500000D03*
X134293981Y-61000000D03*
%TD*%
D10*
%TO.P,J2,1,Pin_1*%
%TO.N,/Project Architecture/LAN8742A breakout/TXD1*%
X158739181Y-91378000D03*
D11*
%TO.P,J2,2,Pin_2*%
%TO.N,GND*%
X158739181Y-93918000D03*
%TO.P,J2,3,Pin_3*%
%TO.N,/Project Architecture/LAN8742A breakout/TXD0*%
X156199181Y-91378000D03*
%TO.P,J2,4,Pin_4*%
%TO.N,GND*%
X156199181Y-93918000D03*
%TO.P,J2,5,Pin_5*%
%TO.N,/Project Architecture/LAN8742A breakout/TXEN*%
X153659181Y-91378000D03*
%TO.P,J2,6,Pin_6*%
%TO.N,GND*%
X153659181Y-93918000D03*
%TO.P,J2,7,Pin_7*%
%TO.N,/Project Architecture/LAN8742A breakout/REFCLKO*%
X151119181Y-91378000D03*
%TO.P,J2,8,Pin_8*%
%TO.N,GND*%
X151119181Y-93918000D03*
%TO.P,J2,9,Pin_9*%
%TO.N,/Project Architecture/LAN8742A breakout/MDC*%
X148579181Y-91378000D03*
%TO.P,J2,10,Pin_10*%
%TO.N,GND*%
X148579181Y-93918000D03*
%TO.P,J2,11,Pin_11*%
%TO.N,/Project Architecture/LAN8742A breakout/MDIO*%
X146039181Y-91378000D03*
%TO.P,J2,12,Pin_12*%
%TO.N,GND*%
X146039181Y-93918000D03*
%TO.P,J2,13,Pin_13*%
%TO.N,/Project Architecture/LAN8742A breakout/CRS_DV*%
X143499181Y-91378000D03*
%TO.P,J2,14,Pin_14*%
%TO.N,GND*%
X143499181Y-93918000D03*
%TO.P,J2,15,Pin_15*%
%TO.N,/Project Architecture/LAN8742A breakout/RXER*%
X140959181Y-91378000D03*
%TO.P,J2,16,Pin_16*%
%TO.N,GND*%
X140959181Y-93918000D03*
%TO.P,J2,17,Pin_17*%
%TO.N,/Project Architecture/LAN8742A breakout/RXD0*%
X138419181Y-91378000D03*
%TO.P,J2,18,Pin_18*%
%TO.N,GND*%
X138419181Y-93918000D03*
%TO.P,J2,19,Pin_19*%
%TO.N,/Project Architecture/LAN8742A breakout/RXD1*%
X135879181Y-91378000D03*
%TO.P,J2,20,Pin_20*%
%TO.N,GND*%
X135879181Y-93918000D03*
%TD*%
D10*
%TO.P,J3,1,Pin_1*%
%TO.N,+3.3V*%
X165690981Y-87080000D03*
D11*
%TO.P,J3,2,Pin_2*%
%TO.N,GND*%
X165690981Y-84540000D03*
%TO.P,J3,3,Pin_3*%
%TO.N,/Project Architecture/LAN8742A breakout/nRST*%
X165690981Y-82000000D03*
%TD*%
D15*
%TO.P,J1,*%
%TO.N,*%
X153013981Y-52703600D03*
X141583981Y-52703600D03*
D16*
%TO.P,J1,1,TD+*%
%TO.N,/Project Architecture/LAN8742A breakout/TX_P*%
X151743981Y-59053600D03*
D17*
%TO.P,J1,2,TD-*%
%TO.N,/Project Architecture/LAN8742A breakout/TX_N*%
X150473981Y-61593600D03*
%TO.P,J1,3,RD+*%
%TO.N,/Project Architecture/LAN8742A breakout/RX_P*%
X149203981Y-59053600D03*
%TO.P,J1,4,4*%
%TO.N,+3V3_PHYA*%
X147933981Y-61593600D03*
%TO.P,J1,5,5*%
X146663981Y-59053600D03*
%TO.P,J1,6,RD-*%
%TO.N,/Project Architecture/LAN8742A breakout/RX_N*%
X145393981Y-61593600D03*
%TO.P,J1,7,NC*%
%TO.N,unconnected-(J1-NC-Pad7)*%
X144123981Y-59053600D03*
%TO.P,J1,8,CHSGND*%
%TO.N,GND*%
X142853981Y-61593600D03*
D18*
%TO.P,J1,9,9*%
%TO.N,/Project Architecture/LAN8742A breakout/LED1*%
X153923981Y-47813600D03*
%TO.P,J1,10,10*%
%TO.N,Net-(J1-Pad10)*%
X151383981Y-47813600D03*
%TO.P,J1,11,11*%
%TO.N,Net-(J1-Pad11)*%
X143203981Y-47813600D03*
%TO.P,J1,12,12*%
%TO.N,/Project Architecture/LAN8742A breakout/LED2*%
X140663981Y-47813600D03*
D19*
%TO.P,J1,SH1,SH1*%
%TO.N,Net-(JP5-B)*%
X155033981Y-55753600D03*
%TO.P,J1,SH2,SH2*%
%TO.N,Net-(JP4-B)*%
X139553981Y-55753600D03*
%TD*%
D20*
%TO.N,+3V3_PHYA*%
X144448982Y-82741022D03*
X140882981Y-82665000D03*
%TO.N,/Project Architecture/LAN8742A breakout/nRST*%
X149466454Y-83225527D03*
X132119981Y-59297000D03*
%TO.N,/Project Architecture/LAN8742A breakout/RX_N*%
X146388660Y-63532679D03*
%TO.N,/Project Architecture/LAN8742A breakout/TX_N*%
X151594981Y-63615000D03*
%TO.N,Net-(JP1-A)*%
X144832920Y-77826061D03*
X161523737Y-74095756D03*
%TO.N,Net-(JP2-B)*%
X161857863Y-74822292D03*
X145671068Y-77420087D03*
%TD*%
D21*
%TO.N,+3V3_PHYA*%
X144372960Y-82665000D02*
X140882981Y-82665000D01*
X144448982Y-82741022D02*
X144372960Y-82665000D01*
%TO.N,/Project Architecture/LAN8742A breakout/nRST*%
X148375981Y-84316000D02*
X139993981Y-84316000D01*
X132119981Y-76442000D02*
X132119981Y-59297000D01*
X139993981Y-84316000D02*
X132119981Y-76442000D01*
X149466454Y-83225527D02*
X148375981Y-84316000D01*
D22*
%TO.N,/Project Architecture/LAN8742A breakout/RX_N*%
X146388660Y-62588279D02*
X145393981Y-61593600D01*
X146388660Y-63532679D02*
X146388660Y-62588279D01*
D21*
%TO.N,/Project Architecture/LAN8742A breakout/LED1*%
X153923981Y-47813600D02*
X158609581Y-47813600D01*
X158609581Y-47813600D02*
X163234981Y-52439000D01*
X163234981Y-52439000D02*
X163234981Y-73902000D01*
X164332981Y-75000000D02*
X165690981Y-75000000D01*
X163234981Y-73902000D02*
X164332981Y-75000000D01*
%TO.N,/Project Architecture/LAN8742A breakout/LED2*%
X160002295Y-49772000D02*
X162834981Y-52604686D01*
X162834981Y-74684000D02*
X165690981Y-77540000D01*
X162834981Y-52604686D02*
X162834981Y-74684000D01*
X140663981Y-47813600D02*
X142622381Y-49772000D01*
X142622381Y-49772000D02*
X160002295Y-49772000D01*
D22*
%TO.N,/Project Architecture/LAN8742A breakout/TX_N*%
X151594981Y-63615000D02*
X151594981Y-62714600D01*
X151594981Y-62714600D02*
X150473981Y-61593600D01*
D21*
%TO.N,Net-(JP1-A)*%
X144832920Y-77445061D02*
X144832920Y-77826061D01*
X159551981Y-76315000D02*
X145962981Y-76315000D01*
X161523737Y-74343244D02*
X159551981Y-76315000D01*
X145962981Y-76315000D02*
X144832920Y-77445061D01*
X161523737Y-74095756D02*
X161523737Y-74343244D01*
%TO.N,Net-(JP2-B)*%
X161610375Y-74822292D02*
X159717667Y-76715000D01*
X146376155Y-76715000D02*
X145671068Y-77420087D01*
X159717667Y-76715000D02*
X146376155Y-76715000D01*
X161857863Y-74822292D02*
X161610375Y-74822292D01*
%TD*%
%TA.AperFunction,Conductor*%
%TO.N,GND*%
G36*
X137953256Y-93725007D02*
G01*
X137919181Y-93852174D01*
X137919181Y-93983826D01*
X137953256Y-94110993D01*
X137986169Y-94168000D01*
X136312193Y-94168000D01*
X136345106Y-94110993D01*
X136379181Y-93983826D01*
X136379181Y-93852174D01*
X136345106Y-93725007D01*
X136312193Y-93668000D01*
X137986169Y-93668000D01*
X137953256Y-93725007D01*
G37*
%TD.AperFunction*%
%TA.AperFunction,Conductor*%
G36*
X140493256Y-93725007D02*
G01*
X140459181Y-93852174D01*
X140459181Y-93983826D01*
X140493256Y-94110993D01*
X140526169Y-94168000D01*
X138852193Y-94168000D01*
X138885106Y-94110993D01*
X138919181Y-93983826D01*
X138919181Y-93852174D01*
X138885106Y-93725007D01*
X138852193Y-93668000D01*
X140526169Y-93668000D01*
X140493256Y-93725007D01*
G37*
%TD.AperFunction*%
%TA.AperFunction,Conductor*%
G36*
X143033256Y-93725007D02*
G01*
X142999181Y-93852174D01*
X142999181Y-93983826D01*
X143033256Y-94110993D01*
X143066169Y-94168000D01*
X141392193Y-94168000D01*
X141425106Y-94110993D01*
X141459181Y-93983826D01*
X141459181Y-93852174D01*
X141425106Y-93725007D01*
X141392193Y-93668000D01*
X143066169Y-93668000D01*
X143033256Y-93725007D01*
G37*
%TD.AperFunction*%
%TA.AperFunction,Conductor*%
G36*
X145573256Y-93725007D02*
G01*
X145539181Y-93852174D01*
X145539181Y-93983826D01*
X145573256Y-94110993D01*
X145606169Y-94168000D01*
X143932193Y-94168000D01*
X143965106Y-94110993D01*
X143999181Y-93983826D01*
X143999181Y-93852174D01*
X143965106Y-93725007D01*
X143932193Y-93668000D01*
X145606169Y-93668000D01*
X145573256Y-93725007D01*
G37*
%TD.AperFunction*%
%TA.AperFunction,Conductor*%
G36*
X148113256Y-93725007D02*
G01*
X148079181Y-93852174D01*
X148079181Y-93983826D01*
X148113256Y-94110993D01*
X148146169Y-94168000D01*
X146472193Y-94168000D01*
X146505106Y-94110993D01*
X146539181Y-93983826D01*
X146539181Y-93852174D01*
X146505106Y-93725007D01*
X146472193Y-93668000D01*
X148146169Y-93668000D01*
X148113256Y-93725007D01*
G37*
%TD.AperFunction*%
%TA.AperFunction,Conductor*%
G36*
X150653256Y-93725007D02*
G01*
X150619181Y-93852174D01*
X150619181Y-93983826D01*
X150653256Y-94110993D01*
X150686169Y-94168000D01*
X149012193Y-94168000D01*
X149045106Y-94110993D01*
X149079181Y-93983826D01*
X149079181Y-93852174D01*
X149045106Y-93725007D01*
X149012193Y-93668000D01*
X150686169Y-93668000D01*
X150653256Y-93725007D01*
G37*
%TD.AperFunction*%
%TA.AperFunction,Conductor*%
G36*
X153193256Y-93725007D02*
G01*
X153159181Y-93852174D01*
X153159181Y-93983826D01*
X153193256Y-94110993D01*
X153226169Y-94168000D01*
X151552193Y-94168000D01*
X151585106Y-94110993D01*
X151619181Y-93983826D01*
X151619181Y-93852174D01*
X151585106Y-93725007D01*
X151552193Y-93668000D01*
X153226169Y-93668000D01*
X153193256Y-93725007D01*
G37*
%TD.AperFunction*%
%TA.AperFunction,Conductor*%
G36*
X155733256Y-93725007D02*
G01*
X155699181Y-93852174D01*
X155699181Y-93983826D01*
X155733256Y-94110993D01*
X155766169Y-94168000D01*
X154092193Y-94168000D01*
X154125106Y-94110993D01*
X154159181Y-93983826D01*
X154159181Y-93852174D01*
X154125106Y-93725007D01*
X154092193Y-93668000D01*
X155766169Y-93668000D01*
X155733256Y-93725007D01*
G37*
%TD.AperFunction*%
%TA.AperFunction,Conductor*%
G36*
X158273256Y-93725007D02*
G01*
X158239181Y-93852174D01*
X158239181Y-93983826D01*
X158273256Y-94110993D01*
X158306169Y-94168000D01*
X156632193Y-94168000D01*
X156665106Y-94110993D01*
X156699181Y-93983826D01*
X156699181Y-93852174D01*
X156665106Y-93725007D01*
X156632193Y-93668000D01*
X158306169Y-93668000D01*
X158273256Y-93725007D01*
G37*
%TD.AperFunction*%
%TA.AperFunction,Conductor*%
G36*
X164297455Y-46250694D02*
G01*
X164594889Y-46267396D01*
X164608686Y-46268950D01*
X164898941Y-46318265D01*
X164912496Y-46321359D01*
X165195400Y-46402861D01*
X165208525Y-46407454D01*
X165480513Y-46520114D01*
X165493041Y-46526147D01*
X165750717Y-46668557D01*
X165762484Y-46675950D01*
X166002606Y-46846324D01*
X166013460Y-46854980D01*
X166121559Y-46951582D01*
X166232996Y-47051168D01*
X166242828Y-47061001D01*
X166439001Y-47280517D01*
X166447671Y-47291389D01*
X166618033Y-47531491D01*
X166625431Y-47543264D01*
X166767842Y-47800934D01*
X166773874Y-47813460D01*
X166850127Y-47997550D01*
X166886540Y-48085457D01*
X166891133Y-48098583D01*
X166972636Y-48381488D01*
X166975730Y-48395044D01*
X167025045Y-48685285D01*
X167026602Y-48699103D01*
X167043286Y-48996188D01*
X167043481Y-49003141D01*
X167043481Y-83724639D01*
X167023796Y-83791678D01*
X166970992Y-83837433D01*
X166901834Y-83847377D01*
X166838278Y-83818352D01*
X166817906Y-83795763D01*
X166729090Y-83668922D01*
X166729089Y-83668920D01*
X166562063Y-83501894D01*
X166368559Y-83366399D01*
X166154473Y-83266570D01*
X166154467Y-83266567D01*
X166032330Y-83233841D01*
X165972670Y-83197476D01*
X165942141Y-83134629D01*
X165950436Y-83065253D01*
X165994921Y-83011375D01*
X166028425Y-82995407D01*
X166094935Y-82975232D01*
X166277431Y-82877685D01*
X166437391Y-82746410D01*
X166568666Y-82586450D01*
X166666213Y-82403954D01*
X166726281Y-82205934D01*
X166746564Y-82000000D01*
X166726281Y-81794066D01*
X166666213Y-81596046D01*
X166568666Y-81413550D01*
X166516683Y-81350209D01*
X166437391Y-81253589D01*
X166277433Y-81122317D01*
X166277434Y-81122317D01*
X166277431Y-81122315D01*
X166094935Y-81024768D01*
X165896915Y-80964700D01*
X165896913Y-80964699D01*
X165896915Y-80964699D01*
X165690981Y-80944417D01*
X165485048Y-80964699D01*
X165287024Y-81024769D01*
X165176879Y-81083643D01*
X165104531Y-81122315D01*
X165104529Y-81122316D01*
X165104528Y-81122317D01*
X164944570Y-81253589D01*
X164813298Y-81413547D01*
X164715750Y-81596043D01*
X164655680Y-81794067D01*
X164635398Y-82000000D01*
X164655680Y-82205932D01*
X164684804Y-82301942D01*
X164715749Y-82403954D01*
X164813296Y-82586450D01*
X164813298Y-82586452D01*
X164944570Y-82746410D01*
X165010291Y-82800345D01*
X165104531Y-82877685D01*
X165287027Y-82975232D01*
X165353532Y-82995405D01*
X165411970Y-83033702D01*
X165440427Y-83097514D01*
X165429868Y-83166581D01*
X165383644Y-83218975D01*
X165349631Y-83233841D01*
X165227495Y-83266567D01*
X165227488Y-83266570D01*
X165013403Y-83366399D01*
X165013401Y-83366400D01*
X164819907Y-83501886D01*
X164819901Y-83501891D01*
X164652872Y-83668920D01*
X164652867Y-83668926D01*
X164517381Y-83862420D01*
X164517380Y-83862422D01*
X164417551Y-84076507D01*
X164417548Y-84076513D01*
X164360345Y-84289999D01*
X164360345Y-84290000D01*
X165257969Y-84290000D01*
X165225056Y-84347007D01*
X165190981Y-84474174D01*
X165190981Y-84605826D01*
X165225056Y-84732993D01*
X165257969Y-84790000D01*
X164360345Y-84790000D01*
X164417548Y-85003486D01*
X164417551Y-85003492D01*
X164517380Y-85217578D01*
X164652875Y-85411082D01*
X164819898Y-85578105D01*
X165013402Y-85713600D01*
X165183929Y-85793118D01*
X165236368Y-85839290D01*
X165255520Y-85906484D01*
X165235304Y-85973365D01*
X165182139Y-86018700D01*
X165131524Y-86029500D01*
X164821228Y-86029500D01*
X164762751Y-86041131D01*
X164762750Y-86041132D01*
X164696428Y-86085447D01*
X164652113Y-86151769D01*
X164652112Y-86151770D01*
X164640481Y-86210247D01*
X164640481Y-87949752D01*
X164652112Y-88008229D01*
X164652113Y-88008230D01*
X164696428Y-88074552D01*
X164762750Y-88118867D01*
X164762751Y-88118868D01*
X164821228Y-88130499D01*
X164821231Y-88130500D01*
X164821233Y-88130500D01*
X166560731Y-88130500D01*
X166560732Y-88130499D01*
X166575549Y-88127552D01*
X166619210Y-88118868D01*
X166619210Y-88118867D01*
X166619212Y-88118867D01*
X166685533Y-88074552D01*
X166729848Y-88008231D01*
X166729848Y-88008229D01*
X166729849Y-88008229D01*
X166741480Y-87949752D01*
X166741481Y-87949750D01*
X166741481Y-86210249D01*
X166741480Y-86210247D01*
X166729849Y-86151770D01*
X166729848Y-86151769D01*
X166685533Y-86085447D01*
X166619211Y-86041132D01*
X166619210Y-86041131D01*
X166560733Y-86029500D01*
X166560729Y-86029500D01*
X166250438Y-86029500D01*
X166183399Y-86009815D01*
X166137644Y-85957011D01*
X166127700Y-85887853D01*
X166156725Y-85824297D01*
X166198033Y-85793118D01*
X166368559Y-85713600D01*
X166562063Y-85578105D01*
X166729086Y-85411082D01*
X166817906Y-85284236D01*
X166872483Y-85240611D01*
X166941982Y-85233419D01*
X167004336Y-85264941D01*
X167039750Y-85325171D01*
X167043481Y-85355360D01*
X167043481Y-92996519D01*
X167043286Y-93003472D01*
X167026583Y-93300892D01*
X167025026Y-93314710D01*
X166975711Y-93604951D01*
X166972617Y-93618508D01*
X166891114Y-93901411D01*
X166886521Y-93914535D01*
X166773859Y-94186527D01*
X166767830Y-94199046D01*
X166625412Y-94456731D01*
X166618020Y-94468495D01*
X166447656Y-94708598D01*
X166438987Y-94719469D01*
X166242811Y-94938990D01*
X166232977Y-94948823D01*
X166013457Y-95144996D01*
X166002586Y-95153666D01*
X165762482Y-95324028D01*
X165750707Y-95331426D01*
X165493033Y-95473835D01*
X165480505Y-95479868D01*
X165208519Y-95592527D01*
X165195394Y-95597120D01*
X164912492Y-95678621D01*
X164898935Y-95681715D01*
X164608694Y-95731028D01*
X164594876Y-95732585D01*
X164323349Y-95747831D01*
X164297116Y-95749305D01*
X164290166Y-95749500D01*
X130297464Y-95749500D01*
X130290512Y-95749305D01*
X130251882Y-95747135D01*
X129993089Y-95732600D01*
X129979272Y-95731043D01*
X129689032Y-95681728D01*
X129675475Y-95678634D01*
X129392574Y-95597130D01*
X129379449Y-95592537D01*
X129107456Y-95479873D01*
X129094931Y-95473841D01*
X128837255Y-95331426D01*
X128825495Y-95324036D01*
X128585378Y-95153663D01*
X128574515Y-95144999D01*
X128355001Y-94948828D01*
X128345168Y-94938996D01*
X128221399Y-94800498D01*
X128148982Y-94719462D01*
X128140324Y-94708605D01*
X127992505Y-94500273D01*
X127969958Y-94468495D01*
X127962560Y-94456721D01*
X127820150Y-94199049D01*
X127814117Y-94186520D01*
X127701459Y-93914537D01*
X127696866Y-93901413D01*
X127636380Y-93691463D01*
X127615361Y-93618506D01*
X127612268Y-93604951D01*
X127562952Y-93314700D01*
X127561398Y-93300901D01*
X127544676Y-93003128D01*
X127544481Y-92996176D01*
X127544481Y-92881995D01*
X128493481Y-92881995D01*
X128493481Y-93118004D01*
X128493482Y-93118020D01*
X128524287Y-93352010D01*
X128585375Y-93579993D01*
X128675695Y-93798045D01*
X128675700Y-93798056D01*
X128701328Y-93842444D01*
X128793708Y-94002450D01*
X128793710Y-94002453D01*
X128793711Y-94002454D01*
X128937387Y-94189697D01*
X128937393Y-94189704D01*
X129104276Y-94356587D01*
X129104283Y-94356593D01*
X129214287Y-94441001D01*
X129291531Y-94500273D01*
X129393845Y-94559344D01*
X129495924Y-94618280D01*
X129495929Y-94618282D01*
X129495932Y-94618284D01*
X129713988Y-94708606D01*
X129941967Y-94769693D01*
X130175970Y-94800500D01*
X130175977Y-94800500D01*
X130411985Y-94800500D01*
X130411992Y-94800500D01*
X130645995Y-94769693D01*
X130873974Y-94708606D01*
X131092030Y-94618284D01*
X131296431Y-94500273D01*
X131483680Y-94356592D01*
X131650573Y-94189699D01*
X131794254Y-94002450D01*
X131912265Y-93798049D01*
X131966134Y-93667999D01*
X134548545Y-93667999D01*
X134548545Y-93668000D01*
X135446169Y-93668000D01*
X135413256Y-93725007D01*
X135379181Y-93852174D01*
X135379181Y-93983826D01*
X135413256Y-94110993D01*
X135446169Y-94168000D01*
X134548545Y-94168000D01*
X134605748Y-94381486D01*
X134605751Y-94381492D01*
X134705580Y-94595578D01*
X134841075Y-94789082D01*
X135008098Y-94956105D01*
X135201602Y-95091600D01*
X135415688Y-95191429D01*
X135415697Y-95191433D01*
X135629181Y-95248634D01*
X135629181Y-94351012D01*
X135686188Y-94383925D01*
X135813355Y-94418000D01*
X135945007Y-94418000D01*
X136072174Y-94383925D01*
X136129181Y-94351012D01*
X136129181Y-95248633D01*
X136342664Y-95191433D01*
X136342673Y-95191429D01*
X136556759Y-95091600D01*
X136750263Y-94956105D01*
X136917286Y-94789082D01*
X137047606Y-94602968D01*
X137102183Y-94559344D01*
X137171682Y-94552151D01*
X137234036Y-94583673D01*
X137250756Y-94602968D01*
X137381075Y-94789082D01*
X137548098Y-94956105D01*
X137741602Y-95091600D01*
X137955688Y-95191429D01*
X137955697Y-95191433D01*
X138169181Y-95248634D01*
X138169181Y-94351012D01*
X138226188Y-94383925D01*
X138353355Y-94418000D01*
X138485007Y-94418000D01*
X138612174Y-94383925D01*
X138669181Y-94351012D01*
X138669181Y-95248633D01*
X138882664Y-95191433D01*
X138882673Y-95191429D01*
X139096759Y-95091600D01*
X139290263Y-94956105D01*
X139457286Y-94789082D01*
X139587606Y-94602968D01*
X139642183Y-94559344D01*
X139711682Y-94552151D01*
X139774036Y-94583673D01*
X139790756Y-94602968D01*
X139921075Y-94789082D01*
X140088098Y-94956105D01*
X140281602Y-95091600D01*
X140495688Y-95191429D01*
X140495697Y-95191433D01*
X140709181Y-95248634D01*
X140709181Y-94351012D01*
X140766188Y-94383925D01*
X140893355Y-94418000D01*
X141025007Y-94418000D01*
X141152174Y-94383925D01*
X141209181Y-94351012D01*
X141209181Y-95248633D01*
X141422664Y-95191433D01*
X141422673Y-95191429D01*
X141636759Y-95091600D01*
X141830263Y-94956105D01*
X141997286Y-94789082D01*
X142127606Y-94602968D01*
X142182183Y-94559344D01*
X142251682Y-94552151D01*
X142314036Y-94583673D01*
X142330756Y-94602968D01*
X142461075Y-94789082D01*
X142628098Y-94956105D01*
X142821602Y-95091600D01*
X143035688Y-95191429D01*
X143035697Y-95191433D01*
X143249181Y-95248634D01*
X143249181Y-94351012D01*
X143306188Y-94383925D01*
X143433355Y-94418000D01*
X143565007Y-94418000D01*
X143692174Y-94383925D01*
X143749181Y-94351012D01*
X143749181Y-95248633D01*
X143962664Y-95191433D01*
X143962673Y-95191429D01*
X144176759Y-95091600D01*
X144370263Y-94956105D01*
X144537286Y-94789082D01*
X144667606Y-94602968D01*
X144722183Y-94559344D01*
X144791682Y-94552151D01*
X144854036Y-94583673D01*
X144870756Y-94602968D01*
X145001075Y-94789082D01*
X145168098Y-94956105D01*
X145361602Y-95091600D01*
X145575688Y-95191429D01*
X145575697Y-95191433D01*
X145789181Y-95248634D01*
X145789181Y-94351012D01*
X145846188Y-94383925D01*
X145973355Y-94418000D01*
X146105007Y-94418000D01*
X146232174Y-94383925D01*
X146289181Y-94351012D01*
X146289181Y-95248633D01*
X146502664Y-95191433D01*
X146502673Y-95191429D01*
X146716759Y-95091600D01*
X146910263Y-94956105D01*
X147077286Y-94789082D01*
X147207606Y-94602968D01*
X147262183Y-94559344D01*
X147331682Y-94552151D01*
X147394036Y-94583673D01*
X147410756Y-94602968D01*
X147541075Y-94789082D01*
X147708098Y-94956105D01*
X147901602Y-95091600D01*
X148115688Y-95191429D01*
X148115697Y-95191433D01*
X148329181Y-95248634D01*
X148329181Y-94351012D01*
X148386188Y-94383925D01*
X148513355Y-94418000D01*
X148645007Y-94418000D01*
X148772174Y-94383925D01*
X148829181Y-94351012D01*
X148829181Y-95248633D01*
X149042664Y-95191433D01*
X149042673Y-95191429D01*
X149256759Y-95091600D01*
X149450263Y-94956105D01*
X149617286Y-94789082D01*
X149747606Y-94602968D01*
X149802183Y-94559344D01*
X149871682Y-94552151D01*
X149934036Y-94583673D01*
X149950756Y-94602968D01*
X150081075Y-94789082D01*
X150248098Y-94956105D01*
X150441602Y-95091600D01*
X150655688Y-95191429D01*
X150655697Y-95191433D01*
X150869181Y-95248634D01*
X150869181Y-94351012D01*
X150926188Y-94383925D01*
X151053355Y-94418000D01*
X151185007Y-94418000D01*
X151312174Y-94383925D01*
X151369181Y-94351012D01*
X151369181Y-95248633D01*
X151582664Y-95191433D01*
X151582673Y-95191429D01*
X151796759Y-95091600D01*
X151990263Y-94956105D01*
X152157286Y-94789082D01*
X152287606Y-94602968D01*
X152342183Y-94559344D01*
X152411682Y-94552151D01*
X152474036Y-94583673D01*
X152490756Y-94602968D01*
X152621075Y-94789082D01*
X152788098Y-94956105D01*
X152981602Y-95091600D01*
X153195688Y-95191429D01*
X153195697Y-95191433D01*
X153409181Y-95248634D01*
X153409181Y-94351012D01*
X153466188Y-94383925D01*
X153593355Y-94418000D01*
X153725007Y-94418000D01*
X153852174Y-94383925D01*
X153909181Y-94351012D01*
X153909181Y-95248633D01*
X154122664Y-95191433D01*
X154122673Y-95191429D01*
X154336759Y-95091600D01*
X154530263Y-94956105D01*
X154697286Y-94789082D01*
X154827606Y-94602968D01*
X154882183Y-94559344D01*
X154951682Y-94552151D01*
X155014036Y-94583673D01*
X155030756Y-94602968D01*
X155161075Y-94789082D01*
X155328098Y-94956105D01*
X155521602Y-95091600D01*
X155735688Y-95191429D01*
X155735697Y-95191433D01*
X155949181Y-95248634D01*
X155949181Y-94351012D01*
X156006188Y-94383925D01*
X156133355Y-94418000D01*
X156265007Y-94418000D01*
X156392174Y-94383925D01*
X156449181Y-94351012D01*
X156449181Y-95248633D01*
X156662664Y-95191433D01*
X156662673Y-95191429D01*
X156876759Y-95091600D01*
X157070263Y-94956105D01*
X157237286Y-94789082D01*
X157367606Y-94602968D01*
X157422183Y-94559344D01*
X157491682Y-94552151D01*
X157554036Y-94583673D01*
X157570756Y-94602968D01*
X157701075Y-94789082D01*
X157868098Y-94956105D01*
X158061602Y-95091600D01*
X158275688Y-95191429D01*
X158275697Y-95191433D01*
X158489181Y-95248634D01*
X158489181Y-94351012D01*
X158546188Y-94383925D01*
X158673355Y-94418000D01*
X158805007Y-94418000D01*
X158932174Y-94383925D01*
X158989181Y-94351012D01*
X158989181Y-95248633D01*
X159202664Y-95191433D01*
X159202673Y-95191429D01*
X159416759Y-95091600D01*
X159610263Y-94956105D01*
X159777286Y-94789082D01*
X159912781Y-94595578D01*
X160012610Y-94381492D01*
X160012613Y-94381486D01*
X160069817Y-94168000D01*
X159172193Y-94168000D01*
X159205106Y-94110993D01*
X159239181Y-93983826D01*
X159239181Y-93852174D01*
X159205106Y-93725007D01*
X159172193Y-93668000D01*
X160069817Y-93668000D01*
X160069816Y-93667999D01*
X160012613Y-93454513D01*
X160012610Y-93454507D01*
X159912781Y-93240422D01*
X159912780Y-93240420D01*
X159777294Y-93046926D01*
X159777289Y-93046920D01*
X159612364Y-92881995D01*
X162493481Y-92881995D01*
X162493481Y-93118004D01*
X162493482Y-93118020D01*
X162524287Y-93352010D01*
X162585375Y-93579993D01*
X162675695Y-93798045D01*
X162675700Y-93798056D01*
X162701328Y-93842444D01*
X162793708Y-94002450D01*
X162793710Y-94002453D01*
X162793711Y-94002454D01*
X162937387Y-94189697D01*
X162937393Y-94189704D01*
X163104276Y-94356587D01*
X163104283Y-94356593D01*
X163214287Y-94441001D01*
X163291531Y-94500273D01*
X163393845Y-94559344D01*
X163495924Y-94618280D01*
X163495929Y-94618282D01*
X163495932Y-94618284D01*
X163713988Y-94708606D01*
X163941967Y-94769693D01*
X164175970Y-94800500D01*
X164175977Y-94800500D01*
X164411985Y-94800500D01*
X164411992Y-94800500D01*
X164645995Y-94769693D01*
X164873974Y-94708606D01*
X165092030Y-94618284D01*
X165296431Y-94500273D01*
X165483680Y-94356592D01*
X165650573Y-94189699D01*
X165794254Y-94002450D01*
X165912265Y-93798049D01*
X166002587Y-93579993D01*
X166063674Y-93352014D01*
X166094481Y-93118011D01*
X166094481Y-92881989D01*
X166063674Y-92647986D01*
X166002587Y-92420007D01*
X165912265Y-92201951D01*
X165912263Y-92201948D01*
X165912261Y-92201943D01*
X165867497Y-92124410D01*
X165794254Y-91997550D01*
X165650573Y-91810301D01*
X165650568Y-91810295D01*
X165483685Y-91643412D01*
X165483678Y-91643406D01*
X165296435Y-91499730D01*
X165296434Y-91499729D01*
X165296431Y-91499727D01*
X165214938Y-91452677D01*
X165092037Y-91381719D01*
X165092026Y-91381714D01*
X164873974Y-91291394D01*
X164645991Y-91230306D01*
X164412001Y-91199501D01*
X164411998Y-91199500D01*
X164411992Y-91199500D01*
X164175970Y-91199500D01*
X164175964Y-91199500D01*
X164175960Y-91199501D01*
X163941970Y-91230306D01*
X163713987Y-91291394D01*
X163495935Y-91381714D01*
X163495924Y-91381719D01*
X163291526Y-91499730D01*
X163104283Y-91643406D01*
X163104276Y-91643412D01*
X162937393Y-91810295D01*
X162937387Y-91810302D01*
X162793711Y-91997545D01*
X162675700Y-92201943D01*
X162675695Y-92201954D01*
X162585375Y-92420006D01*
X162524287Y-92647989D01*
X162493482Y-92881979D01*
X162493481Y-92881995D01*
X159612364Y-92881995D01*
X159610263Y-92879894D01*
X159416759Y-92744399D01*
X159246233Y-92664882D01*
X159193794Y-92618710D01*
X159174642Y-92551516D01*
X159194858Y-92484635D01*
X159248023Y-92439300D01*
X159298638Y-92428500D01*
X159608931Y-92428500D01*
X159608932Y-92428499D01*
X159623749Y-92425552D01*
X159667410Y-92416868D01*
X159667410Y-92416867D01*
X159667412Y-92416867D01*
X159733733Y-92372552D01*
X159778048Y-92306231D01*
X159778048Y-92306229D01*
X159778049Y-92306229D01*
X159789680Y-92247752D01*
X159789681Y-92247750D01*
X159789681Y-90508249D01*
X159789680Y-90508247D01*
X159778049Y-90449770D01*
X159778048Y-90449769D01*
X159733733Y-90383447D01*
X159667411Y-90339132D01*
X159667410Y-90339131D01*
X159608933Y-90327500D01*
X159608929Y-90327500D01*
X157869433Y-90327500D01*
X157869428Y-90327500D01*
X157810951Y-90339131D01*
X157810950Y-90339132D01*
X157744628Y-90383447D01*
X157700313Y-90449769D01*
X157700312Y-90449770D01*
X157688681Y-90508247D01*
X157688681Y-92247752D01*
X157700312Y-92306229D01*
X157700313Y-92306230D01*
X157744628Y-92372552D01*
X157810950Y-92416867D01*
X157810951Y-92416868D01*
X157869428Y-92428499D01*
X157869431Y-92428500D01*
X158179724Y-92428500D01*
X158246763Y-92448185D01*
X158292518Y-92500989D01*
X158302462Y-92570147D01*
X158273437Y-92633703D01*
X158232129Y-92664882D01*
X158061603Y-92744399D01*
X158061601Y-92744400D01*
X157868107Y-92879886D01*
X157868101Y-92879891D01*
X157701072Y-93046920D01*
X157701071Y-93046922D01*
X157570756Y-93233031D01*
X157516179Y-93276655D01*
X157446680Y-93283848D01*
X157384326Y-93252326D01*
X157367606Y-93233031D01*
X157237290Y-93046922D01*
X157237289Y-93046920D01*
X157070263Y-92879894D01*
X156876759Y-92744399D01*
X156662673Y-92644570D01*
X156662667Y-92644567D01*
X156540530Y-92611841D01*
X156480870Y-92575476D01*
X156450341Y-92512629D01*
X156458636Y-92443253D01*
X156503121Y-92389375D01*
X156536625Y-92373407D01*
X156603135Y-92353232D01*
X156785631Y-92255685D01*
X156945591Y-92124410D01*
X157076866Y-91964450D01*
X157174413Y-91781954D01*
X157234481Y-91583934D01*
X157254764Y-91378000D01*
X157234481Y-91172066D01*
X157174413Y-90974046D01*
X157076866Y-90791550D01*
X157024883Y-90728209D01*
X156945591Y-90631589D01*
X156795302Y-90508252D01*
X156785631Y-90500315D01*
X156603135Y-90402768D01*
X156405115Y-90342700D01*
X156405113Y-90342699D01*
X156405115Y-90342699D01*
X156199181Y-90322417D01*
X155993248Y-90342699D01*
X155795224Y-90402769D01*
X155707295Y-90449769D01*
X155612731Y-90500315D01*
X155612729Y-90500316D01*
X155612728Y-90500317D01*
X155452770Y-90631589D01*
X155321498Y-90791547D01*
X155223950Y-90974043D01*
X155163880Y-91172067D01*
X155143598Y-91378000D01*
X155163880Y-91583932D01*
X155163881Y-91583934D01*
X155223949Y-91781954D01*
X155321496Y-91964450D01*
X155321498Y-91964452D01*
X155452770Y-92124410D01*
X155547246Y-92201943D01*
X155612731Y-92255685D01*
X155795227Y-92353232D01*
X155861732Y-92373405D01*
X155920170Y-92411702D01*
X155948627Y-92475514D01*
X155938068Y-92544581D01*
X155891844Y-92596975D01*
X155857831Y-92611841D01*
X155735695Y-92644567D01*
X155735688Y-92644570D01*
X155521603Y-92744399D01*
X155521601Y-92744400D01*
X155328107Y-92879886D01*
X155328101Y-92879891D01*
X155161072Y-93046920D01*
X155161071Y-93046922D01*
X155030756Y-93233031D01*
X154976179Y-93276655D01*
X154906680Y-93283848D01*
X154844326Y-93252326D01*
X154827606Y-93233031D01*
X154697290Y-93046922D01*
X154697289Y-93046920D01*
X154530263Y-92879894D01*
X154336759Y-92744399D01*
X154122673Y-92644570D01*
X154122667Y-92644567D01*
X154000530Y-92611841D01*
X153940870Y-92575476D01*
X153910341Y-92512629D01*
X153918636Y-92443253D01*
X153963121Y-92389375D01*
X153996625Y-92373407D01*
X154063135Y-92353232D01*
X154245631Y-92255685D01*
X154405591Y-92124410D01*
X154536866Y-91964450D01*
X154634413Y-91781954D01*
X154694481Y-91583934D01*
X154714764Y-91378000D01*
X154694481Y-91172066D01*
X154634413Y-90974046D01*
X154536866Y-90791550D01*
X154484883Y-90728209D01*
X154405591Y-90631589D01*
X154255302Y-90508252D01*
X154245631Y-90500315D01*
X154063135Y-90402768D01*
X153865115Y-90342700D01*
X153865113Y-90342699D01*
X153865115Y-90342699D01*
X153659181Y-90322417D01*
X153453248Y-90342699D01*
X153255224Y-90402769D01*
X153167295Y-90449769D01*
X153072731Y-90500315D01*
X153072729Y-90500316D01*
X153072728Y-90500317D01*
X152912770Y-90631589D01*
X152781498Y-90791547D01*
X152683950Y-90974043D01*
X152623880Y-91172067D01*
X152603598Y-91378000D01*
X152623880Y-91583932D01*
X152623881Y-91583934D01*
X152683949Y-91781954D01*
X152781496Y-91964450D01*
X152781498Y-91964452D01*
X152912770Y-92124410D01*
X153007246Y-92201943D01*
X153072731Y-92255685D01*
X153255227Y-92353232D01*
X153321732Y-92373405D01*
X153380170Y-92411702D01*
X153408627Y-92475514D01*
X153398068Y-92544581D01*
X153351844Y-92596975D01*
X153317831Y-92611841D01*
X153195695Y-92644567D01*
X153195688Y-92644570D01*
X152981603Y-92744399D01*
X152981601Y-92744400D01*
X152788107Y-92879886D01*
X152788101Y-92879891D01*
X152621072Y-93046920D01*
X152621071Y-93046922D01*
X152490756Y-93233031D01*
X152436179Y-93276655D01*
X152366680Y-93283848D01*
X152304326Y-93252326D01*
X152287606Y-93233031D01*
X152157290Y-93046922D01*
X152157289Y-93046920D01*
X151990263Y-92879894D01*
X151796759Y-92744399D01*
X151582673Y-92644570D01*
X151582667Y-92644567D01*
X151460530Y-92611841D01*
X151400870Y-92575476D01*
X151370341Y-92512629D01*
X151378636Y-92443253D01*
X151423121Y-92389375D01*
X151456625Y-92373407D01*
X151523135Y-92353232D01*
X151705631Y-92255685D01*
X151865591Y-92124410D01*
X151996866Y-91964450D01*
X152094413Y-91781954D01*
X152154481Y-91583934D01*
X152174764Y-91378000D01*
X152154481Y-91172066D01*
X152094413Y-90974046D01*
X151996866Y-90791550D01*
X151944883Y-90728209D01*
X151865591Y-90631589D01*
X151715302Y-90508252D01*
X151705631Y-90500315D01*
X151523135Y-90402768D01*
X151325115Y-90342700D01*
X151325113Y-90342699D01*
X151325115Y-90342699D01*
X151119181Y-90322417D01*
X150913248Y-90342699D01*
X150715224Y-90402769D01*
X150627295Y-90449769D01*
X150532731Y-90500315D01*
X150532729Y-90500316D01*
X150532728Y-90500317D01*
X150372770Y-90631589D01*
X150241498Y-90791547D01*
X150143950Y-90974043D01*
X150083880Y-91172067D01*
X150063598Y-91378000D01*
X150083880Y-91583932D01*
X150083881Y-91583934D01*
X150143949Y-91781954D01*
X150241496Y-91964450D01*
X150241498Y-91964452D01*
X150372770Y-92124410D01*
X150467246Y-92201943D01*
X150532731Y-92255685D01*
X150715227Y-92353232D01*
X150781732Y-92373405D01*
X150840170Y-92411702D01*
X150868627Y-92475514D01*
X150858068Y-92544581D01*
X150811844Y-92596975D01*
X150777831Y-92611841D01*
X150655695Y-92644567D01*
X150655688Y-92644570D01*
X150441603Y-92744399D01*
X150441601Y-92744400D01*
X150248107Y-92879886D01*
X150248101Y-92879891D01*
X150081072Y-93046920D01*
X150081071Y-93046922D01*
X149950756Y-93233031D01*
X149896179Y-93276655D01*
X149826680Y-93283848D01*
X149764326Y-93252326D01*
X149747606Y-93233031D01*
X149617290Y-93046922D01*
X149617289Y-93046920D01*
X149450263Y-92879894D01*
X149256759Y-92744399D01*
X149042673Y-92644570D01*
X149042667Y-92644567D01*
X148920530Y-92611841D01*
X148860870Y-92575476D01*
X148830341Y-92512629D01*
X148838636Y-92443253D01*
X148883121Y-92389375D01*
X148916625Y-92373407D01*
X148983135Y-92353232D01*
X149165631Y-92255685D01*
X149325591Y-92124410D01*
X149456866Y-91964450D01*
X149554413Y-91781954D01*
X149614481Y-91583934D01*
X149634764Y-91378000D01*
X149614481Y-91172066D01*
X149554413Y-90974046D01*
X149456866Y-90791550D01*
X149404883Y-90728209D01*
X149325591Y-90631589D01*
X149175302Y-90508252D01*
X149165631Y-90500315D01*
X148983135Y-90402768D01*
X148785115Y-90342700D01*
X148785113Y-90342699D01*
X148785115Y-90342699D01*
X148579181Y-90322417D01*
X148373248Y-90342699D01*
X148175224Y-90402769D01*
X148087295Y-90449769D01*
X147992731Y-90500315D01*
X147992729Y-90500316D01*
X147992728Y-90500317D01*
X147832770Y-90631589D01*
X147701498Y-90791547D01*
X147603950Y-90974043D01*
X147543880Y-91172067D01*
X147523598Y-91378000D01*
X147543880Y-91583932D01*
X147543881Y-91583934D01*
X147603949Y-91781954D01*
X147701496Y-91964450D01*
X147701498Y-91964452D01*
X147832770Y-92124410D01*
X147927246Y-92201943D01*
X147992731Y-92255685D01*
X148175227Y-92353232D01*
X148241732Y-92373405D01*
X148300170Y-92411702D01*
X148328627Y-92475514D01*
X148318068Y-92544581D01*
X148271844Y-92596975D01*
X148237831Y-92611841D01*
X148115695Y-92644567D01*
X148115688Y-92644570D01*
X147901603Y-92744399D01*
X147901601Y-92744400D01*
X147708107Y-92879886D01*
X147708101Y-92879891D01*
X147541072Y-93046920D01*
X147541071Y-93046922D01*
X147410756Y-93233031D01*
X147356179Y-93276655D01*
X147286680Y-93283848D01*
X147224326Y-93252326D01*
X147207606Y-93233031D01*
X147077290Y-93046922D01*
X147077289Y-93046920D01*
X146910263Y-92879894D01*
X146716759Y-92744399D01*
X146502673Y-92644570D01*
X146502667Y-92644567D01*
X146380530Y-92611841D01*
X146320870Y-92575476D01*
X146290341Y-92512629D01*
X146298636Y-92443253D01*
X146343121Y-92389375D01*
X146376625Y-92373407D01*
X146443135Y-92353232D01*
X146625631Y-92255685D01*
X146785591Y-92124410D01*
X146916866Y-91964450D01*
X147014413Y-91781954D01*
X147074481Y-91583934D01*
X147094764Y-91378000D01*
X147074481Y-91172066D01*
X147014413Y-90974046D01*
X146916866Y-90791550D01*
X146864883Y-90728209D01*
X146785591Y-90631589D01*
X146635302Y-90508252D01*
X146625631Y-90500315D01*
X146443135Y-90402768D01*
X146245115Y-90342700D01*
X146245113Y-90342699D01*
X146245115Y-90342699D01*
X146039181Y-90322417D01*
X145833248Y-90342699D01*
X145635224Y-90402769D01*
X145547295Y-90449769D01*
X145452731Y-90500315D01*
X145452729Y-90500316D01*
X145452728Y-90500317D01*
X145292770Y-90631589D01*
X145161498Y-90791547D01*
X145063950Y-90974043D01*
X145003880Y-91172067D01*
X144983598Y-91378000D01*
X145003880Y-91583932D01*
X145003881Y-91583934D01*
X145063949Y-91781954D01*
X145161496Y-91964450D01*
X145161498Y-91964452D01*
X145292770Y-92124410D01*
X145387246Y-92201943D01*
X145452731Y-92255685D01*
X145635227Y-92353232D01*
X145701732Y-92373405D01*
X145760170Y-92411702D01*
X145788627Y-92475514D01*
X145778068Y-92544581D01*
X145731844Y-92596975D01*
X145697831Y-92611841D01*
X145575695Y-92644567D01*
X145575688Y-92644570D01*
X145361603Y-92744399D01*
X145361601Y-92744400D01*
X145168107Y-92879886D01*
X145168101Y-92879891D01*
X145001072Y-93046920D01*
X145001071Y-93046922D01*
X144870756Y-93233031D01*
X144816179Y-93276655D01*
X144746680Y-93283848D01*
X144684326Y-93252326D01*
X144667606Y-93233031D01*
X144537290Y-93046922D01*
X144537289Y-93046920D01*
X144370263Y-92879894D01*
X144176759Y-92744399D01*
X143962673Y-92644570D01*
X143962667Y-92644567D01*
X143840530Y-92611841D01*
X143780870Y-92575476D01*
X143750341Y-92512629D01*
X143758636Y-92443253D01*
X143803121Y-92389375D01*
X143836625Y-92373407D01*
X143903135Y-92353232D01*
X144085631Y-92255685D01*
X144245591Y-92124410D01*
X144376866Y-91964450D01*
X144474413Y-91781954D01*
X144534481Y-91583934D01*
X144554764Y-91378000D01*
X144534481Y-91172066D01*
X144474413Y-90974046D01*
X144376866Y-90791550D01*
X144324883Y-90728209D01*
X144245591Y-90631589D01*
X144095302Y-90508252D01*
X144085631Y-90500315D01*
X143903135Y-90402768D01*
X143705115Y-90342700D01*
X143705113Y-90342699D01*
X143705115Y-90342699D01*
X143499181Y-90322417D01*
X143293248Y-90342699D01*
X143095224Y-90402769D01*
X143007295Y-90449769D01*
X142912731Y-90500315D01*
X142912729Y-90500316D01*
X142912728Y-90500317D01*
X142752770Y-90631589D01*
X142621498Y-90791547D01*
X142523950Y-90974043D01*
X142463880Y-91172067D01*
X142443598Y-91378000D01*
X142463880Y-91583932D01*
X142463881Y-91583934D01*
X142523949Y-91781954D01*
X142621496Y-91964450D01*
X142621498Y-91964452D01*
X142752770Y-92124410D01*
X142847246Y-92201943D01*
X142912731Y-92255685D01*
X143095227Y-92353232D01*
X143161732Y-92373405D01*
X143220170Y-92411702D01*
X143248627Y-92475514D01*
X143238068Y-92544581D01*
X143191844Y-92596975D01*
X143157831Y-92611841D01*
X143035695Y-92644567D01*
X143035688Y-92644570D01*
X142821603Y-92744399D01*
X142821601Y-92744400D01*
X142628107Y-92879886D01*
X142628101Y-92879891D01*
X142461072Y-93046920D01*
X142461071Y-93046922D01*
X142330756Y-93233031D01*
X142276179Y-93276655D01*
X142206680Y-93283848D01*
X142144326Y-93252326D01*
X142127606Y-93233031D01*
X141997290Y-93046922D01*
X141997289Y-93046920D01*
X141830263Y-92879894D01*
X141636759Y-92744399D01*
X141422673Y-92644570D01*
X141422667Y-92644567D01*
X141300530Y-92611841D01*
X141240870Y-92575476D01*
X141210341Y-92512629D01*
X141218636Y-92443253D01*
X141263121Y-92389375D01*
X141296625Y-92373407D01*
X141363135Y-92353232D01*
X141545631Y-92255685D01*
X141705591Y-92124410D01*
X141836866Y-91964450D01*
X141934413Y-91781954D01*
X141994481Y-91583934D01*
X142014764Y-91378000D01*
X141994481Y-91172066D01*
X141934413Y-90974046D01*
X141836866Y-90791550D01*
X141784883Y-90728209D01*
X141705591Y-90631589D01*
X141555302Y-90508252D01*
X141545631Y-90500315D01*
X141363135Y-90402768D01*
X141165115Y-90342700D01*
X141165113Y-90342699D01*
X141165115Y-90342699D01*
X140959181Y-90322417D01*
X140753248Y-90342699D01*
X140555224Y-90402769D01*
X140467295Y-90449769D01*
X140372731Y-90500315D01*
X140372729Y-90500316D01*
X140372728Y-90500317D01*
X140212770Y-90631589D01*
X140081498Y-90791547D01*
X139983950Y-90974043D01*
X139923880Y-91172067D01*
X139903598Y-91378000D01*
X139923880Y-91583932D01*
X139923881Y-91583934D01*
X139983949Y-91781954D01*
X140081496Y-91964450D01*
X140081498Y-91964452D01*
X140212770Y-92124410D01*
X140307246Y-92201943D01*
X140372731Y-92255685D01*
X140555227Y-92353232D01*
X140621732Y-92373405D01*
X140680170Y-92411702D01*
X140708627Y-92475514D01*
X140698068Y-92544581D01*
X140651844Y-92596975D01*
X140617831Y-92611841D01*
X140495695Y-92644567D01*
X140495688Y-92644570D01*
X140281603Y-92744399D01*
X140281601Y-92744400D01*
X140088107Y-92879886D01*
X140088101Y-92879891D01*
X139921072Y-93046920D01*
X139921071Y-93046922D01*
X139790756Y-93233031D01*
X139736179Y-93276655D01*
X139666680Y-93283848D01*
X139604326Y-93252326D01*
X139587606Y-93233031D01*
X139457290Y-93046922D01*
X139457289Y-93046920D01*
X139290263Y-92879894D01*
X139096759Y-92744399D01*
X138882673Y-92644570D01*
X138882667Y-92644567D01*
X138760530Y-92611841D01*
X138700870Y-92575476D01*
X138670341Y-92512629D01*
X138678636Y-92443253D01*
X138723121Y-92389375D01*
X138756625Y-92373407D01*
X138823135Y-92353232D01*
X139005631Y-92255685D01*
X139165591Y-92124410D01*
X139296866Y-91964450D01*
X139394413Y-91781954D01*
X139454481Y-91583934D01*
X139474764Y-91378000D01*
X139454481Y-91172066D01*
X139394413Y-90974046D01*
X139296866Y-90791550D01*
X139244883Y-90728209D01*
X139165591Y-90631589D01*
X139015302Y-90508252D01*
X139005631Y-90500315D01*
X138823135Y-90402768D01*
X138625115Y-90342700D01*
X138625113Y-90342699D01*
X138625115Y-90342699D01*
X138419181Y-90322417D01*
X138213248Y-90342699D01*
X138015224Y-90402769D01*
X137927295Y-90449769D01*
X137832731Y-90500315D01*
X137832729Y-90500316D01*
X137832728Y-90500317D01*
X137672770Y-90631589D01*
X137541498Y-90791547D01*
X137443950Y-90974043D01*
X137383880Y-91172067D01*
X137363598Y-91378000D01*
X137383880Y-91583932D01*
X137383881Y-91583934D01*
X137443949Y-91781954D01*
X137541496Y-91964450D01*
X137541498Y-91964452D01*
X137672770Y-92124410D01*
X137767246Y-92201943D01*
X137832731Y-92255685D01*
X138015227Y-92353232D01*
X138081732Y-92373405D01*
X138140170Y-92411702D01*
X138168627Y-92475514D01*
X138158068Y-92544581D01*
X138111844Y-92596975D01*
X138077831Y-92611841D01*
X137955695Y-92644567D01*
X137955688Y-92644570D01*
X137741603Y-92744399D01*
X137741601Y-92744400D01*
X137548107Y-92879886D01*
X137548101Y-92879891D01*
X137381072Y-93046920D01*
X137381071Y-93046922D01*
X137250756Y-93233031D01*
X137196179Y-93276655D01*
X137126680Y-93283848D01*
X137064326Y-93252326D01*
X137047606Y-93233031D01*
X136917290Y-93046922D01*
X136917289Y-93046920D01*
X136750263Y-92879894D01*
X136556759Y-92744399D01*
X136342673Y-92644570D01*
X136342667Y-92644567D01*
X136220530Y-92611841D01*
X136160870Y-92575476D01*
X136130341Y-92512629D01*
X136138636Y-92443253D01*
X136183121Y-92389375D01*
X136216625Y-92373407D01*
X136283135Y-92353232D01*
X136465631Y-92255685D01*
X136625591Y-92124410D01*
X136756866Y-91964450D01*
X136854413Y-91781954D01*
X136914481Y-91583934D01*
X136934764Y-91378000D01*
X136914481Y-91172066D01*
X136854413Y-90974046D01*
X136756866Y-90791550D01*
X136704883Y-90728209D01*
X136625591Y-90631589D01*
X136475302Y-90508252D01*
X136465631Y-90500315D01*
X136283135Y-90402768D01*
X136085115Y-90342700D01*
X136085113Y-90342699D01*
X136085115Y-90342699D01*
X135879181Y-90322417D01*
X135673248Y-90342699D01*
X135475224Y-90402769D01*
X135387295Y-90449769D01*
X135292731Y-90500315D01*
X135292729Y-90500316D01*
X135292728Y-90500317D01*
X135132770Y-90631589D01*
X135001498Y-90791547D01*
X134903950Y-90974043D01*
X134843880Y-91172067D01*
X134823598Y-91378000D01*
X134843880Y-91583932D01*
X134843881Y-91583934D01*
X134903949Y-91781954D01*
X135001496Y-91964450D01*
X135001498Y-91964452D01*
X135132770Y-92124410D01*
X135227246Y-92201943D01*
X135292731Y-92255685D01*
X135475227Y-92353232D01*
X135541732Y-92373405D01*
X135600170Y-92411702D01*
X135628627Y-92475514D01*
X135618068Y-92544581D01*
X135571844Y-92596975D01*
X135537831Y-92611841D01*
X135415695Y-92644567D01*
X135415688Y-92644570D01*
X135201603Y-92744399D01*
X135201601Y-92744400D01*
X135008107Y-92879886D01*
X135008101Y-92879891D01*
X134841072Y-93046920D01*
X134841067Y-93046926D01*
X134705581Y-93240420D01*
X134705580Y-93240422D01*
X134605751Y-93454507D01*
X134605748Y-93454513D01*
X134548545Y-93667999D01*
X131966134Y-93667999D01*
X132002587Y-93579993D01*
X132063674Y-93352014D01*
X132094481Y-93118011D01*
X132094481Y-92881989D01*
X132063674Y-92647986D01*
X132002587Y-92420007D01*
X131912265Y-92201951D01*
X131912263Y-92201948D01*
X131912261Y-92201943D01*
X131867497Y-92124410D01*
X131794254Y-91997550D01*
X131650573Y-91810301D01*
X131650568Y-91810295D01*
X131483685Y-91643412D01*
X131483678Y-91643406D01*
X131296435Y-91499730D01*
X131296434Y-91499729D01*
X131296431Y-91499727D01*
X131214938Y-91452677D01*
X131092037Y-91381719D01*
X131092026Y-91381714D01*
X130873974Y-91291394D01*
X130645991Y-91230306D01*
X130412001Y-91199501D01*
X130411998Y-91199500D01*
X130411992Y-91199500D01*
X130175970Y-91199500D01*
X130175964Y-91199500D01*
X130175960Y-91199501D01*
X129941970Y-91230306D01*
X129713987Y-91291394D01*
X129495935Y-91381714D01*
X129495924Y-91381719D01*
X129291526Y-91499730D01*
X129104283Y-91643406D01*
X129104276Y-91643412D01*
X128937393Y-91810295D01*
X128937387Y-91810302D01*
X128793711Y-91997545D01*
X128675700Y-92201943D01*
X128675695Y-92201954D01*
X128585375Y-92420006D01*
X128524287Y-92647989D01*
X128493482Y-92881979D01*
X128493481Y-92881995D01*
X127544481Y-92881995D01*
X127544481Y-67499994D01*
X128288840Y-67499994D01*
X128288840Y-67500005D01*
X128309366Y-67747729D01*
X128309368Y-67747738D01*
X128370393Y-67988717D01*
X128470247Y-68216364D01*
X128570545Y-68369882D01*
X129270193Y-67670234D01*
X129281463Y-67712292D01*
X129353871Y-67837708D01*
X129456273Y-67940110D01*
X129581689Y-68012518D01*
X129623746Y-68023787D01*
X128923923Y-68723609D01*
X128970749Y-68760055D01*
X128970751Y-68760056D01*
X129189366Y-68878364D01*
X129189377Y-68878369D01*
X129424487Y-68959083D01*
X129669688Y-69000000D01*
X129918274Y-69000000D01*
X130163474Y-68959083D01*
X130398584Y-68878369D01*
X130398595Y-68878364D01*
X130617209Y-68760057D01*
X130617212Y-68760055D01*
X130664037Y-68723609D01*
X129964215Y-68023787D01*
X130006273Y-68012518D01*
X130131689Y-67940110D01*
X130234091Y-67837708D01*
X130306499Y-67712292D01*
X130317768Y-67670235D01*
X131017415Y-68369882D01*
X131117712Y-68216369D01*
X131217568Y-67988717D01*
X131278593Y-67747738D01*
X131278595Y-67747729D01*
X131299122Y-67500005D01*
X131299122Y-67499994D01*
X131278595Y-67252270D01*
X131278593Y-67252261D01*
X131217568Y-67011282D01*
X131117712Y-66783630D01*
X131017415Y-66630116D01*
X130317768Y-67329764D01*
X130306499Y-67287708D01*
X130234091Y-67162292D01*
X130131689Y-67059890D01*
X130006273Y-66987482D01*
X129964216Y-66976212D01*
X130664038Y-66276390D01*
X130664037Y-66276389D01*
X130617210Y-66239943D01*
X130398595Y-66121635D01*
X130398584Y-66121630D01*
X130163474Y-66040916D01*
X129918274Y-66000000D01*
X129669688Y-66000000D01*
X129424487Y-66040916D01*
X129189377Y-66121630D01*
X129189371Y-66121632D01*
X128970742Y-66239949D01*
X128923923Y-66276388D01*
X128923923Y-66276390D01*
X129623746Y-66976212D01*
X129581689Y-66987482D01*
X129456273Y-67059890D01*
X129353871Y-67162292D01*
X129281463Y-67287708D01*
X129270193Y-67329764D01*
X128570545Y-66630116D01*
X128470248Y-66783632D01*
X128370393Y-67011282D01*
X128309368Y-67252261D01*
X128309366Y-67252270D01*
X128288840Y-67499994D01*
X127544481Y-67499994D01*
X127544481Y-60999994D01*
X128288840Y-60999994D01*
X128288840Y-61000005D01*
X128309366Y-61247729D01*
X128309368Y-61247738D01*
X128370393Y-61488717D01*
X128470247Y-61716364D01*
X128570545Y-61869882D01*
X129270193Y-61170234D01*
X129281463Y-61212292D01*
X129353871Y-61337708D01*
X129456273Y-61440110D01*
X129581689Y-61512518D01*
X129623746Y-61523787D01*
X128923923Y-62223609D01*
X128970749Y-62260055D01*
X128970751Y-62260056D01*
X129189366Y-62378364D01*
X129189377Y-62378369D01*
X129424487Y-62459083D01*
X129669688Y-62500000D01*
X129918274Y-62500000D01*
X130163474Y-62459083D01*
X130398584Y-62378369D01*
X130398595Y-62378364D01*
X130617209Y-62260057D01*
X130617212Y-62260055D01*
X130664037Y-62223609D01*
X129964215Y-61523787D01*
X130006273Y-61512518D01*
X130131689Y-61440110D01*
X130234091Y-61337708D01*
X130306499Y-61212292D01*
X130317768Y-61170235D01*
X131017415Y-61869882D01*
X131117712Y-61716369D01*
X131217568Y-61488717D01*
X131278593Y-61247738D01*
X131278595Y-61247729D01*
X131299122Y-61000005D01*
X131299122Y-60999994D01*
X131278595Y-60752270D01*
X131278593Y-60752261D01*
X131217568Y-60511282D01*
X131117712Y-60283630D01*
X131017415Y-60130116D01*
X130317768Y-60829764D01*
X130306499Y-60787708D01*
X130234091Y-60662292D01*
X130131689Y-60559890D01*
X130006273Y-60487482D01*
X129964216Y-60476212D01*
X130664038Y-59776390D01*
X130664037Y-59776389D01*
X130617210Y-59739943D01*
X130398595Y-59621635D01*
X130398584Y-59621630D01*
X130163474Y-59540916D01*
X129918274Y-59500000D01*
X129669688Y-59500000D01*
X129424487Y-59540916D01*
X129189377Y-59621630D01*
X129189371Y-59621632D01*
X128970742Y-59739949D01*
X128923923Y-59776388D01*
X128923923Y-59776390D01*
X129623746Y-60476212D01*
X129581689Y-60487482D01*
X129456273Y-60559890D01*
X129353871Y-60662292D01*
X129281463Y-60787708D01*
X129270193Y-60829764D01*
X128570545Y-60130116D01*
X128470248Y-60283632D01*
X128370393Y-60511282D01*
X128309368Y-60752261D01*
X128309366Y-60752270D01*
X128288840Y-60999994D01*
X127544481Y-60999994D01*
X127544481Y-59297000D01*
X131639591Y-59297000D01*
X131659049Y-59432337D01*
X131659051Y-59432345D01*
X131715848Y-59556714D01*
X131715850Y-59556716D01*
X131715851Y-59556718D01*
X131789195Y-59641362D01*
X131818219Y-59704916D01*
X131819481Y-59722563D01*
X131819481Y-76481562D01*
X131825681Y-76504699D01*
X131839960Y-76557990D01*
X131843874Y-76564769D01*
X131863644Y-76599011D01*
X131879521Y-76626511D01*
X139809470Y-84556460D01*
X139868810Y-84590720D01*
X139877989Y-84596020D01*
X139877993Y-84596022D01*
X139954419Y-84616500D01*
X139954421Y-84616500D01*
X148415541Y-84616500D01*
X148415543Y-84616500D01*
X148491970Y-84596021D01*
X148560492Y-84556460D01*
X148616441Y-84500511D01*
X149379606Y-83737346D01*
X149440929Y-83703861D01*
X149467287Y-83701027D01*
X149534821Y-83701027D01*
X149666015Y-83662505D01*
X149781043Y-83588582D01*
X149870584Y-83485245D01*
X149927385Y-83360869D01*
X149946844Y-83225527D01*
X149927385Y-83090185D01*
X149899010Y-83028052D01*
X149870586Y-82965812D01*
X149870581Y-82965805D01*
X149781044Y-82862473D01*
X149781040Y-82862469D01*
X149684370Y-82800345D01*
X149666015Y-82788549D01*
X149666014Y-82788548D01*
X149666013Y-82788548D01*
X149534822Y-82750027D01*
X149534821Y-82750027D01*
X149398087Y-82750027D01*
X149398086Y-82750027D01*
X149266894Y-82788548D01*
X149151867Y-82862469D01*
X149151863Y-82862473D01*
X149062326Y-82965805D01*
X149062321Y-82965812D01*
X149005524Y-83090181D01*
X149005522Y-83090189D01*
X148986064Y-83225527D01*
X148986064Y-83229583D01*
X148984921Y-83233473D01*
X148984802Y-83234305D01*
X148984682Y-83234287D01*
X148966379Y-83296622D01*
X148949745Y-83317264D01*
X148287829Y-83979181D01*
X148226506Y-84012666D01*
X148200148Y-84015500D01*
X140169814Y-84015500D01*
X140102775Y-83995815D01*
X140082133Y-83979181D01*
X138767952Y-82665000D01*
X140402591Y-82665000D01*
X140422049Y-82800337D01*
X140422051Y-82800345D01*
X140478848Y-82924714D01*
X140478853Y-82924721D01*
X140568390Y-83028053D01*
X140568394Y-83028057D01*
X140611227Y-83055583D01*
X140683420Y-83101978D01*
X140749017Y-83121239D01*
X140814613Y-83140500D01*
X140814614Y-83140500D01*
X140951348Y-83140500D01*
X141082542Y-83101978D01*
X141197570Y-83028055D01*
X141205695Y-83018677D01*
X141214691Y-83008297D01*
X141273469Y-82970523D01*
X141308403Y-82965500D01*
X143957687Y-82965500D01*
X144024726Y-82985185D01*
X144051400Y-83008297D01*
X144134393Y-83104077D01*
X144134395Y-83104078D01*
X144134395Y-83104079D01*
X144181933Y-83134629D01*
X144249421Y-83178000D01*
X144315018Y-83197261D01*
X144380614Y-83216522D01*
X144380615Y-83216522D01*
X144517349Y-83216522D01*
X144648543Y-83178000D01*
X144763571Y-83104077D01*
X144853112Y-83000740D01*
X144855549Y-82995405D01*
X144887832Y-82924714D01*
X144909913Y-82876364D01*
X144929372Y-82741022D01*
X144909913Y-82605680D01*
X144875193Y-82529654D01*
X144853114Y-82481307D01*
X144853109Y-82481300D01*
X144763572Y-82377968D01*
X144763568Y-82377964D01*
X144648541Y-82304043D01*
X144517350Y-82265522D01*
X144517349Y-82265522D01*
X144380615Y-82265522D01*
X144380614Y-82265522D01*
X144249423Y-82304042D01*
X144249419Y-82304044D01*
X144185977Y-82344816D01*
X144118938Y-82364500D01*
X141308403Y-82364500D01*
X141241364Y-82344815D01*
X141214691Y-82321703D01*
X141197572Y-82301947D01*
X141197567Y-82301942D01*
X141082540Y-82228021D01*
X140951349Y-82189500D01*
X140951348Y-82189500D01*
X140814614Y-82189500D01*
X140814613Y-82189500D01*
X140683421Y-82228021D01*
X140568394Y-82301942D01*
X140568390Y-82301946D01*
X140478853Y-82405278D01*
X140478848Y-82405285D01*
X140422051Y-82529654D01*
X140422049Y-82529662D01*
X140402591Y-82665000D01*
X138767952Y-82665000D01*
X138203012Y-82100060D01*
X146275972Y-82100060D01*
X146303080Y-82177529D01*
X146392999Y-82320635D01*
X146512508Y-82440144D01*
X146655610Y-82530062D01*
X146733083Y-82557170D01*
X146733084Y-82557170D01*
X147233084Y-82557170D01*
X147310557Y-82530062D01*
X147453659Y-82440144D01*
X147573168Y-82320635D01*
X147663087Y-82177529D01*
X147690195Y-82100060D01*
X147233084Y-82100060D01*
X147233084Y-82557170D01*
X146733084Y-82557170D01*
X146733084Y-82100060D01*
X146275972Y-82100060D01*
X138203012Y-82100060D01*
X137495905Y-81392953D01*
X145568865Y-81392953D01*
X145595973Y-81470422D01*
X145685892Y-81613528D01*
X145805401Y-81733037D01*
X145948503Y-81822955D01*
X146025976Y-81850063D01*
X146025977Y-81850063D01*
X146025977Y-81830169D01*
X146883084Y-81830169D01*
X146883084Y-81869951D01*
X146898308Y-81906705D01*
X146926439Y-81934836D01*
X146963193Y-81950060D01*
X147002975Y-81950060D01*
X147039729Y-81934836D01*
X147067860Y-81906705D01*
X147083084Y-81869951D01*
X147083084Y-81850063D01*
X147940191Y-81850063D01*
X148017664Y-81822955D01*
X148160766Y-81733037D01*
X148280275Y-81613528D01*
X148370194Y-81470422D01*
X148397302Y-81392953D01*
X147940191Y-81392953D01*
X147940191Y-81850063D01*
X147083084Y-81850063D01*
X147083084Y-81830169D01*
X147067860Y-81793415D01*
X147039729Y-81765284D01*
X147002975Y-81750060D01*
X146963193Y-81750060D01*
X146926439Y-81765284D01*
X146898308Y-81793415D01*
X146883084Y-81830169D01*
X146025977Y-81830169D01*
X146025977Y-81600060D01*
X146525977Y-81600060D01*
X146733084Y-81600060D01*
X147233084Y-81600060D01*
X147440191Y-81600060D01*
X147440191Y-81392953D01*
X147233084Y-81392953D01*
X147233084Y-81600060D01*
X146733084Y-81600060D01*
X146733084Y-81392953D01*
X146525977Y-81392953D01*
X146525977Y-81600060D01*
X146025977Y-81600060D01*
X146025977Y-81392953D01*
X145568865Y-81392953D01*
X137495905Y-81392953D01*
X136788798Y-80685846D01*
X144861758Y-80685846D01*
X144888866Y-80763315D01*
X144978785Y-80906421D01*
X145098294Y-81025930D01*
X145241396Y-81115848D01*
X145318869Y-81142956D01*
X145318870Y-81142956D01*
X145318870Y-81123062D01*
X146175977Y-81123062D01*
X146175977Y-81162844D01*
X146191201Y-81199598D01*
X146219332Y-81227729D01*
X146256086Y-81242953D01*
X146295868Y-81242953D01*
X146332622Y-81227729D01*
X146360753Y-81199598D01*
X146375977Y-81162844D01*
X146375977Y-81123062D01*
X147590191Y-81123062D01*
X147590191Y-81162844D01*
X147605415Y-81199598D01*
X147633546Y-81227729D01*
X147670300Y-81242953D01*
X147710082Y-81242953D01*
X147746836Y-81227729D01*
X147774967Y-81199598D01*
X147790191Y-81162844D01*
X147790191Y-81142956D01*
X148647298Y-81142956D01*
X148724771Y-81115848D01*
X148867873Y-81025930D01*
X148987382Y-80906421D01*
X149077301Y-80763315D01*
X149104409Y-80685846D01*
X148647298Y-80685846D01*
X148647298Y-81142956D01*
X147790191Y-81142956D01*
X147790191Y-81123062D01*
X147774967Y-81086308D01*
X147746836Y-81058177D01*
X147710082Y-81042953D01*
X147670300Y-81042953D01*
X147633546Y-81058177D01*
X147605415Y-81086308D01*
X147590191Y-81123062D01*
X146375977Y-81123062D01*
X146360753Y-81086308D01*
X146332622Y-81058177D01*
X146295868Y-81042953D01*
X146256086Y-81042953D01*
X146219332Y-81058177D01*
X146191201Y-81086308D01*
X146175977Y-81123062D01*
X145318870Y-81123062D01*
X145318870Y-80892953D01*
X145818870Y-80892953D01*
X146025977Y-80892953D01*
X146525977Y-80892953D01*
X146733084Y-80892953D01*
X147233084Y-80892953D01*
X147440191Y-80892953D01*
X147940191Y-80892953D01*
X148147298Y-80892953D01*
X148147298Y-80685846D01*
X147940191Y-80685846D01*
X147940191Y-80892953D01*
X147440191Y-80892953D01*
X147440191Y-80685846D01*
X147233084Y-80685846D01*
X147233084Y-80892953D01*
X146733084Y-80892953D01*
X146733084Y-80685846D01*
X146525977Y-80685846D01*
X146525977Y-80892953D01*
X146025977Y-80892953D01*
X146025977Y-80685846D01*
X145818870Y-80685846D01*
X145818870Y-80892953D01*
X145318870Y-80892953D01*
X145318870Y-80685846D01*
X144861758Y-80685846D01*
X136788798Y-80685846D01*
X136518907Y-80415955D01*
X145468870Y-80415955D01*
X145468870Y-80455737D01*
X145484094Y-80492491D01*
X145512225Y-80520622D01*
X145548979Y-80535846D01*
X145588761Y-80535846D01*
X145625515Y-80520622D01*
X145653646Y-80492491D01*
X145668870Y-80455737D01*
X145668870Y-80415955D01*
X146883084Y-80415955D01*
X146883084Y-80455737D01*
X146898308Y-80492491D01*
X146926439Y-80520622D01*
X146963193Y-80535846D01*
X147002975Y-80535846D01*
X147039729Y-80520622D01*
X147067860Y-80492491D01*
X147083084Y-80455737D01*
X147083084Y-80415955D01*
X148297298Y-80415955D01*
X148297298Y-80455737D01*
X148312522Y-80492491D01*
X148340653Y-80520622D01*
X148377407Y-80535846D01*
X148417189Y-80535846D01*
X148453943Y-80520622D01*
X148482074Y-80492491D01*
X148497298Y-80455737D01*
X148497298Y-80415955D01*
X148482074Y-80379201D01*
X148453943Y-80351070D01*
X148417189Y-80335846D01*
X148377407Y-80335846D01*
X148340653Y-80351070D01*
X148312522Y-80379201D01*
X148297298Y-80415955D01*
X147083084Y-80415955D01*
X147067860Y-80379201D01*
X147039729Y-80351070D01*
X147002975Y-80335846D01*
X146963193Y-80335846D01*
X146926439Y-80351070D01*
X146898308Y-80379201D01*
X146883084Y-80415955D01*
X145668870Y-80415955D01*
X145653646Y-80379201D01*
X145625515Y-80351070D01*
X145588761Y-80335846D01*
X145548979Y-80335846D01*
X145512225Y-80351070D01*
X145484094Y-80379201D01*
X145468870Y-80415955D01*
X136518907Y-80415955D01*
X136288797Y-80185845D01*
X144861758Y-80185845D01*
X144861758Y-80185846D01*
X145318870Y-80185846D01*
X145818870Y-80185846D01*
X146025977Y-80185846D01*
X146525977Y-80185846D01*
X146733084Y-80185846D01*
X147233084Y-80185846D01*
X147440191Y-80185846D01*
X147940191Y-80185846D01*
X148147298Y-80185846D01*
X148647298Y-80185846D01*
X149104410Y-80185846D01*
X149104409Y-80185845D01*
X149077301Y-80108376D01*
X148987382Y-79965270D01*
X148867873Y-79845761D01*
X148724767Y-79755842D01*
X148647298Y-79728734D01*
X148647298Y-80185846D01*
X148147298Y-80185846D01*
X148147298Y-79978739D01*
X147940191Y-79978739D01*
X147940191Y-80185846D01*
X147440191Y-80185846D01*
X147440191Y-79978739D01*
X147233084Y-79978739D01*
X147233084Y-80185846D01*
X146733084Y-80185846D01*
X146733084Y-79978739D01*
X146525977Y-79978739D01*
X146525977Y-80185846D01*
X146025977Y-80185846D01*
X146025977Y-79978739D01*
X145818870Y-79978739D01*
X145818870Y-80185846D01*
X145318870Y-80185846D01*
X145318870Y-79728734D01*
X145318869Y-79728734D01*
X145241400Y-79755842D01*
X145098294Y-79845761D01*
X144978785Y-79965270D01*
X144888866Y-80108376D01*
X144861758Y-80185845D01*
X136288797Y-80185845D01*
X135811800Y-79708848D01*
X146175977Y-79708848D01*
X146175977Y-79748630D01*
X146191201Y-79785384D01*
X146219332Y-79813515D01*
X146256086Y-79828739D01*
X146295868Y-79828739D01*
X146332622Y-79813515D01*
X146360753Y-79785384D01*
X146375977Y-79748630D01*
X146375977Y-79708848D01*
X147590191Y-79708848D01*
X147590191Y-79748630D01*
X147605415Y-79785384D01*
X147633546Y-79813515D01*
X147670300Y-79828739D01*
X147710082Y-79828739D01*
X147746836Y-79813515D01*
X147774967Y-79785384D01*
X147790191Y-79748630D01*
X147790191Y-79708848D01*
X147774967Y-79672094D01*
X147746836Y-79643963D01*
X147710082Y-79628739D01*
X147670300Y-79628739D01*
X147633546Y-79643963D01*
X147605415Y-79672094D01*
X147590191Y-79708848D01*
X146375977Y-79708848D01*
X146360753Y-79672094D01*
X146332622Y-79643963D01*
X146295868Y-79628739D01*
X146256086Y-79628739D01*
X146219332Y-79643963D01*
X146191201Y-79672094D01*
X146175977Y-79708848D01*
X135811800Y-79708848D01*
X135581690Y-79478738D01*
X145568865Y-79478738D01*
X145568865Y-79478739D01*
X146025977Y-79478739D01*
X146525977Y-79478739D01*
X146733084Y-79478739D01*
X147233084Y-79478739D01*
X147440191Y-79478739D01*
X147940191Y-79478739D01*
X148397303Y-79478739D01*
X148397302Y-79478738D01*
X148370194Y-79401269D01*
X148280275Y-79258163D01*
X148160766Y-79138654D01*
X148017660Y-79048735D01*
X147940191Y-79021627D01*
X147940191Y-79478739D01*
X147440191Y-79478739D01*
X147440191Y-79271632D01*
X147233084Y-79271632D01*
X147233084Y-79478739D01*
X146733084Y-79478739D01*
X146733084Y-79271632D01*
X146525977Y-79271632D01*
X146525977Y-79478739D01*
X146025977Y-79478739D01*
X146025977Y-79021627D01*
X146025976Y-79021627D01*
X145948507Y-79048735D01*
X145805401Y-79138654D01*
X145685892Y-79258163D01*
X145595973Y-79401269D01*
X145568865Y-79478738D01*
X135581690Y-79478738D01*
X135104693Y-79001741D01*
X146883084Y-79001741D01*
X146883084Y-79041523D01*
X146898308Y-79078277D01*
X146926439Y-79106408D01*
X146963193Y-79121632D01*
X147002975Y-79121632D01*
X147039729Y-79106408D01*
X147067860Y-79078277D01*
X147083084Y-79041523D01*
X147083084Y-79001741D01*
X147067860Y-78964987D01*
X147039729Y-78936856D01*
X147002975Y-78921632D01*
X146963193Y-78921632D01*
X146926439Y-78936856D01*
X146898308Y-78964987D01*
X146883084Y-79001741D01*
X135104693Y-79001741D01*
X134874583Y-78771631D01*
X146275972Y-78771631D01*
X146275972Y-78771632D01*
X146733084Y-78771632D01*
X147233084Y-78771632D01*
X147690196Y-78771632D01*
X147690195Y-78771631D01*
X147663087Y-78694162D01*
X147573168Y-78551056D01*
X147453659Y-78431547D01*
X147310553Y-78341628D01*
X147233084Y-78314520D01*
X147233084Y-78771632D01*
X146733084Y-78771632D01*
X146733084Y-78314520D01*
X146733083Y-78314520D01*
X146655614Y-78341628D01*
X146512508Y-78431547D01*
X146392999Y-78551056D01*
X146303080Y-78694162D01*
X146275972Y-78771631D01*
X134874583Y-78771631D01*
X132456800Y-76353848D01*
X132423315Y-76292525D01*
X132420481Y-76266167D01*
X132420481Y-67499999D01*
X133088338Y-67499999D01*
X133088338Y-67500000D01*
X133108865Y-67721535D01*
X133108866Y-67721537D01*
X133169750Y-67935523D01*
X133169756Y-67935538D01*
X133268919Y-68134683D01*
X133268924Y-68134691D01*
X133403001Y-68312238D01*
X133567418Y-68462123D01*
X133567420Y-68462125D01*
X133756576Y-68579245D01*
X133756577Y-68579245D01*
X133756580Y-68579247D01*
X133964041Y-68659618D01*
X134182738Y-68700500D01*
X134182740Y-68700500D01*
X134405222Y-68700500D01*
X134405224Y-68700500D01*
X134623921Y-68659618D01*
X134831382Y-68579247D01*
X135020543Y-68462124D01*
X135184962Y-68312236D01*
X135319039Y-68134689D01*
X135418210Y-67935528D01*
X135479096Y-67721536D01*
X135499624Y-67500000D01*
X135499623Y-67499994D01*
X135479096Y-67278464D01*
X135479095Y-67278462D01*
X135471640Y-67252261D01*
X135418210Y-67064472D01*
X135418205Y-67064461D01*
X135319042Y-66865316D01*
X135319037Y-66865308D01*
X135184960Y-66687761D01*
X135020543Y-66537876D01*
X135020541Y-66537874D01*
X134831385Y-66420754D01*
X134831379Y-66420752D01*
X134623921Y-66340382D01*
X134405224Y-66299500D01*
X134182738Y-66299500D01*
X133964041Y-66340382D01*
X133832845Y-66391207D01*
X133756582Y-66420752D01*
X133756576Y-66420754D01*
X133567420Y-66537874D01*
X133567418Y-66537876D01*
X133403001Y-66687761D01*
X133268924Y-66865308D01*
X133268919Y-66865316D01*
X133169756Y-67064461D01*
X133169750Y-67064476D01*
X133108866Y-67278462D01*
X133108865Y-67278464D01*
X133088338Y-67499999D01*
X132420481Y-67499999D01*
X132420481Y-60999999D01*
X133088338Y-60999999D01*
X133088338Y-61000000D01*
X133108865Y-61221535D01*
X133108866Y-61221537D01*
X133169750Y-61435523D01*
X133169756Y-61435538D01*
X133268919Y-61634683D01*
X133268924Y-61634691D01*
X133403001Y-61812238D01*
X133567418Y-61962123D01*
X133567420Y-61962125D01*
X133756576Y-62079245D01*
X133756577Y-62079245D01*
X133756580Y-62079247D01*
X133964041Y-62159618D01*
X134182738Y-62200500D01*
X134182740Y-62200500D01*
X134405222Y-62200500D01*
X134405224Y-62200500D01*
X134623921Y-62159618D01*
X134831382Y-62079247D01*
X135020543Y-61962124D01*
X135184962Y-61812236D01*
X135319039Y-61634689D01*
X135339501Y-61593597D01*
X141549015Y-61593597D01*
X141549015Y-61593602D01*
X141568839Y-61820199D01*
X141568841Y-61820210D01*
X141627711Y-62039917D01*
X141627716Y-62039931D01*
X141723844Y-62246078D01*
X141774955Y-62319072D01*
X142371019Y-61723008D01*
X142388057Y-61786592D01*
X142453883Y-61900606D01*
X142546975Y-61993698D01*
X142660989Y-62059524D01*
X142724572Y-62076561D01*
X142128507Y-62672625D01*
X142201494Y-62723732D01*
X142201502Y-62723736D01*
X142407649Y-62819864D01*
X142407663Y-62819869D01*
X142627370Y-62878739D01*
X142627381Y-62878741D01*
X142853979Y-62898566D01*
X142853983Y-62898566D01*
X143080580Y-62878741D01*
X143080591Y-62878739D01*
X143300298Y-62819869D01*
X143300312Y-62819864D01*
X143506459Y-62723736D01*
X143579452Y-62672624D01*
X142983389Y-62076561D01*
X143046973Y-62059524D01*
X143160987Y-61993698D01*
X143254079Y-61900606D01*
X143319905Y-61786592D01*
X143336942Y-61723008D01*
X143933005Y-62319071D01*
X143984117Y-62246078D01*
X144080245Y-62039931D01*
X144080250Y-62039917D01*
X144139120Y-61820210D01*
X144139122Y-61820199D01*
X144150775Y-61687002D01*
X144176227Y-61621933D01*
X144214799Y-61594002D01*
X144332440Y-61594002D01*
X144363364Y-61611530D01*
X144395872Y-61673376D01*
X144397706Y-61685655D01*
X144407956Y-61789729D01*
X144414784Y-61812238D01*
X144462428Y-61969299D01*
X144465169Y-61978333D01*
X144558067Y-62152132D01*
X144558071Y-62152139D01*
X144683097Y-62304483D01*
X144835441Y-62429509D01*
X144835448Y-62429513D01*
X145009247Y-62522411D01*
X145009250Y-62522411D01*
X145009254Y-62522414D01*
X145197849Y-62579624D01*
X145393981Y-62598941D01*
X145590113Y-62579624D01*
X145769682Y-62525151D01*
X145839547Y-62524528D01*
X145893357Y-62556131D01*
X146024841Y-62687615D01*
X146058326Y-62748938D01*
X146061160Y-62775296D01*
X146061160Y-63138274D01*
X146041475Y-63205313D01*
X146030874Y-63219476D01*
X145984530Y-63272960D01*
X145984527Y-63272964D01*
X145927730Y-63397333D01*
X145927728Y-63397341D01*
X145908270Y-63532679D01*
X145927728Y-63668016D01*
X145927730Y-63668024D01*
X145984527Y-63792393D01*
X145984532Y-63792400D01*
X146074069Y-63895732D01*
X146074073Y-63895736D01*
X146134639Y-63934658D01*
X146189099Y-63969657D01*
X146217707Y-63978057D01*
X146320292Y-64008179D01*
X146320293Y-64008179D01*
X146457027Y-64008179D01*
X146588221Y-63969657D01*
X146703249Y-63895734D01*
X146792790Y-63792397D01*
X146849591Y-63668021D01*
X146869050Y-63532679D01*
X146849591Y-63397337D01*
X146805959Y-63301797D01*
X146792792Y-63272964D01*
X146792789Y-63272960D01*
X146787490Y-63266845D01*
X146762705Y-63238240D01*
X146746446Y-63219476D01*
X146717422Y-63155919D01*
X146716160Y-63138274D01*
X146716160Y-62545164D01*
X146710798Y-62525152D01*
X146693841Y-62461869D01*
X146650725Y-62387189D01*
X146589750Y-62326214D01*
X146356512Y-62092976D01*
X146323027Y-62031653D01*
X146325532Y-61969301D01*
X146380005Y-61789732D01*
X146399322Y-61593600D01*
X146928640Y-61593600D01*
X146947956Y-61789729D01*
X146954784Y-61812238D01*
X147002428Y-61969299D01*
X147005169Y-61978333D01*
X147098067Y-62152132D01*
X147098071Y-62152139D01*
X147223097Y-62304483D01*
X147375441Y-62429509D01*
X147375448Y-62429513D01*
X147549247Y-62522411D01*
X147549250Y-62522411D01*
X147549254Y-62522414D01*
X147737849Y-62579624D01*
X147933981Y-62598941D01*
X148130113Y-62579624D01*
X148318708Y-62522414D01*
X148335365Y-62513511D01*
X148492513Y-62429513D01*
X148492519Y-62429510D01*
X148644864Y-62304483D01*
X148769891Y-62152138D01*
X148862795Y-61978327D01*
X148920005Y-61789732D01*
X148939322Y-61593600D01*
X149468640Y-61593600D01*
X149487956Y-61789729D01*
X149494784Y-61812238D01*
X149542428Y-61969299D01*
X149545169Y-61978333D01*
X149638067Y-62152132D01*
X149638071Y-62152139D01*
X149763097Y-62304483D01*
X149915441Y-62429509D01*
X149915448Y-62429513D01*
X150089247Y-62522411D01*
X150089250Y-62522411D01*
X150089254Y-62522414D01*
X150277849Y-62579624D01*
X150473981Y-62598941D01*
X150670113Y-62579624D01*
X150849682Y-62525151D01*
X150919547Y-62524528D01*
X150973357Y-62556131D01*
X151231162Y-62813936D01*
X151264647Y-62875259D01*
X151267481Y-62901617D01*
X151267481Y-63220595D01*
X151247796Y-63287634D01*
X151237195Y-63301797D01*
X151190851Y-63355281D01*
X151190848Y-63355285D01*
X151134051Y-63479654D01*
X151134049Y-63479662D01*
X151114591Y-63615000D01*
X151134049Y-63750337D01*
X151134051Y-63750345D01*
X151190848Y-63874714D01*
X151190853Y-63874721D01*
X151280390Y-63978053D01*
X151280394Y-63978057D01*
X151327266Y-64008179D01*
X151395420Y-64051978D01*
X151461017Y-64071239D01*
X151526613Y-64090500D01*
X151526614Y-64090500D01*
X151663348Y-64090500D01*
X151794542Y-64051978D01*
X151909570Y-63978055D01*
X151999111Y-63874718D01*
X152055912Y-63750342D01*
X152075371Y-63615000D01*
X152055912Y-63479658D01*
X152018317Y-63397337D01*
X151999113Y-63355285D01*
X151999110Y-63355281D01*
X151952767Y-63301797D01*
X151923743Y-63238240D01*
X151922481Y-63220595D01*
X151922481Y-62671485D01*
X151922481Y-62671484D01*
X151900162Y-62588190D01*
X151857046Y-62513510D01*
X151796071Y-62452535D01*
X151436512Y-62092976D01*
X151403027Y-62031653D01*
X151405532Y-61969301D01*
X151460005Y-61789732D01*
X151479322Y-61593600D01*
X151460005Y-61397468D01*
X151402795Y-61208873D01*
X151402792Y-61208869D01*
X151402792Y-61208866D01*
X151309894Y-61035067D01*
X151309890Y-61035060D01*
X151184864Y-60882716D01*
X151032520Y-60757690D01*
X151032513Y-60757686D01*
X150858714Y-60664788D01*
X150858708Y-60664786D01*
X150670113Y-60607576D01*
X150670110Y-60607575D01*
X150473981Y-60588259D01*
X150277851Y-60607575D01*
X150089247Y-60664788D01*
X149915448Y-60757686D01*
X149915441Y-60757690D01*
X149763097Y-60882716D01*
X149638071Y-61035060D01*
X149638067Y-61035067D01*
X149545169Y-61208866D01*
X149487956Y-61397470D01*
X149468640Y-61593600D01*
X148939322Y-61593600D01*
X148920005Y-61397468D01*
X148862795Y-61208873D01*
X148862792Y-61208869D01*
X148862792Y-61208866D01*
X148769894Y-61035067D01*
X148769890Y-61035060D01*
X148644864Y-60882716D01*
X148492520Y-60757690D01*
X148492513Y-60757686D01*
X148318714Y-60664788D01*
X148318708Y-60664786D01*
X148130113Y-60607576D01*
X148130110Y-60607575D01*
X147933981Y-60588259D01*
X147737851Y-60607575D01*
X147549247Y-60664788D01*
X147375448Y-60757686D01*
X147375441Y-60757690D01*
X147223097Y-60882716D01*
X147098071Y-61035060D01*
X147098067Y-61035067D01*
X147005169Y-61208866D01*
X146947956Y-61397470D01*
X146928640Y-61593600D01*
X146399322Y-61593600D01*
X146380005Y-61397468D01*
X146322795Y-61208873D01*
X146322792Y-61208869D01*
X146322792Y-61208866D01*
X146229894Y-61035067D01*
X146229890Y-61035060D01*
X146104864Y-60882716D01*
X145952520Y-60757690D01*
X145952513Y-60757686D01*
X145778714Y-60664788D01*
X145778708Y-60664786D01*
X145590113Y-60607576D01*
X145590110Y-60607575D01*
X145393981Y-60588259D01*
X145197851Y-60607575D01*
X145009247Y-60664788D01*
X144835448Y-60757686D01*
X144835441Y-60757690D01*
X144683097Y-60882716D01*
X144558071Y-61035060D01*
X144558067Y-61035067D01*
X144465169Y-61208866D01*
X144407956Y-61397470D01*
X144397706Y-61501545D01*
X144371545Y-61566332D01*
X144332440Y-61594002D01*
X144214799Y-61594002D01*
X144216012Y-61593124D01*
X144184306Y-61574692D01*
X144152474Y-61512494D01*
X144150775Y-61500197D01*
X144139122Y-61367000D01*
X144139120Y-61366989D01*
X144080250Y-61147282D01*
X144080245Y-61147268D01*
X143984117Y-60941121D01*
X143984113Y-60941113D01*
X143933006Y-60868126D01*
X143336942Y-61464190D01*
X143319905Y-61400608D01*
X143254079Y-61286594D01*
X143160987Y-61193502D01*
X143046973Y-61127676D01*
X142983390Y-61110638D01*
X143579453Y-60514574D01*
X143506459Y-60463463D01*
X143300312Y-60367335D01*
X143300298Y-60367330D01*
X143080591Y-60308460D01*
X143080580Y-60308458D01*
X142853983Y-60288634D01*
X142853979Y-60288634D01*
X142627381Y-60308458D01*
X142627370Y-60308460D01*
X142407663Y-60367330D01*
X142407654Y-60367334D01*
X142201497Y-60463466D01*
X142201493Y-60463468D01*
X142128507Y-60514573D01*
X142128507Y-60514574D01*
X142724572Y-61110638D01*
X142660989Y-61127676D01*
X142546975Y-61193502D01*
X142453883Y-61286594D01*
X142388057Y-61400608D01*
X142371019Y-61464190D01*
X141774955Y-60868126D01*
X141774954Y-60868126D01*
X141723849Y-60941112D01*
X141723847Y-60941116D01*
X141627715Y-61147273D01*
X141627711Y-61147282D01*
X141568841Y-61366989D01*
X141568839Y-61367000D01*
X141549015Y-61593597D01*
X135339501Y-61593597D01*
X135418210Y-61435528D01*
X135479096Y-61221536D01*
X135499624Y-61000000D01*
X135499623Y-60999994D01*
X135479096Y-60778464D01*
X135479095Y-60778462D01*
X135471640Y-60752261D01*
X135418210Y-60564472D01*
X135418205Y-60564461D01*
X135319042Y-60365316D01*
X135319037Y-60365308D01*
X135184960Y-60187761D01*
X135020543Y-60037876D01*
X135020541Y-60037874D01*
X134831385Y-59920754D01*
X134831379Y-59920752D01*
X134623921Y-59840382D01*
X134405224Y-59799500D01*
X134182738Y-59799500D01*
X133964041Y-59840382D01*
X133878946Y-59873348D01*
X133756582Y-59920752D01*
X133756576Y-59920754D01*
X133567420Y-60037874D01*
X133567418Y-60037876D01*
X133403001Y-60187761D01*
X133268924Y-60365308D01*
X133268919Y-60365316D01*
X133169756Y-60564461D01*
X133169750Y-60564476D01*
X133108866Y-60778462D01*
X133108865Y-60778464D01*
X133088338Y-60999999D01*
X132420481Y-60999999D01*
X132420481Y-59722563D01*
X132440166Y-59655524D01*
X132450760Y-59641369D01*
X132524111Y-59556718D01*
X132580912Y-59432342D01*
X132600371Y-59297000D01*
X132580912Y-59161658D01*
X132568658Y-59134827D01*
X132531564Y-59053600D01*
X143118640Y-59053600D01*
X143137956Y-59249729D01*
X143137957Y-59249732D01*
X143193352Y-59432345D01*
X143195169Y-59438333D01*
X143288067Y-59612132D01*
X143288071Y-59612139D01*
X143413097Y-59764483D01*
X143565441Y-59889509D01*
X143565448Y-59889513D01*
X143739247Y-59982411D01*
X143739250Y-59982411D01*
X143739254Y-59982414D01*
X143927849Y-60039624D01*
X144123981Y-60058941D01*
X144320113Y-60039624D01*
X144508708Y-59982414D01*
X144682519Y-59889510D01*
X144834864Y-59764483D01*
X144959891Y-59612138D01*
X145052795Y-59438327D01*
X145110005Y-59249732D01*
X145129322Y-59053600D01*
X145658640Y-59053600D01*
X145677956Y-59249729D01*
X145677957Y-59249732D01*
X145733352Y-59432345D01*
X145735169Y-59438333D01*
X145828067Y-59612132D01*
X145828071Y-59612139D01*
X145953097Y-59764483D01*
X146105441Y-59889509D01*
X146105448Y-59889513D01*
X146279247Y-59982411D01*
X146279250Y-59982411D01*
X146279254Y-59982414D01*
X146467849Y-60039624D01*
X146663981Y-60058941D01*
X146860113Y-60039624D01*
X147048708Y-59982414D01*
X147222519Y-59889510D01*
X147374864Y-59764483D01*
X147499891Y-59612138D01*
X147592795Y-59438327D01*
X147650005Y-59249732D01*
X147669322Y-59053600D01*
X148198640Y-59053600D01*
X148217956Y-59249729D01*
X148217957Y-59249732D01*
X148273352Y-59432345D01*
X148275169Y-59438333D01*
X148368067Y-59612132D01*
X148368071Y-59612139D01*
X148493097Y-59764483D01*
X148645441Y-59889509D01*
X148645448Y-59889513D01*
X148819247Y-59982411D01*
X148819250Y-59982411D01*
X148819254Y-59982414D01*
X149007849Y-60039624D01*
X149203981Y-60058941D01*
X149400113Y-60039624D01*
X149588708Y-59982414D01*
X149762519Y-59889510D01*
X149914864Y-59764483D01*
X150039891Y-59612138D01*
X150132795Y-59438327D01*
X150190005Y-59249732D01*
X150209322Y-59053600D01*
X150190005Y-58857468D01*
X150132795Y-58668873D01*
X150132792Y-58668869D01*
X150132792Y-58668866D01*
X150039894Y-58495067D01*
X150039890Y-58495060D01*
X149914864Y-58342716D01*
X149782207Y-58233847D01*
X150743481Y-58233847D01*
X150743481Y-59873352D01*
X150755112Y-59931829D01*
X150755113Y-59931830D01*
X150799428Y-59998152D01*
X150865750Y-60042467D01*
X150865751Y-60042468D01*
X150924228Y-60054099D01*
X150924231Y-60054100D01*
X150924233Y-60054100D01*
X152563731Y-60054100D01*
X152563732Y-60054099D01*
X152578549Y-60051152D01*
X152622210Y-60042468D01*
X152622210Y-60042467D01*
X152622212Y-60042467D01*
X152688533Y-59998152D01*
X152732848Y-59931831D01*
X152732848Y-59931829D01*
X152732849Y-59931829D01*
X152744480Y-59873352D01*
X152744481Y-59873350D01*
X152744481Y-58233849D01*
X152744480Y-58233847D01*
X152732849Y-58175370D01*
X152732848Y-58175369D01*
X152688533Y-58109047D01*
X152622211Y-58064732D01*
X152622210Y-58064731D01*
X152563733Y-58053100D01*
X152563729Y-58053100D01*
X150924233Y-58053100D01*
X150924228Y-58053100D01*
X150865751Y-58064731D01*
X150865750Y-58064732D01*
X150799428Y-58109047D01*
X150755113Y-58175369D01*
X150755112Y-58175370D01*
X150743481Y-58233847D01*
X149782207Y-58233847D01*
X149762520Y-58217690D01*
X149762513Y-58217686D01*
X149588714Y-58124788D01*
X149588708Y-58124786D01*
X149400113Y-58067576D01*
X149400110Y-58067575D01*
X149203981Y-58048259D01*
X149007851Y-58067575D01*
X148819247Y-58124788D01*
X148645448Y-58217686D01*
X148645441Y-58217690D01*
X148493097Y-58342716D01*
X148368071Y-58495060D01*
X148368067Y-58495067D01*
X148275169Y-58668866D01*
X148217956Y-58857470D01*
X148198640Y-59053600D01*
X147669322Y-59053600D01*
X147650005Y-58857468D01*
X147592795Y-58668873D01*
X147592792Y-58668869D01*
X147592792Y-58668866D01*
X147499894Y-58495067D01*
X147499890Y-58495060D01*
X147374864Y-58342716D01*
X147222520Y-58217690D01*
X147222513Y-58217686D01*
X147048714Y-58124788D01*
X147048708Y-58124786D01*
X146860113Y-58067576D01*
X146860110Y-58067575D01*
X146663981Y-58048259D01*
X146467851Y-58067575D01*
X146279247Y-58124788D01*
X146105448Y-58217686D01*
X146105441Y-58217690D01*
X145953097Y-58342716D01*
X145828071Y-58495060D01*
X145828067Y-58495067D01*
X145735169Y-58668866D01*
X145677956Y-58857470D01*
X145658640Y-59053600D01*
X145129322Y-59053600D01*
X145110005Y-58857468D01*
X145052795Y-58668873D01*
X145052792Y-58668869D01*
X145052792Y-58668866D01*
X144959894Y-58495067D01*
X144959890Y-58495060D01*
X144834864Y-58342716D01*
X144682520Y-58217690D01*
X144682513Y-58217686D01*
X144508714Y-58124788D01*
X144508708Y-58124786D01*
X144320113Y-58067576D01*
X144320110Y-58067575D01*
X144123981Y-58048259D01*
X143927851Y-58067575D01*
X143739247Y-58124788D01*
X143565448Y-58217686D01*
X143565441Y-58217690D01*
X143413097Y-58342716D01*
X143288071Y-58495060D01*
X143288067Y-58495067D01*
X143195169Y-58668866D01*
X143137956Y-58857470D01*
X143118640Y-59053600D01*
X132531564Y-59053600D01*
X132524113Y-59037285D01*
X132524108Y-59037278D01*
X132434571Y-58933946D01*
X132434567Y-58933942D01*
X132319540Y-58860021D01*
X132188349Y-58821500D01*
X132188348Y-58821500D01*
X132051614Y-58821500D01*
X132051613Y-58821500D01*
X131920421Y-58860021D01*
X131805394Y-58933942D01*
X131805390Y-58933946D01*
X131715853Y-59037278D01*
X131715848Y-59037285D01*
X131659051Y-59161654D01*
X131659049Y-59161662D01*
X131639591Y-59297000D01*
X127544481Y-59297000D01*
X127544481Y-55753594D01*
X138098510Y-55753594D01*
X138098510Y-55753605D01*
X138118360Y-55993159D01*
X138177370Y-56226189D01*
X138273932Y-56446329D01*
X138405408Y-56647566D01*
X138405410Y-56647569D01*
X138568217Y-56824425D01*
X138568220Y-56824427D01*
X138568223Y-56824430D01*
X138757905Y-56972066D01*
X138757911Y-56972070D01*
X138757914Y-56972072D01*
X138969325Y-57086482D01*
X138969328Y-57086483D01*
X139196680Y-57164533D01*
X139196682Y-57164533D01*
X139196684Y-57164534D01*
X139433789Y-57204100D01*
X139433790Y-57204100D01*
X139674172Y-57204100D01*
X139674173Y-57204100D01*
X139911278Y-57164534D01*
X140138637Y-57086482D01*
X140350048Y-56972072D01*
X140539745Y-56824425D01*
X140702552Y-56647569D01*
X140834030Y-56446328D01*
X140930591Y-56226191D01*
X140989601Y-55993163D01*
X141009452Y-55753600D01*
X141009452Y-55753594D01*
X153578510Y-55753594D01*
X153578510Y-55753605D01*
X153598360Y-55993159D01*
X153657370Y-56226189D01*
X153753932Y-56446329D01*
X153885408Y-56647566D01*
X153885410Y-56647569D01*
X154048217Y-56824425D01*
X154048220Y-56824427D01*
X154048223Y-56824430D01*
X154237905Y-56972066D01*
X154237911Y-56972070D01*
X154237914Y-56972072D01*
X154449325Y-57086482D01*
X154449328Y-57086483D01*
X154676680Y-57164533D01*
X154676682Y-57164533D01*
X154676684Y-57164534D01*
X154913789Y-57204100D01*
X154913790Y-57204100D01*
X155154172Y-57204100D01*
X155154173Y-57204100D01*
X155391278Y-57164534D01*
X155618637Y-57086482D01*
X155830048Y-56972072D01*
X156019745Y-56824425D01*
X156182552Y-56647569D01*
X156314030Y-56446328D01*
X156410591Y-56226191D01*
X156469601Y-55993163D01*
X156489452Y-55753600D01*
X156469601Y-55514037D01*
X156410591Y-55281009D01*
X156314030Y-55060872D01*
X156182552Y-54859631D01*
X156019745Y-54682775D01*
X156019740Y-54682771D01*
X156019738Y-54682769D01*
X155830056Y-54535133D01*
X155830050Y-54535129D01*
X155618638Y-54420718D01*
X155618633Y-54420716D01*
X155391281Y-54342666D01*
X155213449Y-54312991D01*
X155154173Y-54303100D01*
X154913789Y-54303100D01*
X154866368Y-54311013D01*
X154676680Y-54342666D01*
X154449328Y-54420716D01*
X154449323Y-54420718D01*
X154237911Y-54535129D01*
X154237905Y-54535133D01*
X154048223Y-54682769D01*
X154048220Y-54682772D01*
X153885411Y-54859629D01*
X153885408Y-54859633D01*
X153753932Y-55060870D01*
X153657370Y-55281010D01*
X153598360Y-55514040D01*
X153578510Y-55753594D01*
X141009452Y-55753594D01*
X140989601Y-55514037D01*
X140930591Y-55281009D01*
X140834030Y-55060872D01*
X140702552Y-54859631D01*
X140539745Y-54682775D01*
X140539740Y-54682771D01*
X140539738Y-54682769D01*
X140350056Y-54535133D01*
X140350050Y-54535129D01*
X140138638Y-54420718D01*
X140138633Y-54420716D01*
X139911281Y-54342666D01*
X139733449Y-54312991D01*
X139674173Y-54303100D01*
X139433789Y-54303100D01*
X139386368Y-54311013D01*
X139196680Y-54342666D01*
X138969328Y-54420716D01*
X138969323Y-54420718D01*
X138757911Y-54535129D01*
X138757905Y-54535133D01*
X138568223Y-54682769D01*
X138568220Y-54682772D01*
X138405411Y-54859629D01*
X138405408Y-54859633D01*
X138273932Y-55060870D01*
X138177370Y-55281010D01*
X138118360Y-55514040D01*
X138098510Y-55753594D01*
X127544481Y-55753594D01*
X127544481Y-52578765D01*
X139679481Y-52578765D01*
X139679481Y-52828434D01*
X139706621Y-53034580D01*
X139712068Y-53075947D01*
X139712069Y-53075949D01*
X139776683Y-53317095D01*
X139872217Y-53547737D01*
X139872225Y-53547753D01*
X139997045Y-53763946D01*
X139997056Y-53763962D01*
X140149028Y-53962016D01*
X140149034Y-53962023D01*
X140325557Y-54138546D01*
X140325563Y-54138551D01*
X140523627Y-54290531D01*
X140523634Y-54290535D01*
X140739827Y-54415355D01*
X140739843Y-54415363D01*
X140864274Y-54466903D01*
X140970486Y-54510898D01*
X141211634Y-54575513D01*
X141459154Y-54608100D01*
X141459161Y-54608100D01*
X141708801Y-54608100D01*
X141708808Y-54608100D01*
X141956328Y-54575513D01*
X142197476Y-54510898D01*
X142378788Y-54435795D01*
X142428118Y-54415363D01*
X142428121Y-54415361D01*
X142428127Y-54415359D01*
X142644335Y-54290531D01*
X142842399Y-54138551D01*
X143018932Y-53962018D01*
X143170912Y-53763954D01*
X143295740Y-53547746D01*
X143391279Y-53317095D01*
X143455894Y-53075947D01*
X143488481Y-52828427D01*
X143488481Y-52578773D01*
X143488480Y-52578765D01*
X151109481Y-52578765D01*
X151109481Y-52828434D01*
X151136621Y-53034580D01*
X151142068Y-53075947D01*
X151142069Y-53075949D01*
X151206683Y-53317095D01*
X151302217Y-53547737D01*
X151302225Y-53547753D01*
X151427045Y-53763946D01*
X151427056Y-53763962D01*
X151579028Y-53962016D01*
X151579034Y-53962023D01*
X151755557Y-54138546D01*
X151755563Y-54138551D01*
X151953627Y-54290531D01*
X151953634Y-54290535D01*
X152169827Y-54415355D01*
X152169843Y-54415363D01*
X152294274Y-54466903D01*
X152400486Y-54510898D01*
X152641634Y-54575513D01*
X152889154Y-54608100D01*
X152889161Y-54608100D01*
X153138801Y-54608100D01*
X153138808Y-54608100D01*
X153386328Y-54575513D01*
X153627476Y-54510898D01*
X153808788Y-54435795D01*
X153858118Y-54415363D01*
X153858121Y-54415361D01*
X153858127Y-54415359D01*
X154074335Y-54290531D01*
X154272399Y-54138551D01*
X154448932Y-53962018D01*
X154600912Y-53763954D01*
X154725740Y-53547746D01*
X154821279Y-53317095D01*
X154885894Y-53075947D01*
X154918481Y-52828427D01*
X154918481Y-52578773D01*
X154885894Y-52331253D01*
X154821279Y-52090105D01*
X154777284Y-51983893D01*
X154725744Y-51859462D01*
X154725736Y-51859446D01*
X154600916Y-51643253D01*
X154600912Y-51643246D01*
X154448932Y-51445182D01*
X154448927Y-51445176D01*
X154272404Y-51268653D01*
X154272397Y-51268647D01*
X154074343Y-51116675D01*
X154074341Y-51116673D01*
X154074335Y-51116669D01*
X154074330Y-51116666D01*
X154074327Y-51116664D01*
X153858134Y-50991844D01*
X153858118Y-50991836D01*
X153627476Y-50896302D01*
X153386328Y-50831687D01*
X153344961Y-50826240D01*
X153138815Y-50799100D01*
X153138808Y-50799100D01*
X152889154Y-50799100D01*
X152889146Y-50799100D01*
X152653549Y-50830118D01*
X152641634Y-50831687D01*
X152539708Y-50858997D01*
X152400485Y-50896302D01*
X152169843Y-50991836D01*
X152169827Y-50991844D01*
X151953634Y-51116664D01*
X151953618Y-51116675D01*
X151755564Y-51268647D01*
X151755557Y-51268653D01*
X151579034Y-51445176D01*
X151579028Y-51445183D01*
X151427056Y-51643237D01*
X151427045Y-51643253D01*
X151302225Y-51859446D01*
X151302217Y-51859462D01*
X151206683Y-52090104D01*
X151206683Y-52090105D01*
X151144277Y-52323011D01*
X151142069Y-52331250D01*
X151142067Y-52331261D01*
X151109481Y-52578765D01*
X143488480Y-52578765D01*
X143455894Y-52331253D01*
X143391279Y-52090105D01*
X143347284Y-51983893D01*
X143295744Y-51859462D01*
X143295736Y-51859446D01*
X143170916Y-51643253D01*
X143170912Y-51643246D01*
X143018932Y-51445182D01*
X143018927Y-51445176D01*
X142842404Y-51268653D01*
X142842397Y-51268647D01*
X142644343Y-51116675D01*
X142644341Y-51116673D01*
X142644335Y-51116669D01*
X142644330Y-51116666D01*
X142644327Y-51116664D01*
X142428134Y-50991844D01*
X142428118Y-50991836D01*
X142197476Y-50896302D01*
X141956328Y-50831687D01*
X141914961Y-50826240D01*
X141708815Y-50799100D01*
X141708808Y-50799100D01*
X141459154Y-50799100D01*
X141459146Y-50799100D01*
X141223549Y-50830118D01*
X141211634Y-50831687D01*
X141109708Y-50858997D01*
X140970485Y-50896302D01*
X140739843Y-50991836D01*
X140739827Y-50991844D01*
X140523634Y-51116664D01*
X140523618Y-51116675D01*
X140325564Y-51268647D01*
X140325557Y-51268653D01*
X140149034Y-51445176D01*
X140149028Y-51445183D01*
X139997056Y-51643237D01*
X139997045Y-51643253D01*
X139872225Y-51859446D01*
X139872217Y-51859462D01*
X139776683Y-52090104D01*
X139776683Y-52090105D01*
X139714277Y-52323011D01*
X139712069Y-52331250D01*
X139712067Y-52331261D01*
X139679481Y-52578765D01*
X127544481Y-52578765D01*
X127544481Y-49003480D01*
X127544676Y-48996528D01*
X127551108Y-48881995D01*
X128493481Y-48881995D01*
X128493481Y-49118004D01*
X128493482Y-49118020D01*
X128524287Y-49352010D01*
X128585375Y-49579993D01*
X128675695Y-49798045D01*
X128675700Y-49798056D01*
X128746658Y-49920957D01*
X128793708Y-50002450D01*
X128793710Y-50002453D01*
X128793711Y-50002454D01*
X128937387Y-50189697D01*
X128937393Y-50189704D01*
X129104276Y-50356587D01*
X129104282Y-50356592D01*
X129291531Y-50500273D01*
X129422899Y-50576118D01*
X129495924Y-50618280D01*
X129495929Y-50618282D01*
X129495932Y-50618284D01*
X129713988Y-50708606D01*
X129941967Y-50769693D01*
X130175970Y-50800500D01*
X130175977Y-50800500D01*
X130411985Y-50800500D01*
X130411992Y-50800500D01*
X130645995Y-50769693D01*
X130873974Y-50708606D01*
X131092030Y-50618284D01*
X131296431Y-50500273D01*
X131483680Y-50356592D01*
X131650573Y-50189699D01*
X131794254Y-50002450D01*
X131912265Y-49798049D01*
X132002587Y-49579993D01*
X132063674Y-49352014D01*
X132094481Y-49118011D01*
X132094481Y-48881989D01*
X132063674Y-48647986D01*
X132002587Y-48420007D01*
X131912265Y-48201951D01*
X131912263Y-48201948D01*
X131912261Y-48201943D01*
X131870099Y-48128918D01*
X131794254Y-47997550D01*
X131668391Y-47833522D01*
X131653104Y-47813599D01*
X139558766Y-47813599D01*
X139558766Y-47813600D01*
X139577583Y-48016682D01*
X139633398Y-48212847D01*
X139633403Y-48212860D01*
X139724308Y-48395421D01*
X139847218Y-48558181D01*
X139997939Y-48695580D01*
X139997941Y-48695582D01*
X140003628Y-48699103D01*
X140171344Y-48802948D01*
X140361525Y-48876624D01*
X140562005Y-48914100D01*
X140562007Y-48914100D01*
X140765955Y-48914100D01*
X140765957Y-48914100D01*
X140966437Y-48876624D01*
X141087697Y-48829648D01*
X141132984Y-48812104D01*
X141202607Y-48806241D01*
X141264347Y-48838951D01*
X141265459Y-48840049D01*
X142381921Y-49956511D01*
X142437870Y-50012460D01*
X142437872Y-50012461D01*
X142437876Y-50012464D01*
X142506385Y-50052017D01*
X142506392Y-50052021D01*
X142582819Y-50072500D01*
X142661943Y-50072500D01*
X159826462Y-50072500D01*
X159893501Y-50092185D01*
X159914143Y-50108819D01*
X162498162Y-52692838D01*
X162531647Y-52754161D01*
X162534481Y-52780519D01*
X162534481Y-74589221D01*
X162514796Y-74656260D01*
X162461992Y-74702015D01*
X162392834Y-74711959D01*
X162329278Y-74682934D01*
X162297687Y-74640732D01*
X162261995Y-74562577D01*
X162261990Y-74562570D01*
X162172453Y-74459238D01*
X162172449Y-74459234D01*
X162057422Y-74385312D01*
X162051075Y-74382414D01*
X161998273Y-74336657D01*
X161978591Y-74269617D01*
X161983616Y-74234681D01*
X161984668Y-74231098D01*
X161999167Y-74130252D01*
X162004127Y-74095756D01*
X161984668Y-73960414D01*
X161972414Y-73933583D01*
X161927869Y-73836041D01*
X161927864Y-73836034D01*
X161838327Y-73732702D01*
X161838323Y-73732698D01*
X161723296Y-73658777D01*
X161592105Y-73620256D01*
X161592104Y-73620256D01*
X161455370Y-73620256D01*
X161455369Y-73620256D01*
X161324177Y-73658777D01*
X161209150Y-73732698D01*
X161209146Y-73732702D01*
X161119609Y-73836034D01*
X161119604Y-73836041D01*
X161062807Y-73960410D01*
X161062805Y-73960418D01*
X161043347Y-74095756D01*
X161062805Y-74231097D01*
X161062808Y-74231104D01*
X161073473Y-74254459D01*
X161083415Y-74323618D01*
X161054389Y-74387173D01*
X161048359Y-74393649D01*
X159463829Y-75978181D01*
X159402506Y-76011666D01*
X159376148Y-76014500D01*
X145923419Y-76014500D01*
X145846991Y-76034978D01*
X145778470Y-76074540D01*
X145778467Y-76074542D01*
X144592461Y-77260548D01*
X144592455Y-77260556D01*
X144552902Y-77329065D01*
X144552899Y-77329070D01*
X144532419Y-77405501D01*
X144531359Y-77413558D01*
X144528688Y-77413206D01*
X144512735Y-77467536D01*
X144502133Y-77481699D01*
X144428792Y-77566338D01*
X144428787Y-77566346D01*
X144371990Y-77690715D01*
X144371988Y-77690723D01*
X144352530Y-77826061D01*
X144371988Y-77961398D01*
X144371990Y-77961406D01*
X144428787Y-78085775D01*
X144428792Y-78085782D01*
X144518329Y-78189114D01*
X144518333Y-78189118D01*
X144578899Y-78228040D01*
X144633359Y-78263039D01*
X144698956Y-78282300D01*
X144764552Y-78301561D01*
X144764553Y-78301561D01*
X144901287Y-78301561D01*
X145032481Y-78263039D01*
X145147509Y-78189116D01*
X145237050Y-78085779D01*
X145293851Y-77961403D01*
X145295300Y-77951321D01*
X145324320Y-77887768D01*
X145383096Y-77849990D01*
X145452966Y-77849986D01*
X145469556Y-77856174D01*
X145471508Y-77857066D01*
X145602700Y-77895587D01*
X145602701Y-77895587D01*
X145739435Y-77895587D01*
X145870629Y-77857065D01*
X145985657Y-77783142D01*
X146075198Y-77679805D01*
X146131999Y-77555429D01*
X146151458Y-77420087D01*
X146151458Y-77420085D01*
X146151458Y-77416029D01*
X146152600Y-77412137D01*
X146152720Y-77411308D01*
X146152839Y-77411325D01*
X146171143Y-77348990D01*
X146187777Y-77328348D01*
X146464307Y-77051819D01*
X146525630Y-77018334D01*
X146551988Y-77015500D01*
X159757227Y-77015500D01*
X159757229Y-77015500D01*
X159833656Y-76995021D01*
X159902178Y-76955460D01*
X159958127Y-76899511D01*
X161559948Y-75297688D01*
X161621269Y-75264205D01*
X161682561Y-75266394D01*
X161789493Y-75297791D01*
X161789495Y-75297792D01*
X161789496Y-75297792D01*
X161926230Y-75297792D01*
X162057424Y-75259270D01*
X162172452Y-75185347D01*
X162261993Y-75082010D01*
X162318794Y-74957634D01*
X162333039Y-74858551D01*
X162362063Y-74794997D01*
X162420841Y-74757222D01*
X162490711Y-74757222D01*
X162549489Y-74794995D01*
X162563156Y-74814185D01*
X162563901Y-74815475D01*
X162563910Y-74815490D01*
X162594520Y-74868509D01*
X162594522Y-74868512D01*
X164701682Y-76975672D01*
X164735167Y-77036995D01*
X164730183Y-77106687D01*
X164723362Y-77121800D01*
X164715751Y-77136039D01*
X164655680Y-77334067D01*
X164635398Y-77540000D01*
X164655680Y-77745932D01*
X164655681Y-77745934D01*
X164715749Y-77943954D01*
X164813296Y-78126450D01*
X164813298Y-78126452D01*
X164944570Y-78286410D01*
X165041190Y-78365702D01*
X165104531Y-78417685D01*
X165287027Y-78515232D01*
X165485047Y-78575300D01*
X165485046Y-78575300D01*
X165503510Y-78577118D01*
X165690981Y-78595583D01*
X165896915Y-78575300D01*
X166094935Y-78515232D01*
X166277431Y-78417685D01*
X166437391Y-78286410D01*
X166568666Y-78126450D01*
X166666213Y-77943954D01*
X166726281Y-77745934D01*
X166746564Y-77540000D01*
X166726281Y-77334066D01*
X166666213Y-77136046D01*
X166568666Y-76953550D01*
X166516683Y-76890209D01*
X166437391Y-76793589D01*
X166277433Y-76662317D01*
X166277434Y-76662317D01*
X166277431Y-76662315D01*
X166094935Y-76564768D01*
X165896915Y-76504700D01*
X165896913Y-76504699D01*
X165896915Y-76504699D01*
X165690981Y-76484417D01*
X165485048Y-76504699D01*
X165287020Y-76564770D01*
X165272781Y-76572381D01*
X165204378Y-76586620D01*
X165139135Y-76561616D01*
X165126653Y-76550701D01*
X164838133Y-76262181D01*
X164804648Y-76200858D01*
X164809632Y-76131166D01*
X164851504Y-76075233D01*
X164916968Y-76050816D01*
X164925814Y-76050500D01*
X166560731Y-76050500D01*
X166560732Y-76050499D01*
X166575549Y-76047552D01*
X166619210Y-76038868D01*
X166619210Y-76038867D01*
X166619212Y-76038867D01*
X166685533Y-75994552D01*
X166729848Y-75928231D01*
X166729848Y-75928229D01*
X166729849Y-75928229D01*
X166741480Y-75869752D01*
X166741481Y-75869750D01*
X166741481Y-74130249D01*
X166741480Y-74130247D01*
X166729849Y-74071770D01*
X166729848Y-74071769D01*
X166685533Y-74005447D01*
X166619211Y-73961132D01*
X166619210Y-73961131D01*
X166560733Y-73949500D01*
X166560729Y-73949500D01*
X164821233Y-73949500D01*
X164821228Y-73949500D01*
X164762751Y-73961131D01*
X164762750Y-73961132D01*
X164696428Y-74005447D01*
X164652113Y-74071769D01*
X164652112Y-74071770D01*
X164640481Y-74130247D01*
X164640481Y-74575500D01*
X164620796Y-74642539D01*
X164567992Y-74688294D01*
X164516481Y-74699500D01*
X164508814Y-74699500D01*
X164441775Y-74679815D01*
X164421133Y-74663181D01*
X163571800Y-73813848D01*
X163538315Y-73752525D01*
X163535481Y-73726167D01*
X163535481Y-52399439D01*
X163535481Y-52399438D01*
X163515002Y-52323011D01*
X163514998Y-52323004D01*
X163475445Y-52254495D01*
X163475439Y-52254487D01*
X160102947Y-48881995D01*
X162493481Y-48881995D01*
X162493481Y-49118004D01*
X162493482Y-49118020D01*
X162524287Y-49352010D01*
X162585375Y-49579993D01*
X162675695Y-49798045D01*
X162675700Y-49798056D01*
X162746658Y-49920957D01*
X162793708Y-50002450D01*
X162793710Y-50002453D01*
X162793711Y-50002454D01*
X162937387Y-50189697D01*
X162937393Y-50189704D01*
X163104276Y-50356587D01*
X163104282Y-50356592D01*
X163291531Y-50500273D01*
X163422899Y-50576118D01*
X163495924Y-50618280D01*
X163495929Y-50618282D01*
X163495932Y-50618284D01*
X163713988Y-50708606D01*
X163941967Y-50769693D01*
X164175970Y-50800500D01*
X164175977Y-50800500D01*
X164411985Y-50800500D01*
X164411992Y-50800500D01*
X164645995Y-50769693D01*
X164873974Y-50708606D01*
X165092030Y-50618284D01*
X165296431Y-50500273D01*
X165483680Y-50356592D01*
X165650573Y-50189699D01*
X165794254Y-50002450D01*
X165912265Y-49798049D01*
X166002587Y-49579993D01*
X166063674Y-49352014D01*
X166094481Y-49118011D01*
X166094481Y-48881989D01*
X166063674Y-48647986D01*
X166002587Y-48420007D01*
X165912265Y-48201951D01*
X165912263Y-48201948D01*
X165912261Y-48201943D01*
X165870099Y-48128918D01*
X165794254Y-47997550D01*
X165668391Y-47833522D01*
X165650574Y-47810302D01*
X165650568Y-47810295D01*
X165483685Y-47643412D01*
X165483678Y-47643406D01*
X165296435Y-47499730D01*
X165296434Y-47499729D01*
X165296431Y-47499727D01*
X165194039Y-47440611D01*
X165092037Y-47381719D01*
X165092026Y-47381714D01*
X164873974Y-47291394D01*
X164833377Y-47280516D01*
X164645995Y-47230307D01*
X164645994Y-47230306D01*
X164645991Y-47230306D01*
X164412001Y-47199501D01*
X164411998Y-47199500D01*
X164411992Y-47199500D01*
X164175970Y-47199500D01*
X164175964Y-47199500D01*
X164175960Y-47199501D01*
X163941970Y-47230306D01*
X163713987Y-47291394D01*
X163495935Y-47381714D01*
X163495924Y-47381719D01*
X163291526Y-47499730D01*
X163104283Y-47643406D01*
X163104276Y-47643412D01*
X162937393Y-47810295D01*
X162937387Y-47810302D01*
X162793711Y-47997545D01*
X162675700Y-48201943D01*
X162675695Y-48201954D01*
X162585375Y-48420006D01*
X162524287Y-48647989D01*
X162493482Y-48881979D01*
X162493481Y-48881995D01*
X160102947Y-48881995D01*
X158794093Y-47573141D01*
X158794085Y-47573135D01*
X158725576Y-47533582D01*
X158725571Y-47533579D01*
X158700094Y-47526752D01*
X158649143Y-47513100D01*
X158649141Y-47513100D01*
X155076300Y-47513100D01*
X155009261Y-47493415D01*
X154963506Y-47440611D01*
X154957037Y-47423045D01*
X154954563Y-47414350D01*
X154938313Y-47381716D01*
X154910253Y-47325364D01*
X154863654Y-47231779D01*
X154740745Y-47069021D01*
X154740743Y-47069018D01*
X154590022Y-46931619D01*
X154590020Y-46931617D01*
X154416623Y-46824255D01*
X154416616Y-46824251D01*
X154321527Y-46787414D01*
X154226437Y-46750576D01*
X154025957Y-46713100D01*
X153822005Y-46713100D01*
X153621525Y-46750576D01*
X153621522Y-46750576D01*
X153621522Y-46750577D01*
X153431345Y-46824251D01*
X153431338Y-46824255D01*
X153257941Y-46931617D01*
X153257939Y-46931619D01*
X153107218Y-47069018D01*
X152984308Y-47231778D01*
X152893403Y-47414339D01*
X152893398Y-47414352D01*
X152837583Y-47610517D01*
X152818766Y-47813599D01*
X152818766Y-47813600D01*
X152837583Y-48016682D01*
X152893398Y-48212847D01*
X152893403Y-48212860D01*
X152984308Y-48395421D01*
X153107218Y-48558181D01*
X153257939Y-48695580D01*
X153257941Y-48695582D01*
X153263628Y-48699103D01*
X153431344Y-48802948D01*
X153621525Y-48876624D01*
X153822005Y-48914100D01*
X153822007Y-48914100D01*
X154025955Y-48914100D01*
X154025957Y-48914100D01*
X154226437Y-48876624D01*
X154416618Y-48802948D01*
X154590022Y-48695581D01*
X154740745Y-48558179D01*
X154863654Y-48395421D01*
X154954563Y-48212850D01*
X154957035Y-48204161D01*
X154994315Y-48145071D01*
X155057625Y-48115514D01*
X155076300Y-48114100D01*
X158433748Y-48114100D01*
X158500787Y-48133785D01*
X158521429Y-48150419D01*
X159630829Y-49259819D01*
X159664314Y-49321142D01*
X159659330Y-49390834D01*
X159617458Y-49446767D01*
X159551994Y-49471184D01*
X159543148Y-49471500D01*
X142798214Y-49471500D01*
X142731175Y-49451815D01*
X142710533Y-49435181D01*
X141689052Y-48413700D01*
X141655567Y-48352377D01*
X141660551Y-48282685D01*
X141665734Y-48270746D01*
X141694561Y-48212855D01*
X141694561Y-48212852D01*
X141694563Y-48212850D01*
X141750378Y-48016683D01*
X141769196Y-47813600D01*
X141769196Y-47813599D01*
X142098766Y-47813599D01*
X142098766Y-47813600D01*
X142117583Y-48016682D01*
X142173398Y-48212847D01*
X142173403Y-48212860D01*
X142264308Y-48395421D01*
X142387218Y-48558181D01*
X142537939Y-48695580D01*
X142537941Y-48695582D01*
X142543628Y-48699103D01*
X142711344Y-48802948D01*
X142901525Y-48876624D01*
X143102005Y-48914100D01*
X143102007Y-48914100D01*
X143305955Y-48914100D01*
X143305957Y-48914100D01*
X143506437Y-48876624D01*
X143696618Y-48802948D01*
X143870022Y-48695581D01*
X144020745Y-48558179D01*
X144143654Y-48395421D01*
X144234563Y-48212850D01*
X144290378Y-48016683D01*
X144309196Y-47813600D01*
X144309196Y-47813599D01*
X150278766Y-47813599D01*
X150278766Y-47813600D01*
X150297583Y-48016682D01*
X150353398Y-48212847D01*
X150353403Y-48212860D01*
X150444308Y-48395421D01*
X150567218Y-48558181D01*
X150717939Y-48695580D01*
X150717941Y-48695582D01*
X150723628Y-48699103D01*
X150891344Y-48802948D01*
X151081525Y-48876624D01*
X151282005Y-48914100D01*
X151282007Y-48914100D01*
X151485955Y-48914100D01*
X151485957Y-48914100D01*
X151686437Y-48876624D01*
X151876618Y-48802948D01*
X152050022Y-48695581D01*
X152200745Y-48558179D01*
X152323654Y-48395421D01*
X152414563Y-48212850D01*
X152470378Y-48016683D01*
X152489196Y-47813600D01*
X152488587Y-47807033D01*
X152470378Y-47610517D01*
X152451244Y-47543268D01*
X152414563Y-47414350D01*
X152398313Y-47381716D01*
X152370253Y-47325364D01*
X152323654Y-47231779D01*
X152200745Y-47069021D01*
X152200743Y-47069018D01*
X152050022Y-46931619D01*
X152050020Y-46931617D01*
X151876623Y-46824255D01*
X151876616Y-46824251D01*
X151781527Y-46787414D01*
X151686437Y-46750576D01*
X151485957Y-46713100D01*
X151282005Y-46713100D01*
X151081525Y-46750576D01*
X151081522Y-46750576D01*
X151081522Y-46750577D01*
X150891345Y-46824251D01*
X150891338Y-46824255D01*
X150717941Y-46931617D01*
X150717939Y-46931619D01*
X150567218Y-47069018D01*
X150444308Y-47231778D01*
X150353403Y-47414339D01*
X150353398Y-47414352D01*
X150297583Y-47610517D01*
X150278766Y-47813599D01*
X144309196Y-47813599D01*
X144308587Y-47807033D01*
X144290378Y-47610517D01*
X144271244Y-47543268D01*
X144234563Y-47414350D01*
X144218313Y-47381716D01*
X144190253Y-47325364D01*
X144143654Y-47231779D01*
X144020745Y-47069021D01*
X144020743Y-47069018D01*
X143870022Y-46931619D01*
X143870020Y-46931617D01*
X143696623Y-46824255D01*
X143696616Y-46824251D01*
X143601527Y-46787414D01*
X143506437Y-46750576D01*
X143305957Y-46713100D01*
X143102005Y-46713100D01*
X142901525Y-46750576D01*
X142901522Y-46750576D01*
X142901522Y-46750577D01*
X142711345Y-46824251D01*
X142711338Y-46824255D01*
X142537941Y-46931617D01*
X142537939Y-46931619D01*
X142387218Y-47069018D01*
X142264308Y-47231778D01*
X142173403Y-47414339D01*
X142173398Y-47414352D01*
X142117583Y-47610517D01*
X142098766Y-47813599D01*
X141769196Y-47813599D01*
X141768587Y-47807033D01*
X141750378Y-47610517D01*
X141731244Y-47543268D01*
X141694563Y-47414350D01*
X141678313Y-47381716D01*
X141650253Y-47325364D01*
X141603654Y-47231779D01*
X141480745Y-47069021D01*
X141480743Y-47069018D01*
X141330022Y-46931619D01*
X141330020Y-46931617D01*
X141156623Y-46824255D01*
X141156616Y-46824251D01*
X141061527Y-46787414D01*
X140966437Y-46750576D01*
X140765957Y-46713100D01*
X140562005Y-46713100D01*
X140361525Y-46750576D01*
X140361522Y-46750576D01*
X140361522Y-46750577D01*
X140171345Y-46824251D01*
X140171338Y-46824255D01*
X139997941Y-46931617D01*
X139997939Y-46931619D01*
X139847218Y-47069018D01*
X139724308Y-47231778D01*
X139633403Y-47414339D01*
X139633398Y-47414352D01*
X139577583Y-47610517D01*
X139558766Y-47813599D01*
X131653104Y-47813599D01*
X131650574Y-47810302D01*
X131650568Y-47810295D01*
X131483685Y-47643412D01*
X131483678Y-47643406D01*
X131296435Y-47499730D01*
X131296434Y-47499729D01*
X131296431Y-47499727D01*
X131194039Y-47440611D01*
X131092037Y-47381719D01*
X131092026Y-47381714D01*
X130873974Y-47291394D01*
X130833377Y-47280516D01*
X130645995Y-47230307D01*
X130645994Y-47230306D01*
X130645991Y-47230306D01*
X130412001Y-47199501D01*
X130411998Y-47199500D01*
X130411992Y-47199500D01*
X130175970Y-47199500D01*
X130175964Y-47199500D01*
X130175960Y-47199501D01*
X129941970Y-47230306D01*
X129713987Y-47291394D01*
X129495935Y-47381714D01*
X129495924Y-47381719D01*
X129291526Y-47499730D01*
X129104283Y-47643406D01*
X129104276Y-47643412D01*
X128937393Y-47810295D01*
X128937387Y-47810302D01*
X128793711Y-47997545D01*
X128675700Y-48201943D01*
X128675695Y-48201954D01*
X128585375Y-48420006D01*
X128524287Y-48647989D01*
X128493482Y-48881979D01*
X128493481Y-48881995D01*
X127551108Y-48881995D01*
X127551109Y-48881979D01*
X127561379Y-48699094D01*
X127562933Y-48685299D01*
X127612252Y-48395032D01*
X127615340Y-48381500D01*
X127696849Y-48098574D01*
X127701439Y-48085461D01*
X127701441Y-48085457D01*
X127814104Y-47813459D01*
X127820127Y-47800953D01*
X127962546Y-47543262D01*
X127969941Y-47531494D01*
X128140317Y-47291370D01*
X128148959Y-47280533D01*
X128345160Y-47060983D01*
X128354980Y-47051164D01*
X128574514Y-46854975D01*
X128585354Y-46846330D01*
X128825497Y-46675938D01*
X128837234Y-46668563D01*
X129094937Y-46526134D01*
X129107430Y-46520117D01*
X129379462Y-46407436D01*
X129392547Y-46402857D01*
X129675476Y-46321346D01*
X129689019Y-46318255D01*
X129979278Y-46268936D01*
X129993081Y-46267380D01*
X130290173Y-46250694D01*
X130297126Y-46250500D01*
X164249813Y-46250500D01*
X164290504Y-46250500D01*
X164297455Y-46250694D01*
G37*
%TD.AperFunction*%
%TD*%
%TA.AperFunction,NonConductor*%
G36*
X164175924Y-75256351D02*
G01*
X164178496Y-75257795D01*
X164216992Y-75280021D01*
X164293419Y-75300500D01*
X164372543Y-75300500D01*
X164516481Y-75300500D01*
X164583520Y-75320185D01*
X164629275Y-75372989D01*
X164640481Y-75424500D01*
X164640481Y-75765167D01*
X164620796Y-75832206D01*
X164567992Y-75877961D01*
X164498834Y-75887905D01*
X164435278Y-75858880D01*
X164428800Y-75852848D01*
X164028816Y-75452864D01*
X163995331Y-75391541D01*
X164000315Y-75321849D01*
X164042187Y-75265916D01*
X164107651Y-75241499D01*
X164175924Y-75256351D01*
G37*
%TD.AperFunction*%
M02*
