%TF.GenerationSoftware,KiCad,Pcbnew,8.0.8+1*%
%TF.CreationDate,Date%
%TF.ProjectId,LAN8742A-breakout,4c414e38-3734-4324-912d-627265616b6f,+ (Unreleased)*%
%TF.SameCoordinates,Original*%
%TF.FileFunction,Paste,Top*%
%TF.FilePolarity,Positive*%
%FSLAX46Y46*%
G04 Gerber Fmt 4.6, Leading zero omitted, Abs format (unit mm)*
G04 Created by KiCad*
%MOMM*%
%LPD*%
G01*
G04 APERTURE LIST*
G04 Aperture macros list*
%AMRoundRect*
0 Rectangle with rounded corners*
0 $1 Rounding radius*
0 $2 $3 $4 $5 $6 $7 $8 $9 X,Y pos of 4 corners*
0 Add a 4 corners polygon primitive as box body*
4,1,4,$2,$3,$4,$5,$6,$7,$8,$9,$2,$3,0*
0 Add four circle primitives for the rounded corners*
1,1,$1+$1,$2,$3*
1,1,$1+$1,$4,$5*
1,1,$1+$1,$6,$7*
1,1,$1+$1,$8,$9*
0 Add four rect primitives between the rounded corners*
20,1,$1+$1,$2,$3,$4,$5,0*
20,1,$1+$1,$4,$5,$6,$7,0*
20,1,$1+$1,$6,$7,$8,$9,0*
20,1,$1+$1,$8,$9,$2,$3,0*%
%AMFreePoly0*
4,1,25,0.266375,0.443630,0.297109,0.420047,0.420047,0.297109,0.458455,0.230584,0.463512,0.192175,0.463512,-0.192175,0.443630,-0.266375,0.420047,-0.297109,0.297109,-0.420047,0.230584,-0.458455,0.192175,-0.463512,-0.192175,-0.463512,-0.266375,-0.443630,-0.297109,-0.420047,-0.420047,-0.297109,-0.458455,-0.230584,-0.463512,-0.192175,-0.463512,0.192175,-0.443630,0.266375,-0.420047,0.297109,
-0.297109,0.420047,-0.230584,0.458455,-0.192175,0.463512,0.192175,0.463512,0.266375,0.443630,0.266375,0.443630,$1*%
G04 Aperture macros list end*
%ADD10RoundRect,0.237500X-0.008839X-0.344715X0.344715X0.008839X0.008839X0.344715X-0.344715X-0.008839X0*%
%ADD11RoundRect,0.237500X0.380070X-0.044194X-0.044194X0.380070X-0.380070X0.044194X0.044194X-0.380070X0*%
%ADD12RoundRect,0.237500X-0.044194X-0.380070X0.380070X0.044194X0.044194X0.380070X-0.380070X-0.044194X0*%
%ADD13RoundRect,0.237500X-0.237500X0.250000X-0.237500X-0.250000X0.237500X-0.250000X0.237500X0.250000X0*%
%ADD14RoundRect,0.237500X0.044194X0.380070X-0.380070X-0.044194X-0.044194X-0.380070X0.380070X0.044194X0*%
%ADD15RoundRect,0.237500X0.250000X0.237500X-0.250000X0.237500X-0.250000X-0.237500X0.250000X-0.237500X0*%
%ADD16RoundRect,0.237500X-0.380070X0.044194X0.044194X-0.380070X0.380070X-0.044194X-0.044194X0.380070X0*%
%ADD17RoundRect,0.500000X-1.237437X-1.944544X1.944544X1.237437X1.237437X1.944544X-1.944544X-1.237437X0*%
%ADD18FreePoly0,315.000000*%
%ADD19RoundRect,0.062500X-0.309359X0.220971X0.220971X-0.309359X0.309359X-0.220971X-0.220971X0.309359X0*%
%ADD20RoundRect,0.062500X-0.309359X-0.220971X-0.220971X-0.309359X0.309359X0.220971X0.220971X0.309359X0*%
%ADD21RoundRect,0.237500X-0.250000X-0.237500X0.250000X-0.237500X0.250000X0.237500X-0.250000X0.237500X0*%
%ADD22RoundRect,0.237500X0.237500X-0.300000X0.237500X0.300000X-0.237500X0.300000X-0.237500X-0.300000X0*%
%ADD23R,0.860000X0.800000*%
G04 APERTURE END LIST*
D10*
%TO.C,R1*%
X143250181Y-71925726D03*
X144540651Y-70635256D03*
%TD*%
D11*
%TO.C,C5*%
X139587861Y-81877880D03*
X138368101Y-80658120D03*
%TD*%
D12*
%TO.C,C11*%
X139485701Y-75883480D03*
X140705461Y-74663720D03*
%TD*%
D13*
%TO.C,R7*%
X158332781Y-47792700D03*
X158332781Y-49617700D03*
%TD*%
D14*
%TO.C,C10*%
X137505061Y-77864120D03*
X136285301Y-79083880D03*
%TD*%
D15*
%TO.C,R9*%
X148434004Y-69603280D03*
X146609004Y-69603280D03*
%TD*%
D14*
%TO.C,C7*%
X140881555Y-78305188D03*
X139661795Y-79524948D03*
%TD*%
D15*
%TO.C,R4*%
X166575481Y-65647000D03*
X164750481Y-65647000D03*
%TD*%
D16*
%TO.C,C4*%
X152593653Y-78253476D03*
X153813413Y-79473236D03*
%TD*%
D11*
%TO.C,C6*%
X138445441Y-83003049D03*
X137225681Y-81783289D03*
%TD*%
D17*
%TO.C,Y1*%
X132621000Y-77210981D03*
X138984962Y-70847019D03*
%TD*%
D14*
%TO.C,C8*%
X142052964Y-79485966D03*
X140833204Y-80705726D03*
%TD*%
D18*
%TO.C,U1*%
X146983084Y-79629744D03*
X146176982Y-80435846D03*
X147789186Y-80435846D03*
X146983084Y-81241948D03*
D19*
X146496948Y-78181943D03*
X146143395Y-78535497D03*
X145789841Y-78889050D03*
X145436288Y-79242603D03*
X145082735Y-79596157D03*
X144729181Y-79949710D03*
D20*
X144729181Y-80921982D03*
X145082735Y-81275535D03*
X145436288Y-81629089D03*
X145789841Y-81982642D03*
X146143395Y-82336195D03*
X146496948Y-82689749D03*
D19*
X147469220Y-82689749D03*
X147822773Y-82336195D03*
X148176327Y-81982642D03*
X148529880Y-81629089D03*
X148883433Y-81275535D03*
X149236987Y-80921982D03*
D20*
X149236987Y-79949710D03*
X148883433Y-79596157D03*
X148529880Y-79242603D03*
X148176327Y-78889050D03*
X147822773Y-78535497D03*
X147469220Y-78181943D03*
%TD*%
D16*
%TO.C,C3*%
X151449101Y-79388120D03*
X152668861Y-80607880D03*
%TD*%
D21*
%TO.C,R3*%
X164750481Y-63996000D03*
X166575481Y-63996000D03*
%TD*%
D15*
%TO.C,R6*%
X133972481Y-58154000D03*
X132147481Y-58154000D03*
%TD*%
%TO.C,R11*%
X153634779Y-69602366D03*
X151809779Y-69602366D03*
%TD*%
%TO.C,R2*%
X166575481Y-72275859D03*
X164750481Y-72275859D03*
%TD*%
D13*
%TO.C,R8*%
X136539581Y-47843500D03*
X136539581Y-49668500D03*
%TD*%
D22*
%TO.C,C9*%
X130519981Y-58254500D03*
X130519981Y-56529500D03*
%TD*%
D21*
%TO.C,R10*%
X143490409Y-68038229D03*
X145315409Y-68038229D03*
%TD*%
%TO.C,R5*%
X132147481Y-56630000D03*
X133972481Y-56630000D03*
%TD*%
%TO.C,R12*%
X148702692Y-68066084D03*
X150527692Y-68066084D03*
%TD*%
D23*
%TO.C,FB1*%
X162853981Y-87175000D03*
X162853981Y-85775000D03*
%TD*%
D11*
%TO.C,C1*%
X144413861Y-76289880D03*
X143194101Y-75070120D03*
%TD*%
%TO.C,C2*%
X145498879Y-75199853D03*
X144279119Y-73980093D03*
%TD*%
M02*
