%TF.GenerationSoftware,KiCad,Pcbnew,8.0.8+1*%
%TF.CreationDate,Date%
%TF.ProjectId,LAN8742A-breakout,4c414e38-3734-4324-912d-627265616b6f,+ (Unreleased)*%
%TF.SameCoordinates,Original*%
%TF.FileFunction,Copper,L1,Top*%
%TF.FilePolarity,Positive*%
%FSLAX46Y46*%
G04 Gerber Fmt 4.6, Leading zero omitted, Abs format (unit mm)*
G04 Created by KiCad*
%MOMM*%
%LPD*%
G01*
G04 APERTURE LIST*
G04 Aperture macros list*
%AMRoundRect*
0 Rectangle with rounded corners*
0 $1 Rounding radius*
0 $2 $3 $4 $5 $6 $7 $8 $9 X,Y pos of 4 corners*
0 Add a 4 corners polygon primitive as box body*
4,1,4,$2,$3,$4,$5,$6,$7,$8,$9,$2,$3,0*
0 Add four circle primitives for the rounded corners*
1,1,$1+$1,$2,$3*
1,1,$1+$1,$4,$5*
1,1,$1+$1,$6,$7*
1,1,$1+$1,$8,$9*
0 Add four rect primitives between the rounded corners*
20,1,$1+$1,$2,$3,$4,$5,0*
20,1,$1+$1,$4,$5,$6,$7,0*
20,1,$1+$1,$6,$7,$8,$9,0*
20,1,$1+$1,$8,$9,$2,$3,0*%
%AMRotRect*
0 Rectangle, with rotation*
0 The origin of the aperture is its center*
0 $1 length*
0 $2 width*
0 $3 Rotation angle, in degrees counterclockwise*
0 Add horizontal line*
21,1,$1,$2,0,0,$3*%
%AMFreePoly0*
4,1,19,0.500000,-0.750000,0.000000,-0.750000,0.000000,-0.744911,-0.071157,-0.744911,-0.207708,-0.704816,-0.327430,-0.627875,-0.420627,-0.520320,-0.479746,-0.390866,-0.500000,-0.250000,-0.500000,0.250000,-0.479746,0.390866,-0.420627,0.520320,-0.327430,0.627875,-0.207708,0.704816,-0.071157,0.744911,0.000000,0.744911,0.000000,0.750000,0.500000,0.750000,0.500000,-0.750000,0.500000,-0.750000,
$1*%
%AMFreePoly1*
4,1,19,0.000000,0.744911,0.071157,0.744911,0.207708,0.704816,0.327430,0.627875,0.420627,0.520320,0.479746,0.390866,0.500000,0.250000,0.500000,-0.250000,0.479746,-0.390866,0.420627,-0.520320,0.327430,-0.627875,0.207708,-0.704816,0.071157,-0.744911,0.000000,-0.744911,0.000000,-0.750000,-0.500000,-0.750000,-0.500000,0.750000,0.000000,0.750000,0.000000,0.744911,0.000000,0.744911,
$1*%
G04 Aperture macros list end*
%TA.AperFunction,EtchedComponent*%
%ADD10C,0.000000*%
%TD*%
%TA.AperFunction,SMDPad,CuDef*%
%ADD11RoundRect,0.237500X-0.008839X-0.344715X0.344715X0.008839X0.008839X0.344715X-0.344715X-0.008839X0*%
%TD*%
%TA.AperFunction,SMDPad,CuDef*%
%ADD12RoundRect,0.237500X0.380070X-0.044194X-0.044194X0.380070X-0.380070X0.044194X0.044194X-0.380070X0*%
%TD*%
%TA.AperFunction,SMDPad,CuDef*%
%ADD13FreePoly0,180.000000*%
%TD*%
%TA.AperFunction,SMDPad,CuDef*%
%ADD14FreePoly1,180.000000*%
%TD*%
%TA.AperFunction,SMDPad,CuDef*%
%ADD15FreePoly0,0.000000*%
%TD*%
%TA.AperFunction,SMDPad,CuDef*%
%ADD16FreePoly1,0.000000*%
%TD*%
%TA.AperFunction,ComponentPad*%
%ADD17R,1.700000X1.700000*%
%TD*%
%TA.AperFunction,ComponentPad*%
%ADD18O,1.700000X1.700000*%
%TD*%
%TA.AperFunction,SMDPad,CuDef*%
%ADD19RoundRect,0.237500X-0.044194X-0.380070X0.380070X0.044194X0.044194X0.380070X-0.380070X-0.044194X0*%
%TD*%
%TA.AperFunction,SMDPad,CuDef*%
%ADD20RoundRect,0.237500X-0.237500X0.250000X-0.237500X-0.250000X0.237500X-0.250000X0.237500X0.250000X0*%
%TD*%
%TA.AperFunction,SMDPad,CuDef*%
%ADD21RoundRect,0.237500X0.044194X0.380070X-0.380070X-0.044194X-0.044194X-0.380070X0.380070X0.044194X0*%
%TD*%
%TA.AperFunction,SMDPad,CuDef*%
%ADD22RoundRect,0.237500X0.250000X0.237500X-0.250000X0.237500X-0.250000X-0.237500X0.250000X-0.237500X0*%
%TD*%
%TA.AperFunction,SMDPad,CuDef*%
%ADD23RoundRect,0.237500X-0.380070X0.044194X0.044194X-0.380070X0.380070X-0.044194X-0.044194X0.380070X0*%
%TD*%
%TA.AperFunction,SMDPad,CuDef*%
%ADD24RoundRect,0.500000X-1.237437X-1.944544X1.944544X1.237437X1.237437X1.944544X-1.944544X-1.237437X0*%
%TD*%
%TA.AperFunction,SMDPad,CuDef*%
%ADD25RoundRect,0.062500X-0.309359X0.220971X0.220971X-0.309359X0.309359X-0.220971X-0.220971X0.309359X0*%
%TD*%
%TA.AperFunction,SMDPad,CuDef*%
%ADD26RoundRect,0.062500X-0.309359X-0.220971X-0.220971X-0.309359X0.309359X0.220971X0.220971X0.309359X0*%
%TD*%
%TA.AperFunction,HeatsinkPad*%
%ADD27C,0.500000*%
%TD*%
%TA.AperFunction,HeatsinkPad*%
%ADD28RotRect,2.500000X2.500000X315.000000*%
%TD*%
%TA.AperFunction,ComponentPad*%
%ADD29C,2.000000*%
%TD*%
%TA.AperFunction,SMDPad,CuDef*%
%ADD30RoundRect,0.237500X-0.250000X-0.237500X0.250000X-0.237500X0.250000X0.237500X-0.250000X0.237500X0*%
%TD*%
%TA.AperFunction,SMDPad,CuDef*%
%ADD31RoundRect,0.237500X0.237500X-0.300000X0.237500X0.300000X-0.237500X0.300000X-0.237500X-0.300000X0*%
%TD*%
%TA.AperFunction,SMDPad,CuDef*%
%ADD32R,0.860000X0.800000*%
%TD*%
%TA.AperFunction,ComponentPad*%
%ADD33C,3.300000*%
%TD*%
%TA.AperFunction,ComponentPad*%
%ADD34R,1.600000X1.600000*%
%TD*%
%TA.AperFunction,ComponentPad*%
%ADD35C,1.600000*%
%TD*%
%TA.AperFunction,ComponentPad*%
%ADD36C,1.800000*%
%TD*%
%TA.AperFunction,ComponentPad*%
%ADD37C,2.500000*%
%TD*%
%TA.AperFunction,ViaPad*%
%ADD38C,0.550000*%
%TD*%
%TA.AperFunction,Conductor*%
%ADD39C,0.200000*%
%TD*%
%TA.AperFunction,Conductor*%
%ADD40C,0.500000*%
%TD*%
%TA.AperFunction,Conductor*%
%ADD41C,0.254000*%
%TD*%
%TA.AperFunction,Conductor*%
%ADD42C,0.300000*%
%TD*%
%TA.AperFunction,Conductor*%
%ADD43C,0.340000*%
%TD*%
%TA.AperFunction,Conductor*%
%ADD44C,0.250000*%
%TD*%
G04 APERTURE END LIST*
D10*
%TA.AperFunction,EtchedComponent*%
%TO.C,JP4*%
G36*
X136582366Y-56105807D02*
G01*
X136082366Y-56105807D01*
X136082366Y-55505807D01*
X136582366Y-55505807D01*
X136582366Y-56105807D01*
G37*
%TD.AperFunction*%
%TA.AperFunction,EtchedComponent*%
%TO.C,JP5*%
G36*
X158527259Y-56028129D02*
G01*
X158027259Y-56028129D01*
X158027259Y-55428129D01*
X158527259Y-55428129D01*
X158527259Y-56028129D01*
G37*
%TD.AperFunction*%
%TA.AperFunction,EtchedComponent*%
%TO.C,JP2*%
G36*
X165912981Y-70540639D02*
G01*
X165412981Y-70540639D01*
X165412981Y-69940639D01*
X165912981Y-69940639D01*
X165912981Y-70540639D01*
G37*
%TD.AperFunction*%
%TD*%
D11*
%TO.P,R1,1*%
%TO.N,Net-(U1-RBIAS)*%
X143250181Y-71925726D03*
%TO.P,R1,2*%
%TO.N,GND*%
X144540651Y-70635256D03*
%TD*%
D12*
%TO.P,C5,1*%
%TO.N,+3V3_PHYA*%
X139587861Y-81877880D03*
%TO.P,C5,2*%
%TO.N,GND*%
X138368101Y-80658120D03*
%TD*%
D13*
%TO.P,JP3,1,A*%
%TO.N,Net-(JP3-A)*%
X166312981Y-67700639D03*
D14*
%TO.P,JP3,2,B*%
%TO.N,Net-(JP2-B)*%
X165012981Y-67700639D03*
%TD*%
D15*
%TO.P,JP4,1,A*%
%TO.N,GND*%
X135682366Y-55805807D03*
D16*
%TO.P,JP4,2,B*%
%TO.N,Net-(JP4-B)*%
X136982366Y-55805807D03*
%TD*%
D17*
%TO.P,J4,1,Pin_1*%
%TO.N,/Project Architecture/LAN8742A breakout/LED1*%
X165690981Y-75000000D03*
D18*
%TO.P,J4,2,Pin_2*%
%TO.N,/Project Architecture/LAN8742A breakout/LED2*%
X165690981Y-77540000D03*
%TD*%
D19*
%TO.P,C11,1*%
%TO.N,Net-(U1-XTAL2)*%
X139485701Y-75883480D03*
%TO.P,C11,2*%
%TO.N,GND*%
X140705461Y-74663720D03*
%TD*%
D20*
%TO.P,R7,1*%
%TO.N,GND*%
X158332781Y-47792700D03*
%TO.P,R7,2*%
%TO.N,Net-(J1-Pad10)*%
X158332781Y-49617700D03*
%TD*%
D21*
%TO.P,C10,1*%
%TO.N,Net-(U1-XTAL1{slash}CLKIN)*%
X137505061Y-77864120D03*
%TO.P,C10,2*%
%TO.N,GND*%
X136285301Y-79083880D03*
%TD*%
D22*
%TO.P,R9,1*%
%TO.N,+3V3_PHYA*%
X148434004Y-69603280D03*
%TO.P,R9,2*%
%TO.N,/Project Architecture/LAN8742A breakout/RX_N*%
X146609004Y-69603280D03*
%TD*%
D21*
%TO.P,C7,1*%
%TO.N,+3V3_PHYA*%
X140881555Y-78305188D03*
%TO.P,C7,2*%
%TO.N,GND*%
X139661795Y-79524948D03*
%TD*%
D22*
%TO.P,R4,1*%
%TO.N,Net-(JP3-A)*%
X166575481Y-65647000D03*
%TO.P,R4,2*%
%TO.N,+3V3_PHYA*%
X164750481Y-65647000D03*
%TD*%
D23*
%TO.P,C4,1*%
%TO.N,+3V3_PHYA*%
X152593653Y-78253476D03*
%TO.P,C4,2*%
%TO.N,GND*%
X153813413Y-79473236D03*
%TD*%
D12*
%TO.P,C6,1*%
%TO.N,+3V3_PHYA*%
X138445441Y-83003049D03*
%TO.P,C6,2*%
%TO.N,GND*%
X137225681Y-81783289D03*
%TD*%
D24*
%TO.P,Y1,1,1*%
%TO.N,Net-(U1-XTAL1{slash}CLKIN)*%
X132621000Y-77210981D03*
%TO.P,Y1,2,2*%
%TO.N,Net-(U1-XTAL2)*%
X138984962Y-70847019D03*
%TD*%
D21*
%TO.P,C8,1*%
%TO.N,+3V3_PHYA*%
X142052964Y-79485966D03*
%TO.P,C8,2*%
%TO.N,GND*%
X140833204Y-80705726D03*
%TD*%
D13*
%TO.P,JP5,1,A*%
%TO.N,GND*%
X158927259Y-55728129D03*
D14*
%TO.P,JP5,2,B*%
%TO.N,Net-(JP5-B)*%
X157627259Y-55728129D03*
%TD*%
D25*
%TO.P,U1,1,VDD2A*%
%TO.N,+3V3_PHYA*%
X146496948Y-78181943D03*
%TO.P,U1,2,LED2/~{INTSEL}*%
%TO.N,Net-(JP2-B)*%
X146143395Y-78535497D03*
%TO.P,U1,3,LED1/REGOFF*%
%TO.N,Net-(JP1-A)*%
X145789841Y-78889050D03*
%TO.P,U1,4,XTAL2*%
%TO.N,Net-(U1-XTAL2)*%
X145436288Y-79242603D03*
%TO.P,U1,5,XTAL1/CLKIN*%
%TO.N,Net-(U1-XTAL1{slash}CLKIN)*%
X145082735Y-79596157D03*
%TO.P,U1,6,VDDCR*%
%TO.N,+3V3_PHYA*%
X144729181Y-79949710D03*
D26*
%TO.P,U1,7,RXD1/MODE1*%
%TO.N,/Project Architecture/LAN8742A breakout/RXD1*%
X144729181Y-80921982D03*
%TO.P,U1,8,RXD0/MODE0*%
%TO.N,/Project Architecture/LAN8742A breakout/RXD0*%
X145082735Y-81275535D03*
%TO.P,U1,9,VDDIO*%
%TO.N,+3V3_PHYA*%
X145436288Y-81629089D03*
%TO.P,U1,10,RXER/PHYAD0*%
%TO.N,/Project Architecture/LAN8742A breakout/RXER*%
X145789841Y-81982642D03*
%TO.P,U1,11,CRS_DV/MODE2*%
%TO.N,/Project Architecture/LAN8742A breakout/CRS_DV*%
X146143395Y-82336195D03*
%TO.P,U1,12,MDIO*%
%TO.N,/Project Architecture/LAN8742A breakout/MDIO*%
X146496948Y-82689749D03*
D25*
%TO.P,U1,13,MDC*%
%TO.N,/Project Architecture/LAN8742A breakout/MDC*%
X147469220Y-82689749D03*
%TO.P,U1,14,~{INT}/REFCLKO*%
%TO.N,/Project Architecture/LAN8742A breakout/REFCLKO*%
X147822773Y-82336195D03*
%TO.P,U1,15,~{RST}*%
%TO.N,/Project Architecture/LAN8742A breakout/nRST*%
X148176327Y-81982642D03*
%TO.P,U1,16,TXEN*%
%TO.N,/Project Architecture/LAN8742A breakout/TXEN*%
X148529880Y-81629089D03*
%TO.P,U1,17,TXD0*%
%TO.N,/Project Architecture/LAN8742A breakout/TXD0*%
X148883433Y-81275535D03*
%TO.P,U1,18,TXD1*%
%TO.N,/Project Architecture/LAN8742A breakout/TXD1*%
X149236987Y-80921982D03*
D26*
%TO.P,U1,19,VDD1A*%
%TO.N,+3V3_PHYA*%
X149236987Y-79949710D03*
%TO.P,U1,20,TXN*%
%TO.N,/Project Architecture/LAN8742A breakout/TX_N*%
X148883433Y-79596157D03*
%TO.P,U1,21,TXP*%
%TO.N,/Project Architecture/LAN8742A breakout/TX_P*%
X148529880Y-79242603D03*
%TO.P,U1,22,RXN*%
%TO.N,/Project Architecture/LAN8742A breakout/RX_N*%
X148176327Y-78889050D03*
%TO.P,U1,23,RXP*%
%TO.N,/Project Architecture/LAN8742A breakout/RX_P*%
X147822773Y-78535497D03*
%TO.P,U1,24,RBIAS*%
%TO.N,Net-(U1-RBIAS)*%
X147469220Y-78181943D03*
D27*
%TO.P,U1,25,VSS*%
%TO.N,GND*%
X146983084Y-79021632D03*
X146275977Y-79728739D03*
X145568870Y-80435846D03*
X147690191Y-79728739D03*
X146983084Y-80435846D03*
D28*
X146983084Y-80435846D03*
D27*
X146275977Y-81142953D03*
X148397298Y-80435846D03*
X147690191Y-81142953D03*
X146983084Y-81850060D03*
%TD*%
D29*
%TO.P,SW1,1,1*%
%TO.N,GND*%
X129793981Y-67500000D03*
X129793981Y-61000000D03*
%TO.P,SW1,2,2*%
%TO.N,Net-(R6-Pad1)*%
X134293981Y-67500000D03*
X134293981Y-61000000D03*
%TD*%
D23*
%TO.P,C3,1*%
%TO.N,+3V3_PHYA*%
X151449101Y-79388120D03*
%TO.P,C3,2*%
%TO.N,GND*%
X152668861Y-80607880D03*
%TD*%
D17*
%TO.P,J2,1,Pin_1*%
%TO.N,/Project Architecture/LAN8742A breakout/TXD1*%
X158739181Y-91378000D03*
D18*
%TO.P,J2,2,Pin_2*%
%TO.N,GND*%
X158739181Y-93918000D03*
%TO.P,J2,3,Pin_3*%
%TO.N,/Project Architecture/LAN8742A breakout/TXD0*%
X156199181Y-91378000D03*
%TO.P,J2,4,Pin_4*%
%TO.N,GND*%
X156199181Y-93918000D03*
%TO.P,J2,5,Pin_5*%
%TO.N,/Project Architecture/LAN8742A breakout/TXEN*%
X153659181Y-91378000D03*
%TO.P,J2,6,Pin_6*%
%TO.N,GND*%
X153659181Y-93918000D03*
%TO.P,J2,7,Pin_7*%
%TO.N,/Project Architecture/LAN8742A breakout/REFCLKO*%
X151119181Y-91378000D03*
%TO.P,J2,8,Pin_8*%
%TO.N,GND*%
X151119181Y-93918000D03*
%TO.P,J2,9,Pin_9*%
%TO.N,/Project Architecture/LAN8742A breakout/MDC*%
X148579181Y-91378000D03*
%TO.P,J2,10,Pin_10*%
%TO.N,GND*%
X148579181Y-93918000D03*
%TO.P,J2,11,Pin_11*%
%TO.N,/Project Architecture/LAN8742A breakout/MDIO*%
X146039181Y-91378000D03*
%TO.P,J2,12,Pin_12*%
%TO.N,GND*%
X146039181Y-93918000D03*
%TO.P,J2,13,Pin_13*%
%TO.N,/Project Architecture/LAN8742A breakout/CRS_DV*%
X143499181Y-91378000D03*
%TO.P,J2,14,Pin_14*%
%TO.N,GND*%
X143499181Y-93918000D03*
%TO.P,J2,15,Pin_15*%
%TO.N,/Project Architecture/LAN8742A breakout/RXER*%
X140959181Y-91378000D03*
%TO.P,J2,16,Pin_16*%
%TO.N,GND*%
X140959181Y-93918000D03*
%TO.P,J2,17,Pin_17*%
%TO.N,/Project Architecture/LAN8742A breakout/RXD0*%
X138419181Y-91378000D03*
%TO.P,J2,18,Pin_18*%
%TO.N,GND*%
X138419181Y-93918000D03*
%TO.P,J2,19,Pin_19*%
%TO.N,/Project Architecture/LAN8742A breakout/RXD1*%
X135879181Y-91378000D03*
%TO.P,J2,20,Pin_20*%
%TO.N,GND*%
X135879181Y-93918000D03*
%TD*%
D30*
%TO.P,R3,1*%
%TO.N,+3V3_PHYA*%
X164750481Y-63996000D03*
%TO.P,R3,2*%
%TO.N,Net-(JP1-B)*%
X166575481Y-63996000D03*
%TD*%
D22*
%TO.P,R6,1*%
%TO.N,Net-(R6-Pad1)*%
X133972481Y-58154000D03*
%TO.P,R6,2*%
%TO.N,/Project Architecture/LAN8742A breakout/nRST*%
X132147481Y-58154000D03*
%TD*%
%TO.P,R11,1*%
%TO.N,+3V3_PHYA*%
X153634779Y-69602366D03*
%TO.P,R11,2*%
%TO.N,/Project Architecture/LAN8742A breakout/TX_N*%
X151809779Y-69602366D03*
%TD*%
D17*
%TO.P,J3,1,Pin_1*%
%TO.N,+3.3V*%
X165690981Y-87080000D03*
D18*
%TO.P,J3,2,Pin_2*%
%TO.N,GND*%
X165690981Y-84540000D03*
%TO.P,J3,3,Pin_3*%
%TO.N,/Project Architecture/LAN8742A breakout/nRST*%
X165690981Y-82000000D03*
%TD*%
D22*
%TO.P,R2,1*%
%TO.N,Net-(JP2-A)*%
X166575481Y-72275859D03*
%TO.P,R2,2*%
%TO.N,GND*%
X164750481Y-72275859D03*
%TD*%
D13*
%TO.P,JP2,1,A*%
%TO.N,Net-(JP2-A)*%
X166312981Y-70240639D03*
D14*
%TO.P,JP2,2,B*%
%TO.N,Net-(JP2-B)*%
X165012981Y-70240639D03*
%TD*%
D20*
%TO.P,R8,1*%
%TO.N,GND*%
X136539581Y-47843500D03*
%TO.P,R8,2*%
%TO.N,Net-(J1-Pad11)*%
X136539581Y-49668500D03*
%TD*%
D31*
%TO.P,C9,1*%
%TO.N,/Project Architecture/LAN8742A breakout/nRST*%
X130519981Y-58254500D03*
%TO.P,C9,2*%
%TO.N,GND*%
X130519981Y-56529500D03*
%TD*%
D30*
%TO.P,R10,1*%
%TO.N,+3V3_PHYA*%
X143490409Y-68038229D03*
%TO.P,R10,2*%
%TO.N,/Project Architecture/LAN8742A breakout/RX_P*%
X145315409Y-68038229D03*
%TD*%
%TO.P,R5,1*%
%TO.N,/Project Architecture/LAN8742A breakout/nRST*%
X132147481Y-56630000D03*
%TO.P,R5,2*%
%TO.N,+3V3_PHYA*%
X133972481Y-56630000D03*
%TD*%
%TO.P,R12,1*%
%TO.N,+3V3_PHYA*%
X148702692Y-68066084D03*
%TO.P,R12,2*%
%TO.N,/Project Architecture/LAN8742A breakout/TX_P*%
X150527692Y-68066084D03*
%TD*%
D15*
%TO.P,JP1,1,A*%
%TO.N,Net-(JP1-A)*%
X165012981Y-61964000D03*
D16*
%TO.P,JP1,2,B*%
%TO.N,Net-(JP1-B)*%
X166312981Y-61964000D03*
%TD*%
D32*
%TO.P,FB1,1*%
%TO.N,+3.3V*%
X162853981Y-87175000D03*
%TO.P,FB1,2*%
%TO.N,+3V3_PHYA*%
X162853981Y-85775000D03*
%TD*%
D33*
%TO.P,J1,*%
%TO.N,*%
X153013981Y-52703600D03*
X141583981Y-52703600D03*
D34*
%TO.P,J1,1,TD+*%
%TO.N,/Project Architecture/LAN8742A breakout/TX_P*%
X151743981Y-59053600D03*
D35*
%TO.P,J1,2,TD-*%
%TO.N,/Project Architecture/LAN8742A breakout/TX_N*%
X150473981Y-61593600D03*
%TO.P,J1,3,RD+*%
%TO.N,/Project Architecture/LAN8742A breakout/RX_P*%
X149203981Y-59053600D03*
%TO.P,J1,4,4*%
%TO.N,+3V3_PHYA*%
X147933981Y-61593600D03*
%TO.P,J1,5,5*%
X146663981Y-59053600D03*
%TO.P,J1,6,RD-*%
%TO.N,/Project Architecture/LAN8742A breakout/RX_N*%
X145393981Y-61593600D03*
%TO.P,J1,7,NC*%
%TO.N,unconnected-(J1-NC-Pad7)*%
X144123981Y-59053600D03*
%TO.P,J1,8,CHSGND*%
%TO.N,GND*%
X142853981Y-61593600D03*
D36*
%TO.P,J1,9,9*%
%TO.N,/Project Architecture/LAN8742A breakout/LED1*%
X153923981Y-47813600D03*
%TO.P,J1,10,10*%
%TO.N,Net-(J1-Pad10)*%
X151383981Y-47813600D03*
%TO.P,J1,11,11*%
%TO.N,Net-(J1-Pad11)*%
X143203981Y-47813600D03*
%TO.P,J1,12,12*%
%TO.N,/Project Architecture/LAN8742A breakout/LED2*%
X140663981Y-47813600D03*
D37*
%TO.P,J1,SH1,SH1*%
%TO.N,Net-(JP5-B)*%
X155033981Y-55753600D03*
%TO.P,J1,SH2,SH2*%
%TO.N,Net-(JP4-B)*%
X139553981Y-55753600D03*
%TD*%
D12*
%TO.P,C1,1*%
%TO.N,+3V3_PHYA*%
X144413861Y-76289880D03*
%TO.P,C1,2*%
%TO.N,GND*%
X143194101Y-75070120D03*
%TD*%
%TO.P,C2,1*%
%TO.N,+3V3_PHYA*%
X145498879Y-75199853D03*
%TO.P,C2,2*%
%TO.N,GND*%
X144279119Y-73980093D03*
%TD*%
D38*
%TO.N,+3V3_PHYA*%
X144448982Y-82741022D03*
X140882981Y-82665000D03*
%TO.N,/Project Architecture/LAN8742A breakout/nRST*%
X149466454Y-83225527D03*
X132119981Y-59297000D03*
%TO.N,/Project Architecture/LAN8742A breakout/RX_N*%
X146388660Y-63532679D03*
%TO.N,/Project Architecture/LAN8742A breakout/TX_N*%
X151594981Y-63615000D03*
%TO.N,Net-(JP1-A)*%
X144832920Y-77826061D03*
X161523737Y-74095756D03*
%TO.N,Net-(JP2-B)*%
X161857863Y-74822292D03*
X145671068Y-77420087D03*
%TD*%
D39*
%TO.N,+3V3_PHYA*%
X144448982Y-82616395D02*
X145436288Y-81629089D01*
X139587861Y-81877880D02*
X140374981Y-82665000D01*
X146724981Y-77660827D02*
X146724981Y-77953910D01*
X142052964Y-79485966D02*
X142945998Y-80379000D01*
X164750481Y-63996000D02*
X164750481Y-65647000D01*
X140881555Y-78305188D02*
X140881555Y-78314557D01*
X145519716Y-75184025D02*
X144413861Y-76289880D01*
X146089981Y-77025827D02*
X146724981Y-77660827D01*
X140501981Y-82665000D02*
X140882981Y-82665000D01*
X142945998Y-80379000D02*
X144184981Y-80379000D01*
X144448982Y-82741022D02*
X144448982Y-82616395D01*
X138445441Y-83003049D02*
X138462692Y-83003049D01*
X150341129Y-80506000D02*
X152593653Y-78253476D01*
X144184981Y-80379000D02*
X144614271Y-79949710D01*
X140374981Y-82665000D02*
X140501981Y-82665000D01*
X144614271Y-79949710D02*
X144729181Y-79949710D01*
X149236987Y-79949710D02*
X149793277Y-80506000D01*
X146724981Y-77953910D02*
X146496948Y-78181943D01*
X145498879Y-75199853D02*
X146089981Y-75790955D01*
X146089981Y-75790955D02*
X146089981Y-77025827D01*
X138462692Y-83003049D02*
X139587861Y-81877880D01*
X140881555Y-78314557D02*
X142052964Y-79485966D01*
X149793277Y-80506000D02*
X150341129Y-80506000D01*
%TO.N,/Project Architecture/LAN8742A breakout/nRST*%
X149466454Y-83225527D02*
X148223569Y-81982642D01*
X148223569Y-81982642D02*
X148176327Y-81982642D01*
X132147481Y-58154000D02*
X132147481Y-59269500D01*
X132147481Y-59269500D02*
X132119981Y-59297000D01*
X130620481Y-58154000D02*
X130519981Y-58254500D01*
X132147481Y-58154000D02*
X130620481Y-58154000D01*
X132147481Y-58154000D02*
X132147481Y-56630000D01*
%TO.N,Net-(U1-XTAL1{slash}CLKIN)*%
X137505061Y-77864120D02*
X139079861Y-77864120D01*
X136851922Y-77210981D02*
X137505061Y-77864120D01*
X142430178Y-76943600D02*
X145082735Y-79596157D01*
X139079861Y-77864120D02*
X140000381Y-76943600D01*
X132621000Y-77210981D02*
X136851922Y-77210981D01*
X140000381Y-76943600D02*
X142430178Y-76943600D01*
%TO.N,Net-(U1-XTAL2)*%
X143600885Y-77407200D02*
X145436288Y-79242603D01*
X140145821Y-76543600D02*
X142737181Y-76543600D01*
X139485701Y-75883480D02*
X140145821Y-76543600D01*
X138984962Y-70847019D02*
X138984962Y-75382741D01*
X142737181Y-76543600D02*
X143600781Y-77407200D01*
X143600781Y-77407200D02*
X143600885Y-77407200D01*
X138984962Y-75382741D02*
X139485701Y-75883480D01*
D40*
%TO.N,Net-(JP5-B)*%
X155033981Y-55753600D02*
X157601788Y-55753600D01*
X157601788Y-55753600D02*
X157627259Y-55728129D01*
D41*
%TO.N,/Project Architecture/LAN8742A breakout/RX_N*%
X146628381Y-65887741D02*
X146421581Y-65887741D01*
X146239981Y-66917000D02*
X146239981Y-71755262D01*
X146239981Y-66160141D02*
X146239981Y-66917000D01*
X146239981Y-63681358D02*
X146239981Y-64344141D01*
X146421581Y-65433741D02*
X146628381Y-65433741D01*
X148906981Y-78158396D02*
X148176327Y-78889050D01*
X146628381Y-64979741D02*
X146421581Y-64979741D01*
X146239981Y-66069341D02*
X146239981Y-66160141D01*
X146809981Y-64707341D02*
X146809981Y-64798141D01*
X146239981Y-71755262D02*
X148906981Y-74422262D01*
X148906981Y-74422262D02*
X148906981Y-78158396D01*
X146809981Y-65615341D02*
X146809981Y-65706141D01*
X146388660Y-63532679D02*
X146239981Y-63681358D01*
X146239981Y-65161341D02*
X146239981Y-65252141D01*
X146421581Y-64525741D02*
X146628381Y-64525741D01*
X146239981Y-65252141D02*
G75*
G03*
X146421581Y-65433719I181619J41D01*
G01*
X146809981Y-64798141D02*
G75*
G02*
X146628381Y-64979681I-181581J41D01*
G01*
X146628381Y-65433741D02*
G75*
G02*
X146809959Y-65615341I19J-181559D01*
G01*
X146809981Y-65706141D02*
G75*
G02*
X146628381Y-65887681I-181581J41D01*
G01*
X146628381Y-64525741D02*
G75*
G02*
X146809959Y-64707341I19J-181559D01*
G01*
X146421581Y-65887741D02*
G75*
G03*
X146240041Y-66069341I19J-181559D01*
G01*
X146421581Y-64979741D02*
G75*
G03*
X146240041Y-65161341I19J-181559D01*
G01*
X146239981Y-64344141D02*
G75*
G03*
X146421581Y-64525719I181619J41D01*
G01*
%TO.N,/Project Architecture/LAN8742A breakout/TX_P*%
X150694580Y-65666600D02*
X150711380Y-65666600D01*
X150512980Y-64486200D02*
X150512980Y-64577000D01*
X150892981Y-67044000D02*
X150892981Y-76841318D01*
X150892980Y-65939000D02*
X150892980Y-66282000D01*
X150694580Y-64758600D02*
X150711380Y-64758600D01*
X151743981Y-59053600D02*
X151743981Y-62406000D01*
X150892980Y-64940200D02*
X150892980Y-65031000D01*
X151743981Y-62406000D02*
X150892980Y-63257001D01*
X150711380Y-64304600D02*
X150694580Y-64304600D01*
X150892980Y-65848200D02*
X150892980Y-65939000D01*
X150512980Y-65394200D02*
X150512980Y-65485000D01*
X150892981Y-76841318D02*
X148529880Y-79204419D01*
X150711380Y-65212600D02*
X150694580Y-65212600D01*
X150892980Y-63257001D02*
X150892980Y-64123000D01*
X150892980Y-66282000D02*
X150892980Y-67043999D01*
X148529880Y-79204419D02*
X148529880Y-79242603D01*
X150892980Y-67043999D02*
X150892981Y-67044000D01*
X150892980Y-65031000D02*
G75*
G02*
X150711380Y-65212580I-181580J0D01*
G01*
X150892980Y-64123000D02*
G75*
G02*
X150711380Y-64304580I-181580J0D01*
G01*
X150512980Y-64577000D02*
G75*
G03*
X150694580Y-64758620I181620J0D01*
G01*
X150711380Y-64758600D02*
G75*
G02*
X150893000Y-64940200I20J-181600D01*
G01*
X150512980Y-65485000D02*
G75*
G03*
X150694580Y-65666620I181620J0D01*
G01*
X150694580Y-65212600D02*
G75*
G03*
X150513000Y-65394200I20J-181600D01*
G01*
X150694580Y-64304600D02*
G75*
G03*
X150513000Y-64486200I20J-181600D01*
G01*
X150711380Y-65666600D02*
G75*
G02*
X150893000Y-65848200I20J-181600D01*
G01*
D40*
%TO.N,Net-(JP4-B)*%
X136982366Y-55805807D02*
X139501774Y-55805807D01*
X139501774Y-55805807D02*
X139553981Y-55753600D01*
D42*
%TO.N,Net-(J1-Pad10)*%
X158332781Y-49617700D02*
X153188081Y-49617700D01*
X153188081Y-49617700D02*
X151383981Y-47813600D01*
%TO.N,Net-(J1-Pad11)*%
X143203981Y-47813600D02*
X141349081Y-49668500D01*
X141349081Y-49668500D02*
X136539581Y-49668500D01*
D41*
%TO.N,/Project Architecture/LAN8742A breakout/TX_N*%
X151446982Y-66141819D02*
X151446982Y-66232619D01*
X151735382Y-65960219D02*
X151628582Y-65960219D01*
X151628582Y-64598219D02*
X151735382Y-64598219D01*
X151446982Y-67043999D02*
X151446981Y-67044000D01*
X151446982Y-63762999D02*
X151446982Y-64416619D01*
X151735382Y-65052219D02*
X151628582Y-65052219D01*
X151594981Y-63615000D02*
X151446982Y-63762999D01*
X151446982Y-65233819D02*
X151446982Y-65324619D01*
X151446982Y-66232619D02*
X151446982Y-66739200D01*
X151446981Y-67044000D02*
X151446981Y-77070794D01*
X151628582Y-65506219D02*
X151735382Y-65506219D01*
X151446981Y-77070794D02*
X148921618Y-79596157D01*
X151916982Y-64779819D02*
X151916982Y-64870619D01*
X151446982Y-66739200D02*
X151446982Y-67043999D01*
X151916982Y-65687819D02*
X151916982Y-65778619D01*
X148921618Y-79596157D02*
X148883433Y-79596157D01*
X151916982Y-65778619D02*
G75*
G02*
X151735382Y-65960182I-181582J19D01*
G01*
X151628582Y-65052219D02*
G75*
G03*
X151447019Y-65233819I18J-181581D01*
G01*
X151446982Y-64416619D02*
G75*
G03*
X151628582Y-64598218I181618J19D01*
G01*
X151916982Y-64870619D02*
G75*
G02*
X151735382Y-65052182I-181582J19D01*
G01*
X151628582Y-65960219D02*
G75*
G03*
X151447019Y-66141819I18J-181581D01*
G01*
X151735382Y-65506219D02*
G75*
G02*
X151916981Y-65687819I18J-181581D01*
G01*
X151735382Y-64598219D02*
G75*
G02*
X151916981Y-64779819I18J-181581D01*
G01*
X151446982Y-65324619D02*
G75*
G03*
X151628582Y-65506218I181618J19D01*
G01*
%TO.N,/Project Architecture/LAN8742A breakout/RX_P*%
X148880162Y-59053600D02*
X149203981Y-59053600D01*
X148352981Y-74651738D02*
X145685981Y-71984738D01*
X145685981Y-71984738D02*
X145685981Y-63384000D01*
X146597981Y-61335781D02*
X148880162Y-59053600D01*
X147822773Y-78535497D02*
X148352981Y-78005289D01*
X148352981Y-78005289D02*
X148352981Y-74651738D01*
X145685981Y-63384000D02*
X146597981Y-62472000D01*
X146597981Y-62472000D02*
X146597981Y-61335781D01*
D43*
%TO.N,/Project Architecture/LAN8742A breakout/REFCLKO*%
X149119181Y-85821200D02*
X151119181Y-87821200D01*
D44*
X148498884Y-83012306D02*
X147822773Y-82336195D01*
D43*
X148743981Y-83694608D02*
X149119181Y-84069808D01*
X148743981Y-83229046D02*
X148743981Y-83694608D01*
X151119181Y-87821200D02*
X151119181Y-91378000D01*
D44*
X148527241Y-83012306D02*
X148498884Y-83012306D01*
D43*
X148527241Y-83012306D02*
X148743981Y-83229046D01*
X149119181Y-84069808D02*
X149119181Y-85821200D01*
D40*
%TO.N,+3.3V*%
X162948981Y-87080000D02*
X162853981Y-87175000D01*
X165690981Y-87080000D02*
X162948981Y-87080000D01*
D39*
%TO.N,Net-(JP1-A)*%
X161771225Y-74095756D02*
X162834981Y-73032000D01*
X144832920Y-77826061D02*
X144832920Y-77932129D01*
X161523737Y-74095756D02*
X161771225Y-74095756D01*
X162834981Y-64142000D02*
X165012981Y-61964000D01*
X144832920Y-77932129D02*
X145789841Y-78889050D01*
X162834981Y-73032000D02*
X162834981Y-64142000D01*
%TO.N,Net-(JP1-B)*%
X166312981Y-61964000D02*
X166312981Y-63733500D01*
X166312981Y-63733500D02*
X166575481Y-63996000D01*
%TO.N,Net-(JP2-B)*%
X145671068Y-78063170D02*
X146143395Y-78535497D01*
X163975342Y-70240639D02*
X165012981Y-70240639D01*
X165012981Y-67700639D02*
X165012981Y-70240639D01*
X163234981Y-70981000D02*
X163975342Y-70240639D01*
X163234981Y-73197686D02*
X163234981Y-70981000D01*
X145671068Y-77420087D02*
X145671068Y-78063170D01*
X161857863Y-74574804D02*
X163234981Y-73197686D01*
X161857863Y-74822292D02*
X161857863Y-74574804D01*
%TO.N,Net-(JP2-A)*%
X166312981Y-72013359D02*
X166575481Y-72275859D01*
X166312981Y-70240639D02*
X166312981Y-72013359D01*
%TO.N,Net-(JP3-A)*%
X166312981Y-65909500D02*
X166575481Y-65647000D01*
X166312981Y-67700639D02*
X166312981Y-65909500D01*
%TO.N,Net-(U1-RBIAS)*%
X143605707Y-71925726D02*
X144756481Y-73076500D01*
X146597981Y-74918000D02*
X146597981Y-76950000D01*
X144756481Y-73076500D02*
X146597981Y-74918000D01*
X146597981Y-76950000D02*
X147124981Y-77477000D01*
X144540651Y-72860670D02*
X144756481Y-73076500D01*
X147124981Y-77477000D02*
X147124981Y-77837704D01*
X143250181Y-71925726D02*
X143605707Y-71925726D01*
X147124981Y-77837704D02*
X147469220Y-78181943D01*
%TO.N,Net-(R6-Pad1)*%
X134293981Y-61000000D02*
X134293981Y-58475500D01*
X133972481Y-58154000D02*
X133998731Y-58180250D01*
X134293981Y-58475500D02*
X133972481Y-58154000D01*
D44*
%TO.N,/Project Architecture/LAN8742A breakout/TXD0*%
X148883433Y-81275535D02*
X149314898Y-81707000D01*
D43*
X156199181Y-91378000D02*
X156199181Y-88265891D01*
D44*
X149640290Y-81707000D02*
X150058635Y-82125345D01*
X149314898Y-81707000D02*
X149640290Y-81707000D01*
D43*
X156199181Y-88265891D02*
X150058635Y-82125345D01*
%TO.N,/Project Architecture/LAN8742A breakout/MDC*%
X148579181Y-84824000D02*
X148579181Y-84653940D01*
X148579181Y-91378000D02*
X148579181Y-84824000D01*
D42*
X148579181Y-84265200D02*
X148579181Y-84824000D01*
X148248981Y-83935000D02*
X148579181Y-84265200D01*
D44*
X148248981Y-83935000D02*
X148248981Y-83469510D01*
X148248981Y-83469510D02*
X147469220Y-82689749D01*
D42*
%TO.N,/Project Architecture/LAN8742A breakout/CRS_DV*%
X145455819Y-83681838D02*
X145593981Y-83543676D01*
D44*
X145593981Y-82885609D02*
X146143395Y-82336195D01*
D42*
X145593981Y-83543676D02*
X145593981Y-82885609D01*
D43*
X143499181Y-85638476D02*
X145455819Y-83681838D01*
X143499181Y-91378000D02*
X143499181Y-85638476D01*
D44*
%TO.N,/Project Architecture/LAN8742A breakout/MDIO*%
X146496948Y-82689749D02*
X146093981Y-83092716D01*
D42*
X146093981Y-83092716D02*
X146093981Y-84058000D01*
D43*
X146039181Y-91378000D02*
X146093981Y-91323200D01*
X146093981Y-91323200D02*
X146093981Y-84167600D01*
%TO.N,/Project Architecture/LAN8742A breakout/RXD1*%
X143901140Y-81746159D02*
X143706822Y-81746159D01*
D44*
X143901140Y-81746159D02*
X144725317Y-80921982D01*
D43*
X143706822Y-81746159D02*
X135879181Y-89573800D01*
D44*
X144725317Y-80921982D02*
X144729181Y-80921982D01*
D43*
X135879181Y-89573800D02*
X135879181Y-91378000D01*
%TO.N,/Project Architecture/LAN8742A breakout/RXD0*%
X138419181Y-87797476D02*
X138419181Y-91378000D01*
D44*
X143975498Y-82241159D02*
X144117111Y-82241159D01*
D43*
X143804819Y-82411838D02*
X138419181Y-87797476D01*
D44*
X143804819Y-82411838D02*
X143975498Y-82241159D01*
X144117111Y-82241159D02*
X145082735Y-81275535D01*
D43*
%TO.N,/Project Architecture/LAN8742A breakout/TXD1*%
X158739181Y-91378000D02*
X158739181Y-90042215D01*
D44*
X149953966Y-81257000D02*
X150567473Y-81870507D01*
X149236987Y-80921982D02*
X149572005Y-81257000D01*
D43*
X158739181Y-90042215D02*
X150567473Y-81870507D01*
D44*
X149572005Y-81257000D02*
X149953966Y-81257000D01*
D43*
%TO.N,/Project Architecture/LAN8742A breakout/TXEN*%
X153659181Y-91378000D02*
X153659181Y-86489567D01*
D44*
X148529880Y-81629089D02*
X149057791Y-82157000D01*
X149057791Y-82157000D02*
X149326614Y-82157000D01*
D43*
X153659181Y-86489567D02*
X149684211Y-82514597D01*
D44*
X149326614Y-82157000D02*
X149684211Y-82514597D01*
D43*
%TO.N,/Project Architecture/LAN8742A breakout/RXER*%
X140959181Y-91378000D02*
X140959181Y-87414800D01*
X140959181Y-87414800D02*
X145073981Y-83300000D01*
D42*
X145073981Y-83300000D02*
X145073981Y-82698502D01*
D44*
X145073981Y-82698502D02*
X145789841Y-81982642D01*
%TD*%
%TA.AperFunction,Conductor*%
%TO.N,GND*%
G36*
X137953256Y-93725007D02*
G01*
X137919181Y-93852174D01*
X137919181Y-93983826D01*
X137953256Y-94110993D01*
X137986169Y-94168000D01*
X136312193Y-94168000D01*
X136345106Y-94110993D01*
X136379181Y-93983826D01*
X136379181Y-93852174D01*
X136345106Y-93725007D01*
X136312193Y-93668000D01*
X137986169Y-93668000D01*
X137953256Y-93725007D01*
G37*
%TD.AperFunction*%
%TA.AperFunction,Conductor*%
G36*
X140493256Y-93725007D02*
G01*
X140459181Y-93852174D01*
X140459181Y-93983826D01*
X140493256Y-94110993D01*
X140526169Y-94168000D01*
X138852193Y-94168000D01*
X138885106Y-94110993D01*
X138919181Y-93983826D01*
X138919181Y-93852174D01*
X138885106Y-93725007D01*
X138852193Y-93668000D01*
X140526169Y-93668000D01*
X140493256Y-93725007D01*
G37*
%TD.AperFunction*%
%TA.AperFunction,Conductor*%
G36*
X143033256Y-93725007D02*
G01*
X142999181Y-93852174D01*
X142999181Y-93983826D01*
X143033256Y-94110993D01*
X143066169Y-94168000D01*
X141392193Y-94168000D01*
X141425106Y-94110993D01*
X141459181Y-93983826D01*
X141459181Y-93852174D01*
X141425106Y-93725007D01*
X141392193Y-93668000D01*
X143066169Y-93668000D01*
X143033256Y-93725007D01*
G37*
%TD.AperFunction*%
%TA.AperFunction,Conductor*%
G36*
X145573256Y-93725007D02*
G01*
X145539181Y-93852174D01*
X145539181Y-93983826D01*
X145573256Y-94110993D01*
X145606169Y-94168000D01*
X143932193Y-94168000D01*
X143965106Y-94110993D01*
X143999181Y-93983826D01*
X143999181Y-93852174D01*
X143965106Y-93725007D01*
X143932193Y-93668000D01*
X145606169Y-93668000D01*
X145573256Y-93725007D01*
G37*
%TD.AperFunction*%
%TA.AperFunction,Conductor*%
G36*
X148113256Y-93725007D02*
G01*
X148079181Y-93852174D01*
X148079181Y-93983826D01*
X148113256Y-94110993D01*
X148146169Y-94168000D01*
X146472193Y-94168000D01*
X146505106Y-94110993D01*
X146539181Y-93983826D01*
X146539181Y-93852174D01*
X146505106Y-93725007D01*
X146472193Y-93668000D01*
X148146169Y-93668000D01*
X148113256Y-93725007D01*
G37*
%TD.AperFunction*%
%TA.AperFunction,Conductor*%
G36*
X150653256Y-93725007D02*
G01*
X150619181Y-93852174D01*
X150619181Y-93983826D01*
X150653256Y-94110993D01*
X150686169Y-94168000D01*
X149012193Y-94168000D01*
X149045106Y-94110993D01*
X149079181Y-93983826D01*
X149079181Y-93852174D01*
X149045106Y-93725007D01*
X149012193Y-93668000D01*
X150686169Y-93668000D01*
X150653256Y-93725007D01*
G37*
%TD.AperFunction*%
%TA.AperFunction,Conductor*%
G36*
X153193256Y-93725007D02*
G01*
X153159181Y-93852174D01*
X153159181Y-93983826D01*
X153193256Y-94110993D01*
X153226169Y-94168000D01*
X151552193Y-94168000D01*
X151585106Y-94110993D01*
X151619181Y-93983826D01*
X151619181Y-93852174D01*
X151585106Y-93725007D01*
X151552193Y-93668000D01*
X153226169Y-93668000D01*
X153193256Y-93725007D01*
G37*
%TD.AperFunction*%
%TA.AperFunction,Conductor*%
G36*
X155733256Y-93725007D02*
G01*
X155699181Y-93852174D01*
X155699181Y-93983826D01*
X155733256Y-94110993D01*
X155766169Y-94168000D01*
X154092193Y-94168000D01*
X154125106Y-94110993D01*
X154159181Y-93983826D01*
X154159181Y-93852174D01*
X154125106Y-93725007D01*
X154092193Y-93668000D01*
X155766169Y-93668000D01*
X155733256Y-93725007D01*
G37*
%TD.AperFunction*%
%TA.AperFunction,Conductor*%
G36*
X158273256Y-93725007D02*
G01*
X158239181Y-93852174D01*
X158239181Y-93983826D01*
X158273256Y-94110993D01*
X158306169Y-94168000D01*
X156632193Y-94168000D01*
X156665106Y-94110993D01*
X156699181Y-93983826D01*
X156699181Y-93852174D01*
X156665106Y-93725007D01*
X156632193Y-93668000D01*
X158306169Y-93668000D01*
X158273256Y-93725007D01*
G37*
%TD.AperFunction*%
%TA.AperFunction,Conductor*%
G36*
X147213634Y-78791317D02*
G01*
X147259389Y-78844121D01*
X147261154Y-78848175D01*
X147265671Y-78859081D01*
X147295490Y-78903708D01*
X147309130Y-78924122D01*
X147434148Y-79049139D01*
X147434150Y-79049140D01*
X147437365Y-79051779D01*
X147476699Y-79109526D01*
X147478568Y-79179370D01*
X147442381Y-79239138D01*
X147379625Y-79269854D01*
X147358699Y-79271632D01*
X147233084Y-79271632D01*
X147233084Y-79478739D01*
X147440191Y-79478739D01*
X147440191Y-79353123D01*
X147459876Y-79286084D01*
X147512680Y-79240329D01*
X147581838Y-79230385D01*
X147645394Y-79259410D01*
X147660048Y-79274463D01*
X147662682Y-79277673D01*
X147787703Y-79402693D01*
X147789245Y-79403723D01*
X147852739Y-79446149D01*
X147871600Y-79449900D01*
X147933511Y-79482284D01*
X147968086Y-79543000D01*
X147969027Y-79547323D01*
X147972780Y-79566188D01*
X147972780Y-79566189D01*
X147972780Y-79566190D01*
X147972781Y-79566191D01*
X148006285Y-79616334D01*
X148016237Y-79631228D01*
X148141257Y-79756247D01*
X148144469Y-79758883D01*
X148183806Y-79816627D01*
X148185679Y-79886471D01*
X148149494Y-79946241D01*
X148086739Y-79976960D01*
X148065808Y-79978739D01*
X147940191Y-79978739D01*
X147940191Y-80185846D01*
X148147298Y-80185846D01*
X148147298Y-80060231D01*
X148166983Y-79993192D01*
X148219787Y-79947437D01*
X148288945Y-79937493D01*
X148352501Y-79966518D01*
X148367157Y-79981573D01*
X148369790Y-79984782D01*
X148494808Y-80109799D01*
X148559845Y-80153256D01*
X148559847Y-80153256D01*
X148570751Y-80157773D01*
X148625154Y-80201614D01*
X148647219Y-80267908D01*
X148647298Y-80272334D01*
X148647298Y-80599357D01*
X148627613Y-80666396D01*
X148574809Y-80712151D01*
X148570755Y-80713916D01*
X148559848Y-80718433D01*
X148494807Y-80761892D01*
X148369792Y-80886908D01*
X148367151Y-80890127D01*
X148309404Y-80929461D01*
X148239560Y-80931330D01*
X148179792Y-80895143D01*
X148149076Y-80832387D01*
X148147298Y-80811461D01*
X148147298Y-80685846D01*
X147940191Y-80685846D01*
X147940191Y-80892953D01*
X148065806Y-80892953D01*
X148132845Y-80912638D01*
X148178600Y-80965442D01*
X148188544Y-81034600D01*
X148159519Y-81098156D01*
X148144472Y-81112806D01*
X148141254Y-81115446D01*
X148016236Y-81240465D01*
X147972782Y-81305498D01*
X147969028Y-81324369D01*
X147936640Y-81386278D01*
X147875923Y-81420850D01*
X147871608Y-81421789D01*
X147852739Y-81425543D01*
X147852738Y-81425543D01*
X147787701Y-81468999D01*
X147662684Y-81594017D01*
X147660043Y-81597236D01*
X147602296Y-81636569D01*
X147532451Y-81638438D01*
X147472684Y-81602249D01*
X147441969Y-81539493D01*
X147440191Y-81518569D01*
X147440191Y-81392953D01*
X147233084Y-81392953D01*
X147233084Y-81600060D01*
X147358698Y-81600060D01*
X147425737Y-81619745D01*
X147471492Y-81672549D01*
X147481436Y-81741707D01*
X147452411Y-81805263D01*
X147437362Y-81819914D01*
X147434150Y-81822549D01*
X147309129Y-81947571D01*
X147265673Y-82012607D01*
X147261155Y-82023515D01*
X147217313Y-82077918D01*
X147151018Y-82099981D01*
X147146595Y-82100060D01*
X146819572Y-82100060D01*
X146752533Y-82080375D01*
X146706778Y-82027571D01*
X146705009Y-82023508D01*
X146700493Y-82012605D01*
X146657039Y-81947571D01*
X146539636Y-81830169D01*
X146883084Y-81830169D01*
X146883084Y-81869951D01*
X146898308Y-81906705D01*
X146926439Y-81934836D01*
X146963193Y-81950060D01*
X147002975Y-81950060D01*
X147039729Y-81934836D01*
X147067860Y-81906705D01*
X147083084Y-81869951D01*
X147083084Y-81830169D01*
X147067860Y-81793415D01*
X147039729Y-81765284D01*
X147002975Y-81750060D01*
X146963193Y-81750060D01*
X146926439Y-81765284D01*
X146898308Y-81793415D01*
X146883084Y-81830169D01*
X146539636Y-81830169D01*
X146532021Y-81822554D01*
X146528803Y-81819913D01*
X146489469Y-81762166D01*
X146487600Y-81692322D01*
X146523787Y-81632554D01*
X146586543Y-81601838D01*
X146607469Y-81600060D01*
X146733084Y-81600060D01*
X146733084Y-81392953D01*
X146525977Y-81392953D01*
X146525977Y-81518568D01*
X146506292Y-81585607D01*
X146453488Y-81631362D01*
X146384330Y-81641306D01*
X146320774Y-81612281D01*
X146306124Y-81597234D01*
X146303483Y-81594016D01*
X146178464Y-81468998D01*
X146135108Y-81440028D01*
X146113429Y-81425543D01*
X146094560Y-81421789D01*
X146032651Y-81389403D01*
X145998079Y-81328686D01*
X145997140Y-81324369D01*
X145993387Y-81305501D01*
X145958701Y-81253590D01*
X145949932Y-81240465D01*
X145832528Y-81123062D01*
X146175977Y-81123062D01*
X146175977Y-81162844D01*
X146191201Y-81199598D01*
X146219332Y-81227729D01*
X146256086Y-81242953D01*
X146295868Y-81242953D01*
X146332622Y-81227729D01*
X146360753Y-81199598D01*
X146375977Y-81162844D01*
X146375977Y-81123062D01*
X147590191Y-81123062D01*
X147590191Y-81162844D01*
X147605415Y-81199598D01*
X147633546Y-81227729D01*
X147670300Y-81242953D01*
X147710082Y-81242953D01*
X147746836Y-81227729D01*
X147774967Y-81199598D01*
X147790191Y-81162844D01*
X147790191Y-81123062D01*
X147774967Y-81086308D01*
X147746836Y-81058177D01*
X147710082Y-81042953D01*
X147670300Y-81042953D01*
X147633546Y-81058177D01*
X147605415Y-81086308D01*
X147590191Y-81123062D01*
X146375977Y-81123062D01*
X146360753Y-81086308D01*
X146332622Y-81058177D01*
X146295868Y-81042953D01*
X146256086Y-81042953D01*
X146219332Y-81058177D01*
X146191201Y-81086308D01*
X146175977Y-81123062D01*
X145832528Y-81123062D01*
X145824910Y-81115444D01*
X145821699Y-81112809D01*
X145782362Y-81055065D01*
X145780489Y-80985221D01*
X145816674Y-80925451D01*
X145879429Y-80894732D01*
X145900360Y-80892953D01*
X146025977Y-80892953D01*
X146525977Y-80892953D01*
X146733084Y-80892953D01*
X147233084Y-80892953D01*
X147440191Y-80892953D01*
X147440191Y-80685846D01*
X147233084Y-80685846D01*
X147233084Y-80892953D01*
X146733084Y-80892953D01*
X146733084Y-80685846D01*
X146525977Y-80685846D01*
X146525977Y-80892953D01*
X146025977Y-80892953D01*
X146025977Y-80685846D01*
X145818870Y-80685846D01*
X145818870Y-80811460D01*
X145799185Y-80878499D01*
X145746381Y-80924254D01*
X145677223Y-80934198D01*
X145613667Y-80905173D01*
X145599016Y-80890124D01*
X145596380Y-80886912D01*
X145471358Y-80761891D01*
X145406322Y-80718435D01*
X145395415Y-80713917D01*
X145341012Y-80670075D01*
X145318949Y-80603780D01*
X145318870Y-80599357D01*
X145318870Y-80415955D01*
X145468870Y-80415955D01*
X145468870Y-80455737D01*
X145484094Y-80492491D01*
X145512225Y-80520622D01*
X145548979Y-80535846D01*
X145588761Y-80535846D01*
X145625515Y-80520622D01*
X145653646Y-80492491D01*
X145668870Y-80455737D01*
X145668870Y-80415955D01*
X146883084Y-80415955D01*
X146883084Y-80455737D01*
X146898308Y-80492491D01*
X146926439Y-80520622D01*
X146963193Y-80535846D01*
X147002975Y-80535846D01*
X147039729Y-80520622D01*
X147067860Y-80492491D01*
X147083084Y-80455737D01*
X147083084Y-80415955D01*
X148297298Y-80415955D01*
X148297298Y-80455737D01*
X148312522Y-80492491D01*
X148340653Y-80520622D01*
X148377407Y-80535846D01*
X148417189Y-80535846D01*
X148453943Y-80520622D01*
X148482074Y-80492491D01*
X148497298Y-80455737D01*
X148497298Y-80415955D01*
X148482074Y-80379201D01*
X148453943Y-80351070D01*
X148417189Y-80335846D01*
X148377407Y-80335846D01*
X148340653Y-80351070D01*
X148312522Y-80379201D01*
X148297298Y-80415955D01*
X147083084Y-80415955D01*
X147067860Y-80379201D01*
X147039729Y-80351070D01*
X147002975Y-80335846D01*
X146963193Y-80335846D01*
X146926439Y-80351070D01*
X146898308Y-80379201D01*
X146883084Y-80415955D01*
X145668870Y-80415955D01*
X145653646Y-80379201D01*
X145625515Y-80351070D01*
X145588761Y-80335846D01*
X145548979Y-80335846D01*
X145512225Y-80351070D01*
X145484094Y-80379201D01*
X145468870Y-80415955D01*
X145318870Y-80415955D01*
X145318870Y-80272334D01*
X145338555Y-80205295D01*
X145391359Y-80159540D01*
X145395422Y-80157771D01*
X145406320Y-80153256D01*
X145406323Y-80153256D01*
X145471360Y-80109800D01*
X145596377Y-79984782D01*
X145596379Y-79984777D01*
X145599013Y-79981570D01*
X145656756Y-79942233D01*
X145726601Y-79940359D01*
X145786371Y-79976543D01*
X145817090Y-80039297D01*
X145818870Y-80060230D01*
X145818870Y-80185846D01*
X146025977Y-80185846D01*
X146525977Y-80185846D01*
X146733084Y-80185846D01*
X147233084Y-80185846D01*
X147440191Y-80185846D01*
X147440191Y-79978739D01*
X147233084Y-79978739D01*
X147233084Y-80185846D01*
X146733084Y-80185846D01*
X146733084Y-79978739D01*
X146525977Y-79978739D01*
X146525977Y-80185846D01*
X146025977Y-80185846D01*
X146025977Y-79978739D01*
X145900362Y-79978739D01*
X145833323Y-79959054D01*
X145787568Y-79906250D01*
X145777624Y-79837092D01*
X145806649Y-79773536D01*
X145821696Y-79758886D01*
X145824906Y-79756250D01*
X145824913Y-79756246D01*
X145872311Y-79708848D01*
X146175977Y-79708848D01*
X146175977Y-79748630D01*
X146191201Y-79785384D01*
X146219332Y-79813515D01*
X146256086Y-79828739D01*
X146295868Y-79828739D01*
X146332622Y-79813515D01*
X146360753Y-79785384D01*
X146375977Y-79748630D01*
X146375977Y-79708848D01*
X147590191Y-79708848D01*
X147590191Y-79748630D01*
X147605415Y-79785384D01*
X147633546Y-79813515D01*
X147670300Y-79828739D01*
X147710082Y-79828739D01*
X147746836Y-79813515D01*
X147774967Y-79785384D01*
X147790191Y-79748630D01*
X147790191Y-79708848D01*
X147774967Y-79672094D01*
X147746836Y-79643963D01*
X147710082Y-79628739D01*
X147670300Y-79628739D01*
X147633546Y-79643963D01*
X147605415Y-79672094D01*
X147590191Y-79708848D01*
X146375977Y-79708848D01*
X146360753Y-79672094D01*
X146332622Y-79643963D01*
X146295868Y-79628739D01*
X146256086Y-79628739D01*
X146219332Y-79643963D01*
X146191201Y-79672094D01*
X146175977Y-79708848D01*
X145872311Y-79708848D01*
X145949930Y-79631228D01*
X145993387Y-79566191D01*
X145997139Y-79547328D01*
X146029521Y-79485418D01*
X146090236Y-79450842D01*
X146094534Y-79449907D01*
X146113429Y-79446149D01*
X146178466Y-79402693D01*
X146303483Y-79277675D01*
X146303485Y-79277671D01*
X146306121Y-79274461D01*
X146363865Y-79235124D01*
X146433709Y-79233251D01*
X146493479Y-79269436D01*
X146524198Y-79332191D01*
X146525977Y-79353122D01*
X146525977Y-79478739D01*
X146733084Y-79478739D01*
X146733084Y-79271632D01*
X146607470Y-79271632D01*
X146540431Y-79251947D01*
X146494676Y-79199143D01*
X146484732Y-79129985D01*
X146513757Y-79066429D01*
X146528806Y-79051778D01*
X146532017Y-79049142D01*
X146532016Y-79049142D01*
X146532020Y-79049140D01*
X146579419Y-79001741D01*
X146883084Y-79001741D01*
X146883084Y-79041523D01*
X146898308Y-79078277D01*
X146926439Y-79106408D01*
X146963193Y-79121632D01*
X147002975Y-79121632D01*
X147039729Y-79106408D01*
X147067860Y-79078277D01*
X147083084Y-79041523D01*
X147083084Y-79001741D01*
X147067860Y-78964987D01*
X147039729Y-78936856D01*
X147002975Y-78921632D01*
X146963193Y-78921632D01*
X146926439Y-78936856D01*
X146898308Y-78964987D01*
X146883084Y-79001741D01*
X146579419Y-79001741D01*
X146657037Y-78924122D01*
X146700494Y-78859085D01*
X146700494Y-78859080D01*
X146705011Y-78848179D01*
X146748852Y-78793776D01*
X146815146Y-78771711D01*
X146819572Y-78771632D01*
X147146595Y-78771632D01*
X147213634Y-78791317D01*
G37*
%TD.AperFunction*%
%TA.AperFunction,Conductor*%
G36*
X164297455Y-46250694D02*
G01*
X164594889Y-46267396D01*
X164608686Y-46268950D01*
X164898941Y-46318265D01*
X164912496Y-46321359D01*
X165195400Y-46402861D01*
X165208525Y-46407454D01*
X165480513Y-46520114D01*
X165493041Y-46526147D01*
X165750717Y-46668557D01*
X165762484Y-46675950D01*
X166002606Y-46846324D01*
X166013460Y-46854980D01*
X166121559Y-46951582D01*
X166232996Y-47051168D01*
X166242828Y-47061001D01*
X166439001Y-47280517D01*
X166447671Y-47291389D01*
X166618033Y-47531491D01*
X166625431Y-47543264D01*
X166767842Y-47800934D01*
X166773874Y-47813460D01*
X166850127Y-47997550D01*
X166886540Y-48085457D01*
X166891133Y-48098583D01*
X166972636Y-48381488D01*
X166975730Y-48395044D01*
X167025045Y-48685285D01*
X167026602Y-48699103D01*
X167043286Y-48996188D01*
X167043481Y-49003141D01*
X167043481Y-61147256D01*
X167023796Y-61214295D01*
X166970992Y-61260050D01*
X166901834Y-61269994D01*
X166838278Y-61240969D01*
X166825769Y-61228459D01*
X166799089Y-61197669D01*
X166794280Y-61193502D01*
X166754880Y-61159361D01*
X166754879Y-61159360D01*
X166633931Y-61081631D01*
X166633927Y-61081629D01*
X166633926Y-61081629D01*
X166580721Y-61057331D01*
X166490878Y-61030951D01*
X166442770Y-61016825D01*
X166442758Y-61016822D01*
X166384871Y-61008500D01*
X166384870Y-61008500D01*
X165812981Y-61008500D01*
X165812976Y-61008500D01*
X165767253Y-61013651D01*
X165722624Y-61035144D01*
X165653682Y-61046495D01*
X165616640Y-61030951D01*
X165614733Y-61034913D01*
X165602145Y-61028851D01*
X165512985Y-61008500D01*
X165512981Y-61008500D01*
X164941092Y-61008500D01*
X164941090Y-61008500D01*
X164883203Y-61016822D01*
X164883191Y-61016825D01*
X164745241Y-61057331D01*
X164692036Y-61081629D01*
X164692030Y-61081631D01*
X164571082Y-61159360D01*
X164571081Y-61159361D01*
X164544778Y-61182154D01*
X164531682Y-61193502D01*
X164526873Y-61197669D01*
X164432730Y-61306315D01*
X164432719Y-61306331D01*
X164401102Y-61355527D01*
X164401093Y-61355543D01*
X164341374Y-61486310D01*
X164324893Y-61542438D01*
X164324891Y-61542443D01*
X164304431Y-61684754D01*
X164304431Y-61743244D01*
X164306219Y-61755680D01*
X164307481Y-61773327D01*
X164307481Y-62154673D01*
X164306219Y-62172319D01*
X164304431Y-62184753D01*
X164304431Y-62196216D01*
X164284746Y-62263255D01*
X164268112Y-62283897D01*
X162650470Y-63901540D01*
X162594522Y-63957487D01*
X162594516Y-63957495D01*
X162554963Y-64026004D01*
X162554960Y-64026009D01*
X162534481Y-64102439D01*
X162534481Y-72856166D01*
X162514796Y-72923205D01*
X162498162Y-72943847D01*
X161821651Y-73620357D01*
X161760328Y-73653842D01*
X161699036Y-73651653D01*
X161592106Y-73620256D01*
X161592104Y-73620256D01*
X161455370Y-73620256D01*
X161455369Y-73620256D01*
X161324177Y-73658777D01*
X161209150Y-73732698D01*
X161209146Y-73732702D01*
X161119609Y-73836034D01*
X161119604Y-73836041D01*
X161062807Y-73960410D01*
X161062805Y-73960418D01*
X161043347Y-74095756D01*
X161062805Y-74231093D01*
X161062807Y-74231101D01*
X161119604Y-74355470D01*
X161119609Y-74355477D01*
X161204940Y-74453955D01*
X161209148Y-74458811D01*
X161293894Y-74513273D01*
X161324174Y-74532733D01*
X161330514Y-74535628D01*
X161383320Y-74581381D01*
X161403008Y-74648419D01*
X161397987Y-74683352D01*
X161396933Y-74686942D01*
X161377473Y-74822292D01*
X161396931Y-74957629D01*
X161396933Y-74957637D01*
X161453730Y-75082006D01*
X161453735Y-75082013D01*
X161543272Y-75185345D01*
X161543276Y-75185349D01*
X161603842Y-75224271D01*
X161658302Y-75259270D01*
X161723899Y-75278531D01*
X161789495Y-75297792D01*
X161789496Y-75297792D01*
X161926230Y-75297792D01*
X162057424Y-75259270D01*
X162172452Y-75185347D01*
X162261993Y-75082010D01*
X162318794Y-74957634D01*
X162338253Y-74822292D01*
X162318794Y-74686950D01*
X162318790Y-74686942D01*
X162308126Y-74663590D01*
X162298182Y-74594432D01*
X162327206Y-74530876D01*
X162333224Y-74524412D01*
X162727390Y-74130247D01*
X164640481Y-74130247D01*
X164640481Y-75869752D01*
X164652112Y-75928229D01*
X164652113Y-75928230D01*
X164696428Y-75994552D01*
X164762750Y-76038867D01*
X164762751Y-76038868D01*
X164821228Y-76050499D01*
X164821231Y-76050500D01*
X164821233Y-76050500D01*
X166560731Y-76050500D01*
X166560732Y-76050499D01*
X166575549Y-76047552D01*
X166619210Y-76038868D01*
X166619210Y-76038867D01*
X166619212Y-76038867D01*
X166685533Y-75994552D01*
X166729848Y-75928231D01*
X166729848Y-75928229D01*
X166729849Y-75928229D01*
X166741480Y-75869752D01*
X166741481Y-75869750D01*
X166741481Y-74130249D01*
X166741480Y-74130247D01*
X166729849Y-74071770D01*
X166729848Y-74071769D01*
X166685533Y-74005447D01*
X166619211Y-73961132D01*
X166619210Y-73961131D01*
X166560733Y-73949500D01*
X166560729Y-73949500D01*
X164821233Y-73949500D01*
X164821228Y-73949500D01*
X164762751Y-73961131D01*
X164762750Y-73961132D01*
X164696428Y-74005447D01*
X164652113Y-74071769D01*
X164652112Y-74071770D01*
X164640481Y-74130247D01*
X162727390Y-74130247D01*
X163475441Y-73382197D01*
X163513105Y-73316960D01*
X163515002Y-73313675D01*
X163535481Y-73237248D01*
X163535481Y-72714245D01*
X163555166Y-72647206D01*
X163607970Y-72601451D01*
X163677128Y-72591507D01*
X163740684Y-72620532D01*
X163777187Y-72675241D01*
X163827527Y-72827159D01*
X163827532Y-72827170D01*
X163918033Y-72973893D01*
X163918036Y-72973897D01*
X164039942Y-73095803D01*
X164039946Y-73095806D01*
X164186669Y-73186307D01*
X164186680Y-73186312D01*
X164350328Y-73240539D01*
X164451332Y-73250858D01*
X164500480Y-73250857D01*
X164500481Y-73250857D01*
X164500481Y-72149859D01*
X164520166Y-72082820D01*
X164572970Y-72037065D01*
X164624481Y-72025859D01*
X164876481Y-72025859D01*
X164943520Y-72045544D01*
X164989275Y-72098348D01*
X165000481Y-72149859D01*
X165000481Y-73250858D01*
X165049621Y-73250858D01*
X165049635Y-73250857D01*
X165150633Y-73240539D01*
X165314281Y-73186312D01*
X165314292Y-73186307D01*
X165461015Y-73095806D01*
X165461019Y-73095803D01*
X165582925Y-72973897D01*
X165582928Y-72973893D01*
X165673429Y-72827170D01*
X165673435Y-72827157D01*
X165704087Y-72734653D01*
X165743858Y-72677208D01*
X165808374Y-72650384D01*
X165877150Y-72662698D01*
X165928350Y-72710241D01*
X165931422Y-72715711D01*
X165933863Y-72720329D01*
X165933865Y-72720334D01*
X165933868Y-72720338D01*
X166012269Y-72826569D01*
X166012270Y-72826570D01*
X166118504Y-72904974D01*
X166118505Y-72904974D01*
X166118506Y-72904975D01*
X166243132Y-72948584D01*
X166243131Y-72948584D01*
X166272721Y-72951359D01*
X166272725Y-72951359D01*
X166878239Y-72951359D01*
X166890999Y-72950162D01*
X166907830Y-72948584D01*
X166907830Y-72948583D01*
X166907902Y-72948577D01*
X166976487Y-72961915D01*
X167026973Y-73010216D01*
X167043481Y-73072035D01*
X167043481Y-83724639D01*
X167023796Y-83791678D01*
X166970992Y-83837433D01*
X166901834Y-83847377D01*
X166838278Y-83818352D01*
X166817906Y-83795763D01*
X166729090Y-83668922D01*
X166729089Y-83668920D01*
X166562063Y-83501894D01*
X166368559Y-83366399D01*
X166154473Y-83266570D01*
X166154467Y-83266567D01*
X166032330Y-83233841D01*
X165972670Y-83197476D01*
X165942141Y-83134629D01*
X165950436Y-83065253D01*
X165994921Y-83011375D01*
X166028425Y-82995407D01*
X166094935Y-82975232D01*
X166277431Y-82877685D01*
X166437391Y-82746410D01*
X166568666Y-82586450D01*
X166666213Y-82403954D01*
X166726281Y-82205934D01*
X166746564Y-82000000D01*
X166726281Y-81794066D01*
X166666213Y-81596046D01*
X166568666Y-81413550D01*
X166500980Y-81331074D01*
X166437391Y-81253589D01*
X166309056Y-81148269D01*
X166277431Y-81122315D01*
X166094935Y-81024768D01*
X165896915Y-80964700D01*
X165896913Y-80964699D01*
X165896915Y-80964699D01*
X165690981Y-80944417D01*
X165485048Y-80964699D01*
X165287024Y-81024769D01*
X165193907Y-81074542D01*
X165104531Y-81122315D01*
X165104529Y-81122316D01*
X165104528Y-81122317D01*
X164944570Y-81253589D01*
X164813298Y-81413547D01*
X164813296Y-81413550D01*
X164793981Y-81449685D01*
X164715750Y-81596043D01*
X164655680Y-81794067D01*
X164635398Y-82000000D01*
X164655680Y-82205932D01*
X164678977Y-82282731D01*
X164715749Y-82403954D01*
X164813296Y-82586450D01*
X164833879Y-82611531D01*
X164944570Y-82746410D01*
X165010291Y-82800345D01*
X165104531Y-82877685D01*
X165287027Y-82975232D01*
X165353532Y-82995405D01*
X165411970Y-83033702D01*
X165440427Y-83097514D01*
X165429868Y-83166581D01*
X165383644Y-83218975D01*
X165349631Y-83233841D01*
X165227495Y-83266567D01*
X165227488Y-83266570D01*
X165013403Y-83366399D01*
X165013401Y-83366400D01*
X164819907Y-83501886D01*
X164819901Y-83501891D01*
X164652872Y-83668920D01*
X164652867Y-83668926D01*
X164517381Y-83862420D01*
X164517380Y-83862422D01*
X164417551Y-84076507D01*
X164417548Y-84076513D01*
X164360345Y-84289999D01*
X164360345Y-84290000D01*
X165257969Y-84290000D01*
X165225056Y-84347007D01*
X165190981Y-84474174D01*
X165190981Y-84605826D01*
X165225056Y-84732993D01*
X165257969Y-84790000D01*
X164360345Y-84790000D01*
X164417548Y-85003486D01*
X164417551Y-85003492D01*
X164517380Y-85217578D01*
X164652875Y-85411082D01*
X164819898Y-85578105D01*
X165013402Y-85713600D01*
X165183929Y-85793118D01*
X165236368Y-85839290D01*
X165255520Y-85906484D01*
X165235304Y-85973365D01*
X165182139Y-86018700D01*
X165131524Y-86029500D01*
X164821228Y-86029500D01*
X164762751Y-86041131D01*
X164762750Y-86041132D01*
X164696428Y-86085447D01*
X164652113Y-86151769D01*
X164652112Y-86151770D01*
X164640481Y-86210247D01*
X164640481Y-86505500D01*
X164620796Y-86572539D01*
X164567992Y-86618294D01*
X164516481Y-86629500D01*
X163464730Y-86629500D01*
X163397691Y-86609815D01*
X163395839Y-86608602D01*
X163352058Y-86579348D01*
X163354072Y-86576332D01*
X163316084Y-86545719D01*
X163294020Y-86479424D01*
X163311300Y-86411725D01*
X163353346Y-86372579D01*
X163352058Y-86370652D01*
X163428533Y-86319552D01*
X163472848Y-86253231D01*
X163472848Y-86253229D01*
X163472849Y-86253229D01*
X163484480Y-86194752D01*
X163484481Y-86194750D01*
X163484481Y-85355249D01*
X163484480Y-85355247D01*
X163472849Y-85296770D01*
X163472848Y-85296769D01*
X163428533Y-85230447D01*
X163362211Y-85186132D01*
X163362210Y-85186131D01*
X163303733Y-85174500D01*
X163303729Y-85174500D01*
X162404233Y-85174500D01*
X162404228Y-85174500D01*
X162345751Y-85186131D01*
X162345750Y-85186132D01*
X162279428Y-85230447D01*
X162235113Y-85296769D01*
X162235112Y-85296770D01*
X162223481Y-85355247D01*
X162223481Y-86194752D01*
X162235112Y-86253229D01*
X162235113Y-86253230D01*
X162279428Y-86319552D01*
X162355904Y-86370652D01*
X162353889Y-86373666D01*
X162391885Y-86404293D01*
X162413942Y-86470590D01*
X162396654Y-86538287D01*
X162354613Y-86577417D01*
X162355904Y-86579348D01*
X162279428Y-86630447D01*
X162235113Y-86696769D01*
X162235112Y-86696770D01*
X162223481Y-86755247D01*
X162223481Y-87594752D01*
X162235112Y-87653229D01*
X162235113Y-87653230D01*
X162279428Y-87719552D01*
X162345750Y-87763867D01*
X162345751Y-87763868D01*
X162404228Y-87775499D01*
X162404231Y-87775500D01*
X162404233Y-87775500D01*
X163303731Y-87775500D01*
X163303732Y-87775499D01*
X163319203Y-87772422D01*
X163362210Y-87763868D01*
X163362210Y-87763867D01*
X163362212Y-87763867D01*
X163428533Y-87719552D01*
X163472848Y-87653231D01*
X163477407Y-87630309D01*
X163509792Y-87568398D01*
X163570508Y-87533824D01*
X163599025Y-87530500D01*
X164516481Y-87530500D01*
X164583520Y-87550185D01*
X164629275Y-87602989D01*
X164640481Y-87654500D01*
X164640481Y-87949752D01*
X164652112Y-88008229D01*
X164652113Y-88008230D01*
X164696428Y-88074552D01*
X164762750Y-88118867D01*
X164762751Y-88118868D01*
X164821228Y-88130499D01*
X164821231Y-88130500D01*
X164821233Y-88130500D01*
X166560731Y-88130500D01*
X166560732Y-88130499D01*
X166575549Y-88127552D01*
X166619210Y-88118868D01*
X166619210Y-88118867D01*
X166619212Y-88118867D01*
X166685533Y-88074552D01*
X166729848Y-88008231D01*
X166729848Y-88008229D01*
X166729849Y-88008229D01*
X166741480Y-87949752D01*
X166741481Y-87949750D01*
X166741481Y-86210249D01*
X166741480Y-86210247D01*
X166729849Y-86151770D01*
X166729848Y-86151769D01*
X166685533Y-86085447D01*
X166619211Y-86041132D01*
X166619210Y-86041131D01*
X166560733Y-86029500D01*
X166560729Y-86029500D01*
X166250438Y-86029500D01*
X166183399Y-86009815D01*
X166137644Y-85957011D01*
X166127700Y-85887853D01*
X166156725Y-85824297D01*
X166198033Y-85793118D01*
X166368559Y-85713600D01*
X166562063Y-85578105D01*
X166729086Y-85411082D01*
X166817906Y-85284236D01*
X166872483Y-85240611D01*
X166941982Y-85233419D01*
X167004336Y-85264941D01*
X167039750Y-85325171D01*
X167043481Y-85355360D01*
X167043481Y-92996519D01*
X167043286Y-93003472D01*
X167026583Y-93300892D01*
X167025026Y-93314710D01*
X166975711Y-93604951D01*
X166972617Y-93618508D01*
X166891114Y-93901411D01*
X166886521Y-93914535D01*
X166773859Y-94186527D01*
X166767830Y-94199046D01*
X166625412Y-94456731D01*
X166618020Y-94468495D01*
X166447656Y-94708598D01*
X166438987Y-94719469D01*
X166242811Y-94938990D01*
X166232977Y-94948823D01*
X166013457Y-95144996D01*
X166002586Y-95153666D01*
X165762482Y-95324028D01*
X165750707Y-95331426D01*
X165493033Y-95473835D01*
X165480505Y-95479868D01*
X165208519Y-95592527D01*
X165195394Y-95597120D01*
X164912492Y-95678621D01*
X164898935Y-95681715D01*
X164608694Y-95731028D01*
X164594876Y-95732585D01*
X164323349Y-95747831D01*
X164297116Y-95749305D01*
X164290166Y-95749500D01*
X130297464Y-95749500D01*
X130290512Y-95749305D01*
X130251882Y-95747135D01*
X129993089Y-95732600D01*
X129979272Y-95731043D01*
X129689032Y-95681728D01*
X129675475Y-95678634D01*
X129392574Y-95597130D01*
X129379449Y-95592537D01*
X129107456Y-95479873D01*
X129094931Y-95473841D01*
X128837255Y-95331426D01*
X128825495Y-95324036D01*
X128585378Y-95153663D01*
X128574515Y-95144999D01*
X128355001Y-94948828D01*
X128345168Y-94938996D01*
X128221399Y-94800498D01*
X128148982Y-94719462D01*
X128140324Y-94708605D01*
X127992505Y-94500273D01*
X127969958Y-94468495D01*
X127962560Y-94456721D01*
X127820150Y-94199049D01*
X127814117Y-94186520D01*
X127701459Y-93914537D01*
X127696866Y-93901413D01*
X127636380Y-93691463D01*
X127615361Y-93618506D01*
X127612268Y-93604951D01*
X127562952Y-93314700D01*
X127561398Y-93300901D01*
X127544676Y-93003128D01*
X127544481Y-92996176D01*
X127544481Y-92881995D01*
X128493481Y-92881995D01*
X128493481Y-93118004D01*
X128493482Y-93118020D01*
X128524287Y-93352010D01*
X128585375Y-93579993D01*
X128675695Y-93798045D01*
X128675700Y-93798056D01*
X128701328Y-93842444D01*
X128793708Y-94002450D01*
X128793710Y-94002453D01*
X128793711Y-94002454D01*
X128937387Y-94189697D01*
X128937393Y-94189704D01*
X129104276Y-94356587D01*
X129104283Y-94356593D01*
X129214287Y-94441001D01*
X129291531Y-94500273D01*
X129393845Y-94559344D01*
X129495924Y-94618280D01*
X129495929Y-94618282D01*
X129495932Y-94618284D01*
X129713988Y-94708606D01*
X129941967Y-94769693D01*
X130175970Y-94800500D01*
X130175977Y-94800500D01*
X130411985Y-94800500D01*
X130411992Y-94800500D01*
X130645995Y-94769693D01*
X130873974Y-94708606D01*
X131092030Y-94618284D01*
X131296431Y-94500273D01*
X131483680Y-94356592D01*
X131650573Y-94189699D01*
X131794254Y-94002450D01*
X131912265Y-93798049D01*
X132002587Y-93579993D01*
X132063674Y-93352014D01*
X132094481Y-93118011D01*
X132094481Y-92881989D01*
X132063674Y-92647986D01*
X132002587Y-92420007D01*
X131912265Y-92201951D01*
X131912263Y-92201948D01*
X131912261Y-92201943D01*
X131867497Y-92124410D01*
X131794254Y-91997550D01*
X131650573Y-91810301D01*
X131650568Y-91810295D01*
X131483685Y-91643412D01*
X131483678Y-91643406D01*
X131296435Y-91499730D01*
X131296434Y-91499729D01*
X131296431Y-91499727D01*
X131214938Y-91452677D01*
X131092037Y-91381719D01*
X131092026Y-91381714D01*
X130873974Y-91291394D01*
X130645991Y-91230306D01*
X130412001Y-91199501D01*
X130411998Y-91199500D01*
X130411992Y-91199500D01*
X130175970Y-91199500D01*
X130175964Y-91199500D01*
X130175960Y-91199501D01*
X129941970Y-91230306D01*
X129713987Y-91291394D01*
X129495935Y-91381714D01*
X129495924Y-91381719D01*
X129291526Y-91499730D01*
X129104283Y-91643406D01*
X129104276Y-91643412D01*
X128937393Y-91810295D01*
X128937387Y-91810302D01*
X128793711Y-91997545D01*
X128675700Y-92201943D01*
X128675695Y-92201954D01*
X128585375Y-92420006D01*
X128524287Y-92647989D01*
X128493482Y-92881979D01*
X128493481Y-92881995D01*
X127544481Y-92881995D01*
X127544481Y-82649493D01*
X136713028Y-82649493D01*
X136783132Y-82719597D01*
X136861850Y-82783724D01*
X136861855Y-82783727D01*
X137015916Y-82861100D01*
X137183677Y-82900859D01*
X137356073Y-82900859D01*
X137473671Y-82872988D01*
X137543443Y-82876682D01*
X137600142Y-82917511D01*
X137624882Y-82975164D01*
X137627933Y-82995405D01*
X137642103Y-83089416D01*
X137664435Y-83135788D01*
X137699391Y-83208377D01*
X137718359Y-83231269D01*
X138217220Y-83730130D01*
X138240112Y-83749098D01*
X138240113Y-83749098D01*
X138240114Y-83749099D01*
X138359074Y-83806387D01*
X138424354Y-83816226D01*
X138489634Y-83826066D01*
X138489635Y-83826066D01*
X138489636Y-83826066D01*
X138540814Y-83818352D01*
X138620196Y-83806387D01*
X138739156Y-83749099D01*
X138762044Y-83730136D01*
X139172528Y-83319652D01*
X139191491Y-83296764D01*
X139248779Y-83177804D01*
X139268458Y-83047243D01*
X139265565Y-83028052D01*
X139253050Y-82945021D01*
X139248779Y-82916682D01*
X139197646Y-82810504D01*
X139186295Y-82741566D01*
X139214017Y-82677431D01*
X139221671Y-82669040D01*
X139242195Y-82648516D01*
X139303515Y-82615033D01*
X139373207Y-82620017D01*
X139383666Y-82624475D01*
X139501494Y-82681218D01*
X139566774Y-82691057D01*
X139632054Y-82700897D01*
X139632055Y-82700897D01*
X139632056Y-82700897D01*
X139664695Y-82695977D01*
X139762616Y-82681218D01*
X139820779Y-82653208D01*
X139889715Y-82641857D01*
X139953850Y-82669578D01*
X139962258Y-82677248D01*
X140190470Y-82905460D01*
X140258993Y-82945022D01*
X140335419Y-82965500D01*
X140414543Y-82965500D01*
X140457559Y-82965500D01*
X140524598Y-82985185D01*
X140551271Y-83008297D01*
X140568389Y-83028052D01*
X140568394Y-83028057D01*
X140611227Y-83055583D01*
X140683420Y-83101978D01*
X140749017Y-83121239D01*
X140814613Y-83140500D01*
X140814614Y-83140500D01*
X140951348Y-83140500D01*
X141082542Y-83101978D01*
X141197570Y-83028055D01*
X141287111Y-82924718D01*
X141290781Y-82916683D01*
X141310735Y-82872988D01*
X141343912Y-82800342D01*
X141363371Y-82665000D01*
X141343912Y-82529658D01*
X141322376Y-82482500D01*
X141287113Y-82405285D01*
X141287108Y-82405278D01*
X141197571Y-82301946D01*
X141197567Y-82301942D01*
X141106717Y-82243558D01*
X141082542Y-82228022D01*
X141082541Y-82228021D01*
X141082540Y-82228021D01*
X140951349Y-82189500D01*
X140951348Y-82189500D01*
X140814614Y-82189500D01*
X140814613Y-82189500D01*
X140683422Y-82228020D01*
X140572401Y-82299367D01*
X140505362Y-82319050D01*
X140438323Y-82299364D01*
X140417683Y-82282731D01*
X140387229Y-82252277D01*
X140353744Y-82190954D01*
X140358728Y-82121262D01*
X140363177Y-82110822D01*
X140391199Y-82052635D01*
X140410878Y-81922074D01*
X140410878Y-81912781D01*
X140414246Y-81912781D01*
X140421426Y-81860162D01*
X140466801Y-81807031D01*
X140533697Y-81786865D01*
X140563184Y-81790204D01*
X140702812Y-81823296D01*
X140875208Y-81823296D01*
X141042968Y-81783537D01*
X141197030Y-81706163D01*
X141197033Y-81706161D01*
X141275741Y-81642046D01*
X141275755Y-81642033D01*
X141345856Y-81571931D01*
X141345856Y-81571930D01*
X140833204Y-81059279D01*
X139696700Y-79922775D01*
X139677832Y-79894538D01*
X139661795Y-79878501D01*
X138891097Y-80649199D01*
X138829774Y-80682684D01*
X138803416Y-80685518D01*
X138694255Y-80685518D01*
X138368101Y-81011673D01*
X137590723Y-81789050D01*
X137550497Y-81815929D01*
X137543833Y-81818689D01*
X137225681Y-82136842D01*
X136713028Y-82649493D01*
X127544481Y-82649493D01*
X127544481Y-81652896D01*
X136108111Y-81652896D01*
X136108111Y-81825293D01*
X136147869Y-81993053D01*
X136225242Y-82147114D01*
X136289367Y-82225832D01*
X136359475Y-82295940D01*
X136872128Y-81783289D01*
X136315281Y-81226442D01*
X136289371Y-81252353D01*
X136225242Y-81331074D01*
X136147870Y-81485134D01*
X136108111Y-81652896D01*
X127544481Y-81652896D01*
X127544481Y-80872889D01*
X136668834Y-80872889D01*
X137225680Y-81429735D01*
X138003058Y-80652358D01*
X138043288Y-80625477D01*
X138049950Y-80622717D01*
X139138799Y-79533869D01*
X139200122Y-79500384D01*
X139226480Y-79497550D01*
X139280844Y-79497550D01*
X139280844Y-79497549D01*
X138795589Y-79012295D01*
X138725476Y-79082409D01*
X138725468Y-79082419D01*
X138661363Y-79161112D01*
X138661356Y-79161122D01*
X138583983Y-79315183D01*
X138552761Y-79446924D01*
X138518146Y-79507617D01*
X138456214Y-79539961D01*
X138417528Y-79539253D01*
X138417279Y-79541388D01*
X138410110Y-79540550D01*
X138237709Y-79540550D01*
X138069946Y-79580309D01*
X137915887Y-79657681D01*
X137837167Y-79721807D01*
X137837161Y-79721813D01*
X137431796Y-80127179D01*
X137431788Y-80127188D01*
X137367662Y-80205905D01*
X137290290Y-80359965D01*
X137250531Y-80527727D01*
X137250531Y-80541719D01*
X137230846Y-80608758D01*
X137178042Y-80654513D01*
X137126531Y-80665719D01*
X137095289Y-80665719D01*
X136927526Y-80705478D01*
X136773467Y-80782850D01*
X136694744Y-80846979D01*
X136668834Y-80872889D01*
X127544481Y-80872889D01*
X127544481Y-78363362D01*
X129975956Y-78363362D01*
X129975956Y-78533473D01*
X130016665Y-78698642D01*
X130037869Y-78739042D01*
X130095722Y-78849270D01*
X130141094Y-78903713D01*
X130928268Y-79690887D01*
X130982711Y-79736259D01*
X131133338Y-79815315D01*
X131298507Y-79856025D01*
X131468619Y-79856025D01*
X131633788Y-79815315D01*
X131784415Y-79736259D01*
X131838858Y-79690887D01*
X132487870Y-79041875D01*
X135167731Y-79041875D01*
X135167731Y-79214272D01*
X135207490Y-79382034D01*
X135284862Y-79536093D01*
X135348987Y-79614811D01*
X135374901Y-79640725D01*
X135931748Y-79083880D01*
X135419095Y-78571227D01*
X135348982Y-78641341D01*
X135348974Y-78641351D01*
X135284869Y-78720044D01*
X135284862Y-78720054D01*
X135207489Y-78874115D01*
X135167731Y-79041875D01*
X132487870Y-79041875D01*
X133981945Y-77547800D01*
X134043268Y-77514315D01*
X134069626Y-77511481D01*
X136632608Y-77511481D01*
X136699647Y-77531166D01*
X136745402Y-77583970D01*
X136755346Y-77653128D01*
X136744328Y-77689282D01*
X136701723Y-77777750D01*
X136701723Y-77777753D01*
X136684502Y-77892004D01*
X136655045Y-77955361D01*
X136596011Y-77992734D01*
X136533292Y-77994180D01*
X136415694Y-77966310D01*
X136243297Y-77966310D01*
X136075536Y-78006068D01*
X135921475Y-78083441D01*
X135842752Y-78147570D01*
X135772648Y-78217674D01*
X136551172Y-78996198D01*
X136584657Y-79057521D01*
X136579673Y-79127213D01*
X136551172Y-79171560D01*
X135728454Y-79994278D01*
X135728454Y-79994279D01*
X135754360Y-80020184D01*
X135754370Y-80020193D01*
X135833086Y-80084318D01*
X135987146Y-80161690D01*
X136154909Y-80201450D01*
X136327305Y-80201450D01*
X136495065Y-80161691D01*
X136649126Y-80084318D01*
X136727846Y-80020192D01*
X136727852Y-80020186D01*
X137221605Y-79526432D01*
X137221613Y-79526423D01*
X137285736Y-79447710D01*
X137285739Y-79447705D01*
X137363112Y-79293644D01*
X137402871Y-79125884D01*
X137402871Y-78953487D01*
X137375000Y-78835889D01*
X137378694Y-78766117D01*
X137419523Y-78709418D01*
X137477174Y-78684679D01*
X137591428Y-78667458D01*
X137710388Y-78610170D01*
X137733275Y-78591207D01*
X138123543Y-78200939D01*
X138184866Y-78167454D01*
X138211224Y-78164620D01*
X139119421Y-78164620D01*
X139119423Y-78164620D01*
X139195850Y-78144141D01*
X139264372Y-78104580D01*
X139320321Y-78048631D01*
X140088533Y-77280419D01*
X140149856Y-77246934D01*
X140176214Y-77244100D01*
X140850582Y-77244100D01*
X140917621Y-77263785D01*
X140924658Y-77271906D01*
X140984104Y-77245245D01*
X141000916Y-77244100D01*
X142254345Y-77244100D01*
X142321384Y-77263785D01*
X142342026Y-77280419D01*
X144331433Y-79269826D01*
X144364918Y-79331149D01*
X144359934Y-79400841D01*
X144331434Y-79445188D01*
X144215538Y-79561085D01*
X144172081Y-79626122D01*
X144172080Y-79626123D01*
X144151670Y-79728736D01*
X144151670Y-79728741D01*
X144172080Y-79831352D01*
X144176755Y-79842637D01*
X144174693Y-79843490D01*
X144190724Y-79894687D01*
X144172240Y-79962067D01*
X144154427Y-79984581D01*
X144096830Y-80042180D01*
X144035507Y-80075666D01*
X144009147Y-80078500D01*
X143121831Y-80078500D01*
X143054792Y-80058815D01*
X143034150Y-80042181D01*
X142823602Y-79831633D01*
X142790117Y-79770310D01*
X142795101Y-79700618D01*
X142799551Y-79690176D01*
X142856302Y-79572333D01*
X142875981Y-79441772D01*
X142874711Y-79433349D01*
X142856302Y-79311212D01*
X142856301Y-79311208D01*
X142799017Y-79192257D01*
X142799015Y-79192253D01*
X142799014Y-79192252D01*
X142799014Y-79192251D01*
X142780051Y-79169363D01*
X142369567Y-78758879D01*
X142346679Y-78739916D01*
X142346677Y-78739915D01*
X142346676Y-78739914D01*
X142346672Y-78739912D01*
X142227721Y-78682628D01*
X142227717Y-78682627D01*
X142097159Y-78662949D01*
X142097157Y-78662949D01*
X141966598Y-78682627D01*
X141966594Y-78682628D01*
X141848778Y-78739366D01*
X141779837Y-78750718D01*
X141715703Y-78722996D01*
X141707296Y-78715327D01*
X141649148Y-78657179D01*
X141615663Y-78595856D01*
X141620647Y-78526164D01*
X141625109Y-78515696D01*
X141627602Y-78510517D01*
X141627605Y-78510515D01*
X141684893Y-78391555D01*
X141704572Y-78260994D01*
X141696777Y-78209281D01*
X141686959Y-78144140D01*
X141684893Y-78130433D01*
X141670170Y-78099861D01*
X141627608Y-78011479D01*
X141627606Y-78011475D01*
X141627605Y-78011474D01*
X141627605Y-78011473D01*
X141608642Y-77988585D01*
X141198158Y-77578101D01*
X141175270Y-77559138D01*
X141175268Y-77559137D01*
X141175267Y-77559136D01*
X141175263Y-77559134D01*
X141056312Y-77501850D01*
X141056308Y-77501849D01*
X140982435Y-77490715D01*
X140922915Y-77463042D01*
X140885517Y-77487077D01*
X140869063Y-77490715D01*
X140795189Y-77501849D01*
X140795188Y-77501850D01*
X140676226Y-77559138D01*
X140653334Y-77578106D01*
X140154473Y-78076967D01*
X140135505Y-78099859D01*
X140078217Y-78218821D01*
X140060996Y-78333072D01*
X140031539Y-78396429D01*
X139972505Y-78433802D01*
X139909786Y-78435248D01*
X139792188Y-78407378D01*
X139619791Y-78407378D01*
X139452030Y-78447136D01*
X139297969Y-78524509D01*
X139219246Y-78588638D01*
X139149142Y-78658742D01*
X140798298Y-80307898D01*
X140817166Y-80336135D01*
X141699409Y-81218378D01*
X141769508Y-81148278D01*
X141769516Y-81148269D01*
X141833639Y-81069556D01*
X141833642Y-81069551D01*
X141911015Y-80915490D01*
X141950774Y-80747730D01*
X141950774Y-80575333D01*
X141922903Y-80457735D01*
X141926597Y-80387963D01*
X141967426Y-80331264D01*
X142025077Y-80306525D01*
X142139331Y-80289304D01*
X142257152Y-80232564D01*
X142326089Y-80221213D01*
X142390224Y-80248935D01*
X142398631Y-80256604D01*
X142761487Y-80619460D01*
X142810516Y-80647767D01*
X142825184Y-80656236D01*
X142830010Y-80659022D01*
X142906436Y-80679500D01*
X142906438Y-80679500D01*
X144208110Y-80679500D01*
X144275149Y-80699185D01*
X144320904Y-80751989D01*
X144330848Y-80821147D01*
X144301823Y-80884703D01*
X144295791Y-80891181D01*
X143847632Y-81339340D01*
X143786309Y-81372825D01*
X143759951Y-81375659D01*
X143658043Y-81375659D01*
X143631994Y-81382638D01*
X143631995Y-81382639D01*
X143563813Y-81400908D01*
X143541922Y-81413547D01*
X143521572Y-81425296D01*
X143521570Y-81425296D01*
X143479332Y-81449683D01*
X143479326Y-81449687D01*
X135582709Y-89346304D01*
X135582705Y-89346310D01*
X135558318Y-89388548D01*
X135558319Y-89388549D01*
X135533930Y-89430791D01*
X135533930Y-89430792D01*
X135508681Y-89525023D01*
X135508681Y-90310564D01*
X135488996Y-90377603D01*
X135443135Y-90419921D01*
X135292731Y-90500315D01*
X135292729Y-90500316D01*
X135292728Y-90500317D01*
X135132770Y-90631589D01*
X135001498Y-90791547D01*
X134903950Y-90974043D01*
X134843880Y-91172067D01*
X134823598Y-91378000D01*
X134843880Y-91583932D01*
X134843881Y-91583934D01*
X134903949Y-91781954D01*
X135001496Y-91964450D01*
X135001498Y-91964452D01*
X135132770Y-92124410D01*
X135227246Y-92201943D01*
X135292731Y-92255685D01*
X135475227Y-92353232D01*
X135541732Y-92373405D01*
X135600170Y-92411702D01*
X135628627Y-92475514D01*
X135618068Y-92544581D01*
X135571844Y-92596975D01*
X135537831Y-92611841D01*
X135415695Y-92644567D01*
X135415688Y-92644570D01*
X135201603Y-92744399D01*
X135201601Y-92744400D01*
X135008107Y-92879886D01*
X135008101Y-92879891D01*
X134841072Y-93046920D01*
X134841067Y-93046926D01*
X134705581Y-93240420D01*
X134705580Y-93240422D01*
X134605751Y-93454507D01*
X134605748Y-93454513D01*
X134548545Y-93667999D01*
X134548545Y-93668000D01*
X135446169Y-93668000D01*
X135413256Y-93725007D01*
X135379181Y-93852174D01*
X135379181Y-93983826D01*
X135413256Y-94110993D01*
X135446169Y-94168000D01*
X134548545Y-94168000D01*
X134605748Y-94381486D01*
X134605751Y-94381492D01*
X134705580Y-94595578D01*
X134841075Y-94789082D01*
X135008098Y-94956105D01*
X135201602Y-95091600D01*
X135415688Y-95191429D01*
X135415697Y-95191433D01*
X135629181Y-95248634D01*
X135629181Y-94351012D01*
X135686188Y-94383925D01*
X135813355Y-94418000D01*
X135945007Y-94418000D01*
X136072174Y-94383925D01*
X136129181Y-94351012D01*
X136129181Y-95248633D01*
X136342664Y-95191433D01*
X136342673Y-95191429D01*
X136556759Y-95091600D01*
X136750263Y-94956105D01*
X136917286Y-94789082D01*
X137047606Y-94602968D01*
X137102183Y-94559344D01*
X137171682Y-94552151D01*
X137234036Y-94583673D01*
X137250756Y-94602968D01*
X137381075Y-94789082D01*
X137548098Y-94956105D01*
X137741602Y-95091600D01*
X137955688Y-95191429D01*
X137955697Y-95191433D01*
X138169181Y-95248634D01*
X138169181Y-94351012D01*
X138226188Y-94383925D01*
X138353355Y-94418000D01*
X138485007Y-94418000D01*
X138612174Y-94383925D01*
X138669181Y-94351012D01*
X138669181Y-95248633D01*
X138882664Y-95191433D01*
X138882673Y-95191429D01*
X139096759Y-95091600D01*
X139290263Y-94956105D01*
X139457286Y-94789082D01*
X139587606Y-94602968D01*
X139642183Y-94559344D01*
X139711682Y-94552151D01*
X139774036Y-94583673D01*
X139790756Y-94602968D01*
X139921075Y-94789082D01*
X140088098Y-94956105D01*
X140281602Y-95091600D01*
X140495688Y-95191429D01*
X140495697Y-95191433D01*
X140709181Y-95248634D01*
X140709181Y-94351012D01*
X140766188Y-94383925D01*
X140893355Y-94418000D01*
X141025007Y-94418000D01*
X141152174Y-94383925D01*
X141209181Y-94351012D01*
X141209181Y-95248633D01*
X141422664Y-95191433D01*
X141422673Y-95191429D01*
X141636759Y-95091600D01*
X141830263Y-94956105D01*
X141997286Y-94789082D01*
X142127606Y-94602968D01*
X142182183Y-94559344D01*
X142251682Y-94552151D01*
X142314036Y-94583673D01*
X142330756Y-94602968D01*
X142461075Y-94789082D01*
X142628098Y-94956105D01*
X142821602Y-95091600D01*
X143035688Y-95191429D01*
X143035697Y-95191433D01*
X143249181Y-95248634D01*
X143249181Y-94351012D01*
X143306188Y-94383925D01*
X143433355Y-94418000D01*
X143565007Y-94418000D01*
X143692174Y-94383925D01*
X143749181Y-94351012D01*
X143749181Y-95248633D01*
X143962664Y-95191433D01*
X143962673Y-95191429D01*
X144176759Y-95091600D01*
X144370263Y-94956105D01*
X144537286Y-94789082D01*
X144667606Y-94602968D01*
X144722183Y-94559344D01*
X144791682Y-94552151D01*
X144854036Y-94583673D01*
X144870756Y-94602968D01*
X145001075Y-94789082D01*
X145168098Y-94956105D01*
X145361602Y-95091600D01*
X145575688Y-95191429D01*
X145575697Y-95191433D01*
X145789181Y-95248634D01*
X145789181Y-94351012D01*
X145846188Y-94383925D01*
X145973355Y-94418000D01*
X146105007Y-94418000D01*
X146232174Y-94383925D01*
X146289181Y-94351012D01*
X146289181Y-95248633D01*
X146502664Y-95191433D01*
X146502673Y-95191429D01*
X146716759Y-95091600D01*
X146910263Y-94956105D01*
X147077286Y-94789082D01*
X147207606Y-94602968D01*
X147262183Y-94559344D01*
X147331682Y-94552151D01*
X147394036Y-94583673D01*
X147410756Y-94602968D01*
X147541075Y-94789082D01*
X147708098Y-94956105D01*
X147901602Y-95091600D01*
X148115688Y-95191429D01*
X148115697Y-95191433D01*
X148329181Y-95248634D01*
X148329181Y-94351012D01*
X148386188Y-94383925D01*
X148513355Y-94418000D01*
X148645007Y-94418000D01*
X148772174Y-94383925D01*
X148829181Y-94351012D01*
X148829181Y-95248633D01*
X149042664Y-95191433D01*
X149042673Y-95191429D01*
X149256759Y-95091600D01*
X149450263Y-94956105D01*
X149617286Y-94789082D01*
X149747606Y-94602968D01*
X149802183Y-94559344D01*
X149871682Y-94552151D01*
X149934036Y-94583673D01*
X149950756Y-94602968D01*
X150081075Y-94789082D01*
X150248098Y-94956105D01*
X150441602Y-95091600D01*
X150655688Y-95191429D01*
X150655697Y-95191433D01*
X150869181Y-95248634D01*
X150869181Y-94351012D01*
X150926188Y-94383925D01*
X151053355Y-94418000D01*
X151185007Y-94418000D01*
X151312174Y-94383925D01*
X151369181Y-94351012D01*
X151369181Y-95248633D01*
X151582664Y-95191433D01*
X151582673Y-95191429D01*
X151796759Y-95091600D01*
X151990263Y-94956105D01*
X152157286Y-94789082D01*
X152287606Y-94602968D01*
X152342183Y-94559344D01*
X152411682Y-94552151D01*
X152474036Y-94583673D01*
X152490756Y-94602968D01*
X152621075Y-94789082D01*
X152788098Y-94956105D01*
X152981602Y-95091600D01*
X153195688Y-95191429D01*
X153195697Y-95191433D01*
X153409181Y-95248634D01*
X153409181Y-94351012D01*
X153466188Y-94383925D01*
X153593355Y-94418000D01*
X153725007Y-94418000D01*
X153852174Y-94383925D01*
X153909181Y-94351012D01*
X153909181Y-95248633D01*
X154122664Y-95191433D01*
X154122673Y-95191429D01*
X154336759Y-95091600D01*
X154530263Y-94956105D01*
X154697286Y-94789082D01*
X154827606Y-94602968D01*
X154882183Y-94559344D01*
X154951682Y-94552151D01*
X155014036Y-94583673D01*
X155030756Y-94602968D01*
X155161075Y-94789082D01*
X155328098Y-94956105D01*
X155521602Y-95091600D01*
X155735688Y-95191429D01*
X155735697Y-95191433D01*
X155949181Y-95248634D01*
X155949181Y-94351012D01*
X156006188Y-94383925D01*
X156133355Y-94418000D01*
X156265007Y-94418000D01*
X156392174Y-94383925D01*
X156449181Y-94351012D01*
X156449181Y-95248633D01*
X156662664Y-95191433D01*
X156662673Y-95191429D01*
X156876759Y-95091600D01*
X157070263Y-94956105D01*
X157237286Y-94789082D01*
X157367606Y-94602968D01*
X157422183Y-94559344D01*
X157491682Y-94552151D01*
X157554036Y-94583673D01*
X157570756Y-94602968D01*
X157701075Y-94789082D01*
X157868098Y-94956105D01*
X158061602Y-95091600D01*
X158275688Y-95191429D01*
X158275697Y-95191433D01*
X158489181Y-95248634D01*
X158489181Y-94351012D01*
X158546188Y-94383925D01*
X158673355Y-94418000D01*
X158805007Y-94418000D01*
X158932174Y-94383925D01*
X158989181Y-94351012D01*
X158989181Y-95248633D01*
X159202664Y-95191433D01*
X159202673Y-95191429D01*
X159416759Y-95091600D01*
X159610263Y-94956105D01*
X159777286Y-94789082D01*
X159912781Y-94595578D01*
X160012610Y-94381492D01*
X160012613Y-94381486D01*
X160069817Y-94168000D01*
X159172193Y-94168000D01*
X159205106Y-94110993D01*
X159239181Y-93983826D01*
X159239181Y-93852174D01*
X159205106Y-93725007D01*
X159172193Y-93668000D01*
X160069817Y-93668000D01*
X160069816Y-93667999D01*
X160012613Y-93454513D01*
X160012610Y-93454507D01*
X159912781Y-93240422D01*
X159912780Y-93240420D01*
X159777294Y-93046926D01*
X159777289Y-93046920D01*
X159612364Y-92881995D01*
X162493481Y-92881995D01*
X162493481Y-93118004D01*
X162493482Y-93118020D01*
X162524287Y-93352010D01*
X162585375Y-93579993D01*
X162675695Y-93798045D01*
X162675700Y-93798056D01*
X162701328Y-93842444D01*
X162793708Y-94002450D01*
X162793710Y-94002453D01*
X162793711Y-94002454D01*
X162937387Y-94189697D01*
X162937393Y-94189704D01*
X163104276Y-94356587D01*
X163104283Y-94356593D01*
X163214287Y-94441001D01*
X163291531Y-94500273D01*
X163393845Y-94559344D01*
X163495924Y-94618280D01*
X163495929Y-94618282D01*
X163495932Y-94618284D01*
X163713988Y-94708606D01*
X163941967Y-94769693D01*
X164175970Y-94800500D01*
X164175977Y-94800500D01*
X164411985Y-94800500D01*
X164411992Y-94800500D01*
X164645995Y-94769693D01*
X164873974Y-94708606D01*
X165092030Y-94618284D01*
X165296431Y-94500273D01*
X165483680Y-94356592D01*
X165650573Y-94189699D01*
X165794254Y-94002450D01*
X165912265Y-93798049D01*
X166002587Y-93579993D01*
X166063674Y-93352014D01*
X166094481Y-93118011D01*
X166094481Y-92881989D01*
X166063674Y-92647986D01*
X166002587Y-92420007D01*
X165912265Y-92201951D01*
X165912263Y-92201948D01*
X165912261Y-92201943D01*
X165867497Y-92124410D01*
X165794254Y-91997550D01*
X165650573Y-91810301D01*
X165650568Y-91810295D01*
X165483685Y-91643412D01*
X165483678Y-91643406D01*
X165296435Y-91499730D01*
X165296434Y-91499729D01*
X165296431Y-91499727D01*
X165214938Y-91452677D01*
X165092037Y-91381719D01*
X165092026Y-91381714D01*
X164873974Y-91291394D01*
X164645991Y-91230306D01*
X164412001Y-91199501D01*
X164411998Y-91199500D01*
X164411992Y-91199500D01*
X164175970Y-91199500D01*
X164175964Y-91199500D01*
X164175960Y-91199501D01*
X163941970Y-91230306D01*
X163713987Y-91291394D01*
X163495935Y-91381714D01*
X163495924Y-91381719D01*
X163291526Y-91499730D01*
X163104283Y-91643406D01*
X163104276Y-91643412D01*
X162937393Y-91810295D01*
X162937387Y-91810302D01*
X162793711Y-91997545D01*
X162675700Y-92201943D01*
X162675695Y-92201954D01*
X162585375Y-92420006D01*
X162524287Y-92647989D01*
X162493482Y-92881979D01*
X162493481Y-92881995D01*
X159612364Y-92881995D01*
X159610263Y-92879894D01*
X159416759Y-92744399D01*
X159246233Y-92664882D01*
X159193794Y-92618710D01*
X159174642Y-92551516D01*
X159194858Y-92484635D01*
X159248023Y-92439300D01*
X159298638Y-92428500D01*
X159608931Y-92428500D01*
X159608932Y-92428499D01*
X159623749Y-92425552D01*
X159667410Y-92416868D01*
X159667410Y-92416867D01*
X159667412Y-92416867D01*
X159733733Y-92372552D01*
X159778048Y-92306231D01*
X159778048Y-92306229D01*
X159778049Y-92306229D01*
X159789680Y-92247752D01*
X159789681Y-92247750D01*
X159789681Y-90508249D01*
X159789680Y-90508247D01*
X159778049Y-90449770D01*
X159778048Y-90449769D01*
X159733733Y-90383447D01*
X159667411Y-90339132D01*
X159667410Y-90339131D01*
X159608933Y-90327500D01*
X159608929Y-90327500D01*
X159233681Y-90327500D01*
X159166642Y-90307815D01*
X159120887Y-90255011D01*
X159109681Y-90203500D01*
X159109681Y-89993440D01*
X159109681Y-89993438D01*
X159084432Y-89899207D01*
X159035655Y-89814723D01*
X158966673Y-89745741D01*
X150794966Y-81574033D01*
X150794965Y-81574032D01*
X150710480Y-81525256D01*
X150704416Y-81523631D01*
X150648831Y-81491538D01*
X150631377Y-81474084D01*
X152156208Y-81474084D01*
X152226312Y-81544188D01*
X152305030Y-81608315D01*
X152305035Y-81608318D01*
X152459096Y-81685691D01*
X152626857Y-81725450D01*
X152799253Y-81725450D01*
X152967015Y-81685690D01*
X153121074Y-81608318D01*
X153199792Y-81544193D01*
X153225707Y-81518278D01*
X152668862Y-80961433D01*
X152668861Y-80961433D01*
X152156208Y-81474084D01*
X150631377Y-81474084D01*
X150175474Y-81018181D01*
X150141989Y-80956858D01*
X150146973Y-80887166D01*
X150188845Y-80831233D01*
X150254309Y-80806816D01*
X150263155Y-80806500D01*
X150380689Y-80806500D01*
X150380691Y-80806500D01*
X150457118Y-80786021D01*
X150525640Y-80746460D01*
X150581589Y-80690511D01*
X151110122Y-80161977D01*
X151171443Y-80128494D01*
X151241134Y-80133478D01*
X151251598Y-80137938D01*
X151362734Y-80191458D01*
X151476985Y-80208678D01*
X151540341Y-80238134D01*
X151577715Y-80297168D01*
X151579161Y-80359888D01*
X151551291Y-80477486D01*
X151551291Y-80649884D01*
X151591049Y-80817644D01*
X151668422Y-80971705D01*
X151732548Y-81050425D01*
X151802655Y-81120532D01*
X152310354Y-80612834D01*
X153027368Y-80612834D01*
X153579260Y-81164726D01*
X153605165Y-81138820D01*
X153605173Y-81138811D01*
X153669299Y-81060094D01*
X153746671Y-80906034D01*
X153786431Y-80738272D01*
X153786431Y-80714806D01*
X153806116Y-80647767D01*
X153858920Y-80602012D01*
X153910431Y-80590806D01*
X153943805Y-80590806D01*
X154111567Y-80551046D01*
X154265626Y-80473674D01*
X154344344Y-80409549D01*
X154370259Y-80383634D01*
X153813413Y-79826789D01*
X153027368Y-80612834D01*
X152310354Y-80612834D01*
X152668861Y-80254327D01*
X153449952Y-79473235D01*
X154166966Y-79473235D01*
X154166966Y-79473236D01*
X154723812Y-80030082D01*
X154749717Y-80004176D01*
X154749725Y-80004167D01*
X154813851Y-79925450D01*
X154891223Y-79771390D01*
X154930983Y-79603628D01*
X154930983Y-79431231D01*
X154891224Y-79263471D01*
X154813851Y-79109410D01*
X154749725Y-79030690D01*
X154679618Y-78960583D01*
X154679617Y-78960583D01*
X154166966Y-79473235D01*
X153449952Y-79473235D01*
X153451430Y-79471757D01*
X153481291Y-79451804D01*
X153813413Y-79119683D01*
X154326065Y-78607030D01*
X154255961Y-78536927D01*
X154177243Y-78472800D01*
X154177238Y-78472797D01*
X154023177Y-78395424D01*
X153855417Y-78355666D01*
X153683019Y-78355666D01*
X153565421Y-78383536D01*
X153495649Y-78379842D01*
X153438951Y-78339012D01*
X153414211Y-78281360D01*
X153396991Y-78167109D01*
X153339703Y-78048149D01*
X153339702Y-78048148D01*
X153339702Y-78048147D01*
X153320734Y-78025255D01*
X152835479Y-77540000D01*
X164635398Y-77540000D01*
X164655680Y-77745932D01*
X164675383Y-77810884D01*
X164715749Y-77943954D01*
X164813296Y-78126450D01*
X164827811Y-78144137D01*
X164944570Y-78286410D01*
X165021303Y-78349382D01*
X165104531Y-78417685D01*
X165287027Y-78515232D01*
X165485047Y-78575300D01*
X165485046Y-78575300D01*
X165503510Y-78577118D01*
X165690981Y-78595583D01*
X165896915Y-78575300D01*
X166094935Y-78515232D01*
X166277431Y-78417685D01*
X166437391Y-78286410D01*
X166568666Y-78126450D01*
X166666213Y-77943954D01*
X166726281Y-77745934D01*
X166746564Y-77540000D01*
X166726281Y-77334066D01*
X166666213Y-77136046D01*
X166568666Y-76953550D01*
X166459547Y-76820587D01*
X166437391Y-76793589D01*
X166277433Y-76662317D01*
X166277434Y-76662317D01*
X166277431Y-76662315D01*
X166094935Y-76564768D01*
X165896915Y-76504700D01*
X165896913Y-76504699D01*
X165896915Y-76504699D01*
X165690981Y-76484417D01*
X165485048Y-76504699D01*
X165287024Y-76564769D01*
X165201344Y-76610567D01*
X165104531Y-76662315D01*
X165104529Y-76662316D01*
X165104528Y-76662317D01*
X164944570Y-76793589D01*
X164813298Y-76953547D01*
X164813296Y-76953550D01*
X164797497Y-76983108D01*
X164715750Y-77136043D01*
X164655680Y-77334067D01*
X164635398Y-77540000D01*
X152835479Y-77540000D01*
X152821873Y-77526394D01*
X152798981Y-77507426D01*
X152706815Y-77463042D01*
X152680020Y-77450138D01*
X152680018Y-77450137D01*
X152549460Y-77430459D01*
X152549458Y-77430459D01*
X152418899Y-77450137D01*
X152418895Y-77450138D01*
X152299944Y-77507422D01*
X152299940Y-77507424D01*
X152277049Y-77526389D01*
X151866566Y-77936872D01*
X151847601Y-77959763D01*
X151847599Y-77959767D01*
X151790315Y-78078718D01*
X151790314Y-78078722D01*
X151770636Y-78209281D01*
X151770636Y-78209282D01*
X151790314Y-78339841D01*
X151790315Y-78339843D01*
X151847053Y-78457660D01*
X151858405Y-78526602D01*
X151830683Y-78590736D01*
X151823014Y-78599143D01*
X151801456Y-78620701D01*
X151740133Y-78654186D01*
X151670441Y-78649202D01*
X151659974Y-78644740D01*
X151535470Y-78584782D01*
X151535466Y-78584781D01*
X151404908Y-78565103D01*
X151404906Y-78565103D01*
X151274347Y-78584781D01*
X151274343Y-78584782D01*
X151155392Y-78642066D01*
X151155388Y-78642068D01*
X151132497Y-78661033D01*
X150722014Y-79071516D01*
X150703049Y-79094407D01*
X150703047Y-79094411D01*
X150645763Y-79213362D01*
X150645762Y-79213366D01*
X150626084Y-79343925D01*
X150626084Y-79343926D01*
X150645762Y-79474485D01*
X150645763Y-79474489D01*
X150705721Y-79598993D01*
X150717073Y-79667934D01*
X150689351Y-79732069D01*
X150681682Y-79740475D01*
X150252977Y-80169181D01*
X150191654Y-80202666D01*
X150165296Y-80205500D01*
X149969110Y-80205500D01*
X149902071Y-80185815D01*
X149881429Y-80169181D01*
X149765714Y-80053466D01*
X149732229Y-79992143D01*
X149737213Y-79922451D01*
X149750295Y-79896892D01*
X149750627Y-79896394D01*
X149750629Y-79896393D01*
X149794086Y-79831357D01*
X149794087Y-79831355D01*
X149814498Y-79728741D01*
X149814498Y-79728736D01*
X149794087Y-79626126D01*
X149794086Y-79626123D01*
X149794086Y-79626122D01*
X149750630Y-79561085D01*
X149750628Y-79561082D01*
X149672918Y-79483372D01*
X149639433Y-79422049D01*
X149644417Y-79352357D01*
X149672916Y-79308012D01*
X151709046Y-77271884D01*
X151752162Y-77197204D01*
X151774481Y-77113910D01*
X151774481Y-77027678D01*
X151774481Y-70401866D01*
X151794166Y-70334827D01*
X151846970Y-70289072D01*
X151898481Y-70277866D01*
X152112539Y-70277866D01*
X152142128Y-70275091D01*
X152266754Y-70231482D01*
X152372990Y-70153077D01*
X152451395Y-70046841D01*
X152495004Y-69922215D01*
X152497779Y-69892626D01*
X152497779Y-69312105D01*
X152946779Y-69312105D01*
X152946779Y-69892626D01*
X152949553Y-69922215D01*
X152993163Y-70046842D01*
X153071567Y-70153076D01*
X153071568Y-70153077D01*
X153177802Y-70231481D01*
X153177803Y-70231481D01*
X153177804Y-70231482D01*
X153302430Y-70275091D01*
X153302429Y-70275091D01*
X153332019Y-70277866D01*
X153332023Y-70277866D01*
X153937539Y-70277866D01*
X153967128Y-70275091D01*
X154091754Y-70231482D01*
X154197990Y-70153077D01*
X154276395Y-70046841D01*
X154320004Y-69922215D01*
X154322779Y-69892626D01*
X154322779Y-69312105D01*
X154320004Y-69282516D01*
X154295556Y-69212650D01*
X154276395Y-69157891D01*
X154273738Y-69154291D01*
X154197990Y-69051655D01*
X154197989Y-69051654D01*
X154091755Y-68973250D01*
X153967127Y-68929640D01*
X153967128Y-68929640D01*
X153937539Y-68926866D01*
X153937535Y-68926866D01*
X153332023Y-68926866D01*
X153332019Y-68926866D01*
X153302429Y-68929640D01*
X153177802Y-68973250D01*
X153071568Y-69051654D01*
X153071567Y-69051655D01*
X152993163Y-69157889D01*
X152949553Y-69282516D01*
X152946779Y-69312105D01*
X152497779Y-69312105D01*
X152495004Y-69282516D01*
X152470556Y-69212650D01*
X152451395Y-69157891D01*
X152448738Y-69154291D01*
X152372990Y-69051655D01*
X152372989Y-69051654D01*
X152266755Y-68973250D01*
X152142127Y-68929640D01*
X152142128Y-68929640D01*
X152112539Y-68926866D01*
X152112535Y-68926866D01*
X151898481Y-68926866D01*
X151831442Y-68907181D01*
X151785687Y-68854377D01*
X151774481Y-68802866D01*
X151774481Y-67097117D01*
X151774482Y-67097104D01*
X151774482Y-66390742D01*
X151794167Y-66323703D01*
X151846971Y-66277948D01*
X151870899Y-66269848D01*
X151904554Y-66262171D01*
X152007918Y-66212407D01*
X152097616Y-66140890D01*
X152169151Y-66051206D01*
X152218937Y-65947853D01*
X152241911Y-65847246D01*
X152244476Y-65836015D01*
X152244476Y-65831177D01*
X152244482Y-65831106D01*
X152244482Y-65778585D01*
X152244484Y-65757550D01*
X152244487Y-65726782D01*
X152244486Y-65726779D01*
X152244487Y-65717424D01*
X152244482Y-65717344D01*
X152244482Y-65676378D01*
X152244486Y-65630490D01*
X152244485Y-65630489D01*
X152244486Y-65630486D01*
X152218964Y-65518627D01*
X152184080Y-65446180D01*
X152169187Y-65415252D01*
X152169186Y-65415251D01*
X152122344Y-65356511D01*
X152095936Y-65291824D01*
X152108693Y-65223129D01*
X152122352Y-65201878D01*
X152169151Y-65143206D01*
X152218937Y-65039853D01*
X152241911Y-64939246D01*
X152244476Y-64928015D01*
X152244476Y-64923177D01*
X152244482Y-64923106D01*
X152244482Y-64870585D01*
X152244484Y-64849553D01*
X152244487Y-64818782D01*
X152244486Y-64818779D01*
X152244487Y-64809424D01*
X152244482Y-64809344D01*
X152244482Y-64768378D01*
X152244486Y-64722490D01*
X152244485Y-64722489D01*
X152244486Y-64722486D01*
X152218964Y-64610627D01*
X152188187Y-64546711D01*
X152169188Y-64507254D01*
X152157138Y-64492144D01*
X152097653Y-64417549D01*
X152007950Y-64346014D01*
X152007948Y-64346013D01*
X152007947Y-64346012D01*
X151904577Y-64296237D01*
X151870897Y-64288552D01*
X151809916Y-64254447D01*
X151777055Y-64192787D01*
X151774482Y-64167659D01*
X151774482Y-64132579D01*
X151794167Y-64065540D01*
X151831441Y-64028264D01*
X151909570Y-63978055D01*
X151999111Y-63874718D01*
X152055912Y-63750342D01*
X152075371Y-63615000D01*
X152055912Y-63479658D01*
X152040145Y-63445133D01*
X151999113Y-63355285D01*
X151999108Y-63355278D01*
X151909571Y-63251946D01*
X151909567Y-63251942D01*
X151818717Y-63193558D01*
X151794542Y-63178022D01*
X151794541Y-63178021D01*
X151794540Y-63178021D01*
X151717221Y-63155318D01*
X151658443Y-63117544D01*
X151629418Y-63053988D01*
X151639362Y-62984829D01*
X151664475Y-62948660D01*
X151720278Y-62892857D01*
X152006046Y-62607090D01*
X152049162Y-62532410D01*
X152071481Y-62449116D01*
X152071481Y-62362884D01*
X152071481Y-60178100D01*
X152091166Y-60111061D01*
X152143970Y-60065306D01*
X152195481Y-60054100D01*
X152563731Y-60054100D01*
X152563732Y-60054099D01*
X152578549Y-60051152D01*
X152622210Y-60042468D01*
X152622210Y-60042467D01*
X152622212Y-60042467D01*
X152688533Y-59998152D01*
X152732848Y-59931831D01*
X152732848Y-59931829D01*
X152732849Y-59931829D01*
X152744480Y-59873352D01*
X152744481Y-59873350D01*
X152744481Y-58233849D01*
X152744480Y-58233847D01*
X152732849Y-58175370D01*
X152732848Y-58175369D01*
X152688533Y-58109047D01*
X152622211Y-58064732D01*
X152622210Y-58064731D01*
X152563733Y-58053100D01*
X152563729Y-58053100D01*
X150924233Y-58053100D01*
X150924228Y-58053100D01*
X150865751Y-58064731D01*
X150865750Y-58064732D01*
X150799428Y-58109047D01*
X150755113Y-58175369D01*
X150755112Y-58175370D01*
X150743481Y-58233847D01*
X150743481Y-59873352D01*
X150755112Y-59931829D01*
X150755113Y-59931830D01*
X150799428Y-59998152D01*
X150865750Y-60042467D01*
X150865751Y-60042468D01*
X150924228Y-60054099D01*
X150924231Y-60054100D01*
X150924233Y-60054100D01*
X151292481Y-60054100D01*
X151359520Y-60073785D01*
X151405275Y-60126589D01*
X151416481Y-60178100D01*
X151416481Y-60818385D01*
X151396796Y-60885424D01*
X151343992Y-60931179D01*
X151274834Y-60941123D01*
X151211278Y-60912098D01*
X151196629Y-60897052D01*
X151189750Y-60888671D01*
X151184864Y-60882717D01*
X151106476Y-60818385D01*
X151032520Y-60757690D01*
X151032513Y-60757686D01*
X150858714Y-60664788D01*
X150858708Y-60664786D01*
X150670113Y-60607576D01*
X150670110Y-60607575D01*
X150473981Y-60588259D01*
X150277851Y-60607575D01*
X150089247Y-60664788D01*
X149915448Y-60757686D01*
X149915441Y-60757690D01*
X149763097Y-60882716D01*
X149638071Y-61035060D01*
X149638067Y-61035067D01*
X149545169Y-61208866D01*
X149487956Y-61397470D01*
X149468640Y-61593600D01*
X149487956Y-61789729D01*
X149494784Y-61812238D01*
X149535710Y-61947153D01*
X149545169Y-61978333D01*
X149638067Y-62152132D01*
X149638071Y-62152139D01*
X149763097Y-62304483D01*
X149915441Y-62429509D01*
X149915448Y-62429513D01*
X150089247Y-62522411D01*
X150089250Y-62522411D01*
X150089254Y-62522414D01*
X150277849Y-62579624D01*
X150473981Y-62598941D01*
X150670113Y-62579624D01*
X150823807Y-62533000D01*
X150893673Y-62532377D01*
X150952786Y-62569624D01*
X150982377Y-62632918D01*
X150973052Y-62702163D01*
X150947483Y-62739342D01*
X150691890Y-62994936D01*
X150630916Y-63055909D01*
X150630914Y-63055912D01*
X150587799Y-63130590D01*
X150587799Y-63130591D01*
X150570139Y-63196500D01*
X150565480Y-63213886D01*
X150565480Y-63905384D01*
X150545795Y-63972423D01*
X150495290Y-64017100D01*
X150421987Y-64052408D01*
X150421985Y-64052409D01*
X150421984Y-64052410D01*
X150332302Y-64123938D01*
X150332298Y-64123942D01*
X150260777Y-64213635D01*
X150211005Y-64316997D01*
X150185481Y-64428832D01*
X150185480Y-64428842D01*
X150185480Y-64628159D01*
X150185500Y-64628461D01*
X150185500Y-64634355D01*
X150185501Y-64634365D01*
X150208826Y-64736562D01*
X150211025Y-64746197D01*
X150234000Y-64793910D01*
X150260794Y-64849553D01*
X150307619Y-64908276D01*
X150334024Y-64972964D01*
X150321264Y-65041658D01*
X150307620Y-65062890D01*
X150260777Y-65121635D01*
X150211005Y-65224997D01*
X150185481Y-65336832D01*
X150185480Y-65336842D01*
X150185480Y-65536159D01*
X150185500Y-65536461D01*
X150185500Y-65542355D01*
X150185501Y-65542365D01*
X150211024Y-65654194D01*
X150211025Y-65654197D01*
X150260795Y-65757554D01*
X150332314Y-65847246D01*
X150421998Y-65918775D01*
X150495292Y-65954079D01*
X150547147Y-66000905D01*
X150565480Y-66065794D01*
X150565480Y-67097104D01*
X150565481Y-67097117D01*
X150565481Y-67266584D01*
X150545796Y-67333623D01*
X150492992Y-67379378D01*
X150441481Y-67390584D01*
X150224932Y-67390584D01*
X150195342Y-67393358D01*
X150070715Y-67436968D01*
X149964481Y-67515372D01*
X149964480Y-67515373D01*
X149886076Y-67621607D01*
X149842466Y-67746234D01*
X149839692Y-67775823D01*
X149839692Y-68356344D01*
X149842466Y-68385933D01*
X149886076Y-68510560D01*
X149964480Y-68616794D01*
X149964481Y-68616795D01*
X150070715Y-68695199D01*
X150070716Y-68695199D01*
X150070717Y-68695200D01*
X150195343Y-68738809D01*
X150195342Y-68738809D01*
X150224932Y-68741584D01*
X150224936Y-68741584D01*
X150441481Y-68741584D01*
X150508520Y-68761269D01*
X150554275Y-68814073D01*
X150565481Y-68865584D01*
X150565481Y-76654301D01*
X150545796Y-76721340D01*
X150529162Y-76741982D01*
X149446162Y-77824982D01*
X149384839Y-77858467D01*
X149315147Y-77853483D01*
X149259214Y-77811611D01*
X149234797Y-77746147D01*
X149234481Y-77737301D01*
X149234481Y-74379147D01*
X149230842Y-74365565D01*
X149212162Y-74295852D01*
X149169046Y-74221172D01*
X149108071Y-74160197D01*
X146603800Y-71655926D01*
X146570315Y-71594603D01*
X146567481Y-71568245D01*
X146567481Y-70402780D01*
X146587166Y-70335741D01*
X146639970Y-70289986D01*
X146691481Y-70278780D01*
X146911764Y-70278780D01*
X146941353Y-70276005D01*
X146943965Y-70275091D01*
X147065979Y-70232396D01*
X147172215Y-70153991D01*
X147250620Y-70047755D01*
X147294229Y-69923129D01*
X147297004Y-69893536D01*
X147297004Y-69313024D01*
X147297004Y-69313019D01*
X147746004Y-69313019D01*
X147746004Y-69893540D01*
X147748778Y-69923129D01*
X147792388Y-70047756D01*
X147870792Y-70153990D01*
X147870793Y-70153991D01*
X147977027Y-70232395D01*
X147977028Y-70232395D01*
X147977029Y-70232396D01*
X148101655Y-70276005D01*
X148101654Y-70276005D01*
X148131244Y-70278780D01*
X148131248Y-70278780D01*
X148736764Y-70278780D01*
X148766353Y-70276005D01*
X148768965Y-70275091D01*
X148890979Y-70232396D01*
X148997215Y-70153991D01*
X149075620Y-70047755D01*
X149119229Y-69923129D01*
X149122004Y-69893536D01*
X149122004Y-69313024D01*
X149121918Y-69312110D01*
X149119229Y-69283430D01*
X149093089Y-69208728D01*
X149075620Y-69158805D01*
X149074945Y-69157891D01*
X148997215Y-69052569D01*
X148997214Y-69052568D01*
X148883503Y-68968646D01*
X148884637Y-68967109D01*
X148842894Y-68926487D01*
X148827114Y-68858423D01*
X148850637Y-68792632D01*
X148905996Y-68750003D01*
X148950907Y-68741584D01*
X149005452Y-68741584D01*
X149035041Y-68738809D01*
X149050459Y-68733414D01*
X149159667Y-68695200D01*
X149265903Y-68616795D01*
X149344308Y-68510559D01*
X149387917Y-68385933D01*
X149390692Y-68356340D01*
X149390692Y-67775828D01*
X149387917Y-67746235D01*
X149379274Y-67721536D01*
X149344307Y-67621607D01*
X149265903Y-67515373D01*
X149265902Y-67515372D01*
X149159668Y-67436968D01*
X149035040Y-67393358D01*
X149035041Y-67393358D01*
X149005452Y-67390584D01*
X149005448Y-67390584D01*
X148399936Y-67390584D01*
X148399932Y-67390584D01*
X148370342Y-67393358D01*
X148245715Y-67436968D01*
X148139481Y-67515372D01*
X148139480Y-67515373D01*
X148061076Y-67621607D01*
X148017466Y-67746234D01*
X148014692Y-67775823D01*
X148014692Y-68356344D01*
X148017466Y-68385933D01*
X148061076Y-68510560D01*
X148139480Y-68616794D01*
X148139481Y-68616795D01*
X148253193Y-68700718D01*
X148252058Y-68702254D01*
X148293802Y-68742877D01*
X148309582Y-68810941D01*
X148286059Y-68876732D01*
X148230700Y-68919361D01*
X148185789Y-68927780D01*
X148131244Y-68927780D01*
X148101654Y-68930554D01*
X147977027Y-68974164D01*
X147870793Y-69052568D01*
X147870792Y-69052569D01*
X147792388Y-69158803D01*
X147748778Y-69283430D01*
X147746004Y-69313019D01*
X147297004Y-69313019D01*
X147296918Y-69312110D01*
X147294229Y-69283430D01*
X147268089Y-69208728D01*
X147250620Y-69158805D01*
X147249945Y-69157891D01*
X147172215Y-69052569D01*
X147172214Y-69052568D01*
X147065980Y-68974164D01*
X146941352Y-68930554D01*
X146941353Y-68930554D01*
X146911764Y-68927780D01*
X146911760Y-68927780D01*
X146691481Y-68927780D01*
X146624442Y-68908095D01*
X146578687Y-68855291D01*
X146567481Y-68803780D01*
X146567481Y-66339187D01*
X146587166Y-66272148D01*
X146639970Y-66226393D01*
X146678998Y-66217919D01*
X146678779Y-66215966D01*
X146685696Y-66215186D01*
X146685702Y-66215187D01*
X146797539Y-66189675D01*
X146900895Y-66139920D01*
X146900896Y-66139920D01*
X146909990Y-66132669D01*
X146990592Y-66068412D01*
X147062129Y-65978740D01*
X147111919Y-65875399D01*
X147137468Y-65763570D01*
X147137469Y-65757731D01*
X147137481Y-65757564D01*
X147137481Y-65706067D01*
X147137485Y-65686880D01*
X147137492Y-65654344D01*
X147137491Y-65654341D01*
X147137493Y-65644727D01*
X147137481Y-65644561D01*
X147137481Y-65564127D01*
X147137468Y-65563946D01*
X147137470Y-65558046D01*
X147111959Y-65446180D01*
X147108785Y-65439587D01*
X147062191Y-65342800D01*
X147062189Y-65342797D01*
X147049713Y-65327150D01*
X147015322Y-65284017D01*
X146988920Y-65219331D01*
X147001682Y-65150636D01*
X147015344Y-65129385D01*
X147021527Y-65121635D01*
X147062129Y-65070740D01*
X147111919Y-64967399D01*
X147137468Y-64855570D01*
X147137469Y-64849731D01*
X147137481Y-64849564D01*
X147137481Y-64796536D01*
X147137485Y-64778880D01*
X147137492Y-64746344D01*
X147137491Y-64746341D01*
X147137493Y-64736728D01*
X147137481Y-64736562D01*
X147137481Y-64656127D01*
X147137468Y-64655946D01*
X147137470Y-64650046D01*
X147111959Y-64538180D01*
X147097071Y-64507254D01*
X147062191Y-64434800D01*
X147062189Y-64434797D01*
X147048437Y-64417549D01*
X146990659Y-64345085D01*
X146990657Y-64345083D01*
X146990656Y-64345082D01*
X146900952Y-64273542D01*
X146797577Y-64223760D01*
X146685719Y-64198236D01*
X146678792Y-64197456D01*
X146679113Y-64194603D01*
X146624442Y-64178550D01*
X146578687Y-64125746D01*
X146567481Y-64074235D01*
X146567481Y-64050695D01*
X146587166Y-63983656D01*
X146624440Y-63946380D01*
X146703249Y-63895734D01*
X146792790Y-63792397D01*
X146849591Y-63668021D01*
X146869050Y-63532679D01*
X146849591Y-63397337D01*
X146837337Y-63370506D01*
X146792792Y-63272964D01*
X146792787Y-63272957D01*
X146703250Y-63169625D01*
X146703249Y-63169624D01*
X146680988Y-63155318D01*
X146625873Y-63119898D01*
X146580119Y-63067095D01*
X146570175Y-62997937D01*
X146599200Y-62934381D01*
X146605200Y-62927934D01*
X146860046Y-62673090D01*
X146903162Y-62598410D01*
X146925481Y-62515116D01*
X146925481Y-62428884D01*
X146925481Y-62288393D01*
X146945166Y-62221354D01*
X146997970Y-62175599D01*
X147067128Y-62165655D01*
X147130684Y-62194680D01*
X147145334Y-62209728D01*
X147223097Y-62304483D01*
X147375441Y-62429509D01*
X147375448Y-62429513D01*
X147549247Y-62522411D01*
X147549250Y-62522411D01*
X147549254Y-62522414D01*
X147737849Y-62579624D01*
X147933981Y-62598941D01*
X148130113Y-62579624D01*
X148318708Y-62522414D01*
X148332366Y-62515114D01*
X148455839Y-62449116D01*
X148492519Y-62429510D01*
X148644864Y-62304483D01*
X148769891Y-62152138D01*
X148862795Y-61978327D01*
X148920005Y-61789732D01*
X148939322Y-61593600D01*
X148920005Y-61397468D01*
X148862795Y-61208873D01*
X148862792Y-61208869D01*
X148862792Y-61208866D01*
X148769894Y-61035067D01*
X148769890Y-61035060D01*
X148644864Y-60882716D01*
X148492520Y-60757690D01*
X148492513Y-60757686D01*
X148318714Y-60664788D01*
X148318708Y-60664786D01*
X148130113Y-60607576D01*
X148130110Y-60607575D01*
X148080805Y-60602719D01*
X148016018Y-60576557D01*
X147975660Y-60519522D01*
X147972544Y-60449722D01*
X148005278Y-60391637D01*
X148490739Y-59906176D01*
X148552060Y-59872693D01*
X148621752Y-59877677D01*
X148639896Y-59886964D01*
X148640070Y-59886639D01*
X148819247Y-59982411D01*
X148819250Y-59982411D01*
X148819254Y-59982414D01*
X149007849Y-60039624D01*
X149203981Y-60058941D01*
X149400113Y-60039624D01*
X149588708Y-59982414D01*
X149762519Y-59889510D01*
X149914864Y-59764483D01*
X150039891Y-59612138D01*
X150132795Y-59438327D01*
X150190005Y-59249732D01*
X150209322Y-59053600D01*
X150190005Y-58857468D01*
X150132795Y-58668873D01*
X150132792Y-58668869D01*
X150132792Y-58668866D01*
X150039894Y-58495067D01*
X150039890Y-58495060D01*
X149914864Y-58342716D01*
X149762520Y-58217690D01*
X149762513Y-58217686D01*
X149588714Y-58124788D01*
X149588708Y-58124786D01*
X149400113Y-58067576D01*
X149400110Y-58067575D01*
X149203981Y-58048259D01*
X149007851Y-58067575D01*
X148819247Y-58124788D01*
X148645448Y-58217686D01*
X148645441Y-58217690D01*
X148493097Y-58342716D01*
X148368071Y-58495060D01*
X148368067Y-58495067D01*
X148275169Y-58668866D01*
X148217956Y-58857470D01*
X148198640Y-59053600D01*
X148212470Y-59194022D01*
X148199451Y-59262668D01*
X148176748Y-59293857D01*
X147643622Y-59826983D01*
X147582299Y-59860468D01*
X147512607Y-59855484D01*
X147456674Y-59813612D01*
X147432257Y-59748148D01*
X147447109Y-59679875D01*
X147460086Y-59660639D01*
X147499891Y-59612138D01*
X147592795Y-59438327D01*
X147650005Y-59249732D01*
X147669322Y-59053600D01*
X147650005Y-58857468D01*
X147592795Y-58668873D01*
X147592792Y-58668869D01*
X147592792Y-58668866D01*
X147499894Y-58495067D01*
X147499890Y-58495060D01*
X147374864Y-58342716D01*
X147222520Y-58217690D01*
X147222513Y-58217686D01*
X147048714Y-58124788D01*
X147048708Y-58124786D01*
X146860113Y-58067576D01*
X146860110Y-58067575D01*
X146663981Y-58048259D01*
X146467851Y-58067575D01*
X146279247Y-58124788D01*
X146105448Y-58217686D01*
X146105441Y-58217690D01*
X145953097Y-58342716D01*
X145828071Y-58495060D01*
X145828067Y-58495067D01*
X145735169Y-58668866D01*
X145677956Y-58857470D01*
X145658640Y-59053600D01*
X145677956Y-59249729D01*
X145677957Y-59249732D01*
X145733352Y-59432345D01*
X145735169Y-59438333D01*
X145828067Y-59612132D01*
X145828071Y-59612139D01*
X145953097Y-59764483D01*
X146105441Y-59889509D01*
X146105448Y-59889513D01*
X146279247Y-59982411D01*
X146279250Y-59982411D01*
X146279254Y-59982414D01*
X146467849Y-60039624D01*
X146663981Y-60058941D01*
X146860113Y-60039624D01*
X147048708Y-59982414D01*
X147222519Y-59889510D01*
X147271019Y-59849706D01*
X147335327Y-59822393D01*
X147404195Y-59834183D01*
X147455756Y-59881334D01*
X147473640Y-59948877D01*
X147452168Y-60015365D01*
X147437365Y-60033240D01*
X146419104Y-61051502D01*
X146357781Y-61084987D01*
X146288089Y-61080003D01*
X146234037Y-61039539D01*
X146233756Y-61039771D01*
X146232814Y-61038624D01*
X146232156Y-61038131D01*
X146230564Y-61035882D01*
X146104864Y-60882716D01*
X145952520Y-60757690D01*
X145952513Y-60757686D01*
X145778714Y-60664788D01*
X145778708Y-60664786D01*
X145590113Y-60607576D01*
X145590110Y-60607575D01*
X145393981Y-60588259D01*
X145197851Y-60607575D01*
X145009247Y-60664788D01*
X144835448Y-60757686D01*
X144835441Y-60757690D01*
X144683097Y-60882716D01*
X144558071Y-61035060D01*
X144558067Y-61035067D01*
X144465169Y-61208866D01*
X144407956Y-61397470D01*
X144397706Y-61501545D01*
X144371545Y-61566332D01*
X144332440Y-61594002D01*
X144363364Y-61611530D01*
X144395872Y-61673376D01*
X144397706Y-61685655D01*
X144407956Y-61789729D01*
X144414784Y-61812238D01*
X144455710Y-61947153D01*
X144465169Y-61978333D01*
X144558067Y-62152132D01*
X144558071Y-62152139D01*
X144683097Y-62304483D01*
X144835441Y-62429509D01*
X144835448Y-62429513D01*
X145009247Y-62522411D01*
X145009250Y-62522411D01*
X145009254Y-62522414D01*
X145197849Y-62579624D01*
X145393981Y-62598941D01*
X145590113Y-62579624D01*
X145743807Y-62533000D01*
X145813673Y-62532377D01*
X145872786Y-62569624D01*
X145902377Y-62632918D01*
X145893052Y-62702163D01*
X145867483Y-62739342D01*
X145484891Y-63121935D01*
X145423917Y-63182908D01*
X145423915Y-63182911D01*
X145380800Y-63257589D01*
X145376682Y-63272957D01*
X145363200Y-63323275D01*
X145358481Y-63340885D01*
X145358481Y-67238729D01*
X145338796Y-67305768D01*
X145285992Y-67351523D01*
X145234481Y-67362729D01*
X145012649Y-67362729D01*
X144983059Y-67365503D01*
X144858432Y-67409113D01*
X144752198Y-67487517D01*
X144752197Y-67487518D01*
X144673793Y-67593752D01*
X144630183Y-67718379D01*
X144627409Y-67747968D01*
X144627409Y-68328489D01*
X144630183Y-68358078D01*
X144673793Y-68482705D01*
X144752197Y-68588939D01*
X144752198Y-68588940D01*
X144858432Y-68667344D01*
X144858433Y-68667344D01*
X144858434Y-68667345D01*
X144983060Y-68710954D01*
X144983059Y-68710954D01*
X145012649Y-68713729D01*
X145012653Y-68713729D01*
X145234481Y-68713729D01*
X145301520Y-68733414D01*
X145347275Y-68786218D01*
X145358481Y-68837729D01*
X145358481Y-69757188D01*
X145338796Y-69824227D01*
X145285992Y-69869982D01*
X145216834Y-69879926D01*
X145153278Y-69850901D01*
X145146800Y-69844870D01*
X145036226Y-69734297D01*
X144957514Y-69670175D01*
X144957506Y-69670170D01*
X144803450Y-69592801D01*
X144635689Y-69553041D01*
X144463291Y-69553041D01*
X144295528Y-69592801D01*
X144141473Y-69670171D01*
X144141471Y-69670171D01*
X144062751Y-69734298D01*
X144062743Y-69734305D01*
X144027998Y-69769049D01*
X144027998Y-69769050D01*
X144806523Y-70547575D01*
X144840008Y-70608898D01*
X144835024Y-70678590D01*
X144806523Y-70722937D01*
X144628332Y-70901127D01*
X144567009Y-70934612D01*
X144497317Y-70929628D01*
X144452970Y-70901127D01*
X143674445Y-70122602D01*
X143639693Y-70157357D01*
X143639691Y-70157359D01*
X143575570Y-70236070D01*
X143575565Y-70236078D01*
X143498196Y-70390133D01*
X143458436Y-70557895D01*
X143458436Y-70730294D01*
X143498196Y-70898055D01*
X143541932Y-70985141D01*
X143554429Y-71053884D01*
X143527776Y-71118470D01*
X143470437Y-71158395D01*
X143400615Y-71160981D01*
X143394577Y-71159285D01*
X143389580Y-71157743D01*
X143259020Y-71138064D01*
X143128459Y-71157743D01*
X143128456Y-71157745D01*
X143009498Y-71215030D01*
X142986607Y-71233998D01*
X142986600Y-71234004D01*
X142558459Y-71662145D01*
X142558453Y-71662152D01*
X142539485Y-71685043D01*
X142482200Y-71804001D01*
X142482198Y-71804004D01*
X142462519Y-71934565D01*
X142482198Y-72065125D01*
X142482200Y-72065128D01*
X142539484Y-72184083D01*
X142539485Y-72184085D01*
X142539486Y-72184086D01*
X142558450Y-72206973D01*
X142968934Y-72617457D01*
X142991821Y-72636421D01*
X143110781Y-72693708D01*
X143241342Y-72713388D01*
X143371903Y-72693708D01*
X143490863Y-72636421D01*
X143513751Y-72617457D01*
X143605429Y-72525778D01*
X143666750Y-72492295D01*
X143736442Y-72497279D01*
X143780790Y-72525780D01*
X143976918Y-72721908D01*
X144010403Y-72783231D01*
X144005419Y-72852923D01*
X143963547Y-72908856D01*
X143944890Y-72920399D01*
X143826904Y-72979655D01*
X143748182Y-73043783D01*
X143722272Y-73069693D01*
X144279118Y-73626539D01*
X144492652Y-73413005D01*
X144553975Y-73379520D01*
X144623667Y-73384504D01*
X144668015Y-73413005D01*
X144846206Y-73591196D01*
X144879691Y-73652519D01*
X144874707Y-73722211D01*
X144846206Y-73766558D01*
X144343774Y-74268990D01*
X144333688Y-74284085D01*
X143194101Y-75423673D01*
X142681448Y-75936324D01*
X142751552Y-76006428D01*
X142771848Y-76022962D01*
X142811391Y-76080565D01*
X142813515Y-76150403D01*
X142777544Y-76210302D01*
X142714900Y-76241245D01*
X142693531Y-76243100D01*
X140354792Y-76243100D01*
X140287753Y-76223415D01*
X140241998Y-76170611D01*
X140232054Y-76101453D01*
X140243072Y-76065298D01*
X140244821Y-76061666D01*
X140289039Y-75969847D01*
X140306259Y-75855593D01*
X140335715Y-75792239D01*
X140394748Y-75754865D01*
X140457470Y-75753419D01*
X140575069Y-75781290D01*
X140747465Y-75781290D01*
X140915225Y-75741531D01*
X141069287Y-75664157D01*
X141069290Y-75664155D01*
X141147998Y-75600040D01*
X141148012Y-75600027D01*
X141218113Y-75529925D01*
X141218113Y-75529924D01*
X140705461Y-75017273D01*
X140351907Y-74663719D01*
X141059014Y-74663719D01*
X141059014Y-74663720D01*
X141571665Y-75176372D01*
X141641765Y-75106272D01*
X141641773Y-75106263D01*
X141705896Y-75027550D01*
X141705899Y-75027545D01*
X141750003Y-74939727D01*
X142076531Y-74939727D01*
X142076531Y-75112124D01*
X142116289Y-75279884D01*
X142193662Y-75433945D01*
X142257787Y-75512663D01*
X142327895Y-75582771D01*
X142840548Y-75070120D01*
X142283701Y-74513273D01*
X142257791Y-74539184D01*
X142193662Y-74617905D01*
X142116290Y-74771965D01*
X142076531Y-74939727D01*
X141750003Y-74939727D01*
X141783272Y-74873484D01*
X141823031Y-74705724D01*
X141823031Y-74533327D01*
X141783271Y-74365565D01*
X141705899Y-74211506D01*
X141663714Y-74159720D01*
X142637254Y-74159720D01*
X143191596Y-74714062D01*
X143925566Y-73980093D01*
X143368719Y-73423246D01*
X143342809Y-73449157D01*
X143278680Y-73527878D01*
X143201308Y-73681938D01*
X143159884Y-73856726D01*
X143157484Y-73856157D01*
X143134690Y-73909726D01*
X143076917Y-73949021D01*
X143067486Y-73951654D01*
X142895946Y-73992309D01*
X142741887Y-74069681D01*
X142663164Y-74133810D01*
X142637254Y-74159720D01*
X141663714Y-74159720D01*
X141641773Y-74132786D01*
X141615860Y-74106873D01*
X141615859Y-74106873D01*
X141059014Y-74663719D01*
X140351907Y-74663719D01*
X139839255Y-74151067D01*
X139769142Y-74221181D01*
X139769134Y-74221191D01*
X139705029Y-74299884D01*
X139705022Y-74299894D01*
X139627649Y-74453955D01*
X139587891Y-74621715D01*
X139587891Y-74794113D01*
X139615761Y-74911711D01*
X139612067Y-74981483D01*
X139571237Y-75038181D01*
X139513584Y-75062921D01*
X139427943Y-75075829D01*
X139358718Y-75066356D01*
X139305605Y-75020961D01*
X139285465Y-74954057D01*
X139285462Y-74953214D01*
X139285462Y-73797514D01*
X140192808Y-73797514D01*
X140705461Y-74310167D01*
X140705462Y-74310167D01*
X141262307Y-73753321D01*
X141236391Y-73727406D01*
X141157675Y-73663281D01*
X141003615Y-73585909D01*
X140835853Y-73546150D01*
X140663457Y-73546150D01*
X140495696Y-73585908D01*
X140341635Y-73663281D01*
X140262912Y-73727410D01*
X140192808Y-73797514D01*
X139285462Y-73797514D01*
X139285462Y-72295645D01*
X139305147Y-72228606D01*
X139321781Y-72207964D01*
X140392926Y-71136819D01*
X141464868Y-70064877D01*
X141510240Y-70010434D01*
X141589296Y-69859807D01*
X141630006Y-69694638D01*
X141630006Y-69524526D01*
X141589296Y-69359357D01*
X141510240Y-69208730D01*
X141464868Y-69154287D01*
X140677694Y-68367113D01*
X140623251Y-68321741D01*
X140547937Y-68282213D01*
X140472623Y-68242684D01*
X140307455Y-68201975D01*
X140137343Y-68201975D01*
X139972174Y-68242684D01*
X139821545Y-68321742D01*
X139767108Y-68367109D01*
X139767093Y-68367123D01*
X136505066Y-71629150D01*
X136505052Y-71629165D01*
X136459685Y-71683602D01*
X136380627Y-71834231D01*
X136343319Y-71985603D01*
X136339918Y-71999400D01*
X136339918Y-72169512D01*
X136343940Y-72185829D01*
X136380627Y-72334680D01*
X136380628Y-72334681D01*
X136459684Y-72485308D01*
X136505056Y-72539751D01*
X137292230Y-73326925D01*
X137346673Y-73372297D01*
X137497300Y-73451353D01*
X137662469Y-73492063D01*
X137832581Y-73492063D01*
X137997750Y-73451353D01*
X138148377Y-73372297D01*
X138202820Y-73326925D01*
X138472781Y-73056964D01*
X138534104Y-73023479D01*
X138603796Y-73028463D01*
X138659729Y-73070335D01*
X138684146Y-73135799D01*
X138684462Y-73144645D01*
X138684462Y-75422303D01*
X138704941Y-75498730D01*
X138716210Y-75518249D01*
X138738208Y-75556349D01*
X138754681Y-75624249D01*
X138742541Y-75672151D01*
X138682363Y-75797110D01*
X138682362Y-75797114D01*
X138662684Y-75927673D01*
X138662684Y-75927674D01*
X138682362Y-76058233D01*
X138682363Y-76058237D01*
X138739647Y-76177188D01*
X138739649Y-76177192D01*
X138739650Y-76177193D01*
X138739651Y-76177195D01*
X138758614Y-76200083D01*
X139169098Y-76610567D01*
X139191986Y-76629530D01*
X139191987Y-76629530D01*
X139191988Y-76629531D01*
X139191992Y-76629533D01*
X139310943Y-76686817D01*
X139310944Y-76686817D01*
X139310946Y-76686818D01*
X139376226Y-76696657D01*
X139441506Y-76706497D01*
X139441507Y-76706497D01*
X139505735Y-76696816D01*
X139574959Y-76706289D01*
X139628073Y-76751683D01*
X139648213Y-76818587D01*
X139628985Y-76885759D01*
X139611897Y-76907112D01*
X138991709Y-77527301D01*
X138930386Y-77560786D01*
X138904028Y-77563620D01*
X138299613Y-77563620D01*
X138232574Y-77543935D01*
X138211932Y-77527301D01*
X137821664Y-77137033D01*
X137811814Y-77128872D01*
X137798776Y-77118070D01*
X137798774Y-77118069D01*
X137798773Y-77118068D01*
X137798769Y-77118066D01*
X137679818Y-77060782D01*
X137679814Y-77060781D01*
X137549256Y-77041103D01*
X137549254Y-77041103D01*
X137418695Y-77060781D01*
X137418691Y-77060782D01*
X137300875Y-77117520D01*
X137231934Y-77128872D01*
X137167800Y-77101150D01*
X137159393Y-77093481D01*
X137036434Y-76970522D01*
X137036433Y-76970521D01*
X137007038Y-76953550D01*
X137007037Y-76953549D01*
X136967911Y-76930960D01*
X136891484Y-76910481D01*
X136891482Y-76910481D01*
X134918626Y-76910481D01*
X134851587Y-76890796D01*
X134805832Y-76837992D01*
X134795888Y-76768834D01*
X134824913Y-76705278D01*
X134830945Y-76698800D01*
X134964977Y-76564768D01*
X135100906Y-76428839D01*
X135146278Y-76374396D01*
X135225334Y-76223769D01*
X135266044Y-76058600D01*
X135266044Y-75888488D01*
X135225334Y-75723319D01*
X135146278Y-75572692D01*
X135100906Y-75518249D01*
X134313732Y-74731075D01*
X134259289Y-74685703D01*
X134183975Y-74646175D01*
X134108661Y-74606646D01*
X133943493Y-74565937D01*
X133773381Y-74565937D01*
X133608212Y-74606646D01*
X133457583Y-74685704D01*
X133403146Y-74731071D01*
X133403131Y-74731085D01*
X130141104Y-77993112D01*
X130141090Y-77993127D01*
X130095723Y-78047564D01*
X130016665Y-78198193D01*
X129975956Y-78363362D01*
X127544481Y-78363362D01*
X127544481Y-67499994D01*
X128288840Y-67499994D01*
X128288840Y-67500005D01*
X128309366Y-67747729D01*
X128309368Y-67747738D01*
X128370393Y-67988717D01*
X128470247Y-68216364D01*
X128570545Y-68369882D01*
X129270193Y-67670234D01*
X129281463Y-67712292D01*
X129353871Y-67837708D01*
X129456273Y-67940110D01*
X129581689Y-68012518D01*
X129623746Y-68023787D01*
X128923923Y-68723609D01*
X128970749Y-68760055D01*
X128970751Y-68760056D01*
X129189366Y-68878364D01*
X129189377Y-68878369D01*
X129424487Y-68959083D01*
X129669688Y-69000000D01*
X129918274Y-69000000D01*
X130163474Y-68959083D01*
X130398584Y-68878369D01*
X130398595Y-68878364D01*
X130617209Y-68760057D01*
X130617212Y-68760055D01*
X130664037Y-68723609D01*
X129964215Y-68023787D01*
X130006273Y-68012518D01*
X130131689Y-67940110D01*
X130234091Y-67837708D01*
X130306499Y-67712292D01*
X130317768Y-67670235D01*
X131017415Y-68369882D01*
X131117712Y-68216369D01*
X131217568Y-67988717D01*
X131278593Y-67747738D01*
X131278595Y-67747729D01*
X131299122Y-67500005D01*
X131299122Y-67499999D01*
X133088338Y-67499999D01*
X133088338Y-67500000D01*
X133108865Y-67721535D01*
X133108866Y-67721537D01*
X133169750Y-67935523D01*
X133169756Y-67935538D01*
X133268919Y-68134683D01*
X133268924Y-68134691D01*
X133403001Y-68312238D01*
X133567418Y-68462123D01*
X133567420Y-68462125D01*
X133756576Y-68579245D01*
X133756577Y-68579245D01*
X133756580Y-68579247D01*
X133964041Y-68659618D01*
X134182738Y-68700500D01*
X134182740Y-68700500D01*
X134405222Y-68700500D01*
X134405224Y-68700500D01*
X134623921Y-68659618D01*
X134831382Y-68579247D01*
X135020543Y-68462124D01*
X135167138Y-68328485D01*
X135184960Y-68312238D01*
X135187322Y-68309111D01*
X135319039Y-68134689D01*
X135418210Y-67935528D01*
X135471575Y-67747968D01*
X142802409Y-67747968D01*
X142802409Y-68328489D01*
X142805183Y-68358078D01*
X142848793Y-68482705D01*
X142927197Y-68588939D01*
X142927198Y-68588940D01*
X143033432Y-68667344D01*
X143033433Y-68667344D01*
X143033434Y-68667345D01*
X143158060Y-68710954D01*
X143158059Y-68710954D01*
X143187649Y-68713729D01*
X143187653Y-68713729D01*
X143793169Y-68713729D01*
X143822758Y-68710954D01*
X143852633Y-68700500D01*
X143947384Y-68667345D01*
X144053620Y-68588940D01*
X144132025Y-68482704D01*
X144175634Y-68358078D01*
X144178409Y-68328485D01*
X144178409Y-67747973D01*
X144178386Y-67747729D01*
X144175634Y-67718379D01*
X144132024Y-67593752D01*
X144053620Y-67487518D01*
X144053619Y-67487517D01*
X143947385Y-67409113D01*
X143822757Y-67365503D01*
X143822758Y-67365503D01*
X143793169Y-67362729D01*
X143793165Y-67362729D01*
X143187653Y-67362729D01*
X143187649Y-67362729D01*
X143158059Y-67365503D01*
X143033432Y-67409113D01*
X142927198Y-67487517D01*
X142927197Y-67487518D01*
X142848793Y-67593752D01*
X142805183Y-67718379D01*
X142802409Y-67747968D01*
X135471575Y-67747968D01*
X135479096Y-67721536D01*
X135499624Y-67500000D01*
X135499623Y-67499994D01*
X135479096Y-67278464D01*
X135479095Y-67278462D01*
X135475715Y-67266584D01*
X135418210Y-67064472D01*
X135418205Y-67064461D01*
X135319042Y-66865316D01*
X135319037Y-66865308D01*
X135184960Y-66687761D01*
X135020543Y-66537876D01*
X135020541Y-66537874D01*
X134831385Y-66420754D01*
X134831379Y-66420752D01*
X134623921Y-66340382D01*
X134405224Y-66299500D01*
X134182738Y-66299500D01*
X133964041Y-66340382D01*
X133863167Y-66379461D01*
X133756582Y-66420752D01*
X133756576Y-66420754D01*
X133567420Y-66537874D01*
X133567418Y-66537876D01*
X133403001Y-66687761D01*
X133268924Y-66865308D01*
X133268919Y-66865316D01*
X133169756Y-67064461D01*
X133169750Y-67064476D01*
X133108866Y-67278462D01*
X133108865Y-67278464D01*
X133088338Y-67499999D01*
X131299122Y-67499999D01*
X131299122Y-67499994D01*
X131278595Y-67252270D01*
X131278593Y-67252261D01*
X131217568Y-67011282D01*
X131117712Y-66783630D01*
X131017415Y-66630116D01*
X130317768Y-67329764D01*
X130306499Y-67287708D01*
X130234091Y-67162292D01*
X130131689Y-67059890D01*
X130006273Y-66987482D01*
X129964216Y-66976212D01*
X130664038Y-66276390D01*
X130664037Y-66276389D01*
X130617210Y-66239943D01*
X130398595Y-66121635D01*
X130398584Y-66121630D01*
X130163474Y-66040916D01*
X129918274Y-66000000D01*
X129669688Y-66000000D01*
X129424487Y-66040916D01*
X129189377Y-66121630D01*
X129189371Y-66121632D01*
X128970742Y-66239949D01*
X128923923Y-66276388D01*
X128923923Y-66276390D01*
X129623746Y-66976212D01*
X129581689Y-66987482D01*
X129456273Y-67059890D01*
X129353871Y-67162292D01*
X129281463Y-67287708D01*
X129270193Y-67329764D01*
X128570545Y-66630116D01*
X128470248Y-66783632D01*
X128370393Y-67011282D01*
X128309368Y-67252261D01*
X128309366Y-67252270D01*
X128288840Y-67499994D01*
X127544481Y-67499994D01*
X127544481Y-60999994D01*
X128288840Y-60999994D01*
X128288840Y-61000005D01*
X128309366Y-61247729D01*
X128309368Y-61247738D01*
X128370393Y-61488717D01*
X128470247Y-61716364D01*
X128570545Y-61869882D01*
X129270193Y-61170234D01*
X129281463Y-61212292D01*
X129353871Y-61337708D01*
X129456273Y-61440110D01*
X129581689Y-61512518D01*
X129623746Y-61523787D01*
X128923923Y-62223609D01*
X128970749Y-62260055D01*
X128970751Y-62260056D01*
X129189366Y-62378364D01*
X129189377Y-62378369D01*
X129424487Y-62459083D01*
X129669688Y-62500000D01*
X129918274Y-62500000D01*
X130163474Y-62459083D01*
X130398584Y-62378369D01*
X130398595Y-62378364D01*
X130617209Y-62260057D01*
X130617212Y-62260055D01*
X130664037Y-62223609D01*
X129964215Y-61523787D01*
X130006273Y-61512518D01*
X130131689Y-61440110D01*
X130234091Y-61337708D01*
X130306499Y-61212292D01*
X130317768Y-61170235D01*
X131017415Y-61869882D01*
X131117712Y-61716369D01*
X131217568Y-61488717D01*
X131278593Y-61247738D01*
X131278595Y-61247729D01*
X131299122Y-61000005D01*
X131299122Y-60999999D01*
X133088338Y-60999999D01*
X133088338Y-61000000D01*
X133108865Y-61221535D01*
X133108866Y-61221537D01*
X133169750Y-61435523D01*
X133169756Y-61435538D01*
X133268919Y-61634683D01*
X133268924Y-61634691D01*
X133403001Y-61812238D01*
X133567418Y-61962123D01*
X133567420Y-61962125D01*
X133756576Y-62079245D01*
X133756577Y-62079245D01*
X133756580Y-62079247D01*
X133964041Y-62159618D01*
X134182738Y-62200500D01*
X134182740Y-62200500D01*
X134405222Y-62200500D01*
X134405224Y-62200500D01*
X134623921Y-62159618D01*
X134831382Y-62079247D01*
X135020543Y-61962124D01*
X135184962Y-61812236D01*
X135319039Y-61634689D01*
X135339501Y-61593597D01*
X141549015Y-61593597D01*
X141549015Y-61593602D01*
X141568839Y-61820199D01*
X141568841Y-61820210D01*
X141627711Y-62039917D01*
X141627716Y-62039931D01*
X141723844Y-62246078D01*
X141774955Y-62319072D01*
X142371019Y-61723008D01*
X142388057Y-61786592D01*
X142453883Y-61900606D01*
X142546975Y-61993698D01*
X142660989Y-62059524D01*
X142724572Y-62076561D01*
X142128507Y-62672625D01*
X142201494Y-62723732D01*
X142201502Y-62723736D01*
X142407649Y-62819864D01*
X142407663Y-62819869D01*
X142627370Y-62878739D01*
X142627381Y-62878741D01*
X142853979Y-62898566D01*
X142853983Y-62898566D01*
X143080580Y-62878741D01*
X143080591Y-62878739D01*
X143300298Y-62819869D01*
X143300312Y-62819864D01*
X143506459Y-62723736D01*
X143579452Y-62672624D01*
X142983389Y-62076561D01*
X143046973Y-62059524D01*
X143160987Y-61993698D01*
X143254079Y-61900606D01*
X143319905Y-61786592D01*
X143336942Y-61723008D01*
X143933005Y-62319071D01*
X143984117Y-62246078D01*
X144080245Y-62039931D01*
X144080250Y-62039917D01*
X144139120Y-61820210D01*
X144139122Y-61820199D01*
X144150775Y-61687002D01*
X144176227Y-61621933D01*
X144216012Y-61593124D01*
X144184306Y-61574692D01*
X144152474Y-61512494D01*
X144150775Y-61500197D01*
X144139122Y-61367000D01*
X144139120Y-61366989D01*
X144080250Y-61147282D01*
X144080245Y-61147268D01*
X143984117Y-60941121D01*
X143984113Y-60941113D01*
X143933006Y-60868126D01*
X143336942Y-61464190D01*
X143319905Y-61400608D01*
X143254079Y-61286594D01*
X143160987Y-61193502D01*
X143046973Y-61127676D01*
X142983390Y-61110638D01*
X143579453Y-60514574D01*
X143506459Y-60463463D01*
X143300312Y-60367335D01*
X143300298Y-60367330D01*
X143080591Y-60308460D01*
X143080580Y-60308458D01*
X142853983Y-60288634D01*
X142853979Y-60288634D01*
X142627381Y-60308458D01*
X142627370Y-60308460D01*
X142407663Y-60367330D01*
X142407654Y-60367334D01*
X142201497Y-60463466D01*
X142201493Y-60463468D01*
X142128507Y-60514573D01*
X142128507Y-60514574D01*
X142724572Y-61110638D01*
X142660989Y-61127676D01*
X142546975Y-61193502D01*
X142453883Y-61286594D01*
X142388057Y-61400608D01*
X142371019Y-61464190D01*
X141774955Y-60868126D01*
X141774954Y-60868126D01*
X141723849Y-60941112D01*
X141723847Y-60941116D01*
X141627715Y-61147273D01*
X141627711Y-61147282D01*
X141568841Y-61366989D01*
X141568839Y-61367000D01*
X141549015Y-61593597D01*
X135339501Y-61593597D01*
X135418210Y-61435528D01*
X135479096Y-61221536D01*
X135499624Y-61000000D01*
X135499623Y-60999994D01*
X135479096Y-60778464D01*
X135479095Y-60778462D01*
X135471640Y-60752261D01*
X135418210Y-60564472D01*
X135418205Y-60564461D01*
X135319042Y-60365316D01*
X135319037Y-60365308D01*
X135184960Y-60187761D01*
X135020543Y-60037876D01*
X135020541Y-60037874D01*
X134831385Y-59920754D01*
X134831370Y-59920747D01*
X134673687Y-59859660D01*
X134618285Y-59817087D01*
X134594695Y-59751321D01*
X134594481Y-59744034D01*
X134594481Y-59053600D01*
X143118640Y-59053600D01*
X143137956Y-59249729D01*
X143137957Y-59249732D01*
X143193352Y-59432345D01*
X143195169Y-59438333D01*
X143288067Y-59612132D01*
X143288071Y-59612139D01*
X143413097Y-59764483D01*
X143565441Y-59889509D01*
X143565448Y-59889513D01*
X143739247Y-59982411D01*
X143739250Y-59982411D01*
X143739254Y-59982414D01*
X143927849Y-60039624D01*
X144123981Y-60058941D01*
X144320113Y-60039624D01*
X144508708Y-59982414D01*
X144682519Y-59889510D01*
X144834864Y-59764483D01*
X144959891Y-59612138D01*
X145052795Y-59438327D01*
X145110005Y-59249732D01*
X145129322Y-59053600D01*
X145110005Y-58857468D01*
X145052795Y-58668873D01*
X145052792Y-58668869D01*
X145052792Y-58668866D01*
X144959894Y-58495067D01*
X144959890Y-58495060D01*
X144834864Y-58342716D01*
X144682520Y-58217690D01*
X144682513Y-58217686D01*
X144508714Y-58124788D01*
X144508708Y-58124786D01*
X144320113Y-58067576D01*
X144320110Y-58067575D01*
X144123981Y-58048259D01*
X143927851Y-58067575D01*
X143739247Y-58124788D01*
X143565448Y-58217686D01*
X143565441Y-58217690D01*
X143413097Y-58342716D01*
X143288071Y-58495060D01*
X143288067Y-58495067D01*
X143195169Y-58668866D01*
X143137956Y-58857470D01*
X143118640Y-59053600D01*
X134594481Y-59053600D01*
X134594481Y-58665857D01*
X134611570Y-58607655D01*
X134609753Y-58606695D01*
X134614096Y-58598476D01*
X134614095Y-58598476D01*
X134614097Y-58598475D01*
X134657706Y-58473849D01*
X134658470Y-58465706D01*
X134660481Y-58444260D01*
X134660481Y-57863739D01*
X134657706Y-57834150D01*
X134614096Y-57709523D01*
X134535692Y-57603289D01*
X134535691Y-57603288D01*
X134429457Y-57524884D01*
X134384180Y-57509041D01*
X134327405Y-57468319D01*
X134301658Y-57403366D01*
X134315115Y-57334805D01*
X134363502Y-57284402D01*
X134384180Y-57274959D01*
X134388540Y-57273433D01*
X134429456Y-57259116D01*
X134535692Y-57180711D01*
X134614097Y-57074475D01*
X134657706Y-56949849D01*
X134660481Y-56920256D01*
X134660481Y-56339744D01*
X134660186Y-56336601D01*
X134657706Y-56310150D01*
X134621196Y-56205812D01*
X134614097Y-56185525D01*
X134535692Y-56079289D01*
X134535691Y-56079288D01*
X134429457Y-56000884D01*
X134304829Y-55957274D01*
X134304830Y-55957274D01*
X134275241Y-55954500D01*
X134275237Y-55954500D01*
X133669725Y-55954500D01*
X133669721Y-55954500D01*
X133640131Y-55957274D01*
X133515504Y-56000884D01*
X133409270Y-56079288D01*
X133409269Y-56079289D01*
X133330865Y-56185523D01*
X133287255Y-56310150D01*
X133284481Y-56339739D01*
X133284481Y-56920260D01*
X133287255Y-56949849D01*
X133330865Y-57074476D01*
X133409269Y-57180710D01*
X133409270Y-57180711D01*
X133515504Y-57259115D01*
X133515503Y-57259115D01*
X133560781Y-57274959D01*
X133617557Y-57315681D01*
X133643303Y-57380635D01*
X133629846Y-57449196D01*
X133581458Y-57499598D01*
X133560781Y-57509041D01*
X133515504Y-57524884D01*
X133409270Y-57603288D01*
X133409269Y-57603289D01*
X133330865Y-57709523D01*
X133287255Y-57834150D01*
X133284481Y-57863739D01*
X133284481Y-58444260D01*
X133287255Y-58473849D01*
X133330865Y-58598476D01*
X133409269Y-58704710D01*
X133409270Y-58704711D01*
X133515504Y-58783115D01*
X133515505Y-58783115D01*
X133515506Y-58783116D01*
X133640132Y-58826725D01*
X133640131Y-58826725D01*
X133669721Y-58829500D01*
X133669725Y-58829500D01*
X133869481Y-58829500D01*
X133936520Y-58849185D01*
X133982275Y-58901989D01*
X133993481Y-58953500D01*
X133993481Y-59744034D01*
X133973796Y-59811073D01*
X133920992Y-59856828D01*
X133914275Y-59859660D01*
X133756591Y-59920747D01*
X133756576Y-59920754D01*
X133567420Y-60037874D01*
X133567418Y-60037876D01*
X133403001Y-60187761D01*
X133268924Y-60365308D01*
X133268919Y-60365316D01*
X133169756Y-60564461D01*
X133169750Y-60564476D01*
X133108866Y-60778462D01*
X133108865Y-60778464D01*
X133088338Y-60999999D01*
X131299122Y-60999999D01*
X131299122Y-60999994D01*
X131278595Y-60752270D01*
X131278593Y-60752261D01*
X131217568Y-60511282D01*
X131117712Y-60283630D01*
X131017415Y-60130116D01*
X130317768Y-60829764D01*
X130306499Y-60787708D01*
X130234091Y-60662292D01*
X130131689Y-60559890D01*
X130006273Y-60487482D01*
X129964216Y-60476212D01*
X130664038Y-59776390D01*
X130664037Y-59776389D01*
X130617210Y-59739943D01*
X130398595Y-59621635D01*
X130398584Y-59621630D01*
X130163474Y-59540916D01*
X129918274Y-59500000D01*
X129669688Y-59500000D01*
X129424487Y-59540916D01*
X129189377Y-59621630D01*
X129189371Y-59621632D01*
X128970742Y-59739949D01*
X128923923Y-59776388D01*
X128923923Y-59776390D01*
X129623746Y-60476212D01*
X129581689Y-60487482D01*
X129456273Y-60559890D01*
X129353871Y-60662292D01*
X129281463Y-60787708D01*
X129270193Y-60829764D01*
X128570545Y-60130116D01*
X128470248Y-60283632D01*
X128370393Y-60511282D01*
X128309368Y-60752261D01*
X128309366Y-60752270D01*
X128288840Y-60999994D01*
X127544481Y-60999994D01*
X127544481Y-56779500D01*
X129544982Y-56779500D01*
X129544982Y-56878654D01*
X129555300Y-56979652D01*
X129609527Y-57143300D01*
X129609532Y-57143311D01*
X129700033Y-57290034D01*
X129700036Y-57290038D01*
X129821941Y-57411943D01*
X129924801Y-57475388D01*
X129971525Y-57527336D01*
X129982748Y-57596299D01*
X129959475Y-57654560D01*
X129890864Y-57747525D01*
X129847255Y-57872150D01*
X129844481Y-57901739D01*
X129844481Y-58607260D01*
X129847255Y-58636849D01*
X129890865Y-58761476D01*
X129969269Y-58867710D01*
X129969270Y-58867711D01*
X130075504Y-58946115D01*
X130075505Y-58946115D01*
X130075506Y-58946116D01*
X130200132Y-58989725D01*
X130200131Y-58989725D01*
X130229721Y-58992500D01*
X130229725Y-58992500D01*
X130810241Y-58992500D01*
X130839830Y-58989725D01*
X130847592Y-58987009D01*
X130964456Y-58946116D01*
X131070692Y-58867711D01*
X131149097Y-58761475D01*
X131192706Y-58636849D01*
X131195481Y-58607256D01*
X131195481Y-58578500D01*
X131215166Y-58511461D01*
X131267970Y-58465706D01*
X131319481Y-58454500D01*
X131367503Y-58454500D01*
X131434542Y-58474185D01*
X131480297Y-58526989D01*
X131484544Y-58537545D01*
X131505864Y-58598475D01*
X131505865Y-58598476D01*
X131584269Y-58704710D01*
X131584270Y-58704711D01*
X131661184Y-58761476D01*
X131690506Y-58783116D01*
X131706654Y-58788766D01*
X131763428Y-58829486D01*
X131789176Y-58894439D01*
X131775720Y-58963001D01*
X131759412Y-58987009D01*
X131715851Y-59037282D01*
X131715848Y-59037285D01*
X131659051Y-59161654D01*
X131659049Y-59161662D01*
X131639591Y-59297000D01*
X131659049Y-59432337D01*
X131659051Y-59432345D01*
X131715848Y-59556714D01*
X131715853Y-59556721D01*
X131805390Y-59660053D01*
X131805394Y-59660057D01*
X131865960Y-59698979D01*
X131920420Y-59733978D01*
X131954668Y-59744034D01*
X132051613Y-59772500D01*
X132051614Y-59772500D01*
X132188348Y-59772500D01*
X132319542Y-59733978D01*
X132434570Y-59660055D01*
X132524111Y-59556718D01*
X132580912Y-59432342D01*
X132600371Y-59297000D01*
X132580912Y-59161658D01*
X132568658Y-59134827D01*
X132524113Y-59037285D01*
X132524111Y-59037283D01*
X132524111Y-59037282D01*
X132493345Y-59001776D01*
X132464322Y-58938221D01*
X132474266Y-58869063D01*
X132520021Y-58816259D01*
X132546096Y-58803536D01*
X132604456Y-58783116D01*
X132710692Y-58704711D01*
X132789097Y-58598475D01*
X132832706Y-58473849D01*
X132833470Y-58465706D01*
X132835481Y-58444260D01*
X132835481Y-57863739D01*
X132832706Y-57834150D01*
X132789096Y-57709523D01*
X132710692Y-57603289D01*
X132710691Y-57603288D01*
X132604457Y-57524884D01*
X132559180Y-57509041D01*
X132502405Y-57468319D01*
X132476658Y-57403366D01*
X132490115Y-57334805D01*
X132538502Y-57284402D01*
X132559180Y-57274959D01*
X132563540Y-57273433D01*
X132604456Y-57259116D01*
X132710692Y-57180711D01*
X132789097Y-57074475D01*
X132832706Y-56949849D01*
X132835481Y-56920256D01*
X132835481Y-56339744D01*
X132835186Y-56336601D01*
X132832706Y-56310150D01*
X132796196Y-56205812D01*
X132789097Y-56185525D01*
X132710692Y-56079289D01*
X132710691Y-56079288D01*
X132604457Y-56000884D01*
X132479829Y-55957274D01*
X132479830Y-55957274D01*
X132450241Y-55954500D01*
X132450237Y-55954500D01*
X131844725Y-55954500D01*
X131844721Y-55954500D01*
X131815131Y-55957274D01*
X131690506Y-56000883D01*
X131641780Y-56036845D01*
X131576150Y-56060815D01*
X131507980Y-56045499D01*
X131458913Y-55995758D01*
X131450441Y-55976077D01*
X131430435Y-55915701D01*
X131430429Y-55915688D01*
X131339928Y-55768965D01*
X131339925Y-55768961D01*
X131218019Y-55647055D01*
X131218015Y-55647052D01*
X131071292Y-55556551D01*
X131071281Y-55556546D01*
X130980785Y-55526559D01*
X136273816Y-55526559D01*
X136273816Y-55585051D01*
X136275604Y-55597487D01*
X136276866Y-55615134D01*
X136276866Y-55996480D01*
X136275604Y-56014126D01*
X136273816Y-56026560D01*
X136273816Y-56085052D01*
X136275604Y-56097488D01*
X136276866Y-56115135D01*
X136276866Y-56555811D01*
X136282017Y-56601535D01*
X136321699Y-56683933D01*
X136321700Y-56683934D01*
X136393203Y-56740956D01*
X136468569Y-56758158D01*
X136482361Y-56761306D01*
X136482366Y-56761307D01*
X137054252Y-56761307D01*
X137054255Y-56761307D01*
X137112151Y-56752983D01*
X137250106Y-56712476D01*
X137303311Y-56688178D01*
X137309917Y-56683933D01*
X137354159Y-56655500D01*
X137424265Y-56610446D01*
X137468471Y-56572141D01*
X137537568Y-56492397D01*
X137562616Y-56463491D01*
X137562618Y-56463488D01*
X137562625Y-56463480D01*
X137594247Y-56414275D01*
X137610686Y-56378277D01*
X137633285Y-56328795D01*
X137679040Y-56275992D01*
X137746079Y-56256307D01*
X138109568Y-56256307D01*
X138176607Y-56275992D01*
X138222362Y-56328796D01*
X138223113Y-56330472D01*
X138225801Y-56336601D01*
X138273932Y-56446329D01*
X138381191Y-56610499D01*
X138405410Y-56647569D01*
X138568217Y-56824425D01*
X138568220Y-56824427D01*
X138568223Y-56824430D01*
X138757905Y-56972066D01*
X138757911Y-56972070D01*
X138757914Y-56972072D01*
X138969325Y-57086482D01*
X138969328Y-57086483D01*
X139196680Y-57164533D01*
X139196682Y-57164533D01*
X139196684Y-57164534D01*
X139433789Y-57204100D01*
X139433790Y-57204100D01*
X139674172Y-57204100D01*
X139674173Y-57204100D01*
X139911278Y-57164534D01*
X140138637Y-57086482D01*
X140350048Y-56972072D01*
X140539745Y-56824425D01*
X140702552Y-56647569D01*
X140834030Y-56446328D01*
X140930591Y-56226191D01*
X140989601Y-55993163D01*
X141008179Y-55768965D01*
X141009452Y-55753605D01*
X141009452Y-55753594D01*
X153578510Y-55753594D01*
X153578510Y-55753605D01*
X153598360Y-55993159D01*
X153657370Y-56226189D01*
X153753932Y-56446329D01*
X153861191Y-56610499D01*
X153885410Y-56647569D01*
X154048217Y-56824425D01*
X154048220Y-56824427D01*
X154048223Y-56824430D01*
X154237905Y-56972066D01*
X154237911Y-56972070D01*
X154237914Y-56972072D01*
X154449325Y-57086482D01*
X154449328Y-57086483D01*
X154676680Y-57164533D01*
X154676682Y-57164533D01*
X154676684Y-57164534D01*
X154913789Y-57204100D01*
X154913790Y-57204100D01*
X155154172Y-57204100D01*
X155154173Y-57204100D01*
X155391278Y-57164534D01*
X155618637Y-57086482D01*
X155830048Y-56972072D01*
X156019745Y-56824425D01*
X156182552Y-56647569D01*
X156314030Y-56446328D01*
X156387738Y-56278289D01*
X156432694Y-56224804D01*
X156499430Y-56204114D01*
X156501294Y-56204100D01*
X156875178Y-56204100D01*
X156942217Y-56223785D01*
X156987972Y-56276588D01*
X157015374Y-56336590D01*
X157015380Y-56336601D01*
X157046997Y-56385797D01*
X157047008Y-56385813D01*
X157099445Y-56446328D01*
X157141154Y-56494463D01*
X157185359Y-56532767D01*
X157185360Y-56532768D01*
X157306308Y-56610497D01*
X157306310Y-56610497D01*
X157306314Y-56610500D01*
X157359519Y-56634798D01*
X157497474Y-56675305D01*
X157555370Y-56683629D01*
X157555373Y-56683629D01*
X158127262Y-56683629D01*
X158127262Y-56683628D01*
X158172987Y-56678477D01*
X158255386Y-56638795D01*
X158312408Y-56567292D01*
X158332759Y-56478129D01*
X158332759Y-56037457D01*
X158334021Y-56019810D01*
X158334838Y-56014126D01*
X158335809Y-56007375D01*
X158335809Y-55948884D01*
X158334020Y-55936447D01*
X158332759Y-55918802D01*
X158332759Y-55537456D01*
X158334021Y-55519809D01*
X158334838Y-55514124D01*
X158335809Y-55507374D01*
X158335809Y-55448883D01*
X158334021Y-55436446D01*
X158332759Y-55418800D01*
X158332759Y-54978126D01*
X158332758Y-54978124D01*
X158330918Y-54961795D01*
X158327607Y-54932401D01*
X158323315Y-54923489D01*
X158287925Y-54850002D01*
X158216422Y-54792980D01*
X158127263Y-54772629D01*
X158127259Y-54772629D01*
X157555370Y-54772629D01*
X157555368Y-54772629D01*
X157497481Y-54780951D01*
X157497469Y-54780954D01*
X157359519Y-54821460D01*
X157306314Y-54845758D01*
X157306308Y-54845760D01*
X157185360Y-54923489D01*
X157185359Y-54923490D01*
X157141151Y-54961798D01*
X157047008Y-55070444D01*
X157046997Y-55070460D01*
X157015380Y-55119656D01*
X157015371Y-55119672D01*
X156964708Y-55230611D01*
X156918954Y-55283415D01*
X156851914Y-55303100D01*
X156501294Y-55303100D01*
X156434255Y-55283415D01*
X156388500Y-55230611D01*
X156387738Y-55228910D01*
X156373892Y-55197345D01*
X156314030Y-55060872D01*
X156300049Y-55039473D01*
X156182553Y-54859633D01*
X156182552Y-54859631D01*
X156019745Y-54682775D01*
X156019740Y-54682771D01*
X156019738Y-54682769D01*
X155830056Y-54535133D01*
X155830050Y-54535129D01*
X155618638Y-54420718D01*
X155618633Y-54420716D01*
X155391281Y-54342666D01*
X155213449Y-54312991D01*
X155154173Y-54303100D01*
X154913789Y-54303100D01*
X154866368Y-54311013D01*
X154676680Y-54342666D01*
X154449328Y-54420716D01*
X154449323Y-54420718D01*
X154237911Y-54535129D01*
X154237905Y-54535133D01*
X154048223Y-54682769D01*
X154048220Y-54682772D01*
X153885411Y-54859629D01*
X153885408Y-54859633D01*
X153753932Y-55060870D01*
X153657370Y-55281010D01*
X153598360Y-55514040D01*
X153578510Y-55753594D01*
X141009452Y-55753594D01*
X140993123Y-55556546D01*
X140989601Y-55514037D01*
X140930591Y-55281009D01*
X140834030Y-55060872D01*
X140820049Y-55039473D01*
X140702553Y-54859633D01*
X140702552Y-54859631D01*
X140539745Y-54682775D01*
X140539740Y-54682771D01*
X140539738Y-54682769D01*
X140350056Y-54535133D01*
X140350050Y-54535129D01*
X140138638Y-54420718D01*
X140138633Y-54420716D01*
X139911281Y-54342666D01*
X139733449Y-54312991D01*
X139674173Y-54303100D01*
X139433789Y-54303100D01*
X139386368Y-54311013D01*
X139196680Y-54342666D01*
X138969328Y-54420716D01*
X138969323Y-54420718D01*
X138757911Y-54535129D01*
X138757905Y-54535133D01*
X138568223Y-54682769D01*
X138568220Y-54682772D01*
X138405411Y-54859629D01*
X138405408Y-54859633D01*
X138273932Y-55060870D01*
X138177323Y-55281117D01*
X138132367Y-55334603D01*
X138065631Y-55355293D01*
X138063767Y-55355307D01*
X137746079Y-55355307D01*
X137679040Y-55335622D01*
X137633285Y-55282819D01*
X137594250Y-55197345D01*
X137594244Y-55197334D01*
X137585641Y-55183948D01*
X137562625Y-55148134D01*
X137562621Y-55148129D01*
X137562616Y-55148122D01*
X137482620Y-55055802D01*
X137468471Y-55039473D01*
X137424265Y-55001168D01*
X137424264Y-55001167D01*
X137303316Y-54923438D01*
X137303312Y-54923436D01*
X137303311Y-54923436D01*
X137250106Y-54899138D01*
X137115550Y-54859629D01*
X137112155Y-54858632D01*
X137112143Y-54858629D01*
X137054256Y-54850307D01*
X137054255Y-54850307D01*
X136482366Y-54850307D01*
X136482361Y-54850307D01*
X136436637Y-54855458D01*
X136354239Y-54895140D01*
X136297217Y-54966643D01*
X136276866Y-55055802D01*
X136276866Y-55496478D01*
X136275604Y-55514124D01*
X136273816Y-55526559D01*
X130980785Y-55526559D01*
X130907633Y-55502319D01*
X130806635Y-55492000D01*
X130769981Y-55492000D01*
X130769981Y-56655500D01*
X130750296Y-56722539D01*
X130697492Y-56768294D01*
X130645981Y-56779500D01*
X129544982Y-56779500D01*
X127544481Y-56779500D01*
X127544481Y-56180345D01*
X129544981Y-56180345D01*
X129544981Y-56279500D01*
X130269981Y-56279500D01*
X130269981Y-55492000D01*
X130233342Y-55492000D01*
X130233324Y-55492001D01*
X130132328Y-55502319D01*
X129968680Y-55556546D01*
X129968669Y-55556551D01*
X129821946Y-55647052D01*
X129821942Y-55647055D01*
X129700036Y-55768961D01*
X129700033Y-55768965D01*
X129609532Y-55915688D01*
X129609527Y-55915699D01*
X129555300Y-56079347D01*
X129544981Y-56180345D01*
X127544481Y-56180345D01*
X127544481Y-52578765D01*
X139679481Y-52578765D01*
X139679481Y-52828434D01*
X139706621Y-53034580D01*
X139712068Y-53075947D01*
X139712069Y-53075949D01*
X139776683Y-53317095D01*
X139872217Y-53547737D01*
X139872225Y-53547753D01*
X139997045Y-53763946D01*
X139997056Y-53763962D01*
X140149028Y-53962016D01*
X140149034Y-53962023D01*
X140325557Y-54138546D01*
X140325563Y-54138551D01*
X140523627Y-54290531D01*
X140523634Y-54290535D01*
X140739827Y-54415355D01*
X140739843Y-54415363D01*
X140864274Y-54466903D01*
X140970486Y-54510898D01*
X141211634Y-54575513D01*
X141459154Y-54608100D01*
X141459161Y-54608100D01*
X141708801Y-54608100D01*
X141708808Y-54608100D01*
X141956328Y-54575513D01*
X142197476Y-54510898D01*
X142378788Y-54435795D01*
X142428118Y-54415363D01*
X142428121Y-54415361D01*
X142428127Y-54415359D01*
X142644335Y-54290531D01*
X142842399Y-54138551D01*
X143018932Y-53962018D01*
X143170912Y-53763954D01*
X143295740Y-53547746D01*
X143391279Y-53317095D01*
X143455894Y-53075947D01*
X143488481Y-52828427D01*
X143488481Y-52578773D01*
X143488480Y-52578765D01*
X151109481Y-52578765D01*
X151109481Y-52828434D01*
X151136621Y-53034580D01*
X151142068Y-53075947D01*
X151142069Y-53075949D01*
X151206683Y-53317095D01*
X151302217Y-53547737D01*
X151302225Y-53547753D01*
X151427045Y-53763946D01*
X151427056Y-53763962D01*
X151579028Y-53962016D01*
X151579034Y-53962023D01*
X151755557Y-54138546D01*
X151755563Y-54138551D01*
X151953627Y-54290531D01*
X151953634Y-54290535D01*
X152169827Y-54415355D01*
X152169843Y-54415363D01*
X152294274Y-54466903D01*
X152400486Y-54510898D01*
X152641634Y-54575513D01*
X152889154Y-54608100D01*
X152889161Y-54608100D01*
X153138801Y-54608100D01*
X153138808Y-54608100D01*
X153386328Y-54575513D01*
X153627476Y-54510898D01*
X153808788Y-54435795D01*
X153858118Y-54415363D01*
X153858121Y-54415361D01*
X153858127Y-54415359D01*
X154074335Y-54290531D01*
X154272399Y-54138551D01*
X154448932Y-53962018D01*
X154600912Y-53763954D01*
X154725740Y-53547746D01*
X154821279Y-53317095D01*
X154885894Y-53075947D01*
X154918481Y-52828427D01*
X154918481Y-52578773D01*
X154885894Y-52331253D01*
X154821279Y-52090105D01*
X154777284Y-51983893D01*
X154725744Y-51859462D01*
X154725736Y-51859446D01*
X154600916Y-51643253D01*
X154600912Y-51643246D01*
X154448932Y-51445182D01*
X154448927Y-51445176D01*
X154272404Y-51268653D01*
X154272397Y-51268647D01*
X154074343Y-51116675D01*
X154074341Y-51116673D01*
X154074335Y-51116669D01*
X154074330Y-51116666D01*
X154074327Y-51116664D01*
X153858134Y-50991844D01*
X153858118Y-50991836D01*
X153627476Y-50896302D01*
X153386328Y-50831687D01*
X153344961Y-50826240D01*
X153138815Y-50799100D01*
X153138808Y-50799100D01*
X152889154Y-50799100D01*
X152889146Y-50799100D01*
X152653549Y-50830118D01*
X152641634Y-50831687D01*
X152539708Y-50858997D01*
X152400485Y-50896302D01*
X152169843Y-50991836D01*
X152169827Y-50991844D01*
X151953634Y-51116664D01*
X151953618Y-51116675D01*
X151755564Y-51268647D01*
X151755557Y-51268653D01*
X151579034Y-51445176D01*
X151579028Y-51445183D01*
X151427056Y-51643237D01*
X151427045Y-51643253D01*
X151302225Y-51859446D01*
X151302217Y-51859462D01*
X151206683Y-52090104D01*
X151142069Y-52331250D01*
X151142067Y-52331261D01*
X151109481Y-52578765D01*
X143488480Y-52578765D01*
X143455894Y-52331253D01*
X143391279Y-52090105D01*
X143347284Y-51983893D01*
X143295744Y-51859462D01*
X143295736Y-51859446D01*
X143170916Y-51643253D01*
X143170912Y-51643246D01*
X143018932Y-51445182D01*
X143018927Y-51445176D01*
X142842404Y-51268653D01*
X142842397Y-51268647D01*
X142644343Y-51116675D01*
X142644341Y-51116673D01*
X142644335Y-51116669D01*
X142644330Y-51116666D01*
X142644327Y-51116664D01*
X142428134Y-50991844D01*
X142428118Y-50991836D01*
X142197476Y-50896302D01*
X141956328Y-50831687D01*
X141914961Y-50826240D01*
X141708815Y-50799100D01*
X141708808Y-50799100D01*
X141459154Y-50799100D01*
X141459146Y-50799100D01*
X141223549Y-50830118D01*
X141211634Y-50831687D01*
X141109708Y-50858997D01*
X140970485Y-50896302D01*
X140739843Y-50991836D01*
X140739827Y-50991844D01*
X140523634Y-51116664D01*
X140523618Y-51116675D01*
X140325564Y-51268647D01*
X140325557Y-51268653D01*
X140149034Y-51445176D01*
X140149028Y-51445183D01*
X139997056Y-51643237D01*
X139997045Y-51643253D01*
X139872225Y-51859446D01*
X139872217Y-51859462D01*
X139776683Y-52090104D01*
X139712069Y-52331250D01*
X139712067Y-52331261D01*
X139679481Y-52578765D01*
X127544481Y-52578765D01*
X127544481Y-49003480D01*
X127544676Y-48996528D01*
X127549667Y-48907645D01*
X127551107Y-48881995D01*
X128493481Y-48881995D01*
X128493481Y-49118004D01*
X128493482Y-49118020D01*
X128524287Y-49352010D01*
X128585375Y-49579993D01*
X128675695Y-49798045D01*
X128675700Y-49798056D01*
X128733501Y-49898168D01*
X128793708Y-50002450D01*
X128793710Y-50002453D01*
X128793711Y-50002454D01*
X128937387Y-50189697D01*
X128937393Y-50189704D01*
X129104276Y-50356587D01*
X129104282Y-50356592D01*
X129291531Y-50500273D01*
X129422899Y-50576118D01*
X129495924Y-50618280D01*
X129495929Y-50618282D01*
X129495932Y-50618284D01*
X129713988Y-50708606D01*
X129941967Y-50769693D01*
X130175970Y-50800500D01*
X130175977Y-50800500D01*
X130411985Y-50800500D01*
X130411992Y-50800500D01*
X130645995Y-50769693D01*
X130873974Y-50708606D01*
X131092030Y-50618284D01*
X131296431Y-50500273D01*
X131483680Y-50356592D01*
X131650573Y-50189699D01*
X131794254Y-50002450D01*
X131912265Y-49798049D01*
X132002587Y-49579993D01*
X132063674Y-49352014D01*
X132094481Y-49118011D01*
X132094481Y-48881989D01*
X132063674Y-48647986D01*
X132002587Y-48420007D01*
X131912265Y-48201951D01*
X131912263Y-48201948D01*
X131912261Y-48201943D01*
X131870099Y-48128918D01*
X131849651Y-48093500D01*
X135564582Y-48093500D01*
X135564582Y-48142654D01*
X135574900Y-48243652D01*
X135629127Y-48407300D01*
X135629132Y-48407311D01*
X135719633Y-48554034D01*
X135719636Y-48554038D01*
X135841542Y-48675944D01*
X135841546Y-48675947D01*
X135988269Y-48766448D01*
X135988282Y-48766454D01*
X136080786Y-48797106D01*
X136138231Y-48836878D01*
X136165055Y-48901393D01*
X136152741Y-48970169D01*
X136105198Y-49021370D01*
X136099731Y-49024439D01*
X136095104Y-49026884D01*
X135988870Y-49105288D01*
X135988869Y-49105289D01*
X135910465Y-49211523D01*
X135866855Y-49336150D01*
X135864081Y-49365739D01*
X135864081Y-49971257D01*
X135866855Y-50000849D01*
X135910465Y-50125476D01*
X135988869Y-50231710D01*
X135988870Y-50231711D01*
X136095104Y-50310115D01*
X136095105Y-50310115D01*
X136095106Y-50310116D01*
X136219732Y-50353725D01*
X136219731Y-50353725D01*
X136249321Y-50356500D01*
X136249325Y-50356500D01*
X136829841Y-50356500D01*
X136859430Y-50353725D01*
X136984056Y-50310116D01*
X137090292Y-50231711D01*
X137168697Y-50125475D01*
X137176896Y-50102043D01*
X137217618Y-50045269D01*
X137282571Y-50019522D01*
X137293937Y-50019000D01*
X141395223Y-50019000D01*
X141395225Y-50019000D01*
X141484369Y-49995114D01*
X141525692Y-49971256D01*
X141564293Y-49948970D01*
X142653470Y-48859791D01*
X142714791Y-48826308D01*
X142784482Y-48831292D01*
X142785943Y-48831848D01*
X142901517Y-48876621D01*
X142901525Y-48876624D01*
X143102005Y-48914100D01*
X143102007Y-48914100D01*
X143305955Y-48914100D01*
X143305957Y-48914100D01*
X143506437Y-48876624D01*
X143696618Y-48802948D01*
X143870022Y-48695581D01*
X144020745Y-48558179D01*
X144143654Y-48395421D01*
X144234563Y-48212850D01*
X144290378Y-48016683D01*
X144309196Y-47813600D01*
X144309196Y-47813599D01*
X150278766Y-47813599D01*
X150278766Y-47813600D01*
X150297583Y-48016682D01*
X150353398Y-48212847D01*
X150353403Y-48212860D01*
X150444308Y-48395421D01*
X150567218Y-48558181D01*
X150717939Y-48695580D01*
X150717941Y-48695582D01*
X150723628Y-48699103D01*
X150891344Y-48802948D01*
X151081525Y-48876624D01*
X151282005Y-48914100D01*
X151282007Y-48914100D01*
X151485955Y-48914100D01*
X151485957Y-48914100D01*
X151686437Y-48876624D01*
X151802018Y-48831847D01*
X151871639Y-48825985D01*
X151933380Y-48858694D01*
X151934492Y-48859793D01*
X152972869Y-49898170D01*
X153011470Y-49920456D01*
X153052793Y-49944314D01*
X153141937Y-49968200D01*
X153141938Y-49968200D01*
X153234225Y-49968200D01*
X157578425Y-49968200D01*
X157645464Y-49987885D01*
X157691219Y-50040689D01*
X157695466Y-50051244D01*
X157703665Y-50074676D01*
X157782069Y-50180910D01*
X157782070Y-50180911D01*
X157888304Y-50259315D01*
X157888305Y-50259315D01*
X157888306Y-50259316D01*
X158012932Y-50302925D01*
X158012931Y-50302925D01*
X158042521Y-50305700D01*
X158042525Y-50305700D01*
X158623041Y-50305700D01*
X158652630Y-50302925D01*
X158777256Y-50259316D01*
X158883492Y-50180911D01*
X158961897Y-50074675D01*
X159005506Y-49950049D01*
X159008281Y-49920456D01*
X159008281Y-49314944D01*
X159005506Y-49285351D01*
X158992266Y-49247515D01*
X158961896Y-49160723D01*
X158883492Y-49054489D01*
X158883491Y-49054488D01*
X158787000Y-48983275D01*
X158777256Y-48976084D01*
X158777251Y-48976082D01*
X158772633Y-48973641D01*
X158722562Y-48924910D01*
X158712615Y-48881995D01*
X162493481Y-48881995D01*
X162493481Y-49118004D01*
X162493482Y-49118020D01*
X162524287Y-49352010D01*
X162585375Y-49579993D01*
X162675695Y-49798045D01*
X162675700Y-49798056D01*
X162733501Y-49898168D01*
X162793708Y-50002450D01*
X162793710Y-50002453D01*
X162793711Y-50002454D01*
X162937387Y-50189697D01*
X162937393Y-50189704D01*
X163104276Y-50356587D01*
X163104282Y-50356592D01*
X163291531Y-50500273D01*
X163422899Y-50576118D01*
X163495924Y-50618280D01*
X163495929Y-50618282D01*
X163495932Y-50618284D01*
X163713988Y-50708606D01*
X163941967Y-50769693D01*
X164175970Y-50800500D01*
X164175977Y-50800500D01*
X164411985Y-50800500D01*
X164411992Y-50800500D01*
X164645995Y-50769693D01*
X164873974Y-50708606D01*
X165092030Y-50618284D01*
X165296431Y-50500273D01*
X165483680Y-50356592D01*
X165650573Y-50189699D01*
X165794254Y-50002450D01*
X165912265Y-49798049D01*
X166002587Y-49579993D01*
X166063674Y-49352014D01*
X166094481Y-49118011D01*
X166094481Y-48881989D01*
X166063674Y-48647986D01*
X166002587Y-48420007D01*
X165912265Y-48201951D01*
X165912263Y-48201948D01*
X165912261Y-48201943D01*
X165870099Y-48128918D01*
X165794254Y-47997550D01*
X165668391Y-47833522D01*
X165650574Y-47810302D01*
X165650568Y-47810295D01*
X165483685Y-47643412D01*
X165483678Y-47643406D01*
X165296435Y-47499730D01*
X165296434Y-47499729D01*
X165296431Y-47499727D01*
X165198778Y-47443347D01*
X165092037Y-47381719D01*
X165092026Y-47381714D01*
X164873974Y-47291394D01*
X164830287Y-47279688D01*
X164645995Y-47230307D01*
X164645994Y-47230306D01*
X164645991Y-47230306D01*
X164412001Y-47199501D01*
X164411998Y-47199500D01*
X164411992Y-47199500D01*
X164175970Y-47199500D01*
X164175964Y-47199500D01*
X164175960Y-47199501D01*
X163941970Y-47230306D01*
X163713987Y-47291394D01*
X163495935Y-47381714D01*
X163495924Y-47381719D01*
X163291526Y-47499730D01*
X163104283Y-47643406D01*
X163104276Y-47643412D01*
X162937393Y-47810295D01*
X162937387Y-47810302D01*
X162793711Y-47997545D01*
X162675700Y-48201943D01*
X162675695Y-48201954D01*
X162585375Y-48420006D01*
X162524287Y-48647989D01*
X162493482Y-48881979D01*
X162493481Y-48881995D01*
X158712615Y-48881995D01*
X158706785Y-48856845D01*
X158730312Y-48791055D01*
X158785672Y-48748429D01*
X158791575Y-48746306D01*
X158884079Y-48715654D01*
X158884092Y-48715648D01*
X159030815Y-48625147D01*
X159030819Y-48625144D01*
X159152725Y-48503238D01*
X159152728Y-48503234D01*
X159243229Y-48356511D01*
X159243234Y-48356500D01*
X159297461Y-48192852D01*
X159307780Y-48091854D01*
X159307781Y-48091841D01*
X159307781Y-48042700D01*
X157357782Y-48042700D01*
X157357782Y-48091854D01*
X157368100Y-48192852D01*
X157422327Y-48356500D01*
X157422332Y-48356511D01*
X157512833Y-48503234D01*
X157512836Y-48503238D01*
X157634742Y-48625144D01*
X157634746Y-48625147D01*
X157781469Y-48715648D01*
X157781482Y-48715654D01*
X157873986Y-48746306D01*
X157931431Y-48786078D01*
X157958255Y-48850593D01*
X157945941Y-48919369D01*
X157898398Y-48970570D01*
X157892931Y-48973639D01*
X157888304Y-48976084D01*
X157782070Y-49054488D01*
X157782069Y-49054489D01*
X157703665Y-49160723D01*
X157695466Y-49184156D01*
X157654744Y-49240931D01*
X157589791Y-49266678D01*
X157578425Y-49267200D01*
X153384625Y-49267200D01*
X153317586Y-49247515D01*
X153296944Y-49230881D01*
X152432557Y-48366494D01*
X152399072Y-48305171D01*
X152404056Y-48235479D01*
X152409239Y-48223541D01*
X152414563Y-48212850D01*
X152470378Y-48016683D01*
X152489196Y-47813600D01*
X152489196Y-47813599D01*
X152818766Y-47813599D01*
X152818766Y-47813600D01*
X152837583Y-48016682D01*
X152893398Y-48212847D01*
X152893403Y-48212860D01*
X152984308Y-48395421D01*
X153107218Y-48558181D01*
X153257939Y-48695580D01*
X153257941Y-48695582D01*
X153263628Y-48699103D01*
X153431344Y-48802948D01*
X153621525Y-48876624D01*
X153822005Y-48914100D01*
X153822007Y-48914100D01*
X154025955Y-48914100D01*
X154025957Y-48914100D01*
X154226437Y-48876624D01*
X154416618Y-48802948D01*
X154590022Y-48695581D01*
X154740745Y-48558179D01*
X154863654Y-48395421D01*
X154954563Y-48212850D01*
X155010378Y-48016683D01*
X155029196Y-47813600D01*
X155028587Y-47807033D01*
X155010378Y-47610517D01*
X154991244Y-47543268D01*
X154977096Y-47493545D01*
X157357781Y-47493545D01*
X157357781Y-47542700D01*
X158082781Y-47542700D01*
X158582781Y-47542700D01*
X159307780Y-47542700D01*
X159307780Y-47493560D01*
X159307779Y-47493545D01*
X159297461Y-47392547D01*
X159243234Y-47228899D01*
X159243229Y-47228888D01*
X159152728Y-47082165D01*
X159152725Y-47082161D01*
X159030819Y-46960255D01*
X159030815Y-46960252D01*
X158884092Y-46869751D01*
X158884081Y-46869746D01*
X158720433Y-46815519D01*
X158619435Y-46805200D01*
X158582781Y-46805200D01*
X158582781Y-47542700D01*
X158082781Y-47542700D01*
X158082781Y-46805200D01*
X158046142Y-46805200D01*
X158046124Y-46805201D01*
X157945128Y-46815519D01*
X157781480Y-46869746D01*
X157781469Y-46869751D01*
X157634746Y-46960252D01*
X157634742Y-46960255D01*
X157512836Y-47082161D01*
X157512833Y-47082165D01*
X157422332Y-47228888D01*
X157422327Y-47228899D01*
X157368100Y-47392547D01*
X157357781Y-47493545D01*
X154977096Y-47493545D01*
X154954563Y-47414350D01*
X154943706Y-47392547D01*
X154910253Y-47325364D01*
X154863654Y-47231779D01*
X154740745Y-47069021D01*
X154740743Y-47069018D01*
X154590022Y-46931619D01*
X154590020Y-46931617D01*
X154416623Y-46824255D01*
X154416616Y-46824251D01*
X154321527Y-46787414D01*
X154226437Y-46750576D01*
X154025957Y-46713100D01*
X153822005Y-46713100D01*
X153621525Y-46750576D01*
X153621522Y-46750576D01*
X153621522Y-46750577D01*
X153431345Y-46824251D01*
X153431338Y-46824255D01*
X153257941Y-46931617D01*
X153257939Y-46931619D01*
X153107218Y-47069018D01*
X152984308Y-47231778D01*
X152893403Y-47414339D01*
X152893398Y-47414352D01*
X152837583Y-47610517D01*
X152818766Y-47813599D01*
X152489196Y-47813599D01*
X152488587Y-47807033D01*
X152470378Y-47610517D01*
X152451244Y-47543268D01*
X152414563Y-47414350D01*
X152403706Y-47392547D01*
X152370253Y-47325364D01*
X152323654Y-47231779D01*
X152200745Y-47069021D01*
X152200743Y-47069018D01*
X152050022Y-46931619D01*
X152050020Y-46931617D01*
X151876623Y-46824255D01*
X151876616Y-46824251D01*
X151781527Y-46787414D01*
X151686437Y-46750576D01*
X151485957Y-46713100D01*
X151282005Y-46713100D01*
X151081525Y-46750576D01*
X151081522Y-46750576D01*
X151081522Y-46750577D01*
X150891345Y-46824251D01*
X150891338Y-46824255D01*
X150717941Y-46931617D01*
X150717939Y-46931619D01*
X150567218Y-47069018D01*
X150444308Y-47231778D01*
X150353403Y-47414339D01*
X150353398Y-47414352D01*
X150297583Y-47610517D01*
X150278766Y-47813599D01*
X144309196Y-47813599D01*
X144308587Y-47807033D01*
X144290378Y-47610517D01*
X144271244Y-47543268D01*
X144234563Y-47414350D01*
X144223706Y-47392547D01*
X144190253Y-47325364D01*
X144143654Y-47231779D01*
X144020745Y-47069021D01*
X144020743Y-47069018D01*
X143870022Y-46931619D01*
X143870020Y-46931617D01*
X143696623Y-46824255D01*
X143696616Y-46824251D01*
X143601527Y-46787414D01*
X143506437Y-46750576D01*
X143305957Y-46713100D01*
X143102005Y-46713100D01*
X142901525Y-46750576D01*
X142901522Y-46750576D01*
X142901522Y-46750577D01*
X142711345Y-46824251D01*
X142711338Y-46824255D01*
X142537941Y-46931617D01*
X142537939Y-46931619D01*
X142387218Y-47069018D01*
X142264308Y-47231778D01*
X142173403Y-47414339D01*
X142173398Y-47414352D01*
X142117583Y-47610517D01*
X142098766Y-47813599D01*
X142098766Y-47813600D01*
X142117583Y-48016682D01*
X142173399Y-48212853D01*
X142178722Y-48223541D01*
X142190983Y-48292326D01*
X142164110Y-48356821D01*
X142155403Y-48366494D01*
X141240218Y-49281681D01*
X141178895Y-49315166D01*
X141152537Y-49318000D01*
X137293937Y-49318000D01*
X137226898Y-49298315D01*
X137181143Y-49245511D01*
X137176896Y-49234956D01*
X137168696Y-49211523D01*
X137090292Y-49105289D01*
X137090291Y-49105288D01*
X136984060Y-49026887D01*
X136984056Y-49026884D01*
X136984051Y-49026882D01*
X136979433Y-49024441D01*
X136929362Y-48975710D01*
X136913585Y-48907645D01*
X136937112Y-48841855D01*
X136992472Y-48799229D01*
X136998375Y-48797106D01*
X137090879Y-48766454D01*
X137090892Y-48766448D01*
X137237615Y-48675947D01*
X137237619Y-48675944D01*
X137359525Y-48554038D01*
X137359528Y-48554034D01*
X137450029Y-48407311D01*
X137450034Y-48407300D01*
X137504261Y-48243652D01*
X137514580Y-48142654D01*
X137514581Y-48142641D01*
X137514581Y-48093500D01*
X135564582Y-48093500D01*
X131849651Y-48093500D01*
X131794254Y-47997550D01*
X131668391Y-47833522D01*
X131653104Y-47813599D01*
X139558766Y-47813599D01*
X139558766Y-47813600D01*
X139577583Y-48016682D01*
X139633398Y-48212847D01*
X139633403Y-48212860D01*
X139724308Y-48395421D01*
X139847218Y-48558181D01*
X139997939Y-48695580D01*
X139997941Y-48695582D01*
X140003628Y-48699103D01*
X140171344Y-48802948D01*
X140361525Y-48876624D01*
X140562005Y-48914100D01*
X140562007Y-48914100D01*
X140765955Y-48914100D01*
X140765957Y-48914100D01*
X140966437Y-48876624D01*
X141156618Y-48802948D01*
X141330022Y-48695581D01*
X141480745Y-48558179D01*
X141603654Y-48395421D01*
X141694563Y-48212850D01*
X141750378Y-48016683D01*
X141769196Y-47813600D01*
X141768587Y-47807033D01*
X141750378Y-47610517D01*
X141731244Y-47543268D01*
X141694563Y-47414350D01*
X141683706Y-47392547D01*
X141650253Y-47325364D01*
X141603654Y-47231779D01*
X141480745Y-47069021D01*
X141480743Y-47069018D01*
X141330022Y-46931619D01*
X141330020Y-46931617D01*
X141156623Y-46824255D01*
X141156616Y-46824251D01*
X141061527Y-46787414D01*
X140966437Y-46750576D01*
X140765957Y-46713100D01*
X140562005Y-46713100D01*
X140361525Y-46750576D01*
X140361522Y-46750576D01*
X140361522Y-46750577D01*
X140171345Y-46824251D01*
X140171338Y-46824255D01*
X139997941Y-46931617D01*
X139997939Y-46931619D01*
X139847218Y-47069018D01*
X139724308Y-47231778D01*
X139633403Y-47414339D01*
X139633398Y-47414352D01*
X139577583Y-47610517D01*
X139558766Y-47813599D01*
X131653104Y-47813599D01*
X131650574Y-47810302D01*
X131650568Y-47810295D01*
X131483685Y-47643412D01*
X131483678Y-47643406D01*
X131354579Y-47544345D01*
X135564581Y-47544345D01*
X135564581Y-47593500D01*
X136289581Y-47593500D01*
X136789581Y-47593500D01*
X137514580Y-47593500D01*
X137514580Y-47544360D01*
X137514579Y-47544345D01*
X137504261Y-47443347D01*
X137450034Y-47279699D01*
X137450029Y-47279688D01*
X137359528Y-47132965D01*
X137359525Y-47132961D01*
X137237619Y-47011055D01*
X137237615Y-47011052D01*
X137090892Y-46920551D01*
X137090881Y-46920546D01*
X136927233Y-46866319D01*
X136826235Y-46856000D01*
X136789581Y-46856000D01*
X136789581Y-47593500D01*
X136289581Y-47593500D01*
X136289581Y-46856000D01*
X136252942Y-46856000D01*
X136252924Y-46856001D01*
X136151928Y-46866319D01*
X135988280Y-46920546D01*
X135988269Y-46920551D01*
X135841546Y-47011052D01*
X135841542Y-47011055D01*
X135719636Y-47132961D01*
X135719633Y-47132965D01*
X135629132Y-47279688D01*
X135629127Y-47279699D01*
X135574900Y-47443347D01*
X135564581Y-47544345D01*
X131354579Y-47544345D01*
X131296435Y-47499730D01*
X131296434Y-47499729D01*
X131296431Y-47499727D01*
X131198778Y-47443347D01*
X131092037Y-47381719D01*
X131092026Y-47381714D01*
X130873974Y-47291394D01*
X130830287Y-47279688D01*
X130645995Y-47230307D01*
X130645994Y-47230306D01*
X130645991Y-47230306D01*
X130412001Y-47199501D01*
X130411998Y-47199500D01*
X130411992Y-47199500D01*
X130175970Y-47199500D01*
X130175964Y-47199500D01*
X130175960Y-47199501D01*
X129941970Y-47230306D01*
X129713987Y-47291394D01*
X129495935Y-47381714D01*
X129495924Y-47381719D01*
X129291526Y-47499730D01*
X129104283Y-47643406D01*
X129104276Y-47643412D01*
X128937393Y-47810295D01*
X128937387Y-47810302D01*
X128793711Y-47997545D01*
X128675700Y-48201943D01*
X128675695Y-48201954D01*
X128585375Y-48420006D01*
X128524287Y-48647989D01*
X128493482Y-48881979D01*
X128493481Y-48881995D01*
X127551107Y-48881995D01*
X127561379Y-48699094D01*
X127562933Y-48685299D01*
X127612252Y-48395032D01*
X127615340Y-48381500D01*
X127696849Y-48098574D01*
X127701439Y-48085461D01*
X127719151Y-48042700D01*
X127814104Y-47813459D01*
X127820127Y-47800953D01*
X127962546Y-47543262D01*
X127969941Y-47531494D01*
X128140317Y-47291370D01*
X128148959Y-47280533D01*
X128345160Y-47060983D01*
X128354980Y-47051164D01*
X128574514Y-46854975D01*
X128585354Y-46846330D01*
X128825497Y-46675938D01*
X128837234Y-46668563D01*
X129094937Y-46526134D01*
X129107430Y-46520117D01*
X129379462Y-46407436D01*
X129392547Y-46402857D01*
X129675476Y-46321346D01*
X129689019Y-46318255D01*
X129979278Y-46268936D01*
X129993081Y-46267380D01*
X130290173Y-46250694D01*
X130297126Y-46250500D01*
X164249813Y-46250500D01*
X164290504Y-46250500D01*
X164297455Y-46250694D01*
G37*
%TD.AperFunction*%
%TD*%
%TA.AperFunction,NonConductor*%
G36*
X167013193Y-62699540D02*
G01*
X167042219Y-62763095D01*
X167043481Y-62780743D01*
X167043481Y-63199823D01*
X167023796Y-63266862D01*
X166970992Y-63312617D01*
X166907906Y-63323282D01*
X166900414Y-63322579D01*
X166878237Y-63320500D01*
X166878233Y-63320500D01*
X166737481Y-63320500D01*
X166670442Y-63300815D01*
X166624687Y-63248011D01*
X166613481Y-63196500D01*
X166613481Y-62927219D01*
X166633166Y-62860180D01*
X166670439Y-62822905D01*
X166754880Y-62768639D01*
X166799086Y-62730334D01*
X166825769Y-62699539D01*
X166884545Y-62661766D01*
X166954415Y-62661766D01*
X167013193Y-62699540D01*
G37*
%TD.AperFunction*%
%TA.AperFunction,NonConductor*%
G36*
X166976487Y-66333056D02*
G01*
X167026973Y-66381357D01*
X167043481Y-66443176D01*
X167043481Y-66883895D01*
X167023796Y-66950934D01*
X166970992Y-66996689D01*
X166901834Y-67006633D01*
X166838278Y-66977608D01*
X166825769Y-66965098D01*
X166799089Y-66934308D01*
X166754880Y-66896000D01*
X166754879Y-66895999D01*
X166670441Y-66841734D01*
X166624686Y-66788930D01*
X166613481Y-66737419D01*
X166613481Y-66446500D01*
X166633166Y-66379461D01*
X166685970Y-66333706D01*
X166737481Y-66322500D01*
X166878239Y-66322500D01*
X166890999Y-66321303D01*
X166907830Y-66319725D01*
X166907830Y-66319724D01*
X166907902Y-66319718D01*
X166976487Y-66333056D01*
G37*
%TD.AperFunction*%
%TA.AperFunction,NonConductor*%
G36*
X167013193Y-68436179D02*
G01*
X167042219Y-68499734D01*
X167043481Y-68517382D01*
X167043481Y-69423895D01*
X167023796Y-69490934D01*
X166970992Y-69536689D01*
X166901834Y-69546633D01*
X166838278Y-69517608D01*
X166825769Y-69505098D01*
X166799089Y-69474308D01*
X166754880Y-69436000D01*
X166754879Y-69435999D01*
X166633931Y-69358270D01*
X166633927Y-69358268D01*
X166633926Y-69358268D01*
X166580721Y-69333970D01*
X166490878Y-69307590D01*
X166442770Y-69293464D01*
X166442758Y-69293461D01*
X166384871Y-69285139D01*
X166384870Y-69285139D01*
X165812981Y-69285139D01*
X165812976Y-69285139D01*
X165767253Y-69290290D01*
X165722624Y-69311783D01*
X165653682Y-69323134D01*
X165616640Y-69307590D01*
X165614733Y-69311552D01*
X165602145Y-69305490D01*
X165512985Y-69285139D01*
X165512981Y-69285139D01*
X165437481Y-69285139D01*
X165370442Y-69265454D01*
X165324687Y-69212650D01*
X165313481Y-69161139D01*
X165313481Y-68780139D01*
X165333166Y-68713100D01*
X165385970Y-68667345D01*
X165437481Y-68656139D01*
X165512984Y-68656139D01*
X165512984Y-68656138D01*
X165558709Y-68650987D01*
X165567705Y-68646654D01*
X165603335Y-68629496D01*
X165672276Y-68618143D01*
X165709317Y-68633694D01*
X165711229Y-68629726D01*
X165723816Y-68635787D01*
X165723817Y-68635787D01*
X165723818Y-68635788D01*
X165790409Y-68650987D01*
X165812976Y-68656138D01*
X165812981Y-68656139D01*
X166384867Y-68656139D01*
X166384870Y-68656139D01*
X166442766Y-68647815D01*
X166580721Y-68607308D01*
X166633926Y-68583010D01*
X166639782Y-68579247D01*
X166670443Y-68559542D01*
X166754880Y-68505278D01*
X166799086Y-68466973D01*
X166825769Y-68436178D01*
X166884545Y-68398405D01*
X166954415Y-68398405D01*
X167013193Y-68436179D01*
G37*
%TD.AperFunction*%
%TA.AperFunction,NonConductor*%
G36*
X164669321Y-62835142D02*
G01*
X164688013Y-62844498D01*
X164688150Y-62844249D01*
X164692025Y-62846364D01*
X164692036Y-62846371D01*
X164745241Y-62870669D01*
X164883196Y-62911176D01*
X164941092Y-62919500D01*
X164941095Y-62919500D01*
X165512984Y-62919500D01*
X165512984Y-62919499D01*
X165558709Y-62914348D01*
X165567705Y-62910015D01*
X165603335Y-62892857D01*
X165672276Y-62881504D01*
X165709317Y-62897055D01*
X165711229Y-62893087D01*
X165723816Y-62899148D01*
X165723817Y-62899148D01*
X165723818Y-62899149D01*
X165790409Y-62914348D01*
X165812976Y-62919499D01*
X165812981Y-62919500D01*
X165888481Y-62919500D01*
X165955520Y-62939185D01*
X166001275Y-62991989D01*
X166012481Y-63043500D01*
X166012481Y-63404200D01*
X165992796Y-63471239D01*
X165988252Y-63477833D01*
X165933864Y-63551525D01*
X165890255Y-63676150D01*
X165887481Y-63705739D01*
X165887481Y-64286260D01*
X165890255Y-64315849D01*
X165933865Y-64440476D01*
X166012269Y-64546710D01*
X166012270Y-64546711D01*
X166118504Y-64625115D01*
X166118505Y-64625115D01*
X166118506Y-64625116D01*
X166243132Y-64668725D01*
X166243131Y-64668725D01*
X166272721Y-64671500D01*
X166272725Y-64671500D01*
X166878239Y-64671500D01*
X166890999Y-64670303D01*
X166907830Y-64668725D01*
X166907830Y-64668724D01*
X166907902Y-64668718D01*
X166976487Y-64682056D01*
X167026973Y-64730357D01*
X167043481Y-64792176D01*
X167043481Y-64850823D01*
X167023796Y-64917862D01*
X166970992Y-64963617D01*
X166907906Y-64974282D01*
X166900414Y-64973579D01*
X166878237Y-64971500D01*
X166272725Y-64971500D01*
X166272721Y-64971500D01*
X166243131Y-64974274D01*
X166118504Y-65017884D01*
X166012270Y-65096288D01*
X166012269Y-65096289D01*
X165933865Y-65202523D01*
X165890255Y-65327150D01*
X165887481Y-65356739D01*
X165887481Y-65937260D01*
X165890255Y-65966849D01*
X165916173Y-66040916D01*
X165933865Y-66091475D01*
X165988251Y-66165167D01*
X166012222Y-66230794D01*
X166012481Y-66238799D01*
X166012481Y-66621139D01*
X165992796Y-66688178D01*
X165939992Y-66733933D01*
X165888481Y-66745139D01*
X165812976Y-66745139D01*
X165767253Y-66750290D01*
X165722624Y-66771783D01*
X165653682Y-66783134D01*
X165616640Y-66767590D01*
X165614733Y-66771552D01*
X165602145Y-66765490D01*
X165512985Y-66745139D01*
X165512981Y-66745139D01*
X164941092Y-66745139D01*
X164941090Y-66745139D01*
X164883203Y-66753461D01*
X164883191Y-66753464D01*
X164745241Y-66793970D01*
X164692036Y-66818268D01*
X164692030Y-66818270D01*
X164571082Y-66895999D01*
X164571081Y-66896000D01*
X164526873Y-66934308D01*
X164432730Y-67042954D01*
X164432719Y-67042970D01*
X164401102Y-67092166D01*
X164401093Y-67092182D01*
X164341374Y-67222949D01*
X164324893Y-67279077D01*
X164324891Y-67279082D01*
X164304431Y-67421393D01*
X164304431Y-67479884D01*
X164305529Y-67487518D01*
X164306219Y-67492319D01*
X164307481Y-67509966D01*
X164307481Y-67891312D01*
X164306219Y-67908958D01*
X164304431Y-67921392D01*
X164304431Y-67979884D01*
X164324891Y-68122195D01*
X164324893Y-68122200D01*
X164341374Y-68178328D01*
X164401093Y-68309095D01*
X164401102Y-68309111D01*
X164432719Y-68358307D01*
X164432730Y-68358323D01*
X164467462Y-68398405D01*
X164526876Y-68466973D01*
X164571082Y-68505278D01*
X164655521Y-68559543D01*
X164701275Y-68612346D01*
X164712481Y-68663858D01*
X164712481Y-69277419D01*
X164692796Y-69344458D01*
X164655521Y-69381734D01*
X164571082Y-69435999D01*
X164571081Y-69436000D01*
X164526873Y-69474308D01*
X164432730Y-69582954D01*
X164432719Y-69582970D01*
X164401102Y-69632166D01*
X164401093Y-69632182D01*
X164341374Y-69762949D01*
X164324893Y-69819077D01*
X164324891Y-69819082D01*
X164322778Y-69833786D01*
X164293753Y-69897342D01*
X164234975Y-69935116D01*
X164200040Y-69940139D01*
X163935780Y-69940139D01*
X163859352Y-69960617D01*
X163790831Y-70000179D01*
X163790828Y-70000181D01*
X163347162Y-70443848D01*
X163285839Y-70477333D01*
X163216147Y-70472349D01*
X163160214Y-70430477D01*
X163135797Y-70365013D01*
X163135481Y-70356167D01*
X163135481Y-64317832D01*
X163155166Y-64250793D01*
X163171795Y-64230156D01*
X163863817Y-63538134D01*
X163925137Y-63504651D01*
X163994828Y-63509635D01*
X164050762Y-63551506D01*
X164075179Y-63616971D01*
X164068539Y-63666766D01*
X164065255Y-63676151D01*
X164062481Y-63705739D01*
X164062481Y-64286260D01*
X164065255Y-64315849D01*
X164108865Y-64440476D01*
X164180974Y-64538180D01*
X164187270Y-64546711D01*
X164293506Y-64625116D01*
X164336860Y-64640286D01*
X164366936Y-64650811D01*
X164423712Y-64691533D01*
X164449459Y-64756486D01*
X164449981Y-64767852D01*
X164449981Y-64875147D01*
X164430296Y-64942186D01*
X164377492Y-64987941D01*
X164366938Y-64992188D01*
X164293503Y-65017885D01*
X164187270Y-65096288D01*
X164187269Y-65096289D01*
X164108865Y-65202523D01*
X164065255Y-65327150D01*
X164062481Y-65356739D01*
X164062481Y-65937260D01*
X164065255Y-65966849D01*
X164108865Y-66091476D01*
X164187269Y-66197710D01*
X164187270Y-66197711D01*
X164293504Y-66276115D01*
X164293505Y-66276115D01*
X164293506Y-66276116D01*
X164418132Y-66319725D01*
X164418131Y-66319725D01*
X164447721Y-66322500D01*
X164447725Y-66322500D01*
X165053241Y-66322500D01*
X165082830Y-66319725D01*
X165082850Y-66319718D01*
X165207456Y-66276116D01*
X165313692Y-66197711D01*
X165392097Y-66091475D01*
X165435706Y-65966849D01*
X165437487Y-65947854D01*
X165438481Y-65937260D01*
X165438481Y-65356739D01*
X165435706Y-65327150D01*
X165392096Y-65202523D01*
X165313692Y-65096289D01*
X165313691Y-65096288D01*
X165207458Y-65017885D01*
X165207456Y-65017884D01*
X165186490Y-65010547D01*
X165134024Y-64992188D01*
X165077249Y-64951465D01*
X165051503Y-64886512D01*
X165050981Y-64875147D01*
X165050981Y-64767852D01*
X165070666Y-64700813D01*
X165123470Y-64655058D01*
X165134026Y-64650811D01*
X165156847Y-64642824D01*
X165207456Y-64625116D01*
X165313692Y-64546711D01*
X165392097Y-64440475D01*
X165435706Y-64315849D01*
X165438481Y-64286256D01*
X165438481Y-63705744D01*
X165435706Y-63676151D01*
X165432862Y-63668024D01*
X165392096Y-63551523D01*
X165313692Y-63445289D01*
X165313691Y-63445288D01*
X165207457Y-63366884D01*
X165082829Y-63323274D01*
X165082830Y-63323274D01*
X165053241Y-63320500D01*
X165053237Y-63320500D01*
X164447725Y-63320500D01*
X164447721Y-63320500D01*
X164418131Y-63323274D01*
X164418129Y-63323275D01*
X164408753Y-63326556D01*
X164338974Y-63330118D01*
X164278347Y-63295390D01*
X164246119Y-63233396D01*
X164252524Y-63163821D01*
X164280117Y-63121834D01*
X164407015Y-62994936D01*
X164538309Y-62863641D01*
X164599630Y-62830158D01*
X164669321Y-62835142D01*
G37*
%TD.AperFunction*%
%TA.AperFunction,NonConductor*%
G36*
X167013193Y-70976179D02*
G01*
X167042219Y-71039734D01*
X167043481Y-71057382D01*
X167043481Y-71479682D01*
X167023796Y-71546721D01*
X166970992Y-71592476D01*
X166907906Y-71603141D01*
X166900414Y-71602438D01*
X166878237Y-71600359D01*
X166878233Y-71600359D01*
X166737481Y-71600359D01*
X166670442Y-71580674D01*
X166624687Y-71527870D01*
X166613481Y-71476359D01*
X166613481Y-71203858D01*
X166633166Y-71136819D01*
X166670439Y-71099544D01*
X166754880Y-71045278D01*
X166799086Y-71006973D01*
X166825769Y-70976178D01*
X166884545Y-70938405D01*
X166954415Y-70938405D01*
X167013193Y-70976179D01*
G37*
%TD.AperFunction*%
%TA.AperFunction,NonConductor*%
G36*
X165709317Y-71173694D02*
G01*
X165711229Y-71169726D01*
X165723816Y-71175787D01*
X165723817Y-71175787D01*
X165723818Y-71175788D01*
X165790409Y-71190987D01*
X165812976Y-71196138D01*
X165812981Y-71196139D01*
X165888481Y-71196139D01*
X165955520Y-71215824D01*
X166001275Y-71268628D01*
X166012481Y-71320139D01*
X166012481Y-71684059D01*
X165992796Y-71751098D01*
X165988252Y-71757692D01*
X165933862Y-71831387D01*
X165931420Y-71836009D01*
X165882688Y-71886079D01*
X165814622Y-71901853D01*
X165748833Y-71878325D01*
X165706208Y-71822963D01*
X165704087Y-71817064D01*
X165673435Y-71724560D01*
X165673429Y-71724547D01*
X165582928Y-71577824D01*
X165582925Y-71577820D01*
X165461020Y-71455915D01*
X165411998Y-71425678D01*
X165365274Y-71373730D01*
X165354051Y-71304767D01*
X165381895Y-71240685D01*
X165439964Y-71201829D01*
X165477095Y-71196139D01*
X165512984Y-71196139D01*
X165512984Y-71196138D01*
X165558709Y-71190987D01*
X165567705Y-71186654D01*
X165603335Y-71169496D01*
X165672276Y-71158143D01*
X165709317Y-71173694D01*
G37*
%TD.AperFunction*%
%TA.AperFunction,NonConductor*%
G36*
X164267079Y-70560824D02*
G01*
X164312834Y-70613628D01*
X164322778Y-70647492D01*
X164324891Y-70662195D01*
X164324893Y-70662200D01*
X164341374Y-70718328D01*
X164401093Y-70849095D01*
X164401102Y-70849111D01*
X164432719Y-70898307D01*
X164432730Y-70898323D01*
X164467462Y-70938405D01*
X164526876Y-71006973D01*
X164571082Y-71045278D01*
X164613508Y-71072543D01*
X164659264Y-71125346D01*
X164669208Y-71194505D01*
X164640184Y-71258061D01*
X164581406Y-71295836D01*
X164546471Y-71300859D01*
X164451342Y-71300859D01*
X164451325Y-71300860D01*
X164350328Y-71311178D01*
X164186680Y-71365405D01*
X164186669Y-71365410D01*
X164039946Y-71455911D01*
X164039942Y-71455914D01*
X163918036Y-71577820D01*
X163918033Y-71577824D01*
X163827532Y-71724547D01*
X163827527Y-71724558D01*
X163777187Y-71876476D01*
X163737414Y-71933921D01*
X163672899Y-71960744D01*
X163604123Y-71948429D01*
X163552923Y-71900886D01*
X163535481Y-71837472D01*
X163535481Y-71156833D01*
X163555166Y-71089794D01*
X163571800Y-71069152D01*
X164063494Y-70577458D01*
X164124817Y-70543973D01*
X164151175Y-70541139D01*
X164200040Y-70541139D01*
X164267079Y-70560824D01*
G37*
%TD.AperFunction*%
%TA.AperFunction,NonConductor*%
G36*
X131577513Y-57174662D02*
G01*
X131583551Y-57180181D01*
X131690504Y-57259115D01*
X131690503Y-57259115D01*
X131735781Y-57274959D01*
X131792557Y-57315681D01*
X131818303Y-57380635D01*
X131804846Y-57449196D01*
X131756458Y-57499598D01*
X131735781Y-57509041D01*
X131690504Y-57524884D01*
X131584270Y-57603288D01*
X131584269Y-57603289D01*
X131505865Y-57709523D01*
X131505864Y-57709524D01*
X131484544Y-57770455D01*
X131443822Y-57827231D01*
X131378869Y-57852978D01*
X131367503Y-57853500D01*
X131274162Y-57853500D01*
X131207123Y-57833815D01*
X131161368Y-57781011D01*
X131157121Y-57770456D01*
X131149097Y-57747525D01*
X131121051Y-57709524D01*
X131080485Y-57654559D01*
X131056516Y-57588931D01*
X131071832Y-57520761D01*
X131115161Y-57475388D01*
X131218018Y-57411945D01*
X131339926Y-57290037D01*
X131392521Y-57204767D01*
X131444469Y-57158042D01*
X131513431Y-57146819D01*
X131577513Y-57174662D01*
G37*
%TD.AperFunction*%
%TA.AperFunction,NonConductor*%
G36*
X138685863Y-81751513D02*
G01*
X138742562Y-81792342D01*
X138767302Y-81849995D01*
X138770310Y-81869951D01*
X138784523Y-81964247D01*
X138841261Y-82082064D01*
X138852613Y-82151006D01*
X138824891Y-82215140D01*
X138817219Y-82223550D01*
X138802388Y-82238380D01*
X138741064Y-82271863D01*
X138671373Y-82266876D01*
X138657682Y-82260031D01*
X138657566Y-82260273D01*
X138650768Y-82256999D01*
X138531808Y-82199711D01*
X138482449Y-82192271D01*
X138417556Y-82182490D01*
X138354200Y-82153033D01*
X138316826Y-82094000D01*
X138315380Y-82031279D01*
X138343251Y-81913681D01*
X138343251Y-81899690D01*
X138362936Y-81832651D01*
X138415740Y-81786896D01*
X138467251Y-81775690D01*
X138498493Y-81775690D01*
X138616091Y-81747819D01*
X138685863Y-81751513D01*
G37*
%TD.AperFunction*%
%TA.AperFunction,NonConductor*%
G36*
X145351899Y-75974001D02*
G01*
X145412512Y-76003191D01*
X145543072Y-76022870D01*
X145543073Y-76022870D01*
X145647001Y-76007205D01*
X145716224Y-76016678D01*
X145769338Y-76062072D01*
X145789478Y-76128976D01*
X145789481Y-76129820D01*
X145789481Y-76820587D01*
X145769796Y-76887626D01*
X145716992Y-76933381D01*
X145665481Y-76944587D01*
X145602700Y-76944587D01*
X145471508Y-76983108D01*
X145356481Y-77057029D01*
X145356477Y-77057033D01*
X145266940Y-77160365D01*
X145266935Y-77160372D01*
X145210138Y-77284741D01*
X145210136Y-77284749D01*
X145208687Y-77294829D01*
X145179662Y-77358385D01*
X145120884Y-77396159D01*
X145051014Y-77396159D01*
X145034436Y-77389976D01*
X145032477Y-77389081D01*
X144901288Y-77350561D01*
X144901287Y-77350561D01*
X144764553Y-77350561D01*
X144764552Y-77350561D01*
X144633360Y-77389082D01*
X144518333Y-77463003D01*
X144518329Y-77463007D01*
X144428792Y-77566339D01*
X144428789Y-77566343D01*
X144426548Y-77571252D01*
X144380792Y-77624054D01*
X144313752Y-77643737D01*
X144246713Y-77624051D01*
X144226074Y-77607418D01*
X143780081Y-77161424D01*
X143779222Y-77160670D01*
X143007984Y-76389432D01*
X142974499Y-76328109D01*
X142979483Y-76258417D01*
X143021355Y-76202484D01*
X143086819Y-76178067D01*
X143124261Y-76181093D01*
X143152097Y-76187690D01*
X143324493Y-76187690D01*
X143442091Y-76159819D01*
X143511863Y-76163513D01*
X143568562Y-76204342D01*
X143593302Y-76261995D01*
X143610523Y-76376246D01*
X143667811Y-76495208D01*
X143686779Y-76518100D01*
X144185640Y-77016961D01*
X144208532Y-77035929D01*
X144208533Y-77035929D01*
X144208534Y-77035930D01*
X144327494Y-77093218D01*
X144380119Y-77101150D01*
X144458054Y-77112897D01*
X144458055Y-77112897D01*
X144458056Y-77112897D01*
X144501575Y-77106337D01*
X144588616Y-77093218D01*
X144707576Y-77035930D01*
X144730464Y-77016967D01*
X145140948Y-76606483D01*
X145159911Y-76583595D01*
X145217199Y-76464635D01*
X145236878Y-76334074D01*
X145232215Y-76303140D01*
X145217199Y-76203514D01*
X145217199Y-76203513D01*
X145204525Y-76177195D01*
X145186383Y-76139524D01*
X145175032Y-76070585D01*
X145202754Y-76006450D01*
X145260749Y-75967484D01*
X145330604Y-75966059D01*
X145351899Y-75974001D01*
G37*
%TD.AperFunction*%
%TA.AperFunction,NonConductor*%
G36*
X145277814Y-71379463D02*
G01*
X145333748Y-71421334D01*
X145358165Y-71486798D01*
X145358481Y-71495645D01*
X145358481Y-71941622D01*
X145358481Y-72027854D01*
X145380800Y-72111148D01*
X145414495Y-72169511D01*
X145423915Y-72185826D01*
X145423917Y-72185829D01*
X147989162Y-74751074D01*
X148022647Y-74812397D01*
X148025481Y-74838755D01*
X148025481Y-77548323D01*
X148005796Y-77615362D01*
X147952992Y-77661117D01*
X147883834Y-77671061D01*
X147832591Y-77651425D01*
X147792810Y-77624844D01*
X147792806Y-77624842D01*
X147690193Y-77604432D01*
X147690189Y-77604432D01*
X147575594Y-77627226D01*
X147574821Y-77623344D01*
X147527458Y-77628434D01*
X147464980Y-77597155D01*
X147429331Y-77537065D01*
X147425481Y-77506405D01*
X147425481Y-77437441D01*
X147425481Y-77437438D01*
X147420832Y-77420087D01*
X147405003Y-77361012D01*
X147365441Y-77292489D01*
X146934800Y-76861848D01*
X146901315Y-76800525D01*
X146898481Y-76774167D01*
X146898481Y-74878439D01*
X146898481Y-74878438D01*
X146878002Y-74802011D01*
X146848594Y-74751074D01*
X146838445Y-74733495D01*
X146838439Y-74733487D01*
X144069535Y-71964583D01*
X144036050Y-71903260D01*
X144034605Y-71895406D01*
X144018163Y-71786326D01*
X144018160Y-71786320D01*
X144016623Y-71781334D01*
X144015673Y-71711471D01*
X144052644Y-71652184D01*
X144115799Y-71622298D01*
X144185086Y-71631299D01*
X144190766Y-71633974D01*
X144277853Y-71677711D01*
X144445613Y-71717471D01*
X144618011Y-71717471D01*
X144785773Y-71677710D01*
X144939828Y-71600340D01*
X144939830Y-71600340D01*
X145018549Y-71536214D01*
X145146799Y-71407964D01*
X145208122Y-71374479D01*
X145277814Y-71379463D01*
G37*
%TD.AperFunction*%
%TA.AperFunction,NonConductor*%
G36*
X152379000Y-78995613D02*
G01*
X152389450Y-79000067D01*
X152507286Y-79056814D01*
X152621537Y-79074034D01*
X152684893Y-79103490D01*
X152722267Y-79162524D01*
X152723713Y-79225244D01*
X152695843Y-79342842D01*
X152695843Y-79366310D01*
X152676158Y-79433349D01*
X152623354Y-79479104D01*
X152571843Y-79490310D01*
X152538467Y-79490310D01*
X152420869Y-79518180D01*
X152351097Y-79514486D01*
X152294399Y-79473656D01*
X152269659Y-79416004D01*
X152252439Y-79301753D01*
X152198920Y-79190621D01*
X152187569Y-79121680D01*
X152215291Y-79057546D01*
X152222949Y-79049150D01*
X152247987Y-79024112D01*
X152309308Y-78990629D01*
X152379000Y-78995613D01*
G37*
%TD.AperFunction*%
%TA.AperFunction,NonConductor*%
G36*
X141212492Y-79071203D02*
G01*
X141220899Y-79078872D01*
X141282325Y-79140298D01*
X141315810Y-79201621D01*
X141310826Y-79271313D01*
X141306364Y-79281780D01*
X141249626Y-79399596D01*
X141249626Y-79399599D01*
X141232405Y-79513850D01*
X141202948Y-79577207D01*
X141143914Y-79614580D01*
X141081195Y-79616026D01*
X140963597Y-79588156D01*
X140903365Y-79588156D01*
X140836326Y-79568471D01*
X140790571Y-79515667D01*
X140779365Y-79464156D01*
X140779365Y-79394555D01*
X140751494Y-79276957D01*
X140755188Y-79207185D01*
X140796017Y-79150486D01*
X140853668Y-79125747D01*
X140967922Y-79108526D01*
X141079417Y-79054832D01*
X141148358Y-79043481D01*
X141212492Y-79071203D01*
G37*
%TD.AperFunction*%
%TA.AperFunction,NonConductor*%
G36*
X156774884Y-88602330D02*
G01*
X156781362Y-88608362D01*
X158288819Y-90115819D01*
X158322304Y-90177142D01*
X158317320Y-90246834D01*
X158275448Y-90302767D01*
X158209984Y-90327184D01*
X158201138Y-90327500D01*
X157869428Y-90327500D01*
X157810951Y-90339131D01*
X157810950Y-90339132D01*
X157744628Y-90383447D01*
X157700313Y-90449769D01*
X157700312Y-90449770D01*
X157688681Y-90508247D01*
X157688681Y-92247752D01*
X157700312Y-92306229D01*
X157700313Y-92306230D01*
X157744628Y-92372552D01*
X157810950Y-92416867D01*
X157810951Y-92416868D01*
X157869428Y-92428499D01*
X157869431Y-92428500D01*
X158179724Y-92428500D01*
X158246763Y-92448185D01*
X158292518Y-92500989D01*
X158302462Y-92570147D01*
X158273437Y-92633703D01*
X158232129Y-92664882D01*
X158061603Y-92744399D01*
X158061601Y-92744400D01*
X157868107Y-92879886D01*
X157868101Y-92879891D01*
X157701072Y-93046920D01*
X157701071Y-93046922D01*
X157570756Y-93233031D01*
X157516179Y-93276655D01*
X157446680Y-93283848D01*
X157384326Y-93252326D01*
X157367606Y-93233031D01*
X157237290Y-93046922D01*
X157237289Y-93046920D01*
X157070263Y-92879894D01*
X156876759Y-92744399D01*
X156662673Y-92644570D01*
X156662667Y-92644567D01*
X156540530Y-92611841D01*
X156480870Y-92575476D01*
X156450341Y-92512629D01*
X156458636Y-92443253D01*
X156503121Y-92389375D01*
X156536625Y-92373407D01*
X156603135Y-92353232D01*
X156785631Y-92255685D01*
X156945591Y-92124410D01*
X157076866Y-91964450D01*
X157174413Y-91781954D01*
X157234481Y-91583934D01*
X157254764Y-91378000D01*
X157234481Y-91172066D01*
X157174413Y-90974046D01*
X157076866Y-90791550D01*
X157024883Y-90728209D01*
X156945591Y-90631589D01*
X156795302Y-90508252D01*
X156785631Y-90500315D01*
X156635226Y-90419921D01*
X156585383Y-90370959D01*
X156569681Y-90310564D01*
X156569681Y-88696043D01*
X156589366Y-88629004D01*
X156642170Y-88583249D01*
X156711328Y-88573305D01*
X156774884Y-88602330D01*
G37*
%TD.AperFunction*%
%TA.AperFunction,NonConductor*%
G36*
X154234884Y-86826006D02*
G01*
X154241362Y-86832038D01*
X155792362Y-88383038D01*
X155825847Y-88444361D01*
X155828681Y-88470719D01*
X155828681Y-90310564D01*
X155808996Y-90377603D01*
X155763135Y-90419921D01*
X155612731Y-90500315D01*
X155612729Y-90500316D01*
X155612728Y-90500317D01*
X155452770Y-90631589D01*
X155321498Y-90791547D01*
X155223950Y-90974043D01*
X155163880Y-91172067D01*
X155143598Y-91378000D01*
X155163880Y-91583932D01*
X155163881Y-91583934D01*
X155223949Y-91781954D01*
X155321496Y-91964450D01*
X155321498Y-91964452D01*
X155452770Y-92124410D01*
X155547246Y-92201943D01*
X155612731Y-92255685D01*
X155795227Y-92353232D01*
X155861732Y-92373405D01*
X155920170Y-92411702D01*
X155948627Y-92475514D01*
X155938068Y-92544581D01*
X155891844Y-92596975D01*
X155857831Y-92611841D01*
X155735695Y-92644567D01*
X155735688Y-92644570D01*
X155521603Y-92744399D01*
X155521601Y-92744400D01*
X155328107Y-92879886D01*
X155328101Y-92879891D01*
X155161072Y-93046920D01*
X155161071Y-93046922D01*
X155030756Y-93233031D01*
X154976179Y-93276655D01*
X154906680Y-93283848D01*
X154844326Y-93252326D01*
X154827606Y-93233031D01*
X154697290Y-93046922D01*
X154697289Y-93046920D01*
X154530263Y-92879894D01*
X154336759Y-92744399D01*
X154122673Y-92644570D01*
X154122667Y-92644567D01*
X154000530Y-92611841D01*
X153940870Y-92575476D01*
X153910341Y-92512629D01*
X153918636Y-92443253D01*
X153963121Y-92389375D01*
X153996625Y-92373407D01*
X154063135Y-92353232D01*
X154245631Y-92255685D01*
X154405591Y-92124410D01*
X154536866Y-91964450D01*
X154634413Y-91781954D01*
X154694481Y-91583934D01*
X154714764Y-91378000D01*
X154694481Y-91172066D01*
X154634413Y-90974046D01*
X154536866Y-90791550D01*
X154484883Y-90728209D01*
X154405591Y-90631589D01*
X154255302Y-90508252D01*
X154245631Y-90500315D01*
X154095226Y-90419921D01*
X154045383Y-90370959D01*
X154029681Y-90310564D01*
X154029681Y-86919719D01*
X154049366Y-86852680D01*
X154102170Y-86806925D01*
X154171328Y-86796981D01*
X154234884Y-86826006D01*
G37*
%TD.AperFunction*%
%TA.AperFunction,NonConductor*%
G36*
X150057835Y-83416195D02*
G01*
X150078478Y-83432830D01*
X153252362Y-86606714D01*
X153285847Y-86668037D01*
X153288681Y-86694395D01*
X153288681Y-90310564D01*
X153268996Y-90377603D01*
X153223135Y-90419921D01*
X153072731Y-90500315D01*
X153072729Y-90500316D01*
X153072728Y-90500317D01*
X152912770Y-90631589D01*
X152781498Y-90791547D01*
X152683950Y-90974043D01*
X152623880Y-91172067D01*
X152603598Y-91378000D01*
X152623880Y-91583932D01*
X152623881Y-91583934D01*
X152683949Y-91781954D01*
X152781496Y-91964450D01*
X152781498Y-91964452D01*
X152912770Y-92124410D01*
X153007246Y-92201943D01*
X153072731Y-92255685D01*
X153255227Y-92353232D01*
X153321732Y-92373405D01*
X153380170Y-92411702D01*
X153408627Y-92475514D01*
X153398068Y-92544581D01*
X153351844Y-92596975D01*
X153317831Y-92611841D01*
X153195695Y-92644567D01*
X153195688Y-92644570D01*
X152981603Y-92744399D01*
X152981601Y-92744400D01*
X152788107Y-92879886D01*
X152788101Y-92879891D01*
X152621072Y-93046920D01*
X152621071Y-93046922D01*
X152490756Y-93233031D01*
X152436179Y-93276655D01*
X152366680Y-93283848D01*
X152304326Y-93252326D01*
X152287606Y-93233031D01*
X152157290Y-93046922D01*
X152157289Y-93046920D01*
X151990263Y-92879894D01*
X151796759Y-92744399D01*
X151582673Y-92644570D01*
X151582667Y-92644567D01*
X151460530Y-92611841D01*
X151400870Y-92575476D01*
X151370341Y-92512629D01*
X151378636Y-92443253D01*
X151423121Y-92389375D01*
X151456625Y-92373407D01*
X151523135Y-92353232D01*
X151705631Y-92255685D01*
X151865591Y-92124410D01*
X151996866Y-91964450D01*
X152094413Y-91781954D01*
X152154481Y-91583934D01*
X152174764Y-91378000D01*
X152154481Y-91172066D01*
X152094413Y-90974046D01*
X151996866Y-90791550D01*
X151944883Y-90728209D01*
X151865591Y-90631589D01*
X151715302Y-90508252D01*
X151705631Y-90500315D01*
X151555226Y-90419921D01*
X151505383Y-90370959D01*
X151489681Y-90310564D01*
X151489681Y-87772422D01*
X151487389Y-87763872D01*
X151487386Y-87763860D01*
X151468657Y-87693959D01*
X151464432Y-87678192D01*
X151416285Y-87594799D01*
X151416262Y-87594759D01*
X151415655Y-87593707D01*
X149526000Y-85704052D01*
X149492515Y-85642729D01*
X149489681Y-85616371D01*
X149489681Y-84021029D01*
X149486310Y-84008450D01*
X149486309Y-84008448D01*
X149464432Y-83926802D01*
X149464431Y-83926798D01*
X149441073Y-83886342D01*
X149424600Y-83818442D01*
X149447452Y-83752415D01*
X149502373Y-83709224D01*
X149530816Y-83701603D01*
X149534820Y-83701027D01*
X149534821Y-83701027D01*
X149666015Y-83662505D01*
X149781043Y-83588582D01*
X149870584Y-83485245D01*
X149878002Y-83468999D01*
X149923756Y-83416196D01*
X149990795Y-83396511D01*
X150057835Y-83416195D01*
G37*
%TD.AperFunction*%
%TA.AperFunction,NonConductor*%
G36*
X149154884Y-86381316D02*
G01*
X149161362Y-86387348D01*
X150712362Y-87938348D01*
X150745847Y-87999671D01*
X150748681Y-88026029D01*
X150748681Y-90310564D01*
X150728996Y-90377603D01*
X150683135Y-90419921D01*
X150532731Y-90500315D01*
X150532729Y-90500316D01*
X150532728Y-90500317D01*
X150372770Y-90631589D01*
X150241498Y-90791547D01*
X150143950Y-90974043D01*
X150083880Y-91172067D01*
X150063598Y-91378000D01*
X150083880Y-91583932D01*
X150083881Y-91583934D01*
X150143949Y-91781954D01*
X150241496Y-91964450D01*
X150241498Y-91964452D01*
X150372770Y-92124410D01*
X150467246Y-92201943D01*
X150532731Y-92255685D01*
X150715227Y-92353232D01*
X150781732Y-92373405D01*
X150840170Y-92411702D01*
X150868627Y-92475514D01*
X150858068Y-92544581D01*
X150811844Y-92596975D01*
X150777831Y-92611841D01*
X150655695Y-92644567D01*
X150655688Y-92644570D01*
X150441603Y-92744399D01*
X150441601Y-92744400D01*
X150248107Y-92879886D01*
X150248101Y-92879891D01*
X150081072Y-93046920D01*
X150081071Y-93046922D01*
X149950756Y-93233031D01*
X149896179Y-93276655D01*
X149826680Y-93283848D01*
X149764326Y-93252326D01*
X149747606Y-93233031D01*
X149617290Y-93046922D01*
X149617289Y-93046920D01*
X149450263Y-92879894D01*
X149256759Y-92744399D01*
X149042673Y-92644570D01*
X149042667Y-92644567D01*
X148920530Y-92611841D01*
X148860870Y-92575476D01*
X148830341Y-92512629D01*
X148838636Y-92443253D01*
X148883121Y-92389375D01*
X148916625Y-92373407D01*
X148983135Y-92353232D01*
X149165631Y-92255685D01*
X149325591Y-92124410D01*
X149456866Y-91964450D01*
X149554413Y-91781954D01*
X149614481Y-91583934D01*
X149634764Y-91378000D01*
X149614481Y-91172066D01*
X149554413Y-90974046D01*
X149456866Y-90791550D01*
X149404883Y-90728209D01*
X149325591Y-90631589D01*
X149175302Y-90508252D01*
X149165631Y-90500315D01*
X149015226Y-90419921D01*
X148965383Y-90370959D01*
X148949681Y-90310564D01*
X148949681Y-86475029D01*
X148969366Y-86407990D01*
X149022170Y-86362235D01*
X149091328Y-86352291D01*
X149154884Y-86381316D01*
G37*
%TD.AperFunction*%
%TA.AperFunction,NonConductor*%
G36*
X147026417Y-82723118D02*
G01*
X147070762Y-82751616D01*
X147201687Y-82882541D01*
X147201700Y-82882556D01*
X147208754Y-82889610D01*
X147208755Y-82889611D01*
X147552985Y-83233841D01*
X147887162Y-83568017D01*
X147920647Y-83629340D01*
X147923481Y-83655698D01*
X147923481Y-83779228D01*
X147919256Y-83811320D01*
X147898482Y-83888850D01*
X147898482Y-83981149D01*
X147922365Y-84070285D01*
X147922366Y-84070286D01*
X147922367Y-84070288D01*
X147950387Y-84118821D01*
X147968512Y-84150213D01*
X148192362Y-84374062D01*
X148225847Y-84435385D01*
X148228681Y-84461743D01*
X148228681Y-84514196D01*
X148224456Y-84546288D01*
X148208681Y-84605161D01*
X148208681Y-90310564D01*
X148188996Y-90377603D01*
X148143135Y-90419921D01*
X147992731Y-90500315D01*
X147992729Y-90500316D01*
X147992728Y-90500317D01*
X147832770Y-90631589D01*
X147701498Y-90791547D01*
X147603950Y-90974043D01*
X147543880Y-91172067D01*
X147523598Y-91378000D01*
X147543880Y-91583932D01*
X147543881Y-91583934D01*
X147603949Y-91781954D01*
X147701496Y-91964450D01*
X147701498Y-91964452D01*
X147832770Y-92124410D01*
X147927246Y-92201943D01*
X147992731Y-92255685D01*
X148175227Y-92353232D01*
X148241732Y-92373405D01*
X148300170Y-92411702D01*
X148328627Y-92475514D01*
X148318068Y-92544581D01*
X148271844Y-92596975D01*
X148237831Y-92611841D01*
X148115695Y-92644567D01*
X148115688Y-92644570D01*
X147901603Y-92744399D01*
X147901601Y-92744400D01*
X147708107Y-92879886D01*
X147708101Y-92879891D01*
X147541072Y-93046920D01*
X147541071Y-93046922D01*
X147410756Y-93233031D01*
X147356179Y-93276655D01*
X147286680Y-93283848D01*
X147224326Y-93252326D01*
X147207606Y-93233031D01*
X147077290Y-93046922D01*
X147077289Y-93046920D01*
X146910263Y-92879894D01*
X146716759Y-92744399D01*
X146502673Y-92644570D01*
X146502667Y-92644567D01*
X146380530Y-92611841D01*
X146320870Y-92575476D01*
X146290341Y-92512629D01*
X146298636Y-92443253D01*
X146343121Y-92389375D01*
X146376625Y-92373407D01*
X146443135Y-92353232D01*
X146625631Y-92255685D01*
X146785591Y-92124410D01*
X146916866Y-91964450D01*
X147014413Y-91781954D01*
X147074481Y-91583934D01*
X147094764Y-91378000D01*
X147074481Y-91172066D01*
X147014413Y-90974046D01*
X146916866Y-90791550D01*
X146864883Y-90728209D01*
X146785591Y-90631589D01*
X146625632Y-90500315D01*
X146530026Y-90449211D01*
X146480182Y-90400248D01*
X146464481Y-90339854D01*
X146464481Y-84118825D01*
X146464480Y-84118821D01*
X146448706Y-84059948D01*
X146444481Y-84027856D01*
X146444481Y-83253905D01*
X146464166Y-83186866D01*
X146480800Y-83166224D01*
X146618972Y-83028052D01*
X146757413Y-82889611D01*
X146757413Y-82889609D01*
X146764474Y-82882549D01*
X146764480Y-82882541D01*
X146895402Y-82751618D01*
X146956725Y-82718134D01*
X147026417Y-82723118D01*
G37*
%TD.AperFunction*%
%TA.AperFunction,NonConductor*%
G36*
X145642815Y-84121323D02*
G01*
X145698748Y-84163195D01*
X145723165Y-84228659D01*
X145723481Y-84237505D01*
X145723481Y-90284031D01*
X145703796Y-90351070D01*
X145650992Y-90396825D01*
X145635493Y-90402686D01*
X145635232Y-90402765D01*
X145613882Y-90414177D01*
X145452731Y-90500315D01*
X145452729Y-90500316D01*
X145452728Y-90500317D01*
X145292770Y-90631589D01*
X145161498Y-90791547D01*
X145063950Y-90974043D01*
X145003880Y-91172067D01*
X144983598Y-91378000D01*
X145003880Y-91583932D01*
X145003881Y-91583934D01*
X145063949Y-91781954D01*
X145161496Y-91964450D01*
X145161498Y-91964452D01*
X145292770Y-92124410D01*
X145387246Y-92201943D01*
X145452731Y-92255685D01*
X145635227Y-92353232D01*
X145701732Y-92373405D01*
X145760170Y-92411702D01*
X145788627Y-92475514D01*
X145778068Y-92544581D01*
X145731844Y-92596975D01*
X145697831Y-92611841D01*
X145575695Y-92644567D01*
X145575688Y-92644570D01*
X145361603Y-92744399D01*
X145361601Y-92744400D01*
X145168107Y-92879886D01*
X145168101Y-92879891D01*
X145001072Y-93046920D01*
X145001071Y-93046922D01*
X144870756Y-93233031D01*
X144816179Y-93276655D01*
X144746680Y-93283848D01*
X144684326Y-93252326D01*
X144667606Y-93233031D01*
X144537290Y-93046922D01*
X144537289Y-93046920D01*
X144370263Y-92879894D01*
X144176759Y-92744399D01*
X143962673Y-92644570D01*
X143962667Y-92644567D01*
X143840530Y-92611841D01*
X143780870Y-92575476D01*
X143750341Y-92512629D01*
X143758636Y-92443253D01*
X143803121Y-92389375D01*
X143836625Y-92373407D01*
X143903135Y-92353232D01*
X144085631Y-92255685D01*
X144245591Y-92124410D01*
X144376866Y-91964450D01*
X144474413Y-91781954D01*
X144534481Y-91583934D01*
X144554764Y-91378000D01*
X144534481Y-91172066D01*
X144474413Y-90974046D01*
X144376866Y-90791550D01*
X144324883Y-90728209D01*
X144245591Y-90631589D01*
X144095302Y-90508252D01*
X144085631Y-90500315D01*
X143935226Y-90419921D01*
X143885383Y-90370959D01*
X143869681Y-90310564D01*
X143869681Y-85843305D01*
X143889366Y-85776266D01*
X143906000Y-85755624D01*
X145511800Y-84149824D01*
X145573123Y-84116339D01*
X145642815Y-84121323D01*
G37*
%TD.AperFunction*%
%TA.AperFunction,NonConductor*%
G36*
X143048015Y-85952446D02*
G01*
X143103948Y-85994318D01*
X143128365Y-86059782D01*
X143128681Y-86068628D01*
X143128681Y-90310564D01*
X143108996Y-90377603D01*
X143063135Y-90419921D01*
X142912731Y-90500315D01*
X142912729Y-90500316D01*
X142912728Y-90500317D01*
X142752770Y-90631589D01*
X142621498Y-90791547D01*
X142523950Y-90974043D01*
X142463880Y-91172067D01*
X142443598Y-91378000D01*
X142463880Y-91583932D01*
X142463881Y-91583934D01*
X142523949Y-91781954D01*
X142621496Y-91964450D01*
X142621498Y-91964452D01*
X142752770Y-92124410D01*
X142847246Y-92201943D01*
X142912731Y-92255685D01*
X143095227Y-92353232D01*
X143161732Y-92373405D01*
X143220170Y-92411702D01*
X143248627Y-92475514D01*
X143238068Y-92544581D01*
X143191844Y-92596975D01*
X143157831Y-92611841D01*
X143035695Y-92644567D01*
X143035688Y-92644570D01*
X142821603Y-92744399D01*
X142821601Y-92744400D01*
X142628107Y-92879886D01*
X142628101Y-92879891D01*
X142461072Y-93046920D01*
X142461071Y-93046922D01*
X142330756Y-93233031D01*
X142276179Y-93276655D01*
X142206680Y-93283848D01*
X142144326Y-93252326D01*
X142127606Y-93233031D01*
X141997290Y-93046922D01*
X141997289Y-93046920D01*
X141830263Y-92879894D01*
X141636759Y-92744399D01*
X141422673Y-92644570D01*
X141422667Y-92644567D01*
X141300530Y-92611841D01*
X141240870Y-92575476D01*
X141210341Y-92512629D01*
X141218636Y-92443253D01*
X141263121Y-92389375D01*
X141296625Y-92373407D01*
X141363135Y-92353232D01*
X141545631Y-92255685D01*
X141705591Y-92124410D01*
X141836866Y-91964450D01*
X141934413Y-91781954D01*
X141994481Y-91583934D01*
X142014764Y-91378000D01*
X141994481Y-91172066D01*
X141934413Y-90974046D01*
X141836866Y-90791550D01*
X141784883Y-90728209D01*
X141705591Y-90631589D01*
X141555302Y-90508252D01*
X141545631Y-90500315D01*
X141395226Y-90419921D01*
X141345383Y-90370959D01*
X141329681Y-90310564D01*
X141329681Y-87619628D01*
X141349366Y-87552589D01*
X141366000Y-87531947D01*
X142917000Y-85980947D01*
X142978323Y-85947462D01*
X143048015Y-85952446D01*
G37*
%TD.AperFunction*%
%TA.AperFunction,NonConductor*%
G36*
X143953971Y-82889164D02*
G01*
X144009904Y-82931036D01*
X144023427Y-82953828D01*
X144044852Y-83000740D01*
X144044853Y-83000741D01*
X144044854Y-83000743D01*
X144134391Y-83104075D01*
X144134395Y-83104079D01*
X144181933Y-83134629D01*
X144249119Y-83177806D01*
X144249423Y-83178001D01*
X144375568Y-83215040D01*
X144434346Y-83252814D01*
X144463372Y-83316369D01*
X144453429Y-83385528D01*
X144428315Y-83421698D01*
X140662709Y-87187304D01*
X140662705Y-87187310D01*
X140638318Y-87229550D01*
X140613931Y-87271789D01*
X140613931Y-87271790D01*
X140613930Y-87271793D01*
X140593274Y-87348884D01*
X140593273Y-87348888D01*
X140588681Y-87366023D01*
X140588681Y-90310564D01*
X140568996Y-90377603D01*
X140523135Y-90419921D01*
X140372731Y-90500315D01*
X140372729Y-90500316D01*
X140372728Y-90500317D01*
X140212770Y-90631589D01*
X140081498Y-90791547D01*
X139983950Y-90974043D01*
X139923880Y-91172067D01*
X139903598Y-91378000D01*
X139923880Y-91583932D01*
X139923881Y-91583934D01*
X139983949Y-91781954D01*
X140081496Y-91964450D01*
X140081498Y-91964452D01*
X140212770Y-92124410D01*
X140307246Y-92201943D01*
X140372731Y-92255685D01*
X140555227Y-92353232D01*
X140621732Y-92373405D01*
X140680170Y-92411702D01*
X140708627Y-92475514D01*
X140698068Y-92544581D01*
X140651844Y-92596975D01*
X140617831Y-92611841D01*
X140495695Y-92644567D01*
X140495688Y-92644570D01*
X140281603Y-92744399D01*
X140281601Y-92744400D01*
X140088107Y-92879886D01*
X140088101Y-92879891D01*
X139921072Y-93046920D01*
X139921071Y-93046922D01*
X139790756Y-93233031D01*
X139736179Y-93276655D01*
X139666680Y-93283848D01*
X139604326Y-93252326D01*
X139587606Y-93233031D01*
X139457290Y-93046922D01*
X139457289Y-93046920D01*
X139290263Y-92879894D01*
X139096759Y-92744399D01*
X138882673Y-92644570D01*
X138882667Y-92644567D01*
X138760530Y-92611841D01*
X138700870Y-92575476D01*
X138670341Y-92512629D01*
X138678636Y-92443253D01*
X138723121Y-92389375D01*
X138756625Y-92373407D01*
X138823135Y-92353232D01*
X139005631Y-92255685D01*
X139165591Y-92124410D01*
X139296866Y-91964450D01*
X139394413Y-91781954D01*
X139454481Y-91583934D01*
X139474764Y-91378000D01*
X139454481Y-91172066D01*
X139394413Y-90974046D01*
X139296866Y-90791550D01*
X139244883Y-90728209D01*
X139165591Y-90631589D01*
X139015302Y-90508252D01*
X139005631Y-90500315D01*
X138855226Y-90419921D01*
X138805383Y-90370959D01*
X138789681Y-90310564D01*
X138789681Y-88002303D01*
X138809366Y-87935264D01*
X138825995Y-87914627D01*
X143822958Y-82917663D01*
X143884279Y-82884180D01*
X143953971Y-82889164D01*
G37*
%TD.AperFunction*%
%TA.AperFunction,NonConductor*%
G36*
X137968015Y-88111447D02*
G01*
X138023948Y-88153319D01*
X138048365Y-88218783D01*
X138048681Y-88227629D01*
X138048681Y-90310564D01*
X138028996Y-90377603D01*
X137983135Y-90419921D01*
X137832731Y-90500315D01*
X137832729Y-90500316D01*
X137832728Y-90500317D01*
X137672770Y-90631589D01*
X137541498Y-90791547D01*
X137443950Y-90974043D01*
X137383880Y-91172067D01*
X137363598Y-91378000D01*
X137383880Y-91583932D01*
X137383881Y-91583934D01*
X137443949Y-91781954D01*
X137541496Y-91964450D01*
X137541498Y-91964452D01*
X137672770Y-92124410D01*
X137767246Y-92201943D01*
X137832731Y-92255685D01*
X138015227Y-92353232D01*
X138081732Y-92373405D01*
X138140170Y-92411702D01*
X138168627Y-92475514D01*
X138158068Y-92544581D01*
X138111844Y-92596975D01*
X138077831Y-92611841D01*
X137955695Y-92644567D01*
X137955688Y-92644570D01*
X137741603Y-92744399D01*
X137741601Y-92744400D01*
X137548107Y-92879886D01*
X137548101Y-92879891D01*
X137381072Y-93046920D01*
X137381071Y-93046922D01*
X137250756Y-93233031D01*
X137196179Y-93276655D01*
X137126680Y-93283848D01*
X137064326Y-93252326D01*
X137047606Y-93233031D01*
X136917290Y-93046922D01*
X136917289Y-93046920D01*
X136750263Y-92879894D01*
X136556759Y-92744399D01*
X136342673Y-92644570D01*
X136342667Y-92644567D01*
X136220530Y-92611841D01*
X136160870Y-92575476D01*
X136130341Y-92512629D01*
X136138636Y-92443253D01*
X136183121Y-92389375D01*
X136216625Y-92373407D01*
X136283135Y-92353232D01*
X136465631Y-92255685D01*
X136625591Y-92124410D01*
X136756866Y-91964450D01*
X136854413Y-91781954D01*
X136914481Y-91583934D01*
X136934764Y-91378000D01*
X136914481Y-91172066D01*
X136854413Y-90974046D01*
X136756866Y-90791550D01*
X136704883Y-90728209D01*
X136625591Y-90631589D01*
X136475302Y-90508252D01*
X136465631Y-90500315D01*
X136315226Y-90419921D01*
X136265383Y-90370959D01*
X136249681Y-90310564D01*
X136249681Y-89778629D01*
X136269366Y-89711590D01*
X136286000Y-89690948D01*
X137837000Y-88139948D01*
X137898323Y-88106463D01*
X137968015Y-88111447D01*
G37*
%TD.AperFunction*%
M02*
